<svg version="1.1" xmlns="http://www.w3.org/2000/svg" xmlns:xlink="http://www.w3.org/1999/xlink" width="450" height="400" style="width: 450px; height: 400px;"><defs><clipPath id="EcoHKTVPSDAV"><path fill="none" stroke="none" d=" M 31 28 L 420 28 L 420 376 L 31 376 L 31 28 Z"/></clipPath><clipPath id="tPmlxWMaRpQp"><path fill="none" stroke="none" d=" M 31 28 L 420 28 L 420 376 L 31 376 L 31 28 Z"/></clipPath></defs><g><g transform="scale(1,1) translate(0.5,0.5)"><rect fill="#FFFFFF" stroke="none" x="0" y="0" width="450" height="400"/><rect fill="#ffffff" stroke="none" x="0" y="0" width="450" height="400"/><rect fill="#FFFFFF" stroke="none" x="31" y="28" width="389" height="348"/><rect fill="#ffffff" stroke="none" x="31" y="28" width="389" height="348"/><g><rect fill="none" stroke="#e5e5e5" x="31" y="28" width="389" height="348" stroke-linejoin="bevel" stroke-miterlimit="10"/></g><g clip-path="url(#EcoHKTVPSDAV)"><g><g><path fill="none" stroke="none"/><rect fill="#00BFA5" stroke="none" x="48.6818181818182" y="308.75324675324674" width="35.36363636363636" height="51.428571428571445"/><rect fill="#00BFA5" stroke="none" x="84.04545454545456" y="159.14285714285717" width="35.363636363636374" height="201.03896103896102"/><rect fill="#00BFA5" stroke="none" x="119.40909090909093" y="43.81818181818187" width="35.363636363636374" height="316.3636363636363"/><rect fill="#00BFA5" stroke="none" x="154.7727272727273" y="134.20779220779224" width="35.363636363636374" height="225.97402597402595"/><rect fill="#00BFA5" stroke="none" x="190.13636363636368" y="191.8701298701299" width="35.36363636363632" height="168.3116883116883"/><rect fill="#00BFA5" stroke="none" x="225.5" y="199.66233766233768" width="35.36363636363643" height="160.5194805194805"/><rect fill="#00BFA5" stroke="none" x="260.86363636363643" y="258.8831168831169" width="35.36363636363632" height="101.2987012987013"/><rect fill="#00BFA5" stroke="none" x="296.22727272727275" y="269.7922077922078" width="35.363636363636374" height="90.38961038961037"/><rect fill="#00BFA5" stroke="none" x="331.5909090909091" y="319.6623376623377" width="35.36363636363632" height="40.51948051948051"/><rect fill="#00BFA5" stroke="none" x="366.95454545454544" y="353.94805194805195" width="35.363636363636374" height="6.233766233766232"/></g><g><path fill="none" stroke="none"/><rect fill="#8c9eff" stroke="none" x="48.6818181818182" y="349.27272727272725" width="35.36363636363636" height="10.909090909090935" fill-opacity="0.6"/><rect fill="#8c9eff" stroke="none" x="84.04545454545456" y="293.16883116883116" width="35.363636363636374" height="67.01298701298703" fill-opacity="0.6"/><rect fill="#8c9eff" stroke="none" x="119.40909090909093" y="223.03896103896105" width="35.363636363636374" height="137.14285714285714" fill-opacity="0.6"/><rect fill="#8c9eff" stroke="none" x="154.7727272727273" y="196.54545454545456" width="35.363636363636374" height="163.63636363636363" fill-opacity="0.6"/><rect fill="#8c9eff" stroke="none" x="190.13636363636368" y="160.70129870129873" width="35.36363636363632" height="199.48051948051946" fill-opacity="0.6"/><rect fill="#8c9eff" stroke="none" x="225.5" y="140.44155844155847" width="35.36363636363643" height="219.74025974025972" fill-opacity="0.6"/><rect fill="#8c9eff" stroke="none" x="260.86363636363643" y="124.85714285714289" width="35.36363636363632" height="235.3246753246753" fill-opacity="0.6"/><rect fill="#8c9eff" stroke="none" x="296.22727272727275" y="142.00000000000003" width="35.363636363636374" height="218.18181818181816" fill-opacity="0.6"/><rect fill="#8c9eff" stroke="none" x="331.5909090909091" y="120.18181818181822" width="35.36363636363632" height="239.99999999999997" fill-opacity="0.6"/><rect fill="#8c9eff" stroke="none" x="366.95454545454544" y="98.36363636363637" width="35.363636363636374" height="261.8181818181818" fill-opacity="0.6"/></g></g></g><g><g clip-path="url(#tPmlxWMaRpQp)"><g><g/><g><path fill="#ffffff" stroke="#e5e5e5" paint-order="fill stroke markers" d=" M 271.1875 38 L 410 38 L 410 101 L 271.1875 101 L 271.1875 38 Z" fill-opacity="0.95" stroke-linejoin="bevel" stroke-miterlimit="10" stroke-opacity="0.5"/><text fill="#444444" stroke="none" font-family="helvetica" font-size="10pt" font-style="normal" font-weight="normal" text-decoration="normal" x="306.1875" y="58" text-anchor="start" dominant-baseline="central">PaidLoan: False</text><rect fill="#00BFA5" stroke="none" x="283.1875" y="50" width="16" height="16"/><text fill="#444444" stroke="none" font-family="helvetica" font-size="10pt" font-style="normal" font-weight="normal" text-decoration="normal" x="306.1875" y="81" text-anchor="start" dominant-baseline="central">PaidLoan: True</text><rect fill="#8c9eff" stroke="none" x="283.1875" y="73" width="16" height="16" fill-opacity="0.6"/></g></g></g><g fill="#444444"><path fill="" stroke="none" d=""/><g transform="translate(31,23)"><path fill="none" stroke="none"/><text fill="" stroke="none" font-family="Helvetica Neue" font-size="10pt" font-style="normal" font-weight="bold" text-decoration="normal" x="0" y="0" text-anchor="start" dominant-baseline="text-after-edge">Predicted probabilities for females</text></g></g></g><g><g fill="#444444"><path fill="none" stroke="black" paint-order="fill stroke markers" d=" M 31 376 L 420 376" stroke-linejoin="bevel" stroke-miterlimit="10"/><path fill="none" stroke="black" paint-order="fill stroke markers" d=" M 49 382 L 49 374" stroke-linejoin="bevel" stroke-miterlimit="10"/><path fill="none" stroke="black" paint-order="fill stroke markers" d=" M 119 382 L 119 374" stroke-linejoin="bevel" stroke-miterlimit="10"/><path fill="none" stroke="black" paint-order="fill stroke markers" d=" M 190 382 L 190 374" stroke-linejoin="bevel" stroke-miterlimit="10"/><path fill="none" stroke="black" paint-order="fill stroke markers" d=" M 261 382 L 261 374" stroke-linejoin="bevel" stroke-miterlimit="10"/><path fill="none" stroke="black" paint-order="fill stroke markers" d=" M 332 382 L 332 374" stroke-linejoin="bevel" stroke-miterlimit="10"/><path fill="none" stroke="black" paint-order="fill stroke markers" d=" M 402 382 L 402 374" stroke-linejoin="bevel" stroke-miterlimit="10"/><path fill="none" stroke="black" paint-order="fill stroke markers" d=" M 35 380 L 35 376" stroke-linejoin="bevel" stroke-miterlimit="10"/><path fill="none" stroke="black" paint-order="fill stroke markers" d=" M 49 380 L 49 376" stroke-linejoin="bevel" stroke-miterlimit="10"/><path fill="none" stroke="black" paint-order="fill stroke markers" d=" M 63 380 L 63 376" stroke-linejoin="bevel" stroke-miterlimit="10"/><path fill="none" stroke="black" paint-order="fill stroke markers" d=" M 77 380 L 77 376" stroke-linejoin="bevel" stroke-miterlimit="10"/><path fill="none" stroke="black" paint-order="fill stroke markers" d=" M 91 380 L 91 376" stroke-linejoin="bevel" stroke-miterlimit="10"/><path fill="none" stroke="black" paint-order="fill stroke markers" d=" M 105 380 L 105 376" stroke-linejoin="bevel" stroke-miterlimit="10"/><path fill="none" stroke="black" paint-order="fill stroke markers" d=" M 119 380 L 119 376" stroke-linejoin="bevel" stroke-miterlimit="10"/><path fill="none" stroke="black" paint-order="fill stroke markers" d=" M 134 380 L 134 376" stroke-linejoin="bevel" stroke-miterlimit="10"/><path fill="none" stroke="black" paint-order="fill stroke markers" d=" M 148 380 L 148 376" stroke-linejoin="bevel" stroke-miterlimit="10"/><path fill="none" stroke="black" paint-order="fill stroke markers" d=" M 162 380 L 162 376" stroke-linejoin="bevel" stroke-miterlimit="10"/><path fill="none" stroke="black" paint-order="fill stroke markers" d=" M 176 380 L 176 376" stroke-linejoin="bevel" stroke-miterlimit="10"/><path fill="none" stroke="black" paint-order="fill stroke markers" d=" M 190 380 L 190 376" stroke-linejoin="bevel" stroke-miterlimit="10"/><path fill="none" stroke="black" paint-order="fill stroke markers" d=" M 204 380 L 204 376" stroke-linejoin="bevel" stroke-miterlimit="10"/><path fill="none" stroke="black" paint-order="fill stroke markers" d=" M 218 380 L 218 376" stroke-linejoin="bevel" stroke-miterlimit="10"/><path fill="none" stroke="black" paint-order="fill stroke markers" d=" M 233 380 L 233 376" stroke-linejoin="bevel" stroke-miterlimit="10"/><path fill="none" stroke="black" paint-order="fill stroke markers" d=" M 247 380 L 247 376" stroke-linejoin="bevel" stroke-miterlimit="10"/><path fill="none" stroke="black" paint-order="fill stroke markers" d=" M 261 380 L 261 376" stroke-linejoin="bevel" stroke-miterlimit="10"/><path fill="none" stroke="black" paint-order="fill stroke markers" d=" M 275 380 L 275 376" stroke-linejoin="bevel" stroke-miterlimit="10"/><path fill="none" stroke="black" paint-order="fill stroke markers" d=" M 289 380 L 289 376" stroke-linejoin="bevel" stroke-miterlimit="10"/><path fill="none" stroke="black" paint-order="fill stroke markers" d=" M 303 380 L 303 376" stroke-linejoin="bevel" stroke-miterlimit="10"/><path fill="none" stroke="black" paint-order="fill stroke markers" d=" M 317 380 L 317 376" stroke-linejoin="bevel" stroke-miterlimit="10"/><path fill="none" stroke="black" paint-order="fill stroke markers" d=" M 332 380 L 332 376" stroke-linejoin="bevel" stroke-miterlimit="10"/><path fill="none" stroke="black" paint-order="fill stroke markers" d=" M 346 380 L 346 376" stroke-linejoin="bevel" stroke-miterlimit="10"/><path fill="none" stroke="black" paint-order="fill stroke markers" d=" M 360 380 L 360 376" stroke-linejoin="bevel" stroke-miterlimit="10"/><path fill="none" stroke="black" paint-order="fill stroke markers" d=" M 374 380 L 374 376" stroke-linejoin="bevel" stroke-miterlimit="10"/><path fill="none" stroke="black" paint-order="fill stroke markers" d=" M 388 380 L 388 376" stroke-linejoin="bevel" stroke-miterlimit="10"/><path fill="none" stroke="black" paint-order="fill stroke markers" d=" M 402 380 L 402 376" stroke-linejoin="bevel" stroke-miterlimit="10"/><path fill="" stroke="black" paint-order="fill stroke markers" d=" M 416 380 L 416 376" stroke-linejoin="bevel" stroke-miterlimit="10"/><g transform="translate(49,387) rotate(0,0,0)"><text fill="" stroke="none" font-family="helvetica" font-size="8pt" font-style="normal" font-weight="normal" text-decoration="normal" x="0" y="0" text-anchor="middle" dominant-baseline="hanging">0</text><g transform="rotate(0,0,0) translate(-49,-387) translate(119,387) rotate(0,0,0)"><text fill="" stroke="none" font-family="helvetica" font-size="8pt" font-style="normal" font-weight="normal" text-decoration="normal" x="0" y="0" text-anchor="middle" dominant-baseline="hanging">0.2</text><g transform="rotate(0,0,0) translate(-119,-387) translate(190,387) rotate(0,0,0)"><text fill="" stroke="none" font-family="helvetica" font-size="8pt" font-style="normal" font-weight="normal" text-decoration="normal" x="0" y="0" text-anchor="middle" dominant-baseline="hanging">0.4</text><g transform="rotate(0,0,0) translate(-190,-387) translate(261,387) rotate(0,0,0)"><text fill="" stroke="none" font-family="helvetica" font-size="8pt" font-style="normal" font-weight="normal" text-decoration="normal" x="0" y="0" text-anchor="middle" dominant-baseline="hanging">0.6</text><g transform="rotate(0,0,0) translate(-261,-387) translate(332,387) rotate(0,0,0)"><text fill="" stroke="none" font-family="helvetica" font-size="8pt" font-style="normal" font-weight="normal" text-decoration="normal" x="0" y="0" text-anchor="middle" dominant-baseline="hanging">0.8</text><g transform="rotate(0,0,0) translate(-332,-387) translate(402,387) rotate(0,0,0)"><text fill="" stroke="none" font-family="helvetica" font-size="8pt" font-style="normal" font-weight="normal" text-decoration="normal" x="0" y="0" text-anchor="middle" dominant-baseline="hanging">1</text><g transform="rotate(0,0,0) translate(-402,-387)"/></g></g></g></g></g></g></g><g fill="#444444"><path fill="none" stroke="black" paint-order="fill stroke markers" d=" M 31 376 L 31 28" stroke-linejoin="bevel" stroke-miterlimit="10"/><path fill="none" stroke="black" paint-order="fill stroke markers" d=" M 25 360 L 33 360" stroke-linejoin="bevel" stroke-miterlimit="10"/><path fill="none" stroke="black" paint-order="fill stroke markers" d=" M 25 282 L 33 282" stroke-linejoin="bevel" stroke-miterlimit="10"/><path fill="none" stroke="black" paint-order="fill stroke markers" d=" M 25 204 L 33 204" stroke-linejoin="bevel" stroke-miterlimit="10"/><path fill="none" stroke="black" paint-order="fill stroke markers" d=" M 25 126 L 33 126" stroke-linejoin="bevel" stroke-miterlimit="10"/><path fill="none" stroke="black" paint-order="fill stroke markers" d=" M 25 48 L 33 48" stroke-linejoin="bevel" stroke-miterlimit="10"/><path fill="none" stroke="black" paint-order="fill stroke markers" d=" M 27 376 L 31 376" stroke-linejoin="bevel" stroke-miterlimit="10"/><path fill="none" stroke="black" paint-order="fill stroke markers" d=" M 27 360 L 31 360" stroke-linejoin="bevel" stroke-miterlimit="10"/><path fill="none" stroke="black" paint-order="fill stroke markers" d=" M 27 345 L 31 345" stroke-linejoin="bevel" stroke-miterlimit="10"/><path fill="none" stroke="black" paint-order="fill stroke markers" d=" M 27 329 L 31 329" stroke-linejoin="bevel" stroke-miterlimit="10"/><path fill="none" stroke="black" paint-order="fill stroke markers" d=" M 27 313 L 31 313" stroke-linejoin="bevel" stroke-miterlimit="10"/><path fill="none" stroke="black" paint-order="fill stroke markers" d=" M 27 298 L 31 298" stroke-linejoin="bevel" stroke-miterlimit="10"/><path fill="none" stroke="black" paint-order="fill stroke markers" d=" M 27 282 L 31 282" stroke-linejoin="bevel" stroke-miterlimit="10"/><path fill="none" stroke="black" paint-order="fill stroke markers" d=" M 27 267 L 31 267" stroke-linejoin="bevel" stroke-miterlimit="10"/><path fill="none" stroke="black" paint-order="fill stroke markers" d=" M 27 251 L 31 251" stroke-linejoin="bevel" stroke-miterlimit="10"/><path fill="none" stroke="black" paint-order="fill stroke markers" d=" M 27 236 L 31 236" stroke-linejoin="bevel" stroke-miterlimit="10"/><path fill="none" stroke="black" paint-order="fill stroke markers" d=" M 27 220 L 31 220" stroke-linejoin="bevel" stroke-miterlimit="10"/><path fill="none" stroke="black" paint-order="fill stroke markers" d=" M 27 204 L 31 204" stroke-linejoin="bevel" stroke-miterlimit="10"/><path fill="none" stroke="black" paint-order="fill stroke markers" d=" M 27 189 L 31 189" stroke-linejoin="bevel" stroke-miterlimit="10"/><path fill="none" stroke="black" paint-order="fill stroke markers" d=" M 27 173 L 31 173" stroke-linejoin="bevel" stroke-miterlimit="10"/><path fill="none" stroke="black" paint-order="fill stroke markers" d=" M 27 158 L 31 158" stroke-linejoin="bevel" stroke-miterlimit="10"/><path fill="none" stroke="black" paint-order="fill stroke markers" d=" M 27 142 L 31 142" stroke-linejoin="bevel" stroke-miterlimit="10"/><path fill="none" stroke="black" paint-order="fill stroke markers" d=" M 27 126 L 31 126" stroke-linejoin="bevel" stroke-miterlimit="10"/><path fill="none" stroke="black" paint-order="fill stroke markers" d=" M 27 111 L 31 111" stroke-linejoin="bevel" stroke-miterlimit="10"/><path fill="none" stroke="black" paint-order="fill stroke markers" d=" M 27 95 L 31 95" stroke-linejoin="bevel" stroke-miterlimit="10"/><path fill="none" stroke="black" paint-order="fill stroke markers" d=" M 27 80 L 31 80" stroke-linejoin="bevel" stroke-miterlimit="10"/><path fill="none" stroke="black" paint-order="fill stroke markers" d=" M 27 64 L 31 64" stroke-linejoin="bevel" stroke-miterlimit="10"/><path fill="none" stroke="black" paint-order="fill stroke markers" d=" M 27 48 L 31 48" stroke-linejoin="bevel" stroke-miterlimit="10"/><path fill="" stroke="black" paint-order="fill stroke markers" d=" M 27 33 L 31 33" stroke-linejoin="bevel" stroke-miterlimit="10"/><g transform="translate(20,360) rotate(0,0,0)"><text fill="" stroke="none" font-family="helvetica" font-size="8pt" font-style="normal" font-weight="normal" text-decoration="normal" x="0" y="0" text-anchor="end" dominant-baseline="central">0</text><g transform="rotate(0,0,0) translate(-20,-360) translate(20,282) rotate(0,0,0)"><text fill="" stroke="none" font-family="helvetica" font-size="8pt" font-style="normal" font-weight="normal" text-decoration="normal" x="0" y="0" text-anchor="end" dominant-baseline="central">50</text><g transform="rotate(0,0,0) translate(-20,-282) translate(20,204) rotate(0,0,0)"><text fill="" stroke="none" font-family="helvetica" font-size="8pt" font-style="normal" font-weight="normal" text-decoration="normal" x="0" y="0" text-anchor="end" dominant-baseline="central">100</text><g transform="rotate(0,0,0) translate(-20,-204) translate(20,126) rotate(0,0,0)"><text fill="" stroke="none" font-family="helvetica" font-size="8pt" font-style="normal" font-weight="normal" text-decoration="normal" x="0" y="0" text-anchor="end" dominant-baseline="central">150</text><g transform="rotate(0,0,0) translate(-20,-126) translate(20,48) rotate(0,0,0)"><text fill="" stroke="none" font-family="helvetica" font-size="8pt" font-style="normal" font-weight="normal" text-decoration="normal" x="0" y="0" text-anchor="end" dominant-baseline="central">200</text><g transform="rotate(0,0,0) translate(-20,-48)"/></g></g></g></g></g></g></g></g></g></svg>