<svg version="1.1" xmlns="http://www.w3.org/2000/svg" xmlns:xlink="http://www.w3.org/1999/xlink" width="700" height="300" style="width: 700px; height: 300px;"><defs><clipPath id="AmAEroTzpBKI"><path fill="none" stroke="none" d=" M 66 27 L 618 27 L 618 247 L 66 247 L 66 27 Z"/></clipPath></defs><g><g transform="scale(1,1) translate(0.5,0.5)"><rect fill="#FFFFFF" stroke="none" x="0" y="0" width="700" height="300"/><rect fill="#ffffff" stroke="none" x="0" y="0" width="700" height="300"/><rect fill="#FFFFFF" stroke="none" x="66" y="27" width="552" height="220"/><rect fill="#ffffff" stroke="none" x="66" y="27" width="552" height="220"/><g><rect fill="none" stroke="#e5e5e5" x="66" y="27" width="552" height="220" stroke-linejoin="bevel" stroke-miterlimit="10"/></g><g clip-path="url(#AmAEroTzpBKI)"><g><g/><g><path fill="none" stroke="#e5e5e5" paint-order="fill stroke markers" d=" M 66 203 L 618 203" stroke-linejoin="bevel" stroke-miterlimit="10"/><path fill="none" stroke="#e5e5e5" paint-order="fill stroke markers" d=" M 66 159 L 618 159" stroke-linejoin="bevel" stroke-miterlimit="10"/><path fill="none" stroke="#e5e5e5" paint-order="fill stroke markers" d=" M 66 115 L 618 115" stroke-linejoin="bevel" stroke-miterlimit="10"/><path fill="none" stroke="#e5e5e5" paint-order="fill stroke markers" d=" M 66 71 L 618 71" stroke-linejoin="bevel" stroke-miterlimit="10"/></g><g><path fill="none" stroke="none"/><rect fill="#8c9eff" stroke="none" x="92.6993006993007" y="216.2" width="28.95104895104896" height="30.80000000000001"/><path fill="none" stroke="#8c9eff" paint-order="fill stroke markers" d=" M 92.6993006993007 216.2 L 121.65034965034965 216.2 L 121.65034965034965 247 L 92.6993006993007 247 L 92.6993006993007 216.2 Z" stroke-linejoin="bevel" stroke-miterlimit="10"/><rect fill="#536dfe" stroke="none" x="124.86713286713285" y="220.6" width="28.95104895104896" height="26.400000000000006"/><path fill="none" stroke="#536dfe" paint-order="fill stroke markers" d=" M 124.86713286713285 220.6 L 153.8181818181818 220.6 L 153.8181818181818 247 L 124.86713286713285 247 L 124.86713286713285 220.6 Z" stroke-linejoin="bevel" stroke-miterlimit="10"/><rect fill="#8c9eff" stroke="none" x="202.06993006993008" y="220.6" width="28.95104895104896" height="26.400000000000006"/><path fill="none" stroke="#8c9eff" paint-order="fill stroke markers" d=" M 202.06993006993008 220.6 L 231.02097902097904 220.6 L 231.02097902097904 247 L 202.06993006993008 247 L 202.06993006993008 220.6 Z" stroke-linejoin="bevel" stroke-miterlimit="10"/><rect fill="#536dfe" stroke="none" x="234.23776223776224" y="220.6" width="28.95104895104896" height="26.400000000000006"/><path fill="none" stroke="#536dfe" paint-order="fill stroke markers" d=" M 234.23776223776224 220.6 L 263.1888111888112 220.6 L 263.1888111888112 247 L 234.23776223776224 247 L 234.23776223776224 220.6 Z" stroke-linejoin="bevel" stroke-miterlimit="10"/><rect fill="#8c9eff" stroke="none" x="311.4405594405594" y="222.8" width="28.95104895104896" height="24.19999999999999"/><path fill="none" stroke="#8c9eff" paint-order="fill stroke markers" d=" M 311.4405594405594 222.8 L 340.3916083916084 222.8 L 340.3916083916084 247 L 311.4405594405594 247 L 311.4405594405594 222.8 Z" stroke-linejoin="bevel" stroke-miterlimit="10"/><rect fill="#536dfe" stroke="none" x="343.60839160839157" y="220.6" width="28.95104895104896" height="26.400000000000006"/><path fill="none" stroke="#536dfe" paint-order="fill stroke markers" d=" M 343.60839160839157 220.6 L 372.55944055944053 220.6 L 372.55944055944053 247 L 343.60839160839157 247 L 343.60839160839157 220.6 Z" stroke-linejoin="bevel" stroke-miterlimit="10"/><rect fill="#8c9eff" stroke="none" x="420.8111888111888" y="222.8" width="28.95104895104896" height="24.19999999999999"/><path fill="none" stroke="#8c9eff" paint-order="fill stroke markers" d=" M 420.8111888111888 222.8 L 449.76223776223776 222.8 L 449.76223776223776 247 L 420.8111888111888 247 L 420.8111888111888 222.8 Z" stroke-linejoin="bevel" stroke-miterlimit="10"/><rect fill="#536dfe" stroke="none" x="452.97902097902096" y="218.4" width="28.951048951048847" height="28.599999999999994"/><path fill="none" stroke="#536dfe" paint-order="fill stroke markers" d=" M 452.97902097902096 218.4 L 481.9300699300698 218.4 L 481.9300699300698 247 L 452.97902097902096 247 L 452.97902097902096 218.4 Z" stroke-linejoin="bevel" stroke-miterlimit="10"/><rect fill="#8c9eff" stroke="none" x="530.1818181818181" y="240.4" width="28.95104895104896" height="6.599999999999994"/><path fill="none" stroke="#8c9eff" paint-order="fill stroke markers" d=" M 530.1818181818181 240.4 L 559.1328671328671 240.4 L 559.1328671328671 247 L 530.1818181818181 247 L 530.1818181818181 240.4 Z" stroke-linejoin="bevel" stroke-miterlimit="10"/><rect fill="#536dfe" stroke="none" x="562.3496503496503" y="240.4" width="28.95104895104896" height="6.599999999999994"/><path fill="none" stroke="#536dfe" paint-order="fill stroke markers" d=" M 562.3496503496503 240.4 L 591.3006993006993 240.4 L 591.3006993006993 247 L 562.3496503496503 247 L 562.3496503496503 240.4 Z" stroke-linejoin="bevel" stroke-miterlimit="10"/></g><g><path fill="none" stroke="none"/><path fill="none" stroke="#ffca28" paint-order="fill stroke markers" d=" M 123.25874125874125 63.66666666666666 L 232.62937062937064 63.8987341772152 L 342 67.14767932489451 L 451.37062937062933 67.61181434599158 L 560.7412587412587 117.50632911392404" stroke-linejoin="bevel" stroke-miterlimit="10" stroke-width="2"/></g><g><path fill="none" stroke="none"/><path fill="#ffca28" stroke="#ffca28" paint-order="fill stroke markers" d=" M 126.75874125874125 63.66666666666666 A 3.5 3.5 0 1 1 126.7587395087414 63.66316666724999" stroke-linejoin="bevel" stroke-miterlimit="10"/><path fill="#ffca28" stroke="#ffca28" paint-order="fill stroke markers" d=" M 236.12937062937064 63.8987341772152 A 3.5 3.5 0 1 1 236.1293688793708 63.895234177798535" stroke-linejoin="bevel" stroke-miterlimit="10"/><path fill="#ffca28" stroke="#ffca28" paint-order="fill stroke markers" d=" M 345.5 67.14767932489451 A 3.5 3.5 0 1 1 345.49999825000015 67.14417932547784" stroke-linejoin="bevel" stroke-miterlimit="10"/><path fill="#ffca28" stroke="#ffca28" paint-order="fill stroke markers" d=" M 454.87062937062933 67.61181434599158 A 3.5 3.5 0 1 1 454.8706276206295 67.6083143465749" stroke-linejoin="bevel" stroke-miterlimit="10"/><path fill="#ffca28" stroke="#ffca28" paint-order="fill stroke markers" d=" M 564.2412587412587 117.50632911392404 A 3.5 3.5 0 1 1 564.2412569912588 117.50282911450736" stroke-linejoin="bevel" stroke-miterlimit="10"/></g></g></g><g><g fill="#444444"><path fill="" stroke="none" d=""/><g transform="translate(66,22)"><path fill="none" stroke="none"/><text fill="" stroke="none" font-family="helvetica" font-size="10pt" font-style="normal" font-weight="bold" text-decoration="normal" x="0" y="0" text-anchor="start" dominant-baseline="text-after-edge">Fraction of defaulters granted a loan by age group and corresponding profit</text></g></g></g><g><g fill="grey" stroke="lightgrey" stroke-linejoin="bevel" stroke-miterlimit="10" stroke-width="2"><path fill="none" stroke="black" paint-order="fill stroke markers" d=" M 66 247 L 618 247" stroke-linejoin="bevel" stroke-miterlimit="10"/><path fill="none" stroke="black" paint-order="fill stroke markers" d=" M 107 253 L 107 245" stroke-linejoin="bevel" stroke-miterlimit="10"/><path fill="none" stroke="black" paint-order="fill stroke markers" d=" M 139 253 L 139 245" stroke-linejoin="bevel" stroke-miterlimit="10"/><path fill="none" stroke="black" paint-order="fill stroke markers" d=" M 217 253 L 217 245" stroke-linejoin="bevel" stroke-miterlimit="10"/><path fill="none" stroke="black" paint-order="fill stroke markers" d=" M 249 253 L 249 245" stroke-linejoin="bevel" stroke-miterlimit="10"/><path fill="none" stroke="black" paint-order="fill stroke markers" d=" M 326 253 L 326 245" stroke-linejoin="bevel" stroke-miterlimit="10"/><path fill="none" stroke="black" paint-order="fill stroke markers" d=" M 358 253 L 358 245" stroke-linejoin="bevel" stroke-miterlimit="10"/><path fill="none" stroke="black" paint-order="fill stroke markers" d=" M 435 253 L 435 245" stroke-linejoin="bevel" stroke-miterlimit="10"/><path fill="none" stroke="black" paint-order="fill stroke markers" d=" M 467 253 L 467 245" stroke-linejoin="bevel" stroke-miterlimit="10"/><path fill="none" stroke="black" paint-order="fill stroke markers" d=" M 545 253 L 545 245" stroke-linejoin="bevel" stroke-miterlimit="10"/><path fill="" stroke="" paint-order="fill stroke markers" d=" M 577 253 L 577 245" stroke-linejoin="bevel" stroke-miterlimit="10"/><g transform="translate(107,258) rotate(-57.29577951308232,0,0)"><text fill="" stroke="none" font-family="helvetica" font-size="8pt" font-style="normal" font-weight="normal" text-decoration="normal" x="0" y="0" text-anchor="end" dominant-baseline="central">+ 40</text><g transform="rotate(57.29577951308232,0,0) translate(-107,-258) translate(139,258) rotate(-57.29577951308232,0,0)"><text fill="" stroke="none" font-family="helvetica" font-size="8pt" font-style="normal" font-weight="normal" text-decoration="normal" x="0" y="0" text-anchor="end" dominant-baseline="central">&lt; 40</text><g transform="rotate(57.29577951308232,0,0) translate(-139,-258) translate(217,258) rotate(-57.29577951308232,0,0)"><text fill="" stroke="none" font-family="helvetica" font-size="8pt" font-style="normal" font-weight="normal" text-decoration="normal" x="0" y="0" text-anchor="end" dominant-baseline="central">+ 40</text><g transform="rotate(57.29577951308232,0,0) translate(-217,-258) translate(249,258) rotate(-57.29577951308232,0,0)"><text fill="" stroke="none" font-family="helvetica" font-size="8pt" font-style="normal" font-weight="normal" text-decoration="normal" x="0" y="0" text-anchor="end" dominant-baseline="central">&lt; 40</text><g transform="rotate(57.29577951308232,0,0) translate(-249,-258) translate(326,258) rotate(-57.29577951308232,0,0)"><text fill="" stroke="none" font-family="helvetica" font-size="8pt" font-style="normal" font-weight="normal" text-decoration="normal" x="0" y="0" text-anchor="end" dominant-baseline="central">+ 40</text><g transform="rotate(57.29577951308232,0,0) translate(-326,-258) translate(358,258) rotate(-57.29577951308232,0,0)"><text fill="" stroke="none" font-family="helvetica" font-size="8pt" font-style="normal" font-weight="normal" text-decoration="normal" x="0" y="0" text-anchor="end" dominant-baseline="central">&lt; 40</text><g transform="rotate(57.29577951308232,0,0) translate(-358,-258) translate(435,258) rotate(-57.29577951308232,0,0)"><text fill="" stroke="none" font-family="helvetica" font-size="8pt" font-style="normal" font-weight="normal" text-decoration="normal" x="0" y="0" text-anchor="end" dominant-baseline="central">+ 40</text><g transform="rotate(57.29577951308232,0,0) translate(-435,-258) translate(467,258) rotate(-57.29577951308232,0,0)"><text fill="" stroke="none" font-family="helvetica" font-size="8pt" font-style="normal" font-weight="normal" text-decoration="normal" x="0" y="0" text-anchor="end" dominant-baseline="central">&lt; 40</text><g transform="rotate(57.29577951308232,0,0) translate(-467,-258) translate(545,258) rotate(-57.29577951308232,0,0)"><text fill="" stroke="none" font-family="helvetica" font-size="8pt" font-style="normal" font-weight="normal" text-decoration="normal" x="0" y="0" text-anchor="end" dominant-baseline="central">+ 40</text><g transform="rotate(57.29577951308232,0,0) translate(-545,-258) translate(577,258) rotate(-57.29577951308232,0,0)"><text fill="" stroke="none" font-family="helvetica" font-size="8pt" font-style="normal" font-weight="normal" text-decoration="normal" x="0" y="0" text-anchor="end" dominant-baseline="central">&lt; 40</text><g transform="rotate(57.29577951308232,0,0) translate(-577,-258) translate(123,287) rotate(0,0,0)"><text fill="" stroke="none" font-family="helvetica" font-size="8pt" font-style="normal" font-weight="bold" text-decoration="normal" x="0" y="0" text-anchor="middle" dominant-baseline="hanging">MaxProfit</text><g transform="rotate(0,0,0) translate(-123,-287) translate(233,287) rotate(0,0,0)"><text fill="" stroke="none" font-family="helvetica" font-size="8pt" font-style="normal" font-weight="bold" text-decoration="normal" x="0" y="0" text-anchor="middle" dominant-baseline="hanging">GroupUnawareness</text><g transform="rotate(0,0,0) translate(-233,-287) translate(342,287) rotate(0,0,0)"><text fill="" stroke="none" font-family="helvetica" font-size="8pt" font-style="normal" font-weight="bold" text-decoration="normal" x="0" y="0" text-anchor="middle" dominant-baseline="hanging">EqualOpportunity</text><g transform="rotate(0,0,0) translate(-342,-287) translate(451,287) rotate(0,0,0)"><text fill="" stroke="none" font-family="helvetica" font-size="8pt" font-style="normal" font-weight="bold" text-decoration="normal" x="0" y="0" text-anchor="middle" dominant-baseline="hanging">DemographicParity</text><g transform="rotate(0,0,0) translate(-451,-287) translate(561,287) rotate(0,0,0)"><text fill="" stroke="none" font-family="helvetica" font-size="8pt" font-style="normal" font-weight="bold" text-decoration="normal" x="0" y="0" text-anchor="middle" dominant-baseline="hanging">EqualisedOdds</text><g transform="rotate(0,0,0) translate(-561,-287)"><path fill="none" stroke="" paint-order="fill stroke markers" d=" M 178 288 L 178 250"/><path fill="none" stroke="" paint-order="fill stroke markers" d=" M 287 288 L 287 250"/><path fill="none" stroke="" paint-order="fill stroke markers" d=" M 397 288 L 397 250"/><path fill="none" stroke="" paint-order="fill stroke markers" d=" M 506 288 L 506 250"/></g></g></g></g></g></g></g></g></g></g></g></g></g></g></g></g></g><g fill="#444444"><path fill="none" stroke="black" paint-order="fill stroke markers" d=" M 66 247 L 66 27" stroke-linejoin="bevel" stroke-miterlimit="10"/><path fill="none" stroke="black" paint-order="fill stroke markers" d=" M 60 247 L 68 247" stroke-linejoin="bevel" stroke-miterlimit="10"/><path fill="none" stroke="black" paint-order="fill stroke markers" d=" M 60 203 L 68 203" stroke-linejoin="bevel" stroke-miterlimit="10"/><path fill="none" stroke="black" paint-order="fill stroke markers" d=" M 60 159 L 68 159" stroke-linejoin="bevel" stroke-miterlimit="10"/><path fill="none" stroke="black" paint-order="fill stroke markers" d=" M 60 115 L 68 115" stroke-linejoin="bevel" stroke-miterlimit="10"/><path fill="none" stroke="black" paint-order="fill stroke markers" d=" M 60 71 L 68 71" stroke-linejoin="bevel" stroke-miterlimit="10"/><path fill="none" stroke="black" paint-order="fill stroke markers" d=" M 60 27 L 68 27" stroke-linejoin="bevel" stroke-miterlimit="10"/><path fill="none" stroke="black" paint-order="fill stroke markers" d=" M 62 247 L 66 247" stroke-linejoin="bevel" stroke-miterlimit="10"/><path fill="none" stroke="black" paint-order="fill stroke markers" d=" M 62 238 L 66 238" stroke-linejoin="bevel" stroke-miterlimit="10"/><path fill="none" stroke="black" paint-order="fill stroke markers" d=" M 62 229 L 66 229" stroke-linejoin="bevel" stroke-miterlimit="10"/><path fill="none" stroke="black" paint-order="fill stroke markers" d=" M 62 221 L 66 221" stroke-linejoin="bevel" stroke-miterlimit="10"/><path fill="none" stroke="black" paint-order="fill stroke markers" d=" M 62 212 L 66 212" stroke-linejoin="bevel" stroke-miterlimit="10"/><path fill="none" stroke="black" paint-order="fill stroke markers" d=" M 62 203 L 66 203" stroke-linejoin="bevel" stroke-miterlimit="10"/><path fill="none" stroke="black" paint-order="fill stroke markers" d=" M 62 194 L 66 194" stroke-linejoin="bevel" stroke-miterlimit="10"/><path fill="none" stroke="black" paint-order="fill stroke markers" d=" M 62 185 L 66 185" stroke-linejoin="bevel" stroke-miterlimit="10"/><path fill="none" stroke="black" paint-order="fill stroke markers" d=" M 62 177 L 66 177" stroke-linejoin="bevel" stroke-miterlimit="10"/><path fill="none" stroke="black" paint-order="fill stroke markers" d=" M 62 168 L 66 168" stroke-linejoin="bevel" stroke-miterlimit="10"/><path fill="none" stroke="black" paint-order="fill stroke markers" d=" M 62 159 L 66 159" stroke-linejoin="bevel" stroke-miterlimit="10"/><path fill="none" stroke="black" paint-order="fill stroke markers" d=" M 62 150 L 66 150" stroke-linejoin="bevel" stroke-miterlimit="10"/><path fill="none" stroke="black" paint-order="fill stroke markers" d=" M 62 141 L 66 141" stroke-linejoin="bevel" stroke-miterlimit="10"/><path fill="none" stroke="black" paint-order="fill stroke markers" d=" M 62 133 L 66 133" stroke-linejoin="bevel" stroke-miterlimit="10"/><path fill="none" stroke="black" paint-order="fill stroke markers" d=" M 62 124 L 66 124" stroke-linejoin="bevel" stroke-miterlimit="10"/><path fill="none" stroke="black" paint-order="fill stroke markers" d=" M 62 115 L 66 115" stroke-linejoin="bevel" stroke-miterlimit="10"/><path fill="none" stroke="black" paint-order="fill stroke markers" d=" M 62 106 L 66 106" stroke-linejoin="bevel" stroke-miterlimit="10"/><path fill="none" stroke="black" paint-order="fill stroke markers" d=" M 62 97 L 66 97" stroke-linejoin="bevel" stroke-miterlimit="10"/><path fill="none" stroke="black" paint-order="fill stroke markers" d=" M 62 89 L 66 89" stroke-linejoin="bevel" stroke-miterlimit="10"/><path fill="none" stroke="black" paint-order="fill stroke markers" d=" M 62 80 L 66 80" stroke-linejoin="bevel" stroke-miterlimit="10"/><path fill="none" stroke="black" paint-order="fill stroke markers" d=" M 62 71 L 66 71" stroke-linejoin="bevel" stroke-miterlimit="10"/><path fill="none" stroke="black" paint-order="fill stroke markers" d=" M 62 62 L 66 62" stroke-linejoin="bevel" stroke-miterlimit="10"/><path fill="none" stroke="black" paint-order="fill stroke markers" d=" M 62 53 L 66 53" stroke-linejoin="bevel" stroke-miterlimit="10"/><path fill="none" stroke="black" paint-order="fill stroke markers" d=" M 62 45 L 66 45" stroke-linejoin="bevel" stroke-miterlimit="10"/><path fill="none" stroke="black" paint-order="fill stroke markers" d=" M 62 36 L 66 36" stroke-linejoin="bevel" stroke-miterlimit="10"/><path fill="" stroke="black" paint-order="fill stroke markers" d=" M 62 27 L 66 27" stroke-linejoin="bevel" stroke-miterlimit="10"/><g transform="translate(55,247) rotate(0,0,0)"><text fill="" stroke="none" font-family="helvetica" font-size="8pt" font-style="normal" font-weight="normal" text-decoration="normal" x="0" y="0" text-anchor="end" dominant-baseline="central">0 %</text><g transform="rotate(0,0,0) translate(-55,-247) translate(55,203) rotate(0,0,0)"><text fill="" stroke="none" font-family="helvetica" font-size="8pt" font-style="normal" font-weight="normal" text-decoration="normal" x="0" y="0" text-anchor="end" dominant-baseline="central">20 %</text><g transform="rotate(0,0,0) translate(-55,-203) translate(55,159) rotate(0,0,0)"><text fill="" stroke="none" font-family="helvetica" font-size="8pt" font-style="normal" font-weight="normal" text-decoration="normal" x="0" y="0" text-anchor="end" dominant-baseline="central">40 %</text><g transform="rotate(0,0,0) translate(-55,-159) translate(55,115) rotate(0,0,0)"><text fill="" stroke="none" font-family="helvetica" font-size="8pt" font-style="normal" font-weight="normal" text-decoration="normal" x="0" y="0" text-anchor="end" dominant-baseline="central">60 %</text><g transform="rotate(0,0,0) translate(-55,-115) translate(55,71) rotate(0,0,0)"><text fill="" stroke="none" font-family="helvetica" font-size="8pt" font-style="normal" font-weight="normal" text-decoration="normal" x="0" y="0" text-anchor="end" dominant-baseline="central">80 %</text><g transform="rotate(0,0,0) translate(-55,-71) translate(55,27) rotate(0,0,0)"><text fill="" stroke="none" font-family="helvetica" font-size="8pt" font-style="normal" font-weight="normal" text-decoration="normal" x="0" y="0" text-anchor="end" dominant-baseline="central">100 %</text><g transform="rotate(0,0,0) translate(-55,-27) translate(16,137) rotate(-90,0,0)"><text fill="" stroke="none" font-family="helvetica" font-size="10pt" font-style="italic" font-weight="normal" text-decoration="normal" x="0" y="0" text-anchor="middle" dominant-baseline="alphabetic">Fraction non-defaulters getting loan</text><g transform="rotate(90,0,0) translate(-16,-137)"/></g></g></g></g></g></g></g></g><g fill="#444444"><path fill="none" stroke="black" paint-order="fill stroke markers" d=" M 618 247 L 618 27" stroke-linejoin="bevel" stroke-miterlimit="10"/><path fill="none" stroke="black" paint-order="fill stroke markers" d=" M 624 247 L 616 247" stroke-linejoin="bevel" stroke-miterlimit="10"/><path fill="none" stroke="black" paint-order="fill stroke markers" d=" M 624 201 L 616 201" stroke-linejoin="bevel" stroke-miterlimit="10"/><path fill="none" stroke="black" paint-order="fill stroke markers" d=" M 624 154 L 616 154" stroke-linejoin="bevel" stroke-miterlimit="10"/><path fill="none" stroke="black" paint-order="fill stroke markers" d=" M 624 108 L 616 108" stroke-linejoin="bevel" stroke-miterlimit="10"/><path fill="none" stroke="black" paint-order="fill stroke markers" d=" M 624 61 L 616 61" stroke-linejoin="bevel" stroke-miterlimit="10"/><path fill="none" stroke="black" paint-order="fill stroke markers" d=" M 622 247 L 618 247" stroke-linejoin="bevel" stroke-miterlimit="10"/><path fill="none" stroke="black" paint-order="fill stroke markers" d=" M 622 238 L 618 238" stroke-linejoin="bevel" stroke-miterlimit="10"/><path fill="none" stroke="black" paint-order="fill stroke markers" d=" M 622 228 L 618 228" stroke-linejoin="bevel" stroke-miterlimit="10"/><path fill="none" stroke="black" paint-order="fill stroke markers" d=" M 622 219 L 618 219" stroke-linejoin="bevel" stroke-miterlimit="10"/><path fill="none" stroke="black" paint-order="fill stroke markers" d=" M 622 210 L 618 210" stroke-linejoin="bevel" stroke-miterlimit="10"/><path fill="none" stroke="black" paint-order="fill stroke markers" d=" M 622 201 L 618 201" stroke-linejoin="bevel" stroke-miterlimit="10"/><path fill="none" stroke="black" paint-order="fill stroke markers" d=" M 622 191 L 618 191" stroke-linejoin="bevel" stroke-miterlimit="10"/><path fill="none" stroke="black" paint-order="fill stroke markers" d=" M 622 182 L 618 182" stroke-linejoin="bevel" stroke-miterlimit="10"/><path fill="none" stroke="black" paint-order="fill stroke markers" d=" M 622 173 L 618 173" stroke-linejoin="bevel" stroke-miterlimit="10"/><path fill="none" stroke="black" paint-order="fill stroke markers" d=" M 622 163 L 618 163" stroke-linejoin="bevel" stroke-miterlimit="10"/><path fill="none" stroke="black" paint-order="fill stroke markers" d=" M 622 154 L 618 154" stroke-linejoin="bevel" stroke-miterlimit="10"/><path fill="none" stroke="black" paint-order="fill stroke markers" d=" M 622 145 L 618 145" stroke-linejoin="bevel" stroke-miterlimit="10"/><path fill="none" stroke="black" paint-order="fill stroke markers" d=" M 622 136 L 618 136" stroke-linejoin="bevel" stroke-miterlimit="10"/><path fill="none" stroke="black" paint-order="fill stroke markers" d=" M 622 126 L 618 126" stroke-linejoin="bevel" stroke-miterlimit="10"/><path fill="none" stroke="black" paint-order="fill stroke markers" d=" M 622 117 L 618 117" stroke-linejoin="bevel" stroke-miterlimit="10"/><path fill="none" stroke="black" paint-order="fill stroke markers" d=" M 622 108 L 618 108" stroke-linejoin="bevel" stroke-miterlimit="10"/><path fill="none" stroke="black" paint-order="fill stroke markers" d=" M 622 98 L 618 98" stroke-linejoin="bevel" stroke-miterlimit="10"/><path fill="none" stroke="black" paint-order="fill stroke markers" d=" M 622 89 L 618 89" stroke-linejoin="bevel" stroke-miterlimit="10"/><path fill="none" stroke="black" paint-order="fill stroke markers" d=" M 622 80 L 618 80" stroke-linejoin="bevel" stroke-miterlimit="10"/><path fill="none" stroke="black" paint-order="fill stroke markers" d=" M 622 71 L 618 71" stroke-linejoin="bevel" stroke-miterlimit="10"/><path fill="none" stroke="black" paint-order="fill stroke markers" d=" M 622 61 L 618 61" stroke-linejoin="bevel" stroke-miterlimit="10"/><path fill="none" stroke="black" paint-order="fill stroke markers" d=" M 622 52 L 618 52" stroke-linejoin="bevel" stroke-miterlimit="10"/><path fill="none" stroke="black" paint-order="fill stroke markers" d=" M 622 43 L 618 43" stroke-linejoin="bevel" stroke-miterlimit="10"/><path fill="" stroke="black" paint-order="fill stroke markers" d=" M 622 33 L 618 33" stroke-linejoin="bevel" stroke-miterlimit="10"/><g transform="translate(629,247) rotate(0,0,0)"><text fill="" stroke="none" font-family="helvetica" font-size="8pt" font-style="normal" font-weight="normal" text-decoration="normal" x="0" y="0" text-anchor="start" dominant-baseline="central">0</text><g transform="rotate(0,0,0) translate(-629,-247) translate(629,201) rotate(0,0,0)"><text fill="" stroke="none" font-family="helvetica" font-size="8pt" font-style="normal" font-weight="normal" text-decoration="normal" x="0" y="0" text-anchor="start" dominant-baseline="central">200</text><g transform="rotate(0,0,0) translate(-629,-201) translate(629,154) rotate(0,0,0)"><text fill="" stroke="none" font-family="helvetica" font-size="8pt" font-style="normal" font-weight="normal" text-decoration="normal" x="0" y="0" text-anchor="start" dominant-baseline="central">400</text><g transform="rotate(0,0,0) translate(-629,-154) translate(629,108) rotate(0,0,0)"><text fill="" stroke="none" font-family="helvetica" font-size="8pt" font-style="normal" font-weight="normal" text-decoration="normal" x="0" y="0" text-anchor="start" dominant-baseline="central">600</text><g transform="rotate(0,0,0) translate(-629,-108) translate(629,61) rotate(0,0,0)"><text fill="" stroke="none" font-family="helvetica" font-size="8pt" font-style="normal" font-weight="normal" text-decoration="normal" x="0" y="0" text-anchor="start" dominant-baseline="central">800</text><g transform="rotate(0,0,0) translate(-629,-61) translate(654,137) rotate(90,0,0)"><text fill="" stroke="none" font-family="helvetica" font-size="10pt" font-style="italic" font-weight="normal" text-decoration="normal" x="0" y="0" text-anchor="middle" dominant-baseline="alphabetic">Profit</text><g transform="rotate(-90,0,0) translate(-654,-137)"/></g></g></g></g></g></g></g></g></g></g></svg>