<svg version="1.1" xmlns="http://www.w3.org/2000/svg" xmlns:xlink="http://www.w3.org/1999/xlink" width="450" height="400" style="width: 450px; height: 400px;"><defs><clipPath id="GQpQSMzsOtuM"><path fill="none" stroke="none" d=" M 31 28 L 420 28 L 420 376 L 31 376 L 31 28 Z"/></clipPath><clipPath id="trFVcfBfhPFr"><path fill="none" stroke="none" d=" M 31 28 L 420 28 L 420 376 L 31 376 L 31 28 Z"/></clipPath></defs><g><g transform="scale(1,1) translate(0.5,0.5)"><rect fill="#FFFFFF" stroke="none" x="0" y="0" width="450" height="400"/><rect fill="#ffffff" stroke="none" x="0" y="0" width="450" height="400"/><rect fill="#FFFFFF" stroke="none" x="31" y="28" width="389" height="348"/><rect fill="#ffffff" stroke="none" x="31" y="28" width="389" height="348"/><g><rect fill="none" stroke="#e5e5e5" x="31" y="28" width="389" height="348" stroke-linejoin="bevel" stroke-miterlimit="10"/></g><g clip-path="url(#GQpQSMzsOtuM)"><g><g><path fill="none" stroke="none"/><rect fill="#00BFA5" stroke="none" x="48.6818181818182" y="317.0413223140496" width="35.36363636363636" height="43.14049586776861"/><rect fill="#00BFA5" stroke="none" x="84.04545454545456" y="126.78067387158296" width="35.363636363636374" height="233.40114431023522"/><rect fill="#00BFA5" stroke="none" x="119.40909090909093" y="53.77368086458995" width="35.363636363636374" height="306.40813731722824"/><rect fill="#00BFA5" stroke="none" x="154.7727272727273" y="43.81818181818181" width="35.363636363636374" height="316.3636363636364"/><rect fill="#00BFA5" stroke="none" x="190.13636363636368" y="114.6128417037508" width="35.36363636363632" height="245.56897647806738"/><rect fill="#00BFA5" stroke="none" x="225.5" y="175.45200254291163" width="35.36363636363643" height="184.72981563890656"/><rect fill="#00BFA5" stroke="none" x="260.86363636363643" y="240.71582962492056" width="35.36363636363632" height="119.46598855689763"/><rect fill="#00BFA5" stroke="none" x="296.22727272727275" y="276.113159567705" width="35.363636363636374" height="84.06865861411319"/><rect fill="#00BFA5" stroke="none" x="331.5909090909091" y="324.7844882390337" width="35.36363636363632" height="35.397329942784495"/><rect fill="#00BFA5" stroke="none" x="366.95454545454544" y="343.589319771138" width="35.363636363636374" height="16.592498410680207"/></g><g><path fill="none" stroke="none"/><rect fill="#8c9eff" stroke="none" x="48.6818181818182" y="353.5448188175461" width="35.36363636363636" height="6.6369993642720715" fill-opacity="0.6"/><rect fill="#8c9eff" stroke="none" x="84.04545454545456" y="310.4043229497775" width="35.363636363636374" height="49.77749523204068" fill-opacity="0.6"/><rect fill="#8c9eff" stroke="none" x="119.40909090909093" y="228.54799745708837" width="35.363636363636374" height="131.63382072472982" fill-opacity="0.6"/><rect fill="#8c9eff" stroke="none" x="154.7727272727273" y="177.66433566433568" width="35.363636363636374" height="182.5174825174825" fill-opacity="0.6"/><rect fill="#8c9eff" stroke="none" x="190.13636363636368" y="109.08200890019071" width="35.36363636363632" height="251.09980928162747" fill-opacity="0.6"/><rect fill="#8c9eff" stroke="none" x="225.5" y="111.29434202161477" width="35.36363636363643" height="248.88747616020342" fill-opacity="0.6"/><rect fill="#8c9eff" stroke="none" x="260.86363636363643" y="98.0203432930706" width="35.36363636363632" height="262.1614748887476" fill-opacity="0.6"/><rect fill="#8c9eff" stroke="none" x="296.22727272727275" y="125.67450731087095" width="35.363636363636374" height="234.50731087094724" fill-opacity="0.6"/><rect fill="#8c9eff" stroke="none" x="331.5909090909091" y="110.18817546090276" width="35.36363636363632" height="249.99364272091543" fill-opacity="0.6"/><rect fill="#8c9eff" stroke="none" x="366.95454545454544" y="126.78067387158296" width="35.363636363636374" height="233.40114431023522" fill-opacity="0.6"/></g></g></g><g><g clip-path="url(#trFVcfBfhPFr)"><g><g/><g><path fill="#ffffff" stroke="#e5e5e5" paint-order="fill stroke markers" d=" M 271.1875 38 L 410 38 L 410 101 L 271.1875 101 L 271.1875 38 Z" fill-opacity="0.95" stroke-linejoin="bevel" stroke-miterlimit="10" stroke-opacity="0.5"/><text fill="#444444" stroke="none" font-family="helvetica" font-size="10pt" font-style="normal" font-weight="normal" text-decoration="normal" x="306.1875" y="58" text-anchor="start" dominant-baseline="central">PaidLoan: False</text><rect fill="#00BFA5" stroke="none" x="283.1875" y="50" width="16" height="16"/><text fill="#444444" stroke="none" font-family="helvetica" font-size="10pt" font-style="normal" font-weight="normal" text-decoration="normal" x="306.1875" y="81" text-anchor="start" dominant-baseline="central">PaidLoan: True</text><rect fill="#8c9eff" stroke="none" x="283.1875" y="73" width="16" height="16" fill-opacity="0.6"/></g></g></g><g fill="#444444"><path fill="" stroke="none" d=""/><g transform="translate(31,23)"><path fill="none" stroke="none"/><text fill="" stroke="none" font-family="Helvetica Neue" font-size="10pt" font-style="normal" font-weight="bold" text-decoration="normal" x="0" y="0" text-anchor="start" dominant-baseline="text-after-edge">Predicted probabilities for males</text></g></g></g><g><g fill="#444444"><path fill="none" stroke="black" paint-order="fill stroke markers" d=" M 31 376 L 420 376" stroke-linejoin="bevel" stroke-miterlimit="10"/><path fill="none" stroke="black" paint-order="fill stroke markers" d=" M 49 382 L 49 374" stroke-linejoin="bevel" stroke-miterlimit="10"/><path fill="none" stroke="black" paint-order="fill stroke markers" d=" M 119 382 L 119 374" stroke-linejoin="bevel" stroke-miterlimit="10"/><path fill="none" stroke="black" paint-order="fill stroke markers" d=" M 190 382 L 190 374" stroke-linejoin="bevel" stroke-miterlimit="10"/><path fill="none" stroke="black" paint-order="fill stroke markers" d=" M 261 382 L 261 374" stroke-linejoin="bevel" stroke-miterlimit="10"/><path fill="none" stroke="black" paint-order="fill stroke markers" d=" M 332 382 L 332 374" stroke-linejoin="bevel" stroke-miterlimit="10"/><path fill="none" stroke="black" paint-order="fill stroke markers" d=" M 402 382 L 402 374" stroke-linejoin="bevel" stroke-miterlimit="10"/><path fill="none" stroke="black" paint-order="fill stroke markers" d=" M 35 380 L 35 376" stroke-linejoin="bevel" stroke-miterlimit="10"/><path fill="none" stroke="black" paint-order="fill stroke markers" d=" M 49 380 L 49 376" stroke-linejoin="bevel" stroke-miterlimit="10"/><path fill="none" stroke="black" paint-order="fill stroke markers" d=" M 63 380 L 63 376" stroke-linejoin="bevel" stroke-miterlimit="10"/><path fill="none" stroke="black" paint-order="fill stroke markers" d=" M 77 380 L 77 376" stroke-linejoin="bevel" stroke-miterlimit="10"/><path fill="none" stroke="black" paint-order="fill stroke markers" d=" M 91 380 L 91 376" stroke-linejoin="bevel" stroke-miterlimit="10"/><path fill="none" stroke="black" paint-order="fill stroke markers" d=" M 105 380 L 105 376" stroke-linejoin="bevel" stroke-miterlimit="10"/><path fill="none" stroke="black" paint-order="fill stroke markers" d=" M 119 380 L 119 376" stroke-linejoin="bevel" stroke-miterlimit="10"/><path fill="none" stroke="black" paint-order="fill stroke markers" d=" M 134 380 L 134 376" stroke-linejoin="bevel" stroke-miterlimit="10"/><path fill="none" stroke="black" paint-order="fill stroke markers" d=" M 148 380 L 148 376" stroke-linejoin="bevel" stroke-miterlimit="10"/><path fill="none" stroke="black" paint-order="fill stroke markers" d=" M 162 380 L 162 376" stroke-linejoin="bevel" stroke-miterlimit="10"/><path fill="none" stroke="black" paint-order="fill stroke markers" d=" M 176 380 L 176 376" stroke-linejoin="bevel" stroke-miterlimit="10"/><path fill="none" stroke="black" paint-order="fill stroke markers" d=" M 190 380 L 190 376" stroke-linejoin="bevel" stroke-miterlimit="10"/><path fill="none" stroke="black" paint-order="fill stroke markers" d=" M 204 380 L 204 376" stroke-linejoin="bevel" stroke-miterlimit="10"/><path fill="none" stroke="black" paint-order="fill stroke markers" d=" M 218 380 L 218 376" stroke-linejoin="bevel" stroke-miterlimit="10"/><path fill="none" stroke="black" paint-order="fill stroke markers" d=" M 233 380 L 233 376" stroke-linejoin="bevel" stroke-miterlimit="10"/><path fill="none" stroke="black" paint-order="fill stroke markers" d=" M 247 380 L 247 376" stroke-linejoin="bevel" stroke-miterlimit="10"/><path fill="none" stroke="black" paint-order="fill stroke markers" d=" M 261 380 L 261 376" stroke-linejoin="bevel" stroke-miterlimit="10"/><path fill="none" stroke="black" paint-order="fill stroke markers" d=" M 275 380 L 275 376" stroke-linejoin="bevel" stroke-miterlimit="10"/><path fill="none" stroke="black" paint-order="fill stroke markers" d=" M 289 380 L 289 376" stroke-linejoin="bevel" stroke-miterlimit="10"/><path fill="none" stroke="black" paint-order="fill stroke markers" d=" M 303 380 L 303 376" stroke-linejoin="bevel" stroke-miterlimit="10"/><path fill="none" stroke="black" paint-order="fill stroke markers" d=" M 317 380 L 317 376" stroke-linejoin="bevel" stroke-miterlimit="10"/><path fill="none" stroke="black" paint-order="fill stroke markers" d=" M 332 380 L 332 376" stroke-linejoin="bevel" stroke-miterlimit="10"/><path fill="none" stroke="black" paint-order="fill stroke markers" d=" M 346 380 L 346 376" stroke-linejoin="bevel" stroke-miterlimit="10"/><path fill="none" stroke="black" paint-order="fill stroke markers" d=" M 360 380 L 360 376" stroke-linejoin="bevel" stroke-miterlimit="10"/><path fill="none" stroke="black" paint-order="fill stroke markers" d=" M 374 380 L 374 376" stroke-linejoin="bevel" stroke-miterlimit="10"/><path fill="none" stroke="black" paint-order="fill stroke markers" d=" M 388 380 L 388 376" stroke-linejoin="bevel" stroke-miterlimit="10"/><path fill="none" stroke="black" paint-order="fill stroke markers" d=" M 402 380 L 402 376" stroke-linejoin="bevel" stroke-miterlimit="10"/><path fill="" stroke="black" paint-order="fill stroke markers" d=" M 416 380 L 416 376" stroke-linejoin="bevel" stroke-miterlimit="10"/><g transform="translate(49,387) rotate(0,0,0)"><text fill="" stroke="none" font-family="helvetica" font-size="8pt" font-style="normal" font-weight="normal" text-decoration="normal" x="0" y="0" text-anchor="middle" dominant-baseline="hanging">0</text><g transform="rotate(0,0,0) translate(-49,-387) translate(119,387) rotate(0,0,0)"><text fill="" stroke="none" font-family="helvetica" font-size="8pt" font-style="normal" font-weight="normal" text-decoration="normal" x="0" y="0" text-anchor="middle" dominant-baseline="hanging">0.2</text><g transform="rotate(0,0,0) translate(-119,-387) translate(190,387) rotate(0,0,0)"><text fill="" stroke="none" font-family="helvetica" font-size="8pt" font-style="normal" font-weight="normal" text-decoration="normal" x="0" y="0" text-anchor="middle" dominant-baseline="hanging">0.4</text><g transform="rotate(0,0,0) translate(-190,-387) translate(261,387) rotate(0,0,0)"><text fill="" stroke="none" font-family="helvetica" font-size="8pt" font-style="normal" font-weight="normal" text-decoration="normal" x="0" y="0" text-anchor="middle" dominant-baseline="hanging">0.6</text><g transform="rotate(0,0,0) translate(-261,-387) translate(332,387) rotate(0,0,0)"><text fill="" stroke="none" font-family="helvetica" font-size="8pt" font-style="normal" font-weight="normal" text-decoration="normal" x="0" y="0" text-anchor="middle" dominant-baseline="hanging">0.8</text><g transform="rotate(0,0,0) translate(-332,-387) translate(402,387) rotate(0,0,0)"><text fill="" stroke="none" font-family="helvetica" font-size="8pt" font-style="normal" font-weight="normal" text-decoration="normal" x="0" y="0" text-anchor="middle" dominant-baseline="hanging">1</text><g transform="rotate(0,0,0) translate(-402,-387)"/></g></g></g></g></g></g></g><g fill="#444444"><path fill="none" stroke="black" paint-order="fill stroke markers" d=" M 31 376 L 31 28" stroke-linejoin="bevel" stroke-miterlimit="10"/><path fill="none" stroke="black" paint-order="fill stroke markers" d=" M 25 360 L 33 360" stroke-linejoin="bevel" stroke-miterlimit="10"/><path fill="none" stroke="black" paint-order="fill stroke markers" d=" M 25 305 L 33 305" stroke-linejoin="bevel" stroke-miterlimit="10"/><path fill="none" stroke="black" paint-order="fill stroke markers" d=" M 25 250 L 33 250" stroke-linejoin="bevel" stroke-miterlimit="10"/><path fill="none" stroke="black" paint-order="fill stroke markers" d=" M 25 194 L 33 194" stroke-linejoin="bevel" stroke-miterlimit="10"/><path fill="none" stroke="black" paint-order="fill stroke markers" d=" M 25 139 L 33 139" stroke-linejoin="bevel" stroke-miterlimit="10"/><path fill="none" stroke="black" paint-order="fill stroke markers" d=" M 25 84 L 33 84" stroke-linejoin="bevel" stroke-miterlimit="10"/><path fill="none" stroke="black" paint-order="fill stroke markers" d=" M 25 28 L 33 28" stroke-linejoin="bevel" stroke-miterlimit="10"/><path fill="none" stroke="black" paint-order="fill stroke markers" d=" M 27 371 L 31 371" stroke-linejoin="bevel" stroke-miterlimit="10"/><path fill="none" stroke="black" paint-order="fill stroke markers" d=" M 27 360 L 31 360" stroke-linejoin="bevel" stroke-miterlimit="10"/><path fill="none" stroke="black" paint-order="fill stroke markers" d=" M 27 349 L 31 349" stroke-linejoin="bevel" stroke-miterlimit="10"/><path fill="none" stroke="black" paint-order="fill stroke markers" d=" M 27 338 L 31 338" stroke-linejoin="bevel" stroke-miterlimit="10"/><path fill="none" stroke="black" paint-order="fill stroke markers" d=" M 27 327 L 31 327" stroke-linejoin="bevel" stroke-miterlimit="10"/><path fill="none" stroke="black" paint-order="fill stroke markers" d=" M 27 316 L 31 316" stroke-linejoin="bevel" stroke-miterlimit="10"/><path fill="none" stroke="black" paint-order="fill stroke markers" d=" M 27 305 L 31 305" stroke-linejoin="bevel" stroke-miterlimit="10"/><path fill="none" stroke="black" paint-order="fill stroke markers" d=" M 27 294 L 31 294" stroke-linejoin="bevel" stroke-miterlimit="10"/><path fill="none" stroke="black" paint-order="fill stroke markers" d=" M 27 283 L 31 283" stroke-linejoin="bevel" stroke-miterlimit="10"/><path fill="none" stroke="black" paint-order="fill stroke markers" d=" M 27 272 L 31 272" stroke-linejoin="bevel" stroke-miterlimit="10"/><path fill="none" stroke="black" paint-order="fill stroke markers" d=" M 27 261 L 31 261" stroke-linejoin="bevel" stroke-miterlimit="10"/><path fill="none" stroke="black" paint-order="fill stroke markers" d=" M 27 250 L 31 250" stroke-linejoin="bevel" stroke-miterlimit="10"/><path fill="none" stroke="black" paint-order="fill stroke markers" d=" M 27 239 L 31 239" stroke-linejoin="bevel" stroke-miterlimit="10"/><path fill="none" stroke="black" paint-order="fill stroke markers" d=" M 27 227 L 31 227" stroke-linejoin="bevel" stroke-miterlimit="10"/><path fill="none" stroke="black" paint-order="fill stroke markers" d=" M 27 216 L 31 216" stroke-linejoin="bevel" stroke-miterlimit="10"/><path fill="none" stroke="black" paint-order="fill stroke markers" d=" M 27 205 L 31 205" stroke-linejoin="bevel" stroke-miterlimit="10"/><path fill="none" stroke="black" paint-order="fill stroke markers" d=" M 27 194 L 31 194" stroke-linejoin="bevel" stroke-miterlimit="10"/><path fill="none" stroke="black" paint-order="fill stroke markers" d=" M 27 183 L 31 183" stroke-linejoin="bevel" stroke-miterlimit="10"/><path fill="none" stroke="black" paint-order="fill stroke markers" d=" M 27 172 L 31 172" stroke-linejoin="bevel" stroke-miterlimit="10"/><path fill="none" stroke="black" paint-order="fill stroke markers" d=" M 27 161 L 31 161" stroke-linejoin="bevel" stroke-miterlimit="10"/><path fill="none" stroke="black" paint-order="fill stroke markers" d=" M 27 150 L 31 150" stroke-linejoin="bevel" stroke-miterlimit="10"/><path fill="none" stroke="black" paint-order="fill stroke markers" d=" M 27 139 L 31 139" stroke-linejoin="bevel" stroke-miterlimit="10"/><path fill="none" stroke="black" paint-order="fill stroke markers" d=" M 27 128 L 31 128" stroke-linejoin="bevel" stroke-miterlimit="10"/><path fill="none" stroke="black" paint-order="fill stroke markers" d=" M 27 117 L 31 117" stroke-linejoin="bevel" stroke-miterlimit="10"/><path fill="none" stroke="black" paint-order="fill stroke markers" d=" M 27 106 L 31 106" stroke-linejoin="bevel" stroke-miterlimit="10"/><path fill="none" stroke="black" paint-order="fill stroke markers" d=" M 27 95 L 31 95" stroke-linejoin="bevel" stroke-miterlimit="10"/><path fill="none" stroke="black" paint-order="fill stroke markers" d=" M 27 84 L 31 84" stroke-linejoin="bevel" stroke-miterlimit="10"/><path fill="none" stroke="black" paint-order="fill stroke markers" d=" M 27 73 L 31 73" stroke-linejoin="bevel" stroke-miterlimit="10"/><path fill="none" stroke="black" paint-order="fill stroke markers" d=" M 27 62 L 31 62" stroke-linejoin="bevel" stroke-miterlimit="10"/><path fill="none" stroke="black" paint-order="fill stroke markers" d=" M 27 50 L 31 50" stroke-linejoin="bevel" stroke-miterlimit="10"/><path fill="none" stroke="black" paint-order="fill stroke markers" d=" M 27 39 L 31 39" stroke-linejoin="bevel" stroke-miterlimit="10"/><path fill="" stroke="black" paint-order="fill stroke markers" d=" M 27 28 L 31 28" stroke-linejoin="bevel" stroke-miterlimit="10"/><g transform="translate(20,360) rotate(0,0,0)"><text fill="" stroke="none" font-family="helvetica" font-size="8pt" font-style="normal" font-weight="normal" text-decoration="normal" x="0" y="0" text-anchor="end" dominant-baseline="central">0</text><g transform="rotate(0,0,0) translate(-20,-360) translate(20,305) rotate(0,0,0)"><text fill="" stroke="none" font-family="helvetica" font-size="8pt" font-style="normal" font-weight="normal" text-decoration="normal" x="0" y="0" text-anchor="end" dominant-baseline="central">50</text><g transform="rotate(0,0,0) translate(-20,-305) translate(20,250) rotate(0,0,0)"><text fill="" stroke="none" font-family="helvetica" font-size="8pt" font-style="normal" font-weight="normal" text-decoration="normal" x="0" y="0" text-anchor="end" dominant-baseline="central">100</text><g transform="rotate(0,0,0) translate(-20,-250) translate(20,194) rotate(0,0,0)"><text fill="" stroke="none" font-family="helvetica" font-size="8pt" font-style="normal" font-weight="normal" text-decoration="normal" x="0" y="0" text-anchor="end" dominant-baseline="central">150</text><g transform="rotate(0,0,0) translate(-20,-194) translate(20,139) rotate(0,0,0)"><text fill="" stroke="none" font-family="helvetica" font-size="8pt" font-style="normal" font-weight="normal" text-decoration="normal" x="0" y="0" text-anchor="end" dominant-baseline="central">200</text><g transform="rotate(0,0,0) translate(-20,-139) translate(20,84) rotate(0,0,0)"><text fill="" stroke="none" font-family="helvetica" font-size="8pt" font-style="normal" font-weight="normal" text-decoration="normal" x="0" y="0" text-anchor="end" dominant-baseline="central">250</text><g transform="rotate(0,0,0) translate(-20,-84) translate(20,28) rotate(0,0,0)"><text fill="" stroke="none" font-family="helvetica" font-size="8pt" font-style="normal" font-weight="normal" text-decoration="normal" x="0" y="0" text-anchor="end" dominant-baseline="central">300</text><g transform="rotate(0,0,0) translate(-20,-28)"/></g></g></g></g></g></g></g></g></g></g></g></svg>