<svg version="1.1" xmlns="http://www.w3.org/2000/svg" xmlns:xlink="http://www.w3.org/1999/xlink" width="700" height="300" style="width: 700px; height: 300px;"><defs><clipPath id="rlZLpKZBzFuO"><path fill="none" stroke="none" d=" M 66 27 L 612 27 L 612 237 L 66 237 L 66 27 Z"/></clipPath></defs><g><g transform="scale(1,1) translate(0.5,0.5)"><rect fill="#FFFFFF" stroke="none" x="0" y="0" width="700" height="300"/><rect fill="#ffffff" stroke="none" x="0" y="0" width="700" height="300"/><rect fill="#FFFFFF" stroke="none" x="66" y="27" width="546" height="210"/><rect fill="#ffffff" stroke="none" x="66" y="27" width="546" height="210"/><g><rect fill="none" stroke="#e5e5e5" x="66" y="27" width="546" height="210" stroke-linejoin="bevel" stroke-miterlimit="10"/></g><g clip-path="url(#rlZLpKZBzFuO)"><g><g/><g><path fill="none" stroke="#e5e5e5" paint-order="fill stroke markers" d=" M 66 195 L 612 195" stroke-linejoin="bevel" stroke-miterlimit="10"/><path fill="none" stroke="#e5e5e5" paint-order="fill stroke markers" d=" M 66 153 L 612 153" stroke-linejoin="bevel" stroke-miterlimit="10"/><path fill="none" stroke="#e5e5e5" paint-order="fill stroke markers" d=" M 66 111 L 612 111" stroke-linejoin="bevel" stroke-miterlimit="10"/><path fill="none" stroke="#e5e5e5" paint-order="fill stroke markers" d=" M 66 69 L 612 69" stroke-linejoin="bevel" stroke-miterlimit="10"/></g><g><path fill="none" stroke="none"/><rect fill="#8c9eff" stroke="none" x="92.4090909090909" y="124.86" width="28.636363636363626" height="112.14"/><path fill="none" stroke="#8c9eff" paint-order="fill stroke markers" d=" M 92.4090909090909 124.86 L 121.04545454545453 124.86 L 121.04545454545453 237 L 92.4090909090909 237 L 92.4090909090909 124.86 Z" stroke-linejoin="bevel" stroke-miterlimit="10"/><rect fill="#536dfe" stroke="none" x="124.22727272727272" y="121.71" width="28.636363636363626" height="115.29"/><path fill="none" stroke="#536dfe" paint-order="fill stroke markers" d=" M 124.22727272727272 121.71 L 152.86363636363635 121.71 L 152.86363636363635 237 L 124.22727272727272 237 L 124.22727272727272 121.71 Z" stroke-linejoin="bevel" stroke-miterlimit="10"/><rect fill="#8c9eff" stroke="none" x="200.59090909090907" y="124.86" width="28.636363636363626" height="112.14"/><path fill="none" stroke="#8c9eff" paint-order="fill stroke markers" d=" M 200.59090909090907 124.86 L 229.2272727272727 124.86 L 229.2272727272727 237 L 200.59090909090907 237 L 200.59090909090907 124.86 Z" stroke-linejoin="bevel" stroke-miterlimit="10"/><rect fill="#536dfe" stroke="none" x="232.40909090909088" y="127.8" width="28.636363636363683" height="109.2"/><path fill="none" stroke="#536dfe" paint-order="fill stroke markers" d=" M 232.40909090909088 127.8 L 261.04545454545456 127.8 L 261.04545454545456 237 L 232.40909090909088 237 L 232.40909090909088 127.8 Z" stroke-linejoin="bevel" stroke-miterlimit="10"/><rect fill="#8c9eff" stroke="none" x="308.77272727272725" y="124.86" width="28.636363636363626" height="112.14"/><path fill="none" stroke="#8c9eff" paint-order="fill stroke markers" d=" M 308.77272727272725 124.86 L 337.4090909090909 124.86 L 337.4090909090909 237 L 308.77272727272725 237 L 308.77272727272725 124.86 Z" stroke-linejoin="bevel" stroke-miterlimit="10"/><rect fill="#536dfe" stroke="none" x="340.5909090909091" y="127.8" width="28.636363636363626" height="109.2"/><path fill="none" stroke="#536dfe" paint-order="fill stroke markers" d=" M 340.5909090909091 127.8 L 369.22727272727275 127.8 L 369.22727272727275 237 L 340.5909090909091 237 L 340.5909090909091 127.8 Z" stroke-linejoin="bevel" stroke-miterlimit="10"/><rect fill="#8c9eff" stroke="none" x="416.9545454545455" y="126.96" width="28.636363636363512" height="110.04"/><path fill="none" stroke="#8c9eff" paint-order="fill stroke markers" d=" M 416.9545454545455 126.96 L 445.590909090909 126.96 L 445.590909090909 237 L 416.9545454545455 237 L 416.9545454545455 126.96 Z" stroke-linejoin="bevel" stroke-miterlimit="10"/><rect fill="#536dfe" stroke="none" x="448.77272727272725" y="127.8" width="28.636363636363626" height="109.2"/><path fill="none" stroke="#536dfe" paint-order="fill stroke markers" d=" M 448.77272727272725 127.8 L 477.4090909090909 127.8 L 477.4090909090909 237 L 448.77272727272725 237 L 448.77272727272725 127.8 Z" stroke-linejoin="bevel" stroke-miterlimit="10"/><rect fill="#8c9eff" stroke="none" x="525.1363636363637" y="145.65" width="28.636363636363512" height="91.35"/><path fill="none" stroke="#8c9eff" paint-order="fill stroke markers" d=" M 525.1363636363637 145.65 L 553.7727272727273 145.65 L 553.7727272727273 237 L 525.1363636363637 237 L 525.1363636363637 145.65 Z" stroke-linejoin="bevel" stroke-miterlimit="10"/><rect fill="#536dfe" stroke="none" x="556.9545454545455" y="146.91" width="28.636363636363512" height="90.09"/><path fill="none" stroke="#536dfe" paint-order="fill stroke markers" d=" M 556.9545454545455 146.91 L 585.590909090909 146.91 L 585.590909090909 237 L 556.9545454545455 237 L 556.9545454545455 146.91 Z" stroke-linejoin="bevel" stroke-miterlimit="10"/></g><g><path fill="none" stroke="none"/><path fill="none" stroke="#ffca28" paint-order="fill stroke markers" d=" M 122.63636363636363 62 L 230.8181818181818 62.35102115244348 L 339 62.35102115244348 L 447.18181818181813 62.38293216630194 L 555.3636363636363 67.64824945295402" stroke-linejoin="bevel" stroke-miterlimit="10" stroke-width="2"/></g><g><path fill="none" stroke="none"/><path fill="#ffca28" stroke="#ffca28" paint-order="fill stroke markers" d=" M 126.13636363636363 62 A 3.5 3.5 0 1 1 126.13636188636377 61.99650000058333" stroke-linejoin="bevel" stroke-miterlimit="10"/><path fill="#ffca28" stroke="#ffca28" paint-order="fill stroke markers" d=" M 234.3181818181818 62.35102115244348 A 3.5 3.5 0 1 1 234.31818006818196 62.34752115302681" stroke-linejoin="bevel" stroke-miterlimit="10"/><path fill="#ffca28" stroke="#ffca28" paint-order="fill stroke markers" d=" M 342.5 62.35102115244348 A 3.5 3.5 0 1 1 342.49999825000015 62.34752115302681" stroke-linejoin="bevel" stroke-miterlimit="10"/><path fill="#ffca28" stroke="#ffca28" paint-order="fill stroke markers" d=" M 450.68181818181813 62.38293216630194 A 3.5 3.5 0 1 1 450.6818164318183 62.37943216688527" stroke-linejoin="bevel" stroke-miterlimit="10"/><path fill="#ffca28" stroke="#ffca28" paint-order="fill stroke markers" d=" M 558.8636363636363 67.64824945295402 A 3.5 3.5 0 1 1 558.8636346136363 67.64474945353734" stroke-linejoin="bevel" stroke-miterlimit="10"/></g></g></g><g><g fill="#444444"><path fill="" stroke="none" d=""/><g transform="translate(66,22)"><path fill="none" stroke="none"/><text fill="" stroke="none" font-family="helvetica" font-size="10pt" font-style="normal" font-weight="bold" text-decoration="normal" x="0" y="0" text-anchor="start" dominant-baseline="text-after-edge">Fraction of people granted a loan by gender and corresponding profit</text></g></g></g><g><g fill="grey" stroke="lightgrey" stroke-linejoin="bevel" stroke-miterlimit="10" stroke-width="2"><path fill="none" stroke="black" paint-order="fill stroke markers" d=" M 66 237 L 612 237" stroke-linejoin="bevel" stroke-miterlimit="10"/><path fill="none" stroke="black" paint-order="fill stroke markers" d=" M 107 243 L 107 235" stroke-linejoin="bevel" stroke-miterlimit="10"/><path fill="none" stroke="black" paint-order="fill stroke markers" d=" M 139 243 L 139 235" stroke-linejoin="bevel" stroke-miterlimit="10"/><path fill="none" stroke="black" paint-order="fill stroke markers" d=" M 215 243 L 215 235" stroke-linejoin="bevel" stroke-miterlimit="10"/><path fill="none" stroke="black" paint-order="fill stroke markers" d=" M 247 243 L 247 235" stroke-linejoin="bevel" stroke-miterlimit="10"/><path fill="none" stroke="black" paint-order="fill stroke markers" d=" M 323 243 L 323 235" stroke-linejoin="bevel" stroke-miterlimit="10"/><path fill="none" stroke="black" paint-order="fill stroke markers" d=" M 355 243 L 355 235" stroke-linejoin="bevel" stroke-miterlimit="10"/><path fill="none" stroke="black" paint-order="fill stroke markers" d=" M 431 243 L 431 235" stroke-linejoin="bevel" stroke-miterlimit="10"/><path fill="none" stroke="black" paint-order="fill stroke markers" d=" M 463 243 L 463 235" stroke-linejoin="bevel" stroke-miterlimit="10"/><path fill="none" stroke="black" paint-order="fill stroke markers" d=" M 539 243 L 539 235" stroke-linejoin="bevel" stroke-miterlimit="10"/><path fill="" stroke="" paint-order="fill stroke markers" d=" M 571 243 L 571 235" stroke-linejoin="bevel" stroke-miterlimit="10"/><g transform="translate(107,248) rotate(-57.29577951308232,0,0)"><text fill="" stroke="none" font-family="helvetica" font-size="8pt" font-style="normal" font-weight="normal" text-decoration="normal" x="0" y="0" text-anchor="end" dominant-baseline="central">female</text><g transform="rotate(57.29577951308232,0,0) translate(-107,-248) translate(139,248) rotate(-57.29577951308232,0,0)"><text fill="" stroke="none" font-family="helvetica" font-size="8pt" font-style="normal" font-weight="normal" text-decoration="normal" x="0" y="0" text-anchor="end" dominant-baseline="central">male</text><g transform="rotate(57.29577951308232,0,0) translate(-139,-248) translate(215,248) rotate(-57.29577951308232,0,0)"><text fill="" stroke="none" font-family="helvetica" font-size="8pt" font-style="normal" font-weight="normal" text-decoration="normal" x="0" y="0" text-anchor="end" dominant-baseline="central">female</text><g transform="rotate(57.29577951308232,0,0) translate(-215,-248) translate(247,248) rotate(-57.29577951308232,0,0)"><text fill="" stroke="none" font-family="helvetica" font-size="8pt" font-style="normal" font-weight="normal" text-decoration="normal" x="0" y="0" text-anchor="end" dominant-baseline="central">male</text><g transform="rotate(57.29577951308232,0,0) translate(-247,-248) translate(323,248) rotate(-57.29577951308232,0,0)"><text fill="" stroke="none" font-family="helvetica" font-size="8pt" font-style="normal" font-weight="normal" text-decoration="normal" x="0" y="0" text-anchor="end" dominant-baseline="central">female</text><g transform="rotate(57.29577951308232,0,0) translate(-323,-248) translate(355,248) rotate(-57.29577951308232,0,0)"><text fill="" stroke="none" font-family="helvetica" font-size="8pt" font-style="normal" font-weight="normal" text-decoration="normal" x="0" y="0" text-anchor="end" dominant-baseline="central">male</text><g transform="rotate(57.29577951308232,0,0) translate(-355,-248) translate(431,248) rotate(-57.29577951308232,0,0)"><text fill="" stroke="none" font-family="helvetica" font-size="8pt" font-style="normal" font-weight="normal" text-decoration="normal" x="0" y="0" text-anchor="end" dominant-baseline="central">female</text><g transform="rotate(57.29577951308232,0,0) translate(-431,-248) translate(463,248) rotate(-57.29577951308232,0,0)"><text fill="" stroke="none" font-family="helvetica" font-size="8pt" font-style="normal" font-weight="normal" text-decoration="normal" x="0" y="0" text-anchor="end" dominant-baseline="central">male</text><g transform="rotate(57.29577951308232,0,0) translate(-463,-248) translate(539,248) rotate(-57.29577951308232,0,0)"><text fill="" stroke="none" font-family="helvetica" font-size="8pt" font-style="normal" font-weight="normal" text-decoration="normal" x="0" y="0" text-anchor="end" dominant-baseline="central">female</text><g transform="rotate(57.29577951308232,0,0) translate(-539,-248) translate(571,248) rotate(-57.29577951308232,0,0)"><text fill="" stroke="none" font-family="helvetica" font-size="8pt" font-style="normal" font-weight="normal" text-decoration="normal" x="0" y="0" text-anchor="end" dominant-baseline="central">male</text><g transform="rotate(57.29577951308232,0,0) translate(-571,-248) translate(123,287) rotate(0,0,0)"><text fill="" stroke="none" font-family="helvetica" font-size="8pt" font-style="normal" font-weight="bold" text-decoration="normal" x="0" y="0" text-anchor="middle" dominant-baseline="hanging">MaxProfit</text><g transform="rotate(0,0,0) translate(-123,-287) translate(231,287) rotate(0,0,0)"><text fill="" stroke="none" font-family="helvetica" font-size="8pt" font-style="normal" font-weight="bold" text-decoration="normal" x="0" y="0" text-anchor="middle" dominant-baseline="hanging">EqualOpportunity</text><g transform="rotate(0,0,0) translate(-231,-287) translate(339,287) rotate(0,0,0)"><text fill="" stroke="none" font-family="helvetica" font-size="8pt" font-style="normal" font-weight="bold" text-decoration="normal" x="0" y="0" text-anchor="middle" dominant-baseline="hanging">GroupUnawareness</text><g transform="rotate(0,0,0) translate(-339,-287) translate(447,287) rotate(0,0,0)"><text fill="" stroke="none" font-family="helvetica" font-size="8pt" font-style="normal" font-weight="bold" text-decoration="normal" x="0" y="0" text-anchor="middle" dominant-baseline="hanging">DemographicParity</text><g transform="rotate(0,0,0) translate(-447,-287) translate(555,287) rotate(0,0,0)"><text fill="" stroke="none" font-family="helvetica" font-size="8pt" font-style="normal" font-weight="bold" text-decoration="normal" x="0" y="0" text-anchor="middle" dominant-baseline="hanging">EqualisedOdds</text><g transform="rotate(0,0,0) translate(-555,-287)"><path fill="none" stroke="" paint-order="fill stroke markers" d=" M 177 288 L 177 240"/><path fill="none" stroke="" paint-order="fill stroke markers" d=" M 285 288 L 285 240"/><path fill="none" stroke="" paint-order="fill stroke markers" d=" M 393 288 L 393 240"/><path fill="none" stroke="" paint-order="fill stroke markers" d=" M 501 288 L 501 240"/></g></g></g></g></g></g></g></g></g></g></g></g></g></g></g></g></g><g fill="#444444"><path fill="none" stroke="black" paint-order="fill stroke markers" d=" M 66 237 L 66 27" stroke-linejoin="bevel" stroke-miterlimit="10"/><path fill="none" stroke="black" paint-order="fill stroke markers" d=" M 60 237 L 68 237" stroke-linejoin="bevel" stroke-miterlimit="10"/><path fill="none" stroke="black" paint-order="fill stroke markers" d=" M 60 195 L 68 195" stroke-linejoin="bevel" stroke-miterlimit="10"/><path fill="none" stroke="black" paint-order="fill stroke markers" d=" M 60 153 L 68 153" stroke-linejoin="bevel" stroke-miterlimit="10"/><path fill="none" stroke="black" paint-order="fill stroke markers" d=" M 60 111 L 68 111" stroke-linejoin="bevel" stroke-miterlimit="10"/><path fill="none" stroke="black" paint-order="fill stroke markers" d=" M 60 69 L 68 69" stroke-linejoin="bevel" stroke-miterlimit="10"/><path fill="none" stroke="black" paint-order="fill stroke markers" d=" M 60 27 L 68 27" stroke-linejoin="bevel" stroke-miterlimit="10"/><path fill="none" stroke="black" paint-order="fill stroke markers" d=" M 62 237 L 66 237" stroke-linejoin="bevel" stroke-miterlimit="10"/><path fill="none" stroke="black" paint-order="fill stroke markers" d=" M 62 229 L 66 229" stroke-linejoin="bevel" stroke-miterlimit="10"/><path fill="none" stroke="black" paint-order="fill stroke markers" d=" M 62 220 L 66 220" stroke-linejoin="bevel" stroke-miterlimit="10"/><path fill="none" stroke="black" paint-order="fill stroke markers" d=" M 62 212 L 66 212" stroke-linejoin="bevel" stroke-miterlimit="10"/><path fill="none" stroke="black" paint-order="fill stroke markers" d=" M 62 203 L 66 203" stroke-linejoin="bevel" stroke-miterlimit="10"/><path fill="none" stroke="black" paint-order="fill stroke markers" d=" M 62 195 L 66 195" stroke-linejoin="bevel" stroke-miterlimit="10"/><path fill="none" stroke="black" paint-order="fill stroke markers" d=" M 62 187 L 66 187" stroke-linejoin="bevel" stroke-miterlimit="10"/><path fill="none" stroke="black" paint-order="fill stroke markers" d=" M 62 178 L 66 178" stroke-linejoin="bevel" stroke-miterlimit="10"/><path fill="none" stroke="black" paint-order="fill stroke markers" d=" M 62 170 L 66 170" stroke-linejoin="bevel" stroke-miterlimit="10"/><path fill="none" stroke="black" paint-order="fill stroke markers" d=" M 62 161 L 66 161" stroke-linejoin="bevel" stroke-miterlimit="10"/><path fill="none" stroke="black" paint-order="fill stroke markers" d=" M 62 153 L 66 153" stroke-linejoin="bevel" stroke-miterlimit="10"/><path fill="none" stroke="black" paint-order="fill stroke markers" d=" M 62 145 L 66 145" stroke-linejoin="bevel" stroke-miterlimit="10"/><path fill="none" stroke="black" paint-order="fill stroke markers" d=" M 62 136 L 66 136" stroke-linejoin="bevel" stroke-miterlimit="10"/><path fill="none" stroke="black" paint-order="fill stroke markers" d=" M 62 128 L 66 128" stroke-linejoin="bevel" stroke-miterlimit="10"/><path fill="none" stroke="black" paint-order="fill stroke markers" d=" M 62 119 L 66 119" stroke-linejoin="bevel" stroke-miterlimit="10"/><path fill="none" stroke="black" paint-order="fill stroke markers" d=" M 62 111 L 66 111" stroke-linejoin="bevel" stroke-miterlimit="10"/><path fill="none" stroke="black" paint-order="fill stroke markers" d=" M 62 103 L 66 103" stroke-linejoin="bevel" stroke-miterlimit="10"/><path fill="none" stroke="black" paint-order="fill stroke markers" d=" M 62 94 L 66 94" stroke-linejoin="bevel" stroke-miterlimit="10"/><path fill="none" stroke="black" paint-order="fill stroke markers" d=" M 62 86 L 66 86" stroke-linejoin="bevel" stroke-miterlimit="10"/><path fill="none" stroke="black" paint-order="fill stroke markers" d=" M 62 77 L 66 77" stroke-linejoin="bevel" stroke-miterlimit="10"/><path fill="none" stroke="black" paint-order="fill stroke markers" d=" M 62 69 L 66 69" stroke-linejoin="bevel" stroke-miterlimit="10"/><path fill="none" stroke="black" paint-order="fill stroke markers" d=" M 62 61 L 66 61" stroke-linejoin="bevel" stroke-miterlimit="10"/><path fill="none" stroke="black" paint-order="fill stroke markers" d=" M 62 52 L 66 52" stroke-linejoin="bevel" stroke-miterlimit="10"/><path fill="none" stroke="black" paint-order="fill stroke markers" d=" M 62 44 L 66 44" stroke-linejoin="bevel" stroke-miterlimit="10"/><path fill="none" stroke="black" paint-order="fill stroke markers" d=" M 62 35 L 66 35" stroke-linejoin="bevel" stroke-miterlimit="10"/><path fill="" stroke="black" paint-order="fill stroke markers" d=" M 62 27 L 66 27" stroke-linejoin="bevel" stroke-miterlimit="10"/><g transform="translate(55,237) rotate(0,0,0)"><text fill="" stroke="none" font-family="helvetica" font-size="8pt" font-style="normal" font-weight="normal" text-decoration="normal" x="0" y="0" text-anchor="end" dominant-baseline="central">0 %</text><g transform="rotate(0,0,0) translate(-55,-237) translate(55,195) rotate(0,0,0)"><text fill="" stroke="none" font-family="helvetica" font-size="8pt" font-style="normal" font-weight="normal" text-decoration="normal" x="0" y="0" text-anchor="end" dominant-baseline="central">20 %</text><g transform="rotate(0,0,0) translate(-55,-195) translate(55,153) rotate(0,0,0)"><text fill="" stroke="none" font-family="helvetica" font-size="8pt" font-style="normal" font-weight="normal" text-decoration="normal" x="0" y="0" text-anchor="end" dominant-baseline="central">40 %</text><g transform="rotate(0,0,0) translate(-55,-153) translate(55,111) rotate(0,0,0)"><text fill="" stroke="none" font-family="helvetica" font-size="8pt" font-style="normal" font-weight="normal" text-decoration="normal" x="0" y="0" text-anchor="end" dominant-baseline="central">60 %</text><g transform="rotate(0,0,0) translate(-55,-111) translate(55,69) rotate(0,0,0)"><text fill="" stroke="none" font-family="helvetica" font-size="8pt" font-style="normal" font-weight="normal" text-decoration="normal" x="0" y="0" text-anchor="end" dominant-baseline="central">80 %</text><g transform="rotate(0,0,0) translate(-55,-69) translate(55,27) rotate(0,0,0)"><text fill="" stroke="none" font-family="helvetica" font-size="8pt" font-style="normal" font-weight="normal" text-decoration="normal" x="0" y="0" text-anchor="end" dominant-baseline="central">100 %</text><g transform="rotate(0,0,0) translate(-55,-27) translate(16,132) rotate(-90,0,0)"><text fill="" stroke="none" font-family="helvetica" font-size="10pt" font-style="italic" font-weight="normal" text-decoration="normal" x="0" y="0" text-anchor="middle" dominant-baseline="alphabetic">Fraction non-defaulters getting loan</text><g transform="rotate(90,0,0) translate(-16,-132)"/></g></g></g></g></g></g></g></g><g fill="#444444"><path fill="none" stroke="black" paint-order="fill stroke markers" d=" M 612 237 L 612 27" stroke-linejoin="bevel" stroke-miterlimit="10"/><path fill="none" stroke="black" paint-order="fill stroke markers" d=" M 618 237 L 610 237" stroke-linejoin="bevel" stroke-miterlimit="10"/><path fill="none" stroke="black" paint-order="fill stroke markers" d=" M 618 205 L 610 205" stroke-linejoin="bevel" stroke-miterlimit="10"/><path fill="none" stroke="black" paint-order="fill stroke markers" d=" M 618 173 L 610 173" stroke-linejoin="bevel" stroke-miterlimit="10"/><path fill="none" stroke="black" paint-order="fill stroke markers" d=" M 618 141 L 610 141" stroke-linejoin="bevel" stroke-miterlimit="10"/><path fill="none" stroke="black" paint-order="fill stroke markers" d=" M 618 109 L 610 109" stroke-linejoin="bevel" stroke-miterlimit="10"/><path fill="none" stroke="black" paint-order="fill stroke markers" d=" M 618 77 L 610 77" stroke-linejoin="bevel" stroke-miterlimit="10"/><path fill="none" stroke="black" paint-order="fill stroke markers" d=" M 618 46 L 610 46" stroke-linejoin="bevel" stroke-miterlimit="10"/><path fill="none" stroke="black" paint-order="fill stroke markers" d=" M 616 237 L 612 237" stroke-linejoin="bevel" stroke-miterlimit="10"/><path fill="none" stroke="black" paint-order="fill stroke markers" d=" M 616 231 L 612 231" stroke-linejoin="bevel" stroke-miterlimit="10"/><path fill="none" stroke="black" paint-order="fill stroke markers" d=" M 616 224 L 612 224" stroke-linejoin="bevel" stroke-miterlimit="10"/><path fill="none" stroke="black" paint-order="fill stroke markers" d=" M 616 218 L 612 218" stroke-linejoin="bevel" stroke-miterlimit="10"/><path fill="none" stroke="black" paint-order="fill stroke markers" d=" M 616 211 L 612 211" stroke-linejoin="bevel" stroke-miterlimit="10"/><path fill="none" stroke="black" paint-order="fill stroke markers" d=" M 616 205 L 612 205" stroke-linejoin="bevel" stroke-miterlimit="10"/><path fill="none" stroke="black" paint-order="fill stroke markers" d=" M 616 199 L 612 199" stroke-linejoin="bevel" stroke-miterlimit="10"/><path fill="none" stroke="black" paint-order="fill stroke markers" d=" M 616 192 L 612 192" stroke-linejoin="bevel" stroke-miterlimit="10"/><path fill="none" stroke="black" paint-order="fill stroke markers" d=" M 616 186 L 612 186" stroke-linejoin="bevel" stroke-miterlimit="10"/><path fill="none" stroke="black" paint-order="fill stroke markers" d=" M 616 180 L 612 180" stroke-linejoin="bevel" stroke-miterlimit="10"/><path fill="none" stroke="black" paint-order="fill stroke markers" d=" M 616 173 L 612 173" stroke-linejoin="bevel" stroke-miterlimit="10"/><path fill="none" stroke="black" paint-order="fill stroke markers" d=" M 616 167 L 612 167" stroke-linejoin="bevel" stroke-miterlimit="10"/><path fill="none" stroke="black" paint-order="fill stroke markers" d=" M 616 160 L 612 160" stroke-linejoin="bevel" stroke-miterlimit="10"/><path fill="none" stroke="black" paint-order="fill stroke markers" d=" M 616 154 L 612 154" stroke-linejoin="bevel" stroke-miterlimit="10"/><path fill="none" stroke="black" paint-order="fill stroke markers" d=" M 616 148 L 612 148" stroke-linejoin="bevel" stroke-miterlimit="10"/><path fill="none" stroke="black" paint-order="fill stroke markers" d=" M 616 141 L 612 141" stroke-linejoin="bevel" stroke-miterlimit="10"/><path fill="none" stroke="black" paint-order="fill stroke markers" d=" M 616 135 L 612 135" stroke-linejoin="bevel" stroke-miterlimit="10"/><path fill="none" stroke="black" paint-order="fill stroke markers" d=" M 616 129 L 612 129" stroke-linejoin="bevel" stroke-miterlimit="10"/><path fill="none" stroke="black" paint-order="fill stroke markers" d=" M 616 122 L 612 122" stroke-linejoin="bevel" stroke-miterlimit="10"/><path fill="none" stroke="black" paint-order="fill stroke markers" d=" M 616 116 L 612 116" stroke-linejoin="bevel" stroke-miterlimit="10"/><path fill="none" stroke="black" paint-order="fill stroke markers" d=" M 616 109 L 612 109" stroke-linejoin="bevel" stroke-miterlimit="10"/><path fill="none" stroke="black" paint-order="fill stroke markers" d=" M 616 103 L 612 103" stroke-linejoin="bevel" stroke-miterlimit="10"/><path fill="none" stroke="black" paint-order="fill stroke markers" d=" M 616 97 L 612 97" stroke-linejoin="bevel" stroke-miterlimit="10"/><path fill="none" stroke="black" paint-order="fill stroke markers" d=" M 616 90 L 612 90" stroke-linejoin="bevel" stroke-miterlimit="10"/><path fill="none" stroke="black" paint-order="fill stroke markers" d=" M 616 84 L 612 84" stroke-linejoin="bevel" stroke-miterlimit="10"/><path fill="none" stroke="black" paint-order="fill stroke markers" d=" M 616 77 L 612 77" stroke-linejoin="bevel" stroke-miterlimit="10"/><path fill="none" stroke="black" paint-order="fill stroke markers" d=" M 616 71 L 612 71" stroke-linejoin="bevel" stroke-miterlimit="10"/><path fill="none" stroke="black" paint-order="fill stroke markers" d=" M 616 65 L 612 65" stroke-linejoin="bevel" stroke-miterlimit="10"/><path fill="none" stroke="black" paint-order="fill stroke markers" d=" M 616 58 L 612 58" stroke-linejoin="bevel" stroke-miterlimit="10"/><path fill="none" stroke="black" paint-order="fill stroke markers" d=" M 616 52 L 612 52" stroke-linejoin="bevel" stroke-miterlimit="10"/><path fill="none" stroke="black" paint-order="fill stroke markers" d=" M 616 46 L 612 46" stroke-linejoin="bevel" stroke-miterlimit="10"/><path fill="none" stroke="black" paint-order="fill stroke markers" d=" M 616 39 L 612 39" stroke-linejoin="bevel" stroke-miterlimit="10"/><path fill="" stroke="black" paint-order="fill stroke markers" d=" M 616 33 L 612 33" stroke-linejoin="bevel" stroke-miterlimit="10"/><g transform="translate(623,237) rotate(0,0,0)"><text fill="" stroke="none" font-family="helvetica" font-size="8pt" font-style="normal" font-weight="normal" text-decoration="normal" x="0" y="0" text-anchor="start" dominant-baseline="central">0</text><g transform="rotate(0,0,0) translate(-623,-237) translate(623,205) rotate(0,0,0)"><text fill="" stroke="none" font-family="helvetica" font-size="8pt" font-style="normal" font-weight="normal" text-decoration="normal" x="0" y="0" text-anchor="start" dominant-baseline="central">200</text><g transform="rotate(0,0,0) translate(-623,-205) translate(623,173) rotate(0,0,0)"><text fill="" stroke="none" font-family="helvetica" font-size="8pt" font-style="normal" font-weight="normal" text-decoration="normal" x="0" y="0" text-anchor="start" dominant-baseline="central">400</text><g transform="rotate(0,0,0) translate(-623,-173) translate(623,141) rotate(0,0,0)"><text fill="" stroke="none" font-family="helvetica" font-size="8pt" font-style="normal" font-weight="normal" text-decoration="normal" x="0" y="0" text-anchor="start" dominant-baseline="central">600</text><g transform="rotate(0,0,0) translate(-623,-141) translate(623,109) rotate(0,0,0)"><text fill="" stroke="none" font-family="helvetica" font-size="8pt" font-style="normal" font-weight="normal" text-decoration="normal" x="0" y="0" text-anchor="start" dominant-baseline="central">800</text><g transform="rotate(0,0,0) translate(-623,-109) translate(623,77) rotate(0,0,0)"><text fill="" stroke="none" font-family="helvetica" font-size="8pt" font-style="normal" font-weight="normal" text-decoration="normal" x="0" y="0" text-anchor="start" dominant-baseline="central">1000</text><g transform="rotate(0,0,0) translate(-623,-77) translate(623,46) rotate(0,0,0)"><text fill="" stroke="none" font-family="helvetica" font-size="8pt" font-style="normal" font-weight="normal" text-decoration="normal" x="0" y="0" text-anchor="start" dominant-baseline="central">1200</text><g transform="rotate(0,0,0) translate(-623,-46) translate(655,132) rotate(90,0,0)"><text fill="" stroke="none" font-family="helvetica" font-size="10pt" font-style="italic" font-weight="normal" text-decoration="normal" x="0" y="0" text-anchor="middle" dominant-baseline="alphabetic">Profit</text><g transform="rotate(-90,0,0) translate(-655,-132)"/></g></g></g></g></g></g></g></g></g></g></g></g></svg>