<svg version="1.1" xmlns="http://www.w3.org/2000/svg" xmlns:xlink="http://www.w3.org/1999/xlink" width="500" height="400" style="width: 500px; height: 400px;"><defs><clipPath id="LkOnCDstsHGM"><path fill="none" stroke="none" d=" M 28 28 L 470 28 L 470 376 L 28 376 L 28 28 Z"/></clipPath><clipPath id="IraVgEHXroqk"><path fill="none" stroke="none" d=" M 28 28 L 470 28 L 470 376 L 28 376 L 28 28 Z"/></clipPath></defs><g><g transform="scale(1,1) translate(0.5,0.5)"><rect fill="#FFFFFF" stroke="none" x="0" y="0" width="500" height="400"/><rect fill="#ffffff" stroke="none" x="0" y="0" width="500" height="400"/><rect fill="#FFFFFF" stroke="none" x="28" y="28" width="442" height="348"/><rect fill="#ffffff" stroke="none" x="28" y="28" width="442" height="348"/><g><rect fill="none" stroke="#e5e5e5" x="28" y="28" width="442" height="348" stroke-linejoin="bevel" stroke-miterlimit="10"/></g><g clip-path="url(#LkOnCDstsHGM)"><g><g><path fill="none" stroke="none"/><path fill="none" stroke="#00BFA5" paint-order="fill stroke markers" d=" M 48.09090909090911 360.1818181818182 L 52.14967860422408 356.38732484929915 L 56.20844811753904 351.69082819232705 L 60.26721763085401 345.9705071256489 L 64.32598714416898 339.1028985927966 L 68.38475665748395 330.96818610653173 L 72.44352617079892 321.4604586783653 L 76.50229568411389 310.50410081755206 L 80.56106519742886 298.07572660460283 L 84.61983471074382 284.22849403101696 L 88.67860422405879 269.113006243359 L 92.73737373737376 252.98753247795116 L 96.79614325068871 236.21111381693765 L 100.8549127640037 219.21667939579683 L 104.91368227731866 202.46680339514597 L 108.97245179063363 186.40028118016633 L 113.0312213039486 171.381033047988 L 117.08999081726357 157.66044207947078 L 121.14876033057853 145.36017966201652 L 125.2075298438935 134.47658961550354 L 129.26629935720848 124.9022915209957 L 133.32506887052344 116.45780601281976 L 137.3838383838384 108.92617986122156 L 141.44260789715338 102.08570950208502 L 145.50137741046834 95.73812634698169 L 149.5601469237833 89.73069404153256 L 153.61891643709828 83.9704947346778 L 157.67768595041326 78.42877508475988 L 161.73645546372822 73.13385370676986 L 165.79522497704318 68.15329920288286 L 169.85399449035816 63.569237332347484 L 173.91276400367312 59.453263744090805 L 177.97153351698807 55.848062066678835 L 182.03030303030306 52.76083374650898 L 186.08907254361804 50.16961512931982 L 190.14784205693303 48.03902433302409 L 194.20661157024796 46.33875769158982 L 198.26538108356294 45.05754809244041 L 202.32415059687787 44.207540744485186 L 206.38292011019286 43.81818181818187 L 210.44168962350784 43.92299363728148 L 214.50045913682283 44.54521857674496 L 218.55922865013775 45.688203380265406 L 222.61799816345274 47.33375700524522 L 226.67676767676772 49.44787762529114 L 230.73553719008265 51.990025489456855 L 234.79430670339764 54.920949949216094 L 238.85307621671262 58.20535436839691 L 242.91184573002755 61.80863625722492 L 246.97061524334254 65.69008183401462 L 251.02938475665752 69.79674446213357 L 255.0881542699725 74.06199143899312 L 259.14692378328743 78.41054379328494 L 263.2056932966024 82.76877970256317 L 267.2644628099174 87.0764995380693 L 271.32323232323233 91.29539621864285 L 275.3820018365473 95.41057886662225 L 279.4407713498623 99.42424634168799 L 283.49954086317723 103.34390721092268 L 287.5583103764922 107.17004762060122 L 291.6170798898072 110.88877233471351 L 295.6758494031222 114.47328942529776 L 299.7346189164371 117.89466456303913 L 303.7933884297521 121.13829546617407 L 307.8521579430671 124.21965282574766 L 311.910927456382 127.19232210717291 L 315.96969696969705 130.14370371009187 L 320.028466483012 133.17815238885163 L 324.08723599632697 136.3921471038225 L 328.1460055096419 139.84927420029982 L 332.20477502295694 143.5629888104218 L 336.26354453627187 147.49220403317733 L 340.3223140495868 151.55005054052276 L 344.3810835629018 155.62174153644398 L 348.43985307621676 159.58521941856628 L 352.49862258953175 163.32885373435823 L 356.5573921028467 166.76317158064566 L 360.61616161616166 169.82675250977118 L 364.67493112947665 172.48836916062183 L 368.7337006427916 174.74749757280853 L 372.79247015610656 176.63398228411984 L 376.85123966942155 178.20621790139046 L 380.91000918273653 179.5468800030753 L 384.96877869605146 180.7563127983027 L 389.02754820936644 181.94543925823828 L 393.08631772268143 183.23124858022675 L 397.14508723599636 184.73754704269754 L 401.20385674931134 186.6015978755989 L 405.2626262626263 188.9843022366883 L 409.3213957759413 192.07893997183902 L 413.38016528925624 196.11231878976452 L 417.4389348025712 201.33304799165813 L 421.4977043158862 207.9844904353695 L 425.55647382920114 216.26416900113446 L 429.6152433425161 226.27605599459065 L 433.6740128558311 237.98602776915467 L 437.73278236914604 251.19248148353972 L 441.791551882461 265.5226014359789 L 445.850321395776 280.4597485739836 L 449.90909090909093 295.3998955570262" stroke-linejoin="bevel" stroke-miterlimit="10" stroke-width="2"/></g><g><path fill="none" stroke="none"/><path fill="none" stroke="#8c9eff" paint-order="fill stroke markers" d=" M 48.09090909090911 353.27307239458236 L 52.14967860422408 347.46812620228883 L 56.20844811753904 340.4915995070882 L 60.26721763085401 332.30722300957433 L 64.32598714416898 322.92283410776315 L 68.38475665748395 312.3903394060807 L 72.44352617079892 300.80125829301494 L 76.50229568411389 288.27868530149664 L 80.56106519742886 274.9670915368753 L 84.61983471074382 261.0216466239046 L 88.67860422405879 246.59866383435366 L 92.73737373737376 231.84843159886947 L 96.79614325068871 216.91122477282167 L 100.8549127640037 201.91680541218696 L 104.91368227731866 186.9872791108184 L 108.97245179063363 172.2427532073009 L 113.0312213039486 157.80880255656336 L 117.08999081726357 143.82427924802786 L 121.14876033057853 130.44758478148762 L 125.2075298438935 117.85932453395242 L 129.26629935720848 106.25947777285558 L 133.32506887052344 95.85796017096874 L 137.3838383838384 86.85868580090846 L 141.44260789715338 79.43872005241303 L 145.50137741046834 73.7254903340986 L 149.5601469237833 69.77591004067347 L 153.61891643709828 67.56140736815229 L 157.67768595041326 66.96216103418669 L 161.73645546372822 67.77245612241052 L 165.79522497704318 69.71725476463632 L 169.85399449035816 72.47816038582954 L 173.91276400367312 75.72526883246297 L 177.97153351698807 79.15023222365255 L 182.03030303030306 82.4954396973788 L 186.08907254361804 85.57468644244949 L 190.14784205693303 88.28207191287078 L 194.20661157024796 90.58797319782201 L 198.26538108356294 92.52341270817817 L 202.32415059687787 94.15645638197913 L 206.38292011019286 95.56587607142882 L 210.44168962350784 96.81774806555944 L 214.50045913682283 97.94977463046689 L 218.55922865013775 98.96609723612772 L 222.61799816345274 99.84273199505287 L 226.67676767676772 100.54119631233203 L 230.73553719008265 101.02608550311874 L 234.79430670339764 101.2817487628842 L 238.85307621671262 101.32389706602203 L 242.91184573002755 101.20366745985899 L 246.97061524334254 101.00381225344739 L 251.02938475665752 100.82863539833875 L 255.0881542699725 100.79053927597192 L 259.14692378328743 100.99632396817788 L 263.2056932966024 101.53577452899776 L 267.2644628099174 102.47392202103089 L 271.32323232323233 103.84713547900645 L 275.3820018365473 105.66231048751035 L 279.4407713498623 107.8980963459507 L 283.49954086317723 110.50733335635118 L 287.5583103764922 113.42042633621054 L 291.6170798898072 116.54992339258192 L 295.6758494031222 119.79679460526287 L 299.7346189164371 123.05866190954279 L 303.7933884297521 126.23958375806609 L 307.8521579430671 129.26020379612024 L 311.910927456382 132.06648009838378 L 315.96969696969705 134.6351151803421 L 320.028466483012 136.97432021166915 L 324.08723599632697 139.11954517621334 L 328.1460055096419 141.1249713119236 L 332.20477502295694 143.05250686637342 L 336.26354453627187 144.9604547836961 L 340.3223140495868 146.8938391095313 L 344.3810835629018 148.87772305958546 L 348.43985307621676 150.91401854150598 L 352.49862258953175 152.9815874772704 L 356.5573921028467 155.03907188179838 L 360.61616161616166 157.0298848064998 L 364.67493112947665 158.88900751460042 L 368.7337006427916 160.55145169205974 L 372.79247015610656 161.9622716648681 L 376.85123966942155 163.08777450897944 L 380.91000918273653 163.9271347045062 L 384.96877869605146 164.52313350777865 L 389.02754820936644 164.97039872962722 L 393.08631772268143 165.41945942135143 L 397.14508723599636 166.07520001074934 L 401.20385674931134 167.18884917864577 L 405.2626262626263 169.04335592207096 L 409.3213957759413 171.9327661403525 L 413.38016528925624 176.13693473276336 L 417.4389348025712 181.89356278363763 L 421.4977043158862 189.37013743895486 L 425.55647382920114 198.63884726015422 L 429.6152433425161 209.65784585369775 L 433.6740128558311 222.26215815311562 L 437.73278236914604 236.1668623307009 L 441.791551882461 250.98381970483445 L 445.850321395776 266.2512479119045 L 449.90909090909093 281.47317046554707" stroke-linejoin="bevel" stroke-miterlimit="10" stroke-width="2"/></g></g></g><g><g clip-path="url(#IraVgEHXroqk)"><g><g/><g><path fill="#ffffff" stroke="#e5e5e5" paint-order="fill stroke markers" d=" M 371.703125 38 L 460 38 L 460 101 L 371.703125 101 L 371.703125 38 Z" fill-opacity="0.95" stroke-linejoin="bevel" stroke-miterlimit="10" stroke-opacity="0.5"/><text fill="#444444" stroke="none" font-family="helvetica" font-size="10pt" font-style="normal" font-weight="normal" text-decoration="normal" x="406.703125" y="58" text-anchor="start" dominant-baseline="central">Male</text><g><path fill="none" stroke="#00BFA5" paint-order="fill stroke markers" d=" M 381.703125 58 L 401.703125 58" stroke-linejoin="bevel" stroke-miterlimit="10" stroke-width="2"/></g><text fill="#444444" stroke="none" font-family="helvetica" font-size="10pt" font-style="normal" font-weight="normal" text-decoration="normal" x="406.703125" y="81" text-anchor="start" dominant-baseline="central">Female</text><g><path fill="none" stroke="#8c9eff" paint-order="fill stroke markers" d=" M 381.703125 81 L 401.703125 81" stroke-linejoin="bevel" stroke-miterlimit="10" stroke-width="2"/></g></g></g></g><g fill="#444444"><path fill="" stroke="none" d=""/><g transform="translate(28,23)"><path fill="none" stroke="none"/><text fill="" stroke="none" font-family="Helvetica Neue" font-size="10pt" font-style="normal" font-weight="bold" text-decoration="normal" x="0" y="0" text-anchor="start" dominant-baseline="text-after-edge">Density estimation of predicted probabilities</text></g></g></g><g><g fill="#444444"><path fill="none" stroke="black" paint-order="fill stroke markers" d=" M 28 376 L 470 376" stroke-linejoin="bevel" stroke-miterlimit="10"/><path fill="none" stroke="black" paint-order="fill stroke markers" d=" M 48 382 L 48 374" stroke-linejoin="bevel" stroke-miterlimit="10"/><path fill="none" stroke="black" paint-order="fill stroke markers" d=" M 128 382 L 128 374" stroke-linejoin="bevel" stroke-miterlimit="10"/><path fill="none" stroke="black" paint-order="fill stroke markers" d=" M 209 382 L 209 374" stroke-linejoin="bevel" stroke-miterlimit="10"/><path fill="none" stroke="black" paint-order="fill stroke markers" d=" M 289 382 L 289 374" stroke-linejoin="bevel" stroke-miterlimit="10"/><path fill="none" stroke="black" paint-order="fill stroke markers" d=" M 370 382 L 370 374" stroke-linejoin="bevel" stroke-miterlimit="10"/><path fill="none" stroke="black" paint-order="fill stroke markers" d=" M 450 382 L 450 374" stroke-linejoin="bevel" stroke-miterlimit="10"/><path fill="none" stroke="black" paint-order="fill stroke markers" d=" M 32 380 L 32 376" stroke-linejoin="bevel" stroke-miterlimit="10"/><path fill="none" stroke="black" paint-order="fill stroke markers" d=" M 48 380 L 48 376" stroke-linejoin="bevel" stroke-miterlimit="10"/><path fill="none" stroke="black" paint-order="fill stroke markers" d=" M 64 380 L 64 376" stroke-linejoin="bevel" stroke-miterlimit="10"/><path fill="none" stroke="black" paint-order="fill stroke markers" d=" M 80 380 L 80 376" stroke-linejoin="bevel" stroke-miterlimit="10"/><path fill="none" stroke="black" paint-order="fill stroke markers" d=" M 96 380 L 96 376" stroke-linejoin="bevel" stroke-miterlimit="10"/><path fill="none" stroke="black" paint-order="fill stroke markers" d=" M 112 380 L 112 376" stroke-linejoin="bevel" stroke-miterlimit="10"/><path fill="none" stroke="black" paint-order="fill stroke markers" d=" M 128 380 L 128 376" stroke-linejoin="bevel" stroke-miterlimit="10"/><path fill="none" stroke="black" paint-order="fill stroke markers" d=" M 145 380 L 145 376" stroke-linejoin="bevel" stroke-miterlimit="10"/><path fill="none" stroke="black" paint-order="fill stroke markers" d=" M 161 380 L 161 376" stroke-linejoin="bevel" stroke-miterlimit="10"/><path fill="none" stroke="black" paint-order="fill stroke markers" d=" M 177 380 L 177 376" stroke-linejoin="bevel" stroke-miterlimit="10"/><path fill="none" stroke="black" paint-order="fill stroke markers" d=" M 193 380 L 193 376" stroke-linejoin="bevel" stroke-miterlimit="10"/><path fill="none" stroke="black" paint-order="fill stroke markers" d=" M 209 380 L 209 376" stroke-linejoin="bevel" stroke-miterlimit="10"/><path fill="none" stroke="black" paint-order="fill stroke markers" d=" M 225 380 L 225 376" stroke-linejoin="bevel" stroke-miterlimit="10"/><path fill="none" stroke="black" paint-order="fill stroke markers" d=" M 241 380 L 241 376" stroke-linejoin="bevel" stroke-miterlimit="10"/><path fill="none" stroke="black" paint-order="fill stroke markers" d=" M 257 380 L 257 376" stroke-linejoin="bevel" stroke-miterlimit="10"/><path fill="none" stroke="black" paint-order="fill stroke markers" d=" M 273 380 L 273 376" stroke-linejoin="bevel" stroke-miterlimit="10"/><path fill="none" stroke="black" paint-order="fill stroke markers" d=" M 289 380 L 289 376" stroke-linejoin="bevel" stroke-miterlimit="10"/><path fill="none" stroke="black" paint-order="fill stroke markers" d=" M 305 380 L 305 376" stroke-linejoin="bevel" stroke-miterlimit="10"/><path fill="none" stroke="black" paint-order="fill stroke markers" d=" M 321 380 L 321 376" stroke-linejoin="bevel" stroke-miterlimit="10"/><path fill="none" stroke="black" paint-order="fill stroke markers" d=" M 337 380 L 337 376" stroke-linejoin="bevel" stroke-miterlimit="10"/><path fill="none" stroke="black" paint-order="fill stroke markers" d=" M 353 380 L 353 376" stroke-linejoin="bevel" stroke-miterlimit="10"/><path fill="none" stroke="black" paint-order="fill stroke markers" d=" M 370 380 L 370 376" stroke-linejoin="bevel" stroke-miterlimit="10"/><path fill="none" stroke="black" paint-order="fill stroke markers" d=" M 386 380 L 386 376" stroke-linejoin="bevel" stroke-miterlimit="10"/><path fill="none" stroke="black" paint-order="fill stroke markers" d=" M 402 380 L 402 376" stroke-linejoin="bevel" stroke-miterlimit="10"/><path fill="none" stroke="black" paint-order="fill stroke markers" d=" M 418 380 L 418 376" stroke-linejoin="bevel" stroke-miterlimit="10"/><path fill="none" stroke="black" paint-order="fill stroke markers" d=" M 434 380 L 434 376" stroke-linejoin="bevel" stroke-miterlimit="10"/><path fill="none" stroke="black" paint-order="fill stroke markers" d=" M 450 380 L 450 376" stroke-linejoin="bevel" stroke-miterlimit="10"/><path fill="" stroke="black" paint-order="fill stroke markers" d=" M 466 380 L 466 376" stroke-linejoin="bevel" stroke-miterlimit="10"/><g transform="translate(48,387) rotate(0,0,0)"><text fill="" stroke="none" font-family="helvetica" font-size="8pt" font-style="normal" font-weight="normal" text-decoration="normal" x="0" y="0" text-anchor="middle" dominant-baseline="hanging">0</text><g transform="rotate(0,0,0) translate(-48,-387) translate(128,387) rotate(0,0,0)"><text fill="" stroke="none" font-family="helvetica" font-size="8pt" font-style="normal" font-weight="normal" text-decoration="normal" x="0" y="0" text-anchor="middle" dominant-baseline="hanging">0.2</text><g transform="rotate(0,0,0) translate(-128,-387) translate(209,387) rotate(0,0,0)"><text fill="" stroke="none" font-family="helvetica" font-size="8pt" font-style="normal" font-weight="normal" text-decoration="normal" x="0" y="0" text-anchor="middle" dominant-baseline="hanging">0.4</text><g transform="rotate(0,0,0) translate(-209,-387) translate(289,387) rotate(0,0,0)"><text fill="" stroke="none" font-family="helvetica" font-size="8pt" font-style="normal" font-weight="normal" text-decoration="normal" x="0" y="0" text-anchor="middle" dominant-baseline="hanging">0.6</text><g transform="rotate(0,0,0) translate(-289,-387) translate(370,387) rotate(0,0,0)"><text fill="" stroke="none" font-family="helvetica" font-size="8pt" font-style="normal" font-weight="normal" text-decoration="normal" x="0" y="0" text-anchor="middle" dominant-baseline="hanging">0.8</text><g transform="rotate(0,0,0) translate(-370,-387) translate(450,387) rotate(0,0,0)"><text fill="" stroke="none" font-family="helvetica" font-size="8pt" font-style="normal" font-weight="normal" text-decoration="normal" x="0" y="0" text-anchor="middle" dominant-baseline="hanging">1</text><g transform="rotate(0,0,0) translate(-450,-387)"/></g></g></g></g></g></g></g><g fill="#444444"><path fill="none" stroke="black" paint-order="fill stroke markers" d=" M 28 376 L 28 28" stroke-linejoin="bevel" stroke-miterlimit="10"/><path fill="none" stroke="black" paint-order="fill stroke markers" d=" M 22 371 L 30 371" stroke-linejoin="bevel" stroke-miterlimit="10"/><path fill="none" stroke="black" paint-order="fill stroke markers" d=" M 22 327 L 30 327" stroke-linejoin="bevel" stroke-miterlimit="10"/><path fill="none" stroke="black" paint-order="fill stroke markers" d=" M 22 282 L 30 282" stroke-linejoin="bevel" stroke-miterlimit="10"/><path fill="none" stroke="black" paint-order="fill stroke markers" d=" M 22 237 L 30 237" stroke-linejoin="bevel" stroke-miterlimit="10"/><path fill="none" stroke="black" paint-order="fill stroke markers" d=" M 22 192 L 30 192" stroke-linejoin="bevel" stroke-miterlimit="10"/><path fill="none" stroke="black" paint-order="fill stroke markers" d=" M 22 147 L 30 147" stroke-linejoin="bevel" stroke-miterlimit="10"/><path fill="none" stroke="black" paint-order="fill stroke markers" d=" M 22 102 L 30 102" stroke-linejoin="bevel" stroke-miterlimit="10"/><path fill="none" stroke="black" paint-order="fill stroke markers" d=" M 22 58 L 30 58" stroke-linejoin="bevel" stroke-miterlimit="10"/><path fill="none" stroke="black" paint-order="fill stroke markers" d=" M 24 371 L 28 371" stroke-linejoin="bevel" stroke-miterlimit="10"/><path fill="none" stroke="black" paint-order="fill stroke markers" d=" M 24 362 L 28 362" stroke-linejoin="bevel" stroke-miterlimit="10"/><path fill="none" stroke="black" paint-order="fill stroke markers" d=" M 24 353 L 28 353" stroke-linejoin="bevel" stroke-miterlimit="10"/><path fill="none" stroke="black" paint-order="fill stroke markers" d=" M 24 345 L 28 345" stroke-linejoin="bevel" stroke-miterlimit="10"/><path fill="none" stroke="black" paint-order="fill stroke markers" d=" M 24 336 L 28 336" stroke-linejoin="bevel" stroke-miterlimit="10"/><path fill="none" stroke="black" paint-order="fill stroke markers" d=" M 24 327 L 28 327" stroke-linejoin="bevel" stroke-miterlimit="10"/><path fill="none" stroke="black" paint-order="fill stroke markers" d=" M 24 318 L 28 318" stroke-linejoin="bevel" stroke-miterlimit="10"/><path fill="none" stroke="black" paint-order="fill stroke markers" d=" M 24 309 L 28 309" stroke-linejoin="bevel" stroke-miterlimit="10"/><path fill="none" stroke="black" paint-order="fill stroke markers" d=" M 24 300 L 28 300" stroke-linejoin="bevel" stroke-miterlimit="10"/><path fill="none" stroke="black" paint-order="fill stroke markers" d=" M 24 291 L 28 291" stroke-linejoin="bevel" stroke-miterlimit="10"/><path fill="none" stroke="black" paint-order="fill stroke markers" d=" M 24 282 L 28 282" stroke-linejoin="bevel" stroke-miterlimit="10"/><path fill="none" stroke="black" paint-order="fill stroke markers" d=" M 24 273 L 28 273" stroke-linejoin="bevel" stroke-miterlimit="10"/><path fill="none" stroke="black" paint-order="fill stroke markers" d=" M 24 264 L 28 264" stroke-linejoin="bevel" stroke-miterlimit="10"/><path fill="none" stroke="black" paint-order="fill stroke markers" d=" M 24 255 L 28 255" stroke-linejoin="bevel" stroke-miterlimit="10"/><path fill="none" stroke="black" paint-order="fill stroke markers" d=" M 24 246 L 28 246" stroke-linejoin="bevel" stroke-miterlimit="10"/><path fill="none" stroke="black" paint-order="fill stroke markers" d=" M 24 237 L 28 237" stroke-linejoin="bevel" stroke-miterlimit="10"/><path fill="none" stroke="black" paint-order="fill stroke markers" d=" M 24 228 L 28 228" stroke-linejoin="bevel" stroke-miterlimit="10"/><path fill="none" stroke="black" paint-order="fill stroke markers" d=" M 24 219 L 28 219" stroke-linejoin="bevel" stroke-miterlimit="10"/><path fill="none" stroke="black" paint-order="fill stroke markers" d=" M 24 210 L 28 210" stroke-linejoin="bevel" stroke-miterlimit="10"/><path fill="none" stroke="black" paint-order="fill stroke markers" d=" M 24 201 L 28 201" stroke-linejoin="bevel" stroke-miterlimit="10"/><path fill="none" stroke="black" paint-order="fill stroke markers" d=" M 24 192 L 28 192" stroke-linejoin="bevel" stroke-miterlimit="10"/><path fill="none" stroke="black" paint-order="fill stroke markers" d=" M 24 183 L 28 183" stroke-linejoin="bevel" stroke-miterlimit="10"/><path fill="none" stroke="black" paint-order="fill stroke markers" d=" M 24 174 L 28 174" stroke-linejoin="bevel" stroke-miterlimit="10"/><path fill="none" stroke="black" paint-order="fill stroke markers" d=" M 24 165 L 28 165" stroke-linejoin="bevel" stroke-miterlimit="10"/><path fill="none" stroke="black" paint-order="fill stroke markers" d=" M 24 156 L 28 156" stroke-linejoin="bevel" stroke-miterlimit="10"/><path fill="none" stroke="black" paint-order="fill stroke markers" d=" M 24 147 L 28 147" stroke-linejoin="bevel" stroke-miterlimit="10"/><path fill="none" stroke="black" paint-order="fill stroke markers" d=" M 24 138 L 28 138" stroke-linejoin="bevel" stroke-miterlimit="10"/><path fill="none" stroke="black" paint-order="fill stroke markers" d=" M 24 129 L 28 129" stroke-linejoin="bevel" stroke-miterlimit="10"/><path fill="none" stroke="black" paint-order="fill stroke markers" d=" M 24 120 L 28 120" stroke-linejoin="bevel" stroke-miterlimit="10"/><path fill="none" stroke="black" paint-order="fill stroke markers" d=" M 24 111 L 28 111" stroke-linejoin="bevel" stroke-miterlimit="10"/><path fill="none" stroke="black" paint-order="fill stroke markers" d=" M 24 102 L 28 102" stroke-linejoin="bevel" stroke-miterlimit="10"/><path fill="none" stroke="black" paint-order="fill stroke markers" d=" M 24 94 L 28 94" stroke-linejoin="bevel" stroke-miterlimit="10"/><path fill="none" stroke="black" paint-order="fill stroke markers" d=" M 24 85 L 28 85" stroke-linejoin="bevel" stroke-miterlimit="10"/><path fill="none" stroke="black" paint-order="fill stroke markers" d=" M 24 76 L 28 76" stroke-linejoin="bevel" stroke-miterlimit="10"/><path fill="none" stroke="black" paint-order="fill stroke markers" d=" M 24 67 L 28 67" stroke-linejoin="bevel" stroke-miterlimit="10"/><path fill="none" stroke="black" paint-order="fill stroke markers" d=" M 24 58 L 28 58" stroke-linejoin="bevel" stroke-miterlimit="10"/><path fill="none" stroke="black" paint-order="fill stroke markers" d=" M 24 49 L 28 49" stroke-linejoin="bevel" stroke-miterlimit="10"/><path fill="none" stroke="black" paint-order="fill stroke markers" d=" M 24 40 L 28 40" stroke-linejoin="bevel" stroke-miterlimit="10"/><path fill="" stroke="black" paint-order="fill stroke markers" d=" M 24 31 L 28 31" stroke-linejoin="bevel" stroke-miterlimit="10"/><g transform="translate(17,371) rotate(0,0,0)"><text fill="" stroke="none" font-family="helvetica" font-size="8pt" font-style="normal" font-weight="normal" text-decoration="normal" x="0" y="0" text-anchor="end" dominant-baseline="central">0</text><g transform="rotate(0,0,0) translate(-17,-371) translate(17,327) rotate(0,0,0)"><text fill="" stroke="none" font-family="helvetica" font-size="8pt" font-style="normal" font-weight="normal" text-decoration="normal" x="0" y="0" text-anchor="end" dominant-baseline="central">0.2</text><g transform="rotate(0,0,0) translate(-17,-327) translate(17,282) rotate(0,0,0)"><text fill="" stroke="none" font-family="helvetica" font-size="8pt" font-style="normal" font-weight="normal" text-decoration="normal" x="0" y="0" text-anchor="end" dominant-baseline="central">0.4</text><g transform="rotate(0,0,0) translate(-17,-282) translate(17,237) rotate(0,0,0)"><text fill="" stroke="none" font-family="helvetica" font-size="8pt" font-style="normal" font-weight="normal" text-decoration="normal" x="0" y="0" text-anchor="end" dominant-baseline="central">0.6</text><g transform="rotate(0,0,0) translate(-17,-237) translate(17,192) rotate(0,0,0)"><text fill="" stroke="none" font-family="helvetica" font-size="8pt" font-style="normal" font-weight="normal" text-decoration="normal" x="0" y="0" text-anchor="end" dominant-baseline="central">0.8</text><g transform="rotate(0,0,0) translate(-17,-192) translate(17,147) rotate(0,0,0)"><text fill="" stroke="none" font-family="helvetica" font-size="8pt" font-style="normal" font-weight="normal" text-decoration="normal" x="0" y="0" text-anchor="end" dominant-baseline="central">1</text><g transform="rotate(0,0,0) translate(-17,-147) translate(17,102) rotate(0,0,0)"><text fill="" stroke="none" font-family="helvetica" font-size="8pt" font-style="normal" font-weight="normal" text-decoration="normal" x="0" y="0" text-anchor="end" dominant-baseline="central">1.2</text><g transform="rotate(0,0,0) translate(-17,-102) translate(17,58) rotate(0,0,0)"><text fill="" stroke="none" font-family="helvetica" font-size="8pt" font-style="normal" font-weight="normal" text-decoration="normal" x="0" y="0" text-anchor="end" dominant-baseline="central">1.4</text><g transform="rotate(0,0,0) translate(-17,-58)"/></g></g></g></g></g></g></g></g></g></g></g></g></svg>