<svg version="1.1" xmlns="http://www.w3.org/2000/svg" xmlns:xlink="http://www.w3.org/1999/xlink" width="450" height="400" style="width: 450px; height: 400px;"><defs><clipPath id="XTzWZEwvLRrp"><path fill="none" stroke="none" d=" M 35 28 L 420 28 L 420 332 L 35 332 L 35 28 Z"/></clipPath></defs><g><g transform="scale(1,1) translate(0.5,0.5)"><rect fill="#FFFFFF" stroke="none" x="0" y="0" width="450" height="400"/><rect fill="#ffffff" stroke="none" x="0" y="0" width="450" height="400"/><rect fill="#FFFFFF" stroke="none" x="35" y="28" width="385" height="304"/><rect fill="#ffffff" stroke="none" x="35" y="28" width="385" height="304"/><g><rect fill="none" stroke="#e5e5e5" x="35" y="28" width="385" height="304" stroke-linejoin="bevel" stroke-miterlimit="10"/></g><g clip-path="url(#XTzWZEwvLRrp)"><g><g><path fill="none" stroke="none"/><rect fill="#00BFA5" stroke="none" x="36.75" y="273.14763231197776" width="31.5" height="45.03418586984043"/><path fill="none" stroke="#00BFA5" paint-order="fill stroke markers" d=" M 36.75 273.14763231197776 L 68.25 273.14763231197776 L 68.25 318.1818181818182 L 36.75 318.1818181818182 L 36.75 273.14763231197776 Z" stroke-linejoin="bevel" stroke-miterlimit="10"/><rect fill="#00BFA5" stroke="none" x="71.75" y="131.50164598632568" width="31.5" height="186.6801721954925"/><path fill="none" stroke="#00BFA5" paint-order="fill stroke markers" d=" M 71.75 131.50164598632568 L 103.25 131.50164598632568 L 103.25 318.1818181818182 L 71.75 318.1818181818182 L 71.75 131.50164598632568 Z" stroke-linejoin="bevel" stroke-miterlimit="10"/><rect fill="#00BFA5" stroke="none" x="106.75" y="41.81818181818187" width="31.5" height="276.3636363636363"/><path fill="none" stroke="#00BFA5" paint-order="fill stroke markers" d=" M 106.75 41.81818181818187 L 138.25 41.81818181818187 L 138.25 318.1818181818182 L 106.75 318.1818181818182 L 106.75 41.81818181818187 Z" stroke-linejoin="bevel" stroke-miterlimit="10"/><rect fill="#00BFA5" stroke="none" x="141.75" y="82.61838440111427" width="31.5" height="235.56343378070392"/><path fill="none" stroke="#00BFA5" paint-order="fill stroke markers" d=" M 141.75 82.61838440111427 L 173.25 82.61838440111427 L 173.25 318.1818181818182 L 141.75 318.1818181818182 L 141.75 82.61838440111427 Z" stroke-linejoin="bevel" stroke-miterlimit="10"/><rect fill="#00BFA5" stroke="none" x="176.75" y="52.98050139275773" width="31.5" height="265.20131678906046"/><path fill="none" stroke="#00BFA5" paint-order="fill stroke markers" d=" M 176.75 52.98050139275773 L 208.25 52.98050139275773 L 208.25 318.1818181818182 L 176.75 318.1818181818182 L 176.75 52.98050139275773 Z" stroke-linejoin="bevel" stroke-miterlimit="10"/><rect fill="#00BFA5" stroke="none" x="211.75" y="75.3051405419094" width="31.5" height="242.8766776399088"/><path fill="none" stroke="#00BFA5" paint-order="fill stroke markers" d=" M 211.75 75.3051405419094 L 243.25 75.3051405419094 L 243.25 318.1818181818182 L 211.75 318.1818181818182 L 211.75 75.3051405419094 Z" stroke-linejoin="bevel" stroke-miterlimit="10"/><rect fill="#00BFA5" stroke="none" x="246.75" y="128.03747784249182" width="31.5" height="190.14434033932636"/><path fill="none" stroke="#00BFA5" paint-order="fill stroke markers" d=" M 246.75 128.03747784249182 L 278.25 128.03747784249182 L 278.25 318.1818181818182 L 246.75 318.1818181818182 L 246.75 128.03747784249182 Z" stroke-linejoin="bevel" stroke-miterlimit="10"/><rect fill="#00BFA5" stroke="none" x="281.75" y="125.72803241326923" width="31.5" height="192.45378576854895"/><path fill="none" stroke="#00BFA5" paint-order="fill stroke markers" d=" M 281.75 125.72803241326923 L 313.25 125.72803241326923 L 313.25 318.1818181818182 L 281.75 318.1818181818182 L 281.75 125.72803241326923 Z" stroke-linejoin="bevel" stroke-miterlimit="10"/><rect fill="#00BFA5" stroke="none" x="316.75" y="149.2073942770322" width="31.5" height="168.974423904786"/><path fill="none" stroke="#00BFA5" paint-order="fill stroke markers" d=" M 316.75 149.2073942770322 L 348.25 149.2073942770322 L 348.25 318.1818181818182 L 316.75 318.1818181818182 L 316.75 149.2073942770322 Z" stroke-linejoin="bevel" stroke-miterlimit="10"/><rect fill="#00BFA5" stroke="none" x="351.75" y="156.52063813623707" width="31.5" height="161.66118004558112"/><path fill="none" stroke="#00BFA5" paint-order="fill stroke markers" d=" M 351.75 156.52063813623707 L 383.25 156.52063813623707 L 383.25 318.1818181818182 L 351.75 318.1818181818182 L 351.75 156.52063813623707 Z" stroke-linejoin="bevel" stroke-miterlimit="10"/><rect fill="#00BFA5" stroke="none" x="386.75" y="318.1818181818182" width="31.5" height="0"/><path fill="none" stroke="#00BFA5" paint-order="fill stroke markers" d=" M 386.75 318.1818181818182 L 418.25 318.1818181818182 L 418.25 318.1818181818182 L 386.75 318.1818181818182 L 386.75 318.1818181818182 Z" stroke-linejoin="bevel" stroke-miterlimit="10"/></g></g></g><g><g fill="#444444"><path fill="" stroke="none" d=""/><g transform="translate(35,23)"><path fill="none" stroke="none"/><text fill="" stroke="none" font-family="Helvetica Neue" font-size="10pt" font-style="normal" font-weight="bold" text-decoration="normal" x="0" y="0" text-anchor="start" dominant-baseline="text-after-edge">predicted_probabilities</text></g></g></g><g><g fill="#444444"><path fill="none" stroke="black" paint-order="fill stroke markers" d=" M 35 332 L 420 332" stroke-linejoin="bevel" stroke-miterlimit="10"/><path fill="none" stroke="black" paint-order="fill stroke markers" d=" M 53 338 L 53 330" stroke-linejoin="bevel" stroke-miterlimit="10"/><path fill="none" stroke="black" paint-order="fill stroke markers" d=" M 88 338 L 88 330" stroke-linejoin="bevel" stroke-miterlimit="10"/><path fill="none" stroke="black" paint-order="fill stroke markers" d=" M 123 338 L 123 330" stroke-linejoin="bevel" stroke-miterlimit="10"/><path fill="none" stroke="black" paint-order="fill stroke markers" d=" M 158 338 L 158 330" stroke-linejoin="bevel" stroke-miterlimit="10"/><path fill="none" stroke="black" paint-order="fill stroke markers" d=" M 193 338 L 193 330" stroke-linejoin="bevel" stroke-miterlimit="10"/><path fill="none" stroke="black" paint-order="fill stroke markers" d=" M 228 338 L 228 330" stroke-linejoin="bevel" stroke-miterlimit="10"/><path fill="none" stroke="black" paint-order="fill stroke markers" d=" M 263 338 L 263 330" stroke-linejoin="bevel" stroke-miterlimit="10"/><path fill="none" stroke="black" paint-order="fill stroke markers" d=" M 298 338 L 298 330" stroke-linejoin="bevel" stroke-miterlimit="10"/><path fill="none" stroke="black" paint-order="fill stroke markers" d=" M 333 338 L 333 330" stroke-linejoin="bevel" stroke-miterlimit="10"/><path fill="none" stroke="black" paint-order="fill stroke markers" d=" M 368 338 L 368 330" stroke-linejoin="bevel" stroke-miterlimit="10"/><path fill="" stroke="black" paint-order="fill stroke markers" d=" M 403 338 L 403 330" stroke-linejoin="bevel" stroke-miterlimit="10"/><g transform="translate(53,343) rotate(-45,0,0)"><text fill="" stroke="none" font-family="helvetica" font-size="8pt" font-style="normal" font-weight="normal" text-decoration="normal" x="0" y="0" text-anchor="end" dominant-baseline="central">(0.018, 0.117]</text><g transform="rotate(45,0,0) translate(-53,-343) translate(88,343) rotate(-45,0,0)"><text fill="" stroke="none" font-family="helvetica" font-size="8pt" font-style="normal" font-weight="normal" text-decoration="normal" x="0" y="0" text-anchor="end" dominant-baseline="central">(0.117, 0.214]</text><g transform="rotate(45,0,0) translate(-88,-343) translate(123,343) rotate(-45,0,0)"><text fill="" stroke="none" font-family="helvetica" font-size="8pt" font-style="normal" font-weight="normal" text-decoration="normal" x="0" y="0" text-anchor="end" dominant-baseline="central">(0.214, 0.311]</text><g transform="rotate(45,0,0) translate(-123,-343) translate(158,343) rotate(-45,0,0)"><text fill="" stroke="none" font-family="helvetica" font-size="8pt" font-style="normal" font-weight="normal" text-decoration="normal" x="0" y="0" text-anchor="end" dominant-baseline="central">(0.311, 0.408]</text><g transform="rotate(45,0,0) translate(-158,-343) translate(193,343) rotate(-45,0,0)"><text fill="" stroke="none" font-family="helvetica" font-size="8pt" font-style="normal" font-weight="normal" text-decoration="normal" x="0" y="0" text-anchor="end" dominant-baseline="central">(0.408, 0.505]</text><g transform="rotate(45,0,0) translate(-193,-343) translate(228,343) rotate(-45,0,0)"><text fill="" stroke="none" font-family="helvetica" font-size="8pt" font-style="normal" font-weight="normal" text-decoration="normal" x="0" y="0" text-anchor="end" dominant-baseline="central">(0.505, 0.602]</text><g transform="rotate(45,0,0) translate(-228,-343) translate(263,343) rotate(-45,0,0)"><text fill="" stroke="none" font-family="helvetica" font-size="8pt" font-style="normal" font-weight="normal" text-decoration="normal" x="0" y="0" text-anchor="end" dominant-baseline="central">(0.602, 0.699]</text><g transform="rotate(45,0,0) translate(-263,-343) translate(298,343) rotate(-45,0,0)"><text fill="" stroke="none" font-family="helvetica" font-size="8pt" font-style="normal" font-weight="normal" text-decoration="normal" x="0" y="0" text-anchor="end" dominant-baseline="central">(0.699, 0.796]</text><g transform="rotate(45,0,0) translate(-298,-343) translate(333,343) rotate(-45,0,0)"><text fill="" stroke="none" font-family="helvetica" font-size="8pt" font-style="normal" font-weight="normal" text-decoration="normal" x="0" y="0" text-anchor="end" dominant-baseline="central">(0.796, 0.893]</text><g transform="rotate(45,0,0) translate(-333,-343) translate(368,343) rotate(-45,0,0)"><text fill="" stroke="none" font-family="helvetica" font-size="8pt" font-style="normal" font-weight="normal" text-decoration="normal" x="0" y="0" text-anchor="end" dominant-baseline="central">(0.893, 0.99]</text><g transform="rotate(45,0,0) translate(-368,-343) translate(403,343) rotate(-45,0,0)"><text fill="" stroke="none" font-family="helvetica" font-size="8pt" font-style="normal" font-weight="normal" text-decoration="normal" x="0" y="0" text-anchor="end" dominant-baseline="central">Nan</text><g transform="rotate(45,0,0) translate(-403,-343)"/></g></g></g></g></g></g></g></g></g></g></g></g><g fill="#444444"><path fill="none" stroke="black" paint-order="fill stroke markers" d=" M 35 332 L 35 28" stroke-linejoin="bevel" stroke-miterlimit="10"/><path fill="none" stroke="black" paint-order="fill stroke markers" d=" M 29 318 L 37 318" stroke-linejoin="bevel" stroke-miterlimit="10"/><path fill="none" stroke="black" paint-order="fill stroke markers" d=" M 29 279 L 37 279" stroke-linejoin="bevel" stroke-miterlimit="10"/><path fill="none" stroke="black" paint-order="fill stroke markers" d=" M 29 240 L 37 240" stroke-linejoin="bevel" stroke-miterlimit="10"/><path fill="none" stroke="black" paint-order="fill stroke markers" d=" M 29 200 L 37 200" stroke-linejoin="bevel" stroke-miterlimit="10"/><path fill="none" stroke="black" paint-order="fill stroke markers" d=" M 29 161 L 37 161" stroke-linejoin="bevel" stroke-miterlimit="10"/><path fill="none" stroke="black" paint-order="fill stroke markers" d=" M 29 122 L 37 122" stroke-linejoin="bevel" stroke-miterlimit="10"/><path fill="none" stroke="black" paint-order="fill stroke markers" d=" M 29 82 L 37 82" stroke-linejoin="bevel" stroke-miterlimit="10"/><path fill="none" stroke="black" paint-order="fill stroke markers" d=" M 29 43 L 37 43" stroke-linejoin="bevel" stroke-miterlimit="10"/><path fill="none" stroke="black" paint-order="fill stroke markers" d=" M 31 326 L 35 326" stroke-linejoin="bevel" stroke-miterlimit="10"/><path fill="none" stroke="black" paint-order="fill stroke markers" d=" M 31 318 L 35 318" stroke-linejoin="bevel" stroke-miterlimit="10"/><path fill="none" stroke="black" paint-order="fill stroke markers" d=" M 31 310 L 35 310" stroke-linejoin="bevel" stroke-miterlimit="10"/><path fill="none" stroke="black" paint-order="fill stroke markers" d=" M 31 302 L 35 302" stroke-linejoin="bevel" stroke-miterlimit="10"/><path fill="none" stroke="black" paint-order="fill stroke markers" d=" M 31 295 L 35 295" stroke-linejoin="bevel" stroke-miterlimit="10"/><path fill="none" stroke="black" paint-order="fill stroke markers" d=" M 31 287 L 35 287" stroke-linejoin="bevel" stroke-miterlimit="10"/><path fill="none" stroke="black" paint-order="fill stroke markers" d=" M 31 279 L 35 279" stroke-linejoin="bevel" stroke-miterlimit="10"/><path fill="none" stroke="black" paint-order="fill stroke markers" d=" M 31 271 L 35 271" stroke-linejoin="bevel" stroke-miterlimit="10"/><path fill="none" stroke="black" paint-order="fill stroke markers" d=" M 31 263 L 35 263" stroke-linejoin="bevel" stroke-miterlimit="10"/><path fill="none" stroke="black" paint-order="fill stroke markers" d=" M 31 255 L 35 255" stroke-linejoin="bevel" stroke-miterlimit="10"/><path fill="none" stroke="black" paint-order="fill stroke markers" d=" M 31 247 L 35 247" stroke-linejoin="bevel" stroke-miterlimit="10"/><path fill="none" stroke="black" paint-order="fill stroke markers" d=" M 31 240 L 35 240" stroke-linejoin="bevel" stroke-miterlimit="10"/><path fill="none" stroke="black" paint-order="fill stroke markers" d=" M 31 232 L 35 232" stroke-linejoin="bevel" stroke-miterlimit="10"/><path fill="none" stroke="black" paint-order="fill stroke markers" d=" M 31 224 L 35 224" stroke-linejoin="bevel" stroke-miterlimit="10"/><path fill="none" stroke="black" paint-order="fill stroke markers" d=" M 31 216 L 35 216" stroke-linejoin="bevel" stroke-miterlimit="10"/><path fill="none" stroke="black" paint-order="fill stroke markers" d=" M 31 208 L 35 208" stroke-linejoin="bevel" stroke-miterlimit="10"/><path fill="none" stroke="black" paint-order="fill stroke markers" d=" M 31 200 L 35 200" stroke-linejoin="bevel" stroke-miterlimit="10"/><path fill="none" stroke="black" paint-order="fill stroke markers" d=" M 31 192 L 35 192" stroke-linejoin="bevel" stroke-miterlimit="10"/><path fill="none" stroke="black" paint-order="fill stroke markers" d=" M 31 185 L 35 185" stroke-linejoin="bevel" stroke-miterlimit="10"/><path fill="none" stroke="black" paint-order="fill stroke markers" d=" M 31 177 L 35 177" stroke-linejoin="bevel" stroke-miterlimit="10"/><path fill="none" stroke="black" paint-order="fill stroke markers" d=" M 31 169 L 35 169" stroke-linejoin="bevel" stroke-miterlimit="10"/><path fill="none" stroke="black" paint-order="fill stroke markers" d=" M 31 161 L 35 161" stroke-linejoin="bevel" stroke-miterlimit="10"/><path fill="none" stroke="black" paint-order="fill stroke markers" d=" M 31 153 L 35 153" stroke-linejoin="bevel" stroke-miterlimit="10"/><path fill="none" stroke="black" paint-order="fill stroke markers" d=" M 31 145 L 35 145" stroke-linejoin="bevel" stroke-miterlimit="10"/><path fill="none" stroke="black" paint-order="fill stroke markers" d=" M 31 137 L 35 137" stroke-linejoin="bevel" stroke-miterlimit="10"/><path fill="none" stroke="black" paint-order="fill stroke markers" d=" M 31 130 L 35 130" stroke-linejoin="bevel" stroke-miterlimit="10"/><path fill="none" stroke="black" paint-order="fill stroke markers" d=" M 31 122 L 35 122" stroke-linejoin="bevel" stroke-miterlimit="10"/><path fill="none" stroke="black" paint-order="fill stroke markers" d=" M 31 114 L 35 114" stroke-linejoin="bevel" stroke-miterlimit="10"/><path fill="none" stroke="black" paint-order="fill stroke markers" d=" M 31 106 L 35 106" stroke-linejoin="bevel" stroke-miterlimit="10"/><path fill="none" stroke="black" paint-order="fill stroke markers" d=" M 31 98 L 35 98" stroke-linejoin="bevel" stroke-miterlimit="10"/><path fill="none" stroke="black" paint-order="fill stroke markers" d=" M 31 90 L 35 90" stroke-linejoin="bevel" stroke-miterlimit="10"/><path fill="none" stroke="black" paint-order="fill stroke markers" d=" M 31 82 L 35 82" stroke-linejoin="bevel" stroke-miterlimit="10"/><path fill="none" stroke="black" paint-order="fill stroke markers" d=" M 31 75 L 35 75" stroke-linejoin="bevel" stroke-miterlimit="10"/><path fill="none" stroke="black" paint-order="fill stroke markers" d=" M 31 67 L 35 67" stroke-linejoin="bevel" stroke-miterlimit="10"/><path fill="none" stroke="black" paint-order="fill stroke markers" d=" M 31 59 L 35 59" stroke-linejoin="bevel" stroke-miterlimit="10"/><path fill="none" stroke="black" paint-order="fill stroke markers" d=" M 31 51 L 35 51" stroke-linejoin="bevel" stroke-miterlimit="10"/><path fill="none" stroke="black" paint-order="fill stroke markers" d=" M 31 43 L 35 43" stroke-linejoin="bevel" stroke-miterlimit="10"/><path fill="" stroke="black" paint-order="fill stroke markers" d=" M 31 35 L 35 35" stroke-linejoin="bevel" stroke-miterlimit="10"/><g transform="translate(24,318) rotate(0,0,0)"><text fill="" stroke="none" font-family="helvetica" font-size="8pt" font-style="normal" font-weight="normal" text-decoration="normal" x="0" y="0" text-anchor="end" dominant-baseline="central">0%</text><g transform="rotate(0,0,0) translate(-24,-318) translate(24,279) rotate(0,0,0)"><text fill="" stroke="none" font-family="helvetica" font-size="8pt" font-style="normal" font-weight="normal" text-decoration="normal" x="0" y="0" text-anchor="end" dominant-baseline="central">2%</text><g transform="rotate(0,0,0) translate(-24,-279) translate(24,240) rotate(0,0,0)"><text fill="" stroke="none" font-family="helvetica" font-size="8pt" font-style="normal" font-weight="normal" text-decoration="normal" x="0" y="0" text-anchor="end" dominant-baseline="central">4%</text><g transform="rotate(0,0,0) translate(-24,-240) translate(24,200) rotate(0,0,0)"><text fill="" stroke="none" font-family="helvetica" font-size="8pt" font-style="normal" font-weight="normal" text-decoration="normal" x="0" y="0" text-anchor="end" dominant-baseline="central">6%</text><g transform="rotate(0,0,0) translate(-24,-200) translate(24,161) rotate(0,0,0)"><text fill="" stroke="none" font-family="helvetica" font-size="8pt" font-style="normal" font-weight="normal" text-decoration="normal" x="0" y="0" text-anchor="end" dominant-baseline="central">8%</text><g transform="rotate(0,0,0) translate(-24,-161) translate(24,122) rotate(0,0,0)"><text fill="" stroke="none" font-family="helvetica" font-size="8pt" font-style="normal" font-weight="normal" text-decoration="normal" x="0" y="0" text-anchor="end" dominant-baseline="central">10%</text><g transform="rotate(0,0,0) translate(-24,-122) translate(24,82) rotate(0,0,0)"><text fill="" stroke="none" font-family="helvetica" font-size="8pt" font-style="normal" font-weight="normal" text-decoration="normal" x="0" y="0" text-anchor="end" dominant-baseline="central">12%</text><g transform="rotate(0,0,0) translate(-24,-82) translate(24,43) rotate(0,0,0)"><text fill="" stroke="none" font-family="helvetica" font-size="8pt" font-style="normal" font-weight="normal" text-decoration="normal" x="0" y="0" text-anchor="end" dominant-baseline="central">14%</text><g transform="rotate(0,0,0) translate(-24,-43)"/></g></g></g></g></g></g></g></g></g></g></g></g></svg>