<svg version="1.1" xmlns="http://www.w3.org/2000/svg" xmlns:xlink="http://www.w3.org/1999/xlink" width="500" height="400" style="width: 500px; height: 400px;"><defs><clipPath id="eVpfsRVayuzr"><path fill="none" stroke="none" d=" M 28 28 L 470 28 L 470 376 L 28 376 L 28 28 Z"/></clipPath><clipPath id="gwEJNLsQevEl"><path fill="none" stroke="none" d=" M 28 28 L 470 28 L 470 376 L 28 376 L 28 28 Z"/></clipPath></defs><g><g transform="scale(1,1) translate(0.5,0.5)"><rect fill="#FFFFFF" stroke="none" x="0" y="0" width="500" height="400"/><rect fill="#ffffff" stroke="none" x="0" y="0" width="500" height="400"/><rect fill="#FFFFFF" stroke="none" x="28" y="28" width="442" height="348"/><rect fill="#ffffff" stroke="none" x="28" y="28" width="442" height="348"/><g><rect fill="none" stroke="#e5e5e5" x="28" y="28" width="442" height="348" stroke-linejoin="bevel" stroke-miterlimit="10"/></g><g clip-path="url(#eVpfsRVayuzr)"><g><g><path fill="none" stroke="none"/><path fill="none" stroke="#00BFA5" paint-order="fill stroke markers" d=" M 48.09090909090911 353.75380875769997 L 52.14967860422408 348.96513673846266 L 56.20844811753904 343.35675727581133 L 60.26721763085401 336.88284810059554 L 64.32598714416898 329.50971206493335 L 68.38475665748395 321.21769707473453 L 72.44352617079892 312.00334405572664 L 76.50229568411389 301.88164414296136 L 80.56106519742886 290.8880846607217 L 84.61983471074382 279.0800283048248 L 88.67860422405879 266.5369739213484 L 92.73737373737376 253.35942403196236 L 96.79614325068871 239.66640451486393 L 100.8549127640037 225.5920491809226 L 104.91368227731866 211.28193623704635 L 108.97245179063363 196.88991002223716 L 113.0312213039486 182.57587020652943 L 117.08999081726357 168.50450261375204 L 121.14876033057853 154.84431867751087 L 125.2075298438935 141.76589482838716 L 129.26629935720848 129.43807824384223 L 133.32506887052344 118.021267720147 L 137.3838383838384 107.65764204104113 L 141.44260789715338 98.45918820591646 L 145.50137741046834 90.49528284434876 L 149.5601469237833 83.78212247723462 L 153.61891643709828 78.27631649583964 L 157.67768595041326 73.87444811386757 L 161.73645546372822 70.41951499777787 L 165.79522497704318 67.71409934476719 L 169.85399449035816 65.53909468793154 L 173.91276400367312 63.67597658181177 L 177.97153351698807 61.93001702486896 L 182.03030303030306 60.151539240541865 L 186.08907254361804 58.25232509721366 L 190.14784205693303 56.21467754715792 L 194.20661157024796 54.09145456865423 L 198.26538108356294 51.99661335990277 L 202.32415059687787 50.087296348267046 L 206.38292011019286 48.53998253781515 L 210.44168962350784 47.524368605817926 L 214.50045913682283 47.17911532696331 L 218.55922865013775 47.593231126155274 L 222.61799816345274 48.79573114396618 L 226.67676767676772 50.75459511672932 L 230.73553719008265 53.38436587135038 L 234.79430670339764 56.56038028287833 L 238.85307621671262 60.13685493393791 L 242.91184573002755 63.96589559238413 L 246.97061524334254 67.9148148185476 L 251.02938475665752 71.87969393604516 L 255.0881542699725 75.7937210584235 L 259.14692378328743 79.62940482099492 L 263.2056932966024 83.39436176897584 L 267.2644628099174 87.12111896045371 L 271.32323232323233 90.85232063221292 L 275.3820018365473 94.62378353198773 L 279.4407713498623 98.4487356160767 L 283.49954086317723 102.30691672442896 L 287.5583103764922 106.14168361125797 L 291.6170798898072 109.86673304668898 L 295.6758494031222 113.38176399051667 L 299.7346189164371 116.5939090297563 L 303.7933884297521 119.43983290591854 L 307.8521579430671 121.90271674282738 L 311.910927456382 124.01928572018085 L 315.96969696969705 125.87445659783668 L 320.028466483012 127.58443649563827 L 324.08723599632697 129.27223751824206 L 328.1460055096419 131.0416274031074 L 332.20477502295694 132.95588907293384 L 336.26354453627187 135.02633084554165 L 340.3223140495868 137.21275642613264 L 344.3810835629018 139.43493617040156 L 348.43985307621676 141.59146553665883 L 352.49862258953175 143.58096975053343 L 356.5573921028467 145.3206941339141 L 360.61616161616166 146.75890644724743 L 364.67493112947665 147.87967041810543 L 368.7337006427916 148.70072807979952 L 372.79247015610656 149.2668453253345 L 376.85123966942155 149.64168316361616 L 380.91000918273653 149.90102761714175 L 384.96877869605146 150.12928090108986 L 389.02754820936644 150.4198614365717 L 393.08631772268143 150.8789495094428 L 397.14508723599636 151.6311005729835 L 401.20385674931134 152.82472305014292 L 405.2626262626263 154.63525247123977 L 409.3213957759413 157.26397782077044 L 413.38016528925624 160.93085706934968 L 417.4389348025712 165.86033577355752 L 421.4977043158862 172.26022437042377 L 425.55647382920114 180.295099622936 L 429.6152433425161 190.057312019348 L 433.6740128558311 201.54014076546915 L 437.73278236914604 214.61844619051996 L 441.791551882461 229.04186763411045 L 445.850321395776 244.44398875500292 L 449.90909090909093 260.36812268047294" stroke-linejoin="bevel" stroke-miterlimit="10" stroke-width="2"/></g><g><path fill="none" stroke="none"/><path fill="none" stroke="#8c9eff" paint-order="fill stroke markers" d=" M 48.09090909090911 360.1818181818182 L 52.14967860422408 355.4739260520431 L 56.20844811753904 349.5004475837938 L 60.26721763085401 342.1312440071623 L 64.32598714416898 333.272185788251 L 68.38475665748395 322.8696365787471 L 72.44352617079892 310.91266058903665 L 76.50229568411389 297.4356460193648 L 80.56106519742886 282.52386027560664 L 84.61983471074382 266.3225070035841 L 88.67860422405879 249.04672484553925 L 92.73737373737376 230.98709912805722 L 96.79614325068871 212.50435591206553 L 100.8549127640037 194.0090213373766 L 104.91368227731866 175.92660506253145 L 108.97245179063363 158.6544740132699 L 113.0312213039486 142.52048084849602 L 117.08999081726357 127.75363860130909 L 121.14876033057853 114.47341107701106 L 125.2075298438935 102.6981620429545 L 129.26629935720848 92.3676987234814 L 133.32506887052344 83.37198700626408 L 137.3838383838384 75.57871751602141 L 141.44260789715338 68.85532453190467 L 145.50137741046834 63.08420388407478 L 149.5601469237833 58.171577808443715 L 153.61891643709828 54.05045935186877 L 157.67768595041326 50.677559983413744 L 161.73645546372822 48.02418724608509 L 165.79522497704318 46.06278851441482 L 169.85399449035816 44.75306138235226 L 173.91276400367312 44.03286393374924 L 177.97153351698807 43.81818181818193 L 182.03030303030306 44.013059228639634 L 186.08907254361804 44.526039970171325 L 190.14784205693303 45.28640155044627 L 194.20661157024796 46.25301133215743 L 198.26538108356294 47.41139267973426 L 202.32415059687787 48.75945418916098 L 206.38292011019286 50.287240375090335 L 210.44168962350784 51.95893881910183 L 214.50045913682283 53.70503198425672 L 218.55922865013775 55.42902247433847 L 222.61799816345274 57.02788548644929 L 226.67676767676772 58.420253482857845 L 230.73553719008265 59.57318423398823 L 234.79430670339764 60.51835053643265 L 238.85307621671262 61.35165174964453 L 242.91184573002755 62.21549066134435 L 246.97061524334254 63.268449249608295 L 251.02938475665752 64.65093395887675 L 255.0881542699725 66.45630088380983 L 259.14692378328743 68.71487860314028 L 263.2056932966024 71.39412906761368 L 267.2644628099174 74.41347462257266 L 271.32323232323233 77.66855593103975 L 275.3820018365473 81.05778311522943 L 279.4407713498623 84.50420029456376 L 283.49954086317723 87.96756275584215 L 287.5583103764922 91.44451109830362 L 291.6170798898072 94.95808471953387 L 295.6758494031222 98.54074062141723 L 299.7346189164371 102.21672434077993 L 303.7933884297521 105.98949250684916 L 307.8521579430671 109.83786622215416 L 311.910927456382 113.72137938023332 L 315.96969696969705 117.59210545689874 L 320.028466483012 121.40834804625362 L 324.08723599632697 125.14560537356914 L 328.1460055096419 128.8018713160609 L 332.20477502295694 132.39658820835774 L 336.26354453627187 135.96430262907825 L 340.3223140495868 139.54475552143344 L 344.3810835629018 143.1710483023602 L 348.43985307621676 146.8574285654136 L 352.49862258953175 150.58867515990914 L 356.5573921028467 154.31383688907664 L 360.61616161616166 157.94733176285104 L 364.67493112947665 161.37928029203835 L 368.7337006427916 164.4943390174154 L 372.79247015610656 167.19520924441684 L 376.85123966942155 169.42501759679735 L 380.91000918273653 171.18312026815192 L 384.96877869605146 172.53157357887088 L 389.02754820936644 173.59320982855837 L 393.08631772268143 174.5450232394173 L 397.14508723599636 175.61097458243455 L 401.20385674931134 177.0562400843472 L 405.2626262626263 179.1815676683073 L 409.3213957759413 182.31359722047685 L 413.38016528925624 186.78626106535447 L 417.4389348025712 192.91023198516385 L 421.4977043158862 200.9312756011426 L 425.55647382920114 210.98301249781113 L 429.6152433425161 223.0434900037716 L 433.6740128558311 236.90675734551112 L 437.73278236914604 252.17943691323887 L 441.791551882461 268.30790620427047 L 445.850321395776 284.63490823205086 L 449.90909090909093 300.47691896450704" stroke-linejoin="bevel" stroke-miterlimit="10" stroke-width="2"/></g></g></g><g><g clip-path="url(#gwEJNLsQevEl)"><g><g/><g><path fill="#ffffff" stroke="#e5e5e5" paint-order="fill stroke markers" d=" M 361.59375 38 L 460 38 L 460 101 L 361.59375 101 L 361.59375 38 Z" fill-opacity="0.95" stroke-linejoin="bevel" stroke-miterlimit="10" stroke-opacity="0.5"/><text fill="#444444" stroke="none" font-family="helvetica" font-size="10pt" font-style="normal" font-weight="normal" text-decoration="normal" x="396.59375" y="58" text-anchor="start" dominant-baseline="central">Over 40</text><g><path fill="none" stroke="#00BFA5" paint-order="fill stroke markers" d=" M 371.59375 58 L 391.59375 58" stroke-linejoin="bevel" stroke-miterlimit="10" stroke-width="2"/></g><text fill="#444444" stroke="none" font-family="helvetica" font-size="10pt" font-style="normal" font-weight="normal" text-decoration="normal" x="396.59375" y="81" text-anchor="start" dominant-baseline="central">Under 40</text><g><path fill="none" stroke="#8c9eff" paint-order="fill stroke markers" d=" M 371.59375 81 L 391.59375 81" stroke-linejoin="bevel" stroke-miterlimit="10" stroke-width="2"/></g></g></g></g><g fill="#444444"><path fill="" stroke="none" d=""/><g transform="translate(28,23)"><path fill="none" stroke="none"/><text fill="" stroke="none" font-family="Helvetica Neue" font-size="10pt" font-style="normal" font-weight="bold" text-decoration="normal" x="0" y="0" text-anchor="start" dominant-baseline="text-after-edge">Density estimation of predicted probabilities by Age Group</text></g></g></g><g><g fill="#444444"><path fill="none" stroke="black" paint-order="fill stroke markers" d=" M 28 376 L 470 376" stroke-linejoin="bevel" stroke-miterlimit="10"/><path fill="none" stroke="black" paint-order="fill stroke markers" d=" M 48 382 L 48 374" stroke-linejoin="bevel" stroke-miterlimit="10"/><path fill="none" stroke="black" paint-order="fill stroke markers" d=" M 128 382 L 128 374" stroke-linejoin="bevel" stroke-miterlimit="10"/><path fill="none" stroke="black" paint-order="fill stroke markers" d=" M 209 382 L 209 374" stroke-linejoin="bevel" stroke-miterlimit="10"/><path fill="none" stroke="black" paint-order="fill stroke markers" d=" M 289 382 L 289 374" stroke-linejoin="bevel" stroke-miterlimit="10"/><path fill="none" stroke="black" paint-order="fill stroke markers" d=" M 370 382 L 370 374" stroke-linejoin="bevel" stroke-miterlimit="10"/><path fill="none" stroke="black" paint-order="fill stroke markers" d=" M 450 382 L 450 374" stroke-linejoin="bevel" stroke-miterlimit="10"/><path fill="none" stroke="black" paint-order="fill stroke markers" d=" M 32 380 L 32 376" stroke-linejoin="bevel" stroke-miterlimit="10"/><path fill="none" stroke="black" paint-order="fill stroke markers" d=" M 48 380 L 48 376" stroke-linejoin="bevel" stroke-miterlimit="10"/><path fill="none" stroke="black" paint-order="fill stroke markers" d=" M 64 380 L 64 376" stroke-linejoin="bevel" stroke-miterlimit="10"/><path fill="none" stroke="black" paint-order="fill stroke markers" d=" M 80 380 L 80 376" stroke-linejoin="bevel" stroke-miterlimit="10"/><path fill="none" stroke="black" paint-order="fill stroke markers" d=" M 96 380 L 96 376" stroke-linejoin="bevel" stroke-miterlimit="10"/><path fill="none" stroke="black" paint-order="fill stroke markers" d=" M 112 380 L 112 376" stroke-linejoin="bevel" stroke-miterlimit="10"/><path fill="none" stroke="black" paint-order="fill stroke markers" d=" M 128 380 L 128 376" stroke-linejoin="bevel" stroke-miterlimit="10"/><path fill="none" stroke="black" paint-order="fill stroke markers" d=" M 145 380 L 145 376" stroke-linejoin="bevel" stroke-miterlimit="10"/><path fill="none" stroke="black" paint-order="fill stroke markers" d=" M 161 380 L 161 376" stroke-linejoin="bevel" stroke-miterlimit="10"/><path fill="none" stroke="black" paint-order="fill stroke markers" d=" M 177 380 L 177 376" stroke-linejoin="bevel" stroke-miterlimit="10"/><path fill="none" stroke="black" paint-order="fill stroke markers" d=" M 193 380 L 193 376" stroke-linejoin="bevel" stroke-miterlimit="10"/><path fill="none" stroke="black" paint-order="fill stroke markers" d=" M 209 380 L 209 376" stroke-linejoin="bevel" stroke-miterlimit="10"/><path fill="none" stroke="black" paint-order="fill stroke markers" d=" M 225 380 L 225 376" stroke-linejoin="bevel" stroke-miterlimit="10"/><path fill="none" stroke="black" paint-order="fill stroke markers" d=" M 241 380 L 241 376" stroke-linejoin="bevel" stroke-miterlimit="10"/><path fill="none" stroke="black" paint-order="fill stroke markers" d=" M 257 380 L 257 376" stroke-linejoin="bevel" stroke-miterlimit="10"/><path fill="none" stroke="black" paint-order="fill stroke markers" d=" M 273 380 L 273 376" stroke-linejoin="bevel" stroke-miterlimit="10"/><path fill="none" stroke="black" paint-order="fill stroke markers" d=" M 289 380 L 289 376" stroke-linejoin="bevel" stroke-miterlimit="10"/><path fill="none" stroke="black" paint-order="fill stroke markers" d=" M 305 380 L 305 376" stroke-linejoin="bevel" stroke-miterlimit="10"/><path fill="none" stroke="black" paint-order="fill stroke markers" d=" M 321 380 L 321 376" stroke-linejoin="bevel" stroke-miterlimit="10"/><path fill="none" stroke="black" paint-order="fill stroke markers" d=" M 337 380 L 337 376" stroke-linejoin="bevel" stroke-miterlimit="10"/><path fill="none" stroke="black" paint-order="fill stroke markers" d=" M 353 380 L 353 376" stroke-linejoin="bevel" stroke-miterlimit="10"/><path fill="none" stroke="black" paint-order="fill stroke markers" d=" M 370 380 L 370 376" stroke-linejoin="bevel" stroke-miterlimit="10"/><path fill="none" stroke="black" paint-order="fill stroke markers" d=" M 386 380 L 386 376" stroke-linejoin="bevel" stroke-miterlimit="10"/><path fill="none" stroke="black" paint-order="fill stroke markers" d=" M 402 380 L 402 376" stroke-linejoin="bevel" stroke-miterlimit="10"/><path fill="none" stroke="black" paint-order="fill stroke markers" d=" M 418 380 L 418 376" stroke-linejoin="bevel" stroke-miterlimit="10"/><path fill="none" stroke="black" paint-order="fill stroke markers" d=" M 434 380 L 434 376" stroke-linejoin="bevel" stroke-miterlimit="10"/><path fill="none" stroke="black" paint-order="fill stroke markers" d=" M 450 380 L 450 376" stroke-linejoin="bevel" stroke-miterlimit="10"/><path fill="" stroke="black" paint-order="fill stroke markers" d=" M 466 380 L 466 376" stroke-linejoin="bevel" stroke-miterlimit="10"/><g transform="translate(48,387) rotate(0,0,0)"><text fill="" stroke="none" font-family="helvetica" font-size="8pt" font-style="normal" font-weight="normal" text-decoration="normal" x="0" y="0" text-anchor="middle" dominant-baseline="hanging">0</text><g transform="rotate(0,0,0) translate(-48,-387) translate(128,387) rotate(0,0,0)"><text fill="" stroke="none" font-family="helvetica" font-size="8pt" font-style="normal" font-weight="normal" text-decoration="normal" x="0" y="0" text-anchor="middle" dominant-baseline="hanging">0.2</text><g transform="rotate(0,0,0) translate(-128,-387) translate(209,387) rotate(0,0,0)"><text fill="" stroke="none" font-family="helvetica" font-size="8pt" font-style="normal" font-weight="normal" text-decoration="normal" x="0" y="0" text-anchor="middle" dominant-baseline="hanging">0.4</text><g transform="rotate(0,0,0) translate(-209,-387) translate(289,387) rotate(0,0,0)"><text fill="" stroke="none" font-family="helvetica" font-size="8pt" font-style="normal" font-weight="normal" text-decoration="normal" x="0" y="0" text-anchor="middle" dominant-baseline="hanging">0.6</text><g transform="rotate(0,0,0) translate(-289,-387) translate(370,387) rotate(0,0,0)"><text fill="" stroke="none" font-family="helvetica" font-size="8pt" font-style="normal" font-weight="normal" text-decoration="normal" x="0" y="0" text-anchor="middle" dominant-baseline="hanging">0.8</text><g transform="rotate(0,0,0) translate(-370,-387) translate(450,387) rotate(0,0,0)"><text fill="" stroke="none" font-family="helvetica" font-size="8pt" font-style="normal" font-weight="normal" text-decoration="normal" x="0" y="0" text-anchor="middle" dominant-baseline="hanging">1</text><g transform="rotate(0,0,0) translate(-450,-387)"/></g></g></g></g></g></g></g><g fill="#444444"><path fill="none" stroke="black" paint-order="fill stroke markers" d=" M 28 376 L 28 28" stroke-linejoin="bevel" stroke-miterlimit="10"/><path fill="none" stroke="black" paint-order="fill stroke markers" d=" M 22 372 L 30 372" stroke-linejoin="bevel" stroke-miterlimit="10"/><path fill="none" stroke="black" paint-order="fill stroke markers" d=" M 22 325 L 30 325" stroke-linejoin="bevel" stroke-miterlimit="10"/><path fill="none" stroke="black" paint-order="fill stroke markers" d=" M 22 278 L 30 278" stroke-linejoin="bevel" stroke-miterlimit="10"/><path fill="none" stroke="black" paint-order="fill stroke markers" d=" M 22 231 L 30 231" stroke-linejoin="bevel" stroke-miterlimit="10"/><path fill="none" stroke="black" paint-order="fill stroke markers" d=" M 22 183 L 30 183" stroke-linejoin="bevel" stroke-miterlimit="10"/><path fill="none" stroke="black" paint-order="fill stroke markers" d=" M 22 136 L 30 136" stroke-linejoin="bevel" stroke-miterlimit="10"/><path fill="none" stroke="black" paint-order="fill stroke markers" d=" M 22 89 L 30 89" stroke-linejoin="bevel" stroke-miterlimit="10"/><path fill="none" stroke="black" paint-order="fill stroke markers" d=" M 22 42 L 30 42" stroke-linejoin="bevel" stroke-miterlimit="10"/><path fill="none" stroke="black" paint-order="fill stroke markers" d=" M 24 372 L 28 372" stroke-linejoin="bevel" stroke-miterlimit="10"/><path fill="none" stroke="black" paint-order="fill stroke markers" d=" M 24 363 L 28 363" stroke-linejoin="bevel" stroke-miterlimit="10"/><path fill="none" stroke="black" paint-order="fill stroke markers" d=" M 24 353 L 28 353" stroke-linejoin="bevel" stroke-miterlimit="10"/><path fill="none" stroke="black" paint-order="fill stroke markers" d=" M 24 344 L 28 344" stroke-linejoin="bevel" stroke-miterlimit="10"/><path fill="none" stroke="black" paint-order="fill stroke markers" d=" M 24 334 L 28 334" stroke-linejoin="bevel" stroke-miterlimit="10"/><path fill="none" stroke="black" paint-order="fill stroke markers" d=" M 24 325 L 28 325" stroke-linejoin="bevel" stroke-miterlimit="10"/><path fill="none" stroke="black" paint-order="fill stroke markers" d=" M 24 315 L 28 315" stroke-linejoin="bevel" stroke-miterlimit="10"/><path fill="none" stroke="black" paint-order="fill stroke markers" d=" M 24 306 L 28 306" stroke-linejoin="bevel" stroke-miterlimit="10"/><path fill="none" stroke="black" paint-order="fill stroke markers" d=" M 24 297 L 28 297" stroke-linejoin="bevel" stroke-miterlimit="10"/><path fill="none" stroke="black" paint-order="fill stroke markers" d=" M 24 287 L 28 287" stroke-linejoin="bevel" stroke-miterlimit="10"/><path fill="none" stroke="black" paint-order="fill stroke markers" d=" M 24 278 L 28 278" stroke-linejoin="bevel" stroke-miterlimit="10"/><path fill="none" stroke="black" paint-order="fill stroke markers" d=" M 24 268 L 28 268" stroke-linejoin="bevel" stroke-miterlimit="10"/><path fill="none" stroke="black" paint-order="fill stroke markers" d=" M 24 259 L 28 259" stroke-linejoin="bevel" stroke-miterlimit="10"/><path fill="none" stroke="black" paint-order="fill stroke markers" d=" M 24 249 L 28 249" stroke-linejoin="bevel" stroke-miterlimit="10"/><path fill="none" stroke="black" paint-order="fill stroke markers" d=" M 24 240 L 28 240" stroke-linejoin="bevel" stroke-miterlimit="10"/><path fill="none" stroke="black" paint-order="fill stroke markers" d=" M 24 231 L 28 231" stroke-linejoin="bevel" stroke-miterlimit="10"/><path fill="none" stroke="black" paint-order="fill stroke markers" d=" M 24 221 L 28 221" stroke-linejoin="bevel" stroke-miterlimit="10"/><path fill="none" stroke="black" paint-order="fill stroke markers" d=" M 24 212 L 28 212" stroke-linejoin="bevel" stroke-miterlimit="10"/><path fill="none" stroke="black" paint-order="fill stroke markers" d=" M 24 202 L 28 202" stroke-linejoin="bevel" stroke-miterlimit="10"/><path fill="none" stroke="black" paint-order="fill stroke markers" d=" M 24 193 L 28 193" stroke-linejoin="bevel" stroke-miterlimit="10"/><path fill="none" stroke="black" paint-order="fill stroke markers" d=" M 24 183 L 28 183" stroke-linejoin="bevel" stroke-miterlimit="10"/><path fill="none" stroke="black" paint-order="fill stroke markers" d=" M 24 174 L 28 174" stroke-linejoin="bevel" stroke-miterlimit="10"/><path fill="none" stroke="black" paint-order="fill stroke markers" d=" M 24 165 L 28 165" stroke-linejoin="bevel" stroke-miterlimit="10"/><path fill="none" stroke="black" paint-order="fill stroke markers" d=" M 24 155 L 28 155" stroke-linejoin="bevel" stroke-miterlimit="10"/><path fill="none" stroke="black" paint-order="fill stroke markers" d=" M 24 146 L 28 146" stroke-linejoin="bevel" stroke-miterlimit="10"/><path fill="none" stroke="black" paint-order="fill stroke markers" d=" M 24 136 L 28 136" stroke-linejoin="bevel" stroke-miterlimit="10"/><path fill="none" stroke="black" paint-order="fill stroke markers" d=" M 24 127 L 28 127" stroke-linejoin="bevel" stroke-miterlimit="10"/><path fill="none" stroke="black" paint-order="fill stroke markers" d=" M 24 117 L 28 117" stroke-linejoin="bevel" stroke-miterlimit="10"/><path fill="none" stroke="black" paint-order="fill stroke markers" d=" M 24 108 L 28 108" stroke-linejoin="bevel" stroke-miterlimit="10"/><path fill="none" stroke="black" paint-order="fill stroke markers" d=" M 24 99 L 28 99" stroke-linejoin="bevel" stroke-miterlimit="10"/><path fill="none" stroke="black" paint-order="fill stroke markers" d=" M 24 89 L 28 89" stroke-linejoin="bevel" stroke-miterlimit="10"/><path fill="none" stroke="black" paint-order="fill stroke markers" d=" M 24 80 L 28 80" stroke-linejoin="bevel" stroke-miterlimit="10"/><path fill="none" stroke="black" paint-order="fill stroke markers" d=" M 24 70 L 28 70" stroke-linejoin="bevel" stroke-miterlimit="10"/><path fill="none" stroke="black" paint-order="fill stroke markers" d=" M 24 61 L 28 61" stroke-linejoin="bevel" stroke-miterlimit="10"/><path fill="none" stroke="black" paint-order="fill stroke markers" d=" M 24 51 L 28 51" stroke-linejoin="bevel" stroke-miterlimit="10"/><path fill="none" stroke="black" paint-order="fill stroke markers" d=" M 24 42 L 28 42" stroke-linejoin="bevel" stroke-miterlimit="10"/><path fill="" stroke="black" paint-order="fill stroke markers" d=" M 24 33 L 28 33" stroke-linejoin="bevel" stroke-miterlimit="10"/><g transform="translate(17,372) rotate(0,0,0)"><text fill="" stroke="none" font-family="helvetica" font-size="8pt" font-style="normal" font-weight="normal" text-decoration="normal" x="0" y="0" text-anchor="end" dominant-baseline="central">0</text><g transform="rotate(0,0,0) translate(-17,-372) translate(17,325) rotate(0,0,0)"><text fill="" stroke="none" font-family="helvetica" font-size="8pt" font-style="normal" font-weight="normal" text-decoration="normal" x="0" y="0" text-anchor="end" dominant-baseline="central">0.2</text><g transform="rotate(0,0,0) translate(-17,-325) translate(17,278) rotate(0,0,0)"><text fill="" stroke="none" font-family="helvetica" font-size="8pt" font-style="normal" font-weight="normal" text-decoration="normal" x="0" y="0" text-anchor="end" dominant-baseline="central">0.4</text><g transform="rotate(0,0,0) translate(-17,-278) translate(17,231) rotate(0,0,0)"><text fill="" stroke="none" font-family="helvetica" font-size="8pt" font-style="normal" font-weight="normal" text-decoration="normal" x="0" y="0" text-anchor="end" dominant-baseline="central">0.6</text><g transform="rotate(0,0,0) translate(-17,-231) translate(17,183) rotate(0,0,0)"><text fill="" stroke="none" font-family="helvetica" font-size="8pt" font-style="normal" font-weight="normal" text-decoration="normal" x="0" y="0" text-anchor="end" dominant-baseline="central">0.8</text><g transform="rotate(0,0,0) translate(-17,-183) translate(17,136) rotate(0,0,0)"><text fill="" stroke="none" font-family="helvetica" font-size="8pt" font-style="normal" font-weight="normal" text-decoration="normal" x="0" y="0" text-anchor="end" dominant-baseline="central">1</text><g transform="rotate(0,0,0) translate(-17,-136) translate(17,89) rotate(0,0,0)"><text fill="" stroke="none" font-family="helvetica" font-size="8pt" font-style="normal" font-weight="normal" text-decoration="normal" x="0" y="0" text-anchor="end" dominant-baseline="central">1.2</text><g transform="rotate(0,0,0) translate(-17,-89) translate(17,42) rotate(0,0,0)"><text fill="" stroke="none" font-family="helvetica" font-size="8pt" font-style="normal" font-weight="normal" text-decoration="normal" x="0" y="0" text-anchor="end" dominant-baseline="central">1.4</text><g transform="rotate(0,0,0) translate(-17,-42)"/></g></g></g></g></g></g></g></g></g></g></g></g></svg>