<svg version="1.1" xmlns="http://www.w3.org/2000/svg" xmlns:xlink="http://www.w3.org/1999/xlink" width="500" height="500" style="width: 500px; height: 500px;"><defs><clipPath id="orfxDzXkTxWf"><path fill="none" stroke="none" d=" M 49 28 L 470 28 L 470 455 L 49 455 L 49 28 Z"/></clipPath><clipPath id="lCNFOOQAppDQ"><path fill="none" stroke="none" d=" M 49 28 L 470 28 L 470 455 L 49 455 L 49 28 Z"/></clipPath><clipPath id="PsvqHKfUaqZv"><path fill="none" stroke="none" d=" M 49 28 L 470 28 L 470 455 L 49 455 L 49 28 Z"/></clipPath></defs><g transform="scale(1,1) translate(0.5,0.5)"><rect fill="#ffffff" stroke="none" x="0" y="0" width="500" height="500"/><rect fill="#FFFFFF" stroke="none" x="49" y="28" width="421" height="427"/><rect fill="#ffffff" stroke="none" x="49" y="28" width="421" height="427"/><g><rect fill="none" stroke="#e5e5e5" x="49" y="28" width="421" height="427" stroke-linejoin="bevel" stroke-miterlimit="10"/></g><g clip-path="url(#orfxDzXkTxWf)"><g><g/><g/><g><path fill="none" stroke="none"/><path fill="none" stroke="#00BFA5" paint-order="fill stroke markers" d=" M 49 455 L 49 454.8473909935668 L 49 440.19692637598286 L 49.182409012131714 440.19692637598286 L 49.182409012131714 437.602573266619 L 49.36481802426343 437.602573266619 L 49.36481802426343 435.9238741958542 L 49.54722703639515 435.9238741958542 L 49.54722703639515 431.8034310221587 L 49.729636048526864 431.8034310221587 L 49.729636048526864 426.91994281629735 L 49.91204506065858 426.91994281629735 L 49.91204506065858 426.46211579699786 L 50.09445407279029 426.46211579699786 L 50.09445407279029 425.8516797712652 L 50.27686308492201 425.8516797712652 L 50.27686308492201 419.4421015010722 L 50.45927209705373 419.4421015010722 L 50.45927209705373 415.16904932094354 L 50.64168110918544 415.16904932094354 L 50.64168110918544 412.5746962115797 L 50.824090121317155 412.5746962115797 L 50.824090121317155 412.2694781987134 L 51.00649913344888 412.2694781987134 L 51.00649913344888 410.7433881343817 L 51.18890814558059 410.7433881343817 L 51.18890814558059 408.75947105075056 L 51.371317157712305 408.75947105075056 L 51.371317157712305 403.4181558255897 L 51.55372616984402 403.4181558255897 L 51.55372616984402 402.0446747676912 L 51.73613518197574 402.0446747676912 L 51.73613518197574 400.6711937097927 L 51.918544194107454 400.6711937097927 L 51.918544194107454 400.5185847033595 L 52.10095320623917 400.5185847033595 L 52.10095320623917 400.3659756969264 L 52.28336221837088 400.3659756969264 L 52.28336221837088 399.90814867762685 L 52.4657712305026 399.90814867762685 L 52.4657712305026 398.22944960686203 L 52.64818024263432 398.22944960686203 L 52.64818024263432 396.0929235167977 L 52.83058925476603 396.0929235167977 L 52.83058925476603 394.4142244460329 L 53.012998266897746 394.4142244460329 L 53.012998266897746 393.4985704074339 L 53.19540727902946 393.4985704074339 L 53.19540727902946 391.5146533238027 L 53.37781629116118 391.5146533238027 L 53.37781629116118 391.0568263045032 L 53.560225303292896 391.0568263045032 L 53.560225303292896 390.9042172980701 L 53.74263431542461 390.9042172980701 L 53.74263431542461 389.072909220872 L 53.925043327556324 389.072909220872 L 53.925043327556324 386.4785561115082 L 54.10745233968804 386.4785561115082 L 54.10745233968804 384.7998570407434 L 54.28986135181976 384.7998570407434 L 54.28986135181976 383.8842030021444 L 54.47227036395147 383.8842030021444 L 54.47227036395147 383.57898498927807 L 54.8370883882149 383.57898498927807 L 54.8370883882149 381.90028591851325 L 55.01949740034662 381.90028591851325 L 55.01949740034662 380.9846318799142 L 55.20190641247834 380.9846318799142 L 55.20190641247834 380.83202287348104 L 55.38431542461005 380.83202287348104 L 55.38431542461005 378.08506075768406 L 55.566724436741765 378.08506075768406 L 55.566724436741765 377.3220157255182 L 55.749133448873486 377.3220157255182 L 55.749133448873486 376.40636168691924 L 56.113951473136915 376.40636168691924 L 56.113951473136915 375.3380986418871 L 56.29636048526863 375.3380986418871 L 56.29636048526863 374.11722659042175 L 56.47876949740035 374.11722659042175 L 56.47876949740035 373.6593995711222 L 56.661178509532064 373.6593995711222 L 56.661178509532064 373.0489635453896 L 56.84358752166378 373.0489635453896 L 56.84358752166378 371.9807005003574 L 57.02599653379549 371.9807005003574 L 57.02599653379549 371.5228734810579 L 57.20840554592721 371.5228734810579 L 57.20840554592721 370.6072194424589 L 57.39081455805892 370.6072194424589 L 57.39081455805892 369.8441744102931 L 57.57322357019064 369.8441744102931 L 57.57322357019064 368.92852037169405 L 57.755632582322356 368.92852037169405 L 57.755632582322356 368.31808434596144 L 57.93804159445408 368.31808434596144 L 57.93804159445408 365.87634024303077 L 58.302859618717505 365.87634024303077 L 58.302859618717505 364.65546819156543 L 58.48526863084922 364.65546819156543 L 58.48526863084922 364.1976411722659 L 58.667677642980934 364.1976411722659 L 58.667677642980934 363.7398141529664 L 59.21490467937608 363.7398141529664 L 59.21490467937608 363.2819871336669 L 59.3973136915078 363.2819871336669 L 59.3973136915078 362.67155110793425 L 59.57972270363952 362.67155110793425 L 59.57972270363952 361.60328806290204 L 59.76213171577123 361.60328806290204 L 59.76213171577123 360.9928520371694 L 59.94454072790295 360.9928520371694 L 59.94454072790295 360.68763402430307 L 60.12694974003466 360.68763402430307 L 60.12694974003466 357.4828448892066 L 60.309358752166375 357.4828448892066 L 60.309358752166375 357.17762687634024 L 60.49176776429809 357.17762687634024 L 60.49176776429809 355.4989278055754 L 60.67417677642981 355.4989278055754 L 60.67417677642981 353.6676197283774 L 60.856585788561524 353.6676197283774 L 60.856585788561524 351.9889206576126 L 61.038994800693246 351.9889206576126 L 61.038994800693246 351.5310936383131 L 61.22140381282496 351.5310936383131 L 61.22140381282496 351.3784846318799 L 61.403812824956674 351.3784846318799 L 61.403812824956674 351.07326661901357 L 61.58622183708839 351.07326661901357 L 61.58622183708839 350.0050035739814 L 61.7686308492201 350.0050035739814 L 61.7686308492201 349.24195854181556 L 61.951039861351816 349.24195854181556 L 61.951039861351816 348.0210864903503 L 62.13344887348354 348.0210864903503 L 62.13344887348354 345.73195139385274 L 62.31585788561525 345.73195139385274 L 62.31585788561525 344.9689063616869 L 62.498266897746966 344.9689063616869 L 62.498266897746966 342.5271622587563 L 62.68067590987869 342.5271622587563 L 62.68067590987869 341.61150822015725 L 62.8630849220104 341.61150822015725 L 62.8630849220104 341.15368120085776 L 63.045493934142115 341.15368120085776 L 63.045493934142115 340.3906361686919 L 63.22790294627383 340.3906361686919 L 63.22790294627383 338.1015010721944 L 63.41031195840554 338.1015010721944 L 63.41031195840554 337.33845604002863 L 63.59272097053726 337.33845604002863 L 63.59272097053726 336.7280200142959 L 63.95753899480069 336.7280200142959 L 63.95753899480069 334.1336669049321 L 64.32235701906413 334.1336669049321 L 64.32235701906413 332.9127948534668 L 64.86958405545927 332.9127948534668 L 64.86958405545927 332.6075768406004 L 65.05199306759098 332.6075768406004 L 65.05199306759098 331.99714081486775 L 65.2344020797227 331.99714081486775 L 65.2344020797227 331.69192280200144 L 65.41681109185441 331.69192280200144 L 65.41681109185441 331.3867047891351 L 65.59922010398614 331.3867047891351 L 65.59922010398614 330.9288777698356 L 66.14644714038128 330.9288777698356 L 66.14644714038128 330.16583273766975 L 66.69367417677643 330.16583273766975 L 66.69367417677643 329.5553967119371 L 66.87608318890815 329.5553967119371 L 66.87608318890815 329.4027877055039 L 67.05849220103985 329.4027877055039 L 67.05849220103985 327.57147962830595 L 67.4233102253033 327.57147962830595 L 67.4233102253033 327.1136526090064 L 67.60571923743501 327.1136526090064 L 67.60571923743501 326.5032165832738 L 68.33535528596187 326.5032165832738 L 68.33535528596187 325.8927805575411 L 68.51776429809358 325.8927805575411 L 68.51776429809358 325.58756254467477 L 68.7001733102253 325.58756254467477 L 68.7001733102253 325.28234453180846 L 68.88258232235702 325.28234453180846 L 68.88258232235702 325.1297355253753 L 69.06499133448874 325.1297355253753 L 69.06499133448874 323.6036454610436 L 69.24740034662045 323.6036454610436 L 69.24740034662045 323.4510364546104 L 69.42980935875217 323.4510364546104 L 69.42980935875217 322.8406004288778 L 69.61221837088388 322.8406004288778 L 69.61221837088388 321.7723373838456 L 69.7946273830156 321.7723373838456 L 69.7946273830156 321.61972837741246 L 69.97703639514731 321.61972837741246 L 69.97703639514731 320.3988563259471 L 70.15944540727904 320.3988563259471 L 70.15944540727904 320.24624731951394 L 70.34185441941075 320.24624731951394 L 70.34185441941075 319.9410293066476 L 70.52426343154247 319.9410293066476 L 70.52426343154247 319.78842030021445 L 70.70667244367418 319.78842030021445 L 70.70667244367418 319.4832022873481 L 70.8890814558059 319.4832022873481 L 70.8890814558059 319.0253752680486 L 71.25389948006932 319.0253752680486 L 71.25389948006932 318.72015725518224 L 71.61871750433275 318.72015725518224 L 71.61871750433275 318.10972122944963 L 71.98353552859618 318.10972122944963 L 71.98353552859618 317.0414581844175 L 72.1659445407279 317.0414581844175 L 72.1659445407279 316.43102215868475 L 72.34835355285962 316.43102215868475 L 72.34835355285962 315.97319513938527 L 72.53076256499133 315.97319513938527 L 72.53076256499133 315.2101501072194 L 72.71317157712305 315.2101501072194 L 72.71317157712305 313.83666904932096 L 72.89558058925476 313.83666904932096 L 72.89558058925476 313.0736240171551 L 73.26039861351819 313.0736240171551 L 73.26039861351819 312.46318799142244 L 73.62521663778163 312.46318799142244 L 73.62521663778163 311.5475339528234 L 73.80762564991335 311.5475339528234 L 73.80762564991335 310.63187991422444 L 73.99003466204506 310.63187991422444 L 73.99003466204506 309.86883488205865 L 74.17244367417678 309.86883488205865 L 74.17244367417678 309.10578984989274 L 74.35485268630849 309.10578984989274 L 74.35485268630849 308.34274481772695 L 74.5372616984402 308.34274481772695 L 74.5372616984402 308.19013581129377 L 74.90207972270363 308.19013581129377 L 74.90207972270363 307.427090779128 L 75.08448873483536 307.427090779128 L 75.08448873483536 307.1218727662616 L 75.26689774696708 307.1218727662616 L 75.26689774696708 306.6640457469621 L 75.44930675909879 306.6640457469621 L 75.44930675909879 306.51143674052895 L 75.6317157712305 306.51143674052895 L 75.6317157712305 305.7483917083631 L 75.81412478336222 305.7483917083631 L 75.81412478336222 305.5957827019299 L 75.99653379549393 305.5957827019299 L 75.99653379549393 305.2905646890636 L 76.17894280762565 305.2905646890636 L 76.17894280762565 304.9853466761973 L 76.36135181975737 304.9853466761973 L 76.36135181975737 304.68012866333095 L 76.54376083188907 304.68012866333095 L 76.54376083188907 303.15403859899925 L 76.7261698440208 303.15403859899925 L 76.7261698440208 302.848820586133 L 76.90857885615252 302.848820586133 L 76.90857885615252 302.54360257326664 L 77.09098786828423 302.54360257326664 L 77.09098786828423 301.01751250893494 L 77.63821490467937 301.01751250893494 L 77.63821490467937 300.10185847033597 L 78.00303292894282 300.10185847033597 L 78.00303292894282 299.7966404574696 L 78.18544194107452 299.7966404574696 L 78.18544194107452 299.49142244460324 L 78.36785095320624 299.49142244460324 L 78.36785095320624 299.186204431737 L 78.55025996533796 299.186204431737 L 78.55025996533796 299.0335954253038 L 78.91507798960139 299.0335954253038 L 78.91507798960139 298.88098641887063 L 79.46230502599653 298.88098641887063 L 79.46230502599653 298.72837741243745 L 79.64471403812826 298.72837741243745 L 79.64471403812826 297.6601143674053 L 79.82712305025997 297.6601143674053 L 79.82712305025997 297.0496783416726 L 80.1919410745234 297.0496783416726 L 80.1919410745234 295.8288062902073 L 80.37435008665511 295.8288062902073 L 80.37435008665511 295.523588277341 L 80.73916811091854 295.523588277341 L 80.73916811091854 294.91315225160827 L 80.92157712305026 294.91315225160827 L 80.92157712305026 294.60793423874196 L 81.4688041594454 294.60793423874196 L 81.4688041594454 294.1501072194425 L 81.83362218370883 294.1501072194425 L 81.83362218370883 293.69228020014293 L 82.01603119584055 293.69228020014293 L 82.01603119584055 293.53967119370975 L 82.5632582322357 293.53967119370975 L 82.5632582322357 292.77662616154396 L 82.74566724436741 292.77662616154396 L 82.74566724436741 292.6240171551108 L 83.11048526863084 292.6240171551108 L 83.11048526863084 292.4714081486776 L 83.47530329289428 292.4714081486776 L 83.47530329289428 291.7083631165118 L 83.657712305026 291.7083631165118 L 83.657712305026 291.5557541100786 L 83.84012131715771 291.5557541100786 L 83.84012131715771 290.94531808434596 L 84.20493934142115 290.94531808434596 L 84.20493934142115 290.64010007147965 L 84.38734835355285 290.64010007147965 L 84.38734835355285 290.3348820586133 L 84.93457538994801 290.3348820586133 L 84.93457538994801 289.26661901358113 L 85.48180242634317 289.26661901358113 L 85.48180242634317 289.11401000714795 L 85.66421143847487 289.11401000714795 L 85.66421143847487 288.9614010007148 L 85.8466204506066 288.9614010007148 L 85.8466204506066 288.5035739814153 L 86.0290294627383 288.5035739814153 L 86.0290294627383 288.198355968549 L 86.21143847487002 288.198355968549 L 86.21143847487002 287.5879199428163 L 86.57625649913345 287.5879199428163 L 86.57625649913345 287.1300929235168 L 86.94107452339688 287.1300929235168 L 86.94107452339688 286.6722659042173 L 87.12348353552859 286.6722659042173 L 87.12348353552859 286.5196568977841 L 87.48830155979203 286.5196568977841 L 87.48830155979203 285.7566118656183 L 87.67071057192373 285.7566118656183 L 87.67071057192373 285.29878484631877 L 87.85311958405546 285.29878484631877 L 87.85311958405546 284.99356683345246 L 88.21793760831889 284.99356683345246 L 88.21793760831889 284.2305218012866 L 88.4003466204506 284.2305218012866 L 88.4003466204506 283.9253037884203 L 88.58275563258232 283.9253037884203 L 88.58275563258232 283.31486776268764 L 89.12998266897748 283.31486776268764 L 89.12998266897748 282.5518227305218 L 89.31239168110918 282.5518227305218 L 89.31239168110918 282.39921372408867 L 89.67720970537262 282.39921372408867 L 89.67720970537262 277.5157255182273 L 90.04202772963605 277.5157255182273 L 90.04202772963605 277.0578984989278 L 90.22443674176776 277.0578984989278 L 90.22443674176776 276.9052894924946 L 90.40684575389949 276.9052894924946 L 90.40684575389949 275.83702644746245 L 90.95407279029463 275.83702644746245 L 90.95407279029463 275.379199428163 L 91.31889081455806 275.379199428163 L 91.31889081455806 275.07398141529666 L 91.50129982668977 275.07398141529666 L 91.50129982668977 273.54789135096496 L 91.6837088388215 273.54789135096496 L 91.6837088388215 272.78484631879917 L 91.8661178509532 272.78484631879917 L 91.8661178509532 272.02180128663326 L 92.04852686308493 272.02180128663326 L 92.04852686308493 271.1061472480343 L 92.23093587521663 271.1061472480343 L 92.23093587521663 269.5800571837026 L 92.41334488734836 269.5800571837026 L 92.41334488734836 269.27483917083634 L 92.59575389948007 269.27483917083634 L 92.59575389948007 268.6644031451036 L 92.77816291161179 268.6644031451036 L 92.77816291161179 268.053967119371 L 92.9605719237435 268.053967119371 L 92.9605719237435 267.74874910650465 L 93.14298093587522 267.74874910650465 L 93.14298093587522 267.138313080772 L 93.32538994800693 267.138313080772 L 93.32538994800693 266.6804860614725 L 93.50779896013864 266.6804860614725 L 93.50779896013864 266.5278770550393 L 93.69020797227037 266.5278770550393 L 93.69020797227037 266.37526804860613 L 93.87261698440207 266.37526804860613 L 93.87261698440207 266.07005003573977 L 94.0550259965338 266.07005003573977 L 94.0550259965338 265.76483202287346 L 94.41984402079723 265.76483202287346 L 94.41984402079723 265.45961401000716 L 94.60225303292894 265.45961401000716 L 94.60225303292894 265.0017869907076 L 94.78466204506066 265.0017869907076 L 94.78466204506066 264.2387419585418 L 94.96707105719237 264.2387419585418 L 94.96707105719237 263.93352394567546 L 95.33188908145581 263.93352394567546 L 95.33188908145581 263.7809149392423 L 95.51429809358751 263.7809149392423 L 95.51429809358751 262.56004288777694 L 95.87911611785096 262.56004288777694 L 95.87911611785096 262.25482487491064 L 96.06152512998267 262.25482487491064 L 96.06152512998267 261.1865618298785 L 96.24393414211438 261.1865618298785 L 96.24393414211438 259.2026447462473 L 96.4263431542461 259.2026447462473 L 96.4263431542461 259.0500357398141 L 96.60875216637783 259.0500357398141 L 96.60875216637783 258.897426733381 L 96.97357019064125 258.897426733381 L 96.97357019064125 258.59220872051463 L 97.15597920277297 258.59220872051463 L 97.15597920277297 258.28699070764833 L 97.33838821490468 258.28699070764833 L 97.33838821490468 257.8291636883488 L 97.70320623916811 257.8291636883488 L 97.70320623916811 257.37133666904936 L 97.88561525129984 257.37133666904936 L 97.88561525129984 256.6082916368835 L 98.06802426343154 256.6082916368835 L 98.06802426343154 256.30307362401714 L 98.43284228769497 256.30307362401714 L 98.43284228769497 254.77698355968548 L 98.6152512998267 254.77698355968548 L 98.6152512998267 254.47176554681917 L 98.7976603119584 254.47176554681917 L 98.7976603119584 254.16654753395284 L 98.98006932409012 254.16654753395284 L 98.98006932409012 253.403502501787 L 99.16247833622184 253.403502501787 L 99.16247833622184 252.9456754824875 L 99.34488734835355 252.9456754824875 L 99.34488734835355 251.87741243745535 L 99.52729636048527 251.87741243745535 L 99.52729636048527 250.1987133666905 L 99.70970537261698 250.1987133666905 L 99.70970537261698 250.04610436025732 L 99.8921143847487 250.04610436025732 L 99.8921143847487 249.13045032165834 L 100.07452339688041 249.13045032165834 L 100.07452339688041 248.97784131522516 L 100.25693240901214 248.97784131522516 L 100.25693240901214 248.52001429592565 L 100.62175043327557 248.52001429592565 L 100.62175043327557 248.06218727662616 L 100.80415944540728 248.06218727662616 L 100.80415944540728 247.4517512508935 L 101.16897746967071 247.4517512508935 L 101.16897746967071 247.14653323802716 L 101.35138648180242 247.14653323802716 L 101.35138648180242 246.84131522516083 L 101.53379549393415 246.84131522516083 L 101.53379549393415 246.68870621872767 L 101.71620450606585 246.68870621872767 L 101.71620450606585 246.5360972122945 L 102.08102253032928 246.5360972122945 L 102.08102253032928 246.38348820586134 L 102.263431542461 246.38348820586134 L 102.263431542461 246.07827019299498 L 102.62824956672443 246.07827019299498 L 102.62824956672443 245.77305218012867 L 102.81065857885616 245.77305218012867 L 102.81065857885616 245.01000714796282 L 102.99306759098786 245.01000714796282 L 102.99306759098786 244.85739814152964 L 103.17547660311959 244.85739814152964 L 103.17547660311959 244.39957112223018 L 103.35788561525129 244.39957112223018 L 103.35788561525129 244.246962115797 L 103.54029462738302 244.246962115797 L 103.54029462738302 243.7891350964975 L 103.72270363951473 243.7891350964975 L 103.72270363951473 243.48391708363116 L 104.08752166377816 243.48391708363116 L 104.08752166377816 243.331308077198 L 104.4523396880416 243.331308077198 L 104.4523396880416 243.17869907076485 L 104.6347487001733 243.17869907076485 L 104.6347487001733 243.02609006433167 L 104.99956672443673 243.02609006433167 L 104.99956672443673 241.95782701929951 L 105.54679376083189 241.95782701929951 L 105.54679376083189 241.80521801286633 L 105.7292027729636 241.80521801286633 L 105.7292027729636 241.19478198713364 L 105.91161178509532 241.19478198713364 L 105.91161178509532 240.584345961401 L 106.09402079722703 240.584345961401 L 106.09402079722703 240.2791279485347 L 106.27642980935875 240.2791279485347 L 106.27642980935875 240.1265189421015 L 106.45883882149046 240.1265189421015 L 106.45883882149046 239.51608291636884 L 106.64124783362219 239.51608291636884 L 106.64124783362219 239.3634739099357 L 106.8236568457539 239.3634739099357 L 106.8236568457539 239.05825589706933 L 107.18847487001733 239.05825589706933 L 107.18847487001733 238.90564689063615 L 107.37088388214904 238.90564689063615 L 107.37088388214904 238.44781987133666 L 107.9181109185442 238.44781987133666 L 107.9181109185442 238.14260185847033 L 108.10051993067592 238.14260185847033 L 108.10051993067592 237.98999285203715 L 108.28292894280763 237.98999285203715 L 108.28292894280763 237.68477483917084 L 108.46533795493934 237.68477483917084 L 108.46533795493934 237.37955682630448 L 108.64774696707106 237.37955682630448 L 108.64774696707106 237.07433881343817 L 108.83015597920277 237.07433881343817 L 108.83015597920277 236.92172980700502 L 109.1949740034662 236.92172980700502 L 109.1949740034662 236.61651179413866 L 109.37738301559793 236.61651179413866 L 109.37738301559793 236.46390278770548 L 109.55979202772964 236.46390278770548 L 109.55979202772964 236.31129378127235 L 109.74220103986136 236.31129378127235 L 109.74220103986136 236.15868477483917 L 110.10701906412478 236.15868477483917 L 110.10701906412478 236.006075768406 L 110.65424610051994 236.006075768406 L 110.65424610051994 235.54824874910653 L 110.83665511265164 235.54824874910653 L 110.83665511265164 235.39563974267335 L 111.01906412478337 235.39563974267335 L 111.01906412478337 235.090421729807 L 111.20147313691507 235.090421729807 L 111.20147313691507 234.78520371694069 L 111.74870017331023 234.78520371694069 L 111.74870017331023 234.47998570407435 L 111.93110918544193 234.47998570407435 L 111.93110918544193 234.02215868477487 L 112.84315424610051 234.02215868477487 L 112.84315424610051 233.7169406719085 L 113.20797227036395 233.7169406719085 L 113.20797227036395 233.259113652609 L 113.93760831889081 233.259113652609 L 113.93760831889081 233.10650464617586 L 114.12001733102252 233.10650464617586 L 114.12001733102252 232.49606862044314 L 114.30242634315424 232.49606862044314 L 114.30242634315424 232.19085060757683 L 114.48483535528595 232.19085060757683 L 114.48483535528595 232.03824160114368 L 114.66724436741767 232.03824160114368 L 114.66724436741767 231.27519656897783 L 115.03206239168111 231.27519656897783 L 115.03206239168111 231.12258756254465 L 115.21447140381282 231.12258756254465 L 115.21447140381282 230.20693352394565 L 115.39688041594454 230.20693352394565 L 115.39688041594454 229.90171551107935 L 115.94410745233968 229.90171551107935 L 115.94410745233968 228.98606147248034 L 116.49133448873484 228.98606147248034 L 116.49133448873484 228.68084345961398 L 116.67374350086655 228.68084345961398 L 116.67374350086655 228.07040743388134 L 116.85615251299826 228.07040743388134 L 116.85615251299826 227.91779842744816 L 117.4033795493934 227.91779842744816 L 117.4033795493934 227.61258041458186 L 117.95060658578856 227.61258041458186 L 117.95060658578856 227.3073624017155 L 118.13301559792028 227.3073624017155 L 118.13301559792028 227.15475339528234 L 118.4978336221837 227.15475339528234 L 118.4978336221837 226.69692637598286 L 118.68024263431542 226.69692637598286 L 118.68024263431542 226.54431736954967 L 119.04506065857886 226.54431736954967 L 119.04506065857886 226.2390993566833 L 119.22746967071058 226.2390993566833 L 119.22746967071058 226.0864903502502 L 119.40987868284229 226.0864903502502 L 119.40987868284229 225.933881343817 L 119.592287694974 225.933881343817 L 119.592287694974 225.78127233738385 L 119.77469670710572 225.78127233738385 L 119.77469670710572 225.62866333095067 L 119.95710571923743 225.62866333095067 L 119.95710571923743 225.1708363116512 L 120.13951473136915 225.1708363116512 L 120.13951473136915 225.018227305218 L 120.32192374350088 225.018227305218 L 120.32192374350088 224.71300929235167 L 120.50433275563259 224.71300929235167 L 120.50433275563259 224.56040028591855 L 120.86915077989602 224.56040028591855 L 120.86915077989602 224.25518227305218 L 121.41637781629116 224.25518227305218 L 121.41637781629116 224.102573266619 L 122.51083188908146 224.102573266619 L 122.51083188908146 223.94996426018582 L 122.69324090121317 223.94996426018582 L 122.69324090121317 223.64474624731952 L 123.0580589254766 223.64474624731952 L 123.0580589254766 223.49213724088634 L 123.24046793760833 223.49213724088634 L 123.24046793760833 223.33952823445318 L 123.42287694974004 223.33952823445318 L 123.42287694974004 222.72909220872052 L 123.60528596187176 222.72909220872052 L 123.60528596187176 222.42387419585415 L 123.97010398613519 222.42387419585415 L 123.97010398613519 222.11865618298788 L 124.33492201039861 222.11865618298788 L 124.33492201039861 221.66082916368833 L 124.51733102253033 221.66082916368833 L 124.51733102253033 221.35561115082203 L 124.88214904679376 221.35561115082203 L 124.88214904679376 221.05039313795567 L 125.06455805892547 221.05039313795567 L 125.06455805892547 220.8977841315225 L 125.4293760831889 220.8977841315225 L 125.4293760831889 220.74517512508933 L 125.61178509532063 220.74517512508933 L 125.61178509532063 220.5925661186562 L 125.79419410745234 220.5925661186562 L 125.79419410745234 220.43995711222303 L 125.97660311958406 220.43995711222303 L 125.97660311958406 220.28734810578985 L 126.5238301559792 220.28734810578985 L 126.5238301559792 219.82952108649036 L 126.88864818024263 219.82952108649036 L 126.88864818024263 219.6769120800572 L 128.16551126516464 219.6769120800572 L 128.16551126516464 218.608649035025 L 128.53032928942807 218.608649035025 L 128.53032928942807 217.99821300929236 L 129.25996533795495 217.99821300929236 L 129.25996533795495 217.54038598999287 L 129.62478336221835 217.54038598999287 L 129.62478336221835 217.08255897069336 L 129.80719237435008 217.08255897069336 L 129.80719237435008 216.777340957827 L 130.1720103986135 216.777340957827 L 130.1720103986135 216.4721229449607 L 130.35441941074524 216.4721229449607 L 130.35441941074524 216.3195139385275 L 130.90164644714037 216.3195139385275 L 130.90164644714037 216.16690493209433 L 131.0840554592721 216.16690493209433 L 131.0840554592721 216.01429592566117 L 131.26646447140382 216.01429592566117 L 131.26646447140382 215.86168691922805 L 131.44887348353552 215.86168691922805 L 131.44887348353552 215.0986418870622 L 131.63128249566725 215.0986418870622 L 131.63128249566725 214.64081486776269 L 131.81369150779898 214.64081486776269 L 131.81369150779898 214.4882058613295 L 132.54332755632583 214.4882058613295 L 132.54332755632583 214.03037884203002 L 133.090554592721 214.03037884203002 L 133.090554592721 213.41994281629738 L 133.2729636048527 213.41994281629738 L 133.2729636048527 213.11472480343102 L 133.4553726169844 213.11472480343102 L 133.4553726169844 212.8095067905647 L 133.63778162911612 212.8095067905647 L 133.63778162911612 212.3516797712652 L 133.82019064124785 212.3516797712652 L 133.82019064124785 211.8938527519657 L 134.00259965337955 211.8938527519657 L 134.00259965337955 211.13080771979986 L 134.18500866551128 211.13080771979986 L 134.18500866551128 210.06254467476768 L 134.367417677643 210.06254467476768 L 134.367417677643 209.60471765546822 L 134.7322357019064 209.60471765546822 L 134.7322357019064 209.29949964260186 L 135.09705372616986 209.29949964260186 L 135.09705372616986 209.14689063616868 L 135.27946273830156 209.14689063616868 L 135.27946273830156 208.9942816297355 L 135.46187175043326 208.9942816297355 L 135.46187175043326 208.07862759113655 L 135.64428076256502 208.07862759113655 L 135.64428076256502 207.92601858470337 L 136.00909878682842 207.92601858470337 L 136.00909878682842 207.620800571837 L 136.37391681109187 207.620800571837 L 136.37391681109187 207.46819156540386 L 136.73873483535527 207.46819156540386 L 136.73873483535527 207.3155825589707 L 137.10355285961873 207.3155825589707 L 137.10355285961873 207.16297355253755 L 137.28596187175043 207.16297355253755 L 137.28596187175043 206.09471050750537 L 137.65077989601386 206.09471050750537 L 137.65077989601386 205.789492494639 L 137.8331889081456 205.789492494639 L 137.8331889081456 205.63688348820588 L 138.198006932409 205.63688348820588 L 138.198006932409 205.33166547533952 L 138.38041594454074 205.33166547533952 L 138.38041594454074 205.17905646890634 L 138.56282495667244 205.17905646890634 L 138.56282495667244 204.87383845604003 L 138.74523396880414 204.87383845604003 L 138.74523396880414 204.5686204431737 L 138.92764298093587 204.5686204431737 L 138.92764298093587 203.3477483917084 L 139.1100519930676 203.3477483917084 L 139.1100519930676 202.88992137240885 L 140.02209705372616 202.88992137240885 L 140.02209705372616 202.73731236597567 L 140.20450606585788 202.73731236597567 L 140.20450606585788 202.43209435310936 L 140.3869150779896 202.43209435310936 L 140.3869150779896 202.12687634024303 L 141.29896013864817 202.12687634024303 L 141.29896013864817 201.97426733380985 L 141.4813691507799 201.97426733380985 L 141.4813691507799 201.51644031451036 L 141.66377816291163 201.51644031451036 L 141.66377816291163 201.21122230164403 L 142.21100519930675 201.21122230164403 L 142.21100519930675 200.75339528234454 L 142.57582322357018 200.75339528234454 L 142.57582322357018 200.44817726947818 L 142.7582322357019 200.44817726947818 L 142.7582322357019 200.14295925661187 L 142.94064124783364 200.14295925661187 L 142.94064124783364 199.83774124374554 L 143.12305025996534 199.83774124374554 L 143.12305025996534 199.68513223731236 L 143.48786828422877 199.68513223731236 L 143.48786828422877 199.22730521801287 L 143.6702772963605 199.22730521801287 L 143.6702772963605 198.46426018584702 L 143.8526863084922 198.46426018584702 L 143.8526863084922 197.70121515368123 L 144.21750433275565 197.70121515368123 L 144.21750433275565 196.7855611150822 L 144.39991334488735 196.7855611150822 L 144.39991334488735 196.63295210864902 L 144.58232235701905 196.63295210864902 L 144.58232235701905 196.17512508934954 L 144.76473136915078 196.17512508934954 L 144.76473136915078 196.02251608291635 L 144.9471403812825 196.02251608291635 L 144.9471403812825 195.56468906361687 L 145.49436741767767 195.56468906361687 L 145.49436741767767 195.41208005718374 L 145.67677642980937 195.41208005718374 L 145.67677642980937 194.6490350250179 L 146.0415944540728 194.6490350250179 L 146.0415944540728 194.4964260185847 L 146.22400346620452 194.4964260185847 L 146.22400346620452 194.03859899928517 L 146.58882149046792 194.03859899928517 L 146.58882149046792 193.73338098641887 L 146.77123050259968 193.73338098641887 L 146.77123050259968 193.58077197998568 L 147.13604852686308 193.58077197998568 L 147.13604852686308 193.4281629735525 L 147.50086655112653 193.4281629735525 L 147.50086655112653 192.97033595425307 L 147.68327556325823 192.97033595425307 L 147.68327556325823 192.20729092208722 L 147.86568457538993 192.20729092208722 L 147.86568457538993 192.05468191565404 L 148.2305025996534 192.05468191565404 L 148.2305025996534 191.74946390278768 L 148.5953206239168 191.74946390278768 L 148.5953206239168 191.59685489635456 L 148.77772963604852 191.59685489635456 L 148.77772963604852 191.2916368834882 L 148.96013864818025 191.2916368834882 L 148.96013864818025 191.139027877055 L 149.14254766031195 191.139027877055 L 149.14254766031195 190.8338098641887 L 149.32495667244368 190.8338098641887 L 149.32495667244368 189.91815582558974 L 149.6897746967071 189.91815582558974 L 149.6897746967071 189.307719799857 L 149.8721837088388 189.307719799857 L 149.8721837088388 189.0025017869907 L 150.41941074523396 189.0025017869907 L 150.41941074523396 188.54467476769116 L 150.60181975736566 188.54467476769116 L 150.60181975736566 188.23945675482486 L 150.7842287694974 188.23945675482486 L 150.7842287694974 187.01858470335952 L 150.96663778162912 187.01858470335952 L 150.96663778162912 186.56075768406004 L 151.14904679376082 186.56075768406004 L 151.14904679376082 186.10293066476055 L 151.51386481802427 186.10293066476055 L 151.51386481802427 185.64510364546106 L 151.87868284228767 185.64510364546106 L 151.87868284228767 185.18727662616158 L 152.42590987868283 185.18727662616158 L 152.42590987868283 184.88205861329521 L 152.973136915078 184.88205861329521 L 152.973136915078 184.27162258756255 L 153.52036395147314 184.27162258756255 L 153.52036395147314 183.66118656182988 L 154.0675909878683 183.66118656182988 L 154.0675909878683 183.0507505360972 L 154.25 183.0507505360972 L 154.25 182.7455325232309 L 154.61481802426343 182.7455325232309 L 154.61481802426343 181.82987848463188 L 154.79722703639516 181.82987848463188 L 154.79722703639516 181.3720514653324 L 155.526863084922 181.3720514653324 L 155.526863084922 180.91422444603285 L 155.70927209705374 180.91422444603285 L 155.70927209705374 180.76161543959972 L 156.07409012131717 180.76161543959972 L 156.07409012131717 180.60900643316654 L 156.62131715771233 180.60900643316654 L 156.62131715771233 180.30378842030024 L 158.08058925476604 180.30378842030024 L 158.08058925476604 179.69335239456757 L 158.26299826689774 179.69335239456757 L 158.26299826689774 179.3881343817012 L 158.44540727902947 179.3881343817012 L 158.44540727902947 179.23552537526803 L 158.8102253032929 179.23552537526803 L 158.8102253032929 179.0829163688349 L 158.9926343154246 179.0829163688349 L 158.9926343154246 178.47248034310218 L 159.17504332755632 178.47248034310218 L 159.17504332755632 178.16726233023587 L 159.53986135181975 178.16726233023587 L 159.53986135181975 178.01465332380275 L 159.72227036395148 178.01465332380275 L 159.72227036395148 177.86204431736957 L 160.45190641247834 177.86204431736957 L 160.45190641247834 177.5568263045032 L 160.63431542461007 177.5568263045032 L 160.63431542461007 177.2516082916369 L 160.81672443674177 177.2516082916369 L 160.81672443674177 177.09899928520372 L 161.18154246100522 177.09899928520372 L 161.18154246100522 176.94639027877054 L 162.09358752166378 176.94639027877054 L 162.09358752166378 176.79378127233736 L 162.4584055459272 176.79378127233736 L 162.4584055459272 176.64117226590423 L 163.00563258232233 176.64117226590423 L 163.00563258232233 176.33595425303787 L 163.18804159445406 176.33595425303787 L 163.18804159445406 176.1833452466047 L 163.3704506065858 176.1833452466047 L 163.3704506065858 175.7255182273052 L 163.5528596187175 175.7255182273052 L 163.5528596187175 175.57290922087208 L 163.91767764298092 175.57290922087208 L 163.91767764298092 175.1150822015726 L 164.10008665511265 175.1150822015726 L 164.10008665511265 174.65725518227305 L 164.28249566724438 174.65725518227305 L 164.28249566724438 174.04681915654038 L 164.6473136915078 174.04681915654038 L 164.6473136915078 173.8942101501072 L 164.8297227036395 173.8942101501072 L 164.8297227036395 173.5889921372409 L 165.37694974003466 173.5889921372409 L 165.37694974003466 173.4363831308077 L 165.55935875216636 173.4363831308077 L 165.55935875216636 172.67333809864192 L 165.7417677642981 172.67333809864192 L 165.7417677642981 172.52072909220874 L 165.92417677642982 172.52072909220874 L 165.92417677642982 172.21551107934238 L 166.47140381282495 172.21551107934238 L 166.47140381282495 171.6050750536097 L 166.65381282495667 171.6050750536097 L 166.65381282495667 171.45246604717653 L 166.8362218370884 171.45246604717653 L 166.8362218370884 171.29985704074335 L 167.38344887348353 171.29985704074335 L 167.38344887348353 171.14724803431022 L 167.9306759098787 171.14724803431022 L 167.9306759098787 170.68942101501074 L 168.47790294627384 170.68942101501074 L 168.47790294627384 169.7737669764117 L 168.84272097053724 169.7737669764117 L 168.84272097053724 169.62115796997858 L 169.02512998266897 169.62115796997858 L 169.02512998266897 169.4685489635454 L 169.75476603119586 169.4685489635454 L 169.75476603119586 169.01072194424586 L 169.75476603119586 168.70550393137955 L 170.11958405545928 168.70550393137955 L 170.11958405545928 168.55289492494637 L 170.84922010398614 168.55289492494637 L 170.84922010398614 168.24767691208007 L 171.03162911611787 168.24767691208007 L 171.03162911611787 167.6372408863474 L 171.21403812824957 167.6372408863474 L 171.21403812824957 167.48463187991422 L 171.76126516464473 167.48463187991422 L 171.76126516464473 167.02680486061473 L 172.12608318890813 167.02680486061473 L 172.12608318890813 165.8059328091494 L 172.30849220103988 165.8059328091494 L 172.30849220103988 165.3481057898499 L 172.49090121317158 165.3481057898499 L 172.49090121317158 165.19549678341673 L 172.67331022530328 165.19549678341673 L 172.67331022530328 164.58506075768406 L 173.40294627383014 164.58506075768406 L 173.40294627383014 164.2798427448177 L 173.58535528596187 164.2798427448177 L 173.58535528596187 163.21157969978555 L 173.9501733102253 163.21157969978555 L 173.9501733102253 163.05897069335242 L 174.31499133448872 163.05897069335242 L 174.31499133448872 162.75375268048606 L 174.49740034662045 162.75375268048606 L 174.49740034662045 162.60114367405293 L 174.67980935875215 162.60114367405293 L 174.67980935875215 162.44853466761975 L 174.86221837088385 162.29592566118657 L 174.86221837088385 161.9907076483202 L 175.2270363951473 161.9907076483202 L 175.2270363951473 161.83809864188703 L 175.59185441941077 161.83809864188703 L 175.59185441941077 161.6854896354539 L 175.95667244367417 161.6854896354539 L 175.95667244367417 161.38027162258754 L 176.1390814558059 161.38027162258754 L 176.1390814558059 161.22766261615436 L 176.50389948006932 161.22766261615436 L 176.50389948006932 160.92244460328806 L 177.23353552859618 160.92244460328806 L 177.23353552859618 160.76983559685488 L 177.4159445407279 160.76983559685488 L 177.4159445407279 159.8541815582559 L 177.78076256499133 159.8541815582559 L 177.78076256499133 159.54896354538954 L 177.96317157712306 159.54896354538954 L 177.96317157712306 159.39635453895642 L 178.14558058925476 159.39635453895642 L 178.14558058925476 159.24374553252323 L 178.69280762564992 159.24374553252323 L 178.69280762564992 158.93852751965687 L 178.87521663778162 158.93852751965687 L 178.87521663778162 158.7859185132237 L 179.05762564991335 158.7859185132237 L 179.05762564991335 158.63330950679057 L 179.24003466204505 158.63330950679057 L 179.24003466204505 158.3280914939242 L 179.42244367417678 158.3280914939242 L 179.42244367417678 157.7176554681916 L 179.60485268630848 157.7176554681916 L 179.60485268630848 157.41243745532523 L 179.7872616984402 157.41243745532523 L 179.7872616984402 156.64939242315938 L 179.9696707105719 156.64939242315938 L 179.9696707105719 156.03895639742672 L 180.6993067590988 156.03895639742672 L 180.6993067590988 155.88634739099354 L 180.88171577123052 155.88634739099354 L 180.88171577123052 155.4285203716941 L 181.06412478336222 155.4285203716941 L 181.06412478336222 155.27591136526092 L 181.24653379549395 155.27591136526092 L 181.24653379549395 155.12330235882774 L 181.42894280762565 155.12330235882774 L 181.42894280762565 154.97069335239456 L 181.9761698440208 154.97069335239456 L 181.9761698440208 154.81808434596138 L 182.1585788561525 154.81808434596138 L 182.1585788561525 154.05503931379553 L 182.34098786828423 154.05503931379553 L 182.34098786828423 153.74982130092923 L 183.2530329289428 153.74982130092923 L 183.2530329289428 153.29199428162974 L 183.61785095320624 153.29199428162974 L 183.61785095320624 152.5289492494639 L 183.98266897746967 152.5289492494639 L 183.98266897746967 152.0711222301644 L 184.1650779896014 152.0711222301644 L 184.1650779896014 151.91851322373122 L 184.71230502599653 151.91851322373122 L 184.71230502599653 151.61329521086492 L 185.07712305025996 151.61329521086492 L 185.07712305025996 150.69764117226595 L 185.6243500866551 150.69764117226595 L 185.6243500866551 150.54503216583277 L 185.8067590987868 150.54503216583277 L 185.8067590987868 150.39242315939958 L 187.08362218370885 150.39242315939958 L 187.08362218370885 149.47676912080055 L 187.44844020797228 149.47676912080055 L 187.44844020797228 149.01894210150107 L 188.17807625649914 149.01894210150107 L 188.17807625649914 148.8663330950679 L 188.54289428076257 148.8663330950679 L 188.54289428076257 148.56111508220158 L 188.72530329289427 148.56111508220158 L 188.72530329289427 148.4085060757684 L 188.907712305026 148.4085060757684 L 188.907712305026 148.25589706933528 L 189.27253032928942 148.25589706933528 L 189.27253032928942 147.6454610436026 L 189.45493934142115 147.6454610436026 L 189.45493934142115 147.49285203716943 L 189.63734835355285 147.49285203716943 L 189.63734835355285 147.18763402430307 L 190.3669844020797 147.18763402430307 L 190.3669844020797 147.03502501786988 L 190.54939341421144 147.03502501786988 L 190.54939341421144 146.88241601143676 L 191.2790294627383 146.88241601143676 L 191.2790294627383 146.72980700500358 L 191.46143847487 146.72980700500358 L 191.46143847487 145.50893495353824 L 191.64384748700175 145.50893495353824 L 191.64384748700175 145.20371694067194 L 191.82625649913345 145.20371694067194 L 191.82625649913345 144.89849892780558 L 192.5558925476603 144.89849892780558 L 192.5558925476603 144.7458899213724 L 192.92071057192373 144.7458899213724 L 192.92071057192373 144.5932809149392 L 193.10311958405546 144.5932809149392 L 193.10311958405546 144.4406719085061 L 193.28552859618716 144.4406719085061 L 193.28552859618716 144.2880629020729 L 193.4679376083189 144.2880629020729 L 193.4679376083189 143.98284488920655 L 193.83275563258232 143.98284488920655 L 193.83275563258232 143.37240886347394 L 194.19757365684575 143.37240886347394 L 194.19757365684575 143.06719085060757 L 194.5623916811092 143.06719085060757 L 194.5623916811092 142.76197283774127 L 194.7448006932409 142.76197283774127 L 194.7448006932409 142.6093638313081 L 195.29202772963606 142.6093638313081 L 195.29202772963606 142.30414581844173 L 195.6568457538995 142.30414581844173 L 195.6568457538995 141.69370979270906 L 196.02166377816292 141.69370979270906 L 196.02166377816292 141.23588277340957 L 196.38648180242635 141.23588277340957 L 196.38648180242635 141.0832737669764 L 196.93370883882147 141.0832737669764 L 196.93370883882147 140.77805575411008 L 197.48093587521666 140.77805575411008 L 197.48093587521666 140.62544674767696 L 197.66334488734836 140.62544674767696 L 197.66334488734836 140.16761972837742 L 197.8457538994801 140.16761972837742 L 197.8457538994801 140.01501072194424 L 198.21057192374352 140.01501072194424 L 198.21057192374352 139.70979270907793 L 198.39298093587522 139.70979270907793 L 198.39298093587522 139.55718370264475 L 198.75779896013864 139.55718370264475 L 198.75779896013864 139.40457469621157 L 199.4874350086655 139.40457469621157 L 199.4874350086655 138.94674767691208 L 199.66984402079723 138.94674767691208 L 199.66984402079723 138.7941386704789 L 199.85225303292893 138.7941386704789 L 199.85225303292893 138.64152966404572 L 200.21707105719238 138.64152966404572 L 200.21707105719238 138.4889206576126 L 200.39948006932408 138.4889206576126 L 200.39948006932408 137.72587562544675 L 200.7642980935875 137.72587562544675 L 200.7642980935875 137.57326661901357 L 200.94670710571924 137.57326661901357 L 200.94670710571924 137.42065761258044 L 201.49393414211437 137.42065761258044 L 201.49393414211437 137.26804860614726 L 202.22357019064125 137.26804860614726 L 202.22357019064125 137.11543959971408 L 202.7707972270364 137.11543959971408 L 202.7707972270364 136.81022158684772 L 202.9532062391681 136.81022158684772 L 202.9532062391681 136.5050035739814 L 203.31802426343154 136.5050035739814 L 203.31802426343154 136.04717655468193 L 203.68284228769497 136.04717655468193 L 203.68284228769497 135.43674052894926 L 203.8652512998267 135.43674052894926 L 203.8652512998267 135.13152251608295 L 204.41247833622182 135.13152251608295 L 204.41247833622182 134.8263045032166 L 204.59488734835355 134.8263045032166 L 204.59488734835355 134.52108649035023 L 204.77729636048525 134.52108649035023 L 204.77729636048525 134.36847748391705 L 204.95970537261698 134.36847748391705 L 204.95970537261698 134.21586847748392 L 205.3245233968804 134.21586847748392 L 205.3245233968804 134.06325947105074 L 205.50693240901214 134.06325947105074 L 205.50693240901214 133.91065046461756 L 205.68934142114387 133.91065046461756 L 205.68934142114387 133.75804145818438 L 205.87175043327557 133.75804145818438 L 205.87175043327557 133.45282344531807 L 206.78379549393415 133.45282344531807 L 206.78379549393415 133.30021443888495 L 206.96620450606585 133.30021443888495 L 206.96620450606585 133.14760543245177 L 207.14861351819758 133.14760543245177 L 207.14861351819758 132.9949964260186 L 207.513431542461 132.9949964260186 L 207.513431542461 132.5371694067191 L 208.24306759098786 132.5371694067191 L 208.24306759098786 131.92673338098643 L 208.4254766031196 131.92673338098643 L 208.4254766031196 131.77412437455325 L 208.60788561525132 131.77412437455325 L 208.60788561525132 131.62151536812007 L 208.79029462738302 131.62151536812007 L 208.79029462738302 131.4689063616869 L 209.33752166377818 131.4689063616869 L 209.33752166377818 131.3162973552537 L 209.8847487001733 131.3162973552537 L 209.8847487001733 131.16368834882059 L 210.06715771230503 131.16368834882059 L 210.06715771230503 130.85847033595428 L 210.43197573656846 130.85847033595428 L 210.43197573656846 130.55325232308792 L 210.7967937608319 130.55325232308792 L 210.7967937608319 130.2480343102216 L 210.9792027729636 130.2480343102216 L 210.9792027729636 130.09542530378843 L 211.34402079722705 130.09542530378843 L 211.34402079722705 129.63759828448894 L 211.52642980935875 129.63759828448894 L 211.52642980935875 129.48498927805576 L 212.0736568457539 129.48498927805576 L 212.0736568457539 128.72194424588992 L 212.25606585788563 128.72194424588992 L 212.25606585788563 128.56933523945673 L 212.43847487001733 128.56933523945673 L 212.43847487001733 128.4167262330236 L 213.1681109185442 128.4167262330236 L 213.1681109185442 128.26411722659043 L 213.35051993067592 128.26411722659043 L 213.35051993067592 127.95889921372412 L 213.53292894280762 127.95889921372412 L 213.53292894280762 127.65368120085776 L 214.2625649913345 127.65368120085776 L 214.2625649913345 127.3484631879914 L 214.4449740034662 127.3484631879914 L 214.4449740034662 126.73802716225873 L 215.17461005199306 126.73802716225873 L 215.17461005199306 126.43280914939243 L 216.45147313691507 126.43280914939243 L 216.45147313691507 126.28020014295925 L 216.6338821490468 126.28020014295925 L 216.6338821490468 126.12759113652606 L 216.99870017331023 126.12759113652606 L 216.99870017331023 125.97498213009294 L 217.36351819757365 125.97498213009294 L 217.36351819757365 125.66976411722663 L 217.72833622183708 125.66976411722663 L 217.72833622183708 125.21193709792709 L 218.0931542461005 125.21193709792709 L 218.0931542461005 125.05932809149391 L 218.27556325823224 125.05932809149391 L 218.27556325823224 124.7541100786276 L 219.1876083188908 124.7541100786276 L 219.1876083188908 124.60150107219442 L 219.37001733102255 124.60150107219442 L 219.37001733102255 124.29628305932806 L 219.55242634315425 124.29628305932806 L 219.55242634315425 124.14367405289494 L 219.73483535528598 124.14367405289494 L 219.73483535528598 123.99106504646176 L 219.91724436741768 123.99106504646176 L 219.91724436741768 123.07541100786278 L 220.0996533795494 123.07541100786278 L 220.0996533795494 122.9228020014296 L 220.2820623916811 122.9228020014296 L 220.2820623916811 122.77019299499642 L 220.64688041594454 122.77019299499642 L 220.64688041594454 122.61758398856324 L 221.01169844020797 122.61758398856324 L 221.01169844020797 122.31236597569693 L 221.92374350086655 122.31236597569693 L 221.92374350086655 122.15975696926375 L 222.10615251299825 122.15975696926375 L 222.10615251299825 122.00714796283057 L 222.28856152513 122.00714796283057 L 222.28856152513 121.70192994996427 L 222.4709705372617 121.70192994996427 L 222.4709705372617 121.54932094353109 L 222.65337954939343 121.54932094353109 L 222.65337954939343 121.3967119370979 L 222.83578856152513 121.3967119370979 L 222.83578856152513 121.0914939242316 L 223.20060658578856 121.0914939242316 L 223.20060658578856 120.63366690493211 L 223.565424610052 120.63366690493211 L 223.565424610052 120.48105789849893 L 224.29506065857885 120.48105789849893 L 224.29506065857885 120.17583988563263 L 224.65987868284228 120.17583988563263 L 224.65987868284228 119.87062187276626 L 224.842287694974 119.87062187276626 L 224.842287694974 119.71801286633308 L 225.02469670710573 119.71801286633308 L 225.02469670710573 118.80235882773405 L 225.38951473136916 118.80235882773405 L 225.38951473136916 118.03931379556826 L 225.57192374350086 118.03931379556826 L 225.57192374350086 117.73409578270196 L 226.30155979202772 117.73409578270196 L 226.30155979202772 117.58148677626878 L 226.48396880415945 117.58148677626878 L 226.48396880415945 117.4288777698356 L 226.84878682842287 117.4288777698356 L 226.84878682842287 117.27626876340241 L 227.2136048526863 117.27626876340241 L 227.2136048526863 116.97105075053611 L 227.57842287694973 116.97105075053611 L 227.57842287694973 116.66583273766975 L 228.30805892547662 116.66583273766975 L 228.30805892547662 116.36061472480338 L 228.49046793760832 116.36061472480338 L 228.49046793760832 116.20800571837026 L 228.67287694974004 116.20800571837026 L 228.67287694974004 115.90278770550395 L 229.22010398613517 115.90278770550395 L 229.22010398613517 115.59756969263759 L 229.5849220103986 115.59756969263759 L 229.5849220103986 115.29235167977129 L 229.76733102253033 115.29235167977129 L 229.76733102253033 114.98713366690492 L 230.13214904679376 114.98713366690492 L 230.13214904679376 114.83452466047174 L 230.6793760831889 114.83452466047174 L 230.6793760831889 114.68191565403862 L 231.04419410745234 114.68191565403862 L 231.04419410745234 114.52930664760544 L 231.22660311958407 114.52930664760544 L 231.22660311958407 114.22408863473908 L 231.5914211438475 114.22408863473908 L 231.5914211438475 114.0714796283059 L 231.7738301559792 114.0714796283059 L 231.7738301559792 113.46104360257328 L 233.0506932409012 113.46104360257328 L 233.0506932409012 113.15582558970698 L 233.9627383015598 113.15582558970698 L 233.9627383015598 113.0032165832738 L 234.14514731369152 113.0032165832738 L 234.14514731369152 112.69799857040744 L 235.60441941074524 112.69799857040744 L 235.60441941074524 112.54538956397425 L 235.96923743500867 112.54538956397425 L 235.96923743500867 112.39278055754107 L 236.1516464471404 112.39278055754107 L 236.1516464471404 112.08756254467477 L 236.51646447140382 112.08756254467477 L 236.51646447140382 111.62973552537522 L 237.24610051993068 111.62973552537522 L 237.24610051993068 111.4771265189421 L 238.15814558058923 111.4771265189421 L 238.15814558058923 111.32451751250892 L 238.34055459272096 111.32451751250892 L 238.34055459272096 111.1719085060758 L 238.7053726169844 111.1719085060758 L 238.7053726169844 111.01929949964261 L 238.88778162911612 111.01929949964261 L 238.88778162911612 110.56147248034313 L 239.61741767764298 110.56147248034313 L 239.61741767764298 109.95103645461046 L 239.7998266897747 109.95103645461046 L 239.7998266897747 109.79842744817728 L 240.34705372616983 109.79842744817728 L 240.34705372616983 109.6458184417441 L 240.52946273830156 109.6458184417441 L 240.52946273830156 109.18799142244461 L 241.0766897746967 109.18799142244461 L 241.0766897746967 109.03538241601143 L 241.62391681109187 109.03538241601143 L 241.62391681109187 108.57755539671194 L 241.80632582322357 108.57755539671194 L 241.80632582322357 108.42494639027882 L 241.9887348353553 108.42494639027882 L 241.9887348353553 108.27233738384564 L 242.53596187175043 108.27233738384564 L 242.53596187175043 108.11972837741246 L 243.44800693240902 108.11972837741246 L 243.44800693240902 107.8145103645461 L 243.81282495667244 107.8145103645461 L 243.81282495667244 107.66190135811297 L 244.72487001733103 107.66190135811297 L 244.72487001733103 107.05146533238025 L 245.08968804159446 107.05146533238025 L 245.08968804159446 106.74624731951394 L 245.27209705372618 106.74624731951394 L 245.27209705372618 106.59363831308076 L 245.6369150779896 106.59363831308076 L 245.6369150779896 106.28842030021445 L 245.8193240901213 106.28842030021445 L 245.8193240901213 105.83059328091497 L 246.18414211438474 105.83059328091497 L 246.18414211438474 105.5253752680486 L 246.54896013864817 105.5253752680486 L 246.54896013864817 105.37276626161542 L 247.27859618717505 105.37276626161542 L 247.27859618717505 105.2201572551823 L 247.64341421143848 105.2201572551823 L 247.64341421143848 105.06754824874912 L 248.0082322357019 105.06754824874912 L 248.0082322357019 104.60972122944958 L 248.1906412478336 104.60972122944958 L 248.1906412478336 104.15189421015009 L 248.55545927209704 104.15189421015009 L 248.55545927209704 103.99928520371691 L 249.46750433275562 103.99928520371691 L 249.46750433275562 103.84667619728378 L 250.92677642980937 103.84667619728378 L 250.92677642980937 103.54145818441748 L 251.10918544194107 103.54145818441748 L 251.10918544194107 102.62580414581845 L 252.02123050259965 102.62580414581845 L 252.02123050259965 102.32058613295209 L 252.38604852686308 102.32058613295209 L 252.38604852686308 102.16797712651896 L 252.93327556325823 102.16797712651896 L 252.93327556325823 102.01536812008578 L 253.11568457538996 102.01536812008578 L 253.11568457538996 101.8627591136526 L 253.4805025996534 101.8627591136526 L 253.4805025996534 101.55754110078624 L 253.6629116117851 101.55754110078624 L 253.6629116117851 101.25232308791993 L 253.84532062391682 101.25232308791993 L 253.84532062391682 101.09971408148681 L 254.21013864818025 101.09971408148681 L 254.21013864818025 100.79449606862045 L 254.39254766031195 100.79449606862045 L 254.39254766031195 100.48927805575414 L 254.57495667244368 100.48927805575414 L 254.57495667244368 100.33666904932096 L 254.75736568457538 100.33666904932096 L 254.75736568457538 99.87884203002142 L 254.9397746967071 99.87884203002142 L 254.9397746967071 99.72623302358829 L 255.30459272097053 99.72623302358829 L 255.30459272097053 99.57362401715511 L 255.48700173310226 99.57362401715511 L 255.48700173310226 99.42101501072193 L 255.669410745234 99.42101501072193 L 255.669410745234 99.26840600428875 L 256.0342287694974 99.26840600428875 L 256.0342287694974 99.11579699785557 L 256.3990467937608 99.11579699785557 L 256.3990467937608 98.96318799142244 L 257.49350086655113 98.96318799142244 L 257.49350086655113 98.81057898498926 L 258.223136915078 98.81057898498926 L 258.223136915078 98.65796997855614 L 258.77036395147314 98.65796997855614 L 258.77036395147314 98.50536097212296 L 259.1351819757366 98.50536097212296 L 259.1351819757366 98.35275196568978 L 260.04722703639516 98.35275196568978 L 260.04722703639516 98.20014295925665 L 260.22963604852686 98.20014295925665 L 260.22963604852686 98.04753395282347 L 260.41204506065856 98.04753395282347 L 260.41204506065856 97.89492494639029 L 260.776863084922 97.89492494639029 L 260.776863084922 97.58970693352393 L 261.68890814558057 97.58970693352393 L 261.68890814558057 97.4370979270908 L 262.2361351819757 97.4370979270908 L 262.2361351819757 97.28448892065762 L 262.9657712305026 97.28448892065762 L 262.9657712305026 97.13187991422444 L 263.14818024263434 97.13187991422444 L 263.14818024263434 96.82666190135808 L 263.33058925476604 96.82666190135808 L 263.33058925476604 96.52144388849177 L 263.51299826689774 96.52144388849177 L 263.51299826689774 96.21622587562547 L 263.8778162911612 96.21622587562547 L 263.8778162911612 95.45318084345962 L 264.24263431542465 95.45318084345962 L 264.24263431542465 95.14796283059326 L 264.60745233968805 95.14796283059326 L 264.60745233968805 94.99535382416013 L 265.3370883882149 94.99535382416013 L 265.3370883882149 94.84274481772695 L 265.70190641247837 94.84274481772695 L 265.70190641247837 94.23230879199429 L 265.88431542461 94.23230879199429 L 265.88431542461 93.92709077912792 L 266.24913344887347 93.92709077912792 L 266.24913344887347 93.7744817726948 L 267.3435875216637 93.7744817726948 L 267.3435875216637 93.4692637598285 L 267.5259965337955 93.4692637598285 L 267.5259965337955 93.16404574696213 L 268.07322357019063 93.16404574696213 L 268.07322357019063 92.85882773409577 L 268.80285961871755 92.85882773409577 L 268.80285961871755 92.70621872766264 L 268.9852686308492 92.70621872766264 L 268.9852686308492 92.55360972122946 L 269.16767764298095 92.55360972122946 L 269.16767764298095 92.40100071479628 L 269.35008665511265 92.40100071479628 L 269.35008665511265 92.2483917083631 L 269.53249566724435 92.2483917083631 L 269.53249566724435 92.09578270192992 L 270.0797227036395 92.09578270192992 L 270.0797227036395 91.79056468906361 L 270.44454072790296 91.79056468906361 L 270.44454072790296 91.63795568263043 L 270.8093587521664 91.63795568263043 L 270.8093587521664 91.48534667619725 L 271.3565857885615 91.48534667619725 L 271.3565857885615 91.33273766976413 L 271.5389948006932 91.33273766976413 L 271.5389948006932 91.02751965689782 L 271.9038128249567 91.02751965689782 L 271.9038128249567 90.87491065046464 L 272.26863084922013 90.87491065046464 L 272.26863084922013 90.4170836311651 L 272.4510398613518 90.4170836311651 L 272.4510398613518 90.1118656182988 L 272.81585788561523 90.1118656182988 L 272.81585788561523 89.95925661186561 L 273.36308492201044 89.95925661186561 L 273.36308492201044 89.80664760543243 L 273.54549393414214 89.80664760543243 L 273.54549393414214 89.65403859899925 L 274.09272097053724 89.65403859899925 L 274.09272097053724 89.34882058613294 L 274.275129982669 89.34882058613294 L 274.275129982669 89.04360257326658 L 275.18717504332756 89.04360257326658 L 275.18717504332756 88.89099356683346 L 275.55199306759096 88.89099356683346 L 275.55199306759096 88.43316654753397 L 276.64644714038127 88.43316654753397 L 276.64644714038127 87.97533952823449 L 277.3760831889081 87.97533952823449 L 277.3760831889081 87.8227305218013 L 280.84185441941077 87.8227305218013 L 280.84185441941077 87.67012151536812 L 281.20667244367417 87.67012151536812 L 281.20667244367417 87.51751250893494 L 281.7538994800693 87.51751250893494 L 281.7538994800693 87.36490350250176 L 281.9363084922011 87.36490350250176 L 281.9363084922011 87.05968548963546 L 282.1187175043327 87.05968548963546 L 282.1187175043327 86.7544674767691 L 282.3011265164645 86.7544674767691 L 282.3011265164645 86.60185847033591 L 283.3955805892548 86.60185847033591 L 283.3955805892548 86.2966404574696 L 284.4900346620451 86.2966404574696 L 284.4900346620451 86.14403145103648 L 285.03726169844026 86.14403145103648 L 285.03726169844026 85.9914224446033 L 285.2196707105719 85.9914224446033 L 285.2196707105719 85.686204431737 L 285.76689774696706 85.686204431737 L 285.76689774696706 85.53359542530382 L 286.1317157712305 85.53359542530382 L 286.1317157712305 85.38098641887063 L 286.496533795494 85.38098641887063 L 286.496533795494 85.22837741243745 L 286.6789428076256 85.22837741243745 L 286.6789428076256 85.07576840600427 L 287.40857885615253 85.07576840600427 L 287.40857885615253 84.92315939957109 L 289.59748700173304 84.92315939957109 L 289.59748700173304 84.77055039313797 L 289.7798960138648 84.77055039313797 L 289.7798960138648 84.61794138670479 L 290.1447140381283 84.61794138670479 L 290.1447140381283 84.4653323802716 L 290.32712305025996 84.4653323802716 L 290.32712305025996 84.31272337383842 L 290.5095320623917 84.31272337383842 L 290.5095320623917 84.16011436740524 L 290.8743500866551 84.16011436740524 L 290.8743500866551 83.54967834167263 L 292.5160311958406 83.54967834167263 L 292.5160311958406 83.39706933523945 L 293.61048526863084 83.39706933523945 L 293.61048526863084 83.09185132237315 L 293.79289428076254 83.09185132237315 L 293.79289428076254 82.93924231593996 L 294.157712305026 82.93924231593996 L 294.157712305026 82.78663330950678 L 294.52253032928945 82.78663330950678 L 294.52253032928945 82.6340243030736 L 295.06975736568455 82.6340243030736 L 295.06975736568455 82.48141529664048 L 295.61698440207977 82.48141529664048 L 295.61698440207977 82.3288062902073 L 295.98180242634317 82.3288062902073 L 295.98180242634317 82.17619728377412 L 296.71143847487 82.17619728377412 L 296.71143847487 81.87097927090775 L 297.0762564991335 81.87097927090775 L 297.0762564991335 81.71837026447463 L 297.4410745233969 81.71837026447463 L 297.4410745233969 81.41315225160827 L 298.7179376083189 81.41315225160827 L 298.7179376083189 81.26054324517514 L 299.08275563258235 81.26054324517514 L 299.08275563258235 80.80271622587566 L 299.44757365684575 80.80271622587566 L 299.44757365684575 80.4974982130093 L 299.62998266897745 80.4974982130093 L 299.62998266897745 80.03967119370981 L 299.9948006932409 80.03967119370981 L 299.9948006932409 79.88706218727663 L 300.1772097053726 79.88706218727663 L 300.1772097053726 79.73445318084345 L 300.3596187175043 79.73445318084345 L 300.3596187175043 79.42923516797708 L 300.7244367417677 79.42923516797708 L 300.7244367417677 79.12401715511078 L 301.0892547660312 79.12401715511078 L 301.0892547660312 78.81879914224447 L 301.6364818024264 78.81879914224447 L 301.6364818024264 78.66619013581129 L 302.18370883882153 78.66619013581129 L 302.18370883882153 78.36097212294499 L 302.36611785095323 78.36097212294499 L 302.36611785095323 77.75053609721232 L 303.0957538994801 77.75053609721232 L 303.0957538994801 77.59792709077914 L 303.2781629116118 77.59792709077914 L 303.2781629116118 77.44531808434596 L 303.4605719237435 77.44531808434596 L 303.4605719237435 77.29270907791278 L 303.64298093587524 77.29270907791278 L 303.64298093587524 76.98749106504647 L 303.82538994800694 76.98749106504647 L 303.82538994800694 76.83488205861329 L 304.7374350086655 76.83488205861329 L 304.7374350086655 76.68227305218011 L 305.10225303292896 76.68227305218011 L 305.10225303292896 76.52966404574693 L 305.28466204506066 76.52966404574693 L 305.28466204506066 76.3770550393138 L 305.46707105719236 76.3770550393138 L 305.46707105719236 76.22444603288068 L 306.0142980935875 76.22444603288068 L 306.0142980935875 76.0718370264475 L 306.3791161178509 76.0718370264475 L 306.3791161178509 75.30879199428165 L 306.56152512998267 75.30879199428165 L 306.56152512998267 75.15618298784847 L 306.9263431542461 75.15618298784847 L 306.9263431542461 75.00357398141529 L 308.0207972270364 75.00357398141529 L 308.0207972270364 74.69835596854898 L 308.38561525129984 74.69835596854898 L 308.38561525129984 74.08791994281626 L 308.932842287695 74.08791994281626 L 308.932842287695 73.93531093638313 L 311.12175043327557 73.93531093638313 L 311.12175043327557 73.78270192995001 L 311.66897746967066 73.78270192995001 L 311.66897746967066 73.63009292351683 L 312.2162045060659 73.63009292351683 L 312.2162045060659 73.32487491065046 L 313.4930675909879 73.32487491065046 L 313.4930675909879 73.17226590421728 L 313.8578856152513 73.17226590421728 L 313.8578856152513 73.01965689778416 L 317.3236568457539 73.01965689778416 L 317.3236568457539 72.86704789135098 L 317.5060658578856 72.86704789135098 L 317.5060658578856 72.56182987848462 L 318.0532928942808 72.56182987848462 L 318.0532928942808 72.40922087205143 L 318.2357019064125 72.40922087205143 L 318.2357019064125 72.25661186561831 L 318.60051993067594 72.25661186561831 L 318.60051993067594 72.10400285918513 L 318.96533795493934 72.10400285918513 L 318.96533795493934 71.64617583988559 L 319.14774696707104 71.64617583988559 L 319.14774696707104 71.49356683345246 L 319.3301559792028 71.49356683345246 L 319.3301559792028 70.8831308077198 L 319.6949740034662 70.8831308077198 L 319.6949740034662 70.73052180128667 L 320.42461005199306 70.73052180128667 L 320.42461005199306 70.57791279485349 L 320.9718370883882 70.57791279485349 L 320.9718370883882 69.96747676912082 L 321.1542461005199 69.96747676912082 L 321.1542461005199 69.66225875625446 L 321.51906412478337 69.66225875625446 L 321.51906412478337 69.50964974982128 L 321.70147313691507 69.50964974982128 L 321.70147313691507 69.3570407433881 L 322.06629116117847 69.3570407433881 L 322.06629116117847 69.20443173695497 L 322.4311091854419 69.20443173695497 L 322.4311091854419 69.05182273052179 L 322.6135181975736 69.05182273052179 L 322.6135181975736 68.89921372408867 L 322.9783362218371 68.89921372408867 L 322.9783362218371 68.5939957112223 L 323.34315424610054 68.5939957112223 L 323.34315424610054 68.44138670478912 L 323.52556325823224 68.44138670478912 L 323.52556325823224 68.13616869192282 L 323.707972270364 68.13616869192282 L 323.707972270364 67.98355968548964 L 324.0727902946274 67.98355968548964 L 324.0727902946274 67.83095067905646 L 324.2551993067591 67.83095067905646 L 324.2551993067591 67.67834167262328 L 324.43760831889085 67.67834167262328 L 324.43760831889085 67.52573266619015 L 325.1672443674177 67.52573266619015 L 325.1672443674177 67.06790564689061 L 326.6265164644714 67.06790564689061 L 326.6265164644714 66.91529664045743 L 327.1737435008665 66.91529664045743 L 327.1737435008665 66.457469621158 L 327.3561525129983 66.457469621158 L 327.3561525129983 66.15225160829164 L 327.53856152513 66.15225160829164 L 327.53856152513 65.99964260185851 L 328.08578856152513 65.99964260185851 L 328.08578856152513 65.84703359542533 L 328.26819757365683 65.84703359542533 L 328.26819757365683 65.69442458899215 L 328.63301559792023 65.69442458899215 L 328.63301559792023 65.38920657612579 L 328.815424610052 65.38920657612579 L 328.815424610052 65.23659756969266 L 328.99783362218375 65.23659756969266 L 328.99783362218375 65.08398856325948 L 329.54506065857885 65.08398856325948 L 329.54506065857885 64.9313795568263 L 329.9098786828423 64.9313795568263 L 329.9098786828423 64.77877055039312 L 330.2746967071057 64.77877055039312 L 330.2746967071057 64.62616154395994 L 330.63951473136916 64.62616154395994 L 330.63951473136916 64.47355253752681 L 331.369150779896 64.47355253752681 L 331.369150779896 64.32094353109363 L 331.7339688041594 64.32094353109363 L 331.7339688041594 64.01572551822733 L 332.0987868284229 64.01572551822733 L 332.0987868284229 63.863116511794146 L 333.7404679376083 63.863116511794146 L 333.7404679376083 63.71050750536102 L 335.9293760831889 63.71050750536102 L 335.9293760831889 63.55789849892784 L 337.7534662045061 63.55789849892784 L 337.7534662045061 63.25268048606148 L 337.9358752166378 63.25268048606148 L 337.9358752166378 63.1000714796283 L 338.48310225303294 63.1000714796283 L 338.48310225303294 62.94746247319512 L 338.66551126516464 62.94746247319512 L 338.66551126516464 62.79485346676199 L 339.7599653379549 62.79485346676199 L 339.7599653379549 62.64224446032881 L 339.94237435008665 62.64224446032881 L 339.94237435008665 62.48963545389563 L 340.4896013864818 62.48963545389563 L 340.4896013864818 62.33702644746245 L 341.21923743500867 62.33702644746245 L 341.21923743500867 62.18441744102927 L 341.5840554592721 62.18441744102927 L 341.5840554592721 62.031808434596144 L 342.313691507799 62.031808434596144 L 342.313691507799 61.87919942816296 L 342.4961005199307 61.87919942816296 L 342.4961005199307 61.421372408863476 L 343.22573656845753 61.421372408863476 L 343.22573656845753 61.11615439599717 L 343.7729636048527 61.11615439599717 L 343.7729636048527 60.65832737669763 L 343.9553726169844 60.65832737669763 L 343.9553726169844 60.5057183702645 L 344.3201906412478 60.5057183702645 L 344.3201906412478 60.35310936383132 L 344.50259965337955 60.35310936383132 L 344.50259965337955 60.20050035739814 L 344.68500866551125 60.20050035739814 L 344.68500866551125 59.742673338098655 L 345.2322357019064 59.742673338098655 L 345.2322357019064 59.43745532523229 L 345.59705372616986 59.43745532523229 L 345.59705372616986 59.28484631879911 L 345.77946273830156 59.28484631879911 L 345.77946273830156 59.13223731236599 L 347.0563258232236 59.13223731236599 L 347.0563258232236 58.82701929949968 L 347.60355285961873 58.82701929949968 L 347.60355285961873 58.6744102930665 L 347.78596187175043 58.6744102930665 L 347.78596187175043 58.52180128663332 L 347.96837088388213 58.52180128663332 L 347.96837088388213 58.36919228020014 L 348.5155979202773 58.36919228020014 L 348.5155979202773 58.06397426733383 L 348.698006932409 58.06397426733383 L 348.698006932409 57.91136526090065 L 349.24523396880414 57.91136526090065 L 349.24523396880414 57.60614724803429 L 349.974870017331 57.60614724803429 L 349.974870017331 57.45353824160111 L 351.61655112651647 57.45353824160111 L 351.61655112651647 57.1483202287348 L 352.1637781629116 57.1483202287348 L 352.1637781629116 56.84310221586844 L 353.44064124783364 56.84310221586844 L 353.44064124783364 56.69049320943532 L 354.89991334488735 56.69049320943532 L 354.89991334488735 56.537884203002136 L 355.08232235701905 56.537884203002136 L 355.08232235701905 56.38527519656901 L 355.8119584055459 56.38527519656901 L 355.8119584055459 56.23266619013583 L 355.9943674176776 56.23266619013583 L 355.9943674176776 55.774839170836344 L 356.35918544194107 55.774839170836344 L 356.35918544194107 55.62223016440316 L 357.6360485268631 55.62223016440316 L 357.6360485268631 55.3170121515368 L 359.0953206239168 55.3170121515368 L 359.0953206239168 55.011794138670496 L 359.46013864818025 55.011794138670496 L 359.46013864818025 54.859185132237315 L 359.82495667244365 54.859185132237315 L 359.82495667244365 54.55396711937095 L 360.1897746967071 54.55396711937095 L 360.1897746967071 54.40135811293777 L 361.4666377816291 54.40135811293777 L 361.4666377816291 54.24874910650465 L 361.8314558058925 54.24874910650465 L 361.8314558058925 54.096140100071466 L 362.0138648180243 54.096140100071466 L 362.0138648180243 53.94353109363834 L 362.196273830156 53.94353109363834 L 362.196273830156 53.79092208720516 L 363.2907279029463 53.79092208720516 L 363.2907279029463 53.63831308077198 L 365.11481802426346 53.63831308077198 L 365.11481802426346 53.485704074338855 L 365.47963604852686 53.485704074338855 L 365.47963604852686 53.333095067905674 L 366.3916811091854 53.333095067905674 L 366.3916811091854 53.18048606147249 L 366.57409012131717 53.18048606147249 L 366.57409012131717 53.02787705503931 L 367.8509532062392 53.02787705503931 L 367.8509532062392 52.87526804860613 L 368.39818024263434 52.87526804860613 L 368.39818024263434 52.72265904217301 L 368.76299826689774 52.72265904217301 L 368.76299826689774 52.570050035739825 L 369.4926343154246 52.570050035739825 L 369.4926343154246 52.11222301644028 L 371.31672443674177 52.11222301644028 L 371.31672443674177 51.80700500357398 L 371.49913344887347 51.80700500357398 L 371.49913344887347 51.654395997140796 L 371.68154246100517 51.654395997140796 L 371.68154246100517 51.50178699070767 L 372.2287694974003 51.50178699070767 L 372.2287694974003 51.34917798427449 L 372.9584055459272 51.34917798427449 L 372.9584055459272 51.19656897784131 L 373.14081455805893 51.19656897784131 L 373.14081455805893 51.043959971408185 L 373.8704506065858 51.043959971408185 L 373.8704506065858 50.891350964975004 L 374.41767764298095 50.891350964975004 L 374.41767764298095 50.73874195854182 L 375.1473136915078 50.73874195854182 L 375.1473136915078 50.58613295210864 L 375.3297227036395 50.58613295210864 L 375.3297227036395 49.975696926375974 L 375.69454072790296 49.975696926375974 L 375.69454072790296 49.82308791994279 L 375.87694974003466 49.82308791994279 L 375.87694974003466 49.51786990707649 L 376.971403812825 49.51786990707649 L 376.971403812825 49.36526090064331 L 377.3362218370884 49.36526090064331 L 377.3362218370884 49.212651894210126 L 378.61308492201044 49.212651894210126 L 378.61308492201044 49.060042887777 L 380.801993067591 49.060042887777 L 380.801993067591 48.90743388134382 L 380.9844020797227 48.90743388134382 L 380.9844020797227 48.602215868477515 L 381.53162911611787 48.602215868477515 L 381.53162911611787 48.29699785561115 L 381.89644714038127 48.29699785561115 L 381.89644714038127 47.99177984274485 L 382.9909012131716 47.99177984274485 L 382.9909012131716 47.839170836311666 L 383.1733102253033 47.839170836311666 L 383.1733102253033 47.686561829878485 L 384.08535528596184 47.686561829878485 L 384.08535528596184 47.38134381701212 L 384.2677642980936 47.38134381701212 L 384.2677642980936 47.228734810579 L 384.63258232235705 47.228734810579 L 384.63258232235705 47.07612580414582 L 386.09185441941077 47.07612580414582 L 386.09185441941077 46.770907791279456 L 386.45667244367417 46.770907791279456 L 386.45667244367417 46.61829878484633 L 386.6390814558059 46.61829878484633 L 386.6390814558059 46.313080771980026 L 387.7335355285962 46.313080771980026 L 387.7335355285962 46.007862759113664 L 387.9159445407279 46.007862759113664 L 387.9159445407279 45.85525375268048 L 388.09835355285963 45.85525375268048 L 388.09835355285963 45.55003573981418 L 388.46317157712303 45.55003573981418 L 388.46317157712303 45.244817726947815 L 390.46967071057196 45.244817726947815 L 390.46967071057196 44.63438170121515 L 391.3817157712305 44.63438170121515 L 391.3817157712305 44.329163688348785 L 392.2937608318891 44.329163688348785 L 392.2937608318891 44.17655468191566 L 393.02339688041593 44.17655468191566 L 393.02339688041593 44.02394567548248 L 393.7530329289428 44.02394567548248 L 393.7530329289428 43.871336669049356 L 393.9354419410745 43.871336669049356 L 393.9354419410745 43.718727662616175 L 394.48266897746964 43.718727662616175 L 394.48266897746964 43.566118656182994 L 394.66507798960134 43.566118656182994 L 394.66507798960134 43.41350964974981 L 394.8474870017331 43.41350964974981 L 394.8474870017331 43.26090064331669 L 395.0298960138648 43.26090064331669 L 395.0298960138648 42.650464617583964 L 397.9484402079723 42.650464617583964 L 397.9484402079723 42.49785561115084 L 398.67807625649914 42.49785561115084 L 398.67807625649914 42.34524660471766 L 399.2253032928943 42.34524660471766 L 399.2253032928943 42.19263759828448 L 399.407712305026 42.19263759828448 L 399.407712305026 42.040028591851296 L 399.95493934142115 42.040028591851296 L 399.95493934142115 41.887419585418115 L 400.31975736568455 41.887419585418115 L 400.31975736568455 41.58220157255181 L 400.86698440207977 41.58220157255181 L 400.86698440207977 41.429592566118686 L 401.04939341421147 41.429592566118686 L 401.04939341421147 40.81915654038602 L 401.7790294627383 40.81915654038602 L 401.7790294627383 40.66654753395284 L 402.6910745233969 40.66654753395284 L 402.6910745233969 40.513938527519656 L 404.3327556325823 40.513938527519656 L 404.3327556325823 40.361329521086475 L 405.4272097053726 40.361329521086475 L 405.4272097053726 39.90350250178699 L 408.1633448873484 39.90350250178699 L 408.1633448873484 39.75089349535381 L 410.1698440207972 39.75089349535381 L 410.1698440207972 39.598284488920626 L 410.53466204506066 39.598284488920626 L 410.89948006932406 39.598284488920626 L 410.89948006932406 39.445675482487445 L 413.2707972270364 39.445675482487445 L 413.2707972270364 39.29306647605432 L 413.45320623916814 39.29306647605432 L 413.45320623916814 39.14045746962114 L 415.27729636048525 39.14045746962114 L 415.27729636048525 38.987848463188016 L 415.8245233968804 38.987848463188016 L 415.8245233968804 38.68263045032165 L 416.55415944540727 38.68263045032165 L 416.55415944540727 38.53002144388853 L 416.91897746967066 38.53002144388853 L 416.91897746967066 38.37741243745535 L 420.93197573656846 38.37741243745535 L 420.93197573656846 38.072194424588986 L 421.29679376083186 38.072194424588986 L 421.29679376083186 37.919585418155805 L 421.844020797227 37.919585418155805 L 421.844020797227 37.76697641172268 L 422.2088388214905 37.76697641172268 L 422.2088388214905 37.6143674052895 L 422.7560658578856 37.6143674052895 L 422.7560658578856 37.46175839885632 L 422.93847487001733 37.46175839885632 L 422.93847487001733 37.30914939242314 L 423.4857019064125 37.30914939242314 L 423.4857019064125 37.156540385989956 L 424.5801559792028 37.156540385989956 L 424.5801559792028 37.00393137955683 L 426.4042461005199 37.00393137955683 L 426.4042461005199 36.85132237312365 L 426.5866551126516 36.85132237312365 L 426.5866551126516 36.69871336669047 L 427.6811091854419 36.69871336669047 L 427.6811091854419 36.546104360257345 L 427.8635181975736 36.546104360257345 L 427.8635181975736 36.24088634739104 L 428.957972270364 36.24088634739104 L 428.957972270364 36.08827734095786 L 429.1403812824957 36.08827734095786 L 429.1403812824957 35.7830593280915 L 431.69410745233967 35.7830593280915 L 431.69410745233967 35.630450321658316 L 433.70060658578853 35.630450321658316 L 433.70060658578853 35.32523230879201 L 434.24783362218375 35.32523230879201 L 434.24783362218375 35.17262330235883 L 435.342287694974 35.17262330235883 L 435.342287694974 35.02001429592565 L 436.07192374350086 35.02001429592565 L 436.07192374350086 34.86740528949247 L 436.9839688041594 34.86740528949247 L 436.9839688041594 34.714796283059286 L 437.1663778162912 34.714796283059286 L 437.1663778162912 34.56218727662616 L 437.3487868284229 34.56218727662616 L 437.3487868284229 34.40957827019298 L 437.89601386481803 34.40957827019298 L 437.89601386481803 34.104360257326675 L 438.07842287694973 34.104360257326675 L 438.07842287694973 33.64653323802719 L 439.35528596187174 33.64653323802719 L 439.35528596187174 33.49392423159401 L 440.08492201039866 33.49392423159401 L 440.08492201039866 33.34131522516083 L 440.63214904679376 33.34131522516083 L 440.63214904679376 33.188706218727646 L 440.9969670710572 33.188706218727646 L 440.9969670710572 33.03609721229452 L 441.72660311958407 33.03609721229452 L 441.72660311958407 32.88348820586134 L 442.09142114384747 32.88348820586134 L 442.09142114384747 32.57827019299498 L 442.8210571923743 32.57827019299498 L 442.8210571923743 32.4256611865618 L 445.7396013864818 32.4256611865618 L 445.7396013864818 31.96783416726231 L 445.9220103986135 31.96783416726231 L 445.9220103986135 31.81522516082913 L 447.1988734835355 31.81522516082913 L 447.1988734835355 31.51000714796288 L 447.563691507799 31.51000714796288 L 447.563691507799 31.3573981415297 L 447.7461005199307 31.3573981415297 L 447.7461005199307 31.20478913509652 L 448.84055459272093 31.20478913509652 L 448.84055459272093 31.052180128663338 L 449.2053726169844 31.052180128663338 L 449.2053726169844 30.899571122230157 L 450.4822357019064 30.899571122230157 L 450.4822357019064 30.59435310936385 L 451.02946273830156 30.59435310936385 L 451.02946273830156 30.44174410293067 L 452.1239168110919 30.44174410293067 L 452.1239168110919 30.28913509649749 L 453.4007798960139 30.28913509649749 L 453.4007798960139 30.136526090064308 L 454.8600519930676 30.136526090064308 L 454.8600519930676 29.983917083631127 L 456.86655112651647 29.983917083631127 L 456.86655112651647 29.831308077198003 L 457.9610051993068 29.831308077198003 L 457.9610051993068 29.67869907076482 L 458.1434142114385 29.67869907076482 L 458.1434142114385 29.52609006433164 L 458.5082322357019 29.52609006433164 L 458.5082322357019 29.37348105789846 L 458.87305025996534 29.37348105789846 L 458.87305025996534 29.220872051465335 L 459.23786828422874 29.220872051465335 L 459.23786828422874 29.06826304503221 L 460.8795493934142 29.06826304503221 L 460.8795493934142 28.91565403859903 L 461.7915944540728 28.91565403859903 L 461.7915944540728 28.76304503216585 L 462.5212305025997 28.76304503216585 L 462.5212305025997 28.610436025732668 L 463.9805025996534 28.610436025732668 L 463.9805025996534 28.457827019299486 L 464.52772963604855 28.457827019299486 L 464.52772963604855 28.305218012866362 L 464.89254766031195 28.305218012866362 L 464.89254766031195 28.15260900643318 L 465.6221837088388 28.15260900643318 L 465.6221837088388 28 L 470 28" stroke-linejoin="bevel" stroke-miterlimit="10" stroke-width="2" stroke-opacity="0.7"/></g><g><path fill="none" stroke="none"/><path fill="none" stroke="#616161" paint-order="fill stroke markers" d=" M 49 455 L 91.1 412.3 L 133.2 369.6 L 175.3 326.9 L 217.4 284.2 L 259.5 241.5 L 301.6 198.79999999999995 L 343.70000000000005 156.09999999999997 L 385.8 113.39999999999998 L 427.90000000000003 70.69999999999999 L 470 28" stroke-linejoin="bevel" stroke-miterlimit="10" stroke-dasharray="6"/></g></g></g><g><g clip-path="url(#lCNFOOQAppDQ)"><g><g/><g><path fill="#ffffff" stroke="#e5e5e5" paint-order="fill stroke markers" d=" M 386.140625 405 L 460 405 L 460 445 L 386.140625 445 L 386.140625 405 Z" fill-opacity="0.95" stroke-linejoin="bevel" stroke-miterlimit="10" stroke-opacity="0.5"/><text fill="#444444" stroke="none" font-family="helvetica" font-size="10pt" font-style="normal" font-weight="normal" text-decoration="normal" x="421.140625" y="425" text-anchor="start" dominant-baseline="central">ROC</text><g><path fill="none" stroke="#00BFA5" paint-order="fill stroke markers" d=" M 396.140625 425 L 416.140625 425" stroke-linejoin="bevel" stroke-miterlimit="10" stroke-width="2" stroke-opacity="0.7"/></g></g></g></g><g fill="#444444"><path fill="" stroke="none" d=""/><g transform="translate(49,23)"><path fill="none" stroke="none"/><text fill="" stroke="none" font-family="Helvetica Neue" font-size="10pt" font-style="normal" font-weight="bold" text-decoration="normal" x="0" y="0" text-anchor="start" dominant-baseline="text-after-edge">ROC curve by age group (AUC=0.764)</text></g></g></g><g><g fill="#444444"><path fill="none" stroke="black" paint-order="fill stroke markers" d=" M 49 455 L 470 455" stroke-linejoin="bevel" stroke-miterlimit="10"/><path fill="none" stroke="black" paint-order="fill stroke markers" d=" M 49 461 L 49 453" stroke-linejoin="bevel" stroke-miterlimit="10"/><path fill="none" stroke="black" paint-order="fill stroke markers" d=" M 133 461 L 133 453" stroke-linejoin="bevel" stroke-miterlimit="10"/><path fill="none" stroke="black" paint-order="fill stroke markers" d=" M 217 461 L 217 453" stroke-linejoin="bevel" stroke-miterlimit="10"/><path fill="none" stroke="black" paint-order="fill stroke markers" d=" M 302 461 L 302 453" stroke-linejoin="bevel" stroke-miterlimit="10"/><path fill="none" stroke="black" paint-order="fill stroke markers" d=" M 386 461 L 386 453" stroke-linejoin="bevel" stroke-miterlimit="10"/><path fill="none" stroke="black" paint-order="fill stroke markers" d=" M 470 461 L 470 453" stroke-linejoin="bevel" stroke-miterlimit="10"/><path fill="none" stroke="black" paint-order="fill stroke markers" d=" M 49 459 L 49 455" stroke-linejoin="bevel" stroke-miterlimit="10"/><path fill="none" stroke="black" paint-order="fill stroke markers" d=" M 66 459 L 66 455" stroke-linejoin="bevel" stroke-miterlimit="10"/><path fill="none" stroke="black" paint-order="fill stroke markers" d=" M 83 459 L 83 455" stroke-linejoin="bevel" stroke-miterlimit="10"/><path fill="none" stroke="black" paint-order="fill stroke markers" d=" M 100 459 L 100 455" stroke-linejoin="bevel" stroke-miterlimit="10"/><path fill="none" stroke="black" paint-order="fill stroke markers" d=" M 116 459 L 116 455" stroke-linejoin="bevel" stroke-miterlimit="10"/><path fill="none" stroke="black" paint-order="fill stroke markers" d=" M 133 459 L 133 455" stroke-linejoin="bevel" stroke-miterlimit="10"/><path fill="none" stroke="black" paint-order="fill stroke markers" d=" M 150 459 L 150 455" stroke-linejoin="bevel" stroke-miterlimit="10"/><path fill="none" stroke="black" paint-order="fill stroke markers" d=" M 167 459 L 167 455" stroke-linejoin="bevel" stroke-miterlimit="10"/><path fill="none" stroke="black" paint-order="fill stroke markers" d=" M 184 459 L 184 455" stroke-linejoin="bevel" stroke-miterlimit="10"/><path fill="none" stroke="black" paint-order="fill stroke markers" d=" M 201 459 L 201 455" stroke-linejoin="bevel" stroke-miterlimit="10"/><path fill="none" stroke="black" paint-order="fill stroke markers" d=" M 217 459 L 217 455" stroke-linejoin="bevel" stroke-miterlimit="10"/><path fill="none" stroke="black" paint-order="fill stroke markers" d=" M 234 459 L 234 455" stroke-linejoin="bevel" stroke-miterlimit="10"/><path fill="none" stroke="black" paint-order="fill stroke markers" d=" M 251 459 L 251 455" stroke-linejoin="bevel" stroke-miterlimit="10"/><path fill="none" stroke="black" paint-order="fill stroke markers" d=" M 268 459 L 268 455" stroke-linejoin="bevel" stroke-miterlimit="10"/><path fill="none" stroke="black" paint-order="fill stroke markers" d=" M 285 459 L 285 455" stroke-linejoin="bevel" stroke-miterlimit="10"/><path fill="none" stroke="black" paint-order="fill stroke markers" d=" M 302 459 L 302 455" stroke-linejoin="bevel" stroke-miterlimit="10"/><path fill="none" stroke="black" paint-order="fill stroke markers" d=" M 318 459 L 318 455" stroke-linejoin="bevel" stroke-miterlimit="10"/><path fill="none" stroke="black" paint-order="fill stroke markers" d=" M 335 459 L 335 455" stroke-linejoin="bevel" stroke-miterlimit="10"/><path fill="none" stroke="black" paint-order="fill stroke markers" d=" M 352 459 L 352 455" stroke-linejoin="bevel" stroke-miterlimit="10"/><path fill="none" stroke="black" paint-order="fill stroke markers" d=" M 369 459 L 369 455" stroke-linejoin="bevel" stroke-miterlimit="10"/><path fill="none" stroke="black" paint-order="fill stroke markers" d=" M 386 459 L 386 455" stroke-linejoin="bevel" stroke-miterlimit="10"/><path fill="none" stroke="black" paint-order="fill stroke markers" d=" M 403 459 L 403 455" stroke-linejoin="bevel" stroke-miterlimit="10"/><path fill="none" stroke="black" paint-order="fill stroke markers" d=" M 419 459 L 419 455" stroke-linejoin="bevel" stroke-miterlimit="10"/><path fill="none" stroke="black" paint-order="fill stroke markers" d=" M 436 459 L 436 455" stroke-linejoin="bevel" stroke-miterlimit="10"/><path fill="none" stroke="black" paint-order="fill stroke markers" d=" M 453 459 L 453 455" stroke-linejoin="bevel" stroke-miterlimit="10"/><path fill="" stroke="black" paint-order="fill stroke markers" d=" M 470 459 L 470 455" stroke-linejoin="bevel" stroke-miterlimit="10"/><g transform="translate(49,466) rotate(0,0,0)"><text fill="" stroke="none" font-family="helvetica" font-size="8pt" font-style="normal" font-weight="normal" text-decoration="normal" x="0" y="0" text-anchor="middle" dominant-baseline="hanging">0</text><g transform="rotate(0,0,0) translate(-49,-466) translate(133,466) rotate(0,0,0)"><text fill="" stroke="none" font-family="helvetica" font-size="8pt" font-style="normal" font-weight="normal" text-decoration="normal" x="0" y="0" text-anchor="middle" dominant-baseline="hanging">0.2</text><g transform="rotate(0,0,0) translate(-133,-466) translate(217,466) rotate(0,0,0)"><text fill="" stroke="none" font-family="helvetica" font-size="8pt" font-style="normal" font-weight="normal" text-decoration="normal" x="0" y="0" text-anchor="middle" dominant-baseline="hanging">0.4</text><g transform="rotate(0,0,0) translate(-217,-466) translate(302,466) rotate(0,0,0)"><text fill="" stroke="none" font-family="helvetica" font-size="8pt" font-style="normal" font-weight="normal" text-decoration="normal" x="0" y="0" text-anchor="middle" dominant-baseline="hanging">0.6</text><g transform="rotate(0,0,0) translate(-302,-466) translate(386,466) rotate(0,0,0)"><text fill="" stroke="none" font-family="helvetica" font-size="8pt" font-style="normal" font-weight="normal" text-decoration="normal" x="0" y="0" text-anchor="middle" dominant-baseline="hanging">0.8</text><g transform="rotate(0,0,0) translate(-386,-466) translate(470,466) rotate(0,0,0)"><text fill="" stroke="none" font-family="helvetica" font-size="8pt" font-style="normal" font-weight="normal" text-decoration="normal" x="0" y="0" text-anchor="middle" dominant-baseline="hanging">1</text><g transform="rotate(0,0,0) translate(-470,-466) translate(260,484) rotate(0,0,0)"><text fill="" stroke="none" font-family="Helvetica Neue" font-size="10pt" font-style="italic" font-weight="normal" text-decoration="normal" x="0" y="0" text-anchor="middle" dominant-baseline="hanging">False Positive Rate (FPR)</text><g transform="rotate(0,0,0) translate(-260,-484)"/></g></g></g></g></g></g></g></g><g fill="#444444"><path fill="none" stroke="black" paint-order="fill stroke markers" d=" M 49 455 L 49 28" stroke-linejoin="bevel" stroke-miterlimit="10"/><path fill="none" stroke="black" paint-order="fill stroke markers" d=" M 43 455 L 51 455" stroke-linejoin="bevel" stroke-miterlimit="10"/><path fill="none" stroke="black" paint-order="fill stroke markers" d=" M 43 370 L 51 370" stroke-linejoin="bevel" stroke-miterlimit="10"/><path fill="none" stroke="black" paint-order="fill stroke markers" d=" M 43 284 L 51 284" stroke-linejoin="bevel" stroke-miterlimit="10"/><path fill="none" stroke="black" paint-order="fill stroke markers" d=" M 43 199 L 51 199" stroke-linejoin="bevel" stroke-miterlimit="10"/><path fill="none" stroke="black" paint-order="fill stroke markers" d=" M 43 113 L 51 113" stroke-linejoin="bevel" stroke-miterlimit="10"/><path fill="none" stroke="black" paint-order="fill stroke markers" d=" M 43 28 L 51 28" stroke-linejoin="bevel" stroke-miterlimit="10"/><path fill="none" stroke="black" paint-order="fill stroke markers" d=" M 45 455 L 49 455" stroke-linejoin="bevel" stroke-miterlimit="10"/><path fill="none" stroke="black" paint-order="fill stroke markers" d=" M 45 438 L 49 438" stroke-linejoin="bevel" stroke-miterlimit="10"/><path fill="none" stroke="black" paint-order="fill stroke markers" d=" M 45 421 L 49 421" stroke-linejoin="bevel" stroke-miterlimit="10"/><path fill="none" stroke="black" paint-order="fill stroke markers" d=" M 45 404 L 49 404" stroke-linejoin="bevel" stroke-miterlimit="10"/><path fill="none" stroke="black" paint-order="fill stroke markers" d=" M 45 387 L 49 387" stroke-linejoin="bevel" stroke-miterlimit="10"/><path fill="none" stroke="black" paint-order="fill stroke markers" d=" M 45 370 L 49 370" stroke-linejoin="bevel" stroke-miterlimit="10"/><path fill="none" stroke="black" paint-order="fill stroke markers" d=" M 45 353 L 49 353" stroke-linejoin="bevel" stroke-miterlimit="10"/><path fill="none" stroke="black" paint-order="fill stroke markers" d=" M 45 335 L 49 335" stroke-linejoin="bevel" stroke-miterlimit="10"/><path fill="none" stroke="black" paint-order="fill stroke markers" d=" M 45 318 L 49 318" stroke-linejoin="bevel" stroke-miterlimit="10"/><path fill="none" stroke="black" paint-order="fill stroke markers" d=" M 45 301 L 49 301" stroke-linejoin="bevel" stroke-miterlimit="10"/><path fill="none" stroke="black" paint-order="fill stroke markers" d=" M 45 284 L 49 284" stroke-linejoin="bevel" stroke-miterlimit="10"/><path fill="none" stroke="black" paint-order="fill stroke markers" d=" M 45 267 L 49 267" stroke-linejoin="bevel" stroke-miterlimit="10"/><path fill="none" stroke="black" paint-order="fill stroke markers" d=" M 45 250 L 49 250" stroke-linejoin="bevel" stroke-miterlimit="10"/><path fill="none" stroke="black" paint-order="fill stroke markers" d=" M 45 233 L 49 233" stroke-linejoin="bevel" stroke-miterlimit="10"/><path fill="none" stroke="black" paint-order="fill stroke markers" d=" M 45 216 L 49 216" stroke-linejoin="bevel" stroke-miterlimit="10"/><path fill="none" stroke="black" paint-order="fill stroke markers" d=" M 45 199 L 49 199" stroke-linejoin="bevel" stroke-miterlimit="10"/><path fill="none" stroke="black" paint-order="fill stroke markers" d=" M 45 182 L 49 182" stroke-linejoin="bevel" stroke-miterlimit="10"/><path fill="none" stroke="black" paint-order="fill stroke markers" d=" M 45 165 L 49 165" stroke-linejoin="bevel" stroke-miterlimit="10"/><path fill="none" stroke="black" paint-order="fill stroke markers" d=" M 45 148 L 49 148" stroke-linejoin="bevel" stroke-miterlimit="10"/><path fill="none" stroke="black" paint-order="fill stroke markers" d=" M 45 130 L 49 130" stroke-linejoin="bevel" stroke-miterlimit="10"/><path fill="none" stroke="black" paint-order="fill stroke markers" d=" M 45 113 L 49 113" stroke-linejoin="bevel" stroke-miterlimit="10"/><path fill="none" stroke="black" paint-order="fill stroke markers" d=" M 45 96 L 49 96" stroke-linejoin="bevel" stroke-miterlimit="10"/><path fill="none" stroke="black" paint-order="fill stroke markers" d=" M 45 79 L 49 79" stroke-linejoin="bevel" stroke-miterlimit="10"/><path fill="none" stroke="black" paint-order="fill stroke markers" d=" M 45 62 L 49 62" stroke-linejoin="bevel" stroke-miterlimit="10"/><path fill="none" stroke="black" paint-order="fill stroke markers" d=" M 45 45 L 49 45" stroke-linejoin="bevel" stroke-miterlimit="10"/><path fill="" stroke="black" paint-order="fill stroke markers" d=" M 45 28 L 49 28" stroke-linejoin="bevel" stroke-miterlimit="10"/><g transform="translate(38,455) rotate(0,0,0)"><text fill="" stroke="none" font-family="helvetica" font-size="8pt" font-style="normal" font-weight="normal" text-decoration="normal" x="0" y="0" text-anchor="end" dominant-baseline="central">0</text><g transform="rotate(0,0,0) translate(-38,-455) translate(38,370) rotate(0,0,0)"><text fill="" stroke="none" font-family="helvetica" font-size="8pt" font-style="normal" font-weight="normal" text-decoration="normal" x="0" y="0" text-anchor="end" dominant-baseline="central">0.2</text><g transform="rotate(0,0,0) translate(-38,-370) translate(38,284) rotate(0,0,0)"><text fill="" stroke="none" font-family="helvetica" font-size="8pt" font-style="normal" font-weight="normal" text-decoration="normal" x="0" y="0" text-anchor="end" dominant-baseline="central">0.4</text><g transform="rotate(0,0,0) translate(-38,-284) translate(38,199) rotate(0,0,0)"><text fill="" stroke="none" font-family="helvetica" font-size="8pt" font-style="normal" font-weight="normal" text-decoration="normal" x="0" y="0" text-anchor="end" dominant-baseline="central">0.6</text><g transform="rotate(0,0,0) translate(-38,-199) translate(38,113) rotate(0,0,0)"><text fill="" stroke="none" font-family="helvetica" font-size="8pt" font-style="normal" font-weight="normal" text-decoration="normal" x="0" y="0" text-anchor="end" dominant-baseline="central">0.8</text><g transform="rotate(0,0,0) translate(-38,-113) translate(38,28) rotate(0,0,0)"><text fill="" stroke="none" font-family="helvetica" font-size="8pt" font-style="normal" font-weight="normal" text-decoration="normal" x="0" y="0" text-anchor="end" dominant-baseline="central">1</text><g transform="rotate(0,0,0) translate(-38,-28) translate(16,242) rotate(-90,0,0)"><text fill="" stroke="none" font-family="Helvetica Neue" font-size="10pt" font-style="italic" font-weight="normal" text-decoration="normal" x="0" y="0" text-anchor="middle" dominant-baseline="alphabetic">True Positive Rate (TPR)</text><g transform="rotate(90,0,0) translate(-16,-242)"/></g></g></g></g></g></g></g></g><g clip-path="url(#PsvqHKfUaqZv)"><g/></g></g></g></svg>