<svg version="1.1" xmlns="http://www.w3.org/2000/svg" xmlns:xlink="http://www.w3.org/1999/xlink" width="500" height="500" style="width: 500px; height: 500px;"><defs><clipPath id="iDPhOghpMwAd"><path fill="none" stroke="none" d=" M 49 28 L 470 28 L 470 455 L 49 455 L 49 28 Z"/></clipPath><clipPath id="hpCFQkgtcBRz"><path fill="none" stroke="none" d=" M 49 28 L 470 28 L 470 455 L 49 455 L 49 28 Z"/></clipPath></defs><g transform="scale(1,1) translate(0.5,0.5)"><rect fill="#ffffff" stroke="none" x="0" y="0" width="500" height="500"/><rect fill="#FFFFFF" stroke="none" x="49" y="28" width="421" height="427"/><rect fill="#ffffff" stroke="none" x="49" y="28" width="421" height="427"/><g><rect fill="none" stroke="#e5e5e5" x="49" y="28" width="421" height="427" stroke-linejoin="bevel" stroke-miterlimit="10"/></g><g clip-path="url(#iDPhOghpMwAd)"><g><g/><g/><g><path fill="none" stroke="none"/><path fill="none" stroke="#00BFA5" paint-order="fill stroke markers" d=" M 49 454.5114416475973 L 49 453.5343249427918 L 49.37422222222222 453.5343249427918 L 49.37422222222222 452.0686498855835 L 50.12266666666667 452.0686498855835 L 50.12266666666667 446.2059496567506 L 50.49688888888889 446.2059496567506 L 50.49688888888889 440.8318077803204 L 51.245333333333335 440.8318077803204 L 51.245333333333335 440.3432494279176 L 51.61955555555556 440.3432494279176 L 51.61955555555556 436.9233409610984 L 51.99377777777778 436.9233409610984 L 51.99377777777778 433.9919908466819 L 52.368 433.9919908466819 L 52.368 431.0606407322654 L 52.742222222222225 431.0606407322654 L 52.742222222222225 427.6407322654462 L 53.864888888888885 427.6407322654462 L 53.864888888888885 426.175057208238 L 54.239111111111114 426.175057208238 L 54.239111111111114 422.266590389016 L 54.61333333333333 422.266590389016 L 54.61333333333333 413.9610983981693 L 55.361777777777775 413.9610983981693 L 55.361777777777775 410.0526315789474 L 55.736 410.0526315789474 L 55.736 407.1212814645309 L 56.858666666666664 407.1212814645309 L 56.858666666666664 404.1899313501144 L 57.23288888888889 404.1899313501144 L 57.23288888888889 403.2128146453089 L 57.60711111111111 403.2128146453089 L 57.60711111111111 402.7242562929062 L 57.98133333333333 402.7242562929062 L 57.98133333333333 400.28146453089244 L 58.355555555555554 400.28146453089244 L 58.355555555555554 398.8157894736842 L 58.72977777777778 398.8157894736842 L 58.72977777777778 395.88443935926773 L 59.104 395.88443935926773 L 59.104 394.90732265446223 L 59.47822222222222 394.90732265446223 L 59.47822222222222 393.93020594965674 L 60.22666666666667 393.93020594965674 L 60.22666666666667 392.95308924485124 L 60.97511111111111 392.95308924485124 L 60.97511111111111 391.97597254004575 L 61.349333333333334 391.97597254004575 L 61.349333333333334 391.487414187643 L 61.723555555555556 391.487414187643 L 61.723555555555556 390.9988558352403 L 62.09777777777778 390.9988558352403 L 62.09777777777778 384.15903890160183 L 62.472 384.15903890160183 L 62.472 382.6933638443936 L 62.846222222222224 382.6933638443936 L 62.846222222222224 382.20480549199084 L 63.22044444444444 382.20480549199084 L 63.22044444444444 378.78489702517163 L 63.59466666666667 378.78489702517163 L 63.59466666666667 376.3421052631579 L 63.96888888888889 376.3421052631579 L 63.96888888888889 375.85354691075514 L 64.71733333333333 375.85354691075514 L 64.71733333333333 374.87643020594965 L 65.09155555555556 374.87643020594965 L 65.09155555555556 374.3878718535469 L 65.84 374.3878718535469 L 65.84 371.94508009153316 L 66.21422222222222 371.94508009153316 L 66.21422222222222 368.03661327231123 L 66.58844444444445 368.03661327231123 L 66.58844444444445 366.08237986270024 L 66.96266666666666 366.08237986270024 L 66.96266666666666 365.10526315789474 L 67.3368888888889 365.10526315789474 L 67.3368888888889 364.12814645308924 L 67.71111111111111 364.12814645308924 L 67.71111111111111 363.6395881006865 L 68.45955555555555 363.6395881006865 L 68.45955555555555 363.15102974828375 L 68.83377777777778 363.15102974828375 L 68.83377777777778 362.17391304347825 L 69.208 362.17391304347825 L 69.208 358.26544622425627 L 69.95644444444444 358.26544622425627 L 69.95644444444444 357.77688787185355 L 70.33066666666667 357.77688787185355 L 70.33066666666667 357.2883295194508 L 71.0791111111111 357.2883295194508 L 71.0791111111111 355.82265446224255 L 71.82755555555556 355.82265446224255 L 71.82755555555556 354.84553775743706 L 72.20177777777778 354.84553775743706 L 72.20177777777778 351.91418764302057 L 72.95022222222222 351.91418764302057 L 72.95022222222222 349.47139588100686 L 73.32444444444444 349.47139588100686 L 73.32444444444444 347.51716247139586 L 74.07288888888888 347.51716247139586 L 74.07288888888888 343.60869565217394 L 74.44711111111111 343.60869565217394 L 74.44711111111111 343.12013729977116 L 74.82133333333333 343.12013729977116 L 74.82133333333333 342.63157894736844 L 75.19555555555556 342.63157894736844 L 75.19555555555556 342.14302059496566 L 76.31822222222222 342.14302059496566 L 76.31822222222222 341.65446224256294 L 76.69244444444445 341.65446224256294 L 76.69244444444445 341.16590389016017 L 77.44088888888888 341.16590389016017 L 77.44088888888888 339.70022883295195 L 77.81511111111111 339.70022883295195 L 77.81511111111111 339.2116704805492 L 78.18933333333334 339.2116704805492 L 78.18933333333334 336.28032036613274 L 78.93777777777778 336.28032036613274 L 78.93777777777778 335.30320366132725 L 79.68622222222223 335.30320366132725 L 79.68622222222223 333.34897025171625 L 80.43466666666667 333.34897025171625 L 80.43466666666667 332.8604118993135 L 80.80888888888889 332.8604118993135 L 80.80888888888889 329.92906178489704 L 81.55733333333333 329.92906178489704 L 81.55733333333333 327.97482837528605 L 81.93155555555555 327.97482837528605 L 81.93155555555555 325.04347826086956 L 82.30577777777778 325.04347826086956 L 82.30577777777778 324.5549199084668 L 83.05422222222222 324.5549199084668 L 83.05422222222222 324.06636155606407 L 83.42844444444444 324.06636155606407 L 83.42844444444444 323.08924485125857 L 83.80266666666667 323.08924485125857 L 83.80266666666667 322.6006864988558 L 84.1768888888889 322.6006864988558 L 84.1768888888889 318.2036613272311 L 84.92533333333333 318.2036613272311 L 84.92533333333333 316.7379862700229 L 86.048 316.7379862700229 L 86.048 315.27231121281466 L 86.42222222222222 315.27231121281466 L 86.42222222222222 313.8066361556064 L 86.79644444444445 313.8066361556064 L 86.79644444444445 309.4096109839817 L 87.17066666666668 309.4096109839817 L 87.17066666666668 306.47826086956525 L 87.54488888888889 306.47826086956525 L 87.54488888888889 305.5011441647597 L 88.29333333333334 305.5011441647597 L 88.29333333333334 302.56979405034326 L 89.04177777777778 302.56979405034326 L 89.04177777777778 301.59267734553777 L 89.79022222222221 301.59267734553777 L 89.79022222222221 301.104118993135 L 90.53866666666667 301.104118993135 L 90.53866666666667 299.6384439359268 L 91.2871111111111 299.6384439359268 L 91.2871111111111 298.6613272311213 L 91.66133333333333 298.6613272311213 L 91.66133333333333 298.17276887871856 L 92.03555555555556 298.17276887871856 L 92.03555555555556 297.19565217391306 L 92.40977777777778 297.19565217391306 L 92.40977777777778 296.21853546910756 L 93.53244444444445 296.21853546910756 L 93.53244444444445 294.7528604118993 L 93.90666666666667 294.7528604118993 L 93.90666666666667 293.77574370709385 L 94.28088888888888 293.77574370709385 L 94.28088888888888 292.7986270022883 L 94.65511111111111 292.7986270022883 L 94.65511111111111 292.3100686498856 L 96.152 292.3100686498856 L 96.152 291.82151029748286 L 96.90044444444445 291.82151029748286 L 96.90044444444445 288.4016018306636 L 97.27466666666666 288.4016018306636 L 97.27466666666666 287.9130434782609 L 97.64888888888888 287.9130434782609 L 97.64888888888888 286.9359267734554 L 98.39733333333334 286.9359267734554 L 98.39733333333334 285.9588100686499 L 99.52 285.9588100686499 L 99.52 283.51601830663617 L 100.64266666666666 283.51601830663617 L 100.64266666666666 283.02745995423345 L 101.0168888888889 283.02745995423345 L 101.0168888888889 281.07322654462246 L 101.39111111111112 281.07322654462246 L 101.39111111111112 280.5846681922197 L 101.76533333333333 280.5846681922197 L 101.76533333333333 280.0961098398169 L 102.13955555555556 280.0961098398169 L 102.13955555555556 279.6075514874142 L 102.51377777777779 279.6075514874142 L 102.51377777777779 277.1647597254005 L 103.26222222222222 277.1647597254005 L 103.26222222222222 276.67620137299775 L 103.63644444444444 276.67620137299775 L 103.63644444444444 275.6990846681922 L 104.01066666666665 275.6990846681922 L 104.01066666666665 275.2105263157895 L 104.3848888888889 275.2105263157895 L 104.3848888888889 273.7448512585812 L 106.63022222222222 273.7448512585812 L 106.63022222222222 272.279176201373 L 107.00444444444445 272.279176201373 L 107.00444444444445 270.32494279176206 L 108.1271111111111 270.32494279176206 L 108.1271111111111 268.37070938215106 L 108.50133333333333 268.37070938215106 L 108.50133333333333 267.8821510297483 L 108.87555555555556 267.8821510297483 L 108.87555555555556 266.9050343249428 L 109.24977777777778 266.9050343249428 L 109.24977777777778 265.9279176201373 L 110.37244444444445 265.9279176201373 L 110.37244444444445 265.4393592677345 L 110.74666666666667 265.4393592677345 L 110.74666666666667 264.9508009153318 L 111.4951111111111 264.9508009153318 L 111.4951111111111 264.4622425629291 L 111.86933333333334 264.4622425629291 L 111.86933333333334 263.9736842105263 L 112.24355555555556 263.9736842105263 L 112.24355555555556 260.0652173913044 L 112.61777777777777 260.0652173913044 L 112.61777777777777 258.1109839816934 L 113.36622222222222 258.1109839816934 L 113.36622222222222 257.1338672768878 L 114.11466666666666 257.1338672768878 L 114.11466666666666 256.1567505720824 L 114.4888888888889 256.1567505720824 L 114.4888888888889 255.1796338672769 L 114.86311111111111 255.1796338672769 L 114.86311111111111 254.2025171624714 L 115.23733333333332 254.2025171624714 L 115.23733333333332 252.73684210526318 L 115.61155555555555 252.73684210526318 L 115.61155555555555 252.2482837528604 L 116.73422222222221 252.2482837528604 L 116.73422222222221 251.2711670480549 L 117.48266666666666 251.2711670480549 L 117.48266666666666 250.2940503432494 L 118.97955555555555 250.2940503432494 L 118.97955555555555 249.8054919908467 L 119.35377777777778 249.8054919908467 L 119.35377777777778 249.31693363844394 L 119.72800000000001 249.31693363844394 L 119.72800000000001 248.33981693363845 L 120.47644444444444 248.33981693363845 L 120.47644444444444 247.36270022883295 L 120.85066666666667 247.36270022883295 L 120.85066666666667 246.38558352402748 L 121.22488888888888 246.38558352402748 L 121.22488888888888 245.89702517162473 L 121.59911111111111 245.89702517162473 L 121.59911111111111 244.43135011441646 L 121.97333333333333 244.43135011441646 L 121.97333333333333 243.9427917620137 L 122.34755555555556 243.9427917620137 L 122.34755555555556 241.98855835240275 L 124.21866666666666 241.98855835240275 L 124.21866666666666 241.5 L 124.5928888888889 241.5 L 124.5928888888889 241.01144164759722 L 125.34133333333334 241.01144164759722 L 125.34133333333334 239.05720823798626 L 126.464 239.05720823798626 L 126.464 237.59153318077804 L 127.21244444444444 237.59153318077804 L 127.21244444444444 237.10297482837527 L 127.58666666666667 237.10297482837527 L 127.58666666666667 236.61441647597255 L 127.96088888888889 236.61441647597255 L 127.96088888888889 235.63729977116708 L 128.3351111111111 235.63729977116708 L 128.3351111111111 230.75171624713957 L 128.70933333333335 230.75171624713957 L 128.70933333333335 229.77459954233407 L 129.08355555555556 229.77459954233407 L 129.08355555555556 228.30892448512589 L 129.45777777777778 228.30892448512589 L 129.45777777777778 226.8432494279176 L 131.3288888888889 226.8432494279176 L 131.3288888888889 225.86613272311214 L 133.2 225.86613272311214 L 133.2 225.37757437070937 L 133.5742222222222 225.37757437070937 L 133.5742222222222 223.91189931350115 L 133.94844444444445 223.91189931350115 L 133.94844444444445 223.42334096109838 L 134.32266666666666 223.42334096109838 L 134.32266666666666 221.9576659038902 L 135.44533333333334 221.9576659038902 L 135.44533333333334 221.4691075514874 L 135.81955555555555 221.4691075514874 L 135.81955555555555 220.9805491990847 L 137.31644444444444 220.9805491990847 L 137.31644444444444 219.51487414187642 L 137.6906666666667 219.51487414187642 L 137.6906666666667 218.53775743707095 L 138.43911111111112 218.53775743707095 L 138.43911111111112 215.60640732265446 L 138.81333333333333 215.60640732265446 L 138.81333333333333 215.1178489702517 L 139.18755555555555 215.1178489702517 L 139.18755555555555 213.16361556064072 L 140.31022222222222 213.16361556064072 L 140.31022222222222 211.69794050343248 L 140.68444444444444 211.69794050343248 L 140.68444444444444 211.20938215102976 L 141.05866666666668 211.20938215102976 L 141.05866666666668 210.72082379862698 L 141.4328888888889 210.72082379862698 L 141.4328888888889 209.74370709382148 L 144.05244444444446 209.74370709382148 L 144.05244444444446 209.25514874141876 L 144.42666666666668 209.25514874141876 L 144.42666666666668 207.78947368421052 L 144.8008888888889 207.78947368421052 L 144.8008888888889 207.3009153318078 L 145.92355555555554 207.3009153318078 L 145.92355555555554 206.81235697940502 L 146.29777777777775 206.81235697940502 L 146.29777777777775 205.83524027459953 L 146.67200000000003 205.83524027459953 L 146.67200000000003 205.3466819221968 L 147.04622222222224 205.3466819221968 L 147.04622222222224 204.85812356979406 L 147.42044444444446 204.85812356979406 L 147.42044444444446 203.88100686498856 L 148.5431111111111 203.88100686498856 L 148.5431111111111 203.3924485125858 L 148.91733333333332 203.3924485125858 L 148.91733333333332 202.90389016018307 L 149.29155555555556 202.90389016018307 L 149.29155555555556 200.9496567505721 L 150.04 200.9496567505721 L 150.04 200.46109839816933 L 150.78844444444445 200.46109839816933 L 150.78844444444445 199.9725400457666 L 151.9111111111111 199.9725400457666 L 151.9111111111111 199.48398169336383 L 152.2853333333333 199.48398169336383 L 152.2853333333333 198.50686498855833 L 153.0337777777778 198.50686498855833 L 153.0337777777778 197.52974828375284 L 153.40800000000002 197.52974828375284 L 153.40800000000002 196.5526315789474 L 153.78222222222223 196.5526315789474 L 153.78222222222223 195.08695652173913 L 154.15644444444445 195.08695652173913 L 154.15644444444445 194.10983981693363 L 154.90488888888888 194.10983981693363 L 154.90488888888888 191.66704805491992 L 155.27911111111112 191.66704805491992 L 155.27911111111112 190.68993135011442 L 156.02755555555558 190.68993135011442 L 156.02755555555558 190.20137299771164 L 157.15022222222223 190.20137299771164 L 157.15022222222223 189.71281464530892 L 157.52444444444444 189.71281464530892 L 157.52444444444444 188.73569794050343 L 158.27288888888887 188.73569794050343 L 158.27288888888887 187.2700228832952 L 159.39555555555557 187.2700228832952 L 159.39555555555557 185.31578947368422 L 160.51822222222222 185.31578947368422 L 160.51822222222222 184.82723112128144 L 161.64088888888887 184.82723112128144 L 161.64088888888887 183.85011441647595 L 162.38933333333333 183.85011441647595 L 162.38933333333333 182.8729977116705 L 163.13777777777779 182.8729977116705 L 163.13777777777779 182.38443935926773 L 163.512 182.38443935926773 L 163.512 181.40732265446223 L 163.88622222222222 181.40732265446223 L 163.88622222222222 180.91876430205951 L 164.63466666666667 180.91876430205951 L 164.63466666666667 180.43020594965674 L 165.3831111111111 180.43020594965674 L 165.3831111111111 179.94164759725402 L 166.13155555555556 179.94164759725402 L 166.13155555555556 179.45308924485124 L 166.88 179.45308924485124 L 166.88 178.96453089244852 L 169.12533333333334 178.96453089244852 L 169.12533333333334 178.47597254004575 L 169.87377777777778 178.47597254004575 L 169.87377777777778 177.01029748283753 L 170.248 177.01029748283753 L 170.248 174.56750572082382 L 170.6222222222222 174.56750572082382 L 170.6222222222222 174.07894736842104 L 171.3706666666667 174.07894736842104 L 171.3706666666667 173.59038901601832 L 171.7448888888889 173.59038901601832 L 171.7448888888889 173.10183066361554 L 173.9902222222222 173.10183066361554 L 173.9902222222222 172.61327231121282 L 175.48711111111112 172.61327231121282 L 175.48711111111112 171.63615560640733 L 176.23555555555555 171.63615560640733 L 176.23555555555555 169.68192219679634 L 176.98399999999998 169.68192219679634 L 176.98399999999998 169.19336384439362 L 177.73244444444444 169.19336384439362 L 177.73244444444444 168.70480549199084 L 178.4808888888889 168.70480549199084 L 178.4808888888889 168.21624713958812 L 178.8551111111111 168.21624713958812 L 178.8551111111111 167.72768878718534 L 179.22933333333333 167.72768878718534 L 179.22933333333333 166.75057208237985 L 179.9777777777778 166.75057208237985 L 179.9777777777778 166.26201372997713 L 180.72622222222222 166.26201372997713 L 180.72622222222222 165.77345537757435 L 181.10044444444443 165.77345537757435 L 181.10044444444443 164.30778032036613 L 181.47466666666665 164.30778032036613 L 181.47466666666665 163.33066361556064 L 182.2231111111111 163.33066361556064 L 182.2231111111111 162.84210526315786 L 182.97155555555557 162.84210526315786 L 182.97155555555557 162.35354691075514 L 184.09422222222221 162.35354691075514 L 184.09422222222221 161.86498855835242 L 185.2168888888889 161.86498855835242 L 185.2168888888889 160.88787185354693 L 186.33955555555556 160.88787185354693 L 186.33955555555556 159.91075514874143 L 186.71377777777778 159.91075514874143 L 186.71377777777778 158.93363844393593 L 187.46222222222224 158.93363844393593 L 187.46222222222224 158.44508009153316 L 187.83644444444445 158.44508009153316 L 187.83644444444445 155.51372997711672 L 188.21066666666667 155.51372997711672 L 188.21066666666667 155.02517162471395 L 188.58488888888888 155.02517162471395 L 188.58488888888888 154.53661327231123 L 188.9591111111111 154.53661327231123 L 188.9591111111111 153.07093821510296 L 189.70755555555556 153.07093821510296 L 189.70755555555556 151.11670480549196 L 190.45600000000002 151.11670480549196 L 190.45600000000002 150.62814645308924 L 190.83022222222223 150.62814645308924 L 190.83022222222223 149.16247139588097 L 192.70133333333334 149.16247139588097 L 192.70133333333334 148.67391304347825 L 193.82399999999998 148.67391304347825 L 193.82399999999998 147.6967963386728 L 194.57244444444444 147.6967963386728 L 194.57244444444444 147.20823798627003 L 194.94666666666666 147.20823798627003 L 194.94666666666666 146.71967963386732 L 195.3208888888889 146.71967963386732 L 195.3208888888889 146.23112128146454 L 195.69511111111112 146.23112128146454 L 195.69511111111112 145.25400457665904 L 196.06933333333333 145.25400457665904 L 196.06933333333333 144.27688787185355 L 197.19199999999998 144.27688787185355 L 197.19199999999998 143.78832951945077 L 197.94044444444447 143.78832951945077 L 197.94044444444447 141.83409610983983 L 198.31466666666668 141.83409610983983 L 198.31466666666668 140.36842105263162 L 199.43733333333333 140.36842105263162 L 199.43733333333333 139.87986270022884 L 200.56 139.87986270022884 L 200.56 139.39130434782612 L 201.30844444444443 139.39130434782612 L 201.30844444444443 138.90274599542334 L 201.68266666666668 138.90274599542334 L 201.68266666666668 137.92562929061785 L 202.0568888888889 137.92562929061785 L 202.0568888888889 137.43707093821507 L 202.4311111111111 137.43707093821507 L 202.4311111111111 136.94851258581235 L 202.80533333333335 136.94851258581235 L 202.80533333333335 135.97139588100686 L 203.17955555555557 135.97139588100686 L 203.17955555555557 134.99427917620136 L 204.3022222222222 134.99427917620136 L 204.3022222222222 133.52860411899314 L 204.67644444444443 133.52860411899314 L 204.67644444444443 133.04004576659042 L 205.05066666666664 133.04004576659042 L 205.05066666666664 132.55148741418765 L 205.4248888888889 132.55148741418765 L 205.4248888888889 132.06292906178493 L 205.79911111111113 132.06292906178493 L 205.79911111111113 130.59725400457666 L 207.296 130.59725400457666 L 207.296 129.62013729977116 L 207.6702222222222 129.62013729977116 L 207.6702222222222 129.13157894736838 L 208.41866666666667 129.13157894736838 L 208.41866666666667 128.64302059496566 L 209.54133333333334 128.64302059496566 L 209.54133333333334 128.15446224256294 L 209.91555555555556 128.15446224256294 L 209.91555555555556 126.68878718535473 L 210.28977777777777 126.68878718535473 L 210.28977777777777 126.20022883295195 L 211.41244444444445 126.20022883295195 L 211.41244444444445 125.71167048054923 L 212.90933333333334 125.71167048054923 L 212.90933333333334 124.73455377574373 L 214.032 124.73455377574373 L 214.032 122.29176201372997 L 214.40622222222223 122.29176201372997 L 214.40622222222223 121.80320366132719 L 214.78044444444444 121.80320366132719 L 214.78044444444444 120.33752860411903 L 215.15466666666666 120.33752860411903 L 215.15466666666666 119.84897025171625 L 216.27733333333333 119.84897025171625 L 216.27733333333333 118.87185354691076 L 216.65155555555555 118.87185354691076 L 216.65155555555555 118.38329519450804 L 217.0257777777778 118.38329519450804 L 217.0257777777778 117.89473684210526 L 217.4 117.89473684210526 L 217.4 116.91762013729976 L 217.77422222222222 116.91762013729976 L 217.77422222222222 116.42906178489704 L 218.14844444444444 116.42906178489704 L 218.14844444444444 115.94050343249427 L 218.52266666666668 115.94050343249427 L 218.52266666666668 115.45194508009149 L 220.39377777777776 115.45194508009149 L 220.39377777777776 114.96338672768877 L 223.76177777777778 114.96338672768877 L 223.76177777777778 114.47482837528605 L 224.136 114.47482837528605 L 224.136 113.98627002288328 L 225.25866666666667 113.98627002288328 L 225.25866666666667 112.52059496567506 L 226.38133333333334 112.52059496567506 L 226.38133333333334 111.54347826086956 L 227.12977777777778 111.54347826086956 L 227.12977777777778 110.07780320366135 L 227.504 110.07780320366135 L 227.504 109.58924485125857 L 227.8782222222222 109.58924485125857 L 227.8782222222222 109.10068649885585 L 229.37511111111112 109.10068649885585 L 229.37511111111112 107.63501144164758 L 229.74933333333334 107.63501144164758 L 229.74933333333334 107.14645308924486 L 231.24622222222223 107.14645308924486 L 231.24622222222223 106.65789473684214 L 232.36888888888888 106.65789473684214 L 232.36888888888888 106.16933638443936 L 233.11733333333333 106.16933638443936 L 233.11733333333333 105.19221967963387 L 233.8657777777778 105.19221967963387 L 233.8657777777778 104.70366132723115 L 234.24 104.70366132723115 L 234.24 102.74942791762015 L 235.73688888888887 102.74942791762015 L 235.73688888888887 102.26086956521738 L 236.11111111111111 102.26086956521738 L 236.11111111111111 101.77231121281466 L 237.2337777777778 101.77231121281466 L 237.2337777777778 101.28375286041188 L 237.608 101.28375286041188 L 237.608 99.32951945080094 L 238.73066666666665 99.32951945080094 L 238.73066666666665 98.84096109839817 L 239.1048888888889 98.84096109839817 L 239.1048888888889 97.86384439359267 L 240.22755555555557 97.86384439359267 L 240.22755555555557 97.37528604118995 L 240.60177777777778 97.37528604118995 L 240.60177777777778 96.88672768878718 L 242.09866666666667 96.88672768878718 L 242.09866666666667 96.39816933638446 L 243.59555555555553 96.39816933638446 L 243.59555555555553 95.42105263157896 L 243.96977777777778 95.42105263157896 L 243.96977777777778 94.93249427917618 L 245.46666666666667 94.93249427917618 L 245.46666666666667 93.46681922196797 L 246.2151111111111 93.46681922196797 L 246.2151111111111 92.97826086956525 L 246.58933333333334 92.97826086956525 L 246.58933333333334 92.00114416475975 L 246.96355555555556 92.00114416475975 L 246.96355555555556 91.51258581235697 L 247.712 91.51258581235697 L 247.712 91.02402745995425 L 249.20888888888888 91.02402745995425 L 249.20888888888888 90.04691075514876 L 249.58311111111112 90.04691075514876 L 249.58311111111112 89.06979405034326 L 249.95733333333334 89.06979405034326 L 249.95733333333334 88.58123569794049 L 250.70577777777777 88.58123569794049 L 250.70577777777777 88.09267734553777 L 253.32533333333333 88.09267734553777 L 253.32533333333333 87.60411899313499 L 254.07377777777776 87.60411899313499 L 254.07377777777776 86.13844393592677 L 255.9448888888889 86.13844393592677 L 255.9448888888889 85.64988558352405 L 256.6933333333333 85.64988558352405 L 256.6933333333333 85.16132723112128 L 257.4417777777778 85.16132723112128 L 257.4417777777778 84.67276887871856 L 258.56444444444446 84.67276887871856 L 258.56444444444446 84.18421052631578 L 261.18399999999997 84.18421052631578 L 261.18399999999997 83.69565217391306 L 262.6808888888889 83.69565217391306 L 262.6808888888889 83.20709382151028 L 263.05511111111116 83.20709382151028 L 263.05511111111116 82.71853546910756 L 264.17777777777775 82.71853546910756 L 264.17777777777775 81.25286041189929 L 265.30044444444445 81.25286041189929 L 265.30044444444445 80.2757437070938 L 265.67466666666667 80.2757437070938 L 265.67466666666667 79.78718535469108 L 266.0488888888889 79.78718535469108 L 266.0488888888889 79.29862700228836 L 268.66844444444445 79.29862700228836 L 268.66844444444445 78.81006864988558 L 269.79111111111115 78.81006864988558 L 269.79111111111115 78.32151029748286 L 270.16533333333336 78.32151029748286 L 270.16533333333336 77.83295194508008 L 270.5395555555556 77.83295194508008 L 270.5395555555556 77.34439359267736 L 273.5333333333333 77.34439359267736 L 273.5333333333333 76.85583524027459 L 274.28177777777773 76.85583524027459 L 274.28177777777773 75.39016018306637 L 274.656 75.39016018306637 L 274.656 74.9016018306636 L 275.0302222222222 74.9016018306636 L 275.0302222222222 74.41304347826087 L 275.77866666666665 74.41304347826087 L 275.77866666666665 73.9244851258581 L 278.77244444444443 73.9244851258581 L 278.77244444444443 73.43592677345538 L 285.1342222222222 73.43592677345538 L 285.1342222222222 72.45881006864988 L 288.128 72.45881006864988 L 288.128 71.97025171624716 L 289.9991111111111 71.97025171624716 L 289.9991111111111 70.50457665903889 L 291.12177777777777 70.50457665903889 L 291.12177777777777 70.01601830663617 L 291.496 70.01601830663617 L 291.496 69.5274599542334 L 297.48355555555554 69.5274599542334 L 297.48355555555554 69.03890160183067 L 297.85777777777776 69.03890160183067 L 297.85777777777776 68.06178489702518 L 298.9804444444444 68.06178489702518 L 298.9804444444444 67.5732265446224 L 299.3546666666667 67.5732265446224 L 299.3546666666667 67.08466819221968 L 301.2257777777778 67.08466819221968 L 301.2257777777778 66.10755148741418 L 303.0968888888889 66.10755148741418 L 303.0968888888889 65.61899313501146 L 303.4711111111111 65.61899313501146 L 303.4711111111111 65.13043478260875 L 304.5937777777778 65.13043478260875 L 304.5937777777778 64.64187643020597 L 304.96799999999996 64.64187643020597 L 304.96799999999996 64.15331807780319 L 306.8391111111111 64.15331807780319 L 306.8391111111111 63.66475972540047 L 307.2133333333333 63.66475972540047 L 307.2133333333333 63.176201372997696 L 307.5875555555556 63.176201372997696 L 307.5875555555556 62.687643020594976 L 311.32977777777774 62.687643020594976 L 311.32977777777774 61.71052631578948 L 312.0782222222222 61.71052631578948 L 312.0782222222222 61.2219679633867 L 313.57511111111114 61.2219679633867 L 313.57511111111114 60.73340961098398 L 315.4462222222222 60.73340961098398 L 315.4462222222222 60.24485125858121 L 315.82044444444443 60.24485125858121 L 315.82044444444443 59.26773455377571 L 318.44 59.26773455377571 L 318.44 58.29061784897027 L 320.68533333333335 58.29061784897027 L 320.68533333333335 57.80205949656755 L 322.93066666666664 57.80205949656755 L 322.93066666666664 57.313501144164775 L 323.6791111111111 57.313501144164775 L 323.6791111111111 56.824942791762 L 324.42755555555556 56.824942791762 L 324.42755555555556 56.33638443935928 L 324.8017777777778 56.33638443935928 L 324.8017777777778 55.8478260869565 L 327.04711111111106 55.8478260869565 L 327.04711111111106 55.35926773455378 L 327.79555555555555 55.35926773455378 L 327.79555555555555 54.870709382151006 L 328.9182222222222 54.870709382151006 L 328.9182222222222 53.40503432494279 L 329.29244444444447 53.40503432494279 L 329.29244444444447 52.91647597254001 L 331.91200000000003 52.91647597254001 L 331.91200000000003 52.42791762013729 L 334.53155555555554 52.42791762013729 L 334.53155555555554 51.939359267734574 L 335.28000000000003 51.939359267734574 L 335.28000000000003 51.450800915331854 L 335.65422222222224 51.450800915331854 L 335.65422222222224 50.96224256292908 L 337.5253333333333 50.96224256292908 L 337.5253333333333 49.496567505720805 L 337.89955555555554 49.496567505720805 L 337.89955555555554 49.008009153318085 L 338.27377777777775 49.008009153318085 L 338.27377777777775 48.51945080091531 L 339.39644444444446 48.51945080091531 L 339.39644444444446 48.03089244851259 L 340.5191111111111 48.03089244851259 L 340.5191111111111 47.54233409610981 L 341.26755555555553 47.54233409610981 L 341.26755555555553 46.565217391304316 L 346.50666666666666 46.565217391304316 L 346.50666666666666 45.58810068649882 L 349.1262222222222 45.58810068649882 L 349.1262222222222 45.0995423340961 L 350.24888888888887 45.0995423340961 L 350.24888888888887 44.61098398169338 L 351.7457777777778 44.61098398169338 L 351.7457777777778 44.12242562929066 L 352.86844444444444 44.12242562929066 L 352.86844444444444 43.633867276887884 L 353.24266666666665 43.633867276887884 L 353.24266666666665 43.145308924485164 L 355.488 43.145308924485164 L 355.488 42.65675057208239 L 357.7333333333333 42.65675057208239 L 357.7333333333333 42.16819221967961 L 358.10755555555556 42.16819221967961 L 358.10755555555556 41.67963386727689 L 360.35288888888886 41.67963386727689 L 360.35288888888886 41.191075514874115 L 361.8497777777778 41.191075514874115 L 361.8497777777778 40.702517162471395 L 364.0951111111111 40.702517162471395 L 364.0951111111111 40.21395881006862 L 369.3342222222222 40.21395881006862 L 369.3342222222222 39.7254004576659 L 369.70844444444447 39.7254004576659 L 369.70844444444447 39.23684210526312 L 371.95377777777776 39.23684210526312 L 371.95377777777776 38.7482837528604 L 373.8248888888889 38.7482837528604 L 373.8248888888889 38.25972540045768 L 374.1991111111111 38.25972540045768 L 374.1991111111111 37.77116704805496 L 374.5733333333333 37.77116704805496 L 374.5733333333333 36.79405034324947 L 375.32177777777775 36.79405034324947 L 375.32177777777775 36.30549199084669 L 379.43822222222224 36.30549199084669 L 379.43822222222224 35.81693363844397 L 380.18666666666667 35.81693363844397 L 380.18666666666667 35.328375286041194 L 391.41333333333336 35.328375286041194 L 391.41333333333336 34.3512585812357 L 393.65866666666665 34.3512585812357 L 393.65866666666665 33.86270022883292 L 394.78133333333335 33.86270022883292 L 394.78133333333335 33.3741418764302 L 397.77511111111113 33.3741418764302 L 397.77511111111113 32.885583524027425 L 398.14933333333335 32.885583524027425 L 398.14933333333335 32.397025171624705 L 403.7626666666667 32.397025171624705 L 403.7626666666667 31.41990846681921 L 406.7564444444444 31.41990846681921 L 406.7564444444444 30.93135011441649 L 408.62755555555555 30.93135011441649 L 408.62755555555555 30.44279176201377 L 411.6213333333333 30.44279176201377 L 411.6213333333333 29.954233409610993 L 411.99555555555554 29.954233409610993 L 411.99555555555554 29.465675057208273 L 419.10577777777775 29.465675057208273 L 419.10577777777775 28.488558352402777 L 431.45511111111114 28.488558352402777 L 431.45511111111114 28 L 470 28" stroke-linejoin="bevel" stroke-miterlimit="10" stroke-width="2" stroke-dasharray="6"/></g><g><path fill="none" stroke="none"/><path fill="none" stroke="#536dfe" paint-order="fill stroke markers" d=" M 49 454.70202372644803 L 49 451.12630844382414 L 49.251643753735806 451.12630844382414 L 49.251643753735806 446.9546406140963 L 49.503287507471605 446.9546406140963 L 49.503287507471605 446.35868806699233 L 49.75493126120741 446.35868806699233 L 49.75493126120741 446.06071179344036 L 50.006575014943216 446.06071179344036 L 50.006575014943216 445.76273551988834 L 50.25821876867902 445.76273551988834 L 50.25821876867902 445.46475924633637 L 50.50986252241482 445.46475924633637 L 50.50986252241482 442.1870202372645 L 50.76150627615063 442.1870202372645 L 50.76150627615063 441.5910676901605 L 51.01315002988643 441.5910676901605 L 51.01315002988643 438.0153524075366 L 51.26479378362224 438.0153524075366 L 51.26479378362224 437.12142358688067 L 51.76808129109384 437.12142358688067 L 51.76808129109384 436.8234473133287 L 52.01972504482965 436.8234473133287 L 52.01972504482965 433.2477320307048 L 52.271368798565454 433.2477320307048 L 52.271368798565454 430.8639218422889 L 52.52301255230125 430.8639218422889 L 52.52301255230125 430.56594556873694 L 52.77465630603706 430.56594556873694 L 52.77465630603706 425.7983251919051 L 53.27794381350867 425.7983251919051 L 53.27794381350867 424.9043963712491 L 53.52958756724447 424.9043963712491 L 53.52958756724447 424.60642009769714 L 54.03287507471608 424.60642009769714 L 54.03287507471608 423.1165387299372 L 54.28451882845188 423.1165387299372 L 54.28451882845188 420.7327285415213 L 54.536162582187686 420.7327285415213 L 54.536162582187686 418.64689462665734 L 54.78780633592349 418.64689462665734 L 54.78780633592349 416.56106071179346 L 55.0394500896593 416.56106071179346 L 55.0394500896593 414.4752267969295 L 55.5427375971309 414.4752267969295 L 55.5427375971309 413.8792742498255 L 56.046025104602506 413.8792742498255 L 56.046025104602506 412.98534542916957 L 56.29766885833831 412.98534542916957 L 56.29766885833831 411.19748778785765 L 56.54931261207412 411.19748778785765 L 56.54931261207412 408.5157013258897 L 56.800956365809924 408.5157013258897 L 56.800956365809924 407.9197487787858 L 57.05260011954573 407.9197487787858 L 57.05260011954573 406.42986741102584 L 57.30424387328153 406.42986741102584 L 57.30424387328153 402.55617585485 L 57.555887627017334 402.55617585485 L 57.555887627017334 402.25819958129796 L 57.80753138075314 402.25819958129796 L 57.80753138075314 401.364270760642 L 58.05917513448894 401.364270760642 L 58.05917513448894 400.768318213538 L 59.06575014943216 400.768318213538 L 59.06575014943216 400.1723656664341 L 59.31739390316796 400.1723656664341 L 59.31739390316796 399.87438939288205 L 59.56903765690377 399.87438939288205 L 59.56903765690377 396.0006978367062 L 60.07232516437537 396.0006978367062 L 60.07232516437537 393.0209351011863 L 60.32396891811118 393.0209351011863 L 60.32396891811118 391.82903000697837 L 60.57561267184698 391.82903000697837 L 60.57561267184698 387.06140963014656 L 61.33054393305439 387.06140963014656 L 61.33054393305439 384.08164689462666 L 61.5821876867902 384.08164689462666 L 61.5821876867902 383.1877180739707 L 62.085475194261804 383.1877180739707 L 62.085475194261804 382.5917655268667 L 62.33711894799761 382.5917655268667 L 62.33711894799761 382.29378925331474 L 62.588762701733415 382.29378925331474 L 62.588762701733415 381.69783670621075 L 63.09205020920502 381.69783670621075 L 63.09205020920502 380.8039078855548 L 63.343693962940826 380.8039078855548 L 63.343693962940826 380.2079553384508 L 63.59533771667663 380.2079553384508 L 63.59533771667663 378.4200976971389 L 63.84698147041243 378.4200976971389 L 63.84698147041243 377.8241451500349 L 64.09862522414824 377.8241451500349 L 64.09862522414824 376.93021632937894 L 64.35026897788404 376.93021632937894 L 64.35026897788404 376.036287508723 L 64.60191273161985 376.036287508723 L 64.60191273161985 375.73831123517095 L 64.85355648535565 375.73831123517095 L 64.85355648535565 374.54640614096303 L 65.10520023909146 374.54640614096303 L 65.10520023909146 370.0767620376832 L 65.35684399282725 370.0767620376832 L 65.35684399282725 369.77878576413116 L 65.60848774656306 369.77878576413116 L 65.60848774656306 369.1828332170272 L 65.86013150029886 369.1828332170272 L 65.86013150029886 368.28890439637127 L 66.11177525403467 368.28890439637127 L 66.11177525403467 366.2030704815073 L 66.36341900777047 366.2030704815073 L 66.36341900777047 365.90509420795536 L 67.11835026897788 365.90509420795536 L 67.11835026897788 364.11723656664344 L 67.36999402271368 364.11723656664344 L 67.36999402271368 362.92533147243546 L 67.62163777644949 362.92533147243546 L 67.62163777644949 361.13747383112354 L 67.8732815301853 361.13747383112354 L 67.8732815301853 360.8394975575715 L 68.3765690376569 360.8394975575715 L 68.3765690376569 360.2435450104675 L 68.62821279139271 360.2435450104675 L 68.62821279139271 359.6475924633636 L 69.38314405260012 359.6475924633636 L 69.38314405260012 358.7536636427076 L 69.63478780633592 358.7536636427076 L 69.63478780633592 358.4556873691556 L 69.88643156007173 358.4556873691556 L 69.88643156007173 358.15771109560364 L 70.13807531380753 358.15771109560364 L 70.13807531380753 357.8597348220517 L 70.38971906754334 357.8597348220517 L 70.38971906754334 356.96580600139566 L 70.64136282127913 356.96580600139566 L 70.64136282127913 356.36985345429173 L 70.89300657501494 356.36985345429173 L 70.89300657501494 356.0718771807397 L 71.14465032875074 356.0718771807397 L 71.14465032875074 355.4759246336357 L 71.39629408248655 355.4759246336357 L 71.39629408248655 354.58199581297976 L 71.64793783622235 354.58199581297976 L 71.64793783622235 352.4961618981158 L 71.89958158995816 352.4961618981158 L 71.89958158995816 349.516399162596 L 72.15122534369397 349.516399162596 L 72.15122534369397 349.21842288904395 L 72.40286909742977 349.21842288904395 L 72.40286909742977 348.02651779483597 L 72.65451285116558 348.02651779483597 L 72.65451285116558 347.13258897418007 L 73.66108786610879 347.13258897418007 L 73.66108786610879 344.15282623866017 L 74.1643753735804 344.15282623866017 L 74.1643753735804 343.8548499651082 L 74.41601912731619 343.8548499651082 L 74.41601912731619 343.25889741800415 L 74.9193066347878 343.25889741800415 L 74.9193066347878 342.3649685973482 L 75.17095038852361 342.3649685973482 L 75.17095038852361 338.78925331472436 L 75.42259414225941 338.78925331472436 L 75.42259414225941 336.7034193998604 L 75.67423789599522 336.7034193998604 L 75.67423789599522 336.1074668527565 L 75.92588164973102 336.1074668527565 L 75.92588164973102 335.51151430565244 L 76.17752540346683 335.51151430565244 L 76.17752540346683 335.2135380321005 L 76.42916915720262 335.2135380321005 L 76.42916915720262 334.02163293789255 L 76.68081291093844 334.02163293789255 L 76.68081291093844 333.42568039078856 L 76.93245666467423 333.42568039078856 L 76.93245666467423 333.1277041172366 L 77.43574417214585 333.1277041172366 L 77.43574417214585 332.82972784368457 L 77.68738792588165 332.82972784368457 L 77.68738792588165 331.63782274947664 L 77.93903167961744 331.63782274947664 L 77.93903167961744 331.04187020237265 L 78.19067543335326 331.04187020237265 L 78.19067543335326 329.5519888346127 L 78.44231918708905 329.5519888346127 L 78.44231918708905 329.25401256106073 L 78.69396294082486 329.25401256106073 L 78.69396294082486 328.06210746685275 L 79.19725044829647 328.06210746685275 L 79.19725044829647 327.46615491974876 L 79.70053795576808 327.46615491974876 L 79.70053795576808 326.57222609909286 L 80.2038254632397 326.57222609909286 L 80.2038254632397 323.59246336357296 L 80.4554692169755 323.59246336357296 L 80.4554692169755 322.69853454291695 L 80.7071129707113 322.69853454291695 L 80.7071129707113 319.1228192602931 L 80.9587567244471 319.1228192602931 L 80.9587567244471 317.63293789253316 L 81.2104004781829 317.63293789253316 L 81.2104004781829 317.33496161898114 L 81.46204423191871 317.33496161898114 L 81.46204423191871 316.1430565247732 L 81.7136879856545 316.1430565247732 L 81.7136879856545 315.84508025122125 L 82.21697549312611 315.84508025122125 L 82.21697549312611 315.2491277041172 L 82.97190675433353 315.2491277041172 L 82.97190675433353 314.65317515701327 L 83.22355050806934 314.65317515701327 L 83.22355050806934 312.5673412421493 L 83.47519426180514 312.5673412421493 L 83.47519426180514 311.97138869504533 L 83.72683801554095 311.97138869504533 L 83.72683801554095 311.3754361479414 L 84.98505678421996 311.3754361479414 L 84.98505678421996 308.99162595952544 L 85.23670053795577 308.99162595952544 L 85.23670053795577 307.5017445917655 L 85.73998804542737 307.5017445917655 L 85.73998804542737 304.5219818562456 L 85.99163179916317 304.5219818562456 L 85.99163179916317 302.7341242149337 L 86.24327555289898 302.7341242149337 L 86.24327555289898 301.84019539427777 L 86.49491930663478 301.84019539427777 L 86.49491930663478 300.3503140265178 L 86.74656306037059 300.3503140265178 L 86.74656306037059 300.0523377529658 L 86.9982068141064 300.0523377529658 L 86.9982068141064 299.15840893230984 L 87.2498505678422 299.15840893230984 L 87.2498505678422 298.5624563852059 L 87.50149432157801 298.5624563852059 L 87.50149432157801 297.96650383810186 L 88.25642558278541 297.96650383810186 L 88.25642558278541 297.3705512909979 L 88.50806933652123 297.3705512909979 L 88.50806933652123 296.4766224703419 L 88.75971309025702 296.4766224703419 L 88.75971309025702 296.17864619678994 L 89.26300059772863 296.17864619678994 L 89.26300059772863 295.582693649686 L 89.51464435146443 295.582693649686 L 89.51464435146443 294.98674110258196 L 89.76628810520023 294.98674110258196 L 89.76628810520023 294.68876482903 L 90.52121936640765 294.68876482903 L 90.52121936640765 294.390788555478 L 91.27615062761507 294.390788555478 L 91.27615062761507 293.49685973482207 L 91.52779438135087 293.49685973482207 L 91.52779438135087 292.3049546406141 L 91.77943813508668 292.3049546406141 L 91.77943813508668 291.7090020935101 L 92.03108188882248 291.7090020935101 L 92.03108188882248 290.8150732728542 L 92.28272564255828 290.8150732728542 L 92.28272564255828 290.51709699930217 L 92.78601315002989 290.51709699930217 L 92.78601315002989 289.0272156315422 L 93.54094441123729 289.0272156315422 L 93.54094441123729 285.45150034891833 L 93.7925881649731 285.45150034891833 L 93.7925881649731 285.15352407536636 L 94.0442319187089 285.15352407536636 L 94.0442319187089 284.8555478018144 L 94.29587567244471 284.8555478018144 L 94.29587567244471 282.17376133984646 L 94.54751942618051 282.17376133984646 L 94.54751942618051 280.98185624563854 L 95.30245068738793 280.98185624563854 L 95.30245068738793 280.6838799720865 L 95.80573819485954 280.6838799720865 L 95.80573819485954 280.0879274249826 L 96.30902570233114 280.0879274249826 L 96.30902570233114 278.00209351011864 L 96.56066945606695 278.00209351011864 L 96.56066945606695 276.5122121423587 L 96.81231320980275 276.5122121423587 L 96.81231320980275 276.21423586880667 L 97.06395696353854 276.21423586880667 L 97.06395696353854 274.42637822749475 L 97.31560071727435 274.42637822749475 L 97.31560071727435 274.1284019539428 L 97.81888822474596 274.1284019539428 L 97.81888822474596 273.8304256803908 L 98.07053197848177 273.8304256803908 L 98.07053197848177 272.63852058618284 L 98.57381948595338 272.63852058618284 L 98.57381948595338 270.5526866713189 L 98.82546323968919 270.5526866713189 L 98.82546323968919 269.9567341242149 L 99.07710699342499 269.9567341242149 L 99.07710699342499 269.36078157711097 L 99.3287507471608 269.36078157711097 L 99.3287507471608 268.168876482903 L 100.0836820083682 268.168876482903 L 100.0836820083682 267.57292393579905 L 100.58696951583981 267.57292393579905 L 100.58696951583981 265.7850662944871 L 100.8386132695756 265.7850662944871 L 100.8386132695756 264.8911374738311 L 101.09025702331141 264.8911374738311 L 101.09025702331141 263.69923237962314 L 101.34190077704721 263.69923237962314 L 101.34190077704721 263.4012561060712 L 101.84518828451883 263.4012561060712 L 101.84518828451883 263.1032798325192 L 102.09683203825463 263.1032798325192 L 102.09683203825463 261.61339846475926 L 103.10340705319784 261.61339846475926 L 103.10340705319784 260.7194696441033 L 103.35505080693365 260.7194696441033 L 103.35505080693365 260.1235170969993 L 103.60669456066947 260.1235170969993 L 103.60669456066947 259.82554082344734 L 103.85833831440524 259.82554082344734 L 103.85833831440524 259.5275645498953 L 104.10998206814106 259.5275645498953 L 104.10998206814106 258.3356594556874 L 104.36162582187687 258.3356594556874 L 104.36162582187687 257.7397069085834 L 104.61326957561266 257.7397069085834 L 104.61326957561266 257.4417306350314 L 104.86491332934847 257.4417306350314 L 104.86491332934847 257.1437543614794 L 105.11655708308427 257.1437543614794 L 105.11655708308427 256.24982554082345 L 105.61984459055589 256.24982554082345 L 105.61984459055589 255.35589672016746 L 106.3747758517633 255.35589672016746 L 106.3747758517633 255.05792044661547 L 107.12970711297072 255.05792044661547 L 107.12970711297072 252.9720865317516 L 107.38135086670653 252.9720865317516 L 107.38135086670653 251.7801814375436 L 108.89121338912133 251.7801814375436 L 108.89121338912133 251.4822051639916 L 109.14285714285714 251.4822051639916 L 109.14285714285714 251.1842288904396 L 110.90436341900778 251.1842288904396 L 110.90436341900778 250.29030006978365 L 111.15600717274359 250.29030006978365 L 111.15600717274359 249.9923237962317 L 111.40765092647938 249.9923237962317 L 111.40765092647938 249.6943475226797 L 111.91093843395099 249.6943475226797 L 111.91093843395099 249.3963712491277 L 112.16258218768678 249.3963712491277 L 112.16258218768678 249.09839497557573 L 112.66586969515839 249.09839497557573 L 112.66586969515839 247.90648988136778 L 112.9175134488942 247.90648988136778 L 112.9175134488942 247.31053733426376 L 113.16915720263 247.31053733426376 L 113.16915720263 246.4166085136078 L 113.67244471010162 246.4166085136078 L 113.67244471010162 246.11863224005583 L 113.92408846383742 246.11863224005583 L 113.92408846383742 245.52267969295184 L 114.17573221757321 245.52267969295184 L 114.17573221757321 244.33077459874391 L 114.42737597130902 244.33077459874391 L 114.42737597130902 243.43684577808793 L 114.67901972504484 243.43684577808793 L 114.67901972504484 241.64898813677598 L 114.93066347878063 241.64898813677598 L 114.93066347878063 241.053035589672 L 115.18230723251644 241.053035589672 L 115.18230723251644 239.86113049546407 L 115.43395098625224 239.86113049546407 L 115.43395098625224 239.56315422191207 L 115.93723849372385 239.56315422191207 L 115.93723849372385 239.26517794836008 L 116.69216975493126 239.26517794836008 L 116.69216975493126 238.3712491277041 L 117.44710101613867 238.3712491277041 L 117.44710101613867 238.07327285415212 L 117.69874476987448 238.07327285415212 L 117.69874476987448 237.47732030704813 L 118.70531978481769 237.47732030704813 L 118.70531978481769 236.8813677599442 L 119.4602510460251 236.8813677599442 L 119.4602510460251 236.58339148639217 L 119.71189479976091 236.58339148639217 L 119.71189479976091 236.2854152128402 L 120.21518230723251 236.2854152128402 L 120.21518230723251 234.49755757152826 L 120.71846981470414 234.49755757152826 L 120.71846981470414 233.6036287508723 L 120.97011356843993 233.6036287508723 L 120.97011356843993 233.0076762037683 L 122.22833233711896 233.0076762037683 L 122.22833233711896 232.41172365666432 L 122.98326359832636 232.41172365666432 L 122.98326359832636 232.11374738311235 L 123.23490735206217 232.11374738311235 L 123.23490735206217 230.02791346824844 L 123.48655110579797 230.02791346824844 L 123.48655110579797 229.13398464759248 L 124.49312612074118 229.13398464759248 L 124.49312612074118 228.83600837404046 L 124.99641362821279 228.83600837404046 L 124.99641362821279 227.34612700628054 L 125.24805738194858 227.34612700628054 L 125.24805738194858 227.04815073272854 L 125.4997011356844 227.04815073272854 L 125.4997011356844 226.45219818562458 L 126.50627615062761 226.45219818562458 L 126.50627615062761 226.15422191207256 L 126.75791990436342 226.15422191207256 L 126.75791990436342 225.55826936496857 L 126.75791990436342 224.96231681786463 L 127.51285116557082 224.96231681786463 L 127.51285116557082 224.06838799720867 L 128.01613867304246 224.06838799720867 L 128.01613867304246 222.8764829030007 L 129.02271368798566 222.8764829030007 L 129.02271368798566 222.28053035589673 L 129.27435744172146 222.28053035589673 L 129.27435744172146 221.68457780879274 L 129.52600119545727 221.68457780879274 L 129.52600119545727 220.79064898813678 L 130.02928870292885 220.79064898813678 L 130.02928870292885 220.1946964410328 L 130.2809324566647 220.1946964410328 L 130.2809324566647 219.30076762037683 L 130.53257621040046 219.30076762037683 L 130.53257621040046 217.81088625261685 L 130.7842199641363 217.81088625261685 L 130.7842199641363 217.21493370551292 L 131.28750747160788 217.21493370551292 L 131.28750747160788 216.9169574319609 L 132.5457262402869 216.9169574319609 L 132.5457262402869 216.61898115840893 L 133.3006575014943 216.61898115840893 L 133.3006575014943 215.72505233775297 L 133.55230125523013 215.72505233775297 L 133.55230125523013 214.53314724354502 L 134.81052002390913 214.53314724354502 L 134.81052002390913 213.34124214933703 L 135.06216377764497 213.34124214933703 L 135.06216377764497 213.04326587578507 L 135.31380753138075 213.04326587578507 L 135.31380753138075 212.7452896022331 L 135.56545128511655 212.7452896022331 L 135.56545128511655 210.95743196092116 L 136.06873879258816 210.95743196092116 L 136.06873879258816 210.65945568736916 L 136.32038254632397 210.65945568736916 L 136.32038254632397 210.36147941381716 L 136.57202630005978 210.36147941381716 L 136.57202630005978 209.76552686671317 L 136.82367005379558 209.76552686671317 L 136.82367005379558 208.27564549895322 L 137.07531380753136 208.27564549895322 L 137.07531380753136 207.38171667829727 L 137.578601315003 207.38171667829727 L 137.578601315003 205.29588276343335 L 137.8302450687388 205.29588276343335 L 138.5851763299462 205.29588276343335 L 138.5851763299462 203.8060013956734 L 138.83682008368203 203.8060013956734 L 138.83682008368203 203.50802512212144 L 139.0884638374178 203.50802512212144 L 139.0884638374178 203.21004884856947 L 139.3401075911536 203.21004884856947 L 139.3401075911536 202.31612002791346 L 140.09503885236103 202.31612002791346 L 140.09503885236103 201.42219120725747 L 140.34668260609683 201.42219120725747 L 140.34668260609683 201.1242149337055 L 140.59832635983264 201.1242149337055 L 140.59832635983264 200.82623866015354 L 140.84997011356842 200.82623866015354 L 140.84997011356842 200.23028611304954 L 141.85654512851164 200.23028611304954 L 141.85654512851164 199.93230983949758 L 142.10818888224745 199.93230983949758 L 142.10818888224745 198.44242847173763 L 142.35983263598325 198.44242847173763 L 142.35983263598325 197.84647592463364 L 142.6114763897191 197.84647592463364 L 142.6114763897191 197.2505233775297 L 143.8696951583981 197.2505233775297 L 143.8696951583981 196.6545708304257 L 144.1213389121339 196.6545708304257 L 144.1213389121339 196.3565945568737 L 144.3729826658697 196.3565945568737 L 144.3729826658697 193.97278436845778 L 144.6246264196055 193.97278436845778 L 144.6246264196055 192.7808792742498 L 144.8762701733413 192.7808792742498 L 144.8762701733413 191.88695045359384 L 145.37955768081292 191.88695045359384 L 145.37955768081292 191.58897418004187 L 145.88284518828453 191.58897418004187 L 145.88284518828453 190.99302163293788 L 146.1344889420203 190.99302163293788 L 146.1344889420203 190.39706908583395 L 146.1344889420203 189.503140265178 L 146.38613269575615 189.503140265178 L 146.38613269575615 188.907187718074 L 146.88942020322773 188.907187718074 L 146.88942020322773 188.60921144452197 L 147.14106395696354 188.60921144452197 L 147.14106395696354 187.71528262386602 L 147.64435146443515 187.71528262386602 L 147.64435146443515 187.417306350314 L 148.39928272564256 187.417306350314 L 148.39928272564256 186.52337752965803 L 148.90257023311415 186.52337752965803 L 148.90257023311415 186.22540125610607 L 149.90914524805737 186.22540125610607 L 149.90914524805737 185.03349616189809 L 150.1607890017932 185.03349616189809 L 150.1607890017932 184.73551988834612 L 150.41243275552898 184.73551988834612 L 150.41243275552898 184.43754361479415 L 151.1673640167364 184.43754361479415 L 151.1673640167364 183.5436147941382 L 151.4190077704722 183.5436147941382 L 151.4190077704722 183.24563852058617 L 151.670651524208 183.24563852058617 L 151.670651524208 182.64968597348224 L 151.92229527794382 182.64968597348224 L 151.92229527794382 182.3517096999302 L 152.17393903167962 182.3517096999302 L 152.17393903167962 181.75575715282628 L 152.92887029288704 181.75575715282628 L 152.92887029288704 181.1598046057223 L 153.43215780035865 181.1598046057223 L 153.43215780035865 180.86182833217032 L 153.68380155409443 180.86182833217032 L 153.68380155409443 180.26587578506633 L 154.18708906156604 180.26587578506633 L 154.18708906156604 179.0739706908583 L 154.43873281530185 179.0739706908583 L 154.43873281530185 178.47801814375435 L 154.94202032277346 178.47801814375435 L 154.94202032277346 177.28611304954637 L 155.19366407650926 177.28611304954637 L 155.19366407650926 176.9881367759944 L 155.44530783024507 176.9881367759944 L 155.44530783024507 176.69016050244244 L 156.2002390914525 176.69016050244244 L 156.2002390914525 176.39218422889041 L 156.9551703526599 176.39218422889041 L 156.9551703526599 175.2002791346825 L 157.20681410639568 175.2002791346825 L 157.20681410639568 173.41242149337057 L 157.4584578601315 173.41242149337057 L 157.4584578601315 173.1144452198186 L 157.7101016138673 173.1144452198186 L 157.7101016138673 172.51849267271461 L 158.21338912133893 172.51849267271461 L 158.21338912133893 171.6245638520586 L 159.21996413628213 171.6245638520586 L 159.21996413628213 171.0286113049546 L 160.22653915122532 171.0286113049546 L 160.22653915122532 170.43265875785062 L 160.47818290496116 170.43265875785062 L 160.47818290496116 170.13468248429865 L 161.23311416616855 170.13468248429865 L 161.23311416616855 169.53872993719466 L 161.48475791990438 169.53872993719466 L 161.48475791990438 168.94277739009073 L 161.73640167364016 168.94277739009073 L 161.73640167364016 168.34682484298673 L 162.23968918111177 168.34682484298673 L 162.23968918111177 167.75087229588274 L 162.99462044231922 167.75087229588274 L 162.99462044231922 167.1549197487788 L 163.7495517035266 167.1549197487788 L 163.7495517035266 166.85694347522679 L 164.25283921099822 166.85694347522679 L 164.25283921099822 166.55896720167482 L 164.50448296473402 166.55896720167482 L 164.50448296473402 165.66503838101886 L 164.7561267184698 165.66503838101886 L 164.7561267184698 165.06908583391487 L 165.25941422594144 165.06908583391487 L 165.25941422594144 164.7711095603629 L 165.51105797967722 164.7711095603629 L 165.51105797967722 164.47313328681093 L 166.01434548714883 164.47313328681093 L 166.01434548714883 163.87718073970694 L 166.26598924088464 163.87718073970694 L 166.26598924088464 162.98325191905093 L 167.02092050209205 162.98325191905093 L 167.02092050209205 162.6852756454989 L 169.03407053197847 162.6852756454989 L 169.03407053197847 162.38729937194694 L 169.7890017931859 162.38729937194694 L 169.7890017931859 161.79134682484295 L 170.04064554692172 161.79134682484295 L 170.04064554692172 160.897418004187 L 171.29886431560072 160.897418004187 L 171.29886431560072 160.00348918353103 L 171.55050806933653 160.00348918353103 L 171.55050806933653 159.70551290997906 L 171.80215182307234 159.70551290997906 L 172.0537955768081 159.4075366364271 L 172.30543933054395 159.4075366364271 L 172.30543933054395 159.10956036287507 L 172.55708308427972 159.10956036287507 L 172.55708308427972 158.51360781577114 L 174.06694560669456 158.51360781577114 L 174.06694560669456 158.2156315422191 L 175.32516437537356 158.2156315422191 L 175.32516437537356 157.91765526866715 L 176.080095636581 157.91765526866715 L 176.080095636581 157.32170272156316 L 176.33173939031678 157.32170272156316 L 176.33173939031678 156.72575017445922 L 177.0866706515242 156.72575017445922 L 177.0866706515242 156.12979762735523 L 177.33831440526 156.12979762735523 L 177.33831440526 154.63991625959522 L 178.59653317393904 154.63991625959522 L 178.59653317393904 154.04396371249123 L 179.09982068141065 154.04396371249123 L 179.09982068141065 153.15003489183528 L 179.35146443514643 153.15003489183528 L 179.35146443514643 152.8520586182833 L 180.35803945008968 152.8520586182833 L 180.35803945008968 152.55408234473134 L 180.86132695756126 152.55408234473134 L 180.86132695756126 152.25610607117932 L 181.11297071129707 152.25610607117932 L 181.11297071129707 151.95812979762735 L 182.3711894799761 151.95812979762735 L 182.3711894799761 151.0642009769714 L 182.6228332337119 151.0642009769714 L 182.6228332337119 150.76622470341943 L 183.37776449491932 150.76622470341943 L 183.37776449491932 150.4682484298674 L 183.62940824865512 150.4682484298674 L 183.62940824865512 149.27634333565948 L 185.13927077106996 149.27634333565948 L 185.13927077106996 148.9783670621075 L 185.39091452480574 148.9783670621075 L 185.39091452480574 148.68039078855548 L 185.64255827854154 148.68039078855548 L 185.64255827854154 147.78646196789953 L 186.14584578601315 147.78646196789953 L 186.14584578601315 146.8925331472435 L 186.64913329348474 146.8925331472435 L 186.64913329348474 146.59455687369154 L 186.90077704722054 146.59455687369154 L 186.90077704722054 145.7006280530356 L 188.913927077107 145.7006280530356 L 188.913927077107 145.40265177948356 L 189.1655708308428 145.40265177948356 L 189.1655708308428 145.1046755059316 L 189.4172145845786 145.1046755059316 L 189.4172145845786 144.80669923237963 L 190.42378959952183 144.80669923237963 L 190.42378959952183 143.91277041172367 L 190.92707710699344 143.91277041172367 L 190.92707710699344 143.61479413817165 L 192.43693962940827 143.61479413817165 L 192.43693962940827 143.31681786461968 L 192.68858338314405 143.31681786461968 L 192.68858338314405 143.0188415910677 L 192.94022713687986 143.0188415910677 L 192.94022713687986 142.42288904396372 L 193.44351464435147 142.42288904396372 L 193.44351464435147 142.12491277041175 L 193.94680215182308 142.12491277041175 L 193.94680215182308 141.2309839497558 L 194.19844590555886 141.2309839497558 L 194.19844590555886 140.93300767620377 L 194.45008965929466 140.93300767620377 L 194.45008965929466 140.6350314026518 L 198.47638971906753 140.6350314026518 L 198.47638971906753 139.44312630844382 L 199.48296473401078 139.44312630844382 L 199.48296473401078 138.84717376133983 L 200.23789599521817 138.84717376133983 L 200.23789599521817 137.95324494068387 L 200.74118350268978 137.95324494068387 L 200.74118350268978 137.65526866713185 L 202.75433353257623 137.65526866713185 L 202.75433353257623 137.05931612002792 L 203.005977286312 137.05931612002792 L 203.005977286312 136.7613398464759 L 204.76748356246264 136.7613398464759 L 204.76748356246264 136.46336357292392 L 205.01912731619845 136.46336357292392 L 205.01912731619845 136.16538729937196 L 205.27077106993426 136.16538729937196 L 205.27077106993426 135.271458478716 L 205.52241482367006 135.271458478716 L 205.52241482367006 134.97348220516398 L 206.52898983861326 134.97348220516398 L 206.52898983861326 133.78157711095605 L 206.7806335923491 133.78157711095605 L 206.7806335923491 133.48360083740408 L 207.0322773460849 133.48360083740408 L 207.0322773460849 133.18562456385206 L 207.53556485355648 133.18562456385206 L 207.53556485355648 132.58967201674807 L 207.78720860729229 132.58967201674807 L 207.78720860729229 132.2916957431961 L 208.0388523610281 132.2916957431961 L 208.0388523610281 131.6957431960921 L 209.29707112970712 131.6957431960921 L 209.29707112970712 130.20586182833216 L 209.54871488344293 130.20586182833216 L 209.54871488344293 129.60990928122817 L 209.80035863717873 129.60990928122817 L 209.80035863717873 128.41800418702024 L 210.05200239091454 128.41800418702024 L 210.05200239091454 128.12002791346822 L 210.55528989838612 128.12002791346822 L 210.55528989838612 127.82205163991625 L 211.31022115959354 127.82205163991625 L 211.31022115959354 127.52407536636429 L 212.56843992827257 127.52407536636429 L 212.56843992827257 126.9281228192603 L 212.82008368200837 126.9281228192603 L 212.82008368200837 126.3321702721563 L 213.07172743574418 126.3321702721563 L 213.07172743574418 125.43824145150035 L 213.32337118947996 125.43824145150035 L 213.32337118947996 125.14026517794838 L 213.57501494321576 125.14026517794838 L 213.57501494321576 124.84228890439636 L 214.3299462044232 124.84228890439636 L 214.3299462044232 123.9483600837404 L 214.8332337118948 123.9483600837404 L 214.8332337118948 122.75645498953247 L 216.34309623430963 122.75645498953247 L 216.34309623430963 122.45847871598045 L 217.09802749551704 122.45847871598045 L 217.09802749551704 121.86252616887646 L 218.60789001793185 121.86252616887646 L 218.60789001793185 121.56454989532449 L 220.62104004781827 121.56454989532449 L 220.62104004781827 121.26657362177247 L 220.87268380155407 121.26657362177247 L 220.87268380155407 120.9685973482205 L 221.37597130902572 120.9685973482205 L 221.37597130902572 120.67062107466853 L 222.88583383144052 120.67062107466853 L 222.88583383144052 120.37264480111651 L 223.38912133891213 120.37264480111651 L 223.38912133891213 119.47871598046055 L 223.64076509264794 119.47871598046055 L 223.64076509264794 118.88276343335662 L 223.89240884638374 118.88276343335662 L 223.89240884638374 118.58478715980459 L 224.14405260011955 118.58478715980459 L 224.14405260011955 118.28681088625262 L 224.39569635385536 118.28681088625262 L 224.39569635385536 117.69085833914863 L 225.15062761506275 117.69085833914863 L 225.15062761506275 117.09490579204464 L 225.65391512253436 117.09490579204464 L 225.65391512253436 116.79692951849268 L 225.9055588762702 116.79692951849268 L 225.9055588762702 116.20097697138868 L 227.6670651524208 116.20097697138868 L 227.6670651524208 115.60502442428475 L 227.91870890615658 115.60502442428475 L 227.91870890615658 115.30704815073273 L 228.17035265989242 115.30704815073273 L 228.17035265989242 115.00907187718076 L 228.42199641362822 115.00907187718076 L 228.42199641362822 114.11514305652474 L 229.17692767483564 114.11514305652474 L 229.17692767483564 113.51919050942075 L 230.68679019725045 113.51919050942075 L 230.68679019725045 113.22121423586879 L 230.93843395098625 113.22121423586879 L 230.93843395098625 112.92323796231682 L 231.19007770472206 112.92323796231682 L 231.19007770472206 112.6252616887648 L 231.69336521219367 112.6252616887648 L 231.69336521219367 112.32728541521283 L 232.44829647340106 112.32728541521283 L 232.44829647340106 111.43335659455687 L 233.4548714883443 111.43335659455687 L 233.4548714883443 110.83740404745288 L 236.22295277943815 110.83740404745288 L 236.22295277943815 110.53942777390091 L 238.23610280932456 110.53942777390091 L 238.23610280932456 109.04954640614096 L 239.74596533173937 109.04954640614096 L 239.74596533173937 108.45359385903697 L 240.249252839211 108.45359385903697 L 240.249252839211 108.155617585485 L 240.50089659294682 108.155617585485 L 240.50089659294682 107.85764131193304 L 241.00418410041843 107.85764131193304 L 241.00418410041843 107.26168876482905 L 241.2558278541542 107.26168876482905 L 241.2558278541542 106.66573621772505 L 241.50747160789 106.66573621772505 L 241.50747160789 105.7718073970691 L 241.75911536162582 105.7718073970691 L 241.75911536162582 105.1758548499651 L 242.76569037656904 105.1758548499651 L 242.76569037656904 104.87787857641308 L 244.52719665271965 104.87787857641308 L 244.52719665271965 104.28192602930915 L 245.2821279139271 104.28192602930915 L 245.2821279139271 103.98394975575712 L 246.0370591751345 103.98394975575712 L 246.0370591751345 103.09002093510117 L 246.2887029288703 103.09002093510117 L 246.2887029288703 102.49406838799723 L 246.5403466826061 102.49406838799723 L 246.5403466826061 102.19609211444521 L 246.7919904363419 102.19609211444521 L 246.7919904363419 101.89811584089324 L 247.79856545128513 101.89811584089324 L 247.79856545128513 101.30216329378925 L 248.55349671249252 101.30216329378925 L 248.55349671249252 101.00418702023728 L 248.80514046622832 101.00418702023728 L 248.80514046622832 100.70621074668526 L 249.30842797369993 100.70621074668526 L 249.30842797369993 100.11025819958132 L 249.56007172743574 100.11025819958132 L 249.56007172743574 99.8122819260293 L 249.81171548117155 99.8122819260293 L 249.81171548117155 99.21632937892537 L 250.56664674237896 99.21632937892537 L 250.56664674237896 98.91835310537334 L 250.81829049611477 98.91835310537334 L 250.81829049611477 98.32240055826941 L 251.06993424985058 98.32240055826941 L 251.06993424985058 98.02442428471738 L 251.57322175732216 98.02442428471738 L 251.57322175732216 97.42847173761339 L 253.8380155409444 97.42847173761339 L 253.8380155409444 96.8325191905094 L 254.08965929468022 96.8325191905094 L 254.08965929468022 96.23656664340541 L 254.84459055588763 96.23656664340541 L 254.84459055588763 95.64061409630148 L 255.85116557083083 95.64061409630148 L 255.85116557083083 94.4487090020935 L 256.60609683203825 94.4487090020935 L 256.60609683203825 94.15073272854153 L 257.10938433950986 94.15073272854153 L 257.10938433950986 93.55478018143754 L 260.3807531380753 93.55478018143754 L 260.3807531380753 93.25680390788557 L 260.63239689181114 93.25680390788557 L 260.63239689181114 92.66085136078158 L 261.38732815301853 92.66085136078158 L 261.38732815301853 92.36287508722961 L 261.89061566049014 92.36287508722961 L 261.89061566049014 91.76692254012562 L 262.1422594142259 91.76692254012562 L 262.1422594142259 91.17096999302163 L 262.39390316796175 91.17096999302163 L 262.39390316796175 90.87299371946966 L 263.400478182905 90.87299371946966 L 263.400478182905 90.5750174459177 L 264.15540944411237 90.5750174459177 L 264.15540944411237 90.27704117236567 L 265.1619844590556 90.27704117236567 L 265.1619844590556 89.9790648988137 L 265.41362821279137 89.9790648988137 L 265.41362821279137 89.68108862526168 L 266.4202032277346 89.68108862526168 L 266.4202032277346 89.38311235170971 L 266.9234907352062 89.38311235170971 L 266.9234907352062 89.08513607815769 L 268.18170950388526 89.08513607815769 L 268.18170950388526 88.78715980460572 L 268.433353257621 88.78715980460572 L 268.433353257621 88.4891835310537 L 268.6849970113568 88.4891835310537 L 268.6849970113568 87.89323098394976 L 269.1882845188285 87.89323098394976 L 269.1882845188285 87.29727843684577 L 269.43992827256426 87.29727843684577 L 269.43992827256426 86.9993021632938 L 269.94321578003587 86.9993021632938 L 269.94321578003587 85.80739706908582 L 270.1948595337717 85.80739706908582 L 270.1948595337717 85.50942079553386 L 270.69814704124326 85.50942079553386 L 270.69814704124326 85.21144452198183 L 270.9497907949791 85.21144452198183 L 270.9497907949791 84.6154919748779 L 271.7047220561865 84.6154919748779 L 271.7047220561865 84.31751570132587 L 272.7112970711297 84.31751570132587 L 272.7112970711297 84.0195394277739 L 273.96951583980876 84.0195394277739 L 273.96951583980876 83.72156315422194 L 274.72444710101615 83.72156315422194 L 274.72444710101615 83.42358688066992 L 275.98266586969515 83.42358688066992 L 275.98266586969515 82.82763433356598 L 276.23430962343093 82.82763433356598 L 276.23430962343093 82.52965806001396 L 276.48595337716677 82.52965806001396 L 276.48595337716677 82.23168178646199 L 276.7375971309026 82.23168178646199 L 276.7375971309026 81.93370551291002 L 276.98924088463843 81.93370551291002 L 276.98924088463843 81.635729239358 L 277.24088463837415 81.635729239358 L 277.24088463837415 81.03977669225401 L 277.49252839211 81.03977669225401 L 277.49252839211 80.74180041870198 L 278.2474596533174 80.74180041870198 L 278.2474596533174 80.14584787159805 L 278.750747160789 80.14584787159805 L 278.750747160789 79.54989532449406 L 279.2540346682606 79.54989532449406 L 279.2540346682606 79.25191905094209 L 280.00896592946805 79.25191905094209 L 280.00896592946805 78.95394277739007 L 280.2606096832038 78.95394277739007 L 280.2606096832038 78.6559665038381 L 280.5122534369396 78.6559665038381 L 280.5122534369396 78.06001395673411 L 280.7638971906754 78.06001395673411 L 280.7638971906754 77.46406140963012 L 281.26718469814705 77.46406140963012 L 281.26718469814705 77.16608513607815 L 281.5188284518829 77.16608513607815 L 281.5188284518829 76.57013258897416 L 282.02211595935444 76.57013258897416 L 282.02211595935444 76.2721563154222 L 282.27375971309027 76.2721563154222 L 282.27375971309027 75.97418004187023 L 282.5254034668261 75.97418004187023 L 282.5254034668261 75.6762037683182 L 283.5319784817693 75.6762037683182 L 283.5319784817693 75.37822749476624 L 283.78362223550505 75.37822749476624 L 283.78362223550505 75.08025122121427 L 284.0352659892409 75.08025122121427 L 284.0352659892409 74.78227494766224 L 284.2869097429767 74.78227494766224 L 284.2869097429767 74.48429867411028 L 284.7901972504483 74.48429867411028 L 284.7901972504483 74.18632240055831 L 285.0418410041841 74.18632240055831 L 285.0418410041841 73.2923935799023 L 285.29348475791994 73.2923935799023 L 285.29348475791994 72.6964410327983 L 285.5451285116557 72.6964410327983 L 285.5451285116557 72.39846475924634 L 285.7967722653915 72.39846475924634 L 285.7967722653915 72.10048848569431 L 286.5517035265989 72.10048848569431 L 286.5517035265989 71.80251221214235 L 286.8033472803347 71.80251221214235 L 286.8033472803347 71.50453593859038 L 287.05499103407055 71.50453593859038 L 287.05499103407055 70.61060711793436 L 287.5582785415421 70.61060711793436 L 287.5582785415421 70.3126308443824 L 289.57142857142856 70.3126308443824 L 289.57142857142856 70.01465457083043 L 290.32635983263594 70.01465457083043 L 290.32635983263594 69.12072575017447 L 291.3329348475792 69.12072575017447 L 291.3329348475792 68.22679692951851 L 292.842797369994 68.22679692951851 L 292.842797369994 67.92882065596649 L 293.0944411237298 67.92882065596649 L 293.0944411237298 67.03489183531053 L 296.3658099222953 67.03489183531053 L 296.3658099222953 66.73691556175856 L 296.6174536760311 66.73691556175856 L 296.6174536760311 66.4389392882066 L 296.8690974297669 66.4389392882066 L 296.8690974297669 66.14096301465457 L 298.37895995218173 66.14096301465457 L 298.37895995218173 65.24703419399862 L 298.6306037059175 65.24703419399862 L 298.6306037059175 64.94905792044659 L 299.1338912133891 64.94905792044659 L 299.1338912133891 64.05512909979063 L 299.38553496712495 64.05512909979063 L 299.38553496712495 63.757152826238666 L 299.8888224745965 63.757152826238666 L 299.8888224745965 63.45917655268664 L 301.39868499701134 63.45917655268664 L 301.39868499701134 62.26727145847872 L 301.90197250448296 62.26727145847872 L 301.90197250448296 61.96929518492669 L 302.40526001195457 61.96929518492669 L 302.40526001195457 61.37334263782276 L 303.9151225343694 61.37334263782276 L 303.9151225343694 61.075366364270735 L 304.1667662881052 61.075366364270735 L 304.1667662881052 60.77739009071877 L 304.41841004184096 60.77739009071877 L 304.41841004184096 60.4794138171668 L 305.1733413030484 60.4794138171668 L 305.1733413030484 60.18143754361478 L 305.67662881052 60.18143754361478 L 305.67662881052 59.88346127006281 L 306.68320382546324 59.88346127006281 L 306.68320382546324 59.28750872295882 L 307.94142259414224 59.28750872295882 L 307.94142259414224 58.98953244940685 L 308.94799760908546 58.98953244940685 L 308.94799760908546 58.691556175854885 L 309.1996413628213 58.691556175854885 L 309.1996413628213 58.39357990230286 L 310.20621637776446 58.39357990230286 L 310.20621637776446 57.79762735519893 L 311.71607890017935 57.79762735519893 L 311.71607890017935 57.4996510816469 L 312.9742976688583 57.4996510816469 L 312.9742976688583 56.90369853454291 L 313.72922893006574 56.90369853454291 L 313.72922893006574 56.605722260990945 L 314.4841601912732 56.605722260990945 L 314.4841601912732 56.30774598743892 L 314.9874476987448 56.30774598743892 L 314.9874476987448 56.00976971388695 L 315.2390914524806 56.00976971388695 L 315.2390914524806 55.41381716678296 L 316.4973102211596 55.41381716678296 L 316.4973102211596 55.11584089323094 L 317.0005977286312 55.11584089323094 L 317.0005977286312 54.81786461967897 L 317.5038852361028 54.81786461967897 L 317.5038852361028 54.519888346127004 L 319.2653915122534 54.519888346127004 L 319.2653915122534 54.22191207257498 L 319.51703526598925 54.22191207257498 L 319.51703526598925 53.625959525471046 L 320.5236102809325 53.625959525471046 L 320.5236102809325 53.32798325191902 L 324.2982665869695 53.32798325191902 L 324.2982665869695 53.030006978367055 L 327.06634787806337 53.030006978367055 L 327.06634787806337 52.73203070481509 L 329.0794979079498 52.73203070481509 L 329.0794979079498 52.434054431263064 L 329.3311416616856 52.434054431263064 L 329.3311416616856 52.1360781577111 L 331.5959354453078 52.1360781577111 L 331.5959354453078 51.83810188415913 L 332.35086670651526 51.83810188415913 L 332.35086670651526 51.540125610607106 L 333.35744172145843 51.540125610607106 L 333.35744172145843 51.24214933705514 L 335.1189479976091 51.24214933705514 L 335.1189479976091 50.94417306350317 L 335.3705917513449 50.94417306350317 L 335.3705917513449 50.64619678995115 L 336.12552301255226 50.64619678995115 L 336.12552301255226 50.050244242847214 L 340.403466826061 50.050244242847214 L 340.403466826061 49.75226796929519 L 343.1715481171548 49.75226796929519 L 343.1715481171548 49.45429169574322 L 344.68141063956966 49.45429169574322 L 344.68141063956966 48.85833914863923 L 345.68798565451283 48.85833914863923 L 345.68798565451283 48.56036287508721 L 347.95277943813505 48.56036287508721 L 347.95277943813505 48.26238660153524 L 348.7077106993425 48.26238660153524 L 348.7077106993425 47.96441032798322 L 349.4626419605499 47.96441032798322 L 349.4626419605499 47.66643405443125 L 351.47579199043633 47.66643405443125 L 351.47579199043633 46.47452896022327 L 352.2307232516438 46.47452896022327 L 352.2307232516438 46.1765526866713 L 354.495517035266 46.1765526866713 L 354.495517035266 45.87857641311933 L 354.9988045427376 45.87857641311933 L 354.9988045427376 45.58060013956731 L 355.5020920502092 45.58060013956731 L 355.5020920502092 45.28262386601534 L 355.753735803945 45.28262386601534 L 355.753735803945 44.984647592463375 L 358.52181709503884 44.984647592463375 L 358.52181709503884 44.68667131891135 L 358.7734608487747 44.68667131891135 L 358.7734608487747 44.388695045359384 L 359.02510460251045 44.388695045359384 L 359.02510460251045 44.09071877180742 L 360.28332337118945 44.09071877180742 L 360.28332337118945 43.79274249825539 L 360.5349671249253 43.79274249825539 L 360.5349671249253 43.494766224703426 L 361.7931858936043 43.494766224703426 L 361.7931858936043 43.19678995115146 L 362.5481171548117 43.19678995115146 L 362.5481171548117 42.60083740404747 L 362.7997609085475 42.60083740404747 L 362.7997609085475 42.3028611304955 L 364.0579796772265 42.3028611304955 L 364.0579796772265 42.00488485694348 L 364.5612671846982 42.00488485694348 L 364.5612671846982 41.70690858339151 L 365.56784219964135 41.70690858339151 L 365.56784219964135 41.40893230983954 L 366.57441721458457 41.40893230983954 L 366.57441721458457 41.11095603628752 L 367.329348475792 41.11095603628752 L 367.329348475792 40.81297976273555 L 371.60729228930063 40.81297976273555 L 371.60729228930063 40.51500348918353 L 372.11057979677224 40.51500348918353 L 372.11057979677224 40.21702721563156 L 376.13687985654514 40.21702721563156 L 376.13687985654514 39.91905094207954 L 376.8918111177526 39.91905094207954 L 376.8918111177526 39.62107466852751 L 379.4082486551106 39.62107466852751 L 379.4082486551106 39.323098394975545 L 380.9181111775254 39.323098394975545 L 380.9181111775254 39.02512212142358 L 381.1697549312612 39.02512212142358 L 381.1697549312612 38.727145847871554 L 383.93783622235503 38.727145847871554 L 383.93783622235503 38.42916957431959 L 384.44112372982664 38.42916957431959 L 384.44112372982664 38.13119330076762 L 384.94441123729825 38.13119330076762 L 384.94441123729825 37.833217027215596 L 385.9509862522415 37.833217027215596 L 385.9509862522415 37.53524075366363 L 386.4542737597131 37.53524075366363 L 386.4542737597131 37.23726448011166 L 387.4608487746563 37.23726448011166 L 387.4608487746563 36.93928820655964 L 389.9772863120143 36.93928820655964 L 389.9772863120143 36.343335659455704 L 394.75851763299465 36.343335659455704 L 394.75851763299465 36.04535938590368 L 395.2618051404662 36.04535938590368 L 395.2618051404662 35.74738311235171 L 399.2881052002391 35.74738311235171 L 399.2881052002391 35.449406838799746 L 406.83741781231316 35.449406838799746 L 406.83741781231316 35.15143056524772 L 408.34728033472805 35.15143056524772 L 408.34728033472805 34.853454291695755 L 408.85056784219967 34.853454291695755 L 408.85056784219967 34.55547801814379 L 411.36700537955767 34.55547801814379 L 411.36700537955767 34.257501744591764 L 411.6186491332935 34.257501744591764 L 411.6186491332935 33.9595254710398 L 412.8768679019725 33.9595254710398 L 412.8768679019725 33.66154919748783 L 413.8834429169157 33.66154919748783 L 413.8834429169157 33.363572923935806 L 415.39330543933056 33.363572923935806 L 415.39330543933056 33.06559665038384 L 417.406455469217 33.06559665038384 L 417.406455469217 32.76762037683187 L 419.4196054991034 32.76762037683187 L 419.4196054991034 32.46964410327985 L 421.18111177525407 32.46964410327985 L 421.18111177525407 31.873691556175856 L 421.93604303646146 31.873691556175856 L 421.93604303646146 31.575715282623833 L 422.9426180514047 31.575715282623833 L 422.9426180514047 31.277739009071865 L 425.2074118350269 31.277739009071865 L 425.2074118350269 30.97976273551984 L 427.97549312612074 30.97976273551984 L 427.97549312612074 30.681786461967874 L 428.98206814106396 30.681786461967874 L 428.98206814106396 30.383810188415907 L 429.4853556485356 30.383810188415907 L 429.4853556485356 30.085833914863883 L 429.9886431560072 30.085833914863883 L 429.9886431560072 29.787857641311916 L 432.50508069336524 29.787857641311916 L 432.50508069336524 29.48988136775995 L 434.01494321578 29.48988136775995 L 434.01494321578 29.191905094207925 L 443.32576210400475 29.191905094207925 L 443.32576210400475 28.893928820655958 L 443.8290496114764 28.893928820655958 L 443.8290496114764 28.59595254710399 L 449.61685594739987 28.59595254710399 L 449.61685594739987 28.297976273551967 L 460.94082486551105 28.297976273551967 L 460.94082486551105 28 L 470 28" stroke-linejoin="bevel" stroke-miterlimit="10" stroke-width="2" stroke-opacity="0.7"/></g><g><path fill="none" stroke="none"/><path fill="none" stroke="#616161" paint-order="fill stroke markers" d=" M 49 455 L 91.1 412.3 L 133.2 369.6 L 175.3 326.9 L 217.4 284.2 L 259.5 241.5 L 301.6 198.79999999999995 L 343.70000000000005 156.09999999999997 L 385.8 113.39999999999998 L 427.90000000000003 70.69999999999999 L 470 28" stroke-linejoin="bevel" stroke-miterlimit="10" stroke-dasharray="6"/></g></g></g><g clip-path="url(#hpCFQkgtcBRz)"><g><g/><g><path fill="#ffffff" stroke="#e5e5e5" paint-order="fill stroke markers" d=" M 376.03125 382 L 460 382 L 460 445 L 376.03125 445 L 376.03125 382 Z" fill-opacity="0.95" stroke-linejoin="bevel" stroke-miterlimit="10" stroke-opacity="0.5"/><text fill="#444444" stroke="none" font-family="helvetica" font-size="10pt" font-style="normal" font-weight="normal" text-decoration="normal" x="411.03125" y="402" text-anchor="start" dominant-baseline="central">female</text><g><path fill="none" stroke="#00BFA5" paint-order="fill stroke markers" d=" M 386.03125 402 L 406.03125 402" stroke-linejoin="bevel" stroke-miterlimit="10" stroke-width="2" stroke-dasharray="6"/></g><text fill="#444444" stroke="none" font-family="helvetica" font-size="10pt" font-style="normal" font-weight="normal" text-decoration="normal" x="411.03125" y="425" text-anchor="start" dominant-baseline="central">male</text><g><path fill="none" stroke="#536dfe" paint-order="fill stroke markers" d=" M 386.03125 425 L 406.03125 425" stroke-linejoin="bevel" stroke-miterlimit="10" stroke-width="2" stroke-opacity="0.7"/></g></g></g></g><g><g fill="#444444"><path fill="none" stroke="black" paint-order="fill stroke markers" d=" M 49 455 L 470 455" stroke-linejoin="bevel" stroke-miterlimit="10"/><path fill="none" stroke="black" paint-order="fill stroke markers" d=" M 49 461 L 49 453" stroke-linejoin="bevel" stroke-miterlimit="10"/><path fill="none" stroke="black" paint-order="fill stroke markers" d=" M 133 461 L 133 453" stroke-linejoin="bevel" stroke-miterlimit="10"/><path fill="none" stroke="black" paint-order="fill stroke markers" d=" M 217 461 L 217 453" stroke-linejoin="bevel" stroke-miterlimit="10"/><path fill="none" stroke="black" paint-order="fill stroke markers" d=" M 302 461 L 302 453" stroke-linejoin="bevel" stroke-miterlimit="10"/><path fill="none" stroke="black" paint-order="fill stroke markers" d=" M 386 461 L 386 453" stroke-linejoin="bevel" stroke-miterlimit="10"/><path fill="none" stroke="black" paint-order="fill stroke markers" d=" M 470 461 L 470 453" stroke-linejoin="bevel" stroke-miterlimit="10"/><path fill="none" stroke="black" paint-order="fill stroke markers" d=" M 49 459 L 49 455" stroke-linejoin="bevel" stroke-miterlimit="10"/><path fill="none" stroke="black" paint-order="fill stroke markers" d=" M 66 459 L 66 455" stroke-linejoin="bevel" stroke-miterlimit="10"/><path fill="none" stroke="black" paint-order="fill stroke markers" d=" M 83 459 L 83 455" stroke-linejoin="bevel" stroke-miterlimit="10"/><path fill="none" stroke="black" paint-order="fill stroke markers" d=" M 100 459 L 100 455" stroke-linejoin="bevel" stroke-miterlimit="10"/><path fill="none" stroke="black" paint-order="fill stroke markers" d=" M 116 459 L 116 455" stroke-linejoin="bevel" stroke-miterlimit="10"/><path fill="none" stroke="black" paint-order="fill stroke markers" d=" M 133 459 L 133 455" stroke-linejoin="bevel" stroke-miterlimit="10"/><path fill="none" stroke="black" paint-order="fill stroke markers" d=" M 150 459 L 150 455" stroke-linejoin="bevel" stroke-miterlimit="10"/><path fill="none" stroke="black" paint-order="fill stroke markers" d=" M 167 459 L 167 455" stroke-linejoin="bevel" stroke-miterlimit="10"/><path fill="none" stroke="black" paint-order="fill stroke markers" d=" M 184 459 L 184 455" stroke-linejoin="bevel" stroke-miterlimit="10"/><path fill="none" stroke="black" paint-order="fill stroke markers" d=" M 201 459 L 201 455" stroke-linejoin="bevel" stroke-miterlimit="10"/><path fill="none" stroke="black" paint-order="fill stroke markers" d=" M 217 459 L 217 455" stroke-linejoin="bevel" stroke-miterlimit="10"/><path fill="none" stroke="black" paint-order="fill stroke markers" d=" M 234 459 L 234 455" stroke-linejoin="bevel" stroke-miterlimit="10"/><path fill="none" stroke="black" paint-order="fill stroke markers" d=" M 251 459 L 251 455" stroke-linejoin="bevel" stroke-miterlimit="10"/><path fill="none" stroke="black" paint-order="fill stroke markers" d=" M 268 459 L 268 455" stroke-linejoin="bevel" stroke-miterlimit="10"/><path fill="none" stroke="black" paint-order="fill stroke markers" d=" M 285 459 L 285 455" stroke-linejoin="bevel" stroke-miterlimit="10"/><path fill="none" stroke="black" paint-order="fill stroke markers" d=" M 302 459 L 302 455" stroke-linejoin="bevel" stroke-miterlimit="10"/><path fill="none" stroke="black" paint-order="fill stroke markers" d=" M 318 459 L 318 455" stroke-linejoin="bevel" stroke-miterlimit="10"/><path fill="none" stroke="black" paint-order="fill stroke markers" d=" M 335 459 L 335 455" stroke-linejoin="bevel" stroke-miterlimit="10"/><path fill="none" stroke="black" paint-order="fill stroke markers" d=" M 352 459 L 352 455" stroke-linejoin="bevel" stroke-miterlimit="10"/><path fill="none" stroke="black" paint-order="fill stroke markers" d=" M 369 459 L 369 455" stroke-linejoin="bevel" stroke-miterlimit="10"/><path fill="none" stroke="black" paint-order="fill stroke markers" d=" M 386 459 L 386 455" stroke-linejoin="bevel" stroke-miterlimit="10"/><path fill="none" stroke="black" paint-order="fill stroke markers" d=" M 403 459 L 403 455" stroke-linejoin="bevel" stroke-miterlimit="10"/><path fill="none" stroke="black" paint-order="fill stroke markers" d=" M 419 459 L 419 455" stroke-linejoin="bevel" stroke-miterlimit="10"/><path fill="none" stroke="black" paint-order="fill stroke markers" d=" M 436 459 L 436 455" stroke-linejoin="bevel" stroke-miterlimit="10"/><path fill="none" stroke="black" paint-order="fill stroke markers" d=" M 453 459 L 453 455" stroke-linejoin="bevel" stroke-miterlimit="10"/><path fill="" stroke="black" paint-order="fill stroke markers" d=" M 470 459 L 470 455" stroke-linejoin="bevel" stroke-miterlimit="10"/><g transform="translate(49,466) rotate(0,0,0)"><text fill="" stroke="none" font-family="helvetica" font-size="8pt" font-style="normal" font-weight="normal" text-decoration="normal" x="0" y="0" text-anchor="middle" dominant-baseline="hanging">0</text><g transform="rotate(0,0,0) translate(-49,-466) translate(133,466) rotate(0,0,0)"><text fill="" stroke="none" font-family="helvetica" font-size="8pt" font-style="normal" font-weight="normal" text-decoration="normal" x="0" y="0" text-anchor="middle" dominant-baseline="hanging">0.2</text><g transform="rotate(0,0,0) translate(-133,-466) translate(217,466) rotate(0,0,0)"><text fill="" stroke="none" font-family="helvetica" font-size="8pt" font-style="normal" font-weight="normal" text-decoration="normal" x="0" y="0" text-anchor="middle" dominant-baseline="hanging">0.4</text><g transform="rotate(0,0,0) translate(-217,-466) translate(302,466) rotate(0,0,0)"><text fill="" stroke="none" font-family="helvetica" font-size="8pt" font-style="normal" font-weight="normal" text-decoration="normal" x="0" y="0" text-anchor="middle" dominant-baseline="hanging">0.6</text><g transform="rotate(0,0,0) translate(-302,-466) translate(386,466) rotate(0,0,0)"><text fill="" stroke="none" font-family="helvetica" font-size="8pt" font-style="normal" font-weight="normal" text-decoration="normal" x="0" y="0" text-anchor="middle" dominant-baseline="hanging">0.8</text><g transform="rotate(0,0,0) translate(-386,-466) translate(470,466) rotate(0,0,0)"><text fill="" stroke="none" font-family="helvetica" font-size="8pt" font-style="normal" font-weight="normal" text-decoration="normal" x="0" y="0" text-anchor="middle" dominant-baseline="hanging">1</text><g transform="rotate(0,0,0) translate(-470,-466) translate(260,484) rotate(0,0,0)"><text fill="" stroke="none" font-family="Helvetica Neue" font-size="10pt" font-style="italic" font-weight="normal" text-decoration="normal" x="0" y="0" text-anchor="middle" dominant-baseline="hanging">False Positive Rate (FPR)</text><g transform="rotate(0,0,0) translate(-260,-484)"/></g></g></g></g></g></g></g></g><g fill="#444444"><path fill="none" stroke="black" paint-order="fill stroke markers" d=" M 49 455 L 49 28" stroke-linejoin="bevel" stroke-miterlimit="10"/><path fill="none" stroke="black" paint-order="fill stroke markers" d=" M 43 455 L 51 455" stroke-linejoin="bevel" stroke-miterlimit="10"/><path fill="none" stroke="black" paint-order="fill stroke markers" d=" M 43 370 L 51 370" stroke-linejoin="bevel" stroke-miterlimit="10"/><path fill="none" stroke="black" paint-order="fill stroke markers" d=" M 43 284 L 51 284" stroke-linejoin="bevel" stroke-miterlimit="10"/><path fill="none" stroke="black" paint-order="fill stroke markers" d=" M 43 199 L 51 199" stroke-linejoin="bevel" stroke-miterlimit="10"/><path fill="none" stroke="black" paint-order="fill stroke markers" d=" M 43 113 L 51 113" stroke-linejoin="bevel" stroke-miterlimit="10"/><path fill="none" stroke="black" paint-order="fill stroke markers" d=" M 43 28 L 51 28" stroke-linejoin="bevel" stroke-miterlimit="10"/><path fill="none" stroke="black" paint-order="fill stroke markers" d=" M 45 455 L 49 455" stroke-linejoin="bevel" stroke-miterlimit="10"/><path fill="none" stroke="black" paint-order="fill stroke markers" d=" M 45 438 L 49 438" stroke-linejoin="bevel" stroke-miterlimit="10"/><path fill="none" stroke="black" paint-order="fill stroke markers" d=" M 45 421 L 49 421" stroke-linejoin="bevel" stroke-miterlimit="10"/><path fill="none" stroke="black" paint-order="fill stroke markers" d=" M 45 404 L 49 404" stroke-linejoin="bevel" stroke-miterlimit="10"/><path fill="none" stroke="black" paint-order="fill stroke markers" d=" M 45 387 L 49 387" stroke-linejoin="bevel" stroke-miterlimit="10"/><path fill="none" stroke="black" paint-order="fill stroke markers" d=" M 45 370 L 49 370" stroke-linejoin="bevel" stroke-miterlimit="10"/><path fill="none" stroke="black" paint-order="fill stroke markers" d=" M 45 353 L 49 353" stroke-linejoin="bevel" stroke-miterlimit="10"/><path fill="none" stroke="black" paint-order="fill stroke markers" d=" M 45 335 L 49 335" stroke-linejoin="bevel" stroke-miterlimit="10"/><path fill="none" stroke="black" paint-order="fill stroke markers" d=" M 45 318 L 49 318" stroke-linejoin="bevel" stroke-miterlimit="10"/><path fill="none" stroke="black" paint-order="fill stroke markers" d=" M 45 301 L 49 301" stroke-linejoin="bevel" stroke-miterlimit="10"/><path fill="none" stroke="black" paint-order="fill stroke markers" d=" M 45 284 L 49 284" stroke-linejoin="bevel" stroke-miterlimit="10"/><path fill="none" stroke="black" paint-order="fill stroke markers" d=" M 45 267 L 49 267" stroke-linejoin="bevel" stroke-miterlimit="10"/><path fill="none" stroke="black" paint-order="fill stroke markers" d=" M 45 250 L 49 250" stroke-linejoin="bevel" stroke-miterlimit="10"/><path fill="none" stroke="black" paint-order="fill stroke markers" d=" M 45 233 L 49 233" stroke-linejoin="bevel" stroke-miterlimit="10"/><path fill="none" stroke="black" paint-order="fill stroke markers" d=" M 45 216 L 49 216" stroke-linejoin="bevel" stroke-miterlimit="10"/><path fill="none" stroke="black" paint-order="fill stroke markers" d=" M 45 199 L 49 199" stroke-linejoin="bevel" stroke-miterlimit="10"/><path fill="none" stroke="black" paint-order="fill stroke markers" d=" M 45 182 L 49 182" stroke-linejoin="bevel" stroke-miterlimit="10"/><path fill="none" stroke="black" paint-order="fill stroke markers" d=" M 45 165 L 49 165" stroke-linejoin="bevel" stroke-miterlimit="10"/><path fill="none" stroke="black" paint-order="fill stroke markers" d=" M 45 148 L 49 148" stroke-linejoin="bevel" stroke-miterlimit="10"/><path fill="none" stroke="black" paint-order="fill stroke markers" d=" M 45 130 L 49 130" stroke-linejoin="bevel" stroke-miterlimit="10"/><path fill="none" stroke="black" paint-order="fill stroke markers" d=" M 45 113 L 49 113" stroke-linejoin="bevel" stroke-miterlimit="10"/><path fill="none" stroke="black" paint-order="fill stroke markers" d=" M 45 96 L 49 96" stroke-linejoin="bevel" stroke-miterlimit="10"/><path fill="none" stroke="black" paint-order="fill stroke markers" d=" M 45 79 L 49 79" stroke-linejoin="bevel" stroke-miterlimit="10"/><path fill="none" stroke="black" paint-order="fill stroke markers" d=" M 45 62 L 49 62" stroke-linejoin="bevel" stroke-miterlimit="10"/><path fill="none" stroke="black" paint-order="fill stroke markers" d=" M 45 45 L 49 45" stroke-linejoin="bevel" stroke-miterlimit="10"/><path fill="" stroke="black" paint-order="fill stroke markers" d=" M 45 28 L 49 28" stroke-linejoin="bevel" stroke-miterlimit="10"/><g transform="translate(38,455) rotate(0,0,0)"><text fill="" stroke="none" font-family="helvetica" font-size="8pt" font-style="normal" font-weight="normal" text-decoration="normal" x="0" y="0" text-anchor="end" dominant-baseline="central">0</text><g transform="rotate(0,0,0) translate(-38,-455) translate(38,370) rotate(0,0,0)"><text fill="" stroke="none" font-family="helvetica" font-size="8pt" font-style="normal" font-weight="normal" text-decoration="normal" x="0" y="0" text-anchor="end" dominant-baseline="central">0.2</text><g transform="rotate(0,0,0) translate(-38,-370) translate(38,284) rotate(0,0,0)"><text fill="" stroke="none" font-family="helvetica" font-size="8pt" font-style="normal" font-weight="normal" text-decoration="normal" x="0" y="0" text-anchor="end" dominant-baseline="central">0.4</text><g transform="rotate(0,0,0) translate(-38,-284) translate(38,199) rotate(0,0,0)"><text fill="" stroke="none" font-family="helvetica" font-size="8pt" font-style="normal" font-weight="normal" text-decoration="normal" x="0" y="0" text-anchor="end" dominant-baseline="central">0.6</text><g transform="rotate(0,0,0) translate(-38,-199) translate(38,113) rotate(0,0,0)"><text fill="" stroke="none" font-family="helvetica" font-size="8pt" font-style="normal" font-weight="normal" text-decoration="normal" x="0" y="0" text-anchor="end" dominant-baseline="central">0.8</text><g transform="rotate(0,0,0) translate(-38,-113) translate(38,28) rotate(0,0,0)"><text fill="" stroke="none" font-family="helvetica" font-size="8pt" font-style="normal" font-weight="normal" text-decoration="normal" x="0" y="0" text-anchor="end" dominant-baseline="central">1</text><g transform="rotate(0,0,0) translate(-38,-28) translate(16,242) rotate(-90,0,0)"><text fill="" stroke="none" font-family="Helvetica Neue" font-size="10pt" font-style="italic" font-weight="normal" text-decoration="normal" x="0" y="0" text-anchor="middle" dominant-baseline="alphabetic">True Positive Rate (TPR)</text><g transform="rotate(90,0,0) translate(-16,-242)"/></g></g></g></g></g></g></g></g><g fill="#444444"><path fill="" stroke="none" d=""/><g transform="translate(49,23)"><path fill="none" stroke="none"/><text fill="" stroke="none" font-family="Helvetica Neue" font-size="10pt" font-style="normal" font-weight="bold" text-decoration="normal" x="0" y="0" text-anchor="start" dominant-baseline="text-after-edge">ROC curve by age group (AUC [male]=0.766 | AUC [female]=0.762)</text></g></g></g></g></svg>