<svg version="1.1" xmlns="http://www.w3.org/2000/svg" xmlns:xlink="http://www.w3.org/1999/xlink" width="500" height="500" style="width: 500px; height: 500px;"><defs><clipPath id="dlpWbvwUbyVE"><path fill="none" stroke="none" d=" M 49 28 L 470 28 L 470 455 L 49 455 L 49 28 Z"/></clipPath><clipPath id="icTxwZqpgEiv"><path fill="none" stroke="none" d=" M 49 28 L 470 28 L 470 455 L 49 455 L 49 28 Z"/></clipPath></defs><g transform="scale(1,1) translate(0.5,0.5)"><rect fill="#ffffff" stroke="none" x="0" y="0" width="500" height="500"/><rect fill="#FFFFFF" stroke="none" x="49" y="28" width="421" height="427"/><rect fill="#ffffff" stroke="none" x="49" y="28" width="421" height="427"/><g><rect fill="none" stroke="#e5e5e5" x="49" y="28" width="421" height="427" stroke-linejoin="bevel" stroke-miterlimit="10"/></g><g clip-path="url(#dlpWbvwUbyVE)"><g><g/><g/><g><path fill="none" stroke="none"/><path fill="none" stroke="#00BFA5" paint-order="fill stroke markers" d=" M 49 454.81499133448875 L 49 452.7798960138648 L 49.150464617583985 452.7798960138648 L 49.150464617583985 452.03986135181975 L 49.45139385275196 452.03986135181975 L 49.45139385275196 450.7448006932409 L 49.601858470335955 450.7448006932409 L 49.601858470335955 447.78466204506066 L 49.75232308791994 447.78466204506066 L 49.75232308791994 445.934575389948 L 49.90278770550393 445.934575389948 L 49.90278770550393 444.8245233968804 L 50.05325232308792 444.8245233968804 L 50.05325232308792 444.4545060658579 L 50.20371694067191 444.4545060658579 L 50.20371694067191 444.08448873483536 L 50.354181558255895 444.08448873483536 L 50.354181558255895 443.7144714038128 L 50.805575411007865 443.7144714038128 L 50.805575411007865 443.159445407279 L 50.95604002859185 443.159445407279 L 50.95604002859185 440.93934142114387 L 51.10650464617584 440.93934142114387 L 51.10650464617584 440.19930675909876 L 51.25696926375983 440.19930675909876 L 51.25696926375983 439.27426343154247 L 51.40743388134382 439.27426343154247 L 51.40743388134382 436.68414211438477 L 51.557898498927806 436.68414211438477 L 51.557898498927806 436.12911611785097 L 51.70836311651179 436.12911611785097 L 51.70836311651179 435.3890814558059 L 52.00929235167977 435.3890814558059 L 52.00929235167977 434.8340554592721 L 52.15975696926376 434.8340554592721 L 52.15975696926376 433.7240034662045 L 52.310221586847746 433.7240034662045 L 52.310221586847746 431.8739168110919 L 52.46068620443174 431.8739168110919 L 52.46068620443174 430.0238301559792 L 52.61115082201572 430.0238301559792 L 52.61115082201572 429.6538128249567 L 52.761615439599716 429.6538128249567 L 52.761615439599716 428.5437608318891 L 52.9120800571837 428.5437608318891 L 52.9120800571837 427.9887348353553 L 53.06254467476769 427.9887348353553 L 53.06254467476769 427.4337088388215 L 53.21300929235168 427.4337088388215 L 53.21300929235168 426.5086655112652 L 53.36347390993567 426.5086655112652 L 53.36347390993567 425.3986135181976 L 53.513938527519656 425.3986135181976 L 53.513938527519656 424.8435875216638 L 53.66440314510365 424.8435875216638 L 53.66440314510365 424.10355285961873 L 53.81486776268763 424.10355285961873 L 53.81486776268763 423.7335355285962 L 53.96533238027162 423.7335355285962 L 53.96533238027162 423.3635181975737 L 54.266261615439596 423.3635181975737 L 54.266261615439596 421.88344887348353 L 54.41672623302359 421.88344887348353 L 54.41672623302359 419.10831889081453 L 54.567190850607574 419.10831889081453 L 54.567190850607574 417.2582322357019 L 54.717655468191566 417.2582322357019 L 54.717655468191566 416.8882149046794 L 55.018584703359544 416.8882149046794 L 55.018584703359544 414.6681109185442 L 55.16904932094353 414.6681109185442 L 55.16904932094353 413.0030329289428 L 55.31951393852752 413.0030329289428 L 55.31951393852752 412.81802426343154 L 55.469978556111506 412.81802426343154 L 55.469978556111506 412.6330155979203 L 55.6204431736955 412.6330155979203 L 55.6204431736955 412.448006932409 L 55.921372408863476 412.448006932409 L 55.921372408863476 410.78292894280764 L 56.22230164403145 410.78292894280764 L 56.22230164403145 410.4129116117851 L 56.52323087919943 410.4129116117851 L 56.52323087919943 409.3028596187175 L 56.67369549678342 409.3028596187175 L 56.67369549678342 407.08275563258235 L 56.8241601143674 407.08275563258235 L 56.8241601143674 406.7127383015598 L 56.974624731951394 406.7127383015598 L 56.974624731951394 406.52772963604855 L 57.125089349535386 406.52772963604855 L 57.125089349535386 405.23266897746964 L 57.42601858470336 405.23266897746964 L 57.42601858470336 404.30762564991335 L 57.57648320228735 404.30762564991335 L 57.57648320228735 401.9025129982669 L 57.726947819871334 401.9025129982669 L 57.726947819871334 401.3474870017331 L 57.87741243745533 401.3474870017331 L 57.87741243745533 400.97746967071055 L 58.178341672623304 400.97746967071055 L 58.178341672623304 400.2374350086655 L 58.32880629020729 400.2374350086655 L 58.32880629020729 399.867417677643 L 58.930664760543245 399.867417677643 L 58.930664760543245 399.1273830155979 L 59.08112937812723 399.1273830155979 L 59.08112937812723 398.7573656845754 L 59.23159399571122 398.7573656845754 L 59.23159399571122 397.6473136915078 L 59.382058613295214 397.6473136915078 L 59.382058613295214 397.27729636048525 L 59.5325232308792 397.27729636048525 L 59.5325232308792 396.90727902946276 L 59.83345246604718 396.90727902946276 L 59.83345246604718 396.16724436741765 L 60.134381701215155 396.16724436741765 L 60.134381701215155 395.05719237435005 L 60.28484631879914 395.05719237435005 L 60.28484631879914 394.8721837088388 L 60.43531093638313 394.8721837088388 L 60.43531093638313 394.317157712305 L 60.58577555396712 394.317157712305 L 60.58577555396712 393.9471403812825 L 60.886704789135095 393.9471403812825 L 60.886704789135095 390.2469670710572 L 61.03716940671909 390.2469670710572 L 61.03716940671909 388.95190641247837 L 61.18763402430307 388.95190641247837 L 61.18763402430307 388.76689774696706 L 61.338098641887065 388.76689774696706 L 61.338098641887065 387.10181975736566 L 61.48856325947105 387.10181975736566 L 61.48856325947105 385.99176776429806 L 61.63902787705504 385.99176776429806 L 61.63902787705504 384.14168110918547 L 61.78949249463903 384.14168110918547 L 61.78949249463903 383.95667244367417 L 61.93995711222301 383.95667244367417 L 61.93995711222301 383.7716637781629 L 62.090421729807005 383.7716637781629 L 62.090421729807005 383.40164644714037 L 62.24088634739099 383.40164644714037 L 62.24088634739099 381.92157712305027 L 62.39135096497498 381.92157712305027 L 62.39135096497498 381.18154246100517 L 62.54181558255897 381.18154246100517 L 62.54181558255897 380.4415077989602 L 62.99320943531094 380.4415077989602 L 62.99320943531094 380.25649913344887 L 63.14367405289492 380.25649913344887 L 63.14367405289492 379.70147313691507 L 63.4446032880629 379.70147313691507 L 63.4446032880629 379.5164644714038 L 63.595067905646886 379.5164644714038 L 63.595067905646886 378.96143847487 L 64.19692637598284 378.96143847487 L 64.19692637598284 377.48136915077987 L 64.49785561115083 377.48136915077987 L 64.49785561115083 376.7413344887348 L 64.6483202287348 376.7413344887348 L 64.6483202287348 375.2612651646447 L 64.7987848463188 375.2612651646447 L 64.7987848463188 374.1512131715771 L 64.94924946390279 374.1512131715771 L 64.94924946390279 373.5961871750433 L 65.09971408148678 373.5961871750433 L 65.09971408148678 373.0411611785095 L 65.25017869907077 373.0411611785095 L 65.25017869907077 372.8561525129983 L 65.40064331665475 372.8561525129983 L 65.40064331665475 372.1161178509532 L 65.55110793423874 372.1161178509532 L 65.55110793423874 371.9311091854419 L 65.70157255182274 371.9311091854419 L 65.70157255182274 371.7461005199307 L 65.85203716940671 371.7461005199307 L 65.85203716940671 370.6360485268631 L 66.0025017869907 370.6360485268631 L 66.0025017869907 370.2660311958406 L 66.1529664045747 370.2660311958406 L 66.1529664045747 369.89601386481803 L 66.45389563974267 369.89601386481803 L 66.45389563974267 369.155979202773 L 66.60436025732666 369.155979202773 L 66.60436025732666 368.0459272097054 L 66.75482487491065 368.0459272097054 L 66.75482487491065 366.75086655112653 L 66.90528949249463 366.75086655112653 L 66.90528949249463 366.380849220104 L 67.05575411007862 366.380849220104 L 67.05575411007862 365.4558058925477 L 67.20621872766262 365.4558058925477 L 67.20621872766262 364.53076256499133 L 67.65761258041458 364.53076256499133 L 67.65761258041458 363.2357019064125 L 67.80807719799857 363.2357019064125 L 67.80807719799857 363.05069324090124 L 68.10900643316654 363.05069324090124 L 68.10900643316654 362.6806759098787 L 68.25947105075053 362.6806759098787 L 68.25947105075053 362.1256499133449 L 69.01179413867048 362.1256499133449 L 69.01179413867048 361.38561525129984 L 69.16225875625446 361.38561525129984 L 69.16225875625446 359.9055459272097 L 69.31272337383845 359.9055459272097 L 69.31272337383845 358.9805025996534 L 69.46318799142244 358.9805025996534 L 69.46318799142244 358.2404679376083 L 69.61365260900644 358.2404679376083 L 69.61365260900644 358.05545927209704 L 69.76411722659043 358.05545927209704 L 69.76411722659043 357.315424610052 L 69.9145818441744 357.315424610052 L 69.9145818441744 356.7603986135182 L 70.21551107934239 356.7603986135182 L 70.21551107934239 356.2053726169844 L 70.51644031451036 356.2053726169844 L 70.51644031451036 355.46533795493934 L 70.66690493209435 355.46533795493934 L 70.66690493209435 355.2803292894281 L 70.96783416726234 355.2803292894281 L 70.96783416726234 354.540294627383 L 71.11829878484632 354.540294627383 L 71.11829878484632 354.35528596187174 L 71.41922802001429 354.35528596187174 L 71.41922802001429 353.9852686308492 L 71.56969263759828 353.9852686308492 L 71.56969263759828 353.43024263431545 L 71.72015725518227 353.43024263431545 L 71.72015725518227 353.0602253032929 L 71.87062187276626 353.0602253032929 L 71.87062187276626 351.9501733102253 L 72.02108649035026 351.9501733102253 L 72.02108649035026 351.5801559792028 L 72.17155110793423 351.5801559792028 L 72.17155110793423 351.3951473136915 L 72.47248034310222 351.3951473136915 L 72.47248034310222 351.025129982669 L 72.6229449606862 351.025129982669 L 72.6229449606862 350.65511265164645 L 72.77340957827019 350.65511265164645 L 72.77340957827019 350.2850953206239 L 72.92387419585418 350.2850953206239 L 72.92387419585418 349.9150779896014 L 73.52573266619014 349.9150779896014 L 73.52573266619014 349.7300693240901 L 73.67619728377413 349.7300693240901 L 73.67619728377413 348.8050259965338 L 73.9771265189421 348.8050259965338 L 73.9771265189421 348.25 L 74.12759113652609 348.25 L 74.12759113652609 346.0298960138648 L 74.27805575411008 346.0298960138648 L 74.27805575411008 345.84488734835355 L 74.42852037169406 345.84488734835355 L 74.42852037169406 345.6598786828423 L 74.57898498927806 345.6598786828423 L 74.57898498927806 345.1048526863085 L 74.72944960686205 345.1048526863085 L 74.72944960686205 344.36481802426346 L 74.87991422444603 344.36481802426346 L 74.87991422444603 343.8097920277296 L 75.03037884203002 343.8097920277296 L 75.03037884203002 343.62478336221835 L 75.331308077198 343.62478336221835 L 75.331308077198 343.2547660311958 L 75.48177269478198 343.2547660311958 L 75.48177269478198 342.14471403812826 L 75.63223731236597 342.14471403812826 L 75.63223731236597 341.7746967071057 L 75.78270192994997 341.7746967071057 L 75.78270192994997 341.03466204506066 L 75.93316654753396 341.03466204506066 L 75.93316654753396 340.8496533795494 L 76.38456040028592 340.8496533795494 L 76.38456040028592 339.92461005199306 L 76.53502501786991 339.92461005199306 L 76.53502501786991 339.5545927209705 L 77.13688348820585 339.5545927209705 L 77.13688348820585 338.8145580589255 L 77.43781272337384 338.8145580589255 L 77.43781272337384 335.8544194107452 L 77.58827734095783 335.8544194107452 L 77.58827734095783 335.66941074523396 L 77.73874195854182 335.66941074523396 L 77.73874195854182 335.4844020797227 L 77.8892065761258 335.4844020797227 L 77.8892065761258 333.63431542461007 L 78.0396711937098 333.63431542461007 L 78.0396711937098 333.2642980935875 L 78.19013581129377 333.2642980935875 L 78.19013581129377 333.07928942807627 L 78.34060042887776 333.07928942807627 L 78.34060042887776 332.7092720970537 L 78.49106504646176 332.7092720970537 L 78.49106504646176 332.52426343154247 L 78.64152966404575 332.52426343154247 L 78.64152966404575 331.5992201039861 L 78.79199428162974 331.5992201039861 L 78.79199428162974 330.6741767764298 L 78.94245889921372 330.6741767764298 L 78.94245889921372 330.3041594454073 L 79.09292351679771 330.3041594454073 L 79.09292351679771 330.119150779896 L 79.3938527519657 330.119150779896 L 79.3938527519657 329.74913344887347 L 79.84524660471766 329.74913344887347 L 79.84524660471766 329.0090987868284 L 79.99571122230165 329.0090987868284 L 79.99571122230165 328.6390814558059 L 80.14617583988563 328.6390814558059 L 80.14617583988563 328.26906412478337 L 80.29664045746962 328.26906412478337 L 80.29664045746962 328.0840554592721 L 80.44710507505361 328.0840554592721 L 80.44710507505361 327.344020797227 L 80.59756969263759 327.344020797227 L 80.59756969263759 326.60398613518197 L 80.74803431022158 326.60398613518197 L 80.74803431022158 326.2339688041594 L 80.89849892780558 326.2339688041594 L 80.89849892780558 325.3089254766031 L 81.19942816297356 325.3089254766031 L 81.19942816297356 324.9389081455806 L 81.34989278055755 324.9389081455806 L 81.34989278055755 324.5688908145581 L 81.50035739814153 324.5688908145581 L 81.50035739814153 324.0138648180242 L 81.8012866333095 324.0138648180242 L 81.8012866333095 323.0888214904679 L 81.9517512508935 323.0888214904679 L 81.9517512508935 322.9038128249567 L 82.10221586847749 322.9038128249567 L 82.10221586847749 322.7188041594454 L 82.55360972122945 322.7188041594454 L 82.55360972122945 320.6837088388215 L 82.70407433881344 320.6837088388215 L 82.70407433881344 319.9436741767764 L 82.85453895639742 319.9436741767764 L 82.85453895639742 319.7586655112652 L 83.00500357398141 319.7586655112652 L 83.00500357398141 318.6486135181975 L 83.1554681915654 318.6486135181975 L 83.1554681915654 315.68847487001733 L 83.3059328091494 315.68847487001733 L 83.3059328091494 315.31845753899483 L 83.45639742673339 315.31845753899483 L 83.45639742673339 313.65337954939343 L 83.60686204431737 313.65337954939343 L 83.60686204431737 313.09835355285963 L 83.75732666190136 313.09835355285963 L 83.75732666190136 312.91334488734833 L 83.90779127948534 312.91334488734833 L 83.90779127948534 312.1733102253033 L 84.35918513223731 312.1733102253033 L 84.35918513223731 310.87824956672443 L 84.96104360257326 310.87824956672443 L 84.96104360257326 310.13821490467933 L 85.56290207290922 310.13821490467933 L 85.56290207290922 309.95320623916814 L 85.71336669049322 309.95320623916814 L 85.71336669049322 309.76819757365683 L 85.8638313080772 309.76819757365683 L 85.8638313080772 309.5831889081456 L 86.16476054324518 309.5831889081456 L 86.16476054324518 308.10311958405543 L 86.31522516082916 308.10311958405543 L 86.31522516082916 307.73310225303294 L 86.61615439599714 307.73310225303294 L 86.61615439599714 306.99306759098783 L 86.76661901358113 306.99306759098783 L 86.76661901358113 306.8080589254766 L 86.91708363116513 306.8080589254766 L 86.91708363116513 306.62305025996534 L 87.0675482487491 306.62305025996534 L 87.0675482487491 306.43804159445403 L 87.51894210150107 306.43804159445403 L 87.51894210150107 306.06802426343154 L 87.81987133666905 306.06802426343154 L 87.81987133666905 305.51299826689774 L 87.97033595425304 305.51299826689774 L 87.97033595425304 304.7729636048527 L 88.27126518942102 304.7729636048527 L 88.27126518942102 304.58795493934144 L 88.421729807005 304.58795493934144 L 88.421729807005 303.84792027729634 L 88.57219442458899 303.84792027729634 L 88.57219442458899 303.6629116117851 L 88.72265904217298 303.6629116117851 L 88.72265904217298 302.73786828422874 L 88.87312365975697 302.73786828422874 L 88.87312365975697 302.182842287695 L 89.17405289492496 302.182842287695 L 89.17405289492496 300.88778162911615 L 89.32451751250893 300.88778162911615 L 89.32451751250893 300.14774696707104 L 89.47498213009293 300.14774696707104 L 89.47498213009293 299.9627383015598 L 90.07684060042888 299.9627383015598 L 90.07684060042888 299.59272097053724 L 90.37776983559685 299.59272097053724 L 90.37776983559685 298.2976603119584 L 90.52823445318084 298.2976603119584 L 90.52823445318084 296.8175909878683 L 90.82916368834881 296.8175909878683 L 90.82916368834881 296.26256499133444 L 90.9796283059328 296.26256499133444 L 90.9796283059328 295.52253032928945 L 91.1300929235168 295.52253032928945 L 91.1300929235168 295.33752166377815 L 91.28055754110079 295.33752166377815 L 91.28055754110079 294.78249566724435 L 91.43102215868478 294.78249566724435 L 91.43102215868478 294.5974870017331 L 91.58148677626876 294.5974870017331 L 91.58148677626876 294.41247833622185 L 91.73195139385275 294.41247833622185 L 91.73195139385275 294.0424610051993 L 91.88241601143673 294.0424610051993 L 91.88241601143673 293.67244367417675 L 92.33380986418871 293.67244367417675 L 92.33380986418871 293.48743500866556 L 92.4842744817727 293.48743500866556 L 92.4842744817727 292.9324090121317 L 92.6347390993567 292.9324090121317 L 92.6347390993567 292.74740034662045 L 92.78520371694067 292.74740034662045 L 92.78520371694067 292.37738301559796 L 93.08613295210864 292.37738301559796 L 93.08613295210864 292.19237435008665 L 93.23659756969263 292.19237435008665 L 93.23659756969263 292.0073656845754 L 93.53752680486062 292.0073656845754 L 93.53752680486062 290.71230502599656 L 93.68799142244461 290.71230502599656 L 93.68799142244461 290.52729636048525 L 93.83845604002859 290.52729636048525 L 93.83845604002859 290.342287694974 L 93.98892065761258 290.342287694974 L 93.98892065761258 290.15727902946276 L 94.44031451036454 290.15727902946276 L 94.44031451036454 289.60225303292896 L 94.74124374553253 289.60225303292896 L 94.74124374553253 289.2322357019064 L 94.89170836311652 289.2322357019064 L 94.89170836311652 288.86221837088385 L 95.19263759828448 288.86221837088385 L 95.19263759828448 288.67720970537266 L 95.34310221586847 288.67720970537266 L 95.34310221586847 287.93717504332756 L 96.09542530378842 287.93717504332756 L 96.09542530378842 287.19714038128245 L 96.39635453895639 287.19714038128245 L 96.39635453895639 286.27209705372616 L 96.54681915654038 286.27209705372616 L 96.54681915654038 285.90207972270366 L 96.84774839170836 285.90207972270366 L 96.84774839170836 285.16204506065856 L 96.99821300929236 285.16204506065856 L 96.99821300929236 284.60701906412476 L 97.14867762687635 284.60701906412476 L 97.14867762687635 284.4220103986135 L 97.44960686204432 284.4220103986135 L 97.44960686204432 283.8669844020797 L 97.6000714796283 283.8669844020797 L 97.6000714796283 283.31195840554597 L 98.20192994996427 283.31195840554597 L 98.20192994996427 282.9419410745234 L 98.50285918513224 282.9419410745234 L 98.50285918513224 282.75693240901217 L 98.65332380271623 282.75693240901217 L 98.65332380271623 282.01689774696706 L 98.80378842030021 282.01689774696706 L 98.80378842030021 280.7218370883882 L 98.9542530378842 280.7218370883882 L 98.9542530378842 280.53682842287697 L 99.10471765546819 280.53682842287697 L 99.10471765546819 280.35181975736566 L 99.25518227305218 280.35181975736566 L 99.25518227305218 279.98180242634317 L 99.40564689063618 279.98180242634317 L 99.40564689063618 278.13171577123046 L 99.55611150822016 278.13171577123046 L 99.55611150822016 277.94670710571927 L 99.85704074338813 277.94670710571927 L 99.85704074338813 277.39168110918547 L 100.00750536097212 277.39168110918547 L 100.00750536097212 276.28162911611787 L 100.4588992137241 276.28162911611787 L 100.4588992137241 276.09662045060657 L 100.75982844889207 276.09662045060657 L 100.75982844889207 275.72660311958407 L 101.06075768406004 275.72660311958407 L 101.06075768406004 275.3565857885615 L 101.21122230164403 275.3565857885615 L 101.21122230164403 274.43154246100517 L 101.36168691922802 274.43154246100517 L 101.36168691922802 273.8765164644714 L 101.51215153681201 273.8765164644714 L 101.51215153681201 273.6915077989601 L 101.662616154396 273.6915077989601 L 101.662616154396 273.50649913344887 L 101.81308077197998 273.50649913344887 L 101.81308077197998 273.32149046793756 L 101.96354538956396 273.32149046793756 L 101.96354538956396 273.1364818024264 L 102.11401000714795 273.1364818024264 L 102.11401000714795 272.5814558058926 L 102.26447462473195 272.5814558058926 L 102.26447462473195 272.39644714038127 L 102.56540385989993 272.39644714038127 L 102.56540385989993 272.21143847487 L 102.71586847748392 272.21143847487 L 102.71586847748392 272.0264298093588 L 102.86633309506792 272.0264298093588 L 102.86633309506792 271.6564124783362 L 103.16726233023589 271.6564124783362 L 103.16726233023589 269.9913344887348 L 103.31772694781986 269.9913344887348 L 103.31772694781986 269.8063258232236 L 103.61865618298785 269.8063258232236 L 103.61865618298785 269.62131715771227 L 103.76912080057184 269.62131715771227 L 103.76912080057184 268.696273830156 L 104.07005003573981 268.696273830156 L 104.07005003573981 266.6611785095321 L 104.3709792709078 266.6611785095321 L 104.3709792709078 266.1061525129983 L 104.52144388849177 266.1061525129983 L 104.52144388849177 265.3661178509532 L 104.67190850607577 265.3661178509532 L 104.67190850607577 265.1811091854419 L 104.82237312365976 265.1811091854419 L 104.82237312365976 264.6260831889081 L 104.97283774124375 264.6260831889081 L 104.97283774124375 264.2560658578856 L 105.12330235882774 264.2560658578856 L 105.12330235882774 264.0710571923744 L 105.72516082916368 264.0710571923744 L 105.72516082916368 263.5160311958406 L 106.02609006433167 263.5160311958406 L 106.02609006433167 262.2209705372617 L 106.32701929949965 262.2209705372617 L 106.32701929949965 261.2959272097054 L 106.47748391708363 261.2959272097054 L 106.47748391708363 260.92590987868283 L 106.62794853466761 260.92590987868283 L 106.62794853466761 260.7409012131716 L 106.7784131522516 260.7409012131716 L 106.7784131522516 260.1858752166378 L 106.9288777698356 260.1858752166378 L 106.9288777698356 260.00086655112653 L 107.22980700500358 260.00086655112653 L 107.22980700500358 259.8158578856153 L 107.38027162258756 259.8158578856153 L 107.38027162258756 258.33578856152513 L 108.1325947105075 258.33578856152513 L 108.1325947105075 257.78076256499133 L 108.2830593280915 257.78076256499133 L 108.2830593280915 257.4107452339688 L 108.43352394567549 257.4107452339688 L 108.43352394567549 257.22573656845753 L 108.73445318084346 257.22573656845753 L 108.73445318084346 257.0407279029463 L 108.88491779842744 257.0407279029463 L 108.88491779842744 256.67071057192373 L 109.33631165117941 256.67071057192373 L 109.33631165117941 256.4857019064125 L 109.4867762687634 256.4857019064125 L 109.4867762687634 255.56065857885616 L 109.78770550393139 255.56065857885616 L 109.78770550393139 255.3756499133449 L 109.93817012151537 255.3756499133449 L 109.93817012151537 255.00563258232236 L 110.23909935668334 255.00563258232236 L 110.23909935668334 254.8206239168111 L 110.38956397426733 254.8206239168111 L 110.38956397426733 254.63561525129984 L 110.54002859185132 254.63561525129984 L 110.54002859185132 254.45060658578856 L 110.69049320943532 254.45060658578856 L 110.69049320943532 254.26559792027732 L 110.8409578270193 254.26559792027732 L 110.8409578270193 254.080589254766 L 110.9914224446033 254.080589254766 L 110.9914224446033 253.52556325823224 L 111.29235167977126 253.52556325823224 L 111.29235167977126 252.97053726169844 L 111.59328091493924 252.97053726169844 L 111.59328091493924 252.41551126516464 L 112.0446747676912 252.41551126516464 L 112.0446747676912 252.2305025996534 L 112.19513938527518 252.2305025996534 L 112.19513938527518 252.04549393414212 L 112.64653323802716 252.04549393414212 L 112.64653323802716 251.30545927209704 L 112.79699785561115 251.30545927209704 L 112.79699785561115 250.38041594454072 L 113.09792709077914 250.38041594454072 L 113.09792709077914 249.08535528596187 L 114.15117941386704 249.08535528596187 L 114.15117941386704 248.71533795493934 L 114.45210864903503 248.71533795493934 L 114.45210864903503 248.3453206239168 L 114.90350250178699 248.3453206239168 L 114.90350250178699 247.97530329289427 L 115.50536097212294 247.97530329289427 L 115.50536097212294 247.23526863084922 L 115.65582558970692 247.23526863084922 L 115.65582558970692 247.05025996533794 L 115.80629020729093 247.05025996533794 L 115.80629020729093 246.8652512998267 L 116.25768406004288 246.8652512998267 L 116.25768406004288 246.68024263431542 L 116.55861329521086 246.68024263431542 L 116.55861329521086 246.49523396880417 L 116.85954253037885 246.49523396880417 L 116.85954253037885 246.3102253032929 L 117.01000714796282 246.3102253032929 L 117.01000714796282 245.75519930675912 L 117.16047176554682 245.75519930675912 L 117.16047176554682 245.57019064124782 L 117.31093638313081 245.57019064124782 L 117.31093638313081 245.38518197573657 L 117.4614010007148 245.38518197573657 L 117.4614010007148 245.2001733102253 L 117.61186561829878 245.2001733102253 L 117.61186561829878 245.01516464471402 L 117.76233023588277 245.01516464471402 L 117.76233023588277 244.6451473136915 L 118.06325947105076 244.6451473136915 L 118.06325947105076 244.46013864818025 L 118.21372408863473 244.46013864818025 L 118.21372408863473 243.90511265164645 L 118.36418870621873 243.90511265164645 L 118.36418870621873 243.1650779896014 L 118.51465332380272 243.1650779896014 L 118.51465332380272 242.79506065857885 L 118.81558255897069 242.79506065857885 L 118.81558255897069 242.61005199306757 L 118.96604717655468 242.61005199306757 L 118.96604717655468 240.75996533795495 L 119.26697641172267 240.75996533795495 L 119.26697641172267 240.57495667244368 L 119.56790564689064 240.57495667244368 L 119.56790564689064 240.20493934142115 L 119.71837026447461 240.20493934142115 L 119.71837026447461 239.4649046793761 L 119.86883488205862 239.4649046793761 L 119.86883488205862 239.09488734835358 L 120.16976411722659 239.09488734835358 L 120.16976411722659 238.9098786828423 L 120.32022873481057 238.9098786828423 L 120.32022873481057 238.72487001733106 L 120.47069335239458 238.72487001733106 L 120.47069335239458 238.1698440207972 L 120.77162258756255 238.1698440207972 L 120.77162258756255 237.61481802426343 L 120.92208720514652 237.61481802426343 L 120.92208720514652 237.05979202772963 L 121.07255182273052 237.05979202772963 L 121.07255182273052 236.87478336221835 L 121.22301644031451 236.87478336221835 L 121.22301644031451 236.6897746967071 L 121.3734810578985 236.6897746967071 L 121.3734810578985 235.5797227036395 L 121.97533952823446 235.5797227036395 L 121.97533952823446 235.39471403812826 L 122.12580414581844 235.39471403812826 L 122.12580414581844 234.6546793760832 L 122.57719799857041 234.6546793760832 L 122.57719799857041 234.46967071057193 L 122.87812723373838 234.46967071057193 L 122.87812723373838 233.72963604852688 L 123.47998570407434 233.72963604852688 L 123.47998570407434 233.17461005199308 L 123.63045032165833 233.17461005199308 L 123.63045032165833 232.98960138648178 L 123.78091493924231 232.98960138648178 L 123.78091493924231 232.8045927209705 L 124.08184417441029 232.8045927209705 L 124.08184417441029 232.24956672443673 L 124.38277340957826 232.24956672443673 L 124.38277340957826 231.8795493934142 L 124.53323802716227 231.8795493934142 L 124.53323802716227 231.69454072790293 L 124.83416726233024 231.69454072790293 L 124.83416726233024 231.13951473136913 L 125.13509649749821 231.13951473136913 L 125.13509649749821 230.39948006932408 L 125.88741958541816 230.39948006932408 L 125.88741958541816 230.21447140381284 L 126.18834882058613 230.21447140381284 L 126.18834882058613 230.02946273830156 L 127.09113652609005 230.02946273830156 L 127.09113652609005 229.65944540727904 L 127.39206576125804 229.65944540727904 L 127.39206576125804 229.10441941074524 L 127.54253037884203 229.10441941074524 L 127.54253037884203 227.62435008665514 L 127.84345961401 227.62435008665514 L 127.84345961401 226.88431542461004 L 127.993924231594 226.88431542461004 L 127.993924231594 226.69930675909876 L 128.29485346676196 226.69930675909876 L 128.29485346676196 226.5142980935875 L 128.44531808434596 226.5142980935875 L 128.44531808434596 226.32928942807624 L 129.04717655468193 226.32928942807624 L 129.04717655468193 225.4042461005199 L 129.1976411722659 225.4042461005199 L 129.1976411722659 225.21923743500867 L 129.3481057898499 225.21923743500867 L 129.3481057898499 225.0342287694974 L 129.49857040743387 225.0342287694974 L 129.49857040743387 224.84922010398614 L 129.64903502501787 224.84922010398614 L 129.64903502501787 224.66421143847487 L 130.10042887776984 224.66421143847487 L 130.10042887776984 224.47920277296362 L 130.40135811293783 224.47920277296362 L 130.40135811293783 223.92417677642982 L 130.40135811293783 223.5541594454073 L 131.30414581844175 223.5541594454073 L 131.30414581844175 223.36915077989602 L 131.45461043602575 223.36915077989602 L 131.45461043602575 222.62911611785097 L 131.6050750536097 222.62911611785097 L 131.6050750536097 222.4441074523397 L 131.7555396711937 222.4441074523397 L 131.7555396711937 222.25909878682845 L 131.9060042887777 222.25909878682845 L 131.9060042887777 221.88908145580592 L 132.0564689063617 221.88908145580592 L 132.0564689063617 221.70407279029462 L 132.20693352394568 221.70407279029462 L 132.20693352394568 221.33405545927207 L 132.35739814152964 221.33405545927207 L 132.35739814152964 221.14904679376082 L 132.65832737669763 221.14904679376082 L 132.65832737669763 220.7790294627383 L 132.80879199428165 220.7790294627383 L 132.80879199428165 220.03899480069325 L 132.9592566118656 220.03899480069325 L 132.9592566118656 219.6689774696707 L 133.1097212294496 219.6689774696707 L 133.1097212294496 218.92894280762565 L 133.56111508220158 218.92894280762565 L 133.56111508220158 218.55892547660312 L 133.71157969978555 218.55892547660312 L 133.71157969978555 217.6338821490468 L 133.86204431736957 217.6338821490468 L 133.86204431736957 217.44887348353555 L 134.01250893495353 217.44887348353555 L 134.01250893495353 217.26386481802427 L 134.31343817012151 217.26386481802427 L 134.31343817012151 217.07885615251303 L 134.4639027877055 217.07885615251303 L 134.4639027877055 215.9688041594454 L 134.6143674052895 215.9688041594454 L 134.6143674052895 215.22876949740032 L 135.06576125804145 215.22876949740032 L 135.06576125804145 215.04376083188907 L 135.21622587562544 215.04376083188907 L 135.21622587562544 214.8587521663778 L 135.36669049320943 214.8587521663778 L 135.36669049320943 214.67374350086655 L 136.11901358112937 214.67374350086655 L 136.11901358112937 214.48873483535527 L 136.57040743388134 214.48873483535527 L 136.57040743388134 213.74870017331023 L 136.72087205146534 213.74870017331023 L 136.72087205146534 213.19367417677643 L 136.87133666904933 213.19367417677643 L 136.87133666904933 213.00866551126518 L 137.02180128663332 213.00866551126518 L 137.02180128663332 212.8236568457539 L 137.92458899213722 212.8236568457539 L 137.92458899213722 212.63864818024265 L 138.07505360972124 212.63864818024265 L 138.07505360972124 212.2686308492201 L 138.2255182273052 212.2686308492201 L 138.2255182273052 212.08362218370885 L 138.5264474624732 212.08362218370885 L 138.5264474624732 211.89861351819758 L 138.67691208005718 211.89861351819758 L 138.67691208005718 211.71360485268633 L 138.82737669764117 211.71360485268633 L 138.82737669764117 210.60355285961873 L 139.27877055039312 210.60355285961873 L 139.27877055039312 210.41854419410743 L 139.42923516797714 210.41854419410743 L 139.42923516797714 210.23353552859618 L 139.5796997855611 210.23353552859618 L 139.5796997855611 209.86351819757363 L 139.7301644031451 209.86351819757363 L 139.7301644031451 208.75346620450605 L 140.03109363831308 208.75346620450605 L 140.03109363831308 207.64341421143848 L 140.33202287348107 207.64341421143848 L 140.33202287348107 207.4584055459272 L 140.78341672623304 207.4584055459272 L 140.78341672623304 207.27339688041596 L 140.933881343817 207.27339688041596 L 140.933881343817 207.08838821490468 L 141.084345961401 207.08838821490468 L 141.084345961401 205.6083188908146 L 141.234810578985 205.6083188908146 L 141.68620443173694 205.6083188908146 L 141.68620443173694 205.4233102253033 L 141.83666904932096 205.4233102253033 L 141.83666904932096 204.86828422876948 L 141.98713366690492 204.86828422876948 L 141.98713366690492 204.49826689774696 L 142.13759828448894 204.49826689774696 L 142.13759828448894 204.31325823223568 L 142.2880629020729 204.31325823223568 L 142.2880629020729 203.94324090121316 L 142.4385275196569 203.94324090121316 L 142.4385275196569 203.75823223570188 L 142.5889921372409 203.75823223570188 L 142.5889921372409 203.57322357019063 L 142.73945675482486 203.57322357019063 L 142.73945675482486 203.2032062391681 L 143.04038598999284 203.2032062391681 L 143.04038598999284 202.8331889081456 L 143.49177984274482 202.8331889081456 L 143.49177984274482 202.6481802426343 L 143.79270907791278 202.6481802426343 L 143.79270907791278 202.0931542461005 L 143.9431736954968 202.0931542461005 L 143.9431736954968 201.90814558058926 L 144.09363831308076 201.90814558058926 L 144.09363831308076 201.35311958405546 L 144.24410293066478 201.35311958405546 L 144.24410293066478 200.61308492201042 L 144.9964260185847 200.61308492201042 L 144.9964260185847 200.42807625649914 L 145.2973552537527 200.42807625649914 L 145.2973552537527 200.2430675909879 L 145.44781987133666 200.2430675909879 L 145.44781987133666 200.05805892547662 L 145.59828448892065 200.05805892547662 L 145.59828448892065 199.3180242634315 L 145.89921372408864 199.3180242634315 L 145.89921372408864 199.13301559792026 L 146.2001429592566 199.13301559792026 L 146.2001429592566 198.948006932409 L 146.35060757684062 198.948006932409 L 146.35060757684062 198.3929809358752 L 146.50107219442458 198.3929809358752 L 146.50107219442458 198.20797227036394 L 146.65153681200857 198.20797227036394 L 146.65153681200857 197.8379549393414 L 147.5543245175125 197.8379549393414 L 147.5543245175125 197.09792027729634 L 147.70478913509652 197.09792027729634 L 147.70478913509652 196.9129116117851 L 148.00571837026447 196.9129116117851 L 148.00571837026447 195.432842287695 L 148.15618298784847 195.432842287695 L 148.15618298784847 194.69280762564995 L 148.30664760543246 194.69280762564995 L 148.30664760543246 194.13778162911615 L 148.45711222301645 194.13778162911615 L 148.45711222301645 193.7677642980936 L 148.7580414581844 193.7677642980936 L 148.7580414581844 193.5827556325823 L 148.9085060757684 193.5827556325823 L 148.9085060757684 193.39774696707104 L 149.0589706933524 193.39774696707104 L 149.0589706933524 192.84272097053724 L 149.20943531093639 192.84272097053724 L 149.20943531093639 192.4727036395147 L 149.20943531093639 191.91767764298095 L 149.35989992852035 191.91767764298095 L 149.35989992852035 191.73266897746964 L 149.51036454610437 191.73266897746964 L 149.51036454610437 191.36265164644715 L 149.81129378127235 191.36265164644715 L 149.81129378127235 190.9926343154246 L 149.96175839885632 190.9926343154246 L 149.96175839885632 190.6226169844021 L 150.1122230164403 190.6226169844021 L 150.1122230164403 190.25259965337955 L 150.4131522516083 190.25259965337955 L 150.4131522516083 190.0675909878683 L 150.71408148677625 190.0675909878683 L 150.71408148677625 189.88258232235705 L 151.01501072194424 189.88258232235705 L 151.01501072194424 188.9575389948007 L 151.31593995711222 188.9575389948007 L 151.31593995711222 188.77253032928945 L 151.6168691922802 188.77253032928945 L 151.6168691922802 188.4025129982669 L 152.06826304503215 188.4025129982669 L 152.06826304503215 187.47746967071055 L 152.21872766261615 187.47746967071055 L 152.21872766261615 187.10745233968805 L 152.36919228020014 187.10745233968805 L 152.36919228020014 186.92244367417675 L 152.8205861329521 186.92244367417675 L 152.8205861329521 186.7374350086655 L 153.12151536812007 186.7374350086655 L 153.12151536812007 186.36741767764295 L 153.2719799857041 186.36741767764295 L 153.2719799857041 186.1824090121317 L 153.42244460328806 186.1824090121317 L 153.42244460328806 185.99740034662045 L 153.57290922087205 185.99740034662045 L 153.57290922087205 185.6273830155979 L 153.87383845604003 185.6273830155979 L 153.87383845604003 185.44237435008665 L 154.02430307362403 185.44237435008665 L 154.02430307362403 185.0723570190641 L 154.325232308792 185.0723570190641 L 154.325232308792 184.88734835355285 L 154.77662616154396 184.88734835355285 L 154.77662616154396 184.33232235701905 L 154.92709077912792 184.33232235701905 L 154.92709077912792 184.1473136915078 L 155.2280200142959 184.1473136915078 L 155.2280200142959 183.96230502599656 L 155.37848463187993 183.96230502599656 L 155.37848463187993 183.7772963604853 L 155.5289492494639 183.7772963604853 L 155.5289492494639 183.0372616984402 L 156.28127233738385 183.0372616984402 L 156.28127233738385 182.2972270363951 L 156.43173695496785 182.2972270363951 L 156.43173695496785 181.74220103986136 L 156.5822015725518 181.74220103986136 L 156.5822015725518 181.55719237435005 L 156.73266619013583 181.55719237435005 L 156.73266619013583 180.817157712305 L 156.8831308077198 180.817157712305 L 156.8831308077198 180.4471403812825 L 157.0335954253038 180.4471403812825 L 157.0335954253038 180.2621317157712 L 157.48498927805576 180.2621317157712 L 157.48498927805576 180.07712305025996 L 157.9363831308077 180.07712305025996 L 157.9363831308077 179.8921143847487 L 158.2373123659757 179.8921143847487 L 158.2373123659757 179.70710571923746 L 158.53824160114368 179.70710571923746 L 158.53824160114368 179.52209705372616 L 158.68870621872767 179.52209705372616 L 158.68870621872767 179.3370883882149 L 158.83917083631167 179.3370883882149 L 158.83917083631167 178.59705372616986 L 159.29056468906361 178.59705372616986 L 159.29056468906361 177.11698440207977 L 159.44102930664764 177.11698440207977 L 159.44102930664764 176.93197573656846 L 159.5914939242316 176.93197573656846 L 159.5914939242316 176.5619584055459 L 160.19335239456757 176.5619584055459 L 160.19335239456757 175.82192374350086 L 160.49428162973553 175.82192374350086 L 160.49428162973553 175.6369150779896 L 160.79521086490348 175.6369150779896 L 160.79521086490348 175.4519064124783 L 161.09614010007147 175.4519064124783 L 161.09614010007147 175.0818890814558 L 161.39706933523945 175.0818890814558 L 161.39706933523945 174.8968804159445 L 161.99892780557542 174.8968804159445 L 161.99892780557542 174.34185441941077 L 162.1493924231594 174.34185441941077 L 162.1493924231594 174.15684575389946 L 162.45032165832737 174.15684575389946 L 162.45032165832737 173.9718370883882 L 163.2026447462473 173.9718370883882 L 163.2026447462473 173.4168110918544 L 163.3531093638313 173.4168110918544 L 163.3531093638313 173.04679376083192 L 163.5035739814153 173.04679376083192 L 163.5035739814153 172.8617850953206 L 163.80450321658327 172.8617850953206 L 163.80450321658327 172.49176776429812 L 164.10543245175126 172.49176776429812 L 164.10543245175126 172.12175043327557 L 164.70729092208722 172.12175043327557 L 164.70729092208722 171.75173310225307 L 165.61007862759115 171.75173310225307 L 165.61007862759115 171.56672443674177 L 166.06147248034307 171.56672443674177 L 166.06147248034307 171.38171577123052 L 166.51286633309508 171.38171577123052 L 166.51286633309508 170.82668977469666 L 166.66333095067904 170.82668977469666 L 166.66333095067904 170.27166377816292 L 166.81379556826306 170.27166377816292 L 166.81379556826306 170.0866551126516 L 166.96426018584702 170.0866551126516 L 166.96426018584702 169.53162911611787 L 167.11472480343105 169.53162911611787 L 167.11472480343105 169.34662045060657 L 167.265189421015 169.34662045060657 L 167.265189421015 169.16161178509532 L 167.415654038599 169.16161178509532 L 167.415654038599 168.97660311958407 L 167.71658327376696 168.97660311958407 L 167.71658327376696 168.23656845753902 L 167.86704789135098 168.23656845753902 L 167.86704789135098 167.49653379549392 L 168.46890636168692 167.49653379549392 L 168.46890636168692 167.12651646447142 L 169.07076483202286 167.12651646447142 L 169.07076483202286 166.94150779896017 L 169.37169406719084 166.94150779896017 L 169.37169406719084 166.75649913344887 L 170.57541100786278 166.75649913344887 L 170.57541100786278 166.57149046793762 L 171.32773409578272 166.57149046793762 L 171.32773409578272 166.20147313691507 L 171.47819871336668 166.20147313691507 L 171.47819871336668 165.83145580589257 L 171.62866333095067 165.83145580589257 L 171.62866333095067 165.64644714038127 L 171.77912794853466 165.64644714038127 L 171.77912794853466 165.46143847487002 L 172.83238027162258 165.46143847487002 L 172.83238027162258 165.09142114384747 L 172.9828448892066 165.09142114384747 L 172.9828448892066 164.90641247833622 L 173.13330950679057 164.90641247833622 L 173.13330950679057 164.53639514731367 L 173.28377412437456 164.53639514731367 L 173.28377412437456 164.35138648180242 L 173.43423874195855 164.16637781629117 L 173.8856325947105 164.16637781629117 L 173.8856325947105 163.79636048526862 L 174.0360972122945 163.79636048526862 L 174.0360972122945 162.87131715771233 L 175.2398141529664 162.87131715771233 L 175.2398141529664 162.50129982668977 L 175.99213724088634 162.50129982668977 L 175.99213724088634 162.31629116117853 L 176.5939957112223 162.31629116117853 L 176.5939957112223 162.13128249566728 L 176.7444603288063 162.13128249566728 L 176.7444603288063 161.94627383015597 L 177.19585418155827 161.94627383015597 L 177.19585418155827 161.39124783362217 L 177.34631879914224 161.39124783362217 L 177.34631879914224 161.20623916811093 L 177.49678341672623 161.20623916811093 L 177.49678341672623 160.65121317157713 L 178.24910650464616 160.65121317157713 L 178.24910650464616 160.46620450606588 L 178.39957112223018 160.46620450606588 L 178.39957112223018 160.28119584055463 L 178.55003573981415 160.28119584055463 L 178.55003573981415 159.91117850953202 L 178.70050035739814 159.91117850953202 L 178.70050035739814 159.35615251299822 L 178.85096497498213 159.35615251299822 L 178.85096497498213 158.43110918544193 L 179.60328806290207 158.43110918544193 L 179.60328806290207 158.06109185441943 L 179.75375268048606 158.06109185441943 L 179.75375268048606 157.87608318890813 L 180.05468191565404 157.87608318890813 L 180.05468191565404 157.69107452339688 L 180.35561115082203 157.69107452339688 L 180.35561115082203 157.50606585788563 L 180.506075768406 157.50606585788563 L 180.506075768406 156.95103986135183 L 180.80700500357398 156.95103986135183 L 180.80700500357398 156.58102253032928 L 181.7097927090779 156.58102253032928 L 181.7097927090779 156.39601386481803 L 182.16118656182988 156.39601386481803 L 182.16118656182988 156.21100519930678 L 182.31165117941384 156.21100519930678 L 182.31165117941384 156.02599653379548 L 182.9135096497498 156.02599653379548 L 182.9135096497498 155.84098786828423 L 183.06397426733383 155.84098786828423 L 183.06397426733383 155.47097053726173 L 183.2144388849178 155.47097053726173 L 183.2144388849178 155.28596187175043 L 183.51536812008575 155.28596187175043 L 183.51536812008575 155.10095320623918 L 183.81629735525377 155.10095320623918 L 183.81629735525377 154.91594454072793 L 184.11722659042172 154.91594454072793 L 184.11722659042172 154.54592720970538 L 184.26769120800571 154.54592720970538 L 184.26769120800571 153.99090121317158 L 184.4181558255897 153.99090121317158 L 184.4181558255897 153.80589254766028 L 184.86954967834168 153.80589254766028 L 184.86954967834168 153.43587521663778 L 185.47140814867763 153.43587521663778 L 185.47140814867763 153.06585788561523 L 186.0732666190136 153.06585788561523 L 186.0732666190136 152.88084922010398 L 186.22373123659756 152.88084922010398 L 186.22373123659756 152.69584055459273 L 186.37419585418155 152.69584055459273 L 186.37419585418155 152.32582322357018 L 186.52466047176554 152.32582322357018 L 186.52466047176554 151.77079722703638 L 186.82558970693353 151.77079722703638 L 186.82558970693353 151.03076256499133 L 187.1265189421015 151.03076256499133 L 187.1265189421015 150.66074523396884 L 187.2769835596855 150.66074523396884 L 187.2769835596855 149.7357019064125 L 187.57791279485346 149.7357019064125 L 187.57791279485346 149.55069324090124 L 188.48070050035741 149.55069324090124 L 188.48070050035741 149.36568457539 L 188.63116511794138 149.36568457539 L 188.63116511794138 149.1806759098787 L 188.93209435310936 149.1806759098787 L 188.93209435310936 148.99566724436744 L 189.08255897069336 148.99566724436744 L 189.08255897069336 148.8106585788562 L 189.3834882058613 148.8106585788562 L 189.3834882058613 148.6256499133449 L 189.6844174410293 148.6256499133449 L 189.6844174410293 148.44064124783358 L 189.8348820586133 148.44064124783358 L 189.8348820586133 147.70060658578853 L 190.13581129378127 147.70060658578853 L 190.13581129378127 147.33058925476604 L 190.58720514653322 147.33058925476604 L 190.58720514653322 147.14558058925473 L 191.33952823445318 147.14558058925473 L 191.33952823445318 146.4055459272097 L 191.64045746962114 146.4055459272097 L 191.64045746962114 146.22053726169844 L 191.79092208720516 146.22053726169844 L 191.79092208720516 146.0355285961872 L 191.94138670478915 146.0355285961872 L 191.94138670478915 145.8505199306759 L 192.09185132237312 145.8505199306759 L 192.09185132237312 145.66551126516464 L 192.3927805575411 145.66551126516464 L 192.3927805575411 145.4805025996534 L 192.6937097927091 145.4805025996534 L 192.6937097927091 144.3704506065858 L 192.84417441029305 144.3704506065858 L 192.84417441029305 144.18544194107454 L 192.99463902787707 144.18544194107454 L 192.99463902787707 144.0004332755633 L 194.80021443888492 144.0004332755633 L 194.80021443888492 143.815424610052 L 195.55253752680485 143.815424610052 L 195.55253752680485 143.4454072790295 L 196.00393137955683 143.4454072790295 L 196.00393137955683 143.26039861351825 L 196.90671908506076 143.26039861351825 L 196.90671908506076 143.0753899480069 L 197.05718370264475 143.0753899480069 L 197.05718370264475 142.33535528596184 L 197.65904217298072 142.33535528596184 L 197.65904217298072 142.1503466204506 L 197.80950679056468 142.1503466204506 L 197.80950679056468 141.78032928942804 L 197.95997140814868 141.78032928942804 L 197.95997140814868 141.5953206239168 L 198.11043602573267 141.5953206239168 L 198.11043602573267 141.41031195840554 L 198.41136526090065 141.41031195840554 L 198.41136526090065 141.040294627383 L 198.86275911365263 141.040294627383 L 198.86275911365263 140.6702772963605 L 199.0132237312366 140.6702772963605 L 199.0132237312366 140.30025996533794 L 199.31415296640458 140.30025996533794 L 199.31415296640458 140.1152512998267 L 199.91601143674052 140.1152512998267 L 199.91601143674052 139.93024263431545 L 200.2169406719085 139.93024263431545 L 200.2169406719085 139.5602253032929 L 200.3674052894925 139.5602253032929 L 200.3674052894925 139.37521663778165 L 200.81879914224447 139.37521663778165 L 200.81879914224447 139.1902079722704 L 200.96926375982844 139.1902079722704 L 200.96926375982844 138.82019064124785 L 201.11972837741243 138.82019064124785 L 201.11972837741243 138.6351819757366 L 201.7215868477484 138.6351819757366 L 201.7215868477484 138.26516464471405 L 202.47390993566833 138.26516464471405 L 202.47390993566833 138.0801559792028 L 202.77483917083632 138.0801559792028 L 202.77483917083632 137.89514731369155 L 202.9253037884203 137.89514731369155 L 202.9253037884203 137.71013864818025 L 203.0757684060043 137.71013864818025 L 203.0757684060043 137.52512998266894 L 203.22623302358826 137.52512998266894 L 203.22623302358826 137.15511265164645 L 203.37669764117226 137.15511265164645 L 203.37669764117226 136.97010398613514 L 203.82809149392423 136.97010398613514 L 203.82809149392423 136.7850953206239 L 204.42994996426017 136.7850953206239 L 204.42994996426017 136.4150779896014 L 204.58041458184417 136.4150779896014 L 204.58041458184417 135.6750433275563 L 204.7308791994282 135.6750433275563 L 204.7308791994282 135.49003466204505 L 204.88134381701215 135.49003466204505 L 204.88134381701215 135.12001733102255 L 205.1822730521801 135.12001733102255 L 205.1822730521801 134.75 L 205.48320228734812 134.75 L 205.48320228734812 134.37998266897745 L 205.78413152251608 134.37998266897745 L 205.78413152251608 134.00996533795495 L 205.93459614010007 134.00996533795495 L 205.93459614010007 133.45493934142115 L 206.837383845604 133.45493934142115 L 206.837383845604 132.34488734835355 L 206.987848463188 132.34488734835355 L 206.987848463188 132.1598786828423 L 207.28877769835597 132.1598786828423 L 207.28877769835597 131.78986135181975 L 207.43924231593996 131.78986135181975 L 207.43924231593996 131.60485268630845 L 207.58970693352393 131.60485268630845 L 207.58970693352393 130.8648180242634 L 207.74017155110795 130.8648180242634 L 207.74017155110795 130.4948006932409 L 207.8906361686919 130.4948006932409 L 207.8906361686919 130.12478336221835 L 208.3420300214439 130.12478336221835 L 208.3420300214439 129.75476603119586 L 208.94388849177986 129.75476603119586 L 208.94388849177986 129.56975736568455 L 209.09435310936382 129.56975736568455 L 209.09435310936382 129.3847487001733 L 209.6962115796998 129.3847487001733 L 209.6962115796998 129.19974003466206 L 209.84667619728376 129.19974003466206 L 209.84667619728376 128.64471403812826 L 209.99714081486778 128.64471403812826 L 209.99714081486778 128.2746967071057 L 210.14760543245177 128.2746967071057 L 210.14760543245177 127.71967071057196 L 210.29807005003573 127.71967071057196 L 210.29807005003573 127.53466204506066 L 210.44853466761973 127.53466204506066 L 210.44853466761973 127.34965337954941 L 210.7494639027877 127.34965337954941 L 210.7494639027877 127.16464471403816 L 211.50178699070764 127.16464471403816 L 211.50178699070764 126.60961871750436 L 211.80271622587563 126.60961871750436 L 211.80271622587563 125.68457538994801 L 212.10364546104358 125.68457538994801 L 212.10364546104358 125.4995667244367 L 212.85596854896355 125.4995667244367 L 212.85596854896355 125.31455805892546 L 213.00643316654754 125.31455805892546 L 213.00643316654754 125.12954939341421 L 213.15689778413153 125.12954939341421 L 213.15689778413153 124.94454072790296 L 214.05968548963546 124.94454072790296 L 214.05968548963546 124.57452339688041 L 214.21015010721945 124.57452339688041 L 214.21015010721945 123.83448873483536 L 214.5110793423874 123.83448873483536 L 214.5110793423874 123.64948006932411 L 215.11293781272337 123.64948006932411 L 215.11293781272337 123.46447140381281 L 216.31665475339528 123.46447140381281 L 216.31665475339528 123.09445407279031 L 216.46711937097928 123.09445407279031 L 216.46711937097928 122.90944540727901 L 217.6708363116512 122.90944540727901 L 217.6708363116512 122.72443674176776 L 217.82130092923518 122.72443674176776 L 217.82130092923518 122.16941074523396 L 217.97176554681914 122.16941074523396 L 217.97176554681914 121.98440207972271 L 218.12223016440313 121.98440207972271 L 218.12223016440313 121.61438474870022 L 218.27269478198716 121.61438474870022 L 218.27269478198716 121.42937608318891 L 218.42315939957112 121.42937608318891 L 218.42315939957112 121.24436741767767 L 218.7240886347391 121.24436741767767 L 218.7240886347391 120.87435008665511 L 218.8745532523231 120.87435008665511 L 218.8745532523231 120.68934142114381 L 219.77734095782702 120.68934142114381 L 219.77734095782702 120.31932409012131 L 220.22873481057897 120.31932409012131 L 220.22873481057897 119.76429809358751 L 220.37919942816296 119.76429809358751 L 220.37919942816296 119.39428076256496 L 220.52966404574696 119.39428076256496 L 220.52966404574696 119.20927209705371 L 220.83059328091494 119.20927209705371 L 220.83059328091494 119.02426343154247 L 220.98105789849893 119.02426343154247 L 220.98105789849893 118.83925476603116 L 221.13152251608292 118.83925476603116 L 221.13152251608292 118.46923743500867 L 221.28198713366692 118.46923743500867 L 221.28198713366692 118.09922010398611 L 221.58291636883487 118.09922010398611 L 221.58291636883487 117.91421143847487 L 222.03431022158685 117.91421143847487 L 222.03431022158685 117.17417677642982 L 222.48570407433883 117.17417677642982 L 222.48570407433883 116.80415944540727 L 222.6361686919228 116.80415944540727 L 222.6361686919228 116.61915077989602 L 222.93709792709078 116.61915077989602 L 222.93709792709078 116.06412478336222 L 224.44174410293067 116.06412478336222 L 224.44174410293067 115.87911611785097 L 224.59220872051466 115.87911611785097 L 224.59220872051466 115.69410745233972 L 224.74267333809865 115.69410745233972 L 224.74267333809865 115.50909878682842 L 225.0436025732666 115.50909878682842 L 225.0436025732666 115.32409012131717 L 225.1940671908506 115.32409012131717 L 225.1940671908506 115.13908145580592 L 225.3445318084346 115.13908145580592 L 225.3445318084346 114.58405545927207 L 226.24731951393852 114.58405545927207 L 226.24731951393852 114.39904679376082 L 226.3977841315225 114.39904679376082 L 226.3977841315225 114.21403812824957 L 227.75196568977842 114.21403812824957 L 227.75196568977842 114.02902946273827 L 227.9024303073624 114.02902946273827 L 227.9024303073624 113.84402079722702 L 228.05289492494637 113.84402079722702 L 228.05289492494637 113.65901213171577 L 228.2033595425304 113.65901213171577 L 228.2033595425304 113.47400346620452 L 228.65475339528234 113.47400346620452 L 228.65475339528234 113.10398613518197 L 229.25661186561828 113.10398613518197 L 229.25661186561828 112.54896013864817 L 229.55754110078627 112.54896013864817 L 229.55754110078627 112.36395147313692 L 229.85847033595425 112.36395147313692 L 229.85847033595425 111.99393414211437 L 230.15939957112224 111.99393414211437 L 230.15939957112224 111.80892547660312 L 230.4603288062902 111.80892547660312 L 230.4603288062902 111.62391681109187 L 231.36311651179415 111.62391681109187 L 231.36311651179415 111.25389948006932 L 231.9649749821301 111.25389948006932 L 231.9649749821301 111.06889081455807 L 232.11543959971408 111.06889081455807 L 232.11543959971408 110.69887348353552 L 232.41636883488206 110.69887348353552 L 232.41636883488206 110.51386481802427 L 232.71729807005002 110.51386481802427 L 232.71729807005002 110.32885615251303 L 233.168691922802 110.32885615251303 L 233.168691922802 110.14384748700178 L 234.5228734810579 110.14384748700178 L 234.5228734810579 109.77383015597923 L 234.6733380986419 109.77383015597923 L 234.6733380986419 108.84878682842287 L 234.82380271622588 108.84878682842287 L 234.82380271622588 108.66377816291157 L 235.27519656897786 108.66377816291157 L 235.27519656897786 108.47876949740032 L 236.0275196568978 108.47876949740032 L 236.0275196568978 108.10875216637783 L 236.62937812723374 108.10875216637783 L 236.62937812723374 107.92374350086652 L 236.77984274481773 107.92374350086652 L 236.77984274481773 107.73873483535527 L 236.93030736240172 107.73873483535527 L 236.93030736240172 107.55372616984403 L 237.2312365975697 107.55372616984403 L 237.2312365975697 107.36871750433272 L 237.83309506790565 107.36871750433272 L 237.83309506790565 106.81369150779898 L 238.13402430307363 106.81369150779898 L 238.13402430307363 106.62868284228767 L 238.28448892065762 106.62868284228767 L 238.28448892065762 106.25866551126518 L 238.4349535382416 106.25866551126518 L 238.4349535382416 105.51863084922013 L 238.58541815582558 105.51863084922013 L 238.58541815582558 105.14861351819758 L 239.33774124374554 105.14861351819758 L 239.33774124374554 104.96360485268633 L 239.48820586132953 104.96360485268633 L 239.48820586132953 104.77859618717508 L 239.6386704789135 104.77859618717508 L 239.6386704789135 104.59358752166378 L 240.09006433166547 104.59358752166378 L 240.09006433166547 104.40857885615253 L 240.39099356683343 104.40857885615253 L 240.39099356683343 104.03856152512998 L 240.54145818441745 104.03856152512998 L 240.54145818441745 103.85355285961873 L 241.1433166547534 103.85355285961873 L 241.1433166547534 103.66854419410743 L 241.89563974267332 103.66854419410743 L 241.89563974267332 103.29852686308493 L 242.04610436025732 103.29852686308493 L 242.04610436025732 102.92850953206238 L 242.1965689778413 102.92850953206238 L 242.1965689778413 102.55849220103983 L 242.3470335954253 102.55849220103983 L 242.3470335954253 102.37348353552858 L 242.6479628305933 102.37348353552858 L 242.6479628305933 102.18847487001733 L 242.79842744817728 102.18847487001733 L 242.79842744817728 102.00346620450608 L 243.5507505360972 102.00346620450608 L 243.5507505360972 101.44844020797228 L 244.15260900643318 101.44844020797228 L 244.15260900643318 100.52339688041593 L 244.45353824160114 100.52339688041593 L 244.45353824160114 100.33838821490468 L 244.90493209435311 100.33838821490468 L 244.90493209435311 100.15337954939343 L 245.05539671193708 100.15337954939343 L 245.05539671193708 99.78336221837088 L 245.3563259471051 99.78336221837088 L 245.3563259471051 99.59835355285963 L 245.50679056468906 99.59835355285963 L 245.50679056468906 98.85831889081459 L 246.10864903502502 98.85831889081459 L 246.10864903502502 98.67331022530334 L 246.409578270193 98.67331022530334 L 246.409578270193 98.48830155979203 L 246.71050750536097 98.48830155979203 L 246.71050750536097 98.11828422876948 L 246.86097212294496 98.11828422876948 L 246.86097212294496 97.74826689774693 L 247.76375982844888 97.74826689774693 L 247.76375982844888 97.37824956672443 L 248.06468906361687 97.37824956672443 L 248.06468906361687 97.19324090121313 L 249.56933523945676 97.19324090121313 L 249.56933523945676 97.00823223570188 L 249.71979985704073 97.00823223570188 L 249.71979985704073 96.63821490467939 L 249.87026447462475 96.63821490467939 L 249.87026447462475 96.45320623916808 L 250.0207290922087 96.45320623916808 L 250.0207290922087 96.08318890814559 L 250.4721229449607 96.08318890814559 L 250.4721229449607 95.71317157712303 L 250.77305218012867 95.71317157712303 L 250.77305218012867 95.52816291161179 L 251.5253752680486 95.52816291161179 L 251.5253752680486 95.34315424610054 L 251.6758398856326 95.34315424610054 L 251.6758398856326 94.23310225303294 L 252.42816297355253 94.23310225303294 L 252.42816297355253 94.04809358752169 L 252.57862759113652 94.04809358752169 L 252.57862759113652 93.86308492201039 L 252.72909220872052 93.86308492201039 L 252.72909220872052 93.49306759098789 L 252.8795568263045 93.49306759098789 L 252.8795568263045 93.30805892547664 L 253.0300214438885 93.30805892547664 L 253.0300214438885 93.12305025996534 L 253.33095067905646 93.12305025996534 L 253.33095067905646 92.93804159445409 L 253.78234453180843 92.93804159445409 L 253.78234453180843 92.75303292894284 L 255.28699070764833 92.75303292894284 L 255.28699070764833 92.38301559792023 L 255.7383845604003 92.38301559792023 L 255.7383845604003 92.01299826689774 L 256.1897784131522 92.01299826689774 L 256.1897784131522 91.82798960138649 L 256.34024303073625 91.82798960138649 L 256.34024303073625 91.45797227036394 L 256.7916368834882 91.45797227036394 L 256.7916368834882 91.27296360485269 L 257.0925661186562 91.27296360485269 L 257.0925661186562 90.71793760831889 L 257.39349535382416 90.71793760831889 L 257.39349535382416 90.34792027729634 L 257.5439599714082 90.34792027729634 L 257.5439599714082 90.16291161178509 L 258.29628305932806 90.16291161178509 L 258.29628305932806 89.97790294627384 L 258.4467476769121 89.97790294627384 L 258.4467476769121 89.79289428076254 L 259.199070764832 89.79289428076254 L 259.199070764832 89.60788561525129 L 260.4027877055039 89.60788561525129 L 260.4027877055039 89.42287694974004 L 260.5532523230879 89.42287694974004 L 260.5532523230879 89.2378682842288 L 261.1551107934239 89.2378682842288 L 261.1551107934239 88.86785095320624 L 261.60650464617584 88.86785095320624 L 261.60650464617584 88.682842287695 L 261.75696926375986 88.682842287695 L 261.75696926375986 88.1278162911612 L 262.65975696926375 88.1278162911612 L 262.65975696926375 87.94280762564995 L 263.1111508220157 87.94280762564995 L 263.1111508220157 87.75779896013864 L 263.41208005718374 87.75779896013864 L 263.41208005718374 87.5727902946274 L 263.5625446747677 87.5727902946274 L 263.5625446747677 87.2027729636049 L 264.01393852751966 87.2027729636049 L 264.01393852751966 87.0177642980936 L 264.1644031451036 87.0177642980936 L 264.1644031451036 86.83275563258229 L 264.31486776268764 86.83275563258229 L 264.31486776268764 86.4627383015598 L 264.7662616154396 86.4627383015598 L 264.7662616154396 85.72270363951469 L 264.9167262330236 85.72270363951469 L 264.9167262330236 85.53769497400344 L 265.36812008577556 85.53769497400344 L 265.36812008577556 85.3526863084922 L 265.5185847033595 85.3526863084922 L 265.5185847033595 84.7976603119584 L 266.27090779127946 84.7976603119584 L 266.27090779127946 84.61265164644715 L 266.72230164403146 84.61265164644715 L 266.72230164403146 84.4276429809359 L 267.7755539671193 84.4276429809359 L 267.7755539671193 84.2426343154246 L 268.8288062902073 84.2426343154246 L 268.8288062902073 84.05762564991335 L 268.97927090779126 84.05762564991335 L 268.97927090779126 83.8726169844021 L 269.58112937812723 83.8726169844021 L 269.58112937812723 83.6876083188908 L 269.88205861329527 83.6876083188908 L 269.88205861329527 83.50259965337955 L 270.63438170121515 83.50259965337955 L 270.63438170121515 83.3175909878683 L 270.93531093638313 83.3175909878683 L 270.93531093638313 82.94757365684575 L 271.38670478913514 82.94757365684575 L 271.38670478913514 82.7625649913345 L 271.53716940671904 82.7625649913345 L 271.53716940671904 82.39254766031195 L 271.68763402430307 82.39254766031195 L 271.68763402430307 82.2075389948007 L 271.8380986418871 82.2075389948007 L 271.8380986418871 81.8375216637782 L 271.98856325947105 81.8375216637782 L 271.98856325947105 81.46750433275565 L 272.139027877055 81.46750433275565 L 272.139027877055 81.28249566724435 L 272.439957112223 81.28249566724435 L 272.439957112223 81.0974870017331 L 272.740886347391 81.0974870017331 L 272.740886347391 80.72746967071055 L 273.041815582559 80.72746967071055 L 273.041815582559 80.5424610051993 L 273.34274481772695 80.5424610051993 L 273.34274481772695 79.9874350086655 L 274.39599714081487 79.9874350086655 L 274.39599714081487 79.61741767764295 L 274.99785561115084 79.61741767764295 L 274.99785561115084 79.24740034662045 L 275.7501786990708 79.24740034662045 L 275.7501786990708 79.0623916811092 L 275.90064331665474 79.0623916811092 L 275.90064331665474 78.8773830155979 L 276.05110793423876 78.8773830155979 L 276.05110793423876 78.69237435008665 L 276.3520371694067 78.69237435008665 L 276.3520371694067 78.13734835355285 L 276.6529664045747 78.13734835355285 L 276.6529664045747 77.58232235701905 L 277.7062187276626 77.58232235701905 L 277.7062187276626 77.3973136915078 L 277.85668334524655 77.3973136915078 L 277.85668334524655 77.02729636048531 L 278.60900643316654 77.02729636048531 L 278.60900643316654 76.842287694974 L 278.9099356683345 76.842287694974 L 278.9099356683345 76.65727902946276 L 279.0604002859185 76.65727902946276 L 279.0604002859185 76.2872616984402 L 279.2108649035025 76.2872616984402 L 279.2108649035025 75.91724436741771 L 279.8127233738385 75.91724436741771 L 279.8127233738385 75.5472270363951 L 280.1136526090064 75.5472270363951 L 280.1136526090064 75.1772097053726 L 280.41458184417445 75.1772097053726 L 280.41458184417445 74.99220103986136 L 280.5650464617584 74.99220103986136 L 280.5650464617584 74.6221837088388 L 281.01644031451036 74.6221837088388 L 281.01644031451036 74.43717504332756 L 281.1669049320943 74.43717504332756 L 281.1669049320943 74.25216637781625 L 281.31736954967835 74.25216637781625 L 281.31736954967835 73.69714038128251 L 281.6182987848463 73.69714038128251 L 281.6182987848463 73.5121317157712 L 281.9192280200143 73.5121317157712 L 281.9192280200143 73.32712305025996 L 282.0696926375983 73.32712305025996 L 282.0696926375983 73.14211438474871 L 282.2201572551823 73.14211438474871 L 282.2201572551823 72.95710571923746 L 282.97248034310223 72.95710571923746 L 282.97248034310223 72.77209705372616 L 283.5743388134382 72.77209705372616 L 283.5743388134382 72.40207972270366 L 283.72480343102217 72.40207972270366 L 283.72480343102217 72.21707105719236 L 283.87526804860613 72.21707105719236 L 283.87526804860613 71.84705372616986 L 284.1761972837741 71.84705372616986 L 284.1761972837741 71.66204506065861 L 285.53037884203 71.66204506065861 L 285.53037884203 71.47703639514731 L 286.28270192994995 71.47703639514731 L 286.28270192994995 71.10701906412481 L 286.4331665475339 71.10701906412481 L 286.4331665475339 70.92201039861351 L 287.7873481057898 70.92201039861351 L 287.7873481057898 70.73700173310226 L 287.93781272337384 70.73700173310226 L 287.93781272337384 70.36698440207977 L 289.4424588992137 70.36698440207977 L 289.4424588992137 70.18197573656846 L 289.8938527519657 70.18197573656846 L 289.8938527519657 69.44194107452336 L 290.34524660471766 69.44194107452336 L 290.34524660471766 69.25693240901211 L 293.05360972122946 69.25693240901211 L 293.05360972122946 68.88691507798961 L 293.3545389563974 68.88691507798961 L 293.3545389563974 68.70190641247831 L 293.65546819156543 68.70190641247831 L 293.65546819156543 68.51689774696706 L 294.85918513223726 68.51689774696706 L 294.85918513223726 67.96187175043326 L 295.0096497498213 67.96187175043326 L 295.0096497498213 67.77686308492201 L 295.4610436025733 67.77686308492201 L 295.4610436025733 67.03682842287697 L 295.61150822015725 67.03682842287697 L 295.61150822015725 66.66681109185441 L 296.0629020729092 66.66681109185441 L 296.0629020729092 66.48180242634317 L 296.2133666904932 66.48180242634317 L 296.2133666904932 66.11178509532061 L 296.9656897784132 66.11178509532061 L 296.9656897784132 65.92677642980937 L 298.921729807005 65.92677642980937 L 298.921729807005 65.37175043327557 L 299.072194424589 65.37175043327557 L 299.072194424589 65.18674176776432 L 299.97498213009294 65.18674176776432 L 299.97498213009294 65.00173310225307 L 300.4263759828449 65.00173310225307 L 300.4263759828449 64.44670710571921 L 301.02823445318086 64.44670710571921 L 301.02823445318086 64.26169844020797 L 301.1786990707648 64.26169844020797 L 301.1786990707648 64.07668977469666 L 301.78055754110073 64.07668977469666 L 301.78055754110073 63.89168110918541 L 302.0814867762688 63.89168110918541 L 302.0814867762688 63.52166377816292 L 302.38241601143676 63.52166377816292 L 302.38241601143676 63.33665511265161 L 302.5328806290207 63.33665511265161 L 302.5328806290207 63.151646447140365 L 302.9842744817727 63.151646447140365 L 302.9842744817727 62.96663778162912 L 303.28520371694066 62.96663778162912 L 303.28520371694066 62.78162911611787 L 304.3384560400286 62.78162911611787 L 304.3384560400286 62.41161178509532 L 304.7898498927805 62.41161178509532 L 304.7898498927805 62.22660311958407 L 304.94031451036454 62.22660311958407 L 304.94031451036454 62.041594454072765 L 305.99356683345246 62.041594454072765 L 305.99356683345246 61.67157712305027 L 306.1440314510365 61.67157712305027 L 306.1440314510365 61.48656845753902 L 307.0468191565404 61.48656845753902 L 307.0468191565404 61.30155979202772 L 307.34774839170836 61.30155979202772 L 307.34774839170836 60.93154246100522 L 307.9496068620443 60.93154246100522 L 307.9496068620443 60.74653379549392 L 308.1000714796283 60.74653379549392 L 308.1000714796283 60.37651646447142 L 309.4542530378842 60.37651646447142 L 309.4542530378842 60.191507798960174 L 310.05611150822017 60.191507798960174 L 310.05611150822017 60.00649913344887 L 310.65796997855614 60.00649913344887 L 310.65796997855614 59.636481802426374 L 311.1093638313081 59.636481802426374 L 311.1093638313081 59.45147313691507 L 311.25982844889205 59.45147313691507 L 311.25982844889205 59.081455805892574 L 311.861686919228 59.081455805892574 L 311.861686919228 58.89644714038127 L 312.7644746247319 58.89644714038127 L 312.7644746247319 58.71143847487002 L 313.2158684774839 58.71143847487002 L 313.2158684774839 58.34142114384747 L 313.96819156540386 58.34142114384747 L 313.96819156540386 58.15641247833622 L 314.26912080057184 58.15641247833622 L 314.26912080057184 57.97140381282492 L 314.72051465332385 57.97140381282492 L 314.72051465332385 57.78639514731367 L 315.0214438884918 57.78639514731367 L 315.0214438884918 57.60138648180242 L 315.17190850607574 57.60138648180242 L 315.17190850607574 57.416377816291174 L 315.9242315939957 57.416377816291174 L 315.9242315939957 57.23136915077987 L 316.2251608291637 57.23136915077987 L 316.2251608291637 57.04636048526862 L 317.12794853466767 57.04636048526862 L 317.12794853466767 56.861351819757374 L 317.8802716225876 56.861351819757374 L 317.8802716225876 56.306325823223574 L 318.1812008577555 56.306325823223574 L 318.1812008577555 56.121317157712326 L 318.33166547533955 56.121317157712326 L 318.33166547533955 55.93630849220102 L 319.53538241601143 55.93630849220102 L 319.53538241601143 55.751299826689774 L 319.6858470335954 55.751299826689774 L 319.6858470335954 55.38128249566728 L 320.88956397426733 55.38128249566728 L 320.88956397426733 55.196273830155974 L 323.59792709077914 55.196273830155974 L 323.59792709077914 55.011265164644726 L 324.0493209435311 55.011265164644726 L 324.0493209435311 54.82625649913348 L 325.102573266619 54.82625649913348 L 325.102573266619 54.641247833622174 L 326.00536097212296 54.641247833622174 L 326.00536097212296 54.456239168110926 L 326.60721944245887 54.456239168110926 L 326.60721944245887 54.27123050259968 L 327.2090779127949 54.27123050259968 L 327.2090779127949 54.08622183708843 L 327.3595425303788 54.08622183708843 L 327.3595425303788 53.901213171577126 L 327.5100071479628 53.901213171577126 L 327.5100071479628 53.71620450606588 L 329.1651179413867 53.71620450606588 L 329.1651179413867 53.53119584055463 L 330.06790564689067 53.53119584055463 L 330.06790564689067 53.16117850953202 L 330.6697641172266 53.16117850953202 L 330.6697641172266 52.976169844020774 L 331.27162258756255 52.976169844020774 L 331.27162258756255 52.791161178509526 L 331.4220872051465 52.791161178509526 L 331.4220872051465 52.60615251299822 L 331.57255182273053 52.60615251299822 L 331.57255182273053 52.421143847486974 L 332.62580414581845 52.421143847486974 L 332.62580414581845 52.236135181975726 L 332.7762687634024 52.236135181975726 L 332.7762687634024 51.866117850953174 L 332.92673338098643 51.866117850953174 L 332.92673338098643 51.681109185441926 L 334.2809149392423 51.681109185441926 L 334.2809149392423 51.31109185441943 L 334.4313795568263 51.31109185441943 L 334.4313795568263 51.126083188908126 L 337.1397426733381 51.126083188908126 L 337.1397426733381 50.94107452339688 L 337.89206576125804 50.94107452339688 L 337.89206576125804 50.75606585788563 L 338.34345961401 50.75606585788563 L 338.34345961401 50.571057192374326 L 338.794853466762 50.571057192374326 L 338.794853466762 50.38604852686308 L 340.29949964260186 50.38604852686308 L 340.29949964260186 50.20103986135183 L 340.4499642601858 50.20103986135183 L 340.4499642601858 50.01603119584058 L 340.60042887776984 50.01603119584058 L 340.60042887776984 49.83102253032928 L 340.9013581129378 49.83102253032928 L 340.9013581129378 49.64601386481803 L 341.20228734810576 49.64601386481803 L 341.20228734810576 49.46100519930678 L 342.1050750536097 49.46100519930678 L 342.1050750536097 48.90597920277298 L 342.7069335239457 48.90597920277298 L 342.7069335239457 48.720970537261735 L 344.3620443173695 48.720970537261735 L 344.3620443173695 48.53596187175043 L 344.66297355253755 48.53596187175043 L 344.66297355253755 48.35095320623918 L 345.1143674052895 48.35095320623918 L 345.1143674052895 48.165944540727935 L 345.56576125804145 48.165944540727935 L 345.56576125804145 47.98093587521669 L 346.1676197283774 47.98093587521669 L 346.1676197283774 47.61091854419408 L 346.31808434596144 47.61091854419408 L 346.31808434596144 47.42590987868283 L 347.97319513938527 47.42590987868283 L 347.97319513938527 47.24090121317158 L 348.12365975696923 47.24090121317158 L 348.12365975696923 46.68587521663778 L 348.72551822730526 46.68587521663778 L 348.72551822730526 46.50086655112648 L 350.83202287348104 46.50086655112648 L 350.83202287348104 46.31585788561523 L 351.283416726233 46.31585788561523 L 351.283416726233 45.945840554592735 L 351.885275196569 45.945840554592735 L 351.885275196569 45.76083188908143 L 352.18620443173694 45.76083188908143 L 352.18620443173694 45.57582322357018 L 352.63759828448894 45.57582322357018 L 352.63759828448894 45.390814558058935 L 354.4431736954968 45.390814558058935 L 354.4431736954968 45.20580589254763 L 355.04503216583277 45.20580589254763 L 355.04503216583277 45.02079722703638 L 355.19549678341673 45.02079722703638 L 355.19549678341673 44.835788561525135 L 355.3459614010007 44.835788561525135 L 355.3459614010007 44.65077989601389 L 356.24874910650465 44.65077989601389 L 356.24874910650465 44.280762564991335 L 356.54967834167263 44.280762564991335 L 356.54967834167263 44.09575389948009 L 357.30200142959256 44.09575389948009 L 357.30200142959256 43.91074523396884 L 358.0543245175125 43.91074523396884 L 358.0543245175125 43.725736568457535 L 358.65618298784847 43.725736568457535 L 358.65618298784847 43.35571923743504 L 358.8066476054325 43.35571923743504 L 358.8066476054325 42.98570190641249 L 359.5589706933524 42.98570190641249 L 359.5589706933524 42.80069324090124 L 360.01036454610437 42.80069324090124 L 360.01036454610437 42.43067590987869 L 360.91315225160827 42.43067590987869 L 360.91315225160827 42.24566724436744 L 361.51501072194424 42.24566724436744 L 361.51501072194424 42.06065857885619 L 362.4177984274482 42.06065857885619 L 362.4177984274482 41.87564991334489 L 362.7187276626162 41.87564991334489 L 362.7187276626162 41.69064124783358 L 364.524303073624 41.69064124783358 L 364.524303073624 41.505632582322335 L 364.674767691208 41.505632582322335 L 364.674767691208 41.32062391681109 L 366.3298784846319 41.32062391681109 L 366.3298784846319 41.13561525129978 L 367.53359542530376 41.13561525129978 L 367.53359542530376 40.950606585788535 L 367.6840600428878 40.950606585788535 L 367.6840600428878 40.76559792027729 L 368.1354538956398 40.76559792027729 L 368.1354538956398 40.58058925476604 L 369.48963545389563 40.58058925476604 L 369.48963545389563 40.395580589254735 L 371.89706933523945 40.395580589254735 L 371.89706933523945 40.21057192374349 L 372.7998570407434 40.21057192374349 L 372.7998570407434 40.02556325823224 L 375.3577555396712 40.02556325823224 L 375.3577555396712 39.84055459272099 L 375.8091493924232 39.84055459272099 L 375.8091493924232 39.65554592720969 L 376.26054324517514 39.65554592720969 L 376.26054324517514 39.47053726169844 L 376.5614724803431 39.47053726169844 L 376.5614724803431 39.28552859618719 L 376.7119370979271 39.28552859618719 L 376.7119370979271 39.10051993067589 L 378.51751250893494 39.10051993067589 L 378.51751250893494 38.91551126516464 L 379.1193709792709 38.91551126516464 L 379.1193709792709 38.73050259965339 L 379.87169406719084 38.73050259965339 L 379.87169406719084 38.545493934142144 L 380.4735525375268 38.545493934142144 L 380.4735525375268 38.17547660311959 L 381.22587562544675 38.17547660311959 L 381.22587562544675 37.990467937608344 L 381.37634024303077 37.990467937608344 L 381.37634024303077 37.80545927209704 L 381.6772694781987 37.80545927209704 L 381.6772694781987 37.250433275563296 L 382.58005718370265 37.250433275563296 L 382.58005718370265 37.06542461005199 L 383.0314510364546 37.06542461005199 L 383.0314510364546 36.880415944540744 L 385.58934953538244 36.880415944540744 L 385.58934953538244 36.695407279029496 L 385.8902787705504 36.695407279029496 L 385.8902787705504 36.32538994800689 L 386.19120800571835 36.32538994800689 L 386.19120800571835 36.14038128249564 L 390.4042172980701 36.14038128249564 L 390.4042172980701 35.95537261698439 L 391.15654038599 35.95537261698439 L 391.15654038599 35.77036395147314 L 395.67047891350967 35.77036395147314 L 395.67047891350967 35.58535528596184 L 396.87419585418155 35.58535528596184 L 396.87419585418155 35.40034662045059 L 397.17512508934954 35.40034662045059 L 397.17512508934954 35.21533795493934 L 398.22837741243745 35.21533795493934 L 398.22837741243745 35.03032928942804 L 400.3348820586133 35.03032928942804 L 400.3348820586133 34.84532062391679 L 403.19370979270906 34.84532062391679 L 403.19370979270906 34.475303292894296 L 404.246962115797 34.475303292894296 L 404.246962115797 34.29029462738299 L 404.547891350965 34.29029462738299 L 404.547891350965 33.920277296360496 L 406.8048606147248 33.920277296360496 L 406.8048606147248 33.73526863084919 L 406.9553252323088 33.73526863084919 L 406.9553252323088 33.55025996533794 L 408.76090064331663 33.55025996533794 L 408.76090064331663 33.365251299826696 L 409.51322373123656 33.365251299826696 L 409.51322373123656 33.18024263431545 L 409.8141529664046 33.18024263431545 L 409.8141529664046 32.99523396880414 L 409.96461758398857 32.99523396880414 L 409.96461758398857 32.810225303292896 L 411.6197283774124 32.810225303292896 L 411.6197283774124 32.62521663778165 L 412.37205146533233 32.62521663778165 L 412.37205146533233 32.4402079722704 L 412.82344531808434 32.4402079722704 L 412.82344531808434 32.255199306759096 L 414.62902072909225 32.255199306759096 L 414.62902072909225 32.07019064124785 L 415.83273766976413 32.07019064124785 L 415.83273766976413 31.8851819757366 L 416.43459614010004 31.8851819757366 L 416.43459614010004 31.700173310225296 L 416.7355253752681 31.700173310225296 L 416.7355253752681 31.515164644714048 L 418.5411007862759 31.515164644714048 L 418.5411007862759 31.3301559792028 L 419.1429592566119 31.3301559792028 L 419.1429592566119 31.145147313691552 L 419.89528234453184 31.145147313691552 L 419.89528234453184 30.960138648180248 L 421.2494639027877 30.960138648180248 L 421.2494639027877 30.590121317157696 L 422.00178699070767 30.590121317157696 L 422.00178699070767 30.405112651646448 L 424.55968548963546 30.405112651646448 L 424.55968548963546 30.220103986135143 L 426.3652609006433 30.220103986135143 L 426.3652609006433 30.035095320623896 L 427.4185132237312 30.035095320623896 L 427.4185132237312 29.850086655112648 L 428.3213009292352 29.850086655112648 L 428.3213009292352 29.6650779896014 L 428.6222301644031 29.6650779896014 L 428.6222301644031 29.480069324090096 L 431.18012866333095 29.480069324090096 L 431.18012866333095 29.295060658578848 L 432.53431022158685 29.295060658578848 L 432.53431022158685 29.1100519930676 L 433.43709792709075 29.1100519930676 L 433.43709792709075 28.925043327556295 L 442.76590421729804 28.925043327556295 L 442.76590421729804 28.740034662045048 L 443.819156540386 28.740034662045048 L 443.819156540386 28.5550259965338 L 445.0228734810579 28.5550259965338 L 445.0228734810579 28.370017331022552 L 448.78448892065757 28.370017331022552 L 448.78448892065757 28.185008665511248 L 459.91887062187277 28.185008665511248 L 459.91887062187277 28 L 470 28" stroke-linejoin="bevel" stroke-miterlimit="10" stroke-width="2" stroke-opacity="0.7"/></g><g><path fill="none" stroke="none"/><path fill="none" stroke="#616161" paint-order="fill stroke markers" d=" M 49 455 L 91.1 412.3 L 133.2 369.6 L 175.3 326.9 L 217.4 284.2 L 259.5 241.5 L 301.6 198.79999999999995 L 343.70000000000005 156.09999999999997 L 385.8 113.39999999999998 L 427.90000000000003 70.69999999999999 L 470 28" stroke-linejoin="bevel" stroke-miterlimit="10" stroke-dasharray="6"/></g></g></g><g clip-path="url(#icTxwZqpgEiv)"><g><g/><g><path fill="#ffffff" stroke="#e5e5e5" paint-order="fill stroke markers" d=" M 386.140625 405 L 460 405 L 460 445 L 386.140625 445 L 386.140625 405 Z" fill-opacity="0.95" stroke-linejoin="bevel" stroke-miterlimit="10" stroke-opacity="0.5"/><text fill="#444444" stroke="none" font-family="helvetica" font-size="10pt" font-style="normal" font-weight="normal" text-decoration="normal" x="421.140625" y="425" text-anchor="start" dominant-baseline="central">ROC</text><g><path fill="none" stroke="#00BFA5" paint-order="fill stroke markers" d=" M 396.140625 425 L 416.140625 425" stroke-linejoin="bevel" stroke-miterlimit="10" stroke-width="2" stroke-opacity="0.7"/></g></g></g></g><g><g fill="#444444"><path fill="none" stroke="black" paint-order="fill stroke markers" d=" M 49 455 L 470 455" stroke-linejoin="bevel" stroke-miterlimit="10"/><path fill="none" stroke="black" paint-order="fill stroke markers" d=" M 49 461 L 49 453" stroke-linejoin="bevel" stroke-miterlimit="10"/><path fill="none" stroke="black" paint-order="fill stroke markers" d=" M 133 461 L 133 453" stroke-linejoin="bevel" stroke-miterlimit="10"/><path fill="none" stroke="black" paint-order="fill stroke markers" d=" M 217 461 L 217 453" stroke-linejoin="bevel" stroke-miterlimit="10"/><path fill="none" stroke="black" paint-order="fill stroke markers" d=" M 302 461 L 302 453" stroke-linejoin="bevel" stroke-miterlimit="10"/><path fill="none" stroke="black" paint-order="fill stroke markers" d=" M 386 461 L 386 453" stroke-linejoin="bevel" stroke-miterlimit="10"/><path fill="none" stroke="black" paint-order="fill stroke markers" d=" M 470 461 L 470 453" stroke-linejoin="bevel" stroke-miterlimit="10"/><path fill="none" stroke="black" paint-order="fill stroke markers" d=" M 49 459 L 49 455" stroke-linejoin="bevel" stroke-miterlimit="10"/><path fill="none" stroke="black" paint-order="fill stroke markers" d=" M 66 459 L 66 455" stroke-linejoin="bevel" stroke-miterlimit="10"/><path fill="none" stroke="black" paint-order="fill stroke markers" d=" M 83 459 L 83 455" stroke-linejoin="bevel" stroke-miterlimit="10"/><path fill="none" stroke="black" paint-order="fill stroke markers" d=" M 100 459 L 100 455" stroke-linejoin="bevel" stroke-miterlimit="10"/><path fill="none" stroke="black" paint-order="fill stroke markers" d=" M 116 459 L 116 455" stroke-linejoin="bevel" stroke-miterlimit="10"/><path fill="none" stroke="black" paint-order="fill stroke markers" d=" M 133 459 L 133 455" stroke-linejoin="bevel" stroke-miterlimit="10"/><path fill="none" stroke="black" paint-order="fill stroke markers" d=" M 150 459 L 150 455" stroke-linejoin="bevel" stroke-miterlimit="10"/><path fill="none" stroke="black" paint-order="fill stroke markers" d=" M 167 459 L 167 455" stroke-linejoin="bevel" stroke-miterlimit="10"/><path fill="none" stroke="black" paint-order="fill stroke markers" d=" M 184 459 L 184 455" stroke-linejoin="bevel" stroke-miterlimit="10"/><path fill="none" stroke="black" paint-order="fill stroke markers" d=" M 201 459 L 201 455" stroke-linejoin="bevel" stroke-miterlimit="10"/><path fill="none" stroke="black" paint-order="fill stroke markers" d=" M 217 459 L 217 455" stroke-linejoin="bevel" stroke-miterlimit="10"/><path fill="none" stroke="black" paint-order="fill stroke markers" d=" M 234 459 L 234 455" stroke-linejoin="bevel" stroke-miterlimit="10"/><path fill="none" stroke="black" paint-order="fill stroke markers" d=" M 251 459 L 251 455" stroke-linejoin="bevel" stroke-miterlimit="10"/><path fill="none" stroke="black" paint-order="fill stroke markers" d=" M 268 459 L 268 455" stroke-linejoin="bevel" stroke-miterlimit="10"/><path fill="none" stroke="black" paint-order="fill stroke markers" d=" M 285 459 L 285 455" stroke-linejoin="bevel" stroke-miterlimit="10"/><path fill="none" stroke="black" paint-order="fill stroke markers" d=" M 302 459 L 302 455" stroke-linejoin="bevel" stroke-miterlimit="10"/><path fill="none" stroke="black" paint-order="fill stroke markers" d=" M 318 459 L 318 455" stroke-linejoin="bevel" stroke-miterlimit="10"/><path fill="none" stroke="black" paint-order="fill stroke markers" d=" M 335 459 L 335 455" stroke-linejoin="bevel" stroke-miterlimit="10"/><path fill="none" stroke="black" paint-order="fill stroke markers" d=" M 352 459 L 352 455" stroke-linejoin="bevel" stroke-miterlimit="10"/><path fill="none" stroke="black" paint-order="fill stroke markers" d=" M 369 459 L 369 455" stroke-linejoin="bevel" stroke-miterlimit="10"/><path fill="none" stroke="black" paint-order="fill stroke markers" d=" M 386 459 L 386 455" stroke-linejoin="bevel" stroke-miterlimit="10"/><path fill="none" stroke="black" paint-order="fill stroke markers" d=" M 403 459 L 403 455" stroke-linejoin="bevel" stroke-miterlimit="10"/><path fill="none" stroke="black" paint-order="fill stroke markers" d=" M 419 459 L 419 455" stroke-linejoin="bevel" stroke-miterlimit="10"/><path fill="none" stroke="black" paint-order="fill stroke markers" d=" M 436 459 L 436 455" stroke-linejoin="bevel" stroke-miterlimit="10"/><path fill="none" stroke="black" paint-order="fill stroke markers" d=" M 453 459 L 453 455" stroke-linejoin="bevel" stroke-miterlimit="10"/><path fill="" stroke="black" paint-order="fill stroke markers" d=" M 470 459 L 470 455" stroke-linejoin="bevel" stroke-miterlimit="10"/><g transform="translate(49,466) rotate(0,0,0)"><text fill="" stroke="none" font-family="helvetica" font-size="8pt" font-style="normal" font-weight="normal" text-decoration="normal" x="0" y="0" text-anchor="middle" dominant-baseline="hanging">0</text><g transform="rotate(0,0,0) translate(-49,-466) translate(133,466) rotate(0,0,0)"><text fill="" stroke="none" font-family="helvetica" font-size="8pt" font-style="normal" font-weight="normal" text-decoration="normal" x="0" y="0" text-anchor="middle" dominant-baseline="hanging">0.2</text><g transform="rotate(0,0,0) translate(-133,-466) translate(217,466) rotate(0,0,0)"><text fill="" stroke="none" font-family="helvetica" font-size="8pt" font-style="normal" font-weight="normal" text-decoration="normal" x="0" y="0" text-anchor="middle" dominant-baseline="hanging">0.4</text><g transform="rotate(0,0,0) translate(-217,-466) translate(302,466) rotate(0,0,0)"><text fill="" stroke="none" font-family="helvetica" font-size="8pt" font-style="normal" font-weight="normal" text-decoration="normal" x="0" y="0" text-anchor="middle" dominant-baseline="hanging">0.6</text><g transform="rotate(0,0,0) translate(-302,-466) translate(386,466) rotate(0,0,0)"><text fill="" stroke="none" font-family="helvetica" font-size="8pt" font-style="normal" font-weight="normal" text-decoration="normal" x="0" y="0" text-anchor="middle" dominant-baseline="hanging">0.8</text><g transform="rotate(0,0,0) translate(-386,-466) translate(470,466) rotate(0,0,0)"><text fill="" stroke="none" font-family="helvetica" font-size="8pt" font-style="normal" font-weight="normal" text-decoration="normal" x="0" y="0" text-anchor="middle" dominant-baseline="hanging">1</text><g transform="rotate(0,0,0) translate(-470,-466) translate(260,484) rotate(0,0,0)"><text fill="" stroke="none" font-family="Helvetica Neue" font-size="10pt" font-style="italic" font-weight="normal" text-decoration="normal" x="0" y="0" text-anchor="middle" dominant-baseline="hanging">False Positive Rate (FPR)</text><g transform="rotate(0,0,0) translate(-260,-484)"/></g></g></g></g></g></g></g></g><g fill="#444444"><path fill="none" stroke="black" paint-order="fill stroke markers" d=" M 49 455 L 49 28" stroke-linejoin="bevel" stroke-miterlimit="10"/><path fill="none" stroke="black" paint-order="fill stroke markers" d=" M 43 455 L 51 455" stroke-linejoin="bevel" stroke-miterlimit="10"/><path fill="none" stroke="black" paint-order="fill stroke markers" d=" M 43 370 L 51 370" stroke-linejoin="bevel" stroke-miterlimit="10"/><path fill="none" stroke="black" paint-order="fill stroke markers" d=" M 43 284 L 51 284" stroke-linejoin="bevel" stroke-miterlimit="10"/><path fill="none" stroke="black" paint-order="fill stroke markers" d=" M 43 199 L 51 199" stroke-linejoin="bevel" stroke-miterlimit="10"/><path fill="none" stroke="black" paint-order="fill stroke markers" d=" M 43 113 L 51 113" stroke-linejoin="bevel" stroke-miterlimit="10"/><path fill="none" stroke="black" paint-order="fill stroke markers" d=" M 43 28 L 51 28" stroke-linejoin="bevel" stroke-miterlimit="10"/><path fill="none" stroke="black" paint-order="fill stroke markers" d=" M 45 455 L 49 455" stroke-linejoin="bevel" stroke-miterlimit="10"/><path fill="none" stroke="black" paint-order="fill stroke markers" d=" M 45 438 L 49 438" stroke-linejoin="bevel" stroke-miterlimit="10"/><path fill="none" stroke="black" paint-order="fill stroke markers" d=" M 45 421 L 49 421" stroke-linejoin="bevel" stroke-miterlimit="10"/><path fill="none" stroke="black" paint-order="fill stroke markers" d=" M 45 404 L 49 404" stroke-linejoin="bevel" stroke-miterlimit="10"/><path fill="none" stroke="black" paint-order="fill stroke markers" d=" M 45 387 L 49 387" stroke-linejoin="bevel" stroke-miterlimit="10"/><path fill="none" stroke="black" paint-order="fill stroke markers" d=" M 45 370 L 49 370" stroke-linejoin="bevel" stroke-miterlimit="10"/><path fill="none" stroke="black" paint-order="fill stroke markers" d=" M 45 353 L 49 353" stroke-linejoin="bevel" stroke-miterlimit="10"/><path fill="none" stroke="black" paint-order="fill stroke markers" d=" M 45 335 L 49 335" stroke-linejoin="bevel" stroke-miterlimit="10"/><path fill="none" stroke="black" paint-order="fill stroke markers" d=" M 45 318 L 49 318" stroke-linejoin="bevel" stroke-miterlimit="10"/><path fill="none" stroke="black" paint-order="fill stroke markers" d=" M 45 301 L 49 301" stroke-linejoin="bevel" stroke-miterlimit="10"/><path fill="none" stroke="black" paint-order="fill stroke markers" d=" M 45 284 L 49 284" stroke-linejoin="bevel" stroke-miterlimit="10"/><path fill="none" stroke="black" paint-order="fill stroke markers" d=" M 45 267 L 49 267" stroke-linejoin="bevel" stroke-miterlimit="10"/><path fill="none" stroke="black" paint-order="fill stroke markers" d=" M 45 250 L 49 250" stroke-linejoin="bevel" stroke-miterlimit="10"/><path fill="none" stroke="black" paint-order="fill stroke markers" d=" M 45 233 L 49 233" stroke-linejoin="bevel" stroke-miterlimit="10"/><path fill="none" stroke="black" paint-order="fill stroke markers" d=" M 45 216 L 49 216" stroke-linejoin="bevel" stroke-miterlimit="10"/><path fill="none" stroke="black" paint-order="fill stroke markers" d=" M 45 199 L 49 199" stroke-linejoin="bevel" stroke-miterlimit="10"/><path fill="none" stroke="black" paint-order="fill stroke markers" d=" M 45 182 L 49 182" stroke-linejoin="bevel" stroke-miterlimit="10"/><path fill="none" stroke="black" paint-order="fill stroke markers" d=" M 45 165 L 49 165" stroke-linejoin="bevel" stroke-miterlimit="10"/><path fill="none" stroke="black" paint-order="fill stroke markers" d=" M 45 148 L 49 148" stroke-linejoin="bevel" stroke-miterlimit="10"/><path fill="none" stroke="black" paint-order="fill stroke markers" d=" M 45 130 L 49 130" stroke-linejoin="bevel" stroke-miterlimit="10"/><path fill="none" stroke="black" paint-order="fill stroke markers" d=" M 45 113 L 49 113" stroke-linejoin="bevel" stroke-miterlimit="10"/><path fill="none" stroke="black" paint-order="fill stroke markers" d=" M 45 96 L 49 96" stroke-linejoin="bevel" stroke-miterlimit="10"/><path fill="none" stroke="black" paint-order="fill stroke markers" d=" M 45 79 L 49 79" stroke-linejoin="bevel" stroke-miterlimit="10"/><path fill="none" stroke="black" paint-order="fill stroke markers" d=" M 45 62 L 49 62" stroke-linejoin="bevel" stroke-miterlimit="10"/><path fill="none" stroke="black" paint-order="fill stroke markers" d=" M 45 45 L 49 45" stroke-linejoin="bevel" stroke-miterlimit="10"/><path fill="" stroke="black" paint-order="fill stroke markers" d=" M 45 28 L 49 28" stroke-linejoin="bevel" stroke-miterlimit="10"/><g transform="translate(38,455) rotate(0,0,0)"><text fill="" stroke="none" font-family="helvetica" font-size="8pt" font-style="normal" font-weight="normal" text-decoration="normal" x="0" y="0" text-anchor="end" dominant-baseline="central">0</text><g transform="rotate(0,0,0) translate(-38,-455) translate(38,370) rotate(0,0,0)"><text fill="" stroke="none" font-family="helvetica" font-size="8pt" font-style="normal" font-weight="normal" text-decoration="normal" x="0" y="0" text-anchor="end" dominant-baseline="central">0.2</text><g transform="rotate(0,0,0) translate(-38,-370) translate(38,284) rotate(0,0,0)"><text fill="" stroke="none" font-family="helvetica" font-size="8pt" font-style="normal" font-weight="normal" text-decoration="normal" x="0" y="0" text-anchor="end" dominant-baseline="central">0.4</text><g transform="rotate(0,0,0) translate(-38,-284) translate(38,199) rotate(0,0,0)"><text fill="" stroke="none" font-family="helvetica" font-size="8pt" font-style="normal" font-weight="normal" text-decoration="normal" x="0" y="0" text-anchor="end" dominant-baseline="central">0.6</text><g transform="rotate(0,0,0) translate(-38,-199) translate(38,113) rotate(0,0,0)"><text fill="" stroke="none" font-family="helvetica" font-size="8pt" font-style="normal" font-weight="normal" text-decoration="normal" x="0" y="0" text-anchor="end" dominant-baseline="central">0.8</text><g transform="rotate(0,0,0) translate(-38,-113) translate(38,28) rotate(0,0,0)"><text fill="" stroke="none" font-family="helvetica" font-size="8pt" font-style="normal" font-weight="normal" text-decoration="normal" x="0" y="0" text-anchor="end" dominant-baseline="central">1</text><g transform="rotate(0,0,0) translate(-38,-28) translate(16,242) rotate(-90,0,0)"><text fill="" stroke="none" font-family="Helvetica Neue" font-size="10pt" font-style="italic" font-weight="normal" text-decoration="normal" x="0" y="0" text-anchor="middle" dominant-baseline="alphabetic">True Positive Rate (TPR)</text><g transform="rotate(90,0,0) translate(-16,-242)"/></g></g></g></g></g></g></g></g><g fill="#444444"><path fill="" stroke="none" d=""/><g transform="translate(49,23)"><path fill="none" stroke="none"/><text fill="" stroke="none" font-family="Helvetica Neue" font-size="10pt" font-style="normal" font-weight="bold" text-decoration="normal" x="0" y="0" text-anchor="start" dominant-baseline="text-after-edge">ROC curve by age group (AUC=0.764)</text></g></g></g></g></svg>