<svg version="1.1" xmlns="http://www.w3.org/2000/svg" xmlns:xlink="http://www.w3.org/1999/xlink" width="500" height="500" style="width: 500px; height: 500px;"><defs><clipPath id="MwIBzTFBqWRT"><path fill="none" stroke="none" d=" M 49 28 L 470 28 L 470 455 L 49 455 L 49 28 Z"/></clipPath><clipPath id="qcGmMDLvELDS"><path fill="none" stroke="none" d=" M 49 28 L 470 28 L 470 455 L 49 455 L 49 28 Z"/></clipPath><clipPath id="qOCCOKuVuoTK"><path fill="none" stroke="none" d=" M 49 28 L 470 28 L 470 455 L 49 455 L 49 28 Z"/></clipPath></defs><g transform="scale(1,1) translate(0.5,0.5)"><rect fill="#ffffff" stroke="none" x="0" y="0" width="500" height="500"/><rect fill="#FFFFFF" stroke="none" x="49" y="28" width="421" height="427"/><rect fill="#ffffff" stroke="none" x="49" y="28" width="421" height="427"/><g><rect fill="none" stroke="#e5e5e5" x="49" y="28" width="421" height="427" stroke-linejoin="bevel" stroke-miterlimit="10"/></g><g clip-path="url(#MwIBzTFBqWRT)"><g><g/><g/><g><path fill="none" stroke="none"/><path fill="none" stroke="#536dfe" paint-order="fill stroke markers" d=" M 49 455 L 49 454.744769874477 L 49 440.45188284518827 L 49.29378925331473 440.45188284518827 L 49.29378925331473 438.1548117154812 L 49.58757850662945 438.1548117154812 L 49.58757850662945 436.3682008368201 L 49.881367759944176 436.3682008368201 L 49.881367759944176 427.69037656903765 L 50.1751570132589 427.69037656903765 L 50.1751570132589 426.92468619246864 L 50.762735519888345 426.92468619246864 L 50.762735519888345 417.22594142259413 L 51.05652477320307 417.22594142259413 L 51.05652477320307 414.418410041841 L 51.35031402651779 414.418410041841 L 51.35031402651779 413.1422594142259 L 51.64410327983252 413.1422594142259 L 51.64410327983252 411.1004184100418 L 51.93789253314724 411.1004184100418 L 51.93789253314724 406.5062761506276 L 52.23168178646197 406.5062761506276 L 52.23168178646197 405.4853556485356 L 52.52547103977669 405.4853556485356 L 52.52547103977669 403.9539748953975 L 52.81926029309142 403.9539748953975 L 52.81926029309142 403.69874476987445 L 53.11304954640614 403.69874476987445 L 53.11304954640614 403.44351464435147 L 53.406838799720866 403.44351464435147 L 53.406838799720866 397.8284518828452 L 53.70062805303559 397.8284518828452 L 53.70062805303559 396.8075313807531 L 53.994417306350314 396.8075313807531 L 53.994417306350314 395.27615062761504 L 54.28820655966504 395.27615062761504 L 54.28820655966504 394.76569037656907 L 54.58199581297976 394.76569037656907 L 54.58199581297976 389.40585774058576 L 54.87578506629448 389.40585774058576 L 54.87578506629448 388.1297071129707 L 55.16957431960921 388.1297071129707 L 55.16957431960921 382.0041841004184 L 55.46336357292394 382.0041841004184 L 55.46336357292394 380.72803347280336 L 55.75715282623866 380.72803347280336 L 55.75715282623866 378.4309623430962 L 56.05094207955339 378.4309623430962 L 56.05094207955339 376.1338912133891 L 56.34473133286811 376.1338912133891 L 56.34473133286811 375.3682008368201 L 56.638520586182835 375.3682008368201 L 56.638520586182835 374.092050209205 L 56.932309839497556 374.092050209205 L 56.932309839497556 372.30543933054395 L 57.226099092812284 372.30543933054395 L 57.226099092812284 369.49790794979083 L 57.519888346127004 369.49790794979083 L 57.519888346127004 367.9665271966527 L 57.81367759944173 367.9665271966527 L 57.81367759944173 367.2008368200837 L 58.10746685275645 367.2008368200837 L 58.10746685275645 366.94560669456064 L 58.98883461270063 366.94560669456064 L 58.98883461270063 366.43514644351467 L 59.282623866015356 366.43514644351467 L 59.282623866015356 363.88284518828453 L 59.57641311933008 363.88284518828453 L 59.57641311933008 360.05439330543936 L 59.8702023726448 360.05439330543936 L 59.8702023726448 358.5230125523012 L 60.163991625959525 358.5230125523012 L 60.163991625959525 354.9497907949791 L 60.45778087927425 354.9497907949791 L 60.45778087927425 354.43933054393307 L 60.751570132588974 354.43933054393307 L 60.751570132588974 354.18410041841 L 61.045359385903694 354.18410041841 L 61.045359385903694 353.163179916318 L 61.33914863921842 353.163179916318 L 61.33914863921842 351.12133891213387 L 61.63293789253315 351.12133891213387 L 61.63293789253315 348.8242677824268 L 61.92672714584787 348.8242677824268 L 61.92672714584787 348.31380753138075 L 62.22051639916259 348.31380753138075 L 62.22051639916259 347.03765690376565 L 62.51430565247732 347.03765690376565 L 62.51430565247732 344.74058577405856 L 62.808094905792046 344.74058577405856 L 62.808094905792046 342.44351464435147 L 63.10188415910677 342.44351464435147 L 63.10188415910677 341.93305439330544 L 63.395673412421495 341.93305439330544 L 63.395673412421495 338.6150627615063 L 63.689462665736215 338.6150627615063 L 63.689462665736215 337.0836820083682 L 64.86461967899511 337.0836820083682 L 64.86461967899511 335.55230125523013 L 65.15840893230984 335.55230125523013 L 65.15840893230984 335.0418410041841 L 65.7459874389393 335.0418410041841 L 65.7459874389393 334.02092050209205 L 66.03977669225401 334.02092050209205 L 66.03977669225401 333.25523012552304 L 66.33356594556874 333.25523012552304 L 66.33356594556874 330.44769874476987 L 66.62735519888346 330.44769874476987 L 66.62735519888346 329.68200836820085 L 66.92114445219818 329.68200836820085 L 66.92114445219818 329.17154811715477 L 67.2149337055129 329.17154811715477 L 67.2149337055129 328.9163179916318 L 67.50872295882763 328.9163179916318 L 67.50872295882763 328.6610878661088 L 67.80251221214236 328.6610878661088 L 67.80251221214236 327.64016736401675 L 68.09630146545709 327.64016736401675 L 68.09630146545709 327.3849372384937 L 68.3900907187718 327.3849372384937 L 68.3900907187718 324.06694560669456 L 68.68387997208653 324.06694560669456 L 68.68387997208653 323.55648535564853 L 68.97766922540126 323.55648535564853 L 68.97766922540126 321.7698744769874 L 69.27145847871599 321.7698744769874 L 69.27145847871599 321.25941422594144 L 69.85903698534543 321.25941422594144 L 69.85903698534543 316.6652719665272 L 70.15282623866015 316.6652719665272 L 70.15282623866015 315.8995815899582 L 70.7404047452896 315.8995815899582 L 70.7404047452896 314.36820083682005 L 71.03419399860432 314.36820083682005 L 71.03419399860432 313.60251046025104 L 71.32798325191905 313.60251046025104 L 71.32798325191905 312.581589958159 L 71.62177250523378 312.581589958159 L 71.62177250523378 311.3054393305439 L 71.9155617585485 311.3054393305439 L 71.9155617585485 309.26359832635984 L 72.20935101186322 309.26359832635984 L 72.20935101186322 309.0083682008368 L 72.50314026517795 309.0083682008368 L 72.50314026517795 308.2426778242678 L 73.09071877180739 308.2426778242678 L 73.09071877180739 307.4769874476988 L 73.38450802512213 307.4769874476988 L 73.38450802512213 306.9665271966527 L 73.67829727843684 306.9665271966527 L 73.67829727843684 305.1799163179916 L 73.97208653175157 305.1799163179916 L 73.97208653175157 303.39330543933056 L 74.2658757850663 303.39330543933056 L 74.2658757850663 301.8619246861925 L 74.85345429169574 301.8619246861925 L 74.85345429169574 301.35146443514645 L 75.14724354501047 301.35146443514645 L 75.14724354501047 301.09623430962347 L 76.32240055826936 301.09623430962347 L 76.32240055826936 300.84100418410037 L 76.61618981158409 300.84100418410037 L 76.61618981158409 299.8200836820084 L 76.9099790648988 299.8200836820084 L 76.9099790648988 298.5439330543933 L 77.49755757152826 298.5439330543933 L 77.49755757152826 298.2887029288703 L 77.79134682484299 298.2887029288703 L 77.79134682484299 297.77824267782427 L 78.67271458478716 297.77824267782427 L 78.67271458478716 297.26778242677824 L 78.96650383810189 297.26778242677824 L 78.96650383810189 296.50209205020917 L 79.55408234473134 296.50209205020917 L 79.55408234473134 295.7364016736402 L 79.84787159804605 295.7364016736402 L 79.84787159804605 295.4811715481171 L 80.14166085136078 295.4811715481171 L 80.14166085136078 295.22594142259413 L 80.43545010467551 295.22594142259413 L 80.43545010467551 294.97071129707115 L 80.72923935799022 294.97071129707115 L 80.72923935799022 294.4602510460251 L 81.02302861130497 294.4602510460251 L 81.02302861130497 294.2050209205021 L 81.31681786461968 294.2050209205021 L 81.31681786461968 293.9497907949791 L 82.19818562456385 293.9497907949791 L 82.19818562456385 292.418410041841 L 82.7857641311933 292.418410041841 L 82.7857641311933 292.163179916318 L 83.37334263782276 292.163179916318 L 83.37334263782276 291.907949790795 L 83.66713189113747 291.907949790795 L 83.66713189113747 291.39748953974896 L 83.9609211444522 291.39748953974896 L 83.9609211444522 290.88702928870293 L 84.25471039776693 290.88702928870293 L 84.25471039776693 290.3765690376569 L 84.84228890439637 290.3765690376569 L 84.84228890439637 289.6108786610879 L 85.1360781577111 289.6108786610879 L 85.1360781577111 289.35564853556485 L 85.42986741102581 289.35564853556485 L 85.42986741102581 289.1004184100418 L 85.72365666434055 289.1004184100418 L 85.72365666434055 287.8242677824268 L 86.01744591765527 287.8242677824268 L 86.01744591765527 287.0585774058577 L 86.60502442428472 287.0585774058577 L 86.60502442428472 285.78242677824267 L 86.89881367759943 285.78242677824267 L 86.89881367759943 280.1673640167364 L 87.48639218422889 280.1673640167364 L 87.48639218422889 278.3807531380753 L 87.78018143754362 278.3807531380753 L 87.78018143754362 277.6150627615063 L 88.07397069085835 277.6150627615063 L 88.07397069085835 275.82845188284523 L 88.36775994417306 275.82845188284523 L 88.36775994417306 275.31799163179915 L 88.66154919748779 275.31799163179915 L 88.66154919748779 273.5313807531381 L 88.95533845080251 273.5313807531381 L 88.95533845080251 272.510460251046 L 89.54291695743197 272.510460251046 L 89.54291695743197 271.489539748954 L 89.83670621074668 271.489539748954 L 89.83670621074668 270.97907949790795 L 90.13049546406141 270.97907949790795 L 90.13049546406141 270.72384937238496 L 90.42428471737614 270.72384937238496 L 90.42428471737614 270.2133891213389 L 90.71807397069085 270.2133891213389 L 90.71807397069085 269.44769874476987 L 91.01186322400558 269.44769874476987 L 91.01186322400558 269.1924686192468 L 91.30565247732031 269.1924686192468 L 91.30565247732031 268.68200836820085 L 91.59944173063504 268.68200836820085 L 91.59944173063504 268.4267782426778 L 92.18702023726448 268.4267782426778 L 92.18702023726448 268.17154811715477 L 92.4808094905792 268.17154811715477 L 92.4808094905792 267.6610878661088 L 92.77459874389393 267.6610878661088 L 92.77459874389393 267.4058577405858 L 93.06838799720865 267.4058577405858 L 93.06838799720865 266.89539748953973 L 93.6559665038381 266.89539748953973 L 93.6559665038381 265.10878661087867 L 94.24354501046756 265.10878661087867 L 94.24354501046756 264.59832635983264 L 94.53733426378227 264.59832635983264 L 94.53733426378227 263.5774058577406 L 94.831123517097 263.5774058577406 L 94.831123517097 260.7698744769874 L 95.12491277041173 260.7698744769874 L 95.12491277041173 260.5146443514644 L 95.41870202372645 260.5146443514644 L 95.41870202372645 260.25941422594144 L 96.0062805303559 260.25941422594144 L 96.0062805303559 257.96234309623435 L 96.59385903698535 257.96234309623435 L 96.59385903698535 256.4309623430962 L 96.88764829030006 256.4309623430962 L 96.88764829030006 255.15481171548117 L 97.18143754361479 255.15481171548117 L 97.18143754361479 253.8786610878661 L 97.47522679692952 253.8786610878661 L 97.47522679692952 251.836820083682 L 98.06280530355897 251.836820083682 L 98.06280530355897 251.071129707113 L 98.65038381018842 251.071129707113 L 98.65038381018842 250.56066945606696 L 98.94417306350314 250.56066945606696 L 98.94417306350314 249.7949790794979 L 99.23796231681787 249.7949790794979 L 99.23796231681787 249.5397489539749 L 99.53175157013258 249.5397489539749 L 99.53175157013258 249.2845188284519 L 100.41311933007677 249.2845188284519 L 100.41311933007677 249.02928870292888 L 101.00069783670621 249.02928870292888 L 101.00069783670621 248.2635983263598 L 101.29448709002094 248.2635983263598 L 101.29448709002094 248.00836820083683 L 101.58827634333566 248.00836820083683 L 101.58827634333566 247.2426778242678 L 101.88206559665038 247.2426778242678 L 101.88206559665038 246.98744769874477 L 102.1758548499651 246.98744769874477 L 102.1758548499651 246.47698744769875 L 102.46964410327983 246.47698744769875 L 102.46964410327983 246.22175732217573 L 103.351011863224 246.22175732217573 L 103.351011863224 245.20083682008368 L 103.93859036985346 245.20083682008368 L 103.93859036985346 244.94560669456067 L 104.23237962316819 244.94560669456067 L 104.23237962316819 242.64853556485355 L 104.5261688764829 242.64853556485355 L 104.5261688764829 241.88284518828453 L 104.81995812979763 241.88284518828453 L 104.81995812979763 241.3723849372385 L 105.11374738311235 241.3723849372385 L 105.11374738311235 241.1171548117155 L 105.40753663642707 241.1171548117155 L 105.40753663642707 240.35146443514645 L 106.28890439637125 240.35146443514645 L 106.28890439637125 240.09623430962344 L 106.58269364968598 240.09623430962344 L 106.58269364968598 239.84100418410043 L 106.87648290300069 239.84100418410043 L 106.87648290300069 239.58577405857739 L 107.17027215631542 239.58577405857739 L 107.17027215631542 239.07531380753136 L 107.46406140963015 239.07531380753136 L 107.46406140963015 238.82008368200835 L 108.05163991625959 238.82008368200835 L 108.05163991625959 238.05439330543933 L 108.34542916957432 238.05439330543933 L 108.34542916957432 237.79916317991632 L 108.93300767620377 237.79916317991632 L 108.93300767620377 237.5439330543933 L 109.22679692951849 237.5439330543933 L 109.22679692951849 237.2887029288703 L 109.52058618283321 237.2887029288703 L 109.52058618283321 237.03347280334728 L 109.81437543614794 237.03347280334728 L 109.81437543614794 236.52301255230125 L 110.4019539427774 236.52301255230125 L 110.4019539427774 235.75732217573218 L 111.28332170272157 235.75732217573218 L 111.28332170272157 235.50209205020923 L 112.75226796929519 235.50209205020923 L 112.75226796929519 234.7364016736402 L 113.04605722260992 234.7364016736402 L 113.04605722260992 234.22594142259413 L 113.63363572923936 234.22594142259413 L 113.63363572923936 232.69456066945605 L 113.92742498255409 232.69456066945605 L 113.92742498255409 232.43933054393307 L 114.2212142358688 232.43933054393307 L 114.2212142358688 231.67364016736403 L 114.80879274249826 231.67364016736403 L 114.80879274249826 230.39748953974893 L 115.10258199581298 230.39748953974893 L 115.10258199581298 230.14225941422592 L 115.69016050244242 230.14225941422592 L 115.69016050244242 229.8870292887029 L 116.5715282623866 229.8870292887029 L 116.5715282623866 229.37656903765694 L 116.86531751570132 229.37656903765694 L 116.86531751570132 228.61087866108787 L 117.7466852756455 228.61087866108787 L 117.7466852756455 228.35564853556485 L 118.04047452896022 228.35564853556485 L 118.04047452896022 227.0794979079498 L 118.33426378227495 227.0794979079498 L 118.33426378227495 226.82426778242674 L 120.39078855547801 226.82426778242674 L 120.39078855547801 226.5690376569038 L 120.68457780879274 226.5690376569038 L 120.68457780879274 226.31380753138077 L 121.2721563154222 226.31380753138077 L 121.2721563154222 225.54811715481173 L 121.56594556873692 225.54811715481173 L 121.56594556873692 225.03765690376568 L 122.15352407536636 225.03765690376568 L 122.15352407536636 224.27196652719664 L 122.44731332868109 224.27196652719664 L 122.44731332868109 223.7615062761506 L 123.03489183531053 223.7615062761506 L 123.03489183531053 223.50627615062763 L 123.91625959525472 223.50627615062763 L 123.91625959525472 223.2510460251046 L 124.21004884856943 223.2510460251046 L 124.21004884856943 222.9958158995816 L 124.79762735519888 222.9958158995816 L 124.79762735519888 222.48535564853557 L 125.38520586182834 222.48535564853557 L 125.38520586182834 222.23012552301256 L 126.85415212840195 222.23012552301256 L 126.85415212840195 220.69874476987445 L 127.14794138171668 220.69874476987445 L 127.14794138171668 219.93305439330544 L 127.4417306350314 219.93305439330544 L 127.4417306350314 219.4225941422594 L 127.73551988834613 219.4225941422594 L 127.73551988834613 218.9121338912134 L 128.6168876482903 218.9121338912134 L 128.6168876482903 218.65690376569037 L 129.20446615491974 218.65690376569037 L 129.20446615491974 218.40167364016736 L 129.7920446615492 218.40167364016736 L 129.7920446615492 217.38075313807533 L 130.08583391486394 217.38075313807533 L 130.08583391486394 216.8702928870293 L 130.37962316817865 216.8702928870293 L 130.37962316817865 216.6150627615063 L 131.26099092812282 216.6150627615063 L 131.26099092812282 215.84937238493723 L 131.55478018143754 215.84937238493723 L 131.55478018143754 214.82845188284517 L 131.84856943475228 214.82845188284517 L 131.84856943475228 214.31799163179917 L 132.142358688067 214.31799163179917 L 132.142358688067 213.55230125523013 L 132.4361479413817 213.55230125523013 L 132.4361479413817 212.7866108786611 L 132.72993719469645 212.7866108786611 L 132.72993719469645 211.25523012552304 L 133.02372644801116 211.25523012552304 L 133.02372644801116 211 L 133.61130495464062 211 L 133.61130495464062 210.744769874477 L 133.90509420795536 210.744769874477 L 133.90509420795536 209.72384937238493 L 134.19888346127007 209.72384937238493 L 134.19888346127007 209.2133891213389 L 135.08025122121424 209.2133891213389 L 135.08025122121424 207.68200836820085 L 135.37404047452895 207.68200836820085 L 135.37404047452895 207.42677824267784 L 135.6678297278437 207.42677824267784 L 135.6678297278437 207.1715481171548 L 135.9616189811584 207.1715481171548 L 135.9616189811584 206.9163179916318 L 136.25540823447312 206.9163179916318 L 136.25540823447312 206.66108786610877 L 136.54919748778786 206.66108786610877 L 136.54919748778786 206.40585774058576 L 137.1367759944173 206.40585774058576 L 137.1367759944173 204.6192468619247 L 138.0181437543615 204.6192468619247 L 138.0181437543615 204.36401673640168 L 138.3119330076762 204.36401673640168 L 138.3119330076762 203.85355648535565 L 139.4870900209351 203.85355648535565 L 139.4870900209351 203.59832635983264 L 139.78087927424983 203.59832635983264 L 139.78087927424983 203.08786610878659 L 140.662247034194 203.08786610878659 L 140.662247034194 202.57740585774062 L 140.9560362875087 202.57740585774062 L 140.9560362875087 202.3221757322176 L 141.24982554082345 202.3221757322176 L 141.24982554082345 202.0669456066946 L 141.8374040474529 202.0669456066946 L 141.8374040474529 201.55648535564853 L 142.13119330076762 201.55648535564853 L 142.13119330076762 200.53556485355648 L 142.71877180739708 200.53556485355648 L 142.71877180739708 199.25941422594144 L 143.0125610607118 199.25941422594144 L 143.0125610607118 198.2384937238494 L 143.30635031402653 198.2384937238494 L 143.30635031402653 197.47280334728032 L 143.60013956734124 197.47280334728032 L 143.60013956734124 196.9623430962343 L 143.89392882065596 196.9623430962343 L 143.89392882065596 196.19665271966528 L 144.1877180739707 196.19665271966528 L 144.1877180739707 195.9414225941423 L 144.77529658060013 195.9414225941423 L 144.77529658060013 195.68619246861925 L 145.06908583391487 195.68619246861925 L 145.06908583391487 193.89958158995813 L 145.36287508722958 193.89958158995813 L 145.36287508722958 193.64435146443515 L 145.65666434054432 193.64435146443515 L 145.65666434054432 193.38912133891216 L 145.95045359385904 193.38912133891216 L 145.95045359385904 193.13389121338912 L 146.24424284717375 193.13389121338912 L 146.24424284717375 191.347280334728 L 146.5380321004885 191.347280334728 L 146.5380321004885 190.326359832636 L 147.71318911374738 190.326359832636 L 147.71318911374738 189.56066945606693 L 148.00697836706212 189.56066945606693 L 148.00697836706212 189.0502092050209 L 148.30076762037683 189.0502092050209 L 148.30076762037683 187.00836820083686 L 148.59455687369154 187.00836820083686 L 148.59455687369154 186.49790794979077 L 150.06350314026517 186.49790794979077 L 150.06350314026517 185.98744769874475 L 150.94487090020937 185.98744769874475 L 150.94487090020937 185.22175732217573 L 151.5324494068388 185.22175732217573 L 151.5324494068388 184.7112970711297 L 151.82623866015354 184.7112970711297 L 151.82623866015354 183.9456066945607 L 152.12002791346825 183.9456066945607 L 152.12002791346825 183.43514644351467 L 152.41381716678296 183.43514644351467 L 152.41381716678296 182.6694560669456 L 153.29518492672713 182.6694560669456 L 153.29518492672713 181.6485355648536 L 153.58897418004187 181.6485355648536 L 153.58897418004187 181.39330543933056 L 154.17655268667133 181.39330543933056 L 154.17655268667133 181.13807531380752 L 155.93928820655967 181.13807531380752 L 155.93928820655967 179.86192468619248 L 156.23307745987438 179.86192468619248 L 156.23307745987438 179.35146443514645 L 156.52686671318912 179.35146443514645 L 156.52686671318912 179.0962343096234 L 156.82065596650384 179.0962343096234 L 156.82065596650384 178.58577405857744 L 157.99581297976275 178.58577405857744 L 157.99581297976275 178.07531380753142 L 160.0523377529658 178.07531380753142 L 160.0523377529658 177.82008368200837 L 160.34612700628054 177.82008368200837 L 160.34612700628054 177.56485355648533 L 160.63991625959525 177.56485355648533 L 160.63991625959525 176.79916317991632 L 161.52128401953942 176.79916317991632 L 161.52128401953942 175.77824267782427 L 161.81507327285414 175.77824267782427 L 161.81507327285414 175.01255230125525 L 162.4026517794836 175.01255230125525 L 162.4026517794836 174.7573221757322 L 162.69644103279833 174.7573221757322 L 162.69644103279833 174.50209205020923 L 163.2840195394278 174.50209205020923 L 163.2840195394278 174.2468619246862 L 163.87159804605722 174.2468619246862 L 163.87159804605722 173.22594142259413 L 164.16538729937196 173.22594142259413 L 164.16538729937196 172.71548117154816 L 165.04675505931613 172.71548117154816 L 165.04675505931613 172.46025104602512 L 165.34054431263084 172.46025104602512 L 165.34054431263084 171.69456066945605 L 165.9281228192603 171.69456066945605 L 165.9281228192603 170.673640167364 L 166.221912072575 170.673640167364 L 166.221912072575 170.418410041841 L 166.51570132588975 170.418410041841 L 166.51570132588975 170.16317991631797 L 167.69085833914863 170.16317991631797 L 167.69085833914863 169.39748953974896 L 167.69085833914863 169.14225941422598 L 167.98464759246338 169.14225941422598 L 167.98464759246338 168.88702928870293 L 168.86601535240754 168.88702928870293 L 168.86601535240754 168.63179916317995 L 169.15980460572226 168.63179916317995 L 169.15980460572226 167.86610878661088 L 170.04117236566643 167.86610878661088 L 170.04117236566643 167.61087866108784 L 170.33496161898114 167.61087866108784 L 170.33496161898114 166.07949790794981 L 170.62875087229588 166.07949790794981 L 170.62875087229588 164.80334728033472 L 170.9225401256106 164.80334728033472 L 170.9225401256106 164.2928870292887 L 171.21632937892534 164.2928870292887 L 171.21632937892534 163.52719665271968 L 171.8039078855548 163.52719665271968 L 171.8039078855548 163.27196652719664 L 172.0976971388695 163.27196652719664 L 172.0976971388695 162.7615062761506 L 172.68527564549896 162.7615062761506 L 172.68527564549896 162.50627615062763 L 172.97906489881368 162.25104602510459 L 174.15422191207256 162.25104602510459 L 174.15422191207256 161.48535564853557 L 174.4480111653873 161.48535564853557 L 174.4480111653873 161.23012552301253 L 175.32937892533147 161.23012552301253 L 175.32937892533147 160.9748953974895 L 175.62316817864618 160.9748953974895 L 175.62316817864618 159.6987447698745 L 175.91695743196092 159.6987447698745 L 175.91695743196092 159.44351464435147 L 176.50453593859038 159.44351464435147 L 176.50453593859038 158.6778242677824 L 176.7983251919051 158.6778242677824 L 176.7983251919051 158.4225941422594 L 177.09211444521983 158.4225941422594 L 177.09211444521983 158.16736401673637 L 177.38590369853455 158.16736401673637 L 177.38590369853455 156.12552301255232 L 177.67969295184926 156.12552301255232 L 177.67969295184926 155.87029288702928 L 178.56106071179343 155.87029288702928 L 178.56106071179343 155.61506276150624 L 178.85484996510817 155.61506276150624 L 178.85484996510817 154.84937238493728 L 179.1486392184229 154.84937238493728 L 179.1486392184229 154.59414225941424 L 179.73621772505234 154.59414225941424 L 179.73621772505234 154.33891213389126 L 180.03000697836706 154.33891213389126 L 180.03000697836706 152.55230125523013 L 180.6175854849965 152.55230125523013 L 180.6175854849965 150.76569037656907 L 181.20516399162597 150.76569037656907 L 181.20516399162597 150.25523012552298 L 182.08653175157013 150.25523012552298 L 182.08653175157013 150 L 182.38032100488485 150 L 182.38032100488485 148.72384937238496 L 182.9678995115143 148.72384937238496 L 182.9678995115143 148.46861924686192 L 184.1430565247732 148.46861924686192 L 184.1430565247732 147.7029288702929 L 184.73063503140264 147.7029288702929 L 184.73063503140264 147.19246861924688 L 185.90579204466155 147.19246861924688 L 185.90579204466155 146.93723849372384 L 186.493370551291 146.93723849372384 L 186.493370551291 146.6820083682008 L 186.78715980460572 146.6820083682008 L 186.78715980460572 146.4267782426778 L 187.6685275645499 146.4267782426778 L 187.6685275645499 145.15062761506277 L 188.54989532449406 145.15062761506277 L 188.54989532449406 144.89539748953973 L 189.72505233775297 144.89539748953973 L 189.72505233775297 143.10878661087867 L 190.01884159106768 143.10878661087867 L 190.01884159106768 142.85355648535568 L 190.60642009769714 142.85355648535568 L 190.60642009769714 142.59832635983264 L 190.90020935101185 142.59832635983264 L 190.90020935101185 142.34309623430966 L 191.4877878576413 142.34309623430966 L 191.4877878576413 141.83263598326363 L 192.07536636427076 141.83263598326363 L 192.07536636427076 141.32217573221754 L 192.66294487090022 141.32217573221754 L 192.66294487090022 141.06694560669456 L 193.25052337752967 141.06694560669456 L 193.25052337752967 140.81171548117152 L 194.13189113747384 140.81171548117152 L 194.13189113747384 140.3012552301255 L 194.71946964410327 140.3012552301255 L 194.71946964410327 139.53556485355648 L 195.30704815073273 139.53556485355648 L 195.30704815073273 139.02510460251045 L 195.60083740404744 139.02510460251045 L 195.60083740404744 138.76987447698747 L 196.1884159106769 138.76987447698747 L 196.1884159106769 138.51464435146443 L 197.06978367062106 138.51464435146443 L 197.06978367062106 138.25941422594144 L 197.3635729239358 138.25941422594144 L 197.3635729239358 137.74895397489536 L 197.95115143056526 137.74895397489536 L 197.95115143056526 136.9832635983264 L 198.5387299371947 136.9832635983264 L 198.5387299371947 136.72803347280336 L 199.12630844382414 136.72803347280336 L 199.12630844382414 136.21757322175733 L 199.7138869504536 136.21757322175733 L 199.7138869504536 135.45188284518827 L 200.30146545708305 135.45188284518827 L 200.30146545708305 135.19665271966528 L 200.59525471039777 135.19665271966528 L 200.59525471039777 134.94142259414224 L 201.18283321702722 134.94142259414224 L 201.18283321702722 134.68619246861925 L 202.0642009769714 134.68619246861925 L 202.0642009769714 134.4309623430962 L 203.23935799023027 134.4309623430962 L 203.23935799023027 133.92050209205024 L 203.53314724354502 133.92050209205024 L 203.53314724354502 133.41004184100422 L 204.12072575017447 133.41004184100422 L 204.12072575017447 132.64435146443515 L 204.41451500348919 132.64435146443515 L 204.41451500348919 132.13389121338912 L 205.00209351011864 132.13389121338912 L 205.00209351011864 131.6234309623431 L 205.29588276343335 131.6234309623431 L 205.29588276343335 131.36820083682005 L 205.8834612700628 131.36820083682005 L 205.8834612700628 131.11297071129707 L 206.17725052337752 131.11297071129707 L 206.17725052337752 130.85774058577408 L 206.47103977669227 130.85774058577408 L 206.47103977669227 130.60251046025104 L 206.76482903000698 130.60251046025104 L 206.76482903000698 130.34728033472805 L 208.52756454989532 130.34728033472805 L 208.52756454989532 130.092050209205 L 209.40893230983949 130.092050209205 L 209.40893230983949 129.326359832636 L 210.8778785764131 129.326359832636 L 210.8778785764131 129.07112970711296 L 211.7592463363573 129.07112970711296 L 211.7592463363573 128.81589958158997 L 212.05303558967202 128.81589958158997 L 212.05303558967202 128.56066945606693 L 212.34682484298673 128.56066945606693 L 212.34682484298673 128.0502092050209 L 212.9344033496162 128.0502092050209 L 212.9344033496162 127.2845188284519 L 213.52198185624565 127.2845188284519 L 213.52198185624565 126.51882845188283 L 213.81577110956036 126.51882845188283 L 213.81577110956036 126.0083682008368 L 214.10956036287507 126.0083682008368 L 214.10956036287507 125.75313807531381 L 214.40334961618981 125.75313807531381 L 214.40334961618981 125.24267782426779 L 214.99092812281927 125.24267782426779 L 214.99092812281927 124.73221757322176 L 215.28471737613398 124.73221757322176 L 215.28471737613398 124.47698744769878 L 216.4598743893929 124.47698744769878 L 216.4598743893929 124.22175732217573 L 218.22260990928123 124.22175732217573 L 218.22260990928123 123.96652719665275 L 218.8101884159107 123.96652719665275 L 218.8101884159107 123.45606694560666 L 219.1039776692254 123.45606694560666 L 219.1039776692254 123.20083682008368 L 219.69155617585486 123.20083682008368 L 219.69155617585486 122.43514644351461 L 220.2791346824843 122.43514644351461 L 220.2791346824843 122.17991631799163 L 220.57292393579903 122.17991631799163 L 220.57292393579903 121.6694560669456 L 221.4542916957432 121.6694560669456 L 221.4542916957432 120.39330543933056 L 224.09839497557573 120.39330543933056 L 224.09839497557573 119.62761506276149 L 224.39218422889044 119.62761506276149 L 224.39218422889044 119.37238493723845 L 224.68597348220516 119.37238493723845 L 224.68597348220516 118.86192468619248 L 225.2735519888346 118.86192468619248 L 225.2735519888346 118.09623430962341 L 225.56734124214933 118.09623430962341 L 225.56734124214933 117.84100418410043 L 227.03628750872298 117.84100418410043 L 227.03628750872298 117.3305439330544 L 227.3300767620377 117.3305439330544 L 227.3300767620377 116.56485355648533 L 227.91765526866715 116.56485355648533 L 227.91765526866715 115.79916317991632 L 228.79902302861132 115.79916317991632 L 228.79902302861132 115.54393305439334 L 229.09281228192603 115.54393305439334 L 229.09281228192603 115.2887029288703 L 229.38660153524074 115.2887029288703 L 229.38660153524074 115.03347280334731 L 229.9741800418702 115.03347280334731 L 229.9741800418702 114.52301255230128 L 230.56175854849965 114.52301255230128 L 230.56175854849965 114.26778242677824 L 231.1493370551291 114.26778242677824 L 231.1493370551291 113.24686192468619 L 231.73691556175856 113.24686192468619 L 231.73691556175856 112.9916317991632 L 232.03070481507328 112.9916317991632 L 232.03070481507328 112.73640167364016 L 232.324494068388 112.73640167364016 L 232.324494068388 112.48117154811717 L 232.91207257501745 112.48117154811717 L 232.91207257501745 112.22594142259413 L 233.4996510816469 112.22594142259413 L 233.4996510816469 111.7154811715481 L 233.79344033496162 111.7154811715481 L 233.79344033496162 110.69456066945605 L 235.55617585484998 110.69456066945605 L 235.55617585484998 110.43933054393301 L 236.73133286810886 110.43933054393301 L 236.73133286810886 110.18410041841003 L 237.02512212142358 110.18410041841003 L 237.02512212142358 109.67364016736406 L 239.08164689462666 109.67364016736406 L 239.08164689462666 109.41841004184101 L 239.3754361479414 109.41841004184101 L 239.3754361479414 109.16317991631797 L 239.96301465457083 109.16317991631797 L 239.96301465457083 108.39748953974896 L 241.13817166782974 108.39748953974896 L 241.13817166782974 108.14225941422592 L 242.0195394277739 108.14225941422592 L 242.0195394277739 107.88702928870293 L 242.31332868108865 107.88702928870293 L 242.31332868108865 107.63179916317989 L 242.60711793440333 107.63179916317989 L 242.60711793440333 107.12133891213392 L 243.19469644103282 107.12133891213392 L 243.19469644103282 106.10041841004187 L 243.4884856943475 106.10041841004187 L 243.4884856943475 105.84518828451883 L 244.076064200977 105.84518828451883 L 244.076064200977 105.58995815899584 L 244.3698534542917 105.58995815899584 L 244.3698534542917 105.07949790794976 L 245.25122121423587 105.07949790794976 L 245.25122121423587 104.82426778242677 L 245.54501046755058 104.82426778242677 L 245.54501046755058 103.54811715481173 L 246.42637822749475 103.54811715481173 L 246.42637822749475 103.29288702928869 L 247.01395673412424 103.29288702928869 L 247.01395673412424 102.78242677824267 L 248.48290300069783 102.78242677824267 L 248.48290300069783 102.52719665271968 L 248.77669225401257 102.52719665271968 L 248.77669225401257 102.27196652719664 L 249.364270760642 102.27196652719664 L 249.364270760642 101.50627615062757 L 250.5394277739009 101.50627615062757 L 250.5394277739009 101.25104602510459 L 251.12700628053034 101.25104602510459 L 251.12700628053034 100.9958158995816 L 251.42079553384508 100.9958158995816 L 251.42079553384508 100.23012552301259 L 251.71458478715982 100.23012552301259 L 251.71458478715982 99.97489539748955 L 252.30216329378925 99.97489539748955 L 252.30216329378925 99.7196652719665 L 253.77110956036287 99.7196652719665 L 253.77110956036287 99.20920502092048 L 254.0648988136776 99.20920502092048 L 254.0648988136776 98.44351464435147 L 255.2400558269365 98.44351464435147 L 255.2400558269365 98.18828451882843 L 255.53384508025124 98.18828451882843 L 255.53384508025124 97.93305439330544 L 255.82763433356592 97.93305439330544 L 255.82763433356592 97.42259414225941 L 256.4152128401954 97.42259414225941 L 256.4152128401954 97.16736401673643 L 257.00279134682484 97.16736401673643 L 257.00279134682484 96.91213389121339 L 257.2965806001396 96.91213389121339 L 257.2965806001396 96.40167364016736 L 257.59036985345426 96.40167364016736 L 257.59036985345426 95.63598326359829 L 258.4717376133985 95.63598326359829 L 258.4717376133985 95.12552301255232 L 258.7655268667132 95.12552301255232 L 258.7655268667132 94.87029288702928 L 259.0593161200279 94.87029288702928 L 259.0593161200279 94.6150627615063 L 259.64689462665734 94.6150627615063 L 259.64689462665734 94.35983263598325 L 260.2344731332868 94.35983263598325 L 260.2344731332868 94.10460251046027 L 260.82205163991625 94.10460251046027 L 260.82205163991625 93.84937238493723 L 261.99720865317516 93.84937238493723 L 261.99720865317516 93.59414225941424 L 262.2909979064899 93.59414225941424 L 262.2909979064899 93.3389121338912 L 263.1723656664341 93.3389121338912 L 263.1723656664341 93.08368200836821 L 264.64131193300767 93.08368200836821 L 264.64131193300767 92.82845188284517 L 265.8164689462666 92.82845188284517 L 265.8164689462666 92.57322175732213 L 266.11025819958127 92.57322175732213 L 266.11025819958127 92.31799163179915 L 266.404047452896 92.31799163179915 L 266.404047452896 91.80753138075318 L 266.9916259595255 91.80753138075318 L 266.9916259595255 90.78661087866107 L 267.2854152128402 90.78661087866107 L 267.2854152128402 90.27615062761504 L 269.0481507327285 90.27615062761504 L 269.0481507327285 89 L 269.635729239358 89 L 269.635729239358 88.23430962343099 L 269.92951849267274 88.23430962343099 L 269.92951849267274 87.72384937238496 L 271.6922540125611 87.72384937238496 L 271.6922540125611 87.46861924686192 L 271.98604326587576 87.46861924686192 L 271.98604326587576 87.21338912133888 L 272.57362177250525 87.21338912133888 L 272.57362177250525 86.9581589958159 L 273.4549895324494 86.9581589958159 L 273.4549895324494 86.44769874476987 L 273.7487787857641 86.44769874476987 L 273.7487787857641 86.19246861924688 L 274.3363572923936 86.19246861924688 L 274.3363572923936 85.9372384937239 L 275.21772505233776 85.9372384937239 L 275.21772505233776 85.68200836820085 L 276.0990928122819 85.68200836820085 L 276.0990928122819 85.17154811715483 L 276.39288206559667 85.17154811715483 L 276.39288206559667 84.6610878661088 L 276.9804605722261 84.6610878661088 L 276.9804605722261 84.40585774058576 L 277.86182833217026 84.40585774058576 L 277.86182833217026 83.89539748953973 L 278.155617585485 83.89539748953973 L 278.155617585485 83.3849372384937 L 279.3307745987439 83.3849372384937 L 279.3307745987439 83.12970711297072 L 279.91835310537334 83.12970711297072 L 279.91835310537334 82.6192468619247 L 281.6810886252617 82.6192468619247 L 281.6810886252617 82.10878661087867 L 286.38171667829727 82.10878661087867 L 286.38171667829727 81.85355648535563 L 287.26308443824144 81.85355648535563 L 287.26308443824144 81.08786610878661 L 289.0258199581298 81.08786610878661 L 289.0258199581298 80.83263598326357 L 290.4947662247034 80.83263598326357 L 290.4947662247034 80.57740585774059 L 291.3761339846476 80.57740585774059 L 291.3761339846476 80.32217573221754 L 291.963712491277 80.32217573221754 L 291.963712491277 80.06694560669456 L 292.5512909979065 80.06694560669456 L 292.5512909979065 79.81171548117157 L 293.4326587578507 79.81171548117157 L 293.4326587578507 79.55648535564853 L 297.2519190509421 79.55648535564853 L 297.2519190509421 79.30125523012555 L 297.8394975575715 79.30125523012555 L 297.8394975575715 79.0460251046025 L 298.7208653175157 79.0460251046025 L 298.7208653175157 78.28033472803344 L 301.9525471039777 78.28033472803344 L 301.9525471039777 78.02510460251045 L 302.83391486392185 78.02510460251045 L 302.83391486392185 77.76987447698741 L 303.1277041172366 77.76987447698741 L 303.1277041172366 77.51464435146443 L 304.5966503838102 77.51464435146443 L 304.5966503838102 77.25941422594144 L 305.7718073970691 77.25941422594144 L 305.7718073970691 76.74895397489541 L 307.2407536636427 76.74895397489541 L 307.2407536636427 76.49372384937237 L 308.12212142358686 76.49372384937237 L 308.12212142358686 75.47280334728032 L 308.4159106769016 75.47280334728032 L 308.4159106769016 75.21757322175733 L 308.70969993021635 75.21757322175733 L 308.70969993021635 74.96234309623429 L 309.00348918353103 74.96234309623429 L 309.00348918353103 74.45188284518827 L 310.17864619678994 74.45188284518827 L 310.17864619678994 73.68619246861925 L 311.0600139567341 73.68619246861925 L 311.0600139567341 73.43096234309627 L 311.35380321004885 73.43096234309627 L 311.35380321004885 72.92050209205019 L 312.235170969993 72.92050209205019 L 312.235170969993 72.6652719665272 L 312.5289602233077 72.6652719665272 L 312.5289602233077 72.41004184100416 L 313.7041172365667 72.41004184100416 L 313.7041172365667 71.64435146443515 L 313.99790648988136 71.64435146443515 L 313.99790648988136 71.3891213389121 L 315.466852756455 71.3891213389121 L 315.466852756455 70.87866108786613 L 315.7606420097697 70.87866108786613 L 315.7606420097697 70.11297071129707 L 316.3482205163992 70.11297071129707 L 316.3482205163992 69.85774058577408 L 318.1109560362875 69.85774058577408 L 318.1109560362875 69.60251046025104 L 319.5799023028611 69.60251046025104 L 319.5799023028611 69.09205020920501 L 320.4612700628053 69.09205020920501 L 320.4612700628053 68.83682008368197 L 321.04884856943477 68.83682008368197 L 321.04884856943477 68.58158995815899 L 324.8681088625262 68.58158995815899 L 324.8681088625262 68.07112970711302 L 325.74947662247035 68.07112970711302 L 325.74947662247035 67.81589958158997 L 326.6308443824145 67.81589958158997 L 326.6308443824145 67.56066945606693 L 326.9246336357292 67.56066945606693 L 326.9246336357292 67.0502092050209 L 327.21842288904395 67.0502092050209 L 327.21842288904395 65.77405857740587 L 327.5122121423587 65.77405857740587 L 327.5122121423587 65.51882845188283 L 328.0997906489881 65.51882845188283 L 328.0997906489881 65.26359832635984 L 328.39357990230286 65.26359832635984 L 328.39357990230286 64.49790794979083 L 328.6873691556176 64.49790794979083 L 328.6873691556176 64.24267782426779 L 328.98115840893234 64.24267782426779 L 328.98115840893234 63.987447698744745 L 329.27494766224703 63.987447698744745 L 329.27494766224703 63.73221757322176 L 329.8625261688765 63.73221757322176 L 329.8625261688765 63.22175732217573 L 330.1563154221912 63.22175732217573 L 330.1563154221912 62.71129707112971 L 331.91905094207954 62.71129707112971 L 331.91905094207954 62.456066945606665 L 332.506629448709 62.456066945606665 L 332.506629448709 61.945606694560695 L 334.26936496859736 61.945606694560695 L 334.26936496859736 61.69037656903765 L 334.56315422191204 61.69037656903765 L 334.56315422191204 60.92468619246864 L 334.8569434752268 60.92468619246864 L 334.8569434752268 60.6694560669456 L 335.1507327285415 60.6694560669456 L 335.1507327285415 60.414225941422615 L 336.0321004884857 60.414225941422615 L 336.0321004884857 60.15899581589957 L 336.32588974180044 60.15899581589957 L 336.32588974180044 59.90376569037653 L 336.6196789951151 59.90376569037653 L 336.6196789951151 59.648535564853546 L 336.91346824842987 59.648535564853546 L 336.91346824842987 59.393305439330504 L 337.2072575017446 59.393305439330504 L 337.2072575017446 59.138075313807576 L 338.3824145150035 59.138075313807576 L 338.3824145150035 58.882845188284534 L 341.9078855547802 58.882845188284534 L 341.9078855547802 58.62761506276149 L 343.9644103279833 58.62761506276149 L 343.9644103279833 57.86192468619248 L 344.5519888346127 57.86192468619248 L 344.5519888346127 57.60669456066944 L 344.84577808792744 57.60669456066944 L 344.84577808792744 57.351464435146454 L 345.1395673412421 57.351464435146454 L 345.1395673412421 57.09623430962341 L 345.7271458478716 57.09623430962341 L 345.7271458478716 56.84100418410043 L 347.48988136775995 56.84100418410043 L 347.48988136775995 56.075313807531415 L 348.0774598743894 56.075313807531415 L 348.0774598743894 55.820083682008374 L 348.66503838101886 55.820083682008374 L 348.66503838101886 55.30962343096235 L 349.2526168876483 55.30962343096235 L 349.2526168876483 55.054393305439305 L 349.54640614096303 55.054393305439305 L 349.54640614096303 54.79916317991632 L 349.8401953942777 54.79916317991632 L 349.8401953942777 54.28870292887029 L 350.13398464759246 54.28870292887029 L 350.13398464759246 53.77824267782427 L 352.4842986741103 53.77824267782427 L 352.4842986741103 53.523012552301225 L 354.2470341939986 53.523012552301225 L 354.2470341939986 53.26778242677824 L 355.7159804605722 53.26778242677824 L 355.7159804605722 52.75732217573221 L 358.9476622470342 52.75732217573221 L 358.9476622470342 52.50209205020923 L 359.82903000697837 52.50209205020923 L 359.82903000697837 52.246861924686186 L 360.1228192602931 52.246861924686186 L 360.1228192602931 51.73640167364016 L 362.4731332868109 51.73640167364016 L 362.4731332868109 51.22594142259413 L 363.06071179344036 51.22594142259413 L 363.06071179344036 50.715481171548106 L 364.52965806001396 50.715481171548106 L 364.52965806001396 50.205020920502136 L 365.70481507327287 50.205020920502136 L 365.70481507327287 49.949790794979094 L 366.8799720865318 49.949790794979094 L 366.8799720865318 49.69456066945605 L 368.6427076064201 49.69456066945605 L 368.6427076064201 49.43933054393307 L 369.5240753663643 49.43933054393307 L 369.5240753663643 49.184100418410026 L 371.87438939288205 49.184100418410026 L 371.87438939288205 48.92887029288704 L 372.46196789951154 48.92887029288704 L 372.46196789951154 48.673640167364 L 373.3433356594557 48.673640167364 L 373.3433356594557 48.418410041841014 L 374.5184926727146 48.418410041841014 L 374.5184926727146 47.90794979079499 L 375.69364968597347 47.90794979079499 L 375.69364968597347 47.652719665271945 L 376.28122819260295 47.652719665271945 L 376.28122819260295 47.39748953974896 L 377.4563852058618 47.39748953974896 L 377.4563852058618 46.887029288702934 L 378.0439637124913 46.887029288702934 L 378.0439637124913 46.12133891213392 L 379.5129099790649 46.12133891213392 L 379.5129099790649 45.86610878661088 L 379.80669923237963 45.86610878661088 L 379.80669923237963 45.61087866108784 L 381.2756454989532 45.61087866108784 L 381.2756454989532 45.35564853556485 L 384.2135380321005 45.35564853556485 L 384.2135380321005 44.84518828451883 L 384.80111653872996 44.84518828451883 L 384.80111653872996 44.589958158995785 L 385.09490579204464 44.589958158995785 L 385.09490579204464 43.82426778242677 L 385.3886950453594 43.82426778242677 L 385.3886950453594 43.56903765690379 L 388.0327983251919 43.56903765690379 L 388.0327983251919 43.313807531380746 L 388.6203768318214 43.313807531380746 L 388.6203768318214 42.80334728033472 L 390.3831123517097 42.80334728033472 L 390.3831123517097 42.548117154811735 L 392.7334263782275 42.548117154811735 L 392.7334263782275 42.29288702928869 L 393.32100488485696 42.29288702928869 L 393.32100488485696 42.03765690376565 L 394.20237264480113 42.03765690376565 L 394.20237264480113 41.782426778242666 L 394.78995115143056 41.782426778242666 L 394.78995115143056 41.527196652719624 L 395.0837404047453 41.527196652719624 L 395.0837404047453 41.271966527196696 L 395.96510816468947 41.271966527196696 L 395.96510816468947 41.016736401673654 L 396.84647592463364 41.016736401673654 L 396.84647592463364 40.251046025104586 L 400.3719469644103 40.251046025104586 L 400.3719469644103 39.9958158995816 L 401.84089323098397 39.9958158995816 L 401.84089323098397 39.74058577405856 L 402.13468248429865 39.74058577405856 L 402.13468248429865 39.485355648535574 L 402.72226099092813 39.485355648535574 L 402.72226099092813 39.23012552301253 L 403.6036287508723 39.23012552301253 L 403.6036287508723 38.97489539748955 L 403.897418004187 38.97489539748955 L 403.897418004187 38.719665271966505 L 404.19120725750173 38.719665271966505 L 404.19120725750173 38.46443514644346 L 405.07257501744596 38.46443514644346 L 405.07257501744596 38.209205020920535 L 408.01046755059315 38.209205020920535 L 408.01046755059315 37.953974895397494 L 411.82972784368457 37.953974895397494 L 412.417306350314 37.953974895397494 L 412.7110956036288 37.953974895397494 L 412.7110956036288 37.69874476987451 L 418.58688066992323 37.69874476987451 L 418.58688066992323 37.18828451882848 L 419.76203768318214 37.18828451882848 L 419.76203768318214 36.6778242677824 L 423.8750872295883 36.6778242677824 L 423.8750872295883 36.42259414225941 L 424.46266573621773 36.42259414225941 L 424.46266573621773 36.16736401673637 L 425.05024424284716 36.16736401673637 L 425.05024424284716 35.91213389121339 L 426.22540125610607 35.91213389121339 L 426.22540125610607 35.656903765690345 L 427.69434752267966 35.656903765690345 L 427.69434752267966 35.40167364016736 L 430.3384508025122 35.40167364016736 L 430.3384508025122 34.89121338912133 L 431.2198185624564 34.89121338912133 L 431.2198185624564 34.380753138075306 L 437.09560362875084 34.380753138075306 L 437.09560362875084 34.12552301255232 L 438.5645498953245 34.12552301255232 L 438.5645498953245 33.87029288702928 L 440.9148639218423 33.87029288702928 L 440.9148639218423 33.615062761506294 L 441.208653175157 33.615062761506294 L 441.208653175157 33.10460251046021 L 441.7962316817865 33.10460251046021 L 441.7962316817865 32.849372384937226 L 443.5589672016748 32.849372384937226 L 443.5589672016748 32.594142259414184 L 444.7341242149337 32.594142259414184 L 444.7341242149337 32.338912133891256 L 445.32170272156316 32.338912133891256 L 445.32170272156316 32.083682008368214 L 446.2030704815073 32.083682008368214 L 446.2030704815073 31.82845188284523 L 446.7906489881368 31.82845188284523 L 446.7906489881368 31.573221757322187 L 447.37822749476624 31.573221757322187 L 447.37822749476624 31.317991631799146 L 451.49127704117234 31.317991631799146 L 451.49127704117234 30.80753138075312 L 451.78506629448714 30.80753138075312 L 451.78506629448714 30.552301255230134 L 453.2540125610607 30.552301255230134 L 453.2540125610607 30.297071129707092 L 453.84159106769016 30.297071129707092 L 453.84159106769016 29.786610878661065 L 457.6608513607816 29.786610878661065 L 457.6608513607816 29.53138075313808 L 458.54221912072575 29.53138075313808 L 458.54221912072575 29.276150627615095 L 459.71737613398466 29.276150627615095 L 459.71737613398466 28.76569037656907 L 460.01116538729934 28.76569037656907 L 460.01116538729934 28.510460251046027 L 461.480111653873 28.510460251046027 L 461.480111653873 28.255230125523042 L 464.41800418702024 28.255230125523042 L 464.41800418702024 28 L 470 28" stroke-linejoin="bevel" stroke-miterlimit="10" stroke-width="2" stroke-opacity="0.7"/></g><g><path fill="none" stroke="none"/><path fill="none" stroke="#00BFA5" paint-order="fill stroke markers" d=" M 49 455 L 49 454.62044444444444 L 49 431.4675555555556 L 49.48169336384439 431.4675555555556 L 49.48169336384439 415.90577777777776 L 49.963386727688786 415.90577777777776 L 49.963386727688786 395.78933333333333 L 50.44508009153318 395.78933333333333 L 50.44508009153318 393.13244444444445 L 50.92677345537757 393.13244444444445 L 50.92677345537757 390.47555555555556 L 51.40846681922197 390.47555555555556 L 51.40846681922197 385.54133333333334 L 51.890160183066364 385.54133333333334 L 51.890160183066364 382.88444444444445 L 52.37185354691076 382.88444444444445 L 52.37185354691076 379.848 L 52.85354691075515 379.848 L 52.85354691075515 376.81155555555557 L 53.816933638443935 376.81155555555557 L 53.816933638443935 375.6728888888889 L 54.29862700228833 375.6728888888889 L 54.29862700228833 374.1546666666667 L 55.26201372997711 374.1546666666667 L 55.26201372997711 371.11822222222224 L 55.74370709382151 371.11822222222224 L 55.74370709382151 369.9795555555556 L 56.225400457665906 369.9795555555556 L 56.225400457665906 369.2204444444444 L 56.7070938215103 369.2204444444444 L 56.7070938215103 367.3226666666667 L 57.18878718535469 367.3226666666667 L 57.18878718535469 366.9431111111111 L 57.670480549199084 366.9431111111111 L 57.670480549199084 364.66577777777775 L 58.15217391304348 364.66577777777775 L 58.15217391304348 363.52711111111114 L 58.63386727688787 363.52711111111114 L 58.63386727688787 360.4906666666667 L 59.11556064073227 360.4906666666667 L 59.11556064073227 358.9724444444445 L 59.597254004576655 358.9724444444445 L 59.597254004576655 356.69511111111115 L 60.078947368421055 356.69511111111115 L 60.078947368421055 356.31555555555553 L 60.56064073226545 356.31555555555553 L 60.56064073226545 352.89955555555554 L 61.04233409610984 352.89955555555554 L 61.04233409610984 349.104 L 61.52402745995423 349.104 L 61.52402745995423 347.2062222222222 L 62.005720823798626 347.2062222222222 L 62.005720823798626 344.16977777777777 L 62.48741418764302 344.16977777777777 L 62.48741418764302 334.30133333333333 L 63.45080091533181 334.30133333333333 L 63.45080091533181 330.1262222222222 L 64.4141876430206 330.1262222222222 L 64.4141876430206 327.46933333333334 L 64.89588100686498 327.46933333333334 L 64.89588100686498 325.57155555555556 L 65.37757437070938 325.57155555555556 L 65.37757437070938 325.192 L 65.85926773455378 325.192 L 65.85926773455378 324.81244444444445 L 66.34096109839817 324.81244444444445 L 66.34096109839817 324.4328888888889 L 67.30434782608695 324.4328888888889 L 67.30434782608695 323.6737777777778 L 67.78604118993135 323.6737777777778 L 67.78604118993135 322.15555555555557 L 68.74942791762014 322.15555555555557 L 68.74942791762014 321.0168888888889 L 70.67620137299771 321.0168888888889 L 70.67620137299771 317.22133333333335 L 71.15789473684211 317.22133333333335 L 71.15789473684211 316.8417777777778 L 72.1212814645309 316.8417777777778 L 72.1212814645309 314.94399999999996 L 72.60297482837528 314.94399999999996 L 72.60297482837528 314.56444444444446 L 73.56636155606407 314.56444444444446 L 73.56636155606407 314.18488888888885 L 75.01144164759725 314.18488888888885 L 75.01144164759725 313.42577777777774 L 75.49313501144165 313.42577777777774 L 75.49313501144165 312.28711111111113 L 75.97482837528604 312.28711111111113 L 75.97482837528604 311.9075555555555 L 76.45652173913044 311.9075555555555 L 76.45652173913044 311.1484444444444 L 76.93821510297482 311.1484444444444 L 76.93821510297482 308.4915555555556 L 77.90160183066362 308.4915555555556 L 77.90160183066362 305.0755555555555 L 78.38329519450801 305.0755555555555 L 78.38329519450801 303.9368888888889 L 78.8649885583524 303.9368888888889 L 78.8649885583524 303.5573333333333 L 79.3466819221968 303.5573333333333 L 79.3466819221968 303.1777777777778 L 80.31006864988558 303.1777777777778 L 80.31006864988558 301.28 L 80.79176201372998 301.28 L 80.79176201372998 299.76177777777775 L 81.27345537757438 299.76177777777775 L 81.27345537757438 299.00266666666664 L 81.75514874141876 299.00266666666664 L 81.75514874141876 297.4844444444444 L 83.20022883295195 297.4844444444444 L 83.20022883295195 296.3457777777778 L 83.68192219679634 296.3457777777778 L 83.68192219679634 295.5866666666667 L 84.16361556064072 295.5866666666667 L 84.16361556064072 293.30933333333337 L 85.12700228832952 293.30933333333337 L 85.12700228832952 291.03200000000004 L 85.6086956521739 291.03200000000004 L 85.6086956521739 289.5137777777778 L 86.0903890160183 289.5137777777778 L 86.0903890160183 289.1342222222222 L 87.05377574370709 289.1342222222222 L 87.05377574370709 287.99555555555554 L 88.49885583524028 287.99555555555554 L 88.49885583524028 285.71822222222227 L 88.98054919908466 285.71822222222227 L 88.98054919908466 284.57955555555554 L 89.46224256292906 284.57955555555554 L 89.46224256292906 282.68177777777777 L 89.94393592677346 282.68177777777777 L 89.94393592677346 281.92266666666666 L 90.42562929061785 281.92266666666666 L 90.42562929061785 281.5431111111111 L 90.90732265446223 281.5431111111111 L 90.90732265446223 280.784 L 91.38901601830663 280.784 L 91.38901601830663 278.8862222222222 L 91.87070938215103 278.8862222222222 L 91.87070938215103 278.1271111111111 L 92.35240274599542 278.1271111111111 L 92.35240274599542 277.74755555555555 L 92.8340961098398 277.74755555555555 L 92.8340961098398 277.368 L 93.7974828375286 277.368 L 93.7974828375286 273.57244444444444 L 94.76086956521739 273.57244444444444 L 94.76086956521739 272.0542222222222 L 95.72425629290618 272.0542222222222 L 95.72425629290618 271.2951111111111 L 96.68764302059496 271.2951111111111 L 96.68764302059496 268.25866666666667 L 97.16933638443936 268.25866666666667 L 97.16933638443936 262.56533333333334 L 97.65102974828375 262.56533333333334 L 97.65102974828375 259.5288888888889 L 98.13272311212815 259.5288888888889 L 98.13272311212815 255.73333333333332 L 100.05949656750572 255.73333333333332 L 100.05949656750572 254.21511111111113 L 101.0228832951945 254.21511111111113 L 101.0228832951945 252.31733333333332 L 101.5045766590389 252.31733333333332 L 101.5045766590389 251.17866666666666 L 101.9862700228833 251.17866666666666 L 101.9862700228833 250.41955555555555 L 102.46796338672769 250.41955555555555 L 102.46796338672769 245.10577777777777 L 103.43135011441647 245.10577777777777 L 103.43135011441647 243.208 L 104.39473684210526 243.208 L 104.39473684210526 242.4488888888889 L 104.87643020594965 242.4488888888889 L 104.87643020594965 241.68977777777778 L 105.35812356979406 241.68977777777778 L 105.35812356979406 239.41244444444442 L 105.83981693363845 239.41244444444442 L 105.83981693363845 238.6533333333333 L 107.28489702517163 238.6533333333333 L 107.28489702517163 237.13511111111112 L 107.76659038901602 237.13511111111112 L 107.76659038901602 236.75555555555556 L 108.2482837528604 236.75555555555556 L 108.2482837528604 236.376 L 109.2116704805492 236.376 L 109.2116704805492 235.99644444444448 L 109.69336384439359 235.99644444444448 L 109.69336384439359 235.6168888888889 L 110.17505720823799 235.6168888888889 L 110.17505720823799 234.4782222222222 L 110.65675057208239 234.4782222222222 L 110.65675057208239 233.7191111111111 L 112.10183066361556 233.7191111111111 L 112.10183066361556 233.33955555555556 L 113.06521739130436 233.33955555555556 L 113.06521739130436 232.2008888888889 L 113.54691075514874 232.2008888888889 L 113.54691075514874 231.82133333333334 L 114.02860411899313 231.82133333333334 L 114.02860411899313 231.4417777777778 L 114.99199084668192 231.4417777777778 L 114.99199084668192 229.92355555555557 L 115.47368421052632 229.92355555555557 L 115.47368421052632 229.54399999999998 L 115.9553775743707 229.54399999999998 L 115.9553775743707 228.78488888888887 L 116.43707093821511 228.78488888888887 L 116.43707093821511 228.40533333333335 L 116.9187643020595 228.40533333333335 L 116.9187643020595 226.8871111111111 L 117.40045766590389 226.8871111111111 L 117.40045766590389 226.128 L 118.36384439359267 226.128 L 118.36384439359267 224.98933333333335 L 119.32723112128146 224.98933333333335 L 119.32723112128146 224.60977777777777 L 120.77231121281464 224.60977777777777 L 120.77231121281464 223.85066666666665 L 121.25400457665904 223.85066666666665 L 121.25400457665904 222.712 L 122.21739130434783 222.712 L 122.21739130434783 222.33244444444446 L 122.69908466819221 222.33244444444446 L 122.69908466819221 221.19377777777777 L 123.66247139588101 221.19377777777777 L 123.66247139588101 220.81422222222224 L 124.6258581235698 220.81422222222224 L 124.6258581235698 220.05511111111113 L 125.58924485125858 220.05511111111113 L 125.58924485125858 219.67555555555555 L 126.07093821510297 219.67555555555555 L 126.07093821510297 219.296 L 126.55263157894737 219.296 L 126.55263157894737 218.15733333333336 L 127.03432494279177 218.15733333333336 L 127.03432494279177 217.77777777777777 L 127.51601830663616 217.77777777777777 L 127.51601830663616 217.01866666666666 L 127.99771167048056 217.01866666666666 L 127.99771167048056 216.25955555555555 L 128.96109839816933 216.25955555555555 L 128.96109839816933 215.87999999999997 L 129.92448512585813 215.87999999999997 L 129.92448512585813 215.50044444444444 L 130.4061784897025 215.50044444444444 L 130.4061784897025 215.12088888888886 L 131.8512585812357 215.12088888888886 L 131.8512585812357 214.74133333333333 L 132.33295194508008 214.74133333333333 L 132.33295194508008 213.22311111111114 L 132.81464530892447 213.22311111111114 L 132.81464530892447 212.84355555555555 L 133.77803203661327 212.84355555555555 L 133.77803203661327 211.32533333333333 L 135.70480549199084 211.32533333333333 L 135.70480549199084 209.8071111111111 L 136.18649885583523 209.8071111111111 L 136.18649885583523 207.52977777777775 L 137.14988558352402 207.52977777777775 L 137.14988558352402 206.77066666666664 L 137.6315789473684 206.77066666666664 L 137.6315789473684 205.632 L 138.11327231121282 205.632 L 138.11327231121282 205.25244444444445 L 139.55835240274598 205.25244444444445 L 139.55835240274598 204.87288888888892 L 140.04004576659037 204.87288888888892 L 140.04004576659037 204.49333333333334 L 140.52173913043478 204.49333333333334 L 140.52173913043478 203.73422222222223 L 141.00343249427917 203.73422222222223 L 141.00343249427917 203.35466666666665 L 141.48512585812358 203.35466666666665 L 141.48512585812358 200.31822222222223 L 142.93020594965674 200.31822222222223 L 142.93020594965674 199.93866666666665 L 143.41189931350112 199.93866666666665 L 143.41189931350112 199.55911111111112 L 143.89359267734554 199.55911111111112 L 143.89359267734554 199.17955555555554 L 144.37528604118992 199.17955555555554 L 144.37528604118992 198.42044444444446 L 144.85697940503434 198.42044444444446 L 144.85697940503434 197.2817777777778 L 145.33867276887872 197.2817777777778 L 145.33867276887872 196.14311111111112 L 145.8203661327231 196.14311111111112 L 145.8203661327231 194.6248888888889 L 146.3020594965675 194.6248888888889 L 146.3020594965675 193.10666666666668 L 146.78375286041188 193.10666666666668 L 146.78375286041188 192.72711111111113 L 148.2288329519451 192.72711111111113 L 148.2288329519451 192.34755555555552 L 148.71052631578948 192.34755555555552 L 148.71052631578948 191.2088888888889 L 149.19221967963387 191.2088888888889 L 149.19221967963387 190.8293333333333 L 150.15560640732264 190.8293333333333 L 150.15560640732264 190.07022222222224 L 151.60068649885585 190.07022222222224 L 151.60068649885585 189.6906666666667 L 152.08237986270024 189.6906666666667 L 152.08237986270024 189.31111111111113 L 152.56407322654462 189.31111111111113 L 152.56407322654462 188.93155555555558 L 153.5274599542334 188.93155555555558 L 153.5274599542334 188.55200000000002 L 154.0091533180778 188.55200000000002 L 154.0091533180778 187.7928888888889 L 154.49084668192222 187.7928888888889 L 154.49084668192222 186.6542222222222 L 154.9725400457666 186.6542222222222 L 154.9725400457666 184.3768888888889 L 155.454233409611 184.3768888888889 L 155.454233409611 183.2382222222222 L 155.93592677345538 183.2382222222222 L 155.93592677345538 182.8586666666667 L 156.41762013729976 182.8586666666667 L 156.41762013729976 182.09955555555558 L 157.38100686498856 182.09955555555558 L 157.38100686498856 181.71999999999997 L 157.86270022883295 181.71999999999997 L 157.86270022883295 180.2017777777778 L 158.34439359267736 180.2017777777778 L 158.34439359267736 179.4426666666667 L 160.2711670480549 179.4426666666667 L 160.2711670480549 179.06311111111108 L 161.23455377574368 179.06311111111108 L 161.23455377574368 178.30399999999997 L 161.71624713958812 178.30399999999997 L 161.71624713958812 177.92444444444448 L 163.16132723112128 177.92444444444448 L 163.16132723112128 176.78577777777775 L 164.12471395881008 176.78577777777775 L 164.12471395881008 176.4062222222222 L 164.60640732265446 176.4062222222222 L 164.60640732265446 175.6471111111111 L 165.56979405034326 175.6471111111111 L 165.56979405034326 175.2675555555556 L 166.05148741418765 175.2675555555556 L 166.05148741418765 174.50844444444448 L 167.4965675057208 174.50844444444448 L 167.4965675057208 173.36977777777776 L 167.9782608695652 173.36977777777776 L 167.9782608695652 172.2311111111111 L 168.94164759725402 172.2311111111111 L 168.94164759725402 169.95377777777776 L 169.4233409610984 169.95377777777776 L 169.4233409610984 169.19466666666665 L 172.31350114416477 169.19466666666665 L 172.31350114416477 168.43555555555554 L 172.79519450800916 168.43555555555554 L 172.79519450800916 168.05599999999998 L 173.75858123569793 168.05599999999998 L 173.75858123569793 166.91733333333337 L 174.24027459954232 166.91733333333337 L 174.24027459954232 166.15822222222226 L 174.7219679633867 166.15822222222226 L 174.7219679633867 164.64 L 175.20366132723112 164.64 L 175.20366132723112 164.26044444444443 L 177.13043478260872 164.26044444444443 L 177.13043478260872 162.7422222222222 L 177.6121281464531 162.7422222222222 L 177.6121281464531 161.60355555555554 L 178.0938215102975 161.60355555555554 L 178.0938215102975 161.22400000000005 L 178.57551487414187 161.22400000000005 L 178.57551487414187 160.84444444444443 L 179.53890160183067 160.84444444444443 L 179.53890160183067 160.46488888888888 L 180.02059496567506 160.46488888888888 L 180.02059496567506 159.3262222222222 L 180.98398169336383 159.3262222222222 L 180.98398169336383 158.94666666666666 L 182.42906178489702 158.94666666666666 L 182.42906178489702 157.808 L 183.39244851258582 157.808 L 183.39244851258582 156.28977777777777 L 183.87414187643023 156.28977777777777 L 183.87414187643023 155.91022222222222 L 184.837528604119 155.91022222222222 L 184.837528604119 155.53066666666666 L 188.20938215102976 155.53066666666666 L 188.20938215102976 154.392 L 188.69107551487414 154.392 L 188.69107551487414 154.01244444444444 L 189.17276887871853 154.01244444444444 L 189.17276887871853 153.63288888888889 L 190.1361556064073 153.63288888888889 L 190.1361556064073 153.25333333333333 L 191.5812356979405 153.25333333333333 L 191.5812356979405 150.59644444444444 L 192.54462242562929 150.59644444444444 L 192.54462242562929 150.2168888888889 L 193.0263157894737 150.2168888888889 L 193.0263157894737 149.83733333333333 L 193.98970251716247 149.83733333333333 L 193.98970251716247 148.69866666666667 L 194.47139588100686 148.69866666666667 L 194.47139588100686 147.93955555555556 L 194.95308924485127 147.93955555555556 L 194.95308924485127 147.56 L 196.39816933638443 147.56 L 196.39816933638443 145.66222222222223 L 196.8798627002288 145.66222222222223 L 196.8798627002288 144.52355555555556 L 197.84324942791764 144.52355555555556 L 197.84324942791764 143.3848888888889 L 199.7700228832952 143.3848888888889 L 199.7700228832952 142.62577777777778 L 200.73340961098398 142.62577777777778 L 200.73340961098398 142.24622222222223 L 201.21510297482837 142.24622222222223 L 201.21510297482837 141.1075555555555 L 202.17848970251717 141.1075555555555 L 202.17848970251717 140.34844444444445 L 202.66018306636155 140.34844444444445 L 202.66018306636155 139.58933333333334 L 203.14187643020594 139.58933333333334 L 203.14187643020594 139.2097777777778 L 203.62356979405033 139.2097777777778 L 203.62356979405033 138.45066666666668 L 204.10526315789474 138.45066666666668 L 204.10526315789474 138.07111111111112 L 204.58695652173913 138.07111111111112 L 204.58695652173913 137.312 L 205.06864988558354 137.312 L 205.06864988558354 136.9324444444444 L 205.55034324942793 136.9324444444444 L 205.55034324942793 136.17333333333335 L 206.0320366132723 136.17333333333335 L 206.0320366132723 135.7937777777778 L 206.51372997711672 135.7937777777778 L 206.51372997711672 134.65511111111113 L 206.9954233409611 134.65511111111113 L 206.9954233409611 133.89600000000002 L 207.4771167048055 133.89600000000002 L 207.4771167048055 133.5164444444444 L 207.95881006864988 133.5164444444444 L 207.95881006864988 133.1368888888889 L 208.92219679633868 133.1368888888889 L 208.92219679633868 132.7573333333333 L 209.40389016018307 132.7573333333333 L 209.40389016018307 131.99822222222218 L 209.88558352402745 131.99822222222218 L 209.88558352402745 131.61866666666668 L 211.81235697940502 131.61866666666668 L 211.81235697940502 131.23911111111113 L 212.77574370709382 131.23911111111113 L 212.77574370709382 129.7208888888889 L 213.73913043478262 129.7208888888889 L 213.73913043478262 129.3413333333333 L 214.220823798627 129.3413333333333 L 214.220823798627 128.9617777777778 L 215.18421052631578 128.9617777777778 L 215.18421052631578 128.2026666666667 L 217.11098398169335 128.2026666666667 L 217.11098398169335 126.68444444444447 L 217.59267734553777 126.68444444444447 L 217.59267734553777 126.30488888888891 L 218.07437070938215 126.30488888888891 L 218.07437070938215 125.16622222222219 L 218.55606407322654 125.16622222222219 L 218.55606407322654 124.78666666666669 L 219.03775743707092 124.78666666666669 L 219.03775743707092 124.40711111111108 L 220.48283752860414 124.40711111111108 L 220.48283752860414 123.26844444444447 L 220.96453089244852 123.26844444444447 L 220.96453089244852 121.3706666666667 L 221.4462242562929 121.3706666666667 L 221.4462242562929 120.61155555555558 L 222.4096109839817 120.61155555555558 L 222.4096109839817 120.23199999999997 L 224.33638443935925 120.23199999999997 L 224.33638443935925 119.85244444444447 L 224.81807780320366 119.85244444444447 L 224.81807780320366 119.47288888888886 L 225.29977116704805 119.47288888888886 L 225.29977116704805 118.71377777777775 L 225.78146453089244 118.71377777777775 L 225.78146453089244 118.33422222222225 L 226.74485125858124 118.33422222222225 L 226.74485125858124 117.95466666666664 L 227.70823798627003 117.95466666666664 L 227.70823798627003 117.57511111111108 L 228.6716247139588 117.57511111111108 L 228.6716247139588 117.19555555555559 L 230.116704805492 117.19555555555559 L 230.116704805492 116.43644444444448 L 232.04347826086956 116.43644444444448 L 232.04347826086956 116.05688888888886 L 232.52517162471395 116.05688888888886 L 232.52517162471395 115.67733333333337 L 233.97025171624713 115.67733333333337 L 233.97025171624713 115.29777777777775 L 237.3421052631579 115.29777777777775 L 237.3421052631579 114.91822222222225 L 238.3054919908467 114.91822222222225 L 238.3054919908467 113.77955555555553 L 238.78718535469108 113.77955555555553 L 238.78718535469108 113.39999999999998 L 239.26887871853546 113.39999999999998 L 239.26887871853546 112.26133333333337 L 240.71395881006865 112.26133333333337 L 240.71395881006865 111.12266666666665 L 242.15903890160183 111.12266666666665 L 242.15903890160183 110.36355555555554 L 242.64073226544622 110.36355555555554 L 242.64073226544622 109.98399999999998 L 246.01258581235697 109.98399999999998 L 246.01258581235697 108.84533333333331 L 246.97597254004577 108.84533333333331 L 246.97597254004577 108.08622222222226 L 249.38443935926773 108.08622222222226 L 249.38443935926773 106.56800000000004 L 249.86613272311214 106.56800000000004 L 249.86613272311214 105.80888888888887 L 250.82951945080092 105.80888888888887 L 250.82951945080092 105.42933333333332 L 255.64645308924483 105.42933333333332 L 255.64645308924483 105.04977777777776 L 256.6098398169337 105.04977777777776 L 256.6098398169337 104.29066666666665 L 257.091533180778 104.29066666666665 L 257.091533180778 103.91111111111115 L 258.53661327231123 103.91111111111115 L 258.53661327231123 102.39288888888888 L 259.5 102.39288888888888 L 259.5 101.63377777777777 L 260.46338672768877 101.63377777777777 L 260.46338672768877 101.25422222222221 L 263.35354691075514 101.25422222222221 L 263.35354691075514 100.4951111111111 L 263.8352402745995 100.4951111111111 L 263.8352402745995 99.73599999999999 L 264.7986270022883 99.73599999999999 L 264.7986270022883 98.97688888888894 L 265.28032036613274 98.97688888888894 L 265.28032036613274 98.59733333333332 L 265.7620137299771 98.59733333333332 L 265.7620137299771 97.83822222222221 L 267.6887871853547 97.83822222222221 L 267.6887871853547 97.45866666666666 L 268.1704805491991 97.45866666666666 L 268.1704805491991 96.69955555555555 L 269.61556064073227 96.69955555555555 L 269.61556064073227 96.32 L 272.02402745995425 96.32 L 272.02402745995425 95.94044444444444 L 272.987414187643 95.94044444444444 L 272.987414187643 95.56088888888888 L 273.46910755148735 95.56088888888888 L 273.46910755148735 94.80177777777777 L 273.9508009153318 94.80177777777777 L 273.9508009153318 94.42222222222222 L 274.91418764302057 94.42222222222222 L 274.91418764302057 93.6631111111111 L 275.395881006865 93.6631111111111 L 275.395881006865 92.904 L 276.84096109839817 92.904 L 276.84096109839817 92.52444444444444 L 277.32265446224255 92.52444444444444 L 277.32265446224255 92.14488888888889 L 277.80434782608694 92.14488888888889 L 277.80434782608694 91.38577777777778 L 279.73112128146454 91.38577777777778 L 279.73112128146454 90.24711111111111 L 280.2128146453089 90.24711111111111 L 280.2128146453089 89.86755555555555 L 282.6212814645309 89.86755555555555 L 282.6212814645309 89.488 L 283.1029748283753 89.488 L 283.1029748283753 89.10844444444444 L 283.58466819221974 89.10844444444444 L 283.58466819221974 88.34933333333333 L 285.02974828375284 88.34933333333333 L 285.02974828375284 87.96977777777778 L 285.5114416475973 87.96977777777778 L 285.5114416475973 86.072 L 286.9565217391304 86.072 L 286.9565217391304 85.69244444444445 L 287.4382151029748 85.69244444444445 L 287.4382151029748 85.31288888888889 L 288.4016018306636 85.31288888888889 L 288.4016018306636 84.93333333333334 L 288.88329519450804 84.93333333333334 L 288.88329519450804 84.55377777777778 L 289.36498855835237 84.55377777777778 L 289.36498855835237 83.79466666666667 L 290.8100686498856 83.79466666666667 L 290.8100686498856 83.03555555555556 L 291.29176201372997 83.03555555555556 L 291.29176201372997 82.656 L 292.7368421052632 82.656 L 292.7368421052632 82.27644444444445 L 293.21853546910756 82.27644444444445 L 293.21853546910756 81.8968888888889 L 293.70022883295195 81.8968888888889 L 293.70022883295195 81.51733333333334 L 294.18192219679634 81.51733333333334 L 294.18192219679634 80.37866666666667 L 296.10869565217394 80.37866666666667 L 296.10869565217394 79.99911111111112 L 299.9622425629291 79.99911111111112 L 299.9622425629291 79.61955555555556 L 305.26086956521743 79.61955555555556 L 305.26086956521743 78.8604444444444 L 305.74256292906176 78.8604444444444 L 305.74256292906176 78.4808888888889 L 308.63272311212813 78.4808888888889 L 308.63272311212813 77.34222222222223 L 311.0411899313501 77.34222222222223 L 311.0411899313501 75.44444444444446 L 311.5228832951945 75.44444444444446 L 311.5228832951945 75.0648888888889 L 312.96796338672766 75.0648888888889 L 312.96796338672766 74.68533333333329 L 314.89473684210526 74.68533333333329 L 314.89473684210526 74.30577777777779 L 315.85812356979403 74.30577777777779 L 315.85812356979403 73.54666666666668 L 316.8215102974828 73.54666666666668 L 316.8215102974828 72.78755555555557 L 319.2299771167048 72.78755555555557 L 319.2299771167048 72.40800000000002 L 320.675057208238 72.40800000000002 L 320.675057208238 72.02844444444446 L 321.1567505720824 72.02844444444446 L 321.1567505720824 71.26933333333335 L 323.08352402745993 71.26933333333335 L 323.08352402745993 70.8897777777778 L 331.2723112128146 70.8897777777778 L 331.2723112128146 70.51022222222218 L 332.7173913043478 70.51022222222218 L 332.7173913043478 69.75111111111107 L 334.162471395881 69.75111111111107 L 334.162471395881 69.37155555555557 L 335.1258581235698 69.37155555555557 L 335.1258581235698 68.99199999999996 L 335.6075514874142 68.99199999999996 L 335.6075514874142 68.23288888888891 L 336.57093821510296 68.23288888888891 L 336.57093821510296 67.09422222222219 L 339.9427917620137 67.09422222222219 L 339.9427917620137 66.33511111111108 L 340.90617848970254 66.33511111111108 L 340.90617848970254 65.57599999999996 L 341.3878718535469 65.57599999999996 L 341.3878718535469 65.19644444444447 L 341.8695652173913 65.19644444444447 L 341.8695652173913 64.81688888888885 L 342.3512585812357 64.81688888888885 L 342.3512585812357 64.43733333333336 L 342.8329519450801 64.43733333333336 L 342.8329519450801 63.678222222222246 L 345.24141876430207 63.678222222222246 L 345.24141876430207 62.91911111111108 L 347.1681922196796 62.91911111111108 L 347.1681922196796 62.53955555555558 L 348.13157894736844 62.53955555555558 L 348.13157894736844 62.15999999999997 L 349.0949656750572 62.15999999999997 L 349.0949656750572 61.78044444444447 L 349.5766590389016 61.78044444444447 L 349.5766590389016 61.40088888888886 L 351.5034324942792 61.40088888888886 L 351.5034324942792 60.64177777777775 L 353.9118993135012 60.64177777777775 L 353.9118993135012 60.26222222222225 L 354.87528604118995 60.26222222222225 L 354.87528604118995 59.88266666666664 L 356.8020594965675 59.88266666666664 L 356.8020594965675 59.50311111111114 L 357.7654462242563 59.50311111111114 L 357.7654462242563 59.12355555555558 L 363.0640732265446 59.12355555555558 L 363.0640732265446 58.74399999999997 L 364.02745995423345 58.74399999999997 L 364.02745995423345 58.36444444444447 L 364.5091533180778 58.36444444444447 L 364.5091533180778 57.98488888888886 L 366.91762013729976 57.98488888888886 L 366.91762013729976 57.60533333333336 L 368.3627002288329 57.60533333333336 L 368.3627002288329 56.46666666666664 L 370.2894736842105 56.46666666666664 L 370.2894736842105 55.70755555555553 L 371.7345537757437 55.70755555555553 L 371.7345537757437 54.568888888888864 L 375.1064073226545 54.568888888888864 L 375.1064073226545 54.189333333333366 L 376.06979405034326 54.189333333333366 L 376.06979405034326 53.809777777777754 L 379.9233409610984 53.809777777777754 L 379.9233409610984 52.671111111111145 L 380.4050343249428 52.671111111111145 L 380.4050343249428 52.29155555555553 L 382.8135011441647 52.29155555555553 L 382.8135011441647 51.912000000000035 L 383.29519450800916 51.912000000000035 L 383.29519450800916 51.53244444444442 L 383.77688787185355 51.53244444444442 L 383.77688787185355 50.77333333333331 L 384.25858123569793 50.77333333333331 L 384.25858123569793 49.63466666666665 L 385.2219679633867 49.63466666666665 L 385.2219679633867 49.25511111111115 L 386.6670480549199 49.25511111111115 L 386.6670480549199 48.116444444444426 L 388.1121281464531 48.116444444444426 L 388.1121281464531 47.73688888888893 L 390.52059496567506 47.73688888888893 L 390.52059496567506 47.357333333333315 L 391.9656750572083 47.357333333333315 L 391.9656750572083 46.21866666666665 L 394.3741418764302 46.21866666666665 L 394.3741418764302 45.839111111111094 L 395.337528604119 45.839111111111094 L 395.337528604119 45.45955555555554 L 396.30091533180774 45.45955555555554 L 396.30091533180774 43.94133333333332 L 400.15446224256294 43.94133333333332 L 400.15446224256294 43.56177777777776 L 401.1178489702517 43.56177777777776 L 401.1178489702517 42.80266666666665 L 404.48970251716247 42.80266666666665 L 404.48970251716247 42.4231111111111 L 407.37986270022884 42.4231111111111 L 407.37986270022884 42.04355555555554 L 409.78832951945077 42.04355555555554 L 409.78832951945077 41.28444444444443 L 411.233409610984 41.28444444444443 L 411.233409610984 40.904888888888934 L 416.0503432494279 40.904888888888934 L 416.0503432494279 40.52533333333332 L 417.01372997711667 40.52533333333332 L 417.01372997711667 40.14577777777782 L 417.4954233409611 40.14577777777782 L 417.4954233409611 39.76622222222221 L 417.9771167048055 39.76622222222221 L 417.9771167048055 39.386666666666656 L 421.83066361556064 39.386666666666656 L 421.83066361556064 38.627555555555546 L 423.75743707093824 38.627555555555546 L 423.75743707093824 38.24799999999999 L 425.6842105263158 38.24799999999999 L 425.6842105263158 37.868444444444435 L 428.57437070938215 37.868444444444435 L 428.57437070938215 37.48888888888888 L 429.05606407322654 37.48888888888888 L 429.05606407322654 36.72977777777777 L 430.5011441647597 36.72977777777777 L 430.5011441647597 36.350222222222214 L 431.4645308924485 36.350222222222214 L 431.4645308924485 34.831999999999994 L 433.8729977116705 34.831999999999994 L 433.8729977116705 34.45244444444444 L 434.3546910755149 34.45244444444444 L 434.3546910755149 34.07288888888888 L 438.6899313501144 34.07288888888888 L 438.6899313501144 32.55466666666666 L 440.1350114416476 32.55466666666666 L 440.1350114416476 32.17511111111111 L 442.0617848970252 32.17511111111111 L 442.0617848970252 31.795555555555552 L 444.95194508009155 31.795555555555552 L 444.95194508009155 31.415999999999997 L 446.8787185354691 31.415999999999997 L 446.8787185354691 31.03644444444444 L 448.3237986270023 31.03644444444444 L 448.3237986270023 30.656888888888886 L 455.5491990846682 30.656888888888886 L 455.5491990846682 30.27733333333333 L 456.0308924485126 30.27733333333333 L 456.0308924485126 29.897777777777776 L 460.3661327231121 29.897777777777776 L 460.3661327231121 29.51822222222222 L 461.81121281464533 29.51822222222222 L 461.81121281464533 29.138666666666666 L 463.2562929061785 29.138666666666666 L 463.2562929061785 28.75911111111111 L 463.7379862700229 28.75911111111111 L 463.7379862700229 28.379555555555555 L 464.70137299771164 28.379555555555555 L 464.70137299771164 28 L 470 28" stroke-linejoin="bevel" stroke-miterlimit="10" stroke-width="2" stroke-dasharray="6"/></g><g><path fill="none" stroke="none"/><path fill="none" stroke="#616161" paint-order="fill stroke markers" d=" M 49 455 L 91.1 412.3 L 133.2 369.6 L 175.3 326.9 L 217.4 284.2 L 259.5 241.5 L 301.6 198.79999999999995 L 343.70000000000005 156.09999999999997 L 385.8 113.39999999999998 L 427.90000000000003 70.69999999999999 L 470 28" stroke-linejoin="bevel" stroke-miterlimit="10" stroke-dasharray="6"/></g></g></g><g><g clip-path="url(#qcGmMDLvELDS)"><g><g/><g><path fill="#ffffff" stroke="#e5e5e5" paint-order="fill stroke markers" d=" M 376.03125 382 L 460 382 L 460 445 L 376.03125 445 L 376.03125 382 Z" fill-opacity="0.95" stroke-linejoin="bevel" stroke-miterlimit="10" stroke-opacity="0.5"/><text fill="#444444" stroke="none" font-family="helvetica" font-size="10pt" font-style="normal" font-weight="normal" text-decoration="normal" x="411.03125" y="402" text-anchor="start" dominant-baseline="central">male</text><g><path fill="none" stroke="#536dfe" paint-order="fill stroke markers" d=" M 386.03125 402 L 406.03125 402" stroke-linejoin="bevel" stroke-miterlimit="10" stroke-width="2" stroke-opacity="0.7"/></g><text fill="#444444" stroke="none" font-family="helvetica" font-size="10pt" font-style="normal" font-weight="normal" text-decoration="normal" x="411.03125" y="425" text-anchor="start" dominant-baseline="central">female</text><g><path fill="none" stroke="#00BFA5" paint-order="fill stroke markers" d=" M 386.03125 425 L 406.03125 425" stroke-linejoin="bevel" stroke-miterlimit="10" stroke-width="2" stroke-dasharray="6"/></g></g></g></g><g fill="#444444"><path fill="" stroke="none" d=""/><g transform="translate(49,23)"><path fill="none" stroke="none"/><text fill="" stroke="none" font-family="Helvetica Neue" font-size="10pt" font-style="normal" font-weight="bold" text-decoration="normal" x="0" y="0" text-anchor="start" dominant-baseline="text-after-edge">ROC curve by age group (AUC [male]=0.767 | AUC [female]=0.760)</text></g></g></g><g><g fill="#444444"><path fill="none" stroke="black" paint-order="fill stroke markers" d=" M 49 455 L 470 455" stroke-linejoin="bevel" stroke-miterlimit="10"/><path fill="none" stroke="black" paint-order="fill stroke markers" d=" M 49 461 L 49 453" stroke-linejoin="bevel" stroke-miterlimit="10"/><path fill="none" stroke="black" paint-order="fill stroke markers" d=" M 133 461 L 133 453" stroke-linejoin="bevel" stroke-miterlimit="10"/><path fill="none" stroke="black" paint-order="fill stroke markers" d=" M 217 461 L 217 453" stroke-linejoin="bevel" stroke-miterlimit="10"/><path fill="none" stroke="black" paint-order="fill stroke markers" d=" M 302 461 L 302 453" stroke-linejoin="bevel" stroke-miterlimit="10"/><path fill="none" stroke="black" paint-order="fill stroke markers" d=" M 386 461 L 386 453" stroke-linejoin="bevel" stroke-miterlimit="10"/><path fill="none" stroke="black" paint-order="fill stroke markers" d=" M 470 461 L 470 453" stroke-linejoin="bevel" stroke-miterlimit="10"/><path fill="none" stroke="black" paint-order="fill stroke markers" d=" M 49 459 L 49 455" stroke-linejoin="bevel" stroke-miterlimit="10"/><path fill="none" stroke="black" paint-order="fill stroke markers" d=" M 66 459 L 66 455" stroke-linejoin="bevel" stroke-miterlimit="10"/><path fill="none" stroke="black" paint-order="fill stroke markers" d=" M 83 459 L 83 455" stroke-linejoin="bevel" stroke-miterlimit="10"/><path fill="none" stroke="black" paint-order="fill stroke markers" d=" M 100 459 L 100 455" stroke-linejoin="bevel" stroke-miterlimit="10"/><path fill="none" stroke="black" paint-order="fill stroke markers" d=" M 116 459 L 116 455" stroke-linejoin="bevel" stroke-miterlimit="10"/><path fill="none" stroke="black" paint-order="fill stroke markers" d=" M 133 459 L 133 455" stroke-linejoin="bevel" stroke-miterlimit="10"/><path fill="none" stroke="black" paint-order="fill stroke markers" d=" M 150 459 L 150 455" stroke-linejoin="bevel" stroke-miterlimit="10"/><path fill="none" stroke="black" paint-order="fill stroke markers" d=" M 167 459 L 167 455" stroke-linejoin="bevel" stroke-miterlimit="10"/><path fill="none" stroke="black" paint-order="fill stroke markers" d=" M 184 459 L 184 455" stroke-linejoin="bevel" stroke-miterlimit="10"/><path fill="none" stroke="black" paint-order="fill stroke markers" d=" M 201 459 L 201 455" stroke-linejoin="bevel" stroke-miterlimit="10"/><path fill="none" stroke="black" paint-order="fill stroke markers" d=" M 217 459 L 217 455" stroke-linejoin="bevel" stroke-miterlimit="10"/><path fill="none" stroke="black" paint-order="fill stroke markers" d=" M 234 459 L 234 455" stroke-linejoin="bevel" stroke-miterlimit="10"/><path fill="none" stroke="black" paint-order="fill stroke markers" d=" M 251 459 L 251 455" stroke-linejoin="bevel" stroke-miterlimit="10"/><path fill="none" stroke="black" paint-order="fill stroke markers" d=" M 268 459 L 268 455" stroke-linejoin="bevel" stroke-miterlimit="10"/><path fill="none" stroke="black" paint-order="fill stroke markers" d=" M 285 459 L 285 455" stroke-linejoin="bevel" stroke-miterlimit="10"/><path fill="none" stroke="black" paint-order="fill stroke markers" d=" M 302 459 L 302 455" stroke-linejoin="bevel" stroke-miterlimit="10"/><path fill="none" stroke="black" paint-order="fill stroke markers" d=" M 318 459 L 318 455" stroke-linejoin="bevel" stroke-miterlimit="10"/><path fill="none" stroke="black" paint-order="fill stroke markers" d=" M 335 459 L 335 455" stroke-linejoin="bevel" stroke-miterlimit="10"/><path fill="none" stroke="black" paint-order="fill stroke markers" d=" M 352 459 L 352 455" stroke-linejoin="bevel" stroke-miterlimit="10"/><path fill="none" stroke="black" paint-order="fill stroke markers" d=" M 369 459 L 369 455" stroke-linejoin="bevel" stroke-miterlimit="10"/><path fill="none" stroke="black" paint-order="fill stroke markers" d=" M 386 459 L 386 455" stroke-linejoin="bevel" stroke-miterlimit="10"/><path fill="none" stroke="black" paint-order="fill stroke markers" d=" M 403 459 L 403 455" stroke-linejoin="bevel" stroke-miterlimit="10"/><path fill="none" stroke="black" paint-order="fill stroke markers" d=" M 419 459 L 419 455" stroke-linejoin="bevel" stroke-miterlimit="10"/><path fill="none" stroke="black" paint-order="fill stroke markers" d=" M 436 459 L 436 455" stroke-linejoin="bevel" stroke-miterlimit="10"/><path fill="none" stroke="black" paint-order="fill stroke markers" d=" M 453 459 L 453 455" stroke-linejoin="bevel" stroke-miterlimit="10"/><path fill="" stroke="black" paint-order="fill stroke markers" d=" M 470 459 L 470 455" stroke-linejoin="bevel" stroke-miterlimit="10"/><g transform="translate(49,466) rotate(0,0,0)"><text fill="" stroke="none" font-family="helvetica" font-size="8pt" font-style="normal" font-weight="normal" text-decoration="normal" x="0" y="0" text-anchor="middle" dominant-baseline="hanging">0</text><g transform="rotate(0,0,0) translate(-49,-466) translate(133,466) rotate(0,0,0)"><text fill="" stroke="none" font-family="helvetica" font-size="8pt" font-style="normal" font-weight="normal" text-decoration="normal" x="0" y="0" text-anchor="middle" dominant-baseline="hanging">0.2</text><g transform="rotate(0,0,0) translate(-133,-466) translate(217,466) rotate(0,0,0)"><text fill="" stroke="none" font-family="helvetica" font-size="8pt" font-style="normal" font-weight="normal" text-decoration="normal" x="0" y="0" text-anchor="middle" dominant-baseline="hanging">0.4</text><g transform="rotate(0,0,0) translate(-217,-466) translate(302,466) rotate(0,0,0)"><text fill="" stroke="none" font-family="helvetica" font-size="8pt" font-style="normal" font-weight="normal" text-decoration="normal" x="0" y="0" text-anchor="middle" dominant-baseline="hanging">0.6</text><g transform="rotate(0,0,0) translate(-302,-466) translate(386,466) rotate(0,0,0)"><text fill="" stroke="none" font-family="helvetica" font-size="8pt" font-style="normal" font-weight="normal" text-decoration="normal" x="0" y="0" text-anchor="middle" dominant-baseline="hanging">0.8</text><g transform="rotate(0,0,0) translate(-386,-466) translate(470,466) rotate(0,0,0)"><text fill="" stroke="none" font-family="helvetica" font-size="8pt" font-style="normal" font-weight="normal" text-decoration="normal" x="0" y="0" text-anchor="middle" dominant-baseline="hanging">1</text><g transform="rotate(0,0,0) translate(-470,-466) translate(260,484) rotate(0,0,0)"><text fill="" stroke="none" font-family="Helvetica Neue" font-size="10pt" font-style="italic" font-weight="normal" text-decoration="normal" x="0" y="0" text-anchor="middle" dominant-baseline="hanging">False Positive Rate (FPR)</text><g transform="rotate(0,0,0) translate(-260,-484)"/></g></g></g></g></g></g></g></g><g fill="#444444"><path fill="none" stroke="black" paint-order="fill stroke markers" d=" M 49 455 L 49 28" stroke-linejoin="bevel" stroke-miterlimit="10"/><path fill="none" stroke="black" paint-order="fill stroke markers" d=" M 43 455 L 51 455" stroke-linejoin="bevel" stroke-miterlimit="10"/><path fill="none" stroke="black" paint-order="fill stroke markers" d=" M 43 370 L 51 370" stroke-linejoin="bevel" stroke-miterlimit="10"/><path fill="none" stroke="black" paint-order="fill stroke markers" d=" M 43 284 L 51 284" stroke-linejoin="bevel" stroke-miterlimit="10"/><path fill="none" stroke="black" paint-order="fill stroke markers" d=" M 43 199 L 51 199" stroke-linejoin="bevel" stroke-miterlimit="10"/><path fill="none" stroke="black" paint-order="fill stroke markers" d=" M 43 113 L 51 113" stroke-linejoin="bevel" stroke-miterlimit="10"/><path fill="none" stroke="black" paint-order="fill stroke markers" d=" M 43 28 L 51 28" stroke-linejoin="bevel" stroke-miterlimit="10"/><path fill="none" stroke="black" paint-order="fill stroke markers" d=" M 45 455 L 49 455" stroke-linejoin="bevel" stroke-miterlimit="10"/><path fill="none" stroke="black" paint-order="fill stroke markers" d=" M 45 438 L 49 438" stroke-linejoin="bevel" stroke-miterlimit="10"/><path fill="none" stroke="black" paint-order="fill stroke markers" d=" M 45 421 L 49 421" stroke-linejoin="bevel" stroke-miterlimit="10"/><path fill="none" stroke="black" paint-order="fill stroke markers" d=" M 45 404 L 49 404" stroke-linejoin="bevel" stroke-miterlimit="10"/><path fill="none" stroke="black" paint-order="fill stroke markers" d=" M 45 387 L 49 387" stroke-linejoin="bevel" stroke-miterlimit="10"/><path fill="none" stroke="black" paint-order="fill stroke markers" d=" M 45 370 L 49 370" stroke-linejoin="bevel" stroke-miterlimit="10"/><path fill="none" stroke="black" paint-order="fill stroke markers" d=" M 45 353 L 49 353" stroke-linejoin="bevel" stroke-miterlimit="10"/><path fill="none" stroke="black" paint-order="fill stroke markers" d=" M 45 335 L 49 335" stroke-linejoin="bevel" stroke-miterlimit="10"/><path fill="none" stroke="black" paint-order="fill stroke markers" d=" M 45 318 L 49 318" stroke-linejoin="bevel" stroke-miterlimit="10"/><path fill="none" stroke="black" paint-order="fill stroke markers" d=" M 45 301 L 49 301" stroke-linejoin="bevel" stroke-miterlimit="10"/><path fill="none" stroke="black" paint-order="fill stroke markers" d=" M 45 284 L 49 284" stroke-linejoin="bevel" stroke-miterlimit="10"/><path fill="none" stroke="black" paint-order="fill stroke markers" d=" M 45 267 L 49 267" stroke-linejoin="bevel" stroke-miterlimit="10"/><path fill="none" stroke="black" paint-order="fill stroke markers" d=" M 45 250 L 49 250" stroke-linejoin="bevel" stroke-miterlimit="10"/><path fill="none" stroke="black" paint-order="fill stroke markers" d=" M 45 233 L 49 233" stroke-linejoin="bevel" stroke-miterlimit="10"/><path fill="none" stroke="black" paint-order="fill stroke markers" d=" M 45 216 L 49 216" stroke-linejoin="bevel" stroke-miterlimit="10"/><path fill="none" stroke="black" paint-order="fill stroke markers" d=" M 45 199 L 49 199" stroke-linejoin="bevel" stroke-miterlimit="10"/><path fill="none" stroke="black" paint-order="fill stroke markers" d=" M 45 182 L 49 182" stroke-linejoin="bevel" stroke-miterlimit="10"/><path fill="none" stroke="black" paint-order="fill stroke markers" d=" M 45 165 L 49 165" stroke-linejoin="bevel" stroke-miterlimit="10"/><path fill="none" stroke="black" paint-order="fill stroke markers" d=" M 45 148 L 49 148" stroke-linejoin="bevel" stroke-miterlimit="10"/><path fill="none" stroke="black" paint-order="fill stroke markers" d=" M 45 130 L 49 130" stroke-linejoin="bevel" stroke-miterlimit="10"/><path fill="none" stroke="black" paint-order="fill stroke markers" d=" M 45 113 L 49 113" stroke-linejoin="bevel" stroke-miterlimit="10"/><path fill="none" stroke="black" paint-order="fill stroke markers" d=" M 45 96 L 49 96" stroke-linejoin="bevel" stroke-miterlimit="10"/><path fill="none" stroke="black" paint-order="fill stroke markers" d=" M 45 79 L 49 79" stroke-linejoin="bevel" stroke-miterlimit="10"/><path fill="none" stroke="black" paint-order="fill stroke markers" d=" M 45 62 L 49 62" stroke-linejoin="bevel" stroke-miterlimit="10"/><path fill="none" stroke="black" paint-order="fill stroke markers" d=" M 45 45 L 49 45" stroke-linejoin="bevel" stroke-miterlimit="10"/><path fill="" stroke="black" paint-order="fill stroke markers" d=" M 45 28 L 49 28" stroke-linejoin="bevel" stroke-miterlimit="10"/><g transform="translate(38,455) rotate(0,0,0)"><text fill="" stroke="none" font-family="helvetica" font-size="8pt" font-style="normal" font-weight="normal" text-decoration="normal" x="0" y="0" text-anchor="end" dominant-baseline="central">0</text><g transform="rotate(0,0,0) translate(-38,-455) translate(38,370) rotate(0,0,0)"><text fill="" stroke="none" font-family="helvetica" font-size="8pt" font-style="normal" font-weight="normal" text-decoration="normal" x="0" y="0" text-anchor="end" dominant-baseline="central">0.2</text><g transform="rotate(0,0,0) translate(-38,-370) translate(38,284) rotate(0,0,0)"><text fill="" stroke="none" font-family="helvetica" font-size="8pt" font-style="normal" font-weight="normal" text-decoration="normal" x="0" y="0" text-anchor="end" dominant-baseline="central">0.4</text><g transform="rotate(0,0,0) translate(-38,-284) translate(38,199) rotate(0,0,0)"><text fill="" stroke="none" font-family="helvetica" font-size="8pt" font-style="normal" font-weight="normal" text-decoration="normal" x="0" y="0" text-anchor="end" dominant-baseline="central">0.6</text><g transform="rotate(0,0,0) translate(-38,-199) translate(38,113) rotate(0,0,0)"><text fill="" stroke="none" font-family="helvetica" font-size="8pt" font-style="normal" font-weight="normal" text-decoration="normal" x="0" y="0" text-anchor="end" dominant-baseline="central">0.8</text><g transform="rotate(0,0,0) translate(-38,-113) translate(38,28) rotate(0,0,0)"><text fill="" stroke="none" font-family="helvetica" font-size="8pt" font-style="normal" font-weight="normal" text-decoration="normal" x="0" y="0" text-anchor="end" dominant-baseline="central">1</text><g transform="rotate(0,0,0) translate(-38,-28) translate(16,242) rotate(-90,0,0)"><text fill="" stroke="none" font-family="Helvetica Neue" font-size="10pt" font-style="italic" font-weight="normal" text-decoration="normal" x="0" y="0" text-anchor="middle" dominant-baseline="alphabetic">True Positive Rate (TPR)</text><g transform="rotate(90,0,0) translate(-16,-242)"/></g></g></g></g></g></g></g></g><g clip-path="url(#qOCCOKuVuoTK)"><g/></g></g></g></svg>