<svg version="1.1" xmlns="http://www.w3.org/2000/svg" xmlns:xlink="http://www.w3.org/1999/xlink" width="500" height="500" style="width: 500px; height: 500px;"><defs><clipPath id="bRqKJtRfsmbs"><path fill="none" stroke="none" d=" M 49 28 L 470 28 L 470 455 L 49 455 L 49 28 Z"/></clipPath><clipPath id="HhDryuCTvBXV"><path fill="none" stroke="none" d=" M 49 28 L 470 28 L 470 455 L 49 455 L 49 28 Z"/></clipPath></defs><g transform="scale(1,1) translate(0.5,0.5)"><rect fill="#ffffff" stroke="none" x="0" y="0" width="500" height="500"/><rect fill="#FFFFFF" stroke="none" x="49" y="28" width="421" height="427"/><rect fill="#ffffff" stroke="none" x="49" y="28" width="421" height="427"/><g><rect fill="none" stroke="#e5e5e5" x="49" y="28" width="421" height="427" stroke-linejoin="bevel" stroke-miterlimit="10"/></g><g clip-path="url(#bRqKJtRfsmbs)"><g><g/><g/><g><path fill="none" stroke="none"/><path fill="none" stroke="#00BFA5" paint-order="fill stroke markers" d=" M 49 454.7319522912743 L 49 452.8556183301946 L 49.226465841850455 452.8556183301946 L 49.226465841850455 450.97928436911485 L 49.45293168370092 450.97928436911485 L 49.45293168370092 448.5668549905838 L 49.67939752555137 448.5668549905838 L 49.67939752555137 446.69052102950405 L 49.90586336740183 446.69052102950405 L 49.90586336740183 446.1544256120527 L 50.13232920925228 446.1544256120527 L 50.13232920925228 445.61833019460136 L 50.358795051102746 445.61833019460136 L 50.358795051102746 445.08223477715 L 50.5852608929532 445.08223477715 L 50.5852608929532 444.54613935969866 L 51.264658418504574 444.54613935969866 L 51.264658418504574 443.74199623352166 L 51.49112426035503 443.74199623352166 L 51.49112426035503 440.25737602008786 L 51.717590102205484 440.25737602008786 L 51.717590102205484 437.04080351537976 L 51.94405594405595 437.04080351537976 L 51.94405594405595 435.96861268047707 L 52.1705217859064 435.96861268047707 L 52.1705217859064 435.7005649717514 L 52.39698762775686 435.7005649717514 L 52.39698762775686 434.89642184557437 L 52.62345346960731 434.89642184557437 L 52.62345346960731 432.75204017576897 L 52.849919311457775 432.75204017576897 L 52.849919311457775 431.1437539234149 L 53.07638515330823 431.1437539234149 L 53.07638515330823 430.8757062146893 L 53.302850995158686 430.8757062146893 L 53.302850995158686 429.53546767106087 L 53.52931683700915 429.53546767106087 L 53.52931683700915 428.7313245448839 L 53.7557826788596 428.7313245448839 L 53.7557826788596 427.3910860012555 L 53.98224852071006 427.3910860012555 L 53.98224852071006 426.3188951663528 L 54.208714362560514 426.3188951663528 L 54.208714362560514 425.5147520401758 L 54.435180204410976 425.5147520401758 L 54.435180204410976 424.7106089139987 L 54.66164604626143 424.7106089139987 L 54.66164604626143 424.4425612052731 L 55.11457772996235 424.4425612052731 L 55.11457772996235 423.90646578782173 L 55.341043571812804 423.90646578782173 L 55.341043571812804 417.47332077840554 L 55.56750941366326 417.47332077840554 L 55.56750941366326 415.32893910860014 L 55.793975255513715 415.32893910860014 L 55.793975255513715 413.18455743879474 L 56.02044109736418 413.18455743879474 L 56.02044109736418 412.6484620213434 L 56.47337278106509 412.6484620213434 L 56.47337278106509 410.504080351538 L 56.69983862291554 410.504080351538 L 56.69983862291554 409.96798493408664 L 57.15277030661646 409.96798493408664 L 57.15277030661646 408.62774639045824 L 57.379236148466916 408.62774639045824 L 57.379236148466916 405.67922159447585 L 57.60570199031737 405.67922159447585 L 57.60570199031737 405.41117388575015 L 57.83216783216783 405.41117388575015 L 57.83216783216783 405.1431261770245 L 58.05863367401829 405.1431261770245 L 58.05863367401829 403.8028876333961 L 58.28509951586875 403.8028876333961 L 58.28509951586875 400.8543628374137 L 58.511565357719206 400.8543628374137 L 58.511565357719206 400.05021971123665 L 58.73803119956966 400.05021971123665 L 58.73803119956966 399.782172002511 L 58.96449704142012 399.782172002511 L 58.96449704142012 398.7099811676083 L 59.19096288327057 398.7099811676083 L 59.19096288327057 398.4419334588826 L 59.870360408821945 398.4419334588826 L 59.870360408821945 396.02950408035156 L 60.09682625067241 396.02950408035156 L 60.09682625067241 395.4934086629002 L 60.32329209252286 395.4934086629002 L 60.32329209252286 395.2253609541745 L 60.77622377622377 395.2253609541745 L 60.77622377622377 392.2768361581921 L 61.00268961807423 392.2768361581921 L 61.00268961807423 391.2046453232894 L 61.455621301775146 391.2046453232894 L 61.455621301775146 387.45197740112997 L 61.68208714362561 387.45197740112997 L 61.68208714362561 386.91588198367856 L 62.13501882732652 386.91588198367856 L 62.13501882732652 385.30759573132457 L 62.361484669176974 385.30759573132457 L 62.361484669176974 382.6271186440678 L 62.58795051102743 382.6271186440678 L 62.58795051102743 382.3590709353421 L 62.81441635287789 382.3590709353421 L 62.81441635287789 381.82297551789077 L 63.04088219472835 381.82297551789077 L 63.04088219472835 379.67859384808537 L 63.26734803657881 379.67859384808537 L 63.26734803657881 379.4105461393597 L 63.493813878429265 379.4105461393597 L 63.493813878429265 378.60640301318267 L 63.946745562130175 378.60640301318267 L 63.946745562130175 378.338355304457 L 64.17321140398063 378.338355304457 L 64.17321140398063 377.53421217828 L 64.39967724583109 377.53421217828 L 64.39967724583109 377.26616446955427 L 64.62614308768156 377.26616446955427 L 64.62614308768156 376.4620213433773 L 65.53200645508338 376.4620213433773 L 65.53200645508338 374.8537350910232 L 65.98493813878429 374.8537350910232 L 65.98493813878429 372.9774011299435 L 66.21140398063474 372.9774011299435 L 66.21140398063474 371.9052102950408 L 66.43786982248521 371.9052102950408 L 66.43786982248521 371.1010671688638 L 66.66433566433567 371.1010671688638 L 66.66433566433567 370.2969240426868 L 66.89080150618612 370.2969240426868 L 66.89080150618612 367.34839924670433 L 67.11726734803658 367.34839924670433 L 67.11726734803658 367.0803515379787 L 67.34373318988703 367.0803515379787 L 67.34373318988703 366.27620841180163 L 67.5701990317375 366.27620841180163 L 67.5701990317375 364.6679221594476 L 67.79666487358796 364.6679221594476 L 67.79666487358796 363.5957313245449 L 68.24959655728887 363.5957313245449 L 68.24959655728887 362.5235404896422 L 68.47606239913932 362.5235404896422 L 68.47606239913932 361.4513496547395 L 68.92899408284023 361.4513496547395 L 68.92899408284023 359.84306340238544 L 69.83485745024207 359.84306340238544 L 69.83485745024207 359.0389202762084 L 70.96718665949436 359.0389202762084 L 70.96718665949436 358.5028248587571 L 71.19365250134481 358.5028248587571 L 71.19365250134481 356.3584431889517 L 71.42011834319527 356.3584431889517 L 71.42011834319527 355.55430006277464 L 71.64658418504573 355.55430006277464 L 71.64658418504573 354.7501569365976 L 71.87305002689618 354.7501569365976 L 71.87305002689618 354.48210922787194 L 72.09951586874664 354.48210922787194 L 72.09951586874664 353.6779661016949 L 72.32598171059709 353.6779661016949 L 72.32598171059709 352.8738229755179 L 72.55244755244755 352.8738229755179 L 72.55244755244755 351.26553672316385 L 72.778913394298 351.26553672316385 L 72.778913394298 350.9974890144382 L 73.23184507799893 350.9974890144382 L 73.23184507799893 350.19334588826115 L 73.45831091984938 350.19334588826115 L 73.45831091984938 349.9252981795355 L 73.68477676169984 349.9252981795355 L 73.68477676169984 349.12115505335845 L 73.91124260355029 349.12115505335845 L 73.91124260355029 348.85310734463275 L 74.13770844540076 348.85310734463275 L 74.13770844540076 347.5128688010044 L 74.36417428725122 347.5128688010044 L 74.36417428725122 347.2448210922787 L 74.59064012910167 347.2448210922787 L 74.59064012910167 346.172630257376 L 74.81710597095213 346.172630257376 L 74.81710597095213 345.90458254865035 L 75.27003765465304 345.90458254865035 L 75.27003765465304 344.83239171374765 L 75.4965034965035 344.83239171374765 L 75.4965034965035 342.1519146264909 L 75.72296933835395 342.1519146264909 L 75.72296933835395 341.61581920903956 L 75.9494351802044 341.61581920903956 L 75.9494351802044 340.54362837413686 L 76.17590102205486 340.54362837413686 L 76.17590102205486 339.7394852479598 L 76.40236686390533 339.7394852479598 L 76.40236686390533 339.47143753923416 L 76.85529854760624 339.47143753923416 L 76.85529854760624 339.20338983050846 L 77.0817643894567 339.20338983050846 L 77.0817643894567 337.5951035781544 L 77.30823023130716 337.5951035781544 L 77.30823023130716 337.05900816070306 L 77.53469607315762 337.05900816070306 L 77.53469607315762 336.7909604519774 L 77.76116191500807 336.7909604519774 L 77.76116191500807 335.98681732580036 L 78.89349112426035 335.98681732580036 L 78.89349112426035 334.91462649089766 L 79.1199569661108 334.91462649089766 L 79.1199569661108 331.4300062774639 L 79.34642280796126 331.4300062774639 L 79.34642280796126 331.1619585687382 L 79.57288864981173 331.1619585687382 L 79.57288864981173 328.4814814814815 L 79.79935449166219 328.4814814814815 L 79.79935449166219 327.9453860640301 L 80.02582033351264 327.9453860640301 L 80.02582033351264 327.1412429378531 L 80.2522861753631 327.1412429378531 L 80.2522861753631 325.26490897677337 L 80.47875201721355 325.26490897677337 L 80.47875201721355 324.9968612680477 L 80.70521785906402 324.9968612680477 L 80.70521785906402 324.728813559322 L 80.93168370091448 324.728813559322 L 80.93168370091448 324.1927181418707 L 81.38461538461539 324.1927181418707 L 81.38461538461539 323.120527306968 L 81.61108122646584 323.120527306968 L 81.61108122646584 321.2441933458883 L 81.8375470683163 321.2441933458883 L 81.8375470683163 320.9761456371626 L 82.06401291016675 320.9761456371626 L 82.06401291016675 319.9039548022599 L 82.29047875201721 319.9039548022599 L 82.29047875201721 319.3678593848085 L 82.51694459386766 319.3678593848085 L 82.51694459386766 318.8317639673572 L 82.74341043571812 318.8317639673572 L 82.74341043571812 317.7595731324545 L 82.96987627756859 317.7595731324545 L 82.96987627756859 317.2234777150031 L 83.19634211941904 317.2234777150031 L 83.19634211941904 314.5430006277464 L 83.4228079612695 314.5430006277464 L 83.4228079612695 314.00690521029503 L 83.87573964497042 314.00690521029503 L 83.87573964497042 309.71814187068424 L 84.32867132867133 309.71814187068424 L 84.32867132867133 308.3779033270559 L 84.55513717052179 308.3779033270559 L 84.55513717052179 307.57376020087884 L 85.0080688542227 307.57376020087884 L 85.0080688542227 306.76961707470184 L 85.68746637977407 306.76961707470184 L 85.68746637977407 305.69742623979914 L 86.36686390532545 305.69742623979914 L 86.36686390532545 305.16133082234774 L 86.5933297471759 305.16133082234774 L 86.5933297471759 304.8932831136221 L 86.81979558902637 304.8932831136221 L 86.81979558902637 303.01694915254234 L 87.04626143087681 303.01694915254234 L 87.04626143087681 302.7489014438167 L 87.49919311457774 302.7489014438167 L 87.49919311457774 301.94475831763964 L 87.72565895642819 301.94475831763964 L 87.72565895642819 301.14061519146264 L 87.95212479827865 301.14061519146264 L 87.95212479827865 300.06842435655994 L 88.1785906401291 300.06842435655994 L 88.1785906401291 298.99623352165725 L 88.63152232383001 298.99623352165725 L 88.63152232383001 298.72818581293154 L 88.85798816568047 298.72818581293154 L 88.85798816568047 297.65599497802884 L 89.08445400753092 297.65599497802884 L 89.08445400753092 294.97551789077215 L 89.31091984938138 294.97551789077215 L 89.31091984938138 294.70747018204645 L 89.99031737493276 294.70747018204645 L 89.99031737493276 294.43942247332075 L 90.21678321678323 294.43942247332075 L 90.21678321678323 291.75894538606406 L 90.44324905863368 291.75894538606406 L 90.44324905863368 290.954802259887 L 90.66971490048414 290.954802259887 L 90.66971490048414 290.41870684243565 L 90.8961807423346 290.41870684243565 L 90.8961807423346 290.15065913370995 L 91.12264658418505 290.15065913370995 L 91.12264658418505 289.07846829880725 L 91.80204410973641 289.07846829880725 L 91.80204410973641 288.8104205900816 L 92.02850995158687 288.8104205900816 L 92.02850995158687 288.27432517263026 L 92.25497579343732 288.27432517263026 L 92.25497579343732 287.7382297551789 L 92.48144163528778 287.7382297551789 L 92.48144163528778 287.47018204645326 L 92.70790747713825 287.47018204645326 L 92.70790747713825 285.5938480853735 L 93.38730500268963 285.5938480853735 L 93.38730500268963 285.05775266792216 L 93.61377084454008 285.05775266792216 L 93.61377084454008 284.5216572504708 L 93.84023668639054 284.5216572504708 L 93.84023668639054 283.98556183301946 L 94.29316837009145 283.98556183301946 L 94.29316837009145 283.71751412429376 L 94.5196342119419 283.71751412429376 L 94.5196342119419 282.91337099811676 L 95.19903173749327 282.91337099811676 L 95.19903173749327 282.10922787193977 L 95.42549757934373 282.10922787193977 L 95.42549757934373 281.57313245448836 L 95.65196342119418 281.57313245448836 L 95.65196342119418 281.03703703703707 L 96.1048951048951 281.03703703703707 L 96.1048951048951 279.96484620213437 L 96.78429263044649 279.96484620213437 L 96.78429263044649 278.35655994978026 L 97.2372243141474 278.35655994978026 L 97.2372243141474 278.0885122410546 L 97.69015599784831 278.0885122410546 L 97.69015599784831 277.82046453232897 L 97.91662183969876 277.82046453232897 L 97.91662183969876 275.6760828625236 L 98.14308768154922 275.6760828625236 L 98.14308768154922 275.40803515379787 L 98.36955352339967 275.40803515379787 L 98.36955352339967 275.13998744507217 L 98.59601936525013 275.13998744507217 L 98.59601936525013 272.7275580665411 L 99.27541689080151 272.7275580665411 L 99.27541689080151 272.1914626490898 L 99.50188273265196 272.1914626490898 L 99.50188273265196 271.6553672316384 L 99.95481441635289 271.6553672316384 L 99.95481441635289 271.3873195229128 L 100.4077461000538 271.3873195229128 L 100.4077461000538 270.5831763967357 L 100.63421194190425 270.5831763967357 L 100.63421194190425 269.77903327055867 L 100.86067778375471 269.77903327055867 L 100.86067778375471 269.2429378531074 L 101.08714362560517 269.2429378531074 L 101.08714362560517 268.9748901443817 L 101.31360946745562 268.9748901443817 L 101.31360946745562 268.706842435656 L 101.54007530930608 268.706842435656 L 101.54007530930608 268.4387947269303 L 101.76654115115653 268.4387947269303 L 101.76654115115653 268.1707470182047 L 101.993006993007 268.1707470182047 L 101.993006993007 267.902699309479 L 102.21947283485744 267.902699309479 L 102.21947283485744 267.6346516007533 L 102.67240451855837 267.6346516007533 L 102.67240451855837 267.3666038920276 L 103.12533620225929 267.3666038920276 L 103.12533620225929 265.4902699309479 L 103.35180204410973 265.4902699309479 L 103.35180204410973 265.22222222222223 L 103.80473372781066 265.22222222222223 L 103.80473372781066 264.9541745134966 L 104.03119956966111 264.9541745134966 L 104.03119956966111 263.6139359698682 L 104.48413125336202 263.6139359698682 L 104.48413125336202 261.2015065913371 L 104.93706293706293 261.2015065913371 L 104.93706293706293 260.6654111738858 L 105.16352877891339 260.6654111738858 L 105.16352877891339 259.86126804770873 L 105.38999462076386 259.86126804770873 L 105.38999462076386 259.5932203389831 L 105.61646046261431 259.5932203389831 L 105.61646046261431 258.789077212806 L 105.84292630446475 258.789077212806 L 105.84292630446475 258.2529817953547 L 106.7487896718666 258.2529817953547 L 106.7487896718666 257.71688637790334 L 107.20172135556751 257.71688637790334 L 107.20172135556751 256.37664783427493 L 107.42818719741797 256.37664783427493 L 107.42818719741797 255.30445699937226 L 107.65465303926842 255.30445699937226 L 107.65465303926842 254.7683615819209 L 107.88111888111888 254.7683615819209 L 107.88111888111888 254.5003138731952 L 108.10758472296934 254.5003138731952 L 108.10758472296934 254.23226616446954 L 108.33405056481979 254.23226616446954 L 108.33405056481979 253.9642184557439 L 109.01344809037117 253.9642184557439 L 109.01344809037117 252.62397991211552 L 109.919311457773 252.62397991211552 L 109.919311457773 251.55178907721282 L 110.59870898332437 251.55178907721282 L 110.59870898332437 251.28374136848714 L 111.05164066702528 251.28374136848714 L 111.05164066702528 250.21155053358441 L 111.50457235072619 250.21155053358441 L 111.50457235072619 249.94350282485874 L 111.73103819257665 249.94350282485874 L 111.73103819257665 249.40740740740742 L 112.18396987627756 249.40740740740742 L 112.18396987627756 249.13935969868174 L 112.41043571812803 249.13935969868174 L 112.41043571812803 248.87131198995607 L 112.6369015599785 248.87131198995607 L 112.6369015599785 248.6032642812304 L 112.86336740182894 248.6032642812304 L 112.86336740182894 248.33521657250472 L 113.0898332436794 248.33521657250472 L 113.0898332436794 248.06716886377902 L 113.31629908552985 248.06716886377902 L 113.31629908552985 247.263025737602 L 113.54276492738032 247.263025737602 L 113.54276492738032 246.99497802887635 L 113.76923076923077 246.99497802887635 L 113.76923076923077 246.19083490269932 L 114.44862829478214 246.19083490269932 L 114.44862829478214 245.65473948524794 L 114.90155997848306 245.65473948524794 L 114.90155997848306 245.38669177652227 L 115.12802582033352 245.38669177652227 L 115.12802582033352 244.3145009416196 L 115.58095750403443 244.3145009416196 L 115.58095750403443 243.51035781544255 L 116.93975255513718 243.51035781544255 L 116.93975255513718 242.9742623979912 L 117.39268423883809 242.9742623979912 L 117.39268423883809 242.43816698053988 L 118.07208176438945 242.43816698053988 L 118.07208176438945 242.1701192718142 L 118.29854760623992 242.1701192718142 L 118.29854760623992 241.09792843691147 L 118.52501344809038 241.09792843691147 L 118.52501344809038 240.8298807281858 L 118.97794513179129 240.8298807281858 L 118.97794513179129 240.56183301946012 L 120.11027434104356 240.56183301946012 L 120.11027434104356 239.7576898932831 L 120.33674018289403 239.7576898932831 L 120.33674018289403 239.22159447583178 L 120.56320602474449 239.22159447583178 L 120.56320602474449 238.9535467671061 L 120.78967186659494 238.9535467671061 L 120.78967186659494 238.68549905838043 L 121.0161377084454 238.68549905838043 L 121.0161377084454 238.41745134965475 L 121.46906939214631 238.41745134965475 L 121.46906939214631 238.14940364092908 L 121.69553523399678 238.14940364092908 L 121.69553523399678 237.61330822347773 L 121.92200107584723 237.61330822347773 L 121.92200107584723 236.00502197112365 L 122.37493275954814 236.00502197112365 L 122.37493275954814 235.73697426239798 L 122.82786444324906 235.73697426239798 L 122.82786444324906 235.20087884494663 L 123.05433028509951 235.20087884494663 L 123.05433028509951 233.5925925925926 L 123.50726196880044 233.5925925925926 L 123.50726196880044 233.05649717514126 L 123.96019365250135 233.05649717514126 L 123.96019365250135 232.78844946641559 L 124.1866594943518 232.78844946641559 L 124.1866594943518 231.98430634023853 L 124.41312533620226 231.98430634023853 L 124.41312533620226 231.71625863151286 L 124.86605701990317 231.71625863151286 L 124.86605701990317 231.1801632140615 L 125.31898870360409 231.1801632140615 L 125.31898870360409 230.91211550533583 L 125.54545454545455 230.91211550533583 L 125.54545454545455 230.10797237915884 L 125.771920387305 230.10797237915884 L 125.771920387305 229.83992467043316 L 126.22485207100591 229.83992467043316 L 126.22485207100591 229.3038292529818 L 127.13071543840773 229.3038292529818 L 127.13071543840773 228.4996861268048 L 127.3571812802582 228.4996861268048 L 127.3571812802582 227.9635907093534 L 127.81011296395911 227.9635907093534 L 127.81011296395911 227.69554300062774 L 128.0365788058096 227.69554300062774 L 128.0365788058096 227.42749529190206 L 128.48951048951048 227.42749529190206 L 128.48951048951048 226.62335216572504 L 128.71597633136093 226.62335216572504 L 128.71597633136093 226.0872567482737 L 129.16890801506185 226.0872567482737 L 129.16890801506185 225.819209039548 L 129.39537385691233 225.819209039548 L 129.39537385691233 225.55116133082237 L 130.75416890801506 225.55116133082237 L 130.75416890801506 225.2831136220967 L 130.98063474986552 225.2831136220967 L 130.98063474986552 223.13873195229127 L 131.43356643356645 223.13873195229127 L 131.43356643356645 222.33458882611424 L 132.7923614846692 222.33458882611424 L 132.7923614846692 221.26239799121154 L 133.01882732651964 221.26239799121154 L 133.01882732651964 220.9943502824859 L 134.60408821947283 220.9943502824859 L 134.60408821947283 220.45825486503455 L 134.60408821947283 219.9221594475832 L 135.50995158687465 219.9221594475832 L 135.50995158687465 219.65411173885752 L 135.73641742872513 219.65411173885752 L 135.73641742872513 218.84996861268047 L 135.96288327057556 218.84996861268047 L 135.96288327057556 218.5819209039548 L 136.18934911242604 218.5819209039548 L 136.18934911242604 218.04582548650345 L 136.8687466379774 218.04582548650345 L 136.8687466379774 216.97363465160075 L 137.09521247982786 216.97363465160075 L 137.09521247982786 216.43753923414943 L 137.32167832167832 216.43753923414943 L 137.32167832167832 215.6333961079724 L 137.77461000537926 215.6333961079724 L 137.77461000537926 215.36534839924673 L 138.00107584722969 215.36534839924673 L 138.00107584722969 214.56120527306967 L 138.22754168908017 214.56120527306967 L 138.22754168908017 214.293157564344 L 138.9069392146315 214.293157564344 L 138.9069392146315 212.41682360326425 L 140.26573426573427 212.41682360326425 L 140.26573426573427 212.14877589453857 L 140.71866594943518 212.14877589453857 L 140.71866594943518 211.3446327683616 L 140.94513179128563 211.3446327683616 L 140.94513179128563 210.80853735091026 L 141.17159763313612 210.80853735091026 L 141.17159763313612 210.54048964218455 L 141.39806347498654 210.54048964218455 L 141.39806347498654 210.27244193345888 L 141.624529316837 210.27244193345888 L 141.624529316837 210.0043942247332 L 142.07746100053794 210.0043942247332 L 142.07746100053794 209.73634651600753 L 142.30392684238836 209.73634651600753 L 142.30392684238836 208.39610797237916 L 142.75685852608927 208.39610797237916 L 142.75685852608927 204.91148775894538 L 142.98332436793976 204.91148775894538 L 142.98332436793976 204.6434400502197 L 143.66272189349112 204.6434400502197 L 143.66272189349112 202.76710608914001 L 144.3421194190425 202.76710608914001 L 144.3421194190425 202.23101067168867 L 144.56858526089297 202.23101067168867 L 144.56858526089297 201.6949152542373 L 144.7950511027434 201.6949152542373 L 144.7950511027434 201.4268675455116 L 145.02151694459386 201.4268675455116 L 145.02151694459386 200.89077212806026 L 145.4744486282948 200.89077212806026 L 145.4744486282948 200.6227244193346 L 145.70091447014522 200.6227244193346 L 145.70091447014522 200.08662900188324 L 146.38031199569662 200.08662900188324 L 146.38031199569662 199.81858129315756 L 146.60677783754707 199.81858129315756 L 146.60677783754707 199.0144381669805 L 147.05970952124798 199.0144381669805 L 147.05970952124798 197.94224733207784 L 147.73910704679935 197.94224733207784 L 147.73910704679935 197.6741996233522 L 148.19203873050026 197.6741996233522 L 148.19203873050026 197.4061519146265 L 148.41850457235074 197.4061519146265 L 148.41850457235074 197.13810420590085 L 148.64497041420117 197.13810420590085 L 148.64497041420117 196.3339610797238 L 149.09790209790208 196.3339610797238 L 149.09790209790208 196.0659133709981 L 149.32436793975256 196.0659133709981 L 149.32436793975256 195.52981795354674 L 149.55083378160302 195.52981795354674 L 149.55083378160302 195.2617702448211 L 150.45669714900484 195.2617702448211 L 150.45669714900484 194.1895794099184 L 151.1360946745562 194.1895794099184 L 151.1360946745562 191.50910232266165 L 151.3625605164067 191.50910232266165 L 151.3625605164067 190.9730069052103 L 151.58902635825712 190.9730069052103 L 151.58902635825712 190.16886377903325 L 151.8154922001076 190.16886377903325 L 151.8154922001076 189.36472065285625 L 152.04195804195803 189.36472065285625 L 152.04195804195803 188.8286252354049 L 152.49488972565894 188.8286252354049 L 152.49488972565894 188.29252981795355 L 152.72135556750942 188.29252981795355 L 152.72135556750942 188.0244821092279 L 153.17428725121033 188.0244821092279 L 153.17428725121033 187.7564344005022 L 153.40075309306079 187.7564344005022 L 153.40075309306079 187.48838669177655 L 153.62721893491124 187.48838669177655 L 153.62721893491124 187.22033898305085 L 154.08015061861215 187.22033898305085 L 154.08015061861215 186.95229127432515 L 154.75954814416355 186.95229127432515 L 154.75954814416355 186.4161958568738 L 154.986013986014 186.4161958568738 L 154.986013986014 185.88010043942245 L 155.8918773534158 185.88010043942245 L 155.8918773534158 185.3440050219711 L 156.11834319526628 185.3440050219711 L 156.11834319526628 184.27181418706846 L 156.34480903711673 184.27181418706846 L 156.34480903711673 183.7357187696171 L 156.5712748789672 183.7357187696171 L 156.5712748789672 183.4676710608914 L 157.0242065626681 183.4676710608914 L 157.0242065626681 182.3954802259887 L 157.25067240451858 182.3954802259887 L 157.25067240451858 181.85938480853736 L 157.477138246369 181.85938480853736 L 157.477138246369 181.0552416823603 L 158.38300161377086 181.0552416823603 L 158.38300161377086 179.1789077212806 L 158.83593329747174 179.1789077212806 L 158.83593329747174 178.64281230382926 L 159.28886498117265 178.64281230382926 L 159.28886498117265 178.37476459510356 L 159.96826250672405 178.37476459510356 L 159.96826250672405 178.1067168863779 L 160.64766003227544 178.1067168863779 L 160.64766003227544 177.8386691776522 L 160.87412587412587 177.8386691776522 L 160.87412587412587 177.30257376020086 L 161.32705755782678 177.30257376020086 L 161.32705755782678 175.9623352165725 L 161.77998924152772 175.9623352165725 L 161.77998924152772 175.42623979912116 L 162.45938676707908 175.42623979912116 L 162.45938676707908 174.8901443816698 L 162.6858526089295 174.8901443816698 L 162.6858526089295 174.35404896421846 L 162.91231845078 174.35404896421846 L 162.91231845078 174.08600125549276 L 163.13878429263045 174.08600125549276 L 163.13878429263045 173.81795354676711 L 163.8181818181818 173.81795354676711 L 163.8181818181818 173.28185812931576 L 164.0446476600323 173.28185812931576 L 164.0446476600323 173.01381042059006 L 164.27111350188272 173.01381042059006 L 164.27111350188272 172.74576271186442 L 164.72404518558363 172.74576271186442 L 164.72404518558363 172.4777150031387 L 164.9505110274341 172.4777150031387 L 164.9505110274341 172.20966729441307 L 165.62990855298548 172.20966729441307 L 165.62990855298548 171.67357187696172 L 166.08284023668637 171.67357187696172 L 166.08284023668637 171.1374764595103 L 168.5739644970414 171.1374764595103 L 168.5739644970414 170.33333333333337 L 168.80043033889189 170.33333333333337 L 168.80043033889189 168.72504708097927 L 169.02689618074234 168.72504708097927 L 169.02689618074234 167.92090395480227 L 169.47982786444322 167.92090395480227 L 169.47982786444322 167.65285624607657 L 170.38569123184507 167.65285624607657 L 170.38569123184507 167.38480853735092 L 171.51802044109735 167.38480853735092 L 171.51802044109735 167.11676082862522 L 172.19741796664874 167.11676082862522 L 172.19741796664874 166.58066541117387 L 172.65034965034965 166.58066541117387 L 172.65034965034965 166.31261770244822 L 173.55621301775147 166.31261770244822 L 173.55621301775147 165.77652228499687 L 173.78267885960193 165.77652228499687 L 173.78267885960193 164.70433145009417 L 174.00914470145239 164.43628374136847 L 174.68854222700378 164.43628374136847 L 174.68854222700378 163.90018832391712 L 174.9150080688542 163.90018832391712 L 174.9150080688542 162.82799748901442 L 176.0473372781065 162.82799748901442 L 176.0473372781065 162.29190207156307 L 176.95320064550833 162.29190207156307 L 176.95320064550833 162.02385436283737 L 177.6325981710597 162.02385436283737 L 177.6325981710597 161.48775894538608 L 178.31199569661106 161.48775894538608 L 178.31199569661106 160.95166352793473 L 178.53846153846155 160.95166352793473 L 178.53846153846155 160.41556811048338 L 178.764927380312 160.41556811048338 L 178.764927380312 160.14752040175767 L 178.99139322216246 160.14752040175767 L 178.99139322216246 159.61142498430632 L 179.2178590640129 159.61142498430632 L 179.2178590640129 158.53923414940363 L 180.12372243141476 158.53923414940363 L 180.12372243141476 158.00313873195228 L 180.57665411511564 158.00313873195228 L 180.57665411511564 157.73509102322657 L 180.80311995696613 157.73509102322657 L 180.80311995696613 156.66290018832393 L 181.9354491662184 156.66290018832393 L 181.9354491662184 156.39485247959823 L 182.61484669176977 156.39485247959823 L 182.61484669176977 156.12680477087258 L 182.84131253362023 156.12680477087258 L 182.84131253362023 155.85875706214688 L 183.74717590102205 155.85875706214688 L 183.74717590102205 155.59070935342123 L 183.9736417428725 155.59070935342123 L 183.9736417428725 155.05461393596988 L 184.20010758472299 155.05461393596988 L 184.20010758472299 154.78656622724418 L 184.6530392684239 154.78656622724418 L 184.6530392684239 154.51851851851853 L 184.87950511027435 154.51851851851853 L 184.87950511027435 153.98242310106718 L 185.10597095212478 153.98242310106718 L 185.10597095212478 153.44632768361578 L 185.78536847767617 153.44632768361578 L 185.78536847767617 152.91023226616448 L 186.691231845078 152.91023226616448 L 186.691231845078 152.64218455743884 L 187.37062937062936 152.64218455743884 L 187.37062937062936 152.37413684871314 L 187.59709521247984 152.37413684871314 L 187.59709521247984 152.10608913998743 L 187.82356105433027 152.10608913998743 L 187.82356105433027 151.03389830508473 L 188.2764927380312 151.03389830508473 L 188.2764927380312 150.7658505963591 L 188.50295857988166 150.7658505963591 L 188.50295857988166 149.96170747018203 L 188.72942442173212 149.96170747018203 L 188.72942442173212 149.6936597614564 L 189.63528778913394 149.6936597614564 L 189.63528778913394 149.42561205273068 L 190.08821947283485 149.42561205273068 L 190.08821947283485 149.15756434400498 L 190.31468531468533 149.15756434400498 L 190.31468531468533 148.88951663527934 L 190.76761699838625 148.88951663527934 L 190.76761699838625 148.62146892655363 L 190.9940828402367 148.62146892655363 L 190.9940828402367 148.08537350910234 L 191.4470145239376 148.08537350910234 L 191.4470145239376 147.8173258003767 L 191.89994620763852 147.8173258003767 L 191.89994620763852 147.549278091651 L 192.80580957504034 147.549278091651 L 192.80580957504034 146.74513496547394 L 193.71167294244216 146.74513496547394 L 193.71167294244216 146.4770872567483 L 193.93813878429262 146.4770872567483 L 193.93813878429262 146.2090395480226 L 194.39107046799356 146.2090395480226 L 194.39107046799356 145.94099183929694 L 194.84400215169447 145.94099183929694 L 194.84400215169447 144.60075329566854 L 195.07046799354492 144.60075329566854 L 195.07046799354492 144.33270558694284 L 197.10866057019902 144.33270558694284 L 197.10866057019902 144.0646578782172 L 197.7880580957504 144.0646578782172 L 197.7880580957504 143.5285624607659 L 198.69392146315224 143.5285624607659 L 198.69392146315224 142.72441933458884 L 199.3733189887036 142.72441933458884 L 199.3733189887036 142.45637162586314 L 199.8262506724045 142.45637162586314 L 199.8262506724045 142.1883239171375 L 200.05271651425497 142.1883239171375 L 200.05271651425497 141.65222849968615 L 200.50564819795588 141.65222849968615 L 200.50564819795588 141.1161330822348 L 200.95857988165682 141.1161330822348 L 200.95857988165682 140.8480853735091 L 201.86444324905864 140.8480853735091 L 201.86444324905864 140.5800376647834 L 202.0909090909091 140.5800376647834 L 202.0909090909091 140.31198995605774 L 202.31737493275955 140.31198995605774 L 202.31737493275955 140.04394224733204 L 202.54384077461 140.04394224733204 L 202.54384077461 139.5078468298807 L 202.77030661646046 139.5078468298807 L 202.77030661646046 139.2397991211551 L 203.44970414201183 139.2397991211551 L 203.44970414201183 138.7037037037037 L 204.35556750941367 138.7037037037037 L 204.35556750941367 138.43565599497805 L 204.80849919311459 138.43565599497805 L 204.80849919311459 138.16760828625235 L 205.03496503496504 138.16760828625235 L 205.03496503496504 137.8995605775267 L 205.26143087681547 137.8995605775267 L 205.26143087681547 137.631512868801 L 205.94082840236686 137.631512868801 L 205.94082840236686 137.36346516007535 L 206.84669176976868 137.36346516007535 L 206.84669176976868 135.75517890772124 L 207.07315761161917 135.75517890772124 L 207.07315761161917 134.95103578154425 L 207.52608929532008 134.95103578154425 L 207.52608929532008 134.4149403640929 L 207.97902097902096 134.4149403640929 L 207.97902097902096 133.87884494664155 L 208.4319526627219 133.87884494664155 L 208.4319526627219 132.5386064030132 L 209.33781603012372 132.5386064030132 L 209.33781603012372 131.46641556811045 L 209.56428187197417 131.46641556811045 L 209.56428187197417 130.9303201506591 L 209.79074771382466 130.9303201506591 L 209.79074771382466 130.39422473320775 L 210.24367939752554 130.39422473320775 L 210.24367939752554 129.85812931575646 L 210.69661108122645 129.85812931575646 L 210.69661108122645 129.59008160703075 L 211.6024744486283 129.59008160703075 L 211.6024744486283 129.3220338983051 L 212.73480365788058 129.3220338983051 L 212.73480365788058 128.51789077212806 L 212.96126949973103 128.51789077212806 L 212.96126949973103 127.9817953546767 L 213.18773534158152 127.9817953546767 L 213.18773534158152 127.71374764595106 L 213.41420118343194 127.71374764595106 L 213.41420118343194 127.44569993722536 L 213.86713286713288 127.44569993722536 L 213.86713286713288 127.17765222849965 L 214.7729962345347 127.17765222849965 L 214.7729962345347 126.6415568110483 L 214.99946207638516 126.6415568110483 L 214.99946207638516 125.83741368487131 L 216.8111888111888 125.83741368487131 L 216.8111888111888 125.56936597614566 L 217.03765465303928 125.56936597614566 L 217.03765465303928 125.30131826741996 L 217.26412049488974 125.30131826741996 L 217.26412049488974 125.03327055869431 L 217.49058633674017 125.03327055869431 L 217.49058633674017 123.96107972379161 L 217.9435180204411 123.96107972379161 L 217.9435180204411 123.69303201506591 L 219.98171059709523 123.69303201506591 L 219.98171059709523 123.42498430634026 L 220.20817643894566 123.42498430634026 L 220.20817643894566 123.15693659761456 L 221.56697149004842 123.15693659761456 L 221.56697149004842 122.88888888888886 L 221.79343733189887 122.88888888888886 L 221.79343733189887 122.62084118016321 L 222.01990317374933 122.62084118016321 L 222.01990317374933 121.81669805398616 L 222.24636901559978 121.81669805398616 L 222.24636901559978 121.54865034526051 L 222.47283485745024 121.54865034526051 L 222.47283485745024 121.28060263653481 L 223.831629908553 121.28060263653481 L 223.831629908553 120.74450721908352 L 224.2845615922539 120.74450721908352 L 224.2845615922539 119.94036409290646 L 224.51102743410436 119.94036409290646 L 224.51102743410436 119.40426867545511 L 224.73749327595482 119.40426867545511 L 224.73749327595482 119.13622096672947 L 224.96395911780527 119.13622096672947 L 224.96395911780527 118.86817325800376 L 225.19042495965573 118.86817325800376 L 225.19042495965573 118.60012554927806 L 225.41689080150618 118.60012554927806 L 225.41689080150618 118.06403013182671 L 225.8698224852071 118.06403013182671 L 225.8698224852071 117.79598242310107 L 226.322754168908 117.79598242310107 L 226.322754168908 116.72379158819837 L 226.5492200107585 116.72379158819837 L 226.5492200107585 116.18769617074702 L 226.77568585260892 116.18769617074702 L 226.77568585260892 115.65160075329567 L 228.5874125874126 115.65160075329567 L 228.5874125874126 115.11550533584432 L 228.81387842926304 115.11550533584432 L 228.81387842926304 114.04331450094162 L 231.30500268961808 114.04331450094162 L 231.30500268961808 113.77526679221592 L 231.53146853146853 113.77526679221592 L 231.53146853146853 113.23917137476457 L 232.2108660570199 113.23917137476457 L 232.2108660570199 112.97112366603892 L 233.11672942442172 112.97112366603892 L 233.11672942442172 112.70307595731322 L 233.3431952662722 112.70307595731322 L 233.3431952662722 112.43502824858757 L 233.79612694997311 112.43502824858757 L 233.79612694997311 112.16698053986187 L 234.02259279182357 112.16698053986187 L 234.02259279182357 111.89893283113622 L 234.249058633674 111.89893283113622 L 234.249058633674 111.63088512241058 L 235.15492200107585 111.63088512241058 L 235.15492200107585 111.09478970495923 L 235.8343195266272 111.09478970495923 L 235.8343195266272 110.82674199623352 L 236.0607853684777 110.82674199623352 L 236.0607853684777 110.29064657878217 L 236.28725121032812 110.29064657878217 L 236.28725121032812 110.02259887005653 L 236.9666487358795 110.02259887005653 L 236.9666487358795 109.75455116133082 L 238.32544378698225 109.75455116133082 L 238.32544378698225 109.48650345260512 L 238.5519096288327 109.48650345260512 L 238.5519096288327 108.95040803515377 L 238.77837547068316 108.95040803515377 L 238.77837547068316 108.68236032642812 L 239.23130715438407 108.68236032642812 L 239.23130715438407 108.41431261770242 L 240.13717052178592 108.41431261770242 L 240.13717052178592 108.14626490897678 L 241.0430338891877 108.14626490897678 L 241.0430338891877 107.87821720025107 L 241.94889725658956 107.87821720025107 L 241.94889725658956 107.07407407407408 L 242.17536309844004 107.07407407407408 L 242.17536309844004 106.26993094789708 L 242.40182894029047 106.26993094789708 L 242.40182894029047 105.46578782172003 L 242.62829478214093 105.46578782172003 L 242.62829478214093 105.19774011299432 L 244.66648735879505 105.19774011299432 L 244.66648735879505 104.92969240426868 L 245.11941904249596 104.92969240426868 L 245.11941904249596 104.66164469554298 L 246.02528240989778 104.66164469554298 L 246.02528240989778 104.39359698681733 L 247.15761161915006 104.39359698681733 L 247.15761161915006 103.85750156936598 L 247.38407746100054 103.85750156936598 L 247.38407746100054 103.58945386064028 L 247.610543302851 103.58945386064028 L 247.610543302851 103.05335844318893 L 248.0634749865519 103.05335844318893 L 248.0634749865519 102.78531073446328 L 248.28994082840237 102.78531073446328 L 248.28994082840237 102.51726302573763 L 248.74287251210328 102.51726302573763 L 248.74287251210328 101.71311989956058 L 249.42227003765464 101.71311989956058 L 249.42227003765464 100.90897677338353 L 249.64873587950513 100.90897677338353 L 249.64873587950513 100.64092906465788 L 250.3281334050565 100.64092906465788 L 250.3281334050565 100.37288135593218 L 250.55459924690695 100.37288135593218 L 250.55459924690695 99.56873822975518 L 251.00753093060786 99.56873822975518 L 251.00753093060786 99.30069052102948 L 251.2339967724583 99.30069052102948 L 251.2339967724583 99.03264281230383 L 251.46046261430877 99.03264281230383 L 251.46046261430877 98.49654739485248 L 252.36632598171062 98.49654739485248 L 252.36632598171062 97.96045197740114 L 254.63098440021517 97.96045197740114 L 254.63098440021517 97.42435655994979 L 254.85745024206562 97.42435655994979 L 254.85745024206562 96.62021343377273 L 255.536847767617 96.62021343377273 L 255.536847767617 96.08411801632138 L 255.9897794513179 96.08411801632138 L 255.9897794513179 95.81607030759574 L 256.66917697686927 95.81607030759574 L 256.66917697686927 95.27997489014439 L 257.12210866057023 95.27997489014439 L 257.12210866057023 95.01192718141868 L 257.34857450242066 95.01192718141868 L 257.34857450242066 94.74387947269304 L 257.5750403442711 94.74387947269304 L 257.5750403442711 94.47583176396734 L 257.80150618612157 94.47583176396734 L 257.80150618612157 94.20778405524169 L 258.02797202797206 94.20778405524169 L 258.02797202797206 93.93973634651599 L 258.4809037116729 93.93973634651599 L 258.4809037116729 93.67168863779034 L 260.0661646046261 93.67168863779034 L 260.0661646046261 93.13559322033899 L 260.7455621301775 93.13559322033899 L 260.7455621301775 92.86754551161334 L 260.972027972028 92.86754551161334 L 260.972027972028 92.331450094162 L 261.87789133942977 92.331450094162 L 261.87789133942977 91.52730696798494 L 262.33082302313073 91.52730696798494 L 262.33082302313073 90.99121155053359 L 262.55728886498116 90.99121155053359 L 262.55728886498116 90.72316384180789 L 263.463152232383 90.72316384180789 L 263.463152232383 90.45511613308224 L 263.68961807423346 90.45511613308224 L 263.68961807423346 90.18706842435654 L 264.82194728348577 90.18706842435654 L 264.82194728348577 89.9190207156309 L 266.1807423345885 89.9190207156309 L 266.1807423345885 89.38292529817949 L 266.4072081764389 89.38292529817949 L 266.4072081764389 89.1148775894539 L 267.0866057019904 89.1148775894539 L 267.0866057019904 88.8468298807282 L 267.3130715438408 88.8468298807282 L 267.3130715438408 88.0426867545512 L 268.6718665949435 88.0426867545512 L 268.6718665949435 87.7746390458255 L 269.12479827864445 87.7746390458255 L 269.12479827864445 87.50659133709979 L 269.3512641204949 87.50659133709979 L 269.3512641204949 87.23854362837415 L 270.03066164604627 87.23854362837415 L 270.03066164604627 86.97049591964844 L 270.2571274878967 86.97049591964844 L 270.2571274878967 86.7024482109228 L 270.4835933297472 86.7024482109228 L 270.4835933297472 86.4344005021971 L 271.1629908552985 86.4344005021971 L 271.1629908552985 85.6302573760201 L 271.389456697149 85.6302573760201 L 271.389456697149 85.3622096672944 L 271.8423883808499 85.3622096672944 L 271.8423883808499 85.09416195856869 L 272.06885422270034 85.09416195856869 L 272.06885422270034 84.29001883239175 L 272.74825174825173 84.29001883239175 L 272.74825174825173 84.02197112366605 L 272.9747175901022 84.02197112366605 L 272.9747175901022 83.7539234149404 L 273.4276492738031 83.7539234149404 L 273.4276492738031 83.4858757062147 L 274.55997848305543 83.4858757062147 L 274.55997848305543 83.217827997489 L 275.23937600860677 83.217827997489 L 275.23937600860677 82.94978028876335 L 275.46584185045725 82.94978028876335 L 275.46584185045725 82.68173258003765 L 276.59817105970956 82.68173258003765 L 276.59817105970956 82.1456371625863 L 277.5040344271114 82.1456371625863 L 277.5040344271114 81.60954174513495 L 277.95696611081223 81.60954174513495 L 277.95696611081223 81.0734463276836 L 278.1834319526627 81.0734463276836 L 278.1834319526627 80.26930320150655 L 278.6363636363636 80.26930320150655 L 278.6363636363636 80.00125549278096 L 279.54222700376545 80.00125549278096 L 279.54222700376545 79.73320778405525 L 281.12748789671866 79.73320778405525 L 281.12748789671866 79.1971123666039 L 281.5804195804195 79.1971123666039 L 281.5804195804195 78.66101694915255 L 282.25981710597097 78.66101694915255 L 282.25981710597097 78.39296924042685 L 282.7127487896719 78.39296924042685 L 282.7127487896719 78.1249215317012 L 283.16568047337273 78.1249215317012 L 283.16568047337273 77.58882611424985 L 283.3921463152233 77.58882611424985 L 283.3921463152233 76.7846829880728 L 284.5244755244755 76.7846829880728 L 284.5244755244755 76.51663527934716 L 284.75094136632595 76.51663527934716 L 284.75094136632595 76.24858757062145 L 285.43033889187734 76.24858757062145 L 285.43033889187734 75.98053986189575 L 286.10973641742873 75.98053986189575 L 286.10973641742873 75.44444444444446 L 286.33620225927916 75.44444444444446 L 286.33620225927916 74.90834902699311 L 286.56266810112965 74.90834902699311 L 286.56266810112965 74.6403013182674 L 287.242065626681 74.6403013182674 L 287.242065626681 74.10420590081605 L 287.9214631522324 74.10420590081605 L 287.9214631522324 73.5681104833647 L 288.1479289940828 73.5681104833647 L 288.1479289940828 72.76396735718771 L 288.8273265196342 72.76396735718771 L 288.8273265196342 72.495919648462 L 289.5067240451856 72.495919648462 L 289.5067240451856 72.22787193973636 L 290.186121570737 72.22787193973636 L 290.186121570737 71.69177652228495 L 290.4125874125874 71.69177652228495 L 290.4125874125874 71.42372881355931 L 290.8655190962883 71.42372881355931 L 290.8655190962883 71.1556811048336 L 291.99784830554063 71.1556811048336 L 291.99784830554063 70.88763339610801 L 293.1301775147929 70.88763339610801 L 293.1301775147929 70.35153797865667 L 293.35664335664336 70.35153797865667 L 293.35664335664336 70.08349026993096 L 294.48897256589566 70.08349026993096 L 294.48897256589566 69.81544256120526 L 294.7154384077461 69.81544256120526 L 294.7154384077461 69.27934714375391 L 297.2065626681011 69.27934714375391 L 297.2065626681011 68.47520401757691 L 301.2829478214094 68.47520401757691 L 301.2829478214094 68.20715630885121 L 301.73587950511023 68.20715630885121 L 301.73587950511023 67.93910860012556 L 302.6417428725121 67.93910860012556 L 302.6417428725121 67.13496547394851 L 302.8682087143626 67.13496547394851 L 302.8682087143626 66.86691776522281 L 303.32114039806345 66.86691776522281 L 303.32114039806345 66.33082234777152 L 303.547606239914 66.33082234777152 L 303.547606239914 65.79472693032017 L 304.2270037654653 65.79472693032017 L 304.2270037654653 65.52667922159446 L 305.13286713286715 65.52667922159446 L 305.13286713286715 65.25863151286882 L 306.9445938676708 65.25863151286882 L 306.9445938676708 64.72253609541747 L 307.6239913932221 64.72253609541747 L 307.6239913932221 64.45448838669176 L 308.0769230769231 64.45448838669176 L 308.0769230769231 63.65034526051477 L 308.529854760624 63.65034526051477 L 308.529854760624 63.382297551789065 L 308.75632060247443 63.382297551789065 L 308.75632060247443 63.11424984306336 L 309.6621839698763 63.11424984306336 L 309.6621839698763 62.04205900816072 L 310.34158149542765 62.04205900816072 L 310.34158149542765 61.774011299435074 L 310.79451317912856 61.774011299435074 L 310.79451317912856 61.23791588198367 L 311.02097902097904 61.23791588198367 L 311.02097902097904 60.96986817325802 L 311.47391070467995 60.96986817325802 L 311.47391070467995 60.70182046453232 L 312.3797740720818 60.70182046453232 L 312.3797740720818 60.43377275580667 L 312.8327057557827 60.43377275580667 L 312.8327057557827 59.89767733835532 L 313.5121032813341 59.89767733835532 L 313.5121032813341 59.09353421217827 L 315.77676169983863 59.09353421217827 L 315.77676169983863 58.82548650345262 L 316.45615922539 58.82548650345262 L 316.45615922539 58.55743879472692 L 317.13555675094136 58.55743879472692 L 317.13555675094136 58.28939108600122 L 317.81495427649276 58.28939108600122 L 317.81495427649276 58.02134337727557 L 318.947283485745 58.02134337727557 L 318.947283485745 57.75329566854987 L 320.0796126949973 57.75329566854987 L 320.0796126949973 57.217200251098575 L 320.5325443786982 57.217200251098575 L 320.5325443786982 56.94915254237287 L 320.7590102205487 56.94915254237287 L 320.7590102205487 56.681104833647225 L 320.98547606239913 56.681104833647225 L 320.98547606239913 56.41305712492152 L 322.34427111350186 56.41305712492152 L 322.34427111350186 56.145009416195876 L 323.9295320064551 56.145009416195876 L 323.9295320064551 55.60891399874453 L 324.15599784830556 55.60891399874453 L 324.15599784830556 55.34086629001882 L 325.2883270575578 55.34086629001882 L 325.2883270575578 55.07281858129318 L 325.5147928994083 55.07281858129318 L 325.5147928994083 54.804770872567474 L 326.4206562668101 54.804770872567474 L 326.4206562668101 54.53672316384183 L 328.45884884346424 54.53672316384183 L 328.45884884346424 54.268675455116124 L 330.7235072619688 54.268675455116124 L 330.7235072619688 54.00062774639042 L 331.4029047875202 54.00062774639042 L 331.4029047875202 53.732580037664775 L 331.85583647122104 53.732580037664775 L 331.85583647122104 53.46453232893907 L 332.0823023130715 53.46453232893907 L 332.0823023130715 53.196484620213425 L 334.12049488972565 53.196484620213425 L 334.12049488972565 52.92843691148778 L 335.02635825712747 52.92843691148778 L 335.02635825712747 52.66038920276213 L 335.47928994082844 52.66038920276213 L 335.47928994082844 52.39234149403643 L 336.1586874663798 52.39234149403643 L 336.1586874663798 52.124293785310726 L 337.291016675632 52.124293785310726 L 337.291016675632 51.85624607658508 L 339.3292092522862 51.85624607658508 L 339.3292092522862 51.32015065913373 L 339.55567509413663 51.32015065913373 L 339.55567509413663 51.05210295040803 L 342.726196880043 51.05210295040803 L 342.726196880043 50.78405524168238 L 343.179128563744 50.78405524168238 L 343.179128563744 50.51600753295668 L 343.6320602474449 50.51600753295668 L 343.6320602474449 50.24795982423103 L 345.4437869822485 50.24795982423103 L 345.4437869822485 49.97991211550533 L 345.67025282409895 49.97991211550533 L 345.67025282409895 49.711864406779625 L 345.89671866594944 49.711864406779625 L 345.89671866594944 49.44381669805398 L 346.1231845077999 49.44381669805398 L 346.1231845077999 49.175768989328276 L 347.25551371705217 49.175768989328276 L 347.25551371705217 48.90772128060263 L 347.70844540075313 48.90772128060263 L 347.70844540075313 48.639673571876926 L 349.5201721355567 48.639673571876926 L 349.5201721355567 48.37162586315134 L 349.7466379774072 48.37162586315134 L 349.7466379774072 48.103578154425634 L 350.87896718665945 48.103578154425634 L 350.87896718665945 47.83553044569993 L 351.10543302850994 47.83553044569993 L 351.10543302850994 47.29943502824858 L 352.91715976331363 47.29943502824858 L 352.91715976331363 46.22724419334588 L 354.9553523399677 46.22724419334588 L 354.9553523399677 45.959196484620236 L 355.6347498655191 45.959196484620236 L 355.6347498655191 45.42310106716883 L 356.31414739107043 45.42310106716883 L 356.31414739107043 45.15505335844318 L 356.7670790747714 45.15505335844318 L 356.7670790747714 44.88700564971748 L 357.2200107584723 44.88700564971748 L 357.2200107584723 44.618957940991834 L 359.48466917697687 44.618957940991834 L 359.48466917697687 44.35091023226613 L 360.3905325443787 44.35091023226613 L 360.3905325443787 44.082862523540484 L 360.61699838622917 44.082862523540484 L 360.61699838622917 43.81481481481484 L 361.52286175363093 43.81481481481484 L 361.52286175363093 43.546767106089135 L 361.9757934373319 43.546767106089135 L 361.9757934373319 43.27871939736349 L 362.4287251210328 43.27871939736349 L 362.4287251210328 43.010671688637785 L 363.10812264658415 43.010671688637785 L 363.10812264658415 42.74262397991214 L 364.24045185583645 42.74262397991214 L 364.24045185583645 42.474576271186436 L 365.37278106508876 42.474576271186436 L 365.37278106508876 42.20652856246079 L 365.82571274878967 42.20652856246079 L 365.82571274878967 41.938480853735086 L 366.7315761161915 41.938480853735086 L 366.7315761161915 41.67043314500944 L 367.4109736417429 41.67043314500944 L 367.4109736417429 41.40238543628374 L 368.7697686928456 41.40238543628374 L 368.7697686928456 41.134337727558034 L 371.71382463690156 41.134337727558034 L 371.71382463690156 40.86629001883239 L 372.84615384615387 40.86629001883239 L 372.84615384615387 40.33019460138104 L 375.1108122646584 40.33019460138104 L 375.1108122646584 40.062146892655335 L 377.60193652501346 40.062146892655335 L 377.60193652501346 39.79409918392969 L 378.5077998924153 39.79409918392969 L 378.5077998924153 39.526051475203985 L 380.5459924690694 39.526051475203985 L 380.5459924690694 39.25800376647834 L 380.9989241527703 39.25800376647834 L 380.9989241527703 38.98995605775269 L 381.67832167832165 38.98995605775269 L 381.67832167832165 38.72190834902699 L 384.6223776223776 38.72190834902699 L 384.6223776223776 38.45386064030134 L 385.07530930607857 38.45386064030134 L 385.07530930607857 37.917765222849994 L 385.7547068316299 37.917765222849994 L 385.7547068316299 37.64971751412429 L 385.98117267348033 37.64971751412429 L 385.98117267348033 37.381669805398644 L 386.4341043571813 37.381669805398644 L 386.4341043571813 36.845574387947295 L 388.0193652501345 36.845574387947295 L 388.0193652501345 36.57752667922159 L 390.96342119419046 36.57752667922159 L 390.96342119419046 36.04143126177024 L 399.79558902635824 36.04143126177024 L 399.79558902635824 35.77338355304454 L 400.70145239376006 35.77338355304454 L 400.70145239376006 35.50533584431889 L 402.7396449704142 35.50533584431889 L 402.7396449704142 35.23728813559319 L 405.4572350726197 35.23728813559319 L 405.4572350726197 34.96924042686754 L 407.94835933297475 34.96924042686754 L 407.94835933297475 34.433145009416194 L 408.6277568585261 34.433145009416194 L 408.6277568585261 34.16509730069055 L 409.080688542227 34.16509730069055 L 409.080688542227 33.6290018832392 L 411.79827864443246 33.6290018832392 L 411.79827864443246 33.360954174513495 L 412.02474448628294 33.360954174513495 L 412.02474448628294 33.09290646578785 L 414.515868746638 33.09290646578785 L 414.515868746638 32.824858757062145 L 414.9688004303389 32.824858757062145 L 414.9688004303389 32.5568110483365 L 415.1952662721894 32.5568110483365 L 415.1952662721894 32.288763339610796 L 416.78052716514253 32.288763339610796 L 416.78052716514253 32.02071563088509 L 417.91285637439483 32.02071563088509 L 417.91285637439483 31.752667922159446 L 419.498117267348 31.752667922159446 L 419.498117267348 31.484620213433743 L 421.3098440021517 31.484620213433743 L 421.3098440021517 31.216572504708097 L 421.7627756858526 31.216572504708097 L 421.7627756858526 30.948524795982394 L 424.933297471759 30.948524795982394 L 424.933297471759 30.680477087256747 L 426.5185583647122 30.680477087256747 L 426.5185583647122 30.412429378531044 L 431.9537385691232 30.412429378531044 L 431.9537385691232 30.144381669805398 L 433.3125336202259 30.144381669805398 L 433.3125336202259 29.87633396107975 L 433.7654653039269 29.87633396107975 L 433.7654653039269 29.60828625235405 L 436.25658956428185 29.60828625235405 L 436.25658956428185 29.340238543628402 L 448.48574502420655 29.340238543628402 L 448.48574502420655 29.0721908349027 L 448.9386767079075 29.0721908349027 L 448.9386767079075 28.804143126177053 L 450.5239376008607 28.804143126177053 L 450.5239376008607 28.53609541745135 L 453.69445938676705 28.53609541745135 L 453.69445938676705 28.268047708725703 L 463.43249058633677 28.268047708725703 L 463.43249058633677 28 L 470 28" stroke-linejoin="bevel" stroke-miterlimit="10" stroke-width="2" stroke-dasharray="6"/></g><g><path fill="none" stroke="none"/><path fill="none" stroke="#536dfe" paint-order="fill stroke markers" d=" M 49 454.4027972027972 L 49 450.2223776223776 L 49.89669861554846 450.2223776223776 L 49.89669861554846 440.0699300699301 L 50.34504792332268 440.0699300699301 L 50.34504792332268 438.87552447552446 L 50.79339723109691 438.87552447552446 L 50.79339723109691 434.6951048951049 L 51.24174653887114 434.6951048951049 L 51.24174653887114 434.0979020979021 L 51.69009584664537 434.0979020979021 L 51.69009584664537 425.13986013986016 L 52.13844515441959 425.13986013986016 L 52.13844515441959 421.55664335664335 L 52.58679446219382 421.55664335664335 L 52.58679446219382 415.5846153846154 L 53.931842385516504 415.5846153846154 L 53.931842385516504 412.5986013986014 L 54.38019169329073 412.5986013986014 L 54.38019169329073 412.0013986013986 L 54.82854100106496 412.0013986013986 L 54.82854100106496 411.4041958041958 L 55.27689030883919 411.4041958041958 L 55.27689030883919 408.41818181818184 L 55.72523961661342 408.41818181818184 L 55.72523961661342 407.2237762237762 L 56.173588924387644 407.2237762237762 L 56.173588924387644 403.64055944055946 L 56.621938232161874 403.64055944055946 L 56.621938232161874 403.0433566433566 L 57.0702875399361 403.0433566433566 L 57.0702875399361 402.44615384615383 L 57.51863684771033 402.44615384615383 L 57.51863684771033 401.84895104895105 L 57.96698615548456 401.84895104895105 L 57.96698615548456 400.6545454545455 L 59.312034078807244 400.6545454545455 L 59.312034078807244 400.05734265734264 L 59.760383386581466 400.05734265734264 L 59.760383386581466 389.9048951048951 L 60.208732694355696 389.9048951048951 L 60.208732694355696 387.5160839160839 L 60.657082002129926 387.5160839160839 L 60.657082002129926 384.53006993006994 L 61.553780617678385 384.53006993006994 L 61.553780617678385 382.14125874125875 L 62.00212992545261 382.14125874125875 L 62.00212992545261 378.55804195804194 L 62.45047923322684 378.55804195804194 L 62.45047923322684 377.96083916083916 L 63.79552715654952 377.96083916083916 L 63.79552715654952 377.3636363636364 L 64.24387646432375 377.3636363636364 L 64.24387646432375 376.16923076923075 L 64.69222577209797 376.16923076923075 L 64.69222577209797 371.3916083916084 L 65.1405750798722 371.3916083916084 L 65.1405750798722 365.4195804195804 L 65.58892438764643 365.4195804195804 L 65.58892438764643 364.82237762237764 L 66.48562300319489 364.82237762237764 L 66.48562300319489 363.627972027972 L 67.38232161874335 363.627972027972 L 67.38232161874335 360.64195804195805 L 67.83067092651757 360.64195804195805 L 67.83067092651757 360.04475524475527 L 68.72736954206603 360.04475524475527 L 68.72736954206603 359.4475524475524 L 69.17571884984025 359.4475524475524 L 69.17571884984025 358.85034965034964 L 70.07241746538871 358.85034965034964 L 70.07241746538871 358.25314685314686 L 70.52076677316293 358.25314685314686 L 70.52076677316293 357.05874125874124 L 71.41746538871139 357.05874125874124 L 71.41746538871139 354.66993006993005 L 71.86581469648561 354.66993006993005 L 71.86581469648561 354.07272727272726 L 72.31416400425985 354.07272727272726 L 72.31416400425985 351.6839160839161 L 72.76251331203409 351.6839160839161 L 72.76251331203409 349.89230769230767 L 73.65921192758253 349.89230769230767 L 73.65921192758253 347.5034965034965 L 74.10756123535677 347.5034965034965 L 74.10756123535677 345.71188811188813 L 74.55591054313099 345.71188811188813 L 74.55591054313099 344.5174825174825 L 75.45260915867945 344.5174825174825 L 75.45260915867945 343.9202797202797 L 75.90095846645367 343.9202797202797 L 75.90095846645367 342.1286713286713 L 77.24600638977635 342.1286713286713 L 77.24600638977635 340.93426573426575 L 77.69435569755059 340.93426573426575 L 77.69435569755059 339.7398601398602 L 78.14270500532481 339.7398601398602 L 78.14270500532481 338.54545454545456 L 78.59105431309904 338.54545454545456 L 78.59105431309904 337.35104895104894 L 79.03940362087327 337.35104895104894 L 79.03940362087327 336.1566433566434 L 79.93610223642173 336.1566433566434 L 79.93610223642173 334.96223776223775 L 81.28115015974441 334.96223776223775 L 81.28115015974441 331.9762237762238 L 81.72949946751864 331.9762237762238 L 81.72949946751864 322.420979020979 L 82.17784877529286 322.420979020979 L 82.17784877529286 321.2265734265734 L 84.86794462193824 321.2265734265734 L 84.86794462193824 318.2405594405594 L 86.66134185303514 318.2405594405594 L 86.66134185303514 317.64335664335664 L 87.5580404685836 317.64335664335664 L 87.5580404685836 317.04615384615386 L 88.00638977635782 317.04615384615386 L 88.00638977635782 315.25454545454545 L 88.45473908413206 315.25454545454545 L 88.45473908413206 314.0601398601399 L 89.3514376996805 314.0601398601399 L 89.3514376996805 312.2685314685315 L 89.79978700745474 312.2685314685315 L 89.79978700745474 311.67132867132864 L 90.24813631522898 311.67132867132864 L 90.24813631522898 311.0741258741259 L 90.69648562300318 311.0741258741259 L 90.69648562300318 309.2825174825175 L 91.14483493077742 309.2825174825175 L 91.14483493077742 308.08811188811194 L 91.59318423855166 308.08811188811194 L 91.59318423855166 307.4909090909091 L 92.04153354632588 307.4909090909091 L 92.04153354632588 305.6993006993007 L 92.4898828541001 305.6993006993007 L 92.4898828541001 304.5048951048951 L 92.93823216187434 304.5048951048951 L 92.93823216187434 303.9076923076923 L 93.38658146964856 303.9076923076923 L 93.38658146964856 302.7132867132867 L 94.28328008519702 302.7132867132867 L 94.28328008519702 302.1160839160839 L 95.17997870074547 302.1160839160839 L 95.17997870074547 300.9216783216783 L 95.6283280085197 300.9216783216783 L 95.6283280085197 300.32447552447553 L 96.52502662406816 300.32447552447553 L 96.52502662406816 299.72727272727275 L 96.97337593184238 299.72727272727275 L 96.97337593184238 299.1300699300699 L 97.87007454739084 299.1300699300699 L 97.87007454739084 298.5328671328671 L 98.31842385516507 298.5328671328671 L 98.31842385516507 295.54685314685315 L 98.7667731629393 295.54685314685315 L 98.7667731629393 294.35244755244753 L 100.11182108626198 294.35244755244753 L 100.11182108626198 293.15804195804196 L 100.56017039403622 293.15804195804196 L 100.56017039403622 291.36643356643356 L 101.00851970181043 291.36643356643356 L 101.00851970181043 286.5888111888112 L 101.45686900958466 286.5888111888112 L 101.45686900958466 285.9916083916084 L 102.35356762513311 285.9916083916084 L 102.35356762513311 284.2 L 102.80191693290735 284.2 L 102.80191693290735 282.40839160839164 L 103.25026624068157 282.40839160839164 L 103.25026624068157 277.0335664335664 L 103.69861554845582 277.0335664335664 L 103.69861554845582 275.241958041958 L 104.14696485623003 275.241958041958 L 104.14696485623003 271.0615384615385 L 104.59531416400426 271.0615384615385 L 104.59531416400426 269.8671328671329 L 105.49201277955271 269.8671328671329 L 105.49201277955271 268.6727272727273 L 106.38871139510118 268.6727272727273 L 106.38871139510118 267.47832167832166 L 106.8370607028754 267.47832167832166 L 106.8370607028754 266.2839160839161 L 108.18210862619807 266.2839160839161 L 108.18210862619807 261.5062937062937 L 108.63045793397231 261.5062937062937 L 108.63045793397231 260.9090909090909 L 109.97550585729499 260.9090909090909 L 109.97550585729499 260.3118881118881 L 110.87220447284345 260.3118881118881 L 110.87220447284345 259.1174825174825 L 111.32055378061767 259.1174825174825 L 111.32055378061767 258.52027972027975 L 111.76890308839191 258.52027972027975 L 111.76890308839191 255.53426573426574 L 112.66560170394035 255.53426573426574 L 112.66560170394035 254.93706293706293 L 113.11395101171459 254.93706293706293 L 113.11395101171459 251.35384615384615 L 113.56230031948881 251.35384615384615 L 113.56230031948881 250.75664335664337 L 114.01064962726304 250.75664335664337 L 114.01064962726304 250.15944055944058 L 114.45899893503727 250.15944055944058 L 114.45899893503727 245.38181818181818 L 115.35569755058573 245.38181818181818 L 115.35569755058573 244.78461538461536 L 116.25239616613418 244.78461538461536 L 116.25239616613418 243.5902097902098 L 116.70074547390841 243.5902097902098 L 116.70074547390841 242.3958041958042 L 117.14909478168265 242.3958041958042 L 117.14909478168265 241.2013986013986 L 118.0457933972311 241.2013986013986 L 118.0457933972311 240.00699300699299 L 119.83919062832801 240.00699300699299 L 119.83919062832801 239.4097902097902 L 120.28753993610223 239.4097902097902 L 120.28753993610223 238.81258741258742 L 120.73588924387647 238.81258741258742 L 120.73588924387647 236.42377622377623 L 121.1842385516507 236.42377622377623 L 121.1842385516507 235.22937062937064 L 121.63258785942492 235.22937062937064 L 121.63258785942492 232.84055944055945 L 122.08093716719914 232.84055944055945 L 122.08093716719914 231.64615384615382 L 122.97763578274761 231.64615384615382 L 122.97763578274761 231.04895104895104 L 123.42598509052183 231.04895104895104 L 123.42598509052183 228.06293706293707 L 124.32268370607028 228.06293706293707 L 124.32268370607028 227.46573426573428 L 124.77103301384452 227.46573426573428 L 124.77103301384452 226.27132867132866 L 125.21938232161875 226.27132867132866 L 125.21938232161875 223.88251748251747 L 125.66773162939297 223.88251748251747 L 125.66773162939297 222.6881118881119 L 126.1160809371672 222.6881118881119 L 126.1160809371672 220.8965034965035 L 127.46112886048988 220.8965034965035 L 127.46112886048988 220.2993006993007 L 127.90947816826412 220.2993006993007 L 127.90947816826412 219.7020979020979 L 128.35782747603832 219.7020979020979 L 128.35782747603832 218.50769230769228 L 128.80617678381256 218.50769230769228 L 128.80617678381256 217.9104895104895 L 131.49627263045795 217.9104895104895 L 131.49627263045795 216.71608391608393 L 131.94462193823216 216.71608391608393 L 131.94462193823216 215.5216783216783 L 132.39297124600637 215.5216783216783 L 132.39297124600637 214.92447552447553 L 133.73801916932908 214.92447552447553 L 133.73801916932908 213.7300699300699 L 135.9797657082002 213.7300699300699 L 135.9797657082002 211.93846153846155 L 136.87646432374868 211.93846153846155 L 136.87646432374868 210.14685314685315 L 137.3248136315229 210.14685314685315 L 137.3248136315229 208.95244755244758 L 138.22151224707136 208.95244755244758 L 138.22151224707136 207.75804195804196 L 138.66986155484557 207.75804195804196 L 138.66986155484557 206.56363636363636 L 139.56656017039404 206.56363636363636 L 139.56656017039404 205.36923076923077 L 140.4632587859425 205.36923076923077 L 140.4632587859425 204.17482517482517 L 140.91160809371672 204.17482517482517 L 140.91160809371672 203.5776223776224 L 141.8083067092652 203.5776223776224 L 141.8083067092652 202.38321678321677 L 142.2566560170394 202.38321678321677 L 142.2566560170394 201.1888111888112 L 143.60170394036209 201.1888111888112 L 143.60170394036209 200.59160839160836 L 143.60170394036209 199.3972027972028 L 143.60170394036209 198.20279720279723 L 144.05005324813632 198.20279720279723 L 144.05005324813632 195.81398601398604 L 144.49840255591056 195.81398601398604 L 144.49840255591056 195.2167832167832 L 145.84345047923324 195.2167832167832 L 145.84345047923324 192.82797202797207 L 146.74014909478169 192.82797202797207 L 146.74014909478169 189.84195804195804 L 147.18849840255592 189.84195804195804 L 147.18849840255592 188.64755244755247 L 149.43024494142705 188.64755244755247 L 149.43024494142705 188.0503496503497 L 151.67199148029817 188.0503496503497 L 151.67199148029817 187.45314685314685 L 152.56869009584665 187.45314685314685 L 152.56869009584665 185.6615384615385 L 153.01703940362086 185.6615384615385 L 153.01703940362086 184.46713286713288 L 153.4653887113951 184.46713286713288 L 153.4653887113951 183.86993006993004 L 153.91373801916933 183.86993006993004 L 153.91373801916933 183.27272727272725 L 154.8104366347178 183.27272727272725 L 154.8104366347178 181.48111888111885 L 155.258785942492 181.48111888111885 L 155.258785942492 179.09230769230766 L 155.70713525026622 179.09230769230766 L 155.70713525026622 177.8979020979021 L 157.50053248136314 177.8979020979021 L 157.50053248136314 177.3006993006993 L 158.39723109691164 177.3006993006993 L 158.39723109691164 176.70349650349647 L 160.19062832800853 176.70349650349647 L 160.19062832800853 174.31468531468533 L 160.63897763578274 174.31468531468533 L 160.63897763578274 173.1202797202797 L 162.43237486687966 173.1202797202797 L 162.43237486687966 171.3286713286713 L 162.8807241746539 171.3286713286713 L 162.8807241746539 170.13426573426574 L 163.3290734824281 170.13426573426574 L 163.3290734824281 168.93986013986012 L 163.77742279020237 168.93986013986012 L 163.77742279020237 168.34265734265733 L 165.57082002129926 168.34265734265733 L 165.57082002129926 166.55104895104898 L 166.46751863684773 166.55104895104898 L 166.46751863684773 165.95384615384614 L 166.91586794462194 165.95384615384614 L 166.91586794462194 165.35664335664336 L 169.6059637912673 165.35664335664336 L 169.6059637912673 164.75944055944058 L 170.05431309904154 164.75944055944058 L 170.05431309904154 163.56503496503495 L 172.29605963791266 163.56503496503495 L 172.29605963791266 162.96783216783217 L 174.98615548455805 162.96783216783217 L 174.98615548455805 162.3706293706294 L 175.4345047923323 162.3706293706294 L 175.4345047923323 161.17622377622382 L 177.22790202342918 161.17622377622382 L 177.22790202342918 160.57902097902098 L 177.67625133120342 160.57902097902098 L 177.67625133120342 159.38461538461542 L 178.12460063897763 159.38461538461542 L 178.12460063897763 158.1902097902098 L 178.57294994675186 158.1902097902098 L 178.57294994675186 157.593006993007 L 179.4696485623003 157.593006993007 L 179.4696485623003 156.99580419580423 L 179.91799787007454 156.99580419580423 L 179.91799787007454 156.3986013986014 L 181.26304579339723 156.3986013986014 L 181.26304579339723 155.8013986013986 L 182.6080937167199 155.8013986013986 L 182.6080937167199 154.60699300699298 L 183.05644302449414 154.60699300699298 L 183.05644302449414 154.0097902097902 L 183.50479233226835 154.0097902097902 L 183.50479233226835 153.4125874125874 L 183.9531416400426 153.4125874125874 L 183.9531416400426 152.2181818181818 L 184.84984025559103 152.2181818181818 L 184.84984025559103 149.23216783216782 L 186.19488817891374 149.23216783216782 L 186.19488817891374 148.63496503496503 L 187.53993610223642 148.63496503496503 L 187.53993610223642 146.24615384615385 L 188.43663471778487 146.24615384615385 L 188.43663471778487 143.26013986013987 L 192.0234291799787 143.26013986013987 L 192.0234291799787 142.6629370629371 L 193.3684771033014 142.6629370629371 L 193.3684771033014 142.06573426573425 L 193.8168264110756 142.06573426573425 L 193.8168264110756 141.46853146853147 L 194.71352502662407 141.46853146853147 L 194.71352502662407 139.67692307692306 L 196.05857294994675 139.67692307692306 L 196.05857294994675 138.4825174825175 L 196.506922257721 138.4825174825175 L 196.506922257721 137.8853146853147 L 197.85197018104367 137.8853146853147 L 197.85197018104367 137.28811188811187 L 199.19701810436635 137.28811188811187 L 199.19701810436635 136.6909090909091 L 199.64536741214056 136.6909090909091 L 199.64536741214056 135.49650349650352 L 201.8871139510117 135.49650349650352 L 201.8871139510117 133.70489510489512 L 203.2321618743344 133.70489510489512 L 203.2321618743344 130.71888111888114 L 203.68051118210863 130.71888111888114 L 203.68051118210863 129.52447552447552 L 204.12886048988284 129.52447552447552 L 204.12886048988284 128.33006993006995 L 204.57720979765708 128.33006993006995 L 204.57720979765708 127.13566433566433 L 205.0255591054313 127.13566433566433 L 205.0255591054313 126.53846153846155 L 205.47390841320552 126.53846153846155 L 205.47390841320552 124.1496503496503 L 207.71565495207668 124.1496503496503 L 207.71565495207668 123.55244755244752 L 208.1640042598509 123.55244755244752 L 208.1640042598509 122.95524475524473 L 209.06070287539936 122.95524475524473 L 209.06070287539936 122.35804195804195 L 209.9574014909478 122.35804195804195 L 209.9574014909478 121.16363636363633 L 210.40575079872204 121.16363636363633 L 210.40575079872204 119.96923076923076 L 210.85410010649628 119.96923076923076 L 210.85410010649628 119.37202797202798 L 212.6474973375932 119.37202797202798 L 212.6474973375932 118.77482517482514 L 213.09584664536743 118.77482517482514 L 213.09584664536743 118.17762237762236 L 214.88924387646432 118.17762237762236 L 214.88924387646432 117.58041958041957 L 215.33759318423856 117.58041958041957 L 215.33759318423856 116.98321678321679 L 216.234291799787 116.98321678321679 L 216.234291799787 116.386013986014 L 216.68264110756124 116.386013986014 L 216.68264110756124 115.78881118881117 L 219.82108626198084 115.78881118881117 L 219.82108626198084 114.5944055944056 L 220.71778487752928 114.5944055944056 L 220.71778487752928 113.99720279720282 L 221.61448349307773 113.99720279720282 L 221.61448349307773 112.20559440559441 L 222.06283280085196 112.20559440559441 L 222.06283280085196 111.60839160839163 L 225.20127795527156 111.60839160839163 L 225.20127795527156 111.01118881118879 L 226.99467518636845 111.01118881118879 L 226.99467518636845 108.62237762237766 L 228.7880724174654 108.62237762237766 L 228.7880724174654 107.42797202797203 L 229.68477103301385 107.42797202797203 L 229.68477103301385 106.23356643356647 L 230.5814696485623 106.23356643356647 L 230.5814696485623 104.44195804195806 L 231.02981895633653 104.44195804195806 L 231.02981895633653 102.05314685314687 L 231.47816826411076 102.05314685314687 L 231.47816826411076 100.85874125874125 L 233.7199148029819 100.85874125874125 L 233.7199148029819 99.66433566433568 L 234.61661341853036 99.66433566433568 L 234.61661341853036 98.46993006993006 L 235.06496272630457 98.46993006993006 L 235.06496272630457 97.87272727272727 L 235.5133120340788 97.87272727272727 L 235.5133120340788 97.27552447552443 L 236.8583599574015 97.27552447552443 L 236.8583599574015 96.67832167832165 L 237.75505857294993 96.67832167832165 L 237.75505857294993 96.08111888111887 L 238.6517571884984 96.08111888111887 L 238.6517571884984 95.48391608391609 L 239.9968051118211 95.48391608391609 L 239.9968051118211 94.88671328671325 L 241.790202342918 94.88671328671325 L 241.790202342918 91.90069930069927 L 243.13525026624066 91.90069930069927 L 243.13525026624066 91.30349650349649 L 243.58359957401493 91.30349650349649 L 243.58359957401493 90.7062937062937 L 246.7220447284345 90.7062937062937 L 246.7220447284345 89.51188811188808 L 247.61874334398294 89.51188811188808 L 247.61874334398294 88.9146853146853 L 250.75718849840257 88.9146853146853 L 250.75718849840257 88.31748251748252 L 252.10223642172522 88.31748251748252 L 252.10223642172522 85.92867132867133 L 257.482428115016 85.92867132867133 L 257.482428115016 85.33146853146854 L 259.27582534611287 85.33146853146854 L 259.27582534611287 84.73426573426576 L 259.72417465388713 84.73426573426576 L 259.72417465388713 83.53986013986014 L 260.17252396166134 83.53986013986014 L 260.17252396166134 82.94265734265736 L 261.06922257720976 82.94265734265736 L 261.06922257720976 80.55384615384617 L 262.8626198083067 80.55384615384617 L 262.8626198083067 79.35944055944054 L 264.2076677316294 79.35944055944054 L 264.2076677316294 78.76223776223776 L 265.1043663471778 78.76223776223776 L 265.1043663471778 78.16503496503498 L 266.44941427050054 78.16503496503498 L 266.44941427050054 77.5678321678322 L 266.89776357827475 77.5678321678322 L 266.89776357827475 76.37342657342657 L 267.346112886049 76.37342657342657 L 267.346112886049 75.77622377622379 L 268.24281150159743 75.77622377622379 L 268.24281150159743 74.58181818181822 L 268.6911608093717 74.58181818181822 L 268.6911608093717 73.98461538461538 L 270.4845580404686 73.98461538461538 L 270.4845580404686 73.3874125874126 L 270.9329073482428 73.3874125874126 L 270.9329073482428 72.79020979020981 L 274.96805111821084 72.79020979020981 L 274.96805111821084 72.19300699300703 L 275.4164004259851 72.19300699300703 L 275.4164004259851 70.99860139860141 L 277.6581469648562 70.99860139860141 L 277.6581469648562 69.80419580419579 L 279.89989350372736 69.80419580419579 L 279.89989350372736 68.60979020979016 L 280.3482428115016 68.60979020979016 L 280.3482428115016 67.4153846153846 L 283.0383386581469 67.4153846153846 L 283.0383386581469 66.81818181818181 L 283.4866879659212 66.81818181818181 L 283.4866879659212 66.22097902097903 L 287.073482428115 66.22097902097903 L 287.073482428115 65.62377622377619 L 289.3152289669862 65.62377622377619 L 289.3152289669862 65.0265734265734 L 291.5569755058573 65.0265734265734 L 291.5569755058573 64.42937062937062 L 295.1437699680512 64.42937062937062 L 295.1437699680512 63.234965034965 L 298.73056443024495 63.234965034965 L 298.73056443024495 62.63776223776222 L 299.1789137380191 62.63776223776222 L 299.1789137380191 62.040559440559434 L 299.62726304579337 62.040559440559434 L 299.62726304579337 60.84615384615381 L 300.9723109691161 60.84615384615381 L 300.9723109691161 59.651748251748245 L 304.1107561235357 59.651748251748245 L 304.1107561235357 59.05454545454546 L 305.00745473908415 59.05454545454546 L 305.00745473908415 58.45734265734268 L 305.9041533546326 58.45734265734268 L 305.9041533546326 57.86013986013984 L 306.80085197018104 57.86013986013984 L 306.80085197018104 57.262937062937056 L 308.1458998935037 57.262937062937056 L 308.1458998935037 56.66573426573427 L 315.3194888178914 56.66573426573427 L 315.3194888178914 56.06853146853149 L 316.2161874334398 56.06853146853149 L 316.2161874334398 55.47132867132865 L 318.0095846645367 55.47132867132865 L 318.0095846645367 54.874125874125866 L 320.25133120340786 54.874125874125866 L 320.25133120340786 54.27692307692308 L 322.493077742279 54.27692307692308 L 322.493077742279 53.08251748251752 L 323.3897763578275 53.08251748251752 L 323.3897763578275 51.29090909090911 L 328.321618743344 51.29090909090911 L 328.321618743344 50.69370629370633 L 330.5633652822151 50.69370629370633 L 330.5633652822151 50.09650349650349 L 331.9084132055378 50.09650349650349 L 331.9084132055378 48.90209790209792 L 335.0468583599574 48.90209790209792 L 335.0468583599574 48.30489510489514 L 336.8402555910543 48.30489510489514 L 336.8402555910543 47.7076923076923 L 339.08200212992546 47.7076923076923 L 339.08200212992546 47.110489510489515 L 344.91054313099045 47.110489510489515 L 344.91054313099045 46.51328671328673 L 345.80724174653886 46.51328671328673 L 345.80724174653886 45.91608391608395 L 348.04898828541 45.91608391608395 L 348.04898828541 44.12447552447554 L 348.4973375931842 44.12447552447554 L 348.4973375931842 43.52727272727276 L 350.2907348242811 43.52727272727276 L 350.2907348242811 42.93006993006992 L 353.42917997870074 42.93006993006992 L 353.42917997870074 41.73566433566435 L 357.4643237486688 41.73566433566435 L 357.4643237486688 41.13846153846151 L 365.98296059637914 41.13846153846151 L 365.98296059637914 40.54125874125873 L 366.43130990415335 40.54125874125873 L 366.43130990415335 39.94405594405595 L 369.1214057507987 39.94405594405595 L 369.1214057507987 39.34685314685311 L 369.569755058573 39.34685314685311 L 369.569755058573 38.749650349650324 L 372.25985090521834 38.749650349650324 L 372.25985090521834 38.15244755244754 L 373.15654952076676 38.15244755244754 L 373.15654952076676 37.55524475524476 L 375.3982960596379 37.55524475524476 L 375.3982960596379 36.95804195804192 L 376.7433439829606 36.95804195804192 L 376.7433439829606 36.360839160839134 L 381.6751863684771 36.360839160839134 L 381.6751863684771 35.76363636363635 L 383.468583599574 35.76363636363635 L 383.468583599574 35.16643356643357 L 389.29712460063894 35.16643356643357 L 389.29712460063894 34.56923076923073 L 398.71246006389777 34.56923076923073 L 398.71246006389777 33.972027972027945 L 402.2992545260916 33.972027972027945 L 402.2992545260916 33.37482517482516 L 406.33439829605965 33.37482517482516 L 406.33439829605965 32.77762237762238 L 408.12779552715654 32.77762237762238 L 408.12779552715654 32.180419580419596 L 408.5761448349308 32.180419580419596 L 408.5761448349308 31.583216783216756 L 410.8178913738019 31.583216783216756 L 410.8178913738019 30.986013986013972 L 412.1629392971246 30.986013986013972 L 412.1629392971246 30.38881118881119 L 413.5079872204473 30.38881118881119 L 413.5079872204473 29.791608391608406 L 417.54313099041536 29.791608391608406 L 417.54313099041536 29.194405594405566 L 422.4749733759319 29.194405594405566 L 422.4749733759319 28 L 470 28" stroke-linejoin="bevel" stroke-miterlimit="10" stroke-width="2" stroke-opacity="0.7"/></g><g><path fill="none" stroke="none"/><path fill="none" stroke="#616161" paint-order="fill stroke markers" d=" M 49 455 L 91.1 412.3 L 133.2 369.6 L 175.3 326.9 L 217.4 284.2 L 259.5 241.5 L 301.6 198.79999999999995 L 343.70000000000005 156.09999999999997 L 385.8 113.39999999999998 L 427.90000000000003 70.69999999999999 L 470 28" stroke-linejoin="bevel" stroke-miterlimit="10" stroke-dasharray="6"/></g></g></g><g clip-path="url(#HhDryuCTvBXV)"><g><g/><g><path fill="#ffffff" stroke="#e5e5e5" paint-order="fill stroke markers" d=" M 368.4375 382 L 460 382 L 460 445 L 368.4375 445 L 368.4375 382 Z" fill-opacity="0.95" stroke-linejoin="bevel" stroke-miterlimit="10" stroke-opacity="0.5"/><text fill="#444444" stroke="none" font-family="helvetica" font-size="10pt" font-style="normal" font-weight="normal" text-decoration="normal" x="403.4375" y="402" text-anchor="start" dominant-baseline="central">&lt; 40 yrs</text><g><path fill="none" stroke="#00BFA5" paint-order="fill stroke markers" d=" M 378.4375 402 L 398.4375 402" stroke-linejoin="bevel" stroke-miterlimit="10" stroke-width="2" stroke-dasharray="6"/></g><text fill="#444444" stroke="none" font-family="helvetica" font-size="10pt" font-style="normal" font-weight="normal" text-decoration="normal" x="403.4375" y="425" text-anchor="start" dominant-baseline="central">+ 40 yrs</text><g><path fill="none" stroke="#536dfe" paint-order="fill stroke markers" d=" M 378.4375 425 L 398.4375 425" stroke-linejoin="bevel" stroke-miterlimit="10" stroke-width="2" stroke-opacity="0.7"/></g></g></g></g><g><g fill="#444444"><path fill="none" stroke="black" paint-order="fill stroke markers" d=" M 49 455 L 470 455" stroke-linejoin="bevel" stroke-miterlimit="10"/><path fill="none" stroke="black" paint-order="fill stroke markers" d=" M 49 461 L 49 453" stroke-linejoin="bevel" stroke-miterlimit="10"/><path fill="none" stroke="black" paint-order="fill stroke markers" d=" M 133 461 L 133 453" stroke-linejoin="bevel" stroke-miterlimit="10"/><path fill="none" stroke="black" paint-order="fill stroke markers" d=" M 217 461 L 217 453" stroke-linejoin="bevel" stroke-miterlimit="10"/><path fill="none" stroke="black" paint-order="fill stroke markers" d=" M 302 461 L 302 453" stroke-linejoin="bevel" stroke-miterlimit="10"/><path fill="none" stroke="black" paint-order="fill stroke markers" d=" M 386 461 L 386 453" stroke-linejoin="bevel" stroke-miterlimit="10"/><path fill="none" stroke="black" paint-order="fill stroke markers" d=" M 470 461 L 470 453" stroke-linejoin="bevel" stroke-miterlimit="10"/><path fill="none" stroke="black" paint-order="fill stroke markers" d=" M 49 459 L 49 455" stroke-linejoin="bevel" stroke-miterlimit="10"/><path fill="none" stroke="black" paint-order="fill stroke markers" d=" M 66 459 L 66 455" stroke-linejoin="bevel" stroke-miterlimit="10"/><path fill="none" stroke="black" paint-order="fill stroke markers" d=" M 83 459 L 83 455" stroke-linejoin="bevel" stroke-miterlimit="10"/><path fill="none" stroke="black" paint-order="fill stroke markers" d=" M 100 459 L 100 455" stroke-linejoin="bevel" stroke-miterlimit="10"/><path fill="none" stroke="black" paint-order="fill stroke markers" d=" M 116 459 L 116 455" stroke-linejoin="bevel" stroke-miterlimit="10"/><path fill="none" stroke="black" paint-order="fill stroke markers" d=" M 133 459 L 133 455" stroke-linejoin="bevel" stroke-miterlimit="10"/><path fill="none" stroke="black" paint-order="fill stroke markers" d=" M 150 459 L 150 455" stroke-linejoin="bevel" stroke-miterlimit="10"/><path fill="none" stroke="black" paint-order="fill stroke markers" d=" M 167 459 L 167 455" stroke-linejoin="bevel" stroke-miterlimit="10"/><path fill="none" stroke="black" paint-order="fill stroke markers" d=" M 184 459 L 184 455" stroke-linejoin="bevel" stroke-miterlimit="10"/><path fill="none" stroke="black" paint-order="fill stroke markers" d=" M 201 459 L 201 455" stroke-linejoin="bevel" stroke-miterlimit="10"/><path fill="none" stroke="black" paint-order="fill stroke markers" d=" M 217 459 L 217 455" stroke-linejoin="bevel" stroke-miterlimit="10"/><path fill="none" stroke="black" paint-order="fill stroke markers" d=" M 234 459 L 234 455" stroke-linejoin="bevel" stroke-miterlimit="10"/><path fill="none" stroke="black" paint-order="fill stroke markers" d=" M 251 459 L 251 455" stroke-linejoin="bevel" stroke-miterlimit="10"/><path fill="none" stroke="black" paint-order="fill stroke markers" d=" M 268 459 L 268 455" stroke-linejoin="bevel" stroke-miterlimit="10"/><path fill="none" stroke="black" paint-order="fill stroke markers" d=" M 285 459 L 285 455" stroke-linejoin="bevel" stroke-miterlimit="10"/><path fill="none" stroke="black" paint-order="fill stroke markers" d=" M 302 459 L 302 455" stroke-linejoin="bevel" stroke-miterlimit="10"/><path fill="none" stroke="black" paint-order="fill stroke markers" d=" M 318 459 L 318 455" stroke-linejoin="bevel" stroke-miterlimit="10"/><path fill="none" stroke="black" paint-order="fill stroke markers" d=" M 335 459 L 335 455" stroke-linejoin="bevel" stroke-miterlimit="10"/><path fill="none" stroke="black" paint-order="fill stroke markers" d=" M 352 459 L 352 455" stroke-linejoin="bevel" stroke-miterlimit="10"/><path fill="none" stroke="black" paint-order="fill stroke markers" d=" M 369 459 L 369 455" stroke-linejoin="bevel" stroke-miterlimit="10"/><path fill="none" stroke="black" paint-order="fill stroke markers" d=" M 386 459 L 386 455" stroke-linejoin="bevel" stroke-miterlimit="10"/><path fill="none" stroke="black" paint-order="fill stroke markers" d=" M 403 459 L 403 455" stroke-linejoin="bevel" stroke-miterlimit="10"/><path fill="none" stroke="black" paint-order="fill stroke markers" d=" M 419 459 L 419 455" stroke-linejoin="bevel" stroke-miterlimit="10"/><path fill="none" stroke="black" paint-order="fill stroke markers" d=" M 436 459 L 436 455" stroke-linejoin="bevel" stroke-miterlimit="10"/><path fill="none" stroke="black" paint-order="fill stroke markers" d=" M 453 459 L 453 455" stroke-linejoin="bevel" stroke-miterlimit="10"/><path fill="" stroke="black" paint-order="fill stroke markers" d=" M 470 459 L 470 455" stroke-linejoin="bevel" stroke-miterlimit="10"/><g transform="translate(49,466) rotate(0,0,0)"><text fill="" stroke="none" font-family="helvetica" font-size="8pt" font-style="normal" font-weight="normal" text-decoration="normal" x="0" y="0" text-anchor="middle" dominant-baseline="hanging">0</text><g transform="rotate(0,0,0) translate(-49,-466) translate(133,466) rotate(0,0,0)"><text fill="" stroke="none" font-family="helvetica" font-size="8pt" font-style="normal" font-weight="normal" text-decoration="normal" x="0" y="0" text-anchor="middle" dominant-baseline="hanging">0.2</text><g transform="rotate(0,0,0) translate(-133,-466) translate(217,466) rotate(0,0,0)"><text fill="" stroke="none" font-family="helvetica" font-size="8pt" font-style="normal" font-weight="normal" text-decoration="normal" x="0" y="0" text-anchor="middle" dominant-baseline="hanging">0.4</text><g transform="rotate(0,0,0) translate(-217,-466) translate(302,466) rotate(0,0,0)"><text fill="" stroke="none" font-family="helvetica" font-size="8pt" font-style="normal" font-weight="normal" text-decoration="normal" x="0" y="0" text-anchor="middle" dominant-baseline="hanging">0.6</text><g transform="rotate(0,0,0) translate(-302,-466) translate(386,466) rotate(0,0,0)"><text fill="" stroke="none" font-family="helvetica" font-size="8pt" font-style="normal" font-weight="normal" text-decoration="normal" x="0" y="0" text-anchor="middle" dominant-baseline="hanging">0.8</text><g transform="rotate(0,0,0) translate(-386,-466) translate(470,466) rotate(0,0,0)"><text fill="" stroke="none" font-family="helvetica" font-size="8pt" font-style="normal" font-weight="normal" text-decoration="normal" x="0" y="0" text-anchor="middle" dominant-baseline="hanging">1</text><g transform="rotate(0,0,0) translate(-470,-466) translate(260,484) rotate(0,0,0)"><text fill="" stroke="none" font-family="Helvetica Neue" font-size="10pt" font-style="italic" font-weight="normal" text-decoration="normal" x="0" y="0" text-anchor="middle" dominant-baseline="hanging">False Positive Rate (FPR)</text><g transform="rotate(0,0,0) translate(-260,-484)"/></g></g></g></g></g></g></g></g><g fill="#444444"><path fill="none" stroke="black" paint-order="fill stroke markers" d=" M 49 455 L 49 28" stroke-linejoin="bevel" stroke-miterlimit="10"/><path fill="none" stroke="black" paint-order="fill stroke markers" d=" M 43 455 L 51 455" stroke-linejoin="bevel" stroke-miterlimit="10"/><path fill="none" stroke="black" paint-order="fill stroke markers" d=" M 43 370 L 51 370" stroke-linejoin="bevel" stroke-miterlimit="10"/><path fill="none" stroke="black" paint-order="fill stroke markers" d=" M 43 284 L 51 284" stroke-linejoin="bevel" stroke-miterlimit="10"/><path fill="none" stroke="black" paint-order="fill stroke markers" d=" M 43 199 L 51 199" stroke-linejoin="bevel" stroke-miterlimit="10"/><path fill="none" stroke="black" paint-order="fill stroke markers" d=" M 43 113 L 51 113" stroke-linejoin="bevel" stroke-miterlimit="10"/><path fill="none" stroke="black" paint-order="fill stroke markers" d=" M 43 28 L 51 28" stroke-linejoin="bevel" stroke-miterlimit="10"/><path fill="none" stroke="black" paint-order="fill stroke markers" d=" M 45 455 L 49 455" stroke-linejoin="bevel" stroke-miterlimit="10"/><path fill="none" stroke="black" paint-order="fill stroke markers" d=" M 45 438 L 49 438" stroke-linejoin="bevel" stroke-miterlimit="10"/><path fill="none" stroke="black" paint-order="fill stroke markers" d=" M 45 421 L 49 421" stroke-linejoin="bevel" stroke-miterlimit="10"/><path fill="none" stroke="black" paint-order="fill stroke markers" d=" M 45 404 L 49 404" stroke-linejoin="bevel" stroke-miterlimit="10"/><path fill="none" stroke="black" paint-order="fill stroke markers" d=" M 45 387 L 49 387" stroke-linejoin="bevel" stroke-miterlimit="10"/><path fill="none" stroke="black" paint-order="fill stroke markers" d=" M 45 370 L 49 370" stroke-linejoin="bevel" stroke-miterlimit="10"/><path fill="none" stroke="black" paint-order="fill stroke markers" d=" M 45 353 L 49 353" stroke-linejoin="bevel" stroke-miterlimit="10"/><path fill="none" stroke="black" paint-order="fill stroke markers" d=" M 45 335 L 49 335" stroke-linejoin="bevel" stroke-miterlimit="10"/><path fill="none" stroke="black" paint-order="fill stroke markers" d=" M 45 318 L 49 318" stroke-linejoin="bevel" stroke-miterlimit="10"/><path fill="none" stroke="black" paint-order="fill stroke markers" d=" M 45 301 L 49 301" stroke-linejoin="bevel" stroke-miterlimit="10"/><path fill="none" stroke="black" paint-order="fill stroke markers" d=" M 45 284 L 49 284" stroke-linejoin="bevel" stroke-miterlimit="10"/><path fill="none" stroke="black" paint-order="fill stroke markers" d=" M 45 267 L 49 267" stroke-linejoin="bevel" stroke-miterlimit="10"/><path fill="none" stroke="black" paint-order="fill stroke markers" d=" M 45 250 L 49 250" stroke-linejoin="bevel" stroke-miterlimit="10"/><path fill="none" stroke="black" paint-order="fill stroke markers" d=" M 45 233 L 49 233" stroke-linejoin="bevel" stroke-miterlimit="10"/><path fill="none" stroke="black" paint-order="fill stroke markers" d=" M 45 216 L 49 216" stroke-linejoin="bevel" stroke-miterlimit="10"/><path fill="none" stroke="black" paint-order="fill stroke markers" d=" M 45 199 L 49 199" stroke-linejoin="bevel" stroke-miterlimit="10"/><path fill="none" stroke="black" paint-order="fill stroke markers" d=" M 45 182 L 49 182" stroke-linejoin="bevel" stroke-miterlimit="10"/><path fill="none" stroke="black" paint-order="fill stroke markers" d=" M 45 165 L 49 165" stroke-linejoin="bevel" stroke-miterlimit="10"/><path fill="none" stroke="black" paint-order="fill stroke markers" d=" M 45 148 L 49 148" stroke-linejoin="bevel" stroke-miterlimit="10"/><path fill="none" stroke="black" paint-order="fill stroke markers" d=" M 45 130 L 49 130" stroke-linejoin="bevel" stroke-miterlimit="10"/><path fill="none" stroke="black" paint-order="fill stroke markers" d=" M 45 113 L 49 113" stroke-linejoin="bevel" stroke-miterlimit="10"/><path fill="none" stroke="black" paint-order="fill stroke markers" d=" M 45 96 L 49 96" stroke-linejoin="bevel" stroke-miterlimit="10"/><path fill="none" stroke="black" paint-order="fill stroke markers" d=" M 45 79 L 49 79" stroke-linejoin="bevel" stroke-miterlimit="10"/><path fill="none" stroke="black" paint-order="fill stroke markers" d=" M 45 62 L 49 62" stroke-linejoin="bevel" stroke-miterlimit="10"/><path fill="none" stroke="black" paint-order="fill stroke markers" d=" M 45 45 L 49 45" stroke-linejoin="bevel" stroke-miterlimit="10"/><path fill="" stroke="black" paint-order="fill stroke markers" d=" M 45 28 L 49 28" stroke-linejoin="bevel" stroke-miterlimit="10"/><g transform="translate(38,455) rotate(0,0,0)"><text fill="" stroke="none" font-family="helvetica" font-size="8pt" font-style="normal" font-weight="normal" text-decoration="normal" x="0" y="0" text-anchor="end" dominant-baseline="central">0</text><g transform="rotate(0,0,0) translate(-38,-455) translate(38,370) rotate(0,0,0)"><text fill="" stroke="none" font-family="helvetica" font-size="8pt" font-style="normal" font-weight="normal" text-decoration="normal" x="0" y="0" text-anchor="end" dominant-baseline="central">0.2</text><g transform="rotate(0,0,0) translate(-38,-370) translate(38,284) rotate(0,0,0)"><text fill="" stroke="none" font-family="helvetica" font-size="8pt" font-style="normal" font-weight="normal" text-decoration="normal" x="0" y="0" text-anchor="end" dominant-baseline="central">0.4</text><g transform="rotate(0,0,0) translate(-38,-284) translate(38,199) rotate(0,0,0)"><text fill="" stroke="none" font-family="helvetica" font-size="8pt" font-style="normal" font-weight="normal" text-decoration="normal" x="0" y="0" text-anchor="end" dominant-baseline="central">0.6</text><g transform="rotate(0,0,0) translate(-38,-199) translate(38,113) rotate(0,0,0)"><text fill="" stroke="none" font-family="helvetica" font-size="8pt" font-style="normal" font-weight="normal" text-decoration="normal" x="0" y="0" text-anchor="end" dominant-baseline="central">0.8</text><g transform="rotate(0,0,0) translate(-38,-113) translate(38,28) rotate(0,0,0)"><text fill="" stroke="none" font-family="helvetica" font-size="8pt" font-style="normal" font-weight="normal" text-decoration="normal" x="0" y="0" text-anchor="end" dominant-baseline="central">1</text><g transform="rotate(0,0,0) translate(-38,-28) translate(16,242) rotate(-90,0,0)"><text fill="" stroke="none" font-family="Helvetica Neue" font-size="10pt" font-style="italic" font-weight="normal" text-decoration="normal" x="0" y="0" text-anchor="middle" dominant-baseline="alphabetic">True Positive Rate (TPR)</text><g transform="rotate(90,0,0) translate(-16,-242)"/></g></g></g></g></g></g></g></g><g fill="#444444"><path fill="" stroke="none" d=""/><g transform="translate(49,23)"><path fill="none" stroke="none"/><text fill="" stroke="none" font-family="Helvetica Neue" font-size="10pt" font-style="normal" font-weight="bold" text-decoration="normal" x="0" y="0" text-anchor="start" dominant-baseline="text-after-edge">ROC curve by age group (AUC [+40 yrs]=0.769 | AUC [&lt;40 yrs]=0.761)</text></g></g></g></g></svg>