<svg version="1.1" xmlns="http://www.w3.org/2000/svg" xmlns:xlink="http://www.w3.org/1999/xlink" width="500" height="500" style="width: 500px; height: 500px;"><defs><clipPath id="gOeBTZRKKxFT"><path fill="none" stroke="none" d=" M 49 28 L 470 28 L 470 455 L 49 455 L 49 28 Z"/></clipPath><clipPath id="ZhXLksTqBnlS"><path fill="none" stroke="none" d=" M 49 28 L 470 28 L 470 455 L 49 455 L 49 28 Z"/></clipPath><clipPath id="rclwQcGHVbiV"><path fill="none" stroke="none" d=" M 49 28 L 470 28 L 470 455 L 49 455 L 49 28 Z"/></clipPath></defs><g transform="scale(1,1) translate(0.5,0.5)"><rect fill="#ffffff" stroke="none" x="0" y="0" width="500" height="500"/><rect fill="#FFFFFF" stroke="none" x="49" y="28" width="421" height="427"/><rect fill="#ffffff" stroke="none" x="49" y="28" width="421" height="427"/><g><rect fill="none" stroke="#e5e5e5" x="49" y="28" width="421" height="427" stroke-linejoin="bevel" stroke-miterlimit="10"/></g><g clip-path="url(#gOeBTZRKKxFT)"><g><g/><g/><g><path fill="none" stroke="none"/><path fill="none" stroke="#536dfe" paint-order="fill stroke markers" d=" M 49 455 L 49 454.54526091586797 L 49 422.7135250266241 L 49.58881118881119 422.7135250266241 L 49.58881118881119 417.2566560170394 L 50.17762237762238 417.2566560170394 L 50.17762237762238 404.52396166134184 L 50.76643356643357 404.52396166134184 L 50.76643356643357 402.2502662406816 L 51.355244755244755 402.2502662406816 L 51.355244755244755 391.33652822151225 L 51.94405594405595 391.33652822151225 L 51.94405594405595 388.6080937167199 L 52.53286713286713 388.6080937167199 L 52.53286713286713 384.06070287539933 L 53.121678321678324 384.06070287539933 L 53.121678321678324 383.6059637912673 L 53.71048951048951 383.6059637912673 L 53.71048951048951 370.4185303514377 L 54.88811188811189 370.4185303514377 L 54.88811188811189 368.1448349307774 L 55.47692307692308 368.1448349307774 L 55.47692307692308 367.23535676251333 L 56.065734265734264 367.23535676251333 L 56.065734265734264 365.87113951011713 L 56.654545454545456 365.87113951011713 L 56.654545454545456 361.3237486687966 L 57.24335664335665 361.3237486687966 L 57.24335664335665 360.4142705005325 L 57.83216783216783 360.4142705005325 L 57.83216783216783 359.9595314164004 L 58.42097902097902 359.9595314164004 L 58.42097902097902 355.8668796592119 L 59.00979020979021 355.8668796592119 L 59.00979020979021 352.22896698615546 L 60.18741258741259 352.22896698615546 L 60.18741258741259 349.9552715654952 L 60.77622377622377 349.9552715654952 L 60.77622377622377 349.50053248136317 L 61.365034965034965 349.50053248136317 L 61.365034965034965 344.0436634717785 L 61.95384615384616 344.0436634717785 L 61.95384615384616 339.49627263045795 L 62.54265734265734 339.49627263045795 L 62.54265734265734 339.0415335463259 L 63.13146853146853 339.0415335463259 L 63.13146853146853 332.6751863684771 L 63.72027972027972 332.6751863684771 L 63.72027972027972 327.2183173588924 L 64.30909090909091 327.2183173588924 L 64.30909090909091 323.580404685836 L 64.8979020979021 323.580404685836 L 64.8979020979021 321.7614483493078 L 66.07552447552447 321.7614483493078 L 66.07552447552447 318.1235356762513 L 67.25314685314686 318.1235356762513 L 67.25314685314686 317.21405750798726 L 67.84195804195804 317.21405750798726 L 67.84195804195804 316.7593184238551 L 68.43076923076923 316.7593184238551 L 68.43076923076923 316.3045793397231 L 69.01958041958042 316.3045793397231 L 69.01958041958042 315.39510117145903 L 69.60839160839161 315.39510117145903 L 69.60839160839161 312.6666666666667 L 70.1972027972028 312.6666666666667 L 70.1972027972028 311.3024494142705 L 70.78601398601398 311.3024494142705 L 70.78601398601398 306.75505857294996 L 71.37482517482518 306.75505857294996 L 71.37482517482518 306.3003194888179 L 71.96363636363637 306.3003194888179 L 71.96363636363637 304.93610223642173 L 72.55244755244755 304.93610223642173 L 72.55244755244755 303.1171458998935 L 73.14125874125874 303.1171458998935 L 73.14125874125874 301.2981895633653 L 73.73006993006993 301.2981895633653 L 73.73006993006993 300.38871139510115 L 74.31888111888112 300.38871139510115 L 74.31888111888112 299.9339723109691 L 74.90769230769232 299.9339723109691 L 74.90769230769232 294.47710330138443 L 76.08531468531469 294.47710330138443 L 76.08531468531469 292.6581469648562 L 76.67412587412588 292.6581469648562 L 76.67412587412588 291.74866879659214 L 77.26293706293706 291.74866879659214 L 77.26293706293706 291.2939297124601 L 77.85174825174825 291.2939297124601 L 77.85174825174825 289.9297124600639 L 78.44055944055944 289.9297124600639 L 78.44055944055944 287.65601703940365 L 81.38461538461539 287.65601703940365 L 81.38461538461539 287.20127795527156 L 81.97342657342658 287.20127795527156 L 81.97342657342658 285.8370607028754 L 82.56223776223776 285.8370607028754 L 82.56223776223776 284.4728434504792 L 83.73986013986014 284.4728434504792 L 83.73986013986014 283.1086261980831 L 84.32867132867133 283.1086261980831 L 84.32867132867133 282.653887113951 L 86.0951048951049 282.653887113951 L 86.0951048951049 281.28966986155484 L 86.68391608391607 281.28966986155484 L 86.68391608391607 278.10649627263047 L 87.27272727272728 278.10649627263047 L 87.27272727272728 275.8328008519702 L 87.86153846153846 275.8328008519702 L 87.86153846153846 275.3780617678381 L 88.45034965034965 275.3780617678381 L 88.45034965034965 273.1043663471778 L 89.62797202797202 273.1043663471778 L 89.62797202797202 270.3759318423855 L 90.21678321678323 270.3759318423855 L 90.21678321678323 268.5569755058573 L 91.3944055944056 268.5569755058573 L 91.3944055944056 261.2811501597444 L 92.57202797202797 261.2811501597444 L 92.57202797202797 260.8264110756123 L 93.16083916083916 260.8264110756123 L 93.16083916083916 258.09797657082004 L 93.74965034965035 258.09797657082004 L 93.74965034965035 255.82428115015975 L 94.33846153846154 255.82428115015975 L 94.33846153846154 252.64110756123537 L 94.92727272727272 252.64110756123537 L 94.92727272727272 251.73162939297123 L 95.51608391608391 251.73162939297123 L 95.51608391608391 250.36741214057508 L 96.1048951048951 250.36741214057508 L 96.1048951048951 249.91267305644303 L 96.6937062937063 249.91267305644303 L 96.6937062937063 248.54845580404685 L 97.28251748251748 248.54845580404685 L 97.28251748251748 248.09371671991482 L 97.87132867132867 248.09371671991482 L 97.87132867132867 247.1842385516507 L 98.46013986013986 247.1842385516507 L 98.46013986013986 246.27476038338656 L 99.04895104895104 246.27476038338656 L 99.04895104895104 242.1821086261981 L 99.63776223776225 242.1821086261981 L 99.63776223776225 241.72736954206604 L 100.22657342657342 241.72736954206604 L 100.22657342657342 240.36315228966984 L 101.40419580419581 240.36315228966984 L 101.40419580419581 236.27050053248135 L 101.993006993007 236.27050053248135 L 101.993006993007 235.81576144834932 L 102.58181818181818 235.81576144834932 L 102.58181818181818 234.9062832800852 L 103.17062937062937 234.9062832800852 L 103.17062937062937 234.45154419595315 L 104.34825174825176 234.45154419595315 L 104.34825174825176 233.99680511182112 L 106.7034965034965 233.99680511182112 L 106.7034965034965 230.8136315228967 L 107.2923076923077 230.8136315228967 L 107.2923076923077 228.53993610223642 L 107.88111888111888 228.53993610223642 L 107.88111888111888 226.26624068157614 L 108.46993006993007 226.26624068157614 L 108.46993006993007 223.99254526091588 L 111.413986013986 223.99254526091588 L 111.413986013986 223.53780617678382 L 112.59160839160839 223.53780617678382 L 112.59160839160839 222.17358892438762 L 113.18041958041958 222.17358892438762 L 113.18041958041958 221.26411075612353 L 113.76923076923077 221.26411075612353 L 113.76923076923077 219.89989350372738 L 114.94685314685316 219.89989350372738 L 114.94685314685316 217.171458998935 L 116.12447552447551 217.171458998935 L 116.12447552447551 215.80724174653886 L 116.7132867132867 215.80724174653886 L 116.7132867132867 214.89776357827478 L 117.3020979020979 214.89776357827478 L 117.3020979020979 214.4430244941427 L 117.89090909090909 214.4430244941427 L 117.89090909090909 213.53354632587858 L 118.47972027972028 213.53354632587858 L 118.47972027972028 213.07880724174655 L 119.65734265734267 213.07880724174655 L 119.65734265734267 212.6240681576145 L 123.77902097902098 212.6240681576145 L 123.77902097902098 211.71458998935037 L 124.95664335664335 211.71458998935037 L 124.95664335664335 211.2598509052183 L 125.54545454545455 211.2598509052183 L 125.54545454545455 209.44089456869008 L 127.31188811188812 209.44089456869008 L 127.31188811188812 208.07667731629394 L 129.0783216783217 208.07667731629394 L 129.0783216783217 207.16719914802985 L 130.25594405594404 207.16719914802985 L 130.25594405594404 206.25772097976568 L 132.6111888111888 206.25772097976568 L 132.6111888111888 204.89350372736953 L 133.2 204.89350372736953 L 133.2 204.43876464323748 L 134.37762237762237 204.43876464323748 L 134.37762237762237 203.52928647497336 L 135.55524475524476 203.52928647497336 L 135.55524475524476 203.07454739084133 L 136.14405594405594 203.07454739084133 L 136.14405594405594 200.80085197018104 L 136.7328671328671 200.80085197018104 L 136.7328671328671 199.89137380191693 L 137.91048951048953 199.89137380191693 L 137.91048951048953 199.43663471778487 L 139.6769230769231 199.43663471778487 L 139.6769230769231 198.0724174653887 L 140.85454545454544 198.0724174653887 L 140.85454545454544 197.16293929712464 L 141.44335664335665 197.16293929712464 L 141.44335664335665 196.70820021299255 L 142.03216783216783 196.70820021299255 L 142.03216783216783 194.43450479233223 L 142.620979020979 194.43450479233223 L 142.620979020979 193.52502662406812 L 143.79860139860142 193.52502662406812 L 143.79860139860142 193.0702875399361 L 145.56503496503495 193.0702875399361 L 145.56503496503495 191.25133120340791 L 146.15384615384616 191.25133120340791 L 146.15384615384616 187.15867944621942 L 146.74265734265734 187.15867944621942 L 146.74265734265734 184.8849840255591 L 148.5090909090909 184.8849840255591 L 148.5090909090909 183.975505857295 L 149.09790209790208 183.975505857295 L 149.09790209790208 183.06602768903088 L 149.68671328671329 183.06602768903088 L 149.68671328671329 182.15654952076676 L 150.2755244755245 182.15654952076676 L 150.2755244755245 181.70181043663473 L 151.45314685314685 181.70181043663473 L 151.45314685314685 181.2470713525027 L 152.04195804195803 181.2470713525027 L 152.04195804195803 180.33759318423859 L 152.63076923076923 180.33759318423859 L 152.63076923076923 178.97337593184238 L 153.2195804195804 178.97337593184238 L 153.2195804195804 178.06389776357827 L 153.80839160839162 178.06389776357827 L 153.80839160839162 177.60915867944618 L 154.986013986014 177.60915867944618 L 154.986013986014 177.15441959531415 L 155.57482517482518 177.15441959531415 L 155.57482517482518 176.69968051118212 L 156.16363636363636 176.69968051118212 L 156.16363636363636 175.33546325878598 L 156.75244755244756 175.33546325878598 L 156.75244755244756 174.42598509052186 L 157.34125874125874 174.42598509052186 L 157.34125874125874 173.5165069222577 L 159.6965034965035 173.5165069222577 L 159.6965034965035 172.15228966986155 L 160.87412587412587 172.15228966986155 L 160.87412587412587 171.69755058572946 L 161.46293706293707 171.69755058572946 L 161.46293706293707 170.7880724174654 L 162.05174825174825 170.7880724174654 L 162.05174825174825 170.33333333333337 L 164.99580419580417 170.33333333333337 L 164.99580419580417 169.87859424920129 L 165.5846153846154 169.87859424920129 L 165.5846153846154 169.42385516506926 L 166.17342657342658 169.42385516506926 L 166.17342657342658 167.15015974440894 L 166.76223776223776 167.15015974440894 L 166.76223776223776 166.69542066027685 L 168.52867132867132 166.69542066027685 L 168.52867132867132 165.7859424920128 L 169.7062937062937 165.7859424920128 L 169.7062937062937 165.33120340788076 L 170.29510489510488 165.33120340788076 L 170.29510489510488 163.51224707135253 L 172.65034965034965 163.51224707135253 L 172.65034965034965 163.05750798722045 L 173.23916083916083 163.05750798722045 L 173.23916083916083 162.60276890308836 L 173.827972027972 162.60276890308836 L 173.827972027972 160.78381256656013 L 174.41678321678324 160.78381256656013 L 174.41678321678324 160.3290734824281 L 175.00559440559442 160.3290734824281 L 175.00559440559442 158.96485623003196 L 175.5944055944056 158.96485623003196 L 175.5944055944056 157.60063897763575 L 176.77202797202796 157.60063897763575 L 176.77202797202796 156.69116080937164 L 177.94965034965034 156.69116080937164 L 177.94965034965034 155.78168264110752 L 178.53846153846155 155.78168264110752 L 178.53846153846155 155.3269435569755 L 180.3048951048951 155.3269435569755 L 180.3048951048951 153.96272630457935 L 180.89370629370632 153.96272630457935 L 180.89370629370632 152.14376996805112 L 181.4825174825175 152.14376996805112 L 181.4825174825175 151.68903088391903 L 182.07132867132867 151.68903088391903 L 182.07132867132867 150.77955271565492 L 182.66013986013985 150.77955271565492 L 182.66013986013985 150.3248136315229 L 183.24895104895103 150.3248136315229 L 183.24895104895103 148.96059637912674 L 183.83776223776223 148.96059637912674 L 183.83776223776223 148.5058572949947 L 185.6041958041958 148.5058572949947 L 185.6041958041958 147.5963791267306 L 186.193006993007 147.5963791267306 L 186.193006993007 145.7774227902023 L 187.37062937062936 145.7774227902023 L 187.37062937062936 144.41320553780616 L 188.54825174825174 144.41320553780616 L 188.54825174825174 143.95846645367413 L 190.31468531468533 143.95846645367413 L 190.31468531468533 143.04898828541002 L 190.9034965034965 143.04898828541002 L 190.9034965034965 142.1395101171459 L 192.66993006993007 142.1395101171459 L 192.66993006993007 141.68477103301387 L 193.84755244755243 141.68477103301387 L 193.84755244755243 141.2300319488818 L 195.61398601398602 141.2300319488818 L 195.61398601398602 140.7752928647497 L 196.2027972027972 140.7752928647497 L 196.2027972027972 140.32055378061767 L 196.7916083916084 140.32055378061767 L 196.7916083916084 139.41107561235356 L 197.38041958041958 139.41107561235356 L 197.38041958041958 138.5015974440895 L 197.9692307692308 138.5015974440895 L 197.9692307692308 137.59211927582538 L 198.55804195804197 137.59211927582538 L 198.55804195804197 136.68264110756127 L 199.73566433566432 136.68264110756127 L 199.73566433566432 136.22790202342918 L 200.9132867132867 136.22790202342918 L 200.9132867132867 135.7731629392971 L 202.0909090909091 135.7731629392971 L 202.0909090909091 135.31842385516507 L 202.67972027972027 135.31842385516507 L 202.67972027972027 133.0447284345048 L 203.85734265734266 133.0447284345048 L 203.85734265734266 132.58998935037278 L 205.03496503496504 132.58998935037278 L 205.03496503496504 131.22577209797657 L 206.8013986013986 131.22577209797657 L 206.8013986013986 129.86155484558037 L 207.97902097902096 129.86155484558037 L 207.97902097902096 128.95207667731626 L 208.56783216783217 128.95207667731626 L 208.56783216783217 126.67838125665605 L 209.74545454545455 126.67838125665605 L 209.74545454545455 125.31416400425985 L 210.33426573426573 125.31416400425985 L 210.33426573426573 124.85942492012776 L 210.92307692307693 124.85942492012776 L 210.92307692307693 124.40468583599574 L 212.10069930069932 124.40468583599574 L 212.10069930069932 123.49520766773162 L 213.27832167832167 123.49520766773162 L 213.27832167832167 123.04046858359953 L 214.45594405594406 123.04046858359953 L 214.45594405594406 121.67625133120345 L 216.22237762237762 121.67625133120345 L 216.22237762237762 120.76677316293933 L 217.98881118881118 120.76677316293933 L 217.98881118881118 120.31203407880724 L 220.93286713286713 120.31203407880724 L 220.93286713286713 119.40255591054313 L 221.52167832167834 119.40255591054313 L 221.52167832167834 118.94781682641104 L 222.11048951048951 118.94781682641104 L 222.11048951048951 118.49307774227901 L 223.87692307692308 118.49307774227901 L 223.87692307692308 118.03833865814693 L 224.46573426573426 118.03833865814693 L 224.46573426573426 117.12886048988287 L 225.05454545454543 117.12886048988287 L 225.05454545454543 116.21938232161875 L 225.64335664335664 116.21938232161875 L 225.64335664335664 115.30990415335464 L 227.4097902097902 115.30990415335464 L 227.4097902097902 114.85516506922261 L 227.9986013986014 114.85516506922261 L 227.9986013986014 114.40042598509052 L 230.35384615384618 114.40042598509052 L 230.35384615384618 113.94568690095844 L 230.94265734265736 113.94568690095844 L 230.94265734265736 111.21725239616615 L 231.53146853146853 111.21725239616615 L 231.53146853146853 110.76251331203412 L 232.7090909090909 110.76251331203412 L 232.7090909090909 110.30777422790203 L 233.2979020979021 110.30777422790203 L 233.2979020979021 108.94355697550583 L 235.06433566433566 108.94355697550583 L 235.06433566433566 108.4888178913738 L 235.65314685314686 108.4888178913738 L 235.65314685314686 107.57933972310968 L 236.24195804195804 107.57933972310968 L 236.24195804195804 105.76038338658151 L 236.83076923076925 105.76038338658151 L 236.83076923076925 104.8509052183174 L 238.0083916083916 104.8509052183174 L 238.0083916083916 103.94142705005328 L 238.5972027972028 103.94142705005328 L 238.5972027972028 103.48668796592119 L 240.95244755244755 103.48668796592119 L 240.95244755244755 103.0319488817891 L 243.30769230769232 103.0319488817891 L 243.30769230769232 102.57720979765708 L 243.8965034965035 102.57720979765708 L 243.8965034965035 102.12247071352499 L 244.48531468531468 102.12247071352499 L 244.48531468531468 101.66773162939296 L 245.07412587412588 101.66773162939296 L 245.07412587412588 100.75825346112885 L 247.42937062937062 100.75825346112885 L 247.42937062937062 100.30351437699682 L 248.0181818181818 100.30351437699682 L 248.0181818181818 99.84877529286479 L 252.13986013986013 99.84877529286479 L 252.13986013986013 99.3940362087327 L 252.72867132867134 99.3940362087327 L 252.72867132867134 97.57507987220447 L 253.31748251748252 97.57507987220447 L 253.31748251748252 96.66560170394035 L 254.4951048951049 96.66560170394035 L 254.4951048951049 96.21086261980827 L 257.4391608391608 96.21086261980827 L 257.4391608391608 95.30138445154421 L 259.2055944055944 95.30138445154421 L 259.2055944055944 94.84664536741218 L 260.38321678321677 94.84664536741218 L 260.38321678321677 94.3919062832801 L 264.5048951048951 94.3919062832801 L 264.5048951048951 93.93716719914806 L 266.27132867132866 93.93716719914806 L 266.27132867132866 93.48242811501598 L 268.0377622377622 93.48242811501598 L 268.0377622377622 93.02768903088395 L 270.393006993007 93.02768903088395 L 270.393006993007 92.57294994675186 L 271.5706293706294 92.57294994675186 L 271.5706293706294 91.20873269435566 L 272.74825174825173 91.20873269435566 L 272.74825174825173 90.2992545260916 L 273.92587412587415 90.2992545260916 L 273.92587412587415 88.93503727369546 L 276.8699300699301 88.93503727369546 L 276.8699300699301 88.02555910543134 L 277.45874125874127 88.02555910543134 L 277.45874125874127 87.57082002129926 L 278.04755244755245 87.57082002129926 L 278.04755244755245 86.66134185303514 L 278.6363636363636 86.66134185303514 L 278.6363636363636 85.75186368477102 L 281.5804195804195 85.75186368477102 L 281.5804195804195 84.84238551650691 L 282.758041958042 84.84238551650691 L 282.758041958042 84.38764643237488 L 283.34685314685316 84.38764643237488 L 283.34685314685316 83.47816826411076 L 289.234965034965 83.47816826411076 L 289.234965034965 82.56869009584665 L 291.59020979020977 82.56869009584665 L 291.59020979020977 82.11395101171462 L 293.35664335664336 82.11395101171462 L 293.35664335664336 81.65921192758253 L 293.94545454545454 81.65921192758253 L 293.94545454545454 81.20447284345045 L 295.71188811188813 81.20447284345045 L 295.71188811188813 80.74973375931842 L 299.8335664335665 80.74973375931842 L 299.8335664335665 80.29499467518633 L 305.7216783216783 80.29499467518633 L 305.7216783216783 79.8402555910543 L 309.25454545454545 79.8402555910543 L 309.25454545454545 78.02129925452613 L 312.1986013986014 78.02129925452613 L 312.1986013986014 77.56656017039404 L 312.78741258741263 77.56656017039404 L 312.78741258741263 76.65708200212993 L 313.3762237762238 76.65708200212993 L 313.3762237762238 76.20234291799784 L 313.965034965035 76.20234291799784 L 313.965034965035 75.74760383386581 L 314.55384615384617 75.74760383386581 L 314.55384615384617 75.29286474973372 L 315.14265734265734 75.29286474973372 L 315.14265734265734 73.92864749733758 L 316.3202797202797 73.92864749733758 L 316.3202797202797 72.1096911608094 L 322.7972027972028 72.1096911608094 L 322.7972027972028 71.65495207667732 L 328.0965034965035 71.65495207667732 L 328.0965034965035 71.20021299254523 L 329.2741258741259 71.20021299254523 L 329.2741258741259 70.29073482428112 L 330.45174825174826 70.29073482428112 L 330.45174825174826 68.92651757188497 L 333.3958041958042 68.92651757188497 L 333.3958041958042 68.01703940362091 L 338.1062937062937 68.01703940362091 L 338.1062937062937 67.56230031948883 L 338.69510489510486 67.56230031948883 L 338.69510489510486 65.28860489882851 L 339.8727272727273 65.28860489882851 L 339.8727272727273 64.83386581469648 L 348.7048951048951 64.83386581469648 L 348.7048951048951 64.3791267305644 L 349.2937062937063 64.3791267305644 L 349.2937062937063 63.46964856230028 L 350.47132867132865 63.46964856230028 L 350.47132867132865 62.56017039403622 L 352.23776223776224 62.56017039403622 L 352.23776223776224 61.650692225772104 L 353.4153846153846 61.650692225772104 L 353.4153846153846 61.195953141640075 L 354.0041958041958 61.195953141640075 L 354.0041958041958 59.83173588924387 L 354.593006993007 59.83173588924387 L 354.593006993007 59.37699680511179 L 355.77062937062936 59.37699680511179 L 355.77062937062936 58.92225772097976 L 356.9482517482517 58.92225772097976 L 356.9482517482517 58.01277955271564 L 359.3034965034965 58.01277955271564 L 359.3034965034965 56.6485623003195 L 362.2475524475525 56.6485623003195 L 362.2475524475525 55.28434504792335 L 364.013986013986 55.28434504792335 L 364.013986013986 54.829605963791266 L 365.1916083916084 54.829605963791266 L 365.1916083916084 54.37486687965918 L 365.78041958041956 54.37486687965918 L 365.78041958041956 53.465388711395065 L 366.36923076923074 53.465388711395065 L 366.36923076923074 53.010649627263035 L 367.54685314685315 53.010649627263035 L 367.54685314685315 52.10117145899892 L 369.3132867132867 52.10117145899892 L 369.3132867132867 51.19169329073486 L 369.90209790209786 51.19169329073486 L 369.90209790209786 50.736954206602775 L 374.6125874125874 50.736954206602775 L 374.6125874125874 50.282215122470745 L 375.20139860139864 50.282215122470745 L 375.20139860139864 49.82747603833866 L 376.96783216783217 49.82747603833866 L 376.96783216783217 49.37273695420657 L 378.1454545454546 49.37273695420657 L 378.1454545454546 48.46325878594246 L 379.32307692307694 48.46325878594246 L 379.32307692307694 47.09904153354631 L 381.67832167832165 47.09904153354631 L 381.67832167832165 46.64430244941428 L 383.44475524475524 46.64430244941428 L 383.44475524475524 46.189563365282254 L 386.3888111888112 46.189563365282254 L 386.3888111888112 45.28008519701814 L 388.1552447552448 45.28008519701814 L 388.1552447552448 44.82534611288605 L 389.9216783216783 44.82534611288605 L 389.9216783216783 44.37060702875402 L 391.6881118881119 44.37060702875402 L 391.6881118881119 43.46112886048985 L 393.4545454545455 43.46112886048985 L 393.4545454545455 43.00638977635782 L 394.63216783216785 43.00638977635782 L 394.63216783216785 42.551650692225735 L 396.3986013986014 42.551650692225735 L 396.3986013986014 41.642172523961676 L 398.1650349650349 41.642172523961676 L 398.1650349650349 41.18743343982965 L 399.9314685314685 41.18743343982965 L 399.9314685314685 40.73269435569756 L 401.6979020979021 40.73269435569756 L 401.6979020979021 39.368477103301416 L 403.46433566433564 39.368477103301416 L 403.46433566433564 38.45899893503724 L 404.05314685314687 38.45899893503724 L 404.05314685314687 37.54952076677313 L 404.64195804195805 37.54952076677313 L 404.64195804195805 36.64004259850901 L 411.70769230769235 36.64004259850901 L 412.8853146853147 36.64004259850901 L 412.8853146853147 36.18530351437698 L 415.2405594405594 36.18530351437698 L 415.2405594405594 35.730564430244954 L 423.4839160839161 35.730564430244954 L 423.4839160839161 35.275825346112924 L 424.6615384615385 35.275825346112924 L 424.6615384615385 34.82108626198084 L 426.42797202797203 34.82108626198084 L 426.42797202797203 34.36634717784881 L 430.54965034965034 34.36634717784881 L 430.54965034965034 33.91160809371672 L 437.61538461538464 33.91160809371672 L 437.61538461538464 33.45686900958469 L 438.2041958041958 33.45686900958469 L 438.2041958041958 33.00212992545261 L 439.3818181818182 33.00212992545261 L 439.3818181818182 32.54739084132052 L 445.26993006993007 32.54739084132052 L 445.26993006993007 31.183173588924376 L 447.0363636363636 31.183173588924376 L 447.0363636363636 30.728434504792347 L 450.5692307692308 30.728434504792347 L 450.5692307692308 30.273695420660317 L 451.15804195804196 30.273695420660317 L 451.15804195804196 29.81895633652823 L 456.4573426573427 29.81895633652823 L 456.4573426573427 28.454739084132086 L 462.9342657342657 28.454739084132086 L 462.9342657342657 28 L 470 28" stroke-linejoin="bevel" stroke-miterlimit="10" stroke-width="2" stroke-opacity="0.7"/></g><g><path fill="none" stroke="none"/><path fill="none" stroke="#00BFA5" paint-order="fill stroke markers" d=" M 49 455 L 49 454.77030661646046 L 49 444.8934911242604 L 49.26444723618091 444.8934911242604 L 49.26444723618091 442.596557288865 L 49.528894472361806 442.596557288865 L 49.528894472361806 440.2996234534696 L 49.79334170854271 440.2996234534696 L 49.79334170854271 431.1118881118881 L 50.05778894472362 431.1118881118881 L 50.05778894472362 430.19311457772994 L 50.322236180904525 430.19311457772994 L 50.322236180904525 425.3695535233997 L 50.586683417085425 425.3695535233997 L 50.586683417085425 415.49273803119956 L 50.85113065326633 415.49273803119956 L 50.85113065326633 413.65519096288324 L 51.11557788944724 413.65519096288324 L 51.11557788944724 407.91285637439483 L 51.38002512562814 407.91285637439483 L 51.38002512562814 406.76438945669713 L 51.64447236180904 406.76438945669713 L 51.64447236180904 405.1565357719204 L 51.90891959798995 405.1565357719204 L 51.90891959798995 404.92684238838086 L 52.17336683417086 404.92684238838086 L 52.17336683417086 404.23776223776224 L 52.437814070351756 404.23776223776224 L 52.437814070351756 401.25174825174827 L 52.70226130653266 401.25174825174827 L 52.70226130653266 396.88757396449705 L 53.495603015075375 396.88757396449705 L 53.495603015075375 395.0500268961807 L 53.76005025125628 395.0500268961807 L 53.76005025125628 392.52339967724583 L 54.02449748743719 392.52339967724583 L 54.02449748743719 390.91554599246905 L 54.28894472361809 390.91554599246905 L 54.28894472361809 390.6858526089295 L 54.553391959798994 390.6858526089295 L 54.553391959798994 387.69983862291554 L 54.8178391959799 387.69983862291554 L 54.8178391959799 384.2544378698225 L 55.08228643216081 384.2544378698225 L 55.08228643216081 381.9575040344271 L 55.61118090452261 381.9575040344271 L 55.61118090452261 381.03873050026897 L 55.87562814070352 381.03873050026897 L 55.87562814070352 380.1199569661108 L 56.140075376884425 380.1199569661108 L 56.140075376884425 377.3636363636364 L 56.404522613065325 377.3636363636364 L 56.404522613065325 376.67455621301775 L 56.66896984924623 376.67455621301775 L 56.66896984924623 375.7557826788596 L 56.93341708542714 375.7557826788596 L 56.93341708542714 375.2963959117805 L 57.19786432160804 375.2963959117805 L 57.19786432160804 371.85099515868745 L 57.72675879396985 371.85099515868745 L 57.72675879396985 370.70252824098975 L 57.99120603015075 370.70252824098975 L 57.99120603015075 370.0134480903712 L 58.25565326633166 370.0134480903712 L 58.25565326633166 369.5540613232921 L 58.52010050251256 369.5540613232921 L 58.52010050251256 369.094674556213 L 58.78454773869347 369.094674556213 L 58.78454773869347 368.63528778913394 L 59.048994974874375 368.63528778913394 L 59.048994974874375 366.56804733727813 L 59.313442211055275 366.56804733727813 L 59.313442211055275 363.35233996772456 L 59.57788944723618 363.35233996772456 L 59.57788944723618 363.1226465841851 L 59.84233668341709 363.1226465841851 L 59.84233668341709 359.21785906401294 L 60.10678391959799 359.21785906401294 L 60.10678391959799 357.8396987627757 L 60.371231155778894 357.8396987627757 L 60.371231155778894 357.3803119956966 L 60.6356783919598 357.3803119956966 L 60.6356783919598 356.00215169445937 L 60.9001256281407 356.00215169445937 L 60.9001256281407 355.0833781603012 L 61.164572864321606 355.0833781603012 L 61.164572864321606 354.1646046261431 L 61.42902010050251 354.1646046261431 L 61.42902010050251 351.8676707907477 L 61.69346733668342 351.8676707907477 L 61.69346733668342 349.3410435718128 L 61.957914572864325 349.3410435718128 L 61.957914572864325 348.42227003765464 L 62.222361809045225 348.42227003765464 L 62.222361809045225 347.5034965034965 L 62.48680904522613 347.5034965034965 L 62.48680904522613 344.5174825174825 L 62.75125628140704 344.5174825174825 L 62.75125628140704 340.61269499731037 L 63.54459798994975 340.61269499731037 L 63.54459798994975 340.38300161377083 L 63.80904522613065 340.38300161377083 L 63.80904522613065 338.7751479289941 L 64.07349246231156 338.7751479289941 L 64.07349246231156 338.315761161915 L 64.60238693467336 338.315761161915 L 64.60238693467336 337.6266810112964 L 65.13128140703517 337.6266810112964 L 65.13128140703517 336.9376008606778 L 65.39572864321607 336.9376008606778 L 65.39572864321607 336.70790747713824 L 65.66017587939699 336.70790747713824 L 65.66017587939699 334.6406670252824 L 66.1890703517588 334.6406670252824 L 66.1890703517588 333.9515868746638 L 67.24685929648241 333.9515868746638 L 67.24685929648241 333.03281334050564 L 67.51130653266333 333.03281334050564 L 67.51130653266333 332.57342657342656 L 67.77575376884423 332.57342657342656 L 67.77575376884423 332.3437331898871 L 68.04020100502512 332.3437331898871 L 68.04020100502512 330.96557288864983 L 68.30464824120602 330.96557288864983 L 68.30464824120602 330.7358795051103 L 68.56909547738694 330.7358795051103 L 68.56909547738694 330.04679935449167 L 68.83354271356784 330.04679935449167 L 68.83354271356784 328.89833243679396 L 69.09798994974875 328.89833243679396 L 69.09798994974875 328.6686390532544 L 69.36243718592965 328.6686390532544 L 69.36243718592965 327.0607853684777 L 69.62688442211055 327.0607853684777 L 69.62688442211055 326.8310919849381 L 69.89133165829145 326.8310919849381 L 69.89133165829145 326.6013986013986 L 70.15577889447236 326.6013986013986 L 70.15577889447236 326.3717052178591 L 70.42022613065326 326.3717052178591 L 70.42022613065326 325.45293168370097 L 70.68467336683418 325.45293168370097 L 70.68467336683418 325.22323830016137 L 71.21356783919597 325.22323830016137 L 71.21356783919597 324.7638515330823 L 71.47801507537689 324.7638515330823 L 71.47801507537689 323.61538461538464 L 71.74246231155779 323.61538461538464 L 71.74246231155779 322.92630446476596 L 72.0069095477387 322.92630446476596 L 72.0069095477387 322.2372243141474 L 72.2713567839196 322.2372243141474 L 72.2713567839196 319.4809037116729 L 72.5358040201005 319.4809037116729 L 72.5358040201005 318.79182356105434 L 72.8002512562814 318.79182356105434 L 72.8002512562814 318.33243679397526 L 73.06469849246231 318.33243679397526 L 73.06469849246231 317.8730500268962 L 73.32914572864321 317.8730500268962 L 73.32914572864321 317.4136632598171 L 73.59359296482413 317.4136632598171 L 73.59359296482413 316.26519634211945 L 73.85804020100502 316.26519634211945 L 73.85804020100502 315.3464228079613 L 74.12248743718592 315.3464228079613 L 74.12248743718592 314.4276492738031 L 74.38693467336684 314.4276492738031 L 74.38693467336684 314.1979558902636 L 74.65138190954774 314.1979558902636 L 74.65138190954774 313.50887573964496 L 74.91582914572865 313.50887573964496 L 74.91582914572865 312.81979558902634 L 75.18027638190955 312.81979558902634 L 75.18027638190955 311.90102205486824 L 75.44472361809045 311.90102205486824 L 75.44472361809045 311.44163528778915 L 75.70917085427135 311.44163528778915 L 75.70917085427135 309.6040882194728 L 75.97361809045226 309.6040882194728 L 75.97361809045226 309.14470145239375 L 76.23806532663316 309.14470145239375 L 76.23806532663316 307.536847767617 L 77.03140703517587 307.536847767617 L 77.03140703517587 306.3883808499193 L 77.29585427135679 306.3883808499193 L 77.29585427135679 305.46960731576115 L 77.56030150753769 305.46960731576115 L 77.56030150753769 304.78052716514253 L 77.8247487437186 304.78052716514253 L 77.8247487437186 304.55083378160305 L 78.3536432160804 304.55083378160305 L 78.3536432160804 302.94298009682626 L 78.6180904522613 302.94298009682626 L 78.6180904522613 302.7132867132867 L 78.88253768844221 302.7132867132867 L 78.88253768844221 301.564819795589 L 79.14698492462313 301.564819795589 L 79.14698492462313 300.4163528778913 L 79.41143216080403 300.4163528778913 L 79.41143216080403 300.18665949435183 L 80.20477386934674 300.18665949435183 L 80.20477386934674 299.72727272727275 L 80.46922110552764 299.72727272727275 L 80.46922110552764 299.0381925766541 L 80.73366834170854 299.0381925766541 L 80.73366834170854 298.3491124260355 L 81.52701005025125 298.3491124260355 L 81.52701005025125 298.11941904249596 L 82.05590452261308 298.11941904249596 L 82.05590452261308 296.7412587412588 L 82.32035175879398 296.7412587412588 L 82.32035175879398 296.0521785906401 L 82.84924623115577 296.0521785906401 L 82.84924623115577 295.8224852071006 L 83.11369346733669 295.8224852071006 L 83.11369346733669 295.592791823561 L 83.9070351758794 295.592791823561 L 83.9070351758794 294.90371167294245 L 84.70037688442211 294.90371167294245 L 84.70037688442211 294.44432490586337 L 85.22927135678393 294.44432490586337 L 85.22927135678393 294.2146315223238 L 85.49371859296483 294.2146315223238 L 85.49371859296483 293.5255513717052 L 85.75816582914572 293.5255513717052 L 85.75816582914572 293.0661646046261 L 86.28706030150754 293.0661646046261 L 86.28706030150754 292.83647122108664 L 86.81595477386935 292.83647122108664 L 86.81595477386935 291.4583109198494 L 87.08040201005025 291.4583109198494 L 87.08040201005025 290.9989241527703 L 87.34484924623115 290.9989241527703 L 87.34484924623115 290.3098440021517 L 87.60929648241205 290.3098440021517 L 87.60929648241205 290.08015061861215 L 87.87374371859296 290.08015061861215 L 87.87374371859296 289.85045723507267 L 88.40263819095478 289.85045723507267 L 88.40263819095478 289.62076385153307 L 88.66708542713567 289.62076385153307 L 88.66708542713567 284.3378160301237 L 89.19597989949749 284.3378160301237 L 89.19597989949749 284.1081226465842 L 89.7248743718593 284.1081226465842 L 89.7248743718593 283.18934911242604 L 90.2537688442211 283.18934911242604 L 90.2537688442211 282.5002689618074 L 90.518216080402 282.5002689618074 L 90.518216080402 280.43302850995155 L 90.78266331658291 280.43302850995155 L 90.78266331658291 279.2845615922539 L 91.04711055276383 279.2845615922539 L 91.04711055276383 277.90640129101666 L 91.31155778894473 277.90640129101666 L 91.31155778894473 276.29854760623994 L 91.57600502512562 276.29854760623994 L 91.57600502512562 275.83916083916085 L 91.84045226130652 275.83916083916085 L 91.84045226130652 275.3797740720818 L 92.10489949748744 275.3797740720818 L 92.10489949748744 274.9203873050027 L 92.36934673366835 274.9203873050027 L 92.36934673366835 274.23130715438407 L 92.63379396984925 274.23130715438407 L 92.63379396984925 274.00161377084453 L 92.89824120603015 274.00161377084453 L 92.89824120603015 273.771920387305 L 93.16268844221105 273.771920387305 L 93.16268844221105 273.54222700376545 L 93.42713567839196 273.54222700376545 L 93.42713567839196 272.8531468531469 L 93.69158291457286 272.8531468531469 L 93.69158291457286 271.9343733189887 L 94.22047738693468 271.9343733189887 L 94.22047738693468 270.32651963421193 L 94.48492462311557 270.32651963421193 L 94.48492462311557 270.0968262506724 L 94.74937185929647 270.0968262506724 L 94.74937185929647 267.34050564819796 L 95.01381909547739 267.34050564819796 L 95.01381909547739 267.1108122646584 L 95.2782663316583 267.1108122646584 L 95.2782663316583 266.8811188811189 L 96.071608040201 266.8811188811189 L 96.071608040201 266.4217321140398 L 96.33605527638191 266.4217321140398 L 96.33605527638191 265.7326519634212 L 96.60050251256281 265.7326519634212 L 96.60050251256281 265.0435718128026 L 96.86494974874373 265.0435718128026 L 96.86494974874373 264.12479827864445 L 97.12939698492463 264.12479827864445 L 97.12939698492463 263.66541151156537 L 97.39384422110552 263.66541151156537 L 97.39384422110552 261.1387842926305 L 97.65829145728642 261.1387842926305 L 97.65829145728642 260.4497041420118 L 97.92273869346734 260.4497041420118 L 97.92273869346734 260.2200107584723 L 98.18718592964825 260.2200107584723 L 98.18718592964825 259.0715438407746 L 98.45163316582915 259.0715438407746 L 98.45163316582915 257.23399677245834 L 98.71608040201005 257.23399677245834 L 98.71608040201005 257.00430338891874 L 98.98052763819095 257.00430338891874 L 98.98052763819095 255.62614308768153 L 99.24497487437186 255.62614308768153 L 99.24497487437186 255.39644970414201 L 99.50942211055278 255.39644970414201 L 99.50942211055278 254.7073695535234 L 99.77386934673368 254.7073695535234 L 99.77386934673368 254.24798278644434 L 100.03831658291458 254.24798278644434 L 100.03831658291458 253.32920925228618 L 100.30276381909547 253.32920925228618 L 100.30276381909547 253.09951586874664 L 100.56721105527637 253.09951586874664 L 100.56721105527637 252.86982248520712 L 100.83165829145729 252.86982248520712 L 100.83165829145729 252.64012910166755 L 101.09610552763819 252.64012910166755 L 101.09610552763819 252.41043571812804 L 101.625 252.41043571812804 L 101.625 252.18074233458847 L 101.8894472361809 252.18074233458847 L 101.8894472361809 251.72135556750942 L 102.15389447236181 251.72135556750942 L 102.15389447236181 251.26196880043034 L 102.41834170854271 251.26196880043034 L 102.41834170854271 250.34319526627218 L 102.68278894472363 250.34319526627218 L 102.68278894472363 249.42442173211404 L 102.94723618090453 249.42442173211404 L 102.94723618090453 248.73534158149542 L 103.21168341708542 248.73534158149542 L 103.21168341708542 248.27595481441634 L 103.74057788944722 248.27595481441634 L 103.74057788944722 247.58687466379774 L 104.00502512562815 247.58687466379774 L 104.00502512562815 246.43840774610004 L 105.06281407035175 246.43840774610004 L 105.06281407035175 245.97902097902096 L 105.32726130653268 245.97902097902096 L 105.32726130653268 245.5196342119419 L 105.59170854271358 245.5196342119419 L 105.59170854271358 244.83055406132328 L 105.85615577889448 244.83055406132328 L 105.85615577889448 244.37116729424423 L 106.38505025125627 244.37116729424423 L 106.38505025125627 243.91178052716515 L 106.91394472361809 243.91178052716515 L 106.91394472361809 243.6820871436256 L 107.17839195979899 243.6820871436256 L 107.17839195979899 243.45239376008607 L 107.97173366834171 243.45239376008607 L 107.97173366834171 243.22270037654656 L 108.23618090452261 243.22270037654656 L 108.23618090452261 242.76331360946747 L 108.50062814070351 242.76331360946747 L 108.50062814070351 242.5336202259279 L 108.76507537688443 242.5336202259279 L 108.76507537688443 242.3039268423884 L 109.02952261306532 242.3039268423884 L 109.02952261306532 242.07423345884885 L 109.55841708542714 242.07423345884885 L 109.55841708542714 241.8445400753093 L 109.82286432160804 241.8445400753093 L 109.82286432160804 241.61484669176977 L 110.08731155778895 241.61484669176977 L 110.08731155778895 241.38515330823026 L 110.61620603015075 241.38515330823026 L 110.61620603015075 241.1554599246907 L 111.40954773869348 241.1554599246907 L 111.40954773869348 240.69607315761164 L 112.20288944723617 240.69607315761164 L 112.20288944723617 240.23668639053253 L 112.9962311557789 240.23668639053253 L 112.9962311557789 239.08821947283488 L 113.2606783919598 239.08821947283488 L 113.2606783919598 238.62883270575577 L 113.7895728643216 238.62883270575577 L 113.7895728643216 238.16944593867672 L 114.58291457286433 238.16944593867672 L 114.58291457286433 237.25067240451855 L 114.84736180904522 237.25067240451855 L 114.84736180904522 237.020979020979 L 115.11180904522614 237.020979020979 L 115.11180904522614 236.3318988703604 L 115.64070351758794 236.3318988703604 L 115.64070351758794 235.41312533620223 L 115.90515075376885 235.41312533620223 L 115.90515075376885 234.95373856912317 L 116.16959798994975 234.95373856912317 L 116.16959798994975 234.03496503496504 L 116.96293969849246 234.03496503496504 L 116.96293969849246 233.57557826788596 L 117.22738693467338 233.57557826788596 L 117.22738693467338 233.11619150080688 L 118.28517587939699 233.11619150080688 L 118.28517587939699 232.88649811726737 L 118.81407035175879 232.88649811726737 L 118.81407035175879 232.19741796664877 L 119.3429648241206 232.19741796664877 L 119.3429648241206 231.9677245831092 L 119.87185929648241 231.9677245831092 L 119.87185929648241 231.73803119956966 L 120.40075376884423 231.73803119956966 L 120.40075376884423 231.2786444324906 L 120.66520100502512 231.2786444324906 L 120.66520100502512 230.35987089833245 L 121.19409547738694 230.35987089833245 L 121.19409547738694 230.13017751479288 L 121.72298994974875 230.13017751479288 L 121.72298994974875 229.9004841312534 L 122.78077889447236 229.9004841312534 L 122.78077889447236 229.67079074771382 L 123.04522613065328 229.67079074771382 L 123.04522613065328 228.06293706293707 L 123.30967336683418 228.06293706293707 L 123.30967336683418 227.60355029585796 L 123.83856783919599 227.60355029585796 L 123.83856783919599 227.37385691231847 L 124.10301507537689 227.37385691231847 L 124.10301507537689 226.68477676169985 L 124.36746231155779 226.68477676169985 L 124.36746231155779 226.22538999462074 L 124.8963567839196 226.22538999462074 L 124.8963567839196 225.7660032275417 L 125.1608040201005 225.7660032275417 L 125.1608040201005 225.53630984400215 L 125.68969849246231 225.53630984400215 L 125.68969849246231 225.30661646046258 L 125.95414572864321 225.30661646046258 L 125.95414572864321 225.0769230769231 L 126.21859296482411 225.0769230769231 L 126.21859296482411 224.84722969338353 L 128.33417085427135 224.84722969338353 L 128.33417085427135 223.9284561592254 L 128.86306532663315 223.9284561592254 L 128.86306532663315 223.00968262506723 L 129.12751256281408 223.00968262506723 L 129.12751256281408 222.09090909090912 L 129.39195979899498 222.09090909090912 L 129.39195979899498 221.86121570736955 L 129.9208542713568 221.86121570736955 L 129.9208542713568 221.4018289402905 L 130.1853015075377 221.4018289402905 L 130.1853015075377 220.9424421732114 L 130.4497487437186 220.9424421732114 L 130.4497487437186 220.71274878967185 L 130.7141959798995 220.71274878967185 L 130.7141959798995 219.79397525551374 L 130.9786432160804 219.79397525551374 L 130.9786432160804 219.56428187197417 L 131.5075376884422 219.56428187197417 L 131.5075376884422 219.33458848843463 L 131.7719849246231 219.33458848843463 L 131.7719849246231 218.18612157073696 L 132.30087939698493 218.18612157073696 L 132.30087939698493 217.49704142011836 L 132.56532663316582 217.49704142011836 L 132.56532663316582 217.03765465303925 L 132.82977386934672 217.03765465303925 L 132.82977386934672 215.20010758472299 L 133.09422110552765 215.20010758472299 L 133.09422110552765 214.51102743410434 L 133.35866834170855 214.51102743410434 L 133.35866834170855 214.05164066702528 L 133.62311557788945 214.05164066702528 L 133.62311557788945 213.82194728348574 L 133.88756281407035 213.82194728348574 L 133.88756281407035 213.59225389994623 L 134.15201005025125 213.59225389994623 L 134.15201005025125 212.21409359870896 L 134.41645728643215 212.21409359870896 L 134.41645728643215 211.7547068316299 L 134.68090452261305 211.7547068316299 L 134.68090452261305 211.52501344809036 L 135.7386934673367 211.52501344809036 L 135.7386934673367 211.29532006455085 L 136.0031407035176 211.29532006455085 L 136.0031407035176 210.14685314685315 L 136.2675879396985 210.14685314685315 L 136.2675879396985 209.6874663797741 L 136.5320351758794 209.6874663797741 L 136.5320351758794 209.45777299623452 L 136.7964824120603 209.45777299623452 L 136.7964824120603 209.22807961269498 L 137.0609296482412 209.22807961269498 L 137.0609296482412 208.76869284561593 L 137.3253768844221 208.76869284561593 L 137.3253768844221 207.62022592791823 L 138.11871859296483 207.62022592791823 L 138.11871859296483 207.39053254437871 L 138.38316582914572 207.39053254437871 L 138.38316582914572 207.16083916083917 L 138.64761306532662 207.16083916083917 L 138.64761306532662 206.7014523937601 L 139.17650753768845 206.7014523937601 L 139.17650753768845 206.47175901022055 L 139.44095477386935 206.47175901022055 L 139.44095477386935 206.01237224314144 L 139.70540201005025 206.01237224314144 L 139.70540201005025 205.5529854760624 L 140.49874371859295 205.5529854760624 L 140.49874371859295 205.09359870898334 L 141.02763819095478 205.09359870898334 L 141.02763819095478 204.63421194190423 L 141.29208542713567 204.63421194190423 L 141.29208542713567 204.40451855836474 L 141.5565326633166 204.40451855836474 L 141.5565326633166 204.17482517482517 L 141.8209798994975 204.17482517482517 L 141.8209798994975 203.94513179128563 L 142.0854271356784 203.94513179128563 L 142.0854271356784 203.48574502420658 L 142.3498743718593 203.48574502420658 L 142.3498743718593 202.56697149004842 L 142.6143216080402 202.56697149004842 L 142.6143216080402 201.87789133942982 L 143.143216080402 201.87789133942982 L 143.143216080402 200.95911780527166 L 143.67211055276383 200.95911780527166 L 143.67211055276383 200.4997310381926 L 143.93655778894473 200.4997310381926 L 143.93655778894473 200.27003765465304 L 144.20100502512562 200.27003765465304 L 144.20100502512562 199.81065088757393 L 144.72989949748745 199.81065088757393 L 144.72989949748745 199.58095750403444 L 144.99434673366835 199.58095750403444 L 144.99434673366835 199.35126412049487 L 145.52324120603015 199.35126412049487 L 145.52324120603015 198.66218396987625 L 146.05213567839195 198.66218396987625 L 146.05213567839195 197.9731038192577 L 146.31658291457285 197.9731038192577 L 146.31658291457285 197.74341043571815 L 146.84547738693468 197.74341043571815 L 146.84547738693468 196.59494351802044 L 147.10992462311557 196.59494351802044 L 147.10992462311557 196.3652501344809 L 147.6388190954774 196.3652501344809 L 147.6388190954774 195.90586336740188 L 148.1677135678392 195.90586336740188 L 148.1677135678392 195.67616998386228 L 148.4321608040201 195.67616998386228 L 148.4321608040201 195.2167832167832 L 148.696608040201 195.2167832167832 L 148.696608040201 194.98708983324372 L 148.9610552763819 194.98708983324372 L 148.9610552763819 194.52770306616458 L 149.2255025125628 194.52770306616458 L 149.2255025125628 193.37923614846693 L 149.48994974874373 193.37923614846693 L 149.48994974874373 192.6901559978483 L 150.01884422110555 192.6901559978483 L 150.01884422110555 192.00107584722969 L 150.28329145728645 192.00107584722969 L 150.28329145728645 189.0150618612157 L 151.07663316582915 189.0150618612157 L 151.07663316582915 188.78536847767617 L 151.60552763819095 188.78536847767617 L 151.60552763819095 188.55567509413663 L 151.86997487437185 188.55567509413663 L 151.86997487437185 187.866594943518 L 152.39886934673365 187.866594943518 L 152.39886934673365 187.1775147928994 L 152.92776381909547 187.1775147928994 L 152.92776381909547 186.7181280258203 L 153.19221105527637 186.7181280258203 L 153.19221105527637 186.48843464228082 L 153.4566582914573 186.48843464228082 L 153.4566582914573 185.11027434104358 L 154.5144472361809 185.11027434104358 L 154.5144472361809 184.42119419042496 L 154.7788944723618 184.42119419042496 L 154.7788944723618 184.19150080688541 L 155.30778894472363 184.19150080688541 L 155.30778894472363 183.96180742334587 L 156.10113065326632 183.96180742334587 L 156.10113065326632 183.73211403980633 L 157.15891959798995 183.73211403980633 L 157.15891959798995 182.81334050564823 L 157.68781407035175 182.81334050564823 L 157.68781407035175 182.5836471221087 L 157.95226130653265 182.5836471221087 L 157.95226130653265 181.89456697149006 L 158.48115577889445 181.89456697149006 L 158.48115577889445 181.66487358795052 L 159.2744974874372 181.66487358795052 L 159.2744974874372 181.20548682087144 L 159.5389447236181 181.20548682087144 L 159.5389447236181 180.74610005379236 L 159.803391959799 180.74610005379236 L 159.803391959799 180.51640667025282 L 160.0678391959799 180.51640667025282 L 160.0678391959799 180.28671328671328 L 161.65452261306535 180.28671328671328 L 161.65452261306535 179.59763313609471 L 161.91896984924625 179.59763313609471 L 161.91896984924625 178.9085529854761 L 162.71231155778895 178.9085529854761 L 162.71231155778895 178.44916621839695 L 162.97675879396985 178.44916621839695 L 162.97675879396985 177.98977945131793 L 163.24120603015075 177.98977945131793 L 163.24120603015075 177.53039268423885 L 163.77010050251255 177.53039268423885 L 163.77010050251255 177.07100591715977 L 164.03454773869345 177.07100591715977 L 164.03454773869345 175.92253899946206 L 164.29899497487438 175.92253899946206 L 164.29899497487438 175.46315223238298 L 164.82788944723617 175.46315223238298 L 164.82788944723617 174.77407208176442 L 165.09233668341707 174.77407208176442 L 165.09233668341707 174.54437869822482 L 165.35678391959797 174.54437869822482 L 165.35678391959797 174.31468531468533 L 166.6790201005025 174.31468531468533 L 166.6790201005025 173.62560516406666 L 167.47236180904522 173.62560516406666 L 167.47236180904522 172.9365250134481 L 167.73680904522612 172.9365250134481 L 167.73680904522612 172.70683162990855 L 168.00125628140702 172.70683162990855 L 168.00125628140702 172.477138246369 L 168.26570351758795 172.477138246369 L 168.26570351758795 171.7880580957504 L 168.26570351758795 171.3286713286713 L 169.58793969849248 171.3286713286713 L 169.58793969849248 170.86928456159228 L 169.85238693467338 170.86928456159228 L 169.85238693467338 170.18020441097366 L 170.11683417085428 170.18020441097366 L 170.11683417085428 169.95051102743412 L 170.64572864321607 169.95051102743412 L 170.64572864321607 169.49112426035504 L 171.1746231155779 169.49112426035504 L 171.1746231155779 168.34265734265733 L 171.4390703517588 168.34265734265733 L 171.4390703517588 167.42388380849917 L 171.7035175879397 167.42388380849917 L 171.7035175879397 166.73480365788055 L 172.4968592964824 166.73480365788055 L 172.4968592964824 166.50511027434106 L 172.7613065326633 166.50511027434106 L 172.7613065326633 165.35664335664336 L 173.0257537688442 165.35664335664336 L 173.0257537688442 165.12694997310382 L 173.55464824120605 165.12694997310382 L 173.55464824120605 164.66756320602474 L 173.81909547738695 164.66756320602474 L 173.81909547738695 164.4378698224852 L 174.08354271356785 164.4378698224852 L 174.08354271356785 164.2081764389457 L 174.34798994974875 163.97848305540612 L 175.40577889447235 163.97848305540612 L 175.40577889447235 163.74878967186658 L 175.67022613065325 163.74878967186658 L 175.67022613065325 163.51909628832703 L 176.1991206030151 163.51909628832703 L 176.1991206030151 163.05970952124795 L 176.7280150753769 163.05970952124795 L 176.7280150753769 162.8300161377084 L 176.9924623115578 162.8300161377084 L 176.9924623115578 161.68154922001077 L 177.5213567839196 161.68154922001077 L 177.5213567839196 161.22216245293168 L 178.0502512562814 161.22216245293168 L 178.0502512562814 160.7627756858526 L 178.3146984924623 160.7627756858526 L 178.3146984924623 160.30338891877358 L 178.5791457286432 160.30338891877358 L 178.5791457286432 160.07369553523398 L 178.84359296482413 160.07369553523398 L 178.84359296482413 159.15492200107582 L 179.10804020100502 159.15492200107582 L 179.10804020100502 158.46584185045725 L 179.37248743718592 158.46584185045725 L 179.37248743718592 158.00645508337817 L 180.16582914572865 158.00645508337817 L 180.16582914572865 157.77676169983863 L 180.43027638190955 157.77676169983863 L 180.43027638190955 157.31737493275955 L 181.48806532663318 157.31737493275955 L 181.48806532663318 156.3986013986014 L 182.01695979899498 156.3986013986014 L 182.01695979899498 156.16890801506185 L 182.28140703517587 156.16890801506185 L 182.28140703517587 155.47982786444328 L 182.8103015075377 155.47982786444328 L 182.8103015075377 155.25013448090368 L 183.0747487437186 155.25013448090368 L 183.0747487437186 155.02044109736414 L 183.3391959798995 155.02044109736414 L 183.3391959798995 154.79074771382466 L 183.86809045226133 154.79074771382466 L 183.86809045226133 153.8719741796665 L 184.39698492462313 153.8719741796665 L 184.39698492462313 153.64228079612695 L 184.66143216080403 153.64228079612695 L 184.66143216080403 153.4125874125874 L 186.24811557788945 153.4125874125874 L 186.24811557788945 152.2641204948897 L 186.77701005025125 152.2641204948897 L 186.77701005025125 151.5750403442711 L 187.57035175879398 151.5750403442711 L 187.57035175879398 151.11565357719206 L 187.83479899497488 151.11565357719206 L 187.83479899497488 150.88596019365252 L 188.09924623115577 150.88596019365252 L 188.09924623115577 150.65626681011298 L 188.62814070351757 150.65626681011298 L 188.62814070351757 149.96718665949436 L 188.89258793969847 149.96718665949436 L 188.89258793969847 149.73749327595482 L 189.6859296482412 149.73749327595482 L 189.6859296482412 149.50779989241528 L 189.9503768844221 149.50779989241528 L 189.9503768844221 149.27810650887574 L 190.47927135678393 149.27810650887574 L 190.47927135678393 147.4405594405594 L 190.74371859296483 147.4405594405594 L 190.74371859296483 146.75147928994085 L 191.53706030150752 146.75147928994085 L 191.53706030150752 146.5217859064013 L 191.80150753768845 146.5217859064013 L 191.80150753768845 146.29209252286176 L 192.06595477386935 146.29209252286176 L 192.06595477386935 145.83270575578268 L 192.33040201005025 145.83270575578268 L 192.33040201005025 145.60301237224314 L 192.85929648241205 145.60301237224314 L 192.85929648241205 145.3733189887036 L 193.12374371859298 145.3733189887036 L 193.12374371859298 145.14362560516406 L 193.65263819095478 145.14362560516406 L 193.65263819095478 144.91393222162458 L 194.18153266331657 144.91393222162458 L 194.18153266331657 143.76546530392682 L 194.4459798994975 143.76546530392682 L 194.4459798994975 143.53577192038728 L 194.9748743718593 143.53577192038728 L 194.9748743718593 143.3060785368478 L 196.03266331658293 143.3060785368478 L 196.03266331658293 142.84669176976865 L 197.35489949748745 142.84669176976865 L 197.35489949748745 141.92791823561055 L 197.61934673366835 141.92791823561055 L 197.61934673366835 141.698224852071 L 197.88379396984925 141.698224852071 L 197.88379396984925 141.46853146853147 L 198.14824120603015 141.46853146853147 L 198.14824120603015 140.77945131791284 L 198.67713567839198 140.77945131791284 L 198.67713567839198 140.5497579343733 L 199.47047738693468 140.5497579343733 L 199.47047738693468 140.32006455083382 L 200.5282663316583 140.32006455083382 L 200.5282663316583 140.09037116729428 L 201.321608040201 140.09037116729428 L 201.321608040201 139.17159763313612 L 201.5860552763819 139.17159763313612 L 201.5860552763819 138.4825174825175 L 202.1149497487437 138.4825174825175 L 202.1149497487437 138.0231307154384 L 202.37939698492463 138.0231307154384 L 202.37939698492463 137.79343733189887 L 202.64384422110552 137.79343733189887 L 202.64384422110552 137.56374394835933 L 202.90829145728642 137.56374394835933 L 202.90829145728642 137.10435718128025 L 203.17273869346732 137.10435718128025 L 203.17273869346732 136.8746637977407 L 204.49497487437185 136.8746637977407 L 204.49497487437185 136.41527703066168 L 206.08165829145727 136.41527703066168 L 206.08165829145727 136.1855836471221 L 206.3461055276382 136.1855836471221 L 206.3461055276382 135.95589026358255 L 207.4038944723618 135.95589026358255 L 207.4038944723618 135.26681011296398 L 207.66834170854273 135.26681011296398 L 207.66834170854273 135.03711672942438 L 207.93278894472363 135.03711672942438 L 207.93278894472363 134.8074233458849 L 208.19723618090453 134.8074233458849 L 208.19723618090453 134.57772996234536 L 209.25502512562815 134.57772996234536 L 209.25502512562815 134.11834319526628 L 209.78391959798995 134.11834319526628 L 209.78391959798995 133.6589564281872 L 210.04836683417085 133.6589564281872 L 210.04836683417085 133.42926304464766 L 210.57726130653268 133.42926304464766 L 210.57726130653268 132.51048951048955 L 211.37060301507537 132.51048951048955 L 211.37060301507537 131.36202259279185 L 211.6350502512563 131.36202259279185 L 211.6350502512563 131.13232920925225 L 212.6928391959799 131.13232920925225 L 212.6928391959799 130.90263582571276 L 212.9572864321608 130.90263582571276 L 212.9572864321608 130.67294244217322 L 213.2217336683417 130.67294244217322 L 213.2217336683417 129.75416890801506 L 213.75062814070353 129.75416890801506 L 213.75062814070353 129.52447552447552 L 214.80841708542712 129.52447552447552 L 214.80841708542712 129.06508875739644 L 215.60175879396985 129.06508875739644 L 215.60175879396985 128.8353953738569 L 215.86620603015075 128.8353953738569 L 215.86620603015075 128.37600860677782 L 216.39510050251255 128.37600860677782 L 216.39510050251255 127.91662183969879 L 216.92399497487438 127.91662183969879 L 216.92399497487438 127.68692845615925 L 217.18844221105527 127.68692845615925 L 217.18844221105527 127.45723507261965 L 217.45288944723617 127.45723507261965 L 217.45288944723617 126.99784830554063 L 217.71733668341707 126.99784830554063 L 217.71733668341707 126.07907477138247 L 218.5106783919598 126.07907477138247 L 218.5106783919598 125.84938138784293 L 218.7751256281407 125.84938138784293 L 218.7751256281407 125.61968800430338 L 220.09736180904522 125.61968800430338 L 220.09736180904522 125.38999462076384 L 220.36180904522612 125.38999462076384 L 220.36180904522612 124.93060785368476 L 220.62625628140702 124.93060785368476 L 220.62625628140702 124.24152770306614 L 220.89070351758795 124.24152770306614 L 220.89070351758795 123.78214093598712 L 221.15515075376885 123.78214093598712 L 221.15515075376885 123.55244755244752 L 221.41959798994975 123.55244755244752 L 221.41959798994975 123.32275416890803 L 221.68404522613065 123.32275416890803 L 221.68404522613065 122.86336740182895 L 221.94849246231155 122.86336740182895 L 221.94849246231155 122.63367401828935 L 222.21293969849248 122.63367401828935 L 222.21293969849248 122.17428725121033 L 222.74183417085428 122.17428725121033 L 222.74183417085428 121.25551371705217 L 223.535175879397 121.25551371705217 L 223.535175879397 121.02582033351268 L 223.7996231155779 121.02582033351268 L 223.7996231155779 120.79612694997309 L 224.85741206030153 120.79612694997309 L 224.85741206030153 120.56643356643355 L 225.12185929648243 120.56643356643355 L 225.12185929648243 120.10704679935452 L 225.91520100502512 120.10704679935452 L 225.91520100502512 119.87735341581498 L 226.44409547738692 119.87735341581498 L 226.44409547738692 119.4179666487359 L 226.70854271356785 119.4179666487359 L 226.70854271356785 119.18827326519636 L 227.23743718592965 119.18827326519636 L 227.23743718592965 118.95857988165682 L 228.82412060301507 118.95857988165682 L 228.82412060301507 118.49919311457774 L 229.35301507537687 118.49919311457774 L 229.35301507537687 117.81011296395911 L 231.99748743718592 117.81011296395911 L 231.99748743718592 117.35072619688003 L 233.58417085427135 117.35072619688003 L 233.58417085427135 116.66164604626141 L 233.84861809045228 116.66164604626141 L 233.84861809045228 115.97256589564279 L 234.64195979899498 115.97256589564279 L 234.64195979899498 115.74287251210325 L 236.2286432160804 115.74287251210325 L 236.2286432160804 115.05379236148468 L 237.02198492462313 115.05379236148468 L 237.02198492462313 114.36471221086606 L 237.28643216080403 114.36471221086606 L 237.28643216080403 114.13501882732652 L 238.07977386934675 114.13501882732652 L 238.07977386934675 113.4459386767079 L 238.34422110552765 113.4459386767079 L 238.34422110552765 113.21624529316841 L 238.87311557788945 113.21624529316841 L 238.87311557788945 112.52716514254979 L 239.66645728643215 112.52716514254979 L 239.66645728643215 112.29747175901025 L 240.19535175879398 112.29747175901025 L 240.19535175879398 111.83808499193111 L 240.45979899497488 111.83808499193111 L 240.45979899497488 111.60839160839163 L 241.25314070351757 111.60839160839163 L 241.25314070351757 110.919311457773 L 241.51758793969847 110.919311457773 L 241.51758793969847 110.68961807423346 L 242.3109296482412 110.68961807423346 L 242.3109296482412 110.45992469069392 L 242.5753768844221 110.45992469069392 L 242.5753768844221 109.7708445400753 L 243.10427135678393 109.7708445400753 L 243.10427135678393 109.54115115653576 L 243.36871859296483 109.54115115653576 L 243.36871859296483 109.31145777299622 L 244.42650753768845 109.31145777299622 L 244.42650753768845 109.08176438945668 L 245.48429648241205 109.08176438945668 L 245.48429648241205 108.39268423883811 L 245.74874371859298 108.39268423883811 L 245.74874371859298 107.70360408821949 L 248.1287688442211 107.70360408821949 L 248.1287688442211 106.32544378698225 L 248.65766331658293 106.32544378698225 L 248.65766331658293 106.09575040344271 L 249.18655778894473 106.09575040344271 L 249.18655778894473 105.86605701990317 L 249.71545226130655 105.86605701990317 L 249.71545226130655 105.63636363636363 L 249.97989949748745 105.63636363636363 L 249.97989949748745 105.40667025282409 L 250.50879396984925 105.40667025282409 L 250.50879396984925 104.947283485745 L 250.77324120603015 104.947283485745 L 250.77324120603015 104.48789671866598 L 251.03768844221108 104.48789671866598 L 251.03768844221108 104.25820333512638 L 251.30213567839198 104.25820333512638 L 251.30213567839198 104.0285099515869 L 251.56658291457288 104.0285099515869 L 251.56658291457288 103.56912318450782 L 251.83103015075378 103.56912318450782 L 251.83103015075378 102.65034965034965 L 252.09547738693468 102.65034965034965 L 252.09547738693468 102.42065626681011 L 252.62437185929647 102.42065626681011 L 252.62437185929647 102.19096288327057 L 252.88881909547737 102.19096288327057 L 252.88881909547737 101.96126949973103 L 253.1532663316583 101.96126949973103 L 253.1532663316583 101.73157611619155 L 253.4177135678392 101.73157611619155 L 253.4177135678392 101.27218934911241 L 254.2110552763819 101.27218934911241 L 254.2110552763819 101.04249596557287 L 255.79773869346732 101.04249596557287 L 255.79773869346732 100.81280258203338 L 256.32663316582915 100.81280258203338 L 256.32663316582915 100.58310919849379 L 257.11997487437185 100.58310919849379 L 257.11997487437185 100.35341581495425 L 257.38442211055275 100.35341581495425 L 257.38442211055275 100.12372243141476 L 257.6488693467337 100.12372243141476 L 257.6488693467337 99.66433566433568 L 258.7066582914573 99.66433566433568 L 258.7066582914573 99.43464228079608 L 259.5 99.43464228079608 L 259.5 99.2049488972566 L 259.7644472361809 99.2049488972566 L 259.7644472361809 98.74556213017752 L 260.0288944723618 98.74556213017752 L 260.0288944723618 98.51586874663798 L 260.2933417085427 98.51586874663798 L 260.2933417085427 97.59709521247981 L 260.82223618090455 97.59709521247981 L 260.82223618090455 97.36740182894027 L 261.88002512562815 97.36740182894027 L 261.88002512562815 96.67832167832165 L 262.14447236180905 96.67832167832165 L 262.14447236180905 96.44862829478211 L 262.40891959798995 96.44862829478211 L 262.40891959798995 96.21893491124263 L 263.4667085427136 96.21893491124263 L 263.4667085427136 95.75954814416349 L 263.7311557788945 95.75954814416349 L 263.7311557788945 95.30016137708446 L 265.053391959799 95.30016137708446 L 265.053391959799 94.84077461000538 L 265.3178391959799 94.84077461000538 L 265.3178391959799 94.61108122646584 L 266.3756281407035 94.61108122646584 L 266.3756281407035 94.3813878429263 L 266.9045226130653 94.3813878429263 L 266.9045226130653 94.15169445938676 L 267.4334170854271 94.15169445938676 L 267.4334170854271 93.92200107584722 L 268.2267587939698 93.92200107584722 L 268.2267587939698 93.69230769230768 L 268.4912060301507 93.69230769230768 L 268.4912060301507 93.46261430876814 L 268.7556532663317 93.46261430876814 L 268.7556532663317 92.77353415814952 L 269.0201005025126 92.77353415814952 L 269.0201005025126 92.31414739107049 L 269.5489949748744 92.31414739107049 L 269.5489949748744 92.08445400753095 L 269.8134422110553 92.08445400753095 L 269.8134422110553 91.62506724045187 L 270.606783919598 91.62506724045187 L 270.606783919598 91.39537385691233 L 270.8712311557789 91.39537385691233 L 270.8712311557789 91.16568047337279 L 272.1934673366834 91.16568047337279 L 272.1934673366834 90.47660032275417 L 273.5157035175879 90.47660032275417 L 273.5157035175879 90.24690693921463 L 274.3090452261307 90.24690693921463 L 274.3090452261307 90.01721355567508 L 277.7468592964824 90.01721355567508 L 277.7468592964824 89.78752017213554 L 278.0113065326633 89.78752017213554 L 278.0113065326633 89.557826788596 L 278.5402010050251 89.557826788596 L 278.5402010050251 88.63905325443784 L 279.59798994974875 88.63905325443784 L 279.59798994974875 88.40935987089836 L 280.65577889447235 88.40935987089836 L 280.65577889447235 88.17966648735882 L 281.44912060301505 88.17966648735882 L 281.44912060301505 87.72027972027973 L 282.2424623115578 87.72027972027973 L 282.2424623115578 87.4905863367402 L 282.7713567839196 87.4905863367402 L 282.7713567839196 87.03119956966111 L 285.68027638190955 87.03119956966111 L 285.68027638190955 86.57181280258203 L 285.94472361809045 86.57181280258203 L 285.94472361809045 86.34211941904249 L 286.20917085427135 86.34211941904249 L 286.20917085427135 86.11242603550295 L 286.47361809045225 86.11242603550295 L 286.47361809045225 85.88273265196341 L 286.73806532663315 85.88273265196341 L 286.73806532663315 85.19365250134479 L 288.5891959798995 85.19365250134479 L 288.5891959798995 84.96395911780525 L 289.6469849246231 84.96395911780525 L 289.6469849246231 84.50457235072622 L 289.91143216080405 84.50457235072622 L 289.91143216080405 84.27487896718668 L 290.44032663316585 84.27487896718668 L 290.44032663316585 84.04518558364708 L 290.70477386934675 84.04518558364708 L 290.70477386934675 83.8154922001076 L 291.23366834170855 83.8154922001076 L 291.23366834170855 83.58579881656806 L 292.02701005025125 83.58579881656806 L 292.02701005025125 83.12641204948898 L 292.5559045226131 83.12641204948898 L 292.5559045226131 82.6670252824099 L 293.0847989949749 82.6670252824099 L 293.0847989949749 82.20763851533081 L 294.1425879396985 82.20763851533081 L 294.1425879396985 81.97794513179127 L 294.4070351758794 81.97794513179127 L 294.4070351758794 81.74825174825173 L 294.9359296482412 81.74825174825173 L 294.9359296482412 81.28886498117265 L 295.2003768844221 81.28886498117265 L 295.2003768844221 80.82947821409363 L 295.7292713567839 80.82947821409363 L 295.7292713567839 80.59978483055409 L 295.9937185929648 80.59978483055409 L 295.9937185929648 80.37009144701449 L 296.2581658291457 80.37009144701449 L 296.2581658291457 80.14039806347495 L 296.5226130653266 80.14039806347495 L 296.5226130653266 79.68101129639592 L 296.7870603015075 79.68101129639592 L 296.7870603015075 79.22162452931684 L 297.3159547738693 79.22162452931684 L 297.3159547738693 78.9919311457773 L 297.8448492462312 78.9919311457773 L 297.8448492462312 77.8434642280796 L 298.6381909547739 77.8434642280796 L 298.6381909547739 77.61377084454011 L 298.9026381909548 77.61377084454011 L 298.9026381909548 77.38407746100052 L 299.4315326633166 77.38407746100052 L 299.4315326633166 77.15438407746097 L 299.6959798994975 77.15438407746097 L 299.6959798994975 76.92469069392149 L 301.018216080402 76.92469069392149 L 301.018216080402 76.69499731038195 L 301.2826633165829 76.69499731038195 L 301.2826633165829 76.46530392684235 L 302.3404522613065 76.46530392684235 L 302.3404522613065 75.77622377622379 L 304.1915829145729 75.77622377622379 L 304.1915829145729 75.54653039268425 L 304.7204773869347 75.54653039268425 L 304.7204773869347 74.85745024206562 L 306.8360552763819 74.85745024206562 L 306.8360552763819 74.62775685852608 L 307.3649497487437 74.62775685852608 L 307.3649497487437 74.39806347498654 L 308.1582914572864 74.39806347498654 L 308.1582914572864 73.93867670790752 L 309.48052763819095 73.93867670790752 L 309.48052763819095 73.70898332436792 L 312.9183417085427 73.70898332436792 L 312.9183417085427 73.01990317374936 L 313.71168341708545 73.01990317374936 L 313.71168341708545 72.79020979020981 L 313.97613065326635 72.79020979020981 L 313.97613065326635 72.56051640667022 L 314.24057788944725 72.56051640667022 L 314.24057788944725 71.87143625605165 L 314.50502512562815 71.87143625605165 L 314.50502512562815 71.64174287251205 L 314.76947236180905 71.64174287251205 L 314.76947236180905 70.95266272189349 L 315.82726130653265 70.95266272189349 L 315.82726130653265 70.72296933835395 L 316.6206030150754 70.72296933835395 L 316.6206030150754 70.03388918773538 L 317.4139447236181 70.03388918773538 L 317.4139447236181 69.57450242065624 L 317.9428391959799 69.57450242065624 L 317.9428391959799 69.3448090371167 L 318.2072864321608 69.3448090371167 L 318.2072864321608 69.11511565357722 L 318.4717336683417 69.11511565357722 L 318.4717336683417 68.88542227003768 L 318.73618090452266 68.88542227003768 L 318.73618090452266 68.4260355029586 L 319.26507537688445 68.4260355029586 L 319.26507537688445 67.73695535233998 L 319.79396984924625 67.73695535233998 L 319.79396984924625 67.50726196880044 L 320.05841708542715 67.50726196880044 L 320.05841708542715 67.2775685852609 L 320.58731155778895 67.2775685852609 L 320.58731155778895 66.58848843464227 L 321.6451005025126 66.58848843464227 L 321.6451005025126 66.35879505110273 L 322.1739949748744 66.35879505110273 L 322.1739949748744 65.66971490048411 L 322.4384422110553 65.66971490048411 L 322.4384422110553 65.21032813340508 L 323.4962311557789 65.21032813340508 L 323.4962311557789 64.98063474986549 L 324.0251256281407 64.98063474986549 L 324.0251256281407 64.75094136632595 L 324.5540201005025 64.75094136632595 L 324.5540201005025 64.52124798278646 L 326.14070351758795 64.52124798278646 L 326.14070351758795 64.29155459924692 L 326.66959798994975 64.29155459924692 L 326.66959798994975 64.06186121570738 L 327.46293969849245 64.06186121570738 L 327.46293969849245 63.6024744486283 L 327.99183417085425 63.6024744486283 L 327.99183417085425 63.37278106508876 L 329.3140703517588 63.37278106508876 L 329.3140703517588 63.14308768154922 L 331.95854271356785 63.14308768154922 L 331.95854271356785 62.91339429800968 L 333.01633165829145 62.91339429800968 L 333.01633165829145 62.454007530930596 L 333.28077889447235 62.454007530930596 L 333.28077889447235 62.22431414739111 L 333.80967336683415 62.22431414739111 L 333.80967336683415 61.994620763851515 L 335.6608040201005 61.994620763851515 L 335.6608040201005 61.764927380311974 L 337.77638190954775 61.764927380311974 L 337.77638190954775 61.53523399677249 L 338.04082914572865 61.53523399677249 L 338.04082914572865 61.30554061323295 L 338.56972361809045 61.30554061323295 L 338.56972361809045 61.07584722969335 L 339.09861809045225 61.07584722969335 L 339.09861809045225 60.84615384615381 L 339.36306532663315 60.84615384615381 L 339.36306532663315 60.61646046261433 L 339.891959798995 60.61646046261433 L 339.891959798995 60.38676707907479 L 340.1564070351759 60.38676707907479 L 340.1564070351759 59.927380311995705 L 340.6853015075377 59.927380311995705 L 340.6853015075377 59.467993544916624 L 341.2141959798995 59.467993544916624 L 341.2141959798995 59.23830016137708 L 343.06532663316585 59.23830016137708 L 343.06532663316585 58.778913394298 L 343.32977386934675 58.778913394298 L 343.32977386934675 58.54922001075846 L 343.59422110552765 58.54922001075846 L 343.59422110552765 58.31952662721892 L 343.85866834170855 58.31952662721892 L 343.85866834170855 58.08983324367938 L 345.445351758794 58.08983324367938 L 345.445351758794 57.86013986013984 L 346.7675879396985 57.86013986013984 L 346.7675879396985 57.630446476600355 L 350.20540201005025 57.630446476600355 L 350.20540201005025 57.400753093060814 L 351.52763819095475 57.400753093060814 L 351.52763819095475 56.94136632598173 L 352.0565326633166 56.94136632598173 L 352.0565326633166 56.71167294244219 L 353.9076633165829 56.71167294244219 L 353.9076633165829 56.252286175363054 L 355.75879396984925 56.252286175363054 L 355.75879396984925 55.79289940828403 L 356.28768844221105 55.79289940828403 L 356.28768844221105 55.56320602474449 L 358.4032663316583 55.56320602474449 L 358.4032663316583 55.33351264120495 L 359.4610552763819 55.33351264120495 L 359.4610552763819 55.10381925766541 L 361.04773869346735 55.10381925766541 L 361.04773869346735 54.874125874125866 L 362.63442211055275 54.874125874125866 L 362.63442211055275 54.644432490586325 L 363.9566582914573 54.644432490586325 L 363.9566582914573 54.414739107046785 L 364.75 54.414739107046785 L 364.75 54.185045723507244 L 365.5433417085427 54.185045723507244 L 365.5433417085427 53.9553523399677 L 367.65891959798995 53.9553523399677 L 367.65891959798995 53.72565895642822 L 367.92336683417085 53.72565895642822 L 367.92336683417085 53.49596557288868 L 368.9811557788945 53.49596557288868 L 368.9811557788945 53.26627218934908 L 370.0389447236181 53.26627218934908 L 370.0389447236181 53.0365788058096 L 371.0967336683417 53.0365788058096 L 371.0967336683417 52.80688542227006 L 371.89007537688445 52.80688542227006 L 371.89007537688445 52.577192038730516 L 372.41896984924625 52.577192038730516 L 372.41896984924625 51.65841850457235 L 372.68341708542715 51.65841850457235 L 372.68341708542715 50.96933835395373 L 374.0056532663317 50.96933835395373 L 374.0056532663317 50.73964497041425 L 374.5345477386935 50.73964497041425 L 374.5345477386935 50.50995158687465 L 378.23680904522615 50.50995158687465 L 378.23680904522615 50.28025820333511 L 378.50125628140705 50.28025820333511 L 378.50125628140705 49.820871436256084 L 379.03015075376885 49.820871436256084 L 379.03015075376885 49.59117805271649 L 380.35238693467335 49.59117805271649 L 380.35238693467335 49.361484669176946 L 380.61683417085425 49.361484669176946 L 380.61683417085425 49.13179128563746 L 381.41017587939695 49.13179128563746 L 381.41017587939695 48.90209790209792 L 381.67462311557784 48.90209790209792 L 381.67462311557784 48.67240451855838 L 382.2035175879397 48.67240451855838 L 382.2035175879397 48.44271113501884 L 383.7902010050251 48.44271113501884 L 383.7902010050251 47.98332436793976 L 384.054648241206 47.98332436793976 L 384.054648241206 47.75363098440022 L 385.11243718592965 47.75363098440022 L 385.11243718592965 47.294244217321136 L 385.37688442211055 47.294244217321136 L 385.37688442211055 47.064550833781595 L 385.64133165829145 47.064550833781595 L 385.64133165829145 46.605164066702514 L 387.7569095477387 46.605164066702514 L 387.7569095477387 46.14577729962343 L 388.8146984924623 46.14577729962343 L 388.8146984924623 45.68639053254435 L 390.40138190954775 45.68639053254435 L 390.40138190954775 45.45669714900481 L 390.66582914572865 45.45669714900481 L 390.66582914572865 45.22700376546533 L 391.19472361809045 45.22700376546533 L 391.19472361809045 44.997310381925786 L 391.45917085427135 44.997310381925786 L 391.45917085427135 44.76761699838619 L 391.98806532663315 44.76761699838619 L 391.98806532663315 44.308230231307164 L 395.42587939698495 44.308230231307164 L 395.42587939698495 44.07853684776762 L 397.54145728643215 44.07853684776762 L 397.54145728643215 43.84884346422808 L 398.5992462311558 43.84884346422808 L 398.5992462311558 43.61915008068854 L 399.3925879396985 43.61915008068854 L 399.3925879396985 42.93006993006992 L 399.9214824120603 42.93006993006992 L 399.9214824120603 42.70037654653038 L 400.97927135678395 42.70037654653038 L 400.97927135678395 42.47068316299084 L 402.83040201005025 42.47068316299084 L 402.83040201005025 42.240989779451354 L 403.88819095477385 42.240989779451354 L 403.88819095477385 41.551909628832675 L 407.0615577889447 41.551909628832675 L 407.0615577889447 41.32221624529319 L 409.44158291457285 41.32221624529319 L 409.44158291457285 41.09252286175365 L 413.1438442211055 41.09252286175365 L 413.1438442211055 40.63313609467457 L 416.05276381909545 40.63313609467457 L 416.05276381909545 40.17374932759549 L 416.3172110552764 40.17374932759549 L 416.3172110552764 39.94405594405595 L 416.5816582914573 39.94405594405595 L 416.5816582914573 39.714362560516406 L 419.75502512562815 39.714362560516406 L 419.75502512562815 39.484669176976865 L 420.01947236180905 39.484669176976865 L 420.01947236180905 39.254975793437325 L 420.81281407035175 39.254975793437325 L 420.81281407035175 39.025282409897784 L 421.3417085427136 39.025282409897784 L 421.3417085427136 38.79558902635824 L 421.8706030150754 38.79558902635824 L 421.8706030150754 38.5658956428187 L 422.1350502512563 38.5658956428187 L 422.1350502512563 38.33620225927922 L 425.30841708542715 38.33620225927922 L 425.30841708542715 37.87681549220008 L 426.36620603015075 37.87681549220008 L 426.36620603015075 37.417428725121056 L 427.4239949748744 37.417428725121056 L 427.4239949748744 37.187735341581515 L 427.6884422110553 37.187735341581515 L 427.6884422110553 36.728348574502434 L 430.59736180904525 36.728348574502434 L 430.59736180904525 36.49865519096289 L 432.71293969849245 36.49865519096289 L 432.71293969849245 36.03926842388381 L 433.50628140703515 36.03926842388381 L 433.50628140703515 35.80957504034427 L 434.5640703517588 35.80957504034427 L 434.5640703517588 35.57988165680473 L 436.679648241206 35.57988165680473 L 436.679648241206 35.35018827326519 L 436.9440954773869 35.35018827326519 L 436.9440954773869 35.12049488972565 L 437.20854271356785 35.12049488972565 L 437.20854271356785 34.89080150618611 L 437.73743718592965 34.89080150618611 L 437.73743718592965 34.66110812264657 L 438.00188442211055 34.66110812264657 L 438.00188442211055 33.972027972027945 L 439.58856783919595 33.972027972027945 L 439.58856783919595 33.74233458848846 L 440.9108040201005 33.74233458848846 L 440.9108040201005 33.51264120494892 L 441.1752512562814 33.51264120494892 L 441.1752512562814 33.28294782140938 L 441.9685929648241 33.28294782140938 L 441.9685929648241 33.05325443786978 L 442.233040201005 33.05325443786978 L 442.233040201005 32.59386767079076 L 443.29082914572865 32.59386767079076 L 443.29082914572865 32.36417428725122 L 446.1997487437186 32.36417428725122 L 446.1997487437186 32.134480903711676 L 447.2575376884422 32.134480903711676 L 447.2575376884422 31.904787520172135 L 447.78643216080405 31.904787520172135 L 447.78643216080405 31.675094136632595 L 448.05087939698495 31.675094136632595 L 448.05087939698495 31.44540075309311 L 449.10866834170855 31.44540075309311 L 449.10866834170855 31.215707369553513 L 449.37311557788945 31.215707369553513 L 449.37311557788945 30.986013986013972 L 450.4309045226131 30.986013986013972 L 450.4309045226131 30.756320602474432 L 451.2242462311558 30.756320602474432 L 451.2242462311558 30.526627218934948 L 453.86871859296485 30.526627218934948 L 453.86871859296485 30.29693383539535 L 455.19095477386935 30.29693383539535 L 455.19095477386935 30.06724045185581 L 457.8354271356784 30.06724045185581 L 457.8354271356784 29.837547068316326 L 458.893216080402 29.837547068316326 L 458.893216080402 29.607853684776785 L 460.4798994974874 29.607853684776785 L 460.4798994974874 29.378160301237187 L 461.53768844221105 29.378160301237187 L 461.53768844221105 29.148466917697704 L 461.80213567839195 29.148466917697704 L 461.80213567839195 28.918773534158163 L 462.59547738693465 28.918773534158163 L 462.59547738693465 28.689080150618622 L 464.7110552763819 28.689080150618622 L 464.7110552763819 28.45938676707908 L 465.5043969849246 28.45938676707908 L 465.5043969849246 28.22969338353954 L 466.0332914572864 28.22969338353954 L 466.0332914572864 28 L 470 28" stroke-linejoin="bevel" stroke-miterlimit="10" stroke-width="2" stroke-dasharray="6"/></g><g><path fill="none" stroke="none"/><path fill="none" stroke="#616161" paint-order="fill stroke markers" d=" M 49 455 L 91.1 412.3 L 133.2 369.6 L 175.3 326.9 L 217.4 284.2 L 259.5 241.5 L 301.6 198.79999999999995 L 343.70000000000005 156.09999999999997 L 385.8 113.39999999999998 L 427.90000000000003 70.69999999999999 L 470 28" stroke-linejoin="bevel" stroke-miterlimit="10" stroke-dasharray="6"/></g></g></g><g><g clip-path="url(#ZhXLksTqBnlS)"><g><g/><g><path fill="#ffffff" stroke="#e5e5e5" paint-order="fill stroke markers" d=" M 368.4375 382 L 460 382 L 460 445 L 368.4375 445 L 368.4375 382 Z" fill-opacity="0.95" stroke-linejoin="bevel" stroke-miterlimit="10" stroke-opacity="0.5"/><text fill="#444444" stroke="none" font-family="helvetica" font-size="10pt" font-style="normal" font-weight="normal" text-decoration="normal" x="403.4375" y="402" text-anchor="start" dominant-baseline="central">+ 40 yrs</text><g><path fill="none" stroke="#536dfe" paint-order="fill stroke markers" d=" M 378.4375 402 L 398.4375 402" stroke-linejoin="bevel" stroke-miterlimit="10" stroke-width="2" stroke-opacity="0.7"/></g><text fill="#444444" stroke="none" font-family="helvetica" font-size="10pt" font-style="normal" font-weight="normal" text-decoration="normal" x="403.4375" y="425" text-anchor="start" dominant-baseline="central">&lt; 40 yrs</text><g><path fill="none" stroke="#00BFA5" paint-order="fill stroke markers" d=" M 378.4375 425 L 398.4375 425" stroke-linejoin="bevel" stroke-miterlimit="10" stroke-width="2" stroke-dasharray="6"/></g></g></g></g><g fill="#444444"><path fill="" stroke="none" d=""/><g transform="translate(49,23)"><path fill="none" stroke="none"/><text fill="" stroke="none" font-family="Helvetica Neue" font-size="10pt" font-style="normal" font-weight="bold" text-decoration="normal" x="0" y="0" text-anchor="start" dominant-baseline="text-after-edge">ROC curve by age group (AUC [+40 yrs]=0.771 | AUC [&lt;40 yrs]=0.760)</text></g></g></g><g><g fill="#444444"><path fill="none" stroke="black" paint-order="fill stroke markers" d=" M 49 455 L 470 455" stroke-linejoin="bevel" stroke-miterlimit="10"/><path fill="none" stroke="black" paint-order="fill stroke markers" d=" M 49 461 L 49 453" stroke-linejoin="bevel" stroke-miterlimit="10"/><path fill="none" stroke="black" paint-order="fill stroke markers" d=" M 133 461 L 133 453" stroke-linejoin="bevel" stroke-miterlimit="10"/><path fill="none" stroke="black" paint-order="fill stroke markers" d=" M 217 461 L 217 453" stroke-linejoin="bevel" stroke-miterlimit="10"/><path fill="none" stroke="black" paint-order="fill stroke markers" d=" M 302 461 L 302 453" stroke-linejoin="bevel" stroke-miterlimit="10"/><path fill="none" stroke="black" paint-order="fill stroke markers" d=" M 386 461 L 386 453" stroke-linejoin="bevel" stroke-miterlimit="10"/><path fill="none" stroke="black" paint-order="fill stroke markers" d=" M 470 461 L 470 453" stroke-linejoin="bevel" stroke-miterlimit="10"/><path fill="none" stroke="black" paint-order="fill stroke markers" d=" M 49 459 L 49 455" stroke-linejoin="bevel" stroke-miterlimit="10"/><path fill="none" stroke="black" paint-order="fill stroke markers" d=" M 66 459 L 66 455" stroke-linejoin="bevel" stroke-miterlimit="10"/><path fill="none" stroke="black" paint-order="fill stroke markers" d=" M 83 459 L 83 455" stroke-linejoin="bevel" stroke-miterlimit="10"/><path fill="none" stroke="black" paint-order="fill stroke markers" d=" M 100 459 L 100 455" stroke-linejoin="bevel" stroke-miterlimit="10"/><path fill="none" stroke="black" paint-order="fill stroke markers" d=" M 116 459 L 116 455" stroke-linejoin="bevel" stroke-miterlimit="10"/><path fill="none" stroke="black" paint-order="fill stroke markers" d=" M 133 459 L 133 455" stroke-linejoin="bevel" stroke-miterlimit="10"/><path fill="none" stroke="black" paint-order="fill stroke markers" d=" M 150 459 L 150 455" stroke-linejoin="bevel" stroke-miterlimit="10"/><path fill="none" stroke="black" paint-order="fill stroke markers" d=" M 167 459 L 167 455" stroke-linejoin="bevel" stroke-miterlimit="10"/><path fill="none" stroke="black" paint-order="fill stroke markers" d=" M 184 459 L 184 455" stroke-linejoin="bevel" stroke-miterlimit="10"/><path fill="none" stroke="black" paint-order="fill stroke markers" d=" M 201 459 L 201 455" stroke-linejoin="bevel" stroke-miterlimit="10"/><path fill="none" stroke="black" paint-order="fill stroke markers" d=" M 217 459 L 217 455" stroke-linejoin="bevel" stroke-miterlimit="10"/><path fill="none" stroke="black" paint-order="fill stroke markers" d=" M 234 459 L 234 455" stroke-linejoin="bevel" stroke-miterlimit="10"/><path fill="none" stroke="black" paint-order="fill stroke markers" d=" M 251 459 L 251 455" stroke-linejoin="bevel" stroke-miterlimit="10"/><path fill="none" stroke="black" paint-order="fill stroke markers" d=" M 268 459 L 268 455" stroke-linejoin="bevel" stroke-miterlimit="10"/><path fill="none" stroke="black" paint-order="fill stroke markers" d=" M 285 459 L 285 455" stroke-linejoin="bevel" stroke-miterlimit="10"/><path fill="none" stroke="black" paint-order="fill stroke markers" d=" M 302 459 L 302 455" stroke-linejoin="bevel" stroke-miterlimit="10"/><path fill="none" stroke="black" paint-order="fill stroke markers" d=" M 318 459 L 318 455" stroke-linejoin="bevel" stroke-miterlimit="10"/><path fill="none" stroke="black" paint-order="fill stroke markers" d=" M 335 459 L 335 455" stroke-linejoin="bevel" stroke-miterlimit="10"/><path fill="none" stroke="black" paint-order="fill stroke markers" d=" M 352 459 L 352 455" stroke-linejoin="bevel" stroke-miterlimit="10"/><path fill="none" stroke="black" paint-order="fill stroke markers" d=" M 369 459 L 369 455" stroke-linejoin="bevel" stroke-miterlimit="10"/><path fill="none" stroke="black" paint-order="fill stroke markers" d=" M 386 459 L 386 455" stroke-linejoin="bevel" stroke-miterlimit="10"/><path fill="none" stroke="black" paint-order="fill stroke markers" d=" M 403 459 L 403 455" stroke-linejoin="bevel" stroke-miterlimit="10"/><path fill="none" stroke="black" paint-order="fill stroke markers" d=" M 419 459 L 419 455" stroke-linejoin="bevel" stroke-miterlimit="10"/><path fill="none" stroke="black" paint-order="fill stroke markers" d=" M 436 459 L 436 455" stroke-linejoin="bevel" stroke-miterlimit="10"/><path fill="none" stroke="black" paint-order="fill stroke markers" d=" M 453 459 L 453 455" stroke-linejoin="bevel" stroke-miterlimit="10"/><path fill="" stroke="black" paint-order="fill stroke markers" d=" M 470 459 L 470 455" stroke-linejoin="bevel" stroke-miterlimit="10"/><g transform="translate(49,466) rotate(0,0,0)"><text fill="" stroke="none" font-family="helvetica" font-size="8pt" font-style="normal" font-weight="normal" text-decoration="normal" x="0" y="0" text-anchor="middle" dominant-baseline="hanging">0</text><g transform="rotate(0,0,0) translate(-49,-466) translate(133,466) rotate(0,0,0)"><text fill="" stroke="none" font-family="helvetica" font-size="8pt" font-style="normal" font-weight="normal" text-decoration="normal" x="0" y="0" text-anchor="middle" dominant-baseline="hanging">0.2</text><g transform="rotate(0,0,0) translate(-133,-466) translate(217,466) rotate(0,0,0)"><text fill="" stroke="none" font-family="helvetica" font-size="8pt" font-style="normal" font-weight="normal" text-decoration="normal" x="0" y="0" text-anchor="middle" dominant-baseline="hanging">0.4</text><g transform="rotate(0,0,0) translate(-217,-466) translate(302,466) rotate(0,0,0)"><text fill="" stroke="none" font-family="helvetica" font-size="8pt" font-style="normal" font-weight="normal" text-decoration="normal" x="0" y="0" text-anchor="middle" dominant-baseline="hanging">0.6</text><g transform="rotate(0,0,0) translate(-302,-466) translate(386,466) rotate(0,0,0)"><text fill="" stroke="none" font-family="helvetica" font-size="8pt" font-style="normal" font-weight="normal" text-decoration="normal" x="0" y="0" text-anchor="middle" dominant-baseline="hanging">0.8</text><g transform="rotate(0,0,0) translate(-386,-466) translate(470,466) rotate(0,0,0)"><text fill="" stroke="none" font-family="helvetica" font-size="8pt" font-style="normal" font-weight="normal" text-decoration="normal" x="0" y="0" text-anchor="middle" dominant-baseline="hanging">1</text><g transform="rotate(0,0,0) translate(-470,-466) translate(260,484) rotate(0,0,0)"><text fill="" stroke="none" font-family="Helvetica Neue" font-size="10pt" font-style="italic" font-weight="normal" text-decoration="normal" x="0" y="0" text-anchor="middle" dominant-baseline="hanging">False Positive Rate (FPR)</text><g transform="rotate(0,0,0) translate(-260,-484)"/></g></g></g></g></g></g></g></g><g fill="#444444"><path fill="none" stroke="black" paint-order="fill stroke markers" d=" M 49 455 L 49 28" stroke-linejoin="bevel" stroke-miterlimit="10"/><path fill="none" stroke="black" paint-order="fill stroke markers" d=" M 43 455 L 51 455" stroke-linejoin="bevel" stroke-miterlimit="10"/><path fill="none" stroke="black" paint-order="fill stroke markers" d=" M 43 370 L 51 370" stroke-linejoin="bevel" stroke-miterlimit="10"/><path fill="none" stroke="black" paint-order="fill stroke markers" d=" M 43 284 L 51 284" stroke-linejoin="bevel" stroke-miterlimit="10"/><path fill="none" stroke="black" paint-order="fill stroke markers" d=" M 43 199 L 51 199" stroke-linejoin="bevel" stroke-miterlimit="10"/><path fill="none" stroke="black" paint-order="fill stroke markers" d=" M 43 113 L 51 113" stroke-linejoin="bevel" stroke-miterlimit="10"/><path fill="none" stroke="black" paint-order="fill stroke markers" d=" M 43 28 L 51 28" stroke-linejoin="bevel" stroke-miterlimit="10"/><path fill="none" stroke="black" paint-order="fill stroke markers" d=" M 45 455 L 49 455" stroke-linejoin="bevel" stroke-miterlimit="10"/><path fill="none" stroke="black" paint-order="fill stroke markers" d=" M 45 438 L 49 438" stroke-linejoin="bevel" stroke-miterlimit="10"/><path fill="none" stroke="black" paint-order="fill stroke markers" d=" M 45 421 L 49 421" stroke-linejoin="bevel" stroke-miterlimit="10"/><path fill="none" stroke="black" paint-order="fill stroke markers" d=" M 45 404 L 49 404" stroke-linejoin="bevel" stroke-miterlimit="10"/><path fill="none" stroke="black" paint-order="fill stroke markers" d=" M 45 387 L 49 387" stroke-linejoin="bevel" stroke-miterlimit="10"/><path fill="none" stroke="black" paint-order="fill stroke markers" d=" M 45 370 L 49 370" stroke-linejoin="bevel" stroke-miterlimit="10"/><path fill="none" stroke="black" paint-order="fill stroke markers" d=" M 45 353 L 49 353" stroke-linejoin="bevel" stroke-miterlimit="10"/><path fill="none" stroke="black" paint-order="fill stroke markers" d=" M 45 335 L 49 335" stroke-linejoin="bevel" stroke-miterlimit="10"/><path fill="none" stroke="black" paint-order="fill stroke markers" d=" M 45 318 L 49 318" stroke-linejoin="bevel" stroke-miterlimit="10"/><path fill="none" stroke="black" paint-order="fill stroke markers" d=" M 45 301 L 49 301" stroke-linejoin="bevel" stroke-miterlimit="10"/><path fill="none" stroke="black" paint-order="fill stroke markers" d=" M 45 284 L 49 284" stroke-linejoin="bevel" stroke-miterlimit="10"/><path fill="none" stroke="black" paint-order="fill stroke markers" d=" M 45 267 L 49 267" stroke-linejoin="bevel" stroke-miterlimit="10"/><path fill="none" stroke="black" paint-order="fill stroke markers" d=" M 45 250 L 49 250" stroke-linejoin="bevel" stroke-miterlimit="10"/><path fill="none" stroke="black" paint-order="fill stroke markers" d=" M 45 233 L 49 233" stroke-linejoin="bevel" stroke-miterlimit="10"/><path fill="none" stroke="black" paint-order="fill stroke markers" d=" M 45 216 L 49 216" stroke-linejoin="bevel" stroke-miterlimit="10"/><path fill="none" stroke="black" paint-order="fill stroke markers" d=" M 45 199 L 49 199" stroke-linejoin="bevel" stroke-miterlimit="10"/><path fill="none" stroke="black" paint-order="fill stroke markers" d=" M 45 182 L 49 182" stroke-linejoin="bevel" stroke-miterlimit="10"/><path fill="none" stroke="black" paint-order="fill stroke markers" d=" M 45 165 L 49 165" stroke-linejoin="bevel" stroke-miterlimit="10"/><path fill="none" stroke="black" paint-order="fill stroke markers" d=" M 45 148 L 49 148" stroke-linejoin="bevel" stroke-miterlimit="10"/><path fill="none" stroke="black" paint-order="fill stroke markers" d=" M 45 130 L 49 130" stroke-linejoin="bevel" stroke-miterlimit="10"/><path fill="none" stroke="black" paint-order="fill stroke markers" d=" M 45 113 L 49 113" stroke-linejoin="bevel" stroke-miterlimit="10"/><path fill="none" stroke="black" paint-order="fill stroke markers" d=" M 45 96 L 49 96" stroke-linejoin="bevel" stroke-miterlimit="10"/><path fill="none" stroke="black" paint-order="fill stroke markers" d=" M 45 79 L 49 79" stroke-linejoin="bevel" stroke-miterlimit="10"/><path fill="none" stroke="black" paint-order="fill stroke markers" d=" M 45 62 L 49 62" stroke-linejoin="bevel" stroke-miterlimit="10"/><path fill="none" stroke="black" paint-order="fill stroke markers" d=" M 45 45 L 49 45" stroke-linejoin="bevel" stroke-miterlimit="10"/><path fill="" stroke="black" paint-order="fill stroke markers" d=" M 45 28 L 49 28" stroke-linejoin="bevel" stroke-miterlimit="10"/><g transform="translate(38,455) rotate(0,0,0)"><text fill="" stroke="none" font-family="helvetica" font-size="8pt" font-style="normal" font-weight="normal" text-decoration="normal" x="0" y="0" text-anchor="end" dominant-baseline="central">0</text><g transform="rotate(0,0,0) translate(-38,-455) translate(38,370) rotate(0,0,0)"><text fill="" stroke="none" font-family="helvetica" font-size="8pt" font-style="normal" font-weight="normal" text-decoration="normal" x="0" y="0" text-anchor="end" dominant-baseline="central">0.2</text><g transform="rotate(0,0,0) translate(-38,-370) translate(38,284) rotate(0,0,0)"><text fill="" stroke="none" font-family="helvetica" font-size="8pt" font-style="normal" font-weight="normal" text-decoration="normal" x="0" y="0" text-anchor="end" dominant-baseline="central">0.4</text><g transform="rotate(0,0,0) translate(-38,-284) translate(38,199) rotate(0,0,0)"><text fill="" stroke="none" font-family="helvetica" font-size="8pt" font-style="normal" font-weight="normal" text-decoration="normal" x="0" y="0" text-anchor="end" dominant-baseline="central">0.6</text><g transform="rotate(0,0,0) translate(-38,-199) translate(38,113) rotate(0,0,0)"><text fill="" stroke="none" font-family="helvetica" font-size="8pt" font-style="normal" font-weight="normal" text-decoration="normal" x="0" y="0" text-anchor="end" dominant-baseline="central">0.8</text><g transform="rotate(0,0,0) translate(-38,-113) translate(38,28) rotate(0,0,0)"><text fill="" stroke="none" font-family="helvetica" font-size="8pt" font-style="normal" font-weight="normal" text-decoration="normal" x="0" y="0" text-anchor="end" dominant-baseline="central">1</text><g transform="rotate(0,0,0) translate(-38,-28) translate(16,242) rotate(-90,0,0)"><text fill="" stroke="none" font-family="Helvetica Neue" font-size="10pt" font-style="italic" font-weight="normal" text-decoration="normal" x="0" y="0" text-anchor="middle" dominant-baseline="alphabetic">True Positive Rate (TPR)</text><g transform="rotate(90,0,0) translate(-16,-242)"/></g></g></g></g></g></g></g></g><g clip-path="url(#rclwQcGHVbiV)"><g/></g></g></g></svg>