<svg version="1.1" xmlns="http://www.w3.org/2000/svg" xmlns:xlink="http://www.w3.org/1999/xlink" width="450" height="400" style="width: 450px; height: 400px;"><defs><clipPath id="DIQRJKtvpuLa"><path fill="none" stroke="none" d=" M 31 28 L 420 28 L 420 376 L 31 376 L 31 28 Z"/></clipPath><clipPath id="VeRKCZoiWmzc"><path fill="none" stroke="none" d=" M 31 28 L 420 28 L 420 376 L 31 376 L 31 28 Z"/></clipPath></defs><g><g transform="scale(1,1) translate(0.5,0.5)"><rect fill="#FFFFFF" stroke="none" x="0" y="0" width="450" height="400"/><rect fill="#ffffff" stroke="none" x="0" y="0" width="450" height="400"/><rect fill="#FFFFFF" stroke="none" x="31" y="28" width="389" height="348"/><rect fill="#ffffff" stroke="none" x="31" y="28" width="389" height="348"/><g><rect fill="none" stroke="#e5e5e5" x="31" y="28" width="389" height="348" stroke-linejoin="bevel" stroke-miterlimit="10"/></g><g clip-path="url(#DIQRJKtvpuLa)"><g><g><path fill="none" stroke="none"/><rect fill="#00BFA5" stroke="none" x="48.6818181818182" y="316.74084124830387" width="35.36363636363636" height="43.440976933514264"/><rect fill="#00BFA5" stroke="none" x="84.04545454545456" y="124.08955223880591" width="35.363636363636374" height="236.09226594301222"/><rect fill="#00BFA5" stroke="none" x="119.40909090909093" y="43.818181818181756" width="35.363636363636374" height="316.3636363636364"/><rect fill="#00BFA5" stroke="none" x="154.7727272727273" y="82.53731343283579" width="35.363636363636374" height="277.64450474898234"/><rect fill="#00BFA5" stroke="none" x="190.13636363636368" y="153.36499321573942" width="35.36363636363632" height="206.8168249660787"/><rect fill="#00BFA5" stroke="none" x="225.5" y="190.19538670284933" width="35.36363636363643" height="169.9864314789688"/><rect fill="#00BFA5" stroke="none" x="260.86363636363643" y="242.13568521031203" width="35.36363636363632" height="118.0461329715061"/><rect fill="#00BFA5" stroke="none" x="296.22727272727275" y="273.2998643147896" width="35.363636363636374" height="86.88195386702853"/><rect fill="#00BFA5" stroke="none" x="331.5909090909091" y="324.2957937584803" width="35.36363636363632" height="35.88602442333786"/><rect fill="#00BFA5" stroke="none" x="366.95454545454544" y="347.9050203527815" width="35.363636363636374" height="12.276797829036639"/></g><g><path fill="none" stroke="none"/><rect fill="#8c9eff" stroke="none" x="48.6818181818182" y="351.68249660786967" width="35.36363636363636" height="8.499321573948464" fill-opacity="0.6"/><rect fill="#8c9eff" stroke="none" x="84.04545454545456" y="299.742198100407" width="35.363636363636374" height="60.439620081411135" fill-opacity="0.6"/><rect fill="#8c9eff" stroke="none" x="119.40909090909093" y="232.6919945725915" width="35.363636363636374" height="127.48982360922662" fill-opacity="0.6"/><rect fill="#8c9eff" stroke="none" x="154.7727272727273" y="177.9185888738127" width="35.363636363636374" height="182.26322930800544" fill-opacity="0.6"/><rect fill="#8c9eff" stroke="none" x="190.13636363636368" y="142.03256445047484" width="35.36363636363632" height="218.1492537313433" fill-opacity="0.6"/><rect fill="#8c9eff" stroke="none" x="225.5" y="118.42333785617362" width="35.36363636363643" height="241.7584803256445" fill-opacity="0.6"/><rect fill="#8c9eff" stroke="none" x="260.86363636363643" y="114.64586160108541" width="35.36363636363632" height="245.53595658073272" fill-opacity="0.6"/><rect fill="#8c9eff" stroke="none" x="296.22727272727275" y="136.36635006784255" width="35.363636363636374" height="223.81546811397558" fill-opacity="0.6"/><rect fill="#8c9eff" stroke="none" x="331.5909090909091" y="129.7557666214382" width="35.36363636363632" height="230.42605156037993" fill-opacity="0.6"/><rect fill="#8c9eff" stroke="none" x="366.95454545454544" y="142.9769335142469" width="35.363636363636374" height="217.20488466757124" fill-opacity="0.6"/></g></g></g><g><g clip-path="url(#VeRKCZoiWmzc)"><g><g/><g><path fill="#ffffff" stroke="#e5e5e5" paint-order="fill stroke markers" d=" M 271.1875 38 L 410 38 L 410 101 L 271.1875 101 L 271.1875 38 Z" fill-opacity="0.95" stroke-linejoin="bevel" stroke-miterlimit="10" stroke-opacity="0.5"/><text fill="#444444" stroke="none" font-family="helvetica" font-size="10pt" font-style="normal" font-weight="normal" text-decoration="normal" x="306.1875" y="58" text-anchor="start" dominant-baseline="central">PaidLoan: False</text><rect fill="#00BFA5" stroke="none" x="283.1875" y="50" width="16" height="16"/><text fill="#444444" stroke="none" font-family="helvetica" font-size="10pt" font-style="normal" font-weight="normal" text-decoration="normal" x="306.1875" y="81" text-anchor="start" dominant-baseline="central">PaidLoan: True</text><rect fill="#8c9eff" stroke="none" x="283.1875" y="73" width="16" height="16" fill-opacity="0.6"/></g></g></g><g fill="#444444"><path fill="" stroke="none" d=""/><g transform="translate(31,23)"><path fill="none" stroke="none"/><text fill="" stroke="none" font-family="Helvetica Neue" font-size="10pt" font-style="normal" font-weight="bold" text-decoration="normal" x="0" y="0" text-anchor="start" dominant-baseline="text-after-edge">Predicted probabilities for people under 40 years old</text></g></g></g><g><g fill="#444444"><path fill="none" stroke="black" paint-order="fill stroke markers" d=" M 31 376 L 420 376" stroke-linejoin="bevel" stroke-miterlimit="10"/><path fill="none" stroke="black" paint-order="fill stroke markers" d=" M 49 382 L 49 374" stroke-linejoin="bevel" stroke-miterlimit="10"/><path fill="none" stroke="black" paint-order="fill stroke markers" d=" M 119 382 L 119 374" stroke-linejoin="bevel" stroke-miterlimit="10"/><path fill="none" stroke="black" paint-order="fill stroke markers" d=" M 190 382 L 190 374" stroke-linejoin="bevel" stroke-miterlimit="10"/><path fill="none" stroke="black" paint-order="fill stroke markers" d=" M 261 382 L 261 374" stroke-linejoin="bevel" stroke-miterlimit="10"/><path fill="none" stroke="black" paint-order="fill stroke markers" d=" M 332 382 L 332 374" stroke-linejoin="bevel" stroke-miterlimit="10"/><path fill="none" stroke="black" paint-order="fill stroke markers" d=" M 402 382 L 402 374" stroke-linejoin="bevel" stroke-miterlimit="10"/><path fill="none" stroke="black" paint-order="fill stroke markers" d=" M 35 380 L 35 376" stroke-linejoin="bevel" stroke-miterlimit="10"/><path fill="none" stroke="black" paint-order="fill stroke markers" d=" M 49 380 L 49 376" stroke-linejoin="bevel" stroke-miterlimit="10"/><path fill="none" stroke="black" paint-order="fill stroke markers" d=" M 63 380 L 63 376" stroke-linejoin="bevel" stroke-miterlimit="10"/><path fill="none" stroke="black" paint-order="fill stroke markers" d=" M 77 380 L 77 376" stroke-linejoin="bevel" stroke-miterlimit="10"/><path fill="none" stroke="black" paint-order="fill stroke markers" d=" M 91 380 L 91 376" stroke-linejoin="bevel" stroke-miterlimit="10"/><path fill="none" stroke="black" paint-order="fill stroke markers" d=" M 105 380 L 105 376" stroke-linejoin="bevel" stroke-miterlimit="10"/><path fill="none" stroke="black" paint-order="fill stroke markers" d=" M 119 380 L 119 376" stroke-linejoin="bevel" stroke-miterlimit="10"/><path fill="none" stroke="black" paint-order="fill stroke markers" d=" M 134 380 L 134 376" stroke-linejoin="bevel" stroke-miterlimit="10"/><path fill="none" stroke="black" paint-order="fill stroke markers" d=" M 148 380 L 148 376" stroke-linejoin="bevel" stroke-miterlimit="10"/><path fill="none" stroke="black" paint-order="fill stroke markers" d=" M 162 380 L 162 376" stroke-linejoin="bevel" stroke-miterlimit="10"/><path fill="none" stroke="black" paint-order="fill stroke markers" d=" M 176 380 L 176 376" stroke-linejoin="bevel" stroke-miterlimit="10"/><path fill="none" stroke="black" paint-order="fill stroke markers" d=" M 190 380 L 190 376" stroke-linejoin="bevel" stroke-miterlimit="10"/><path fill="none" stroke="black" paint-order="fill stroke markers" d=" M 204 380 L 204 376" stroke-linejoin="bevel" stroke-miterlimit="10"/><path fill="none" stroke="black" paint-order="fill stroke markers" d=" M 218 380 L 218 376" stroke-linejoin="bevel" stroke-miterlimit="10"/><path fill="none" stroke="black" paint-order="fill stroke markers" d=" M 233 380 L 233 376" stroke-linejoin="bevel" stroke-miterlimit="10"/><path fill="none" stroke="black" paint-order="fill stroke markers" d=" M 247 380 L 247 376" stroke-linejoin="bevel" stroke-miterlimit="10"/><path fill="none" stroke="black" paint-order="fill stroke markers" d=" M 261 380 L 261 376" stroke-linejoin="bevel" stroke-miterlimit="10"/><path fill="none" stroke="black" paint-order="fill stroke markers" d=" M 275 380 L 275 376" stroke-linejoin="bevel" stroke-miterlimit="10"/><path fill="none" stroke="black" paint-order="fill stroke markers" d=" M 289 380 L 289 376" stroke-linejoin="bevel" stroke-miterlimit="10"/><path fill="none" stroke="black" paint-order="fill stroke markers" d=" M 303 380 L 303 376" stroke-linejoin="bevel" stroke-miterlimit="10"/><path fill="none" stroke="black" paint-order="fill stroke markers" d=" M 317 380 L 317 376" stroke-linejoin="bevel" stroke-miterlimit="10"/><path fill="none" stroke="black" paint-order="fill stroke markers" d=" M 332 380 L 332 376" stroke-linejoin="bevel" stroke-miterlimit="10"/><path fill="none" stroke="black" paint-order="fill stroke markers" d=" M 346 380 L 346 376" stroke-linejoin="bevel" stroke-miterlimit="10"/><path fill="none" stroke="black" paint-order="fill stroke markers" d=" M 360 380 L 360 376" stroke-linejoin="bevel" stroke-miterlimit="10"/><path fill="none" stroke="black" paint-order="fill stroke markers" d=" M 374 380 L 374 376" stroke-linejoin="bevel" stroke-miterlimit="10"/><path fill="none" stroke="black" paint-order="fill stroke markers" d=" M 388 380 L 388 376" stroke-linejoin="bevel" stroke-miterlimit="10"/><path fill="none" stroke="black" paint-order="fill stroke markers" d=" M 402 380 L 402 376" stroke-linejoin="bevel" stroke-miterlimit="10"/><path fill="" stroke="black" paint-order="fill stroke markers" d=" M 416 380 L 416 376" stroke-linejoin="bevel" stroke-miterlimit="10"/><g transform="translate(49,387) rotate(0,0,0)"><text fill="" stroke="none" font-family="helvetica" font-size="8pt" font-style="normal" font-weight="normal" text-decoration="normal" x="0" y="0" text-anchor="middle" dominant-baseline="hanging">0</text><g transform="rotate(0,0,0) translate(-49,-387) translate(119,387) rotate(0,0,0)"><text fill="" stroke="none" font-family="helvetica" font-size="8pt" font-style="normal" font-weight="normal" text-decoration="normal" x="0" y="0" text-anchor="middle" dominant-baseline="hanging">0.2</text><g transform="rotate(0,0,0) translate(-119,-387) translate(190,387) rotate(0,0,0)"><text fill="" stroke="none" font-family="helvetica" font-size="8pt" font-style="normal" font-weight="normal" text-decoration="normal" x="0" y="0" text-anchor="middle" dominant-baseline="hanging">0.4</text><g transform="rotate(0,0,0) translate(-190,-387) translate(261,387) rotate(0,0,0)"><text fill="" stroke="none" font-family="helvetica" font-size="8pt" font-style="normal" font-weight="normal" text-decoration="normal" x="0" y="0" text-anchor="middle" dominant-baseline="hanging">0.6</text><g transform="rotate(0,0,0) translate(-261,-387) translate(332,387) rotate(0,0,0)"><text fill="" stroke="none" font-family="helvetica" font-size="8pt" font-style="normal" font-weight="normal" text-decoration="normal" x="0" y="0" text-anchor="middle" dominant-baseline="hanging">0.8</text><g transform="rotate(0,0,0) translate(-332,-387) translate(402,387) rotate(0,0,0)"><text fill="" stroke="none" font-family="helvetica" font-size="8pt" font-style="normal" font-weight="normal" text-decoration="normal" x="0" y="0" text-anchor="middle" dominant-baseline="hanging">1</text><g transform="rotate(0,0,0) translate(-402,-387)"/></g></g></g></g></g></g></g><g fill="#444444"><path fill="none" stroke="black" paint-order="fill stroke markers" d=" M 31 376 L 31 28" stroke-linejoin="bevel" stroke-miterlimit="10"/><path fill="none" stroke="black" paint-order="fill stroke markers" d=" M 25 360 L 33 360" stroke-linejoin="bevel" stroke-miterlimit="10"/><path fill="none" stroke="black" paint-order="fill stroke markers" d=" M 25 313 L 33 313" stroke-linejoin="bevel" stroke-miterlimit="10"/><path fill="none" stroke="black" paint-order="fill stroke markers" d=" M 25 266 L 33 266" stroke-linejoin="bevel" stroke-miterlimit="10"/><path fill="none" stroke="black" paint-order="fill stroke markers" d=" M 25 219 L 33 219" stroke-linejoin="bevel" stroke-miterlimit="10"/><path fill="none" stroke="black" paint-order="fill stroke markers" d=" M 25 171 L 33 171" stroke-linejoin="bevel" stroke-miterlimit="10"/><path fill="none" stroke="black" paint-order="fill stroke markers" d=" M 25 124 L 33 124" stroke-linejoin="bevel" stroke-miterlimit="10"/><path fill="none" stroke="black" paint-order="fill stroke markers" d=" M 25 77 L 33 77" stroke-linejoin="bevel" stroke-miterlimit="10"/><path fill="none" stroke="black" paint-order="fill stroke markers" d=" M 25 30 L 33 30" stroke-linejoin="bevel" stroke-miterlimit="10"/><path fill="none" stroke="black" paint-order="fill stroke markers" d=" M 27 370 L 31 370" stroke-linejoin="bevel" stroke-miterlimit="10"/><path fill="none" stroke="black" paint-order="fill stroke markers" d=" M 27 360 L 31 360" stroke-linejoin="bevel" stroke-miterlimit="10"/><path fill="none" stroke="black" paint-order="fill stroke markers" d=" M 27 351 L 31 351" stroke-linejoin="bevel" stroke-miterlimit="10"/><path fill="none" stroke="black" paint-order="fill stroke markers" d=" M 27 341 L 31 341" stroke-linejoin="bevel" stroke-miterlimit="10"/><path fill="none" stroke="black" paint-order="fill stroke markers" d=" M 27 332 L 31 332" stroke-linejoin="bevel" stroke-miterlimit="10"/><path fill="none" stroke="black" paint-order="fill stroke markers" d=" M 27 322 L 31 322" stroke-linejoin="bevel" stroke-miterlimit="10"/><path fill="none" stroke="black" paint-order="fill stroke markers" d=" M 27 313 L 31 313" stroke-linejoin="bevel" stroke-miterlimit="10"/><path fill="none" stroke="black" paint-order="fill stroke markers" d=" M 27 304 L 31 304" stroke-linejoin="bevel" stroke-miterlimit="10"/><path fill="none" stroke="black" paint-order="fill stroke markers" d=" M 27 294 L 31 294" stroke-linejoin="bevel" stroke-miterlimit="10"/><path fill="none" stroke="black" paint-order="fill stroke markers" d=" M 27 285 L 31 285" stroke-linejoin="bevel" stroke-miterlimit="10"/><path fill="none" stroke="black" paint-order="fill stroke markers" d=" M 27 275 L 31 275" stroke-linejoin="bevel" stroke-miterlimit="10"/><path fill="none" stroke="black" paint-order="fill stroke markers" d=" M 27 266 L 31 266" stroke-linejoin="bevel" stroke-miterlimit="10"/><path fill="none" stroke="black" paint-order="fill stroke markers" d=" M 27 256 L 31 256" stroke-linejoin="bevel" stroke-miterlimit="10"/><path fill="none" stroke="black" paint-order="fill stroke markers" d=" M 27 247 L 31 247" stroke-linejoin="bevel" stroke-miterlimit="10"/><path fill="none" stroke="black" paint-order="fill stroke markers" d=" M 27 237 L 31 237" stroke-linejoin="bevel" stroke-miterlimit="10"/><path fill="none" stroke="black" paint-order="fill stroke markers" d=" M 27 228 L 31 228" stroke-linejoin="bevel" stroke-miterlimit="10"/><path fill="none" stroke="black" paint-order="fill stroke markers" d=" M 27 219 L 31 219" stroke-linejoin="bevel" stroke-miterlimit="10"/><path fill="none" stroke="black" paint-order="fill stroke markers" d=" M 27 209 L 31 209" stroke-linejoin="bevel" stroke-miterlimit="10"/><path fill="none" stroke="black" paint-order="fill stroke markers" d=" M 27 200 L 31 200" stroke-linejoin="bevel" stroke-miterlimit="10"/><path fill="none" stroke="black" paint-order="fill stroke markers" d=" M 27 190 L 31 190" stroke-linejoin="bevel" stroke-miterlimit="10"/><path fill="none" stroke="black" paint-order="fill stroke markers" d=" M 27 181 L 31 181" stroke-linejoin="bevel" stroke-miterlimit="10"/><path fill="none" stroke="black" paint-order="fill stroke markers" d=" M 27 171 L 31 171" stroke-linejoin="bevel" stroke-miterlimit="10"/><path fill="none" stroke="black" paint-order="fill stroke markers" d=" M 27 162 L 31 162" stroke-linejoin="bevel" stroke-miterlimit="10"/><path fill="none" stroke="black" paint-order="fill stroke markers" d=" M 27 152 L 31 152" stroke-linejoin="bevel" stroke-miterlimit="10"/><path fill="none" stroke="black" paint-order="fill stroke markers" d=" M 27 143 L 31 143" stroke-linejoin="bevel" stroke-miterlimit="10"/><path fill="none" stroke="black" paint-order="fill stroke markers" d=" M 27 134 L 31 134" stroke-linejoin="bevel" stroke-miterlimit="10"/><path fill="none" stroke="black" paint-order="fill stroke markers" d=" M 27 124 L 31 124" stroke-linejoin="bevel" stroke-miterlimit="10"/><path fill="none" stroke="black" paint-order="fill stroke markers" d=" M 27 115 L 31 115" stroke-linejoin="bevel" stroke-miterlimit="10"/><path fill="none" stroke="black" paint-order="fill stroke markers" d=" M 27 105 L 31 105" stroke-linejoin="bevel" stroke-miterlimit="10"/><path fill="none" stroke="black" paint-order="fill stroke markers" d=" M 27 96 L 31 96" stroke-linejoin="bevel" stroke-miterlimit="10"/><path fill="none" stroke="black" paint-order="fill stroke markers" d=" M 27 86 L 31 86" stroke-linejoin="bevel" stroke-miterlimit="10"/><path fill="none" stroke="black" paint-order="fill stroke markers" d=" M 27 77 L 31 77" stroke-linejoin="bevel" stroke-miterlimit="10"/><path fill="none" stroke="black" paint-order="fill stroke markers" d=" M 27 67 L 31 67" stroke-linejoin="bevel" stroke-miterlimit="10"/><path fill="none" stroke="black" paint-order="fill stroke markers" d=" M 27 58 L 31 58" stroke-linejoin="bevel" stroke-miterlimit="10"/><path fill="none" stroke="black" paint-order="fill stroke markers" d=" M 27 49 L 31 49" stroke-linejoin="bevel" stroke-miterlimit="10"/><path fill="none" stroke="black" paint-order="fill stroke markers" d=" M 27 39 L 31 39" stroke-linejoin="bevel" stroke-miterlimit="10"/><path fill="" stroke="black" paint-order="fill stroke markers" d=" M 27 30 L 31 30" stroke-linejoin="bevel" stroke-miterlimit="10"/><g transform="translate(20,360) rotate(0,0,0)"><text fill="" stroke="none" font-family="helvetica" font-size="8pt" font-style="normal" font-weight="normal" text-decoration="normal" x="0" y="0" text-anchor="end" dominant-baseline="central">0</text><g transform="rotate(0,0,0) translate(-20,-360) translate(20,313) rotate(0,0,0)"><text fill="" stroke="none" font-family="helvetica" font-size="8pt" font-style="normal" font-weight="normal" text-decoration="normal" x="0" y="0" text-anchor="end" dominant-baseline="central">50</text><g transform="rotate(0,0,0) translate(-20,-313) translate(20,266) rotate(0,0,0)"><text fill="" stroke="none" font-family="helvetica" font-size="8pt" font-style="normal" font-weight="normal" text-decoration="normal" x="0" y="0" text-anchor="end" dominant-baseline="central">100</text><g transform="rotate(0,0,0) translate(-20,-266) translate(20,219) rotate(0,0,0)"><text fill="" stroke="none" font-family="helvetica" font-size="8pt" font-style="normal" font-weight="normal" text-decoration="normal" x="0" y="0" text-anchor="end" dominant-baseline="central">150</text><g transform="rotate(0,0,0) translate(-20,-219) translate(20,171) rotate(0,0,0)"><text fill="" stroke="none" font-family="helvetica" font-size="8pt" font-style="normal" font-weight="normal" text-decoration="normal" x="0" y="0" text-anchor="end" dominant-baseline="central">200</text><g transform="rotate(0,0,0) translate(-20,-171) translate(20,124) rotate(0,0,0)"><text fill="" stroke="none" font-family="helvetica" font-size="8pt" font-style="normal" font-weight="normal" text-decoration="normal" x="0" y="0" text-anchor="end" dominant-baseline="central">250</text><g transform="rotate(0,0,0) translate(-20,-124) translate(20,77) rotate(0,0,0)"><text fill="" stroke="none" font-family="helvetica" font-size="8pt" font-style="normal" font-weight="normal" text-decoration="normal" x="0" y="0" text-anchor="end" dominant-baseline="central">300</text><g transform="rotate(0,0,0) translate(-20,-77) translate(20,30) rotate(0,0,0)"><text fill="" stroke="none" font-family="helvetica" font-size="8pt" font-style="normal" font-weight="normal" text-decoration="normal" x="0" y="0" text-anchor="end" dominant-baseline="central">350</text><g transform="rotate(0,0,0) translate(-20,-30)"/></g></g></g></g></g></g></g></g></g></g></g></g></svg>